<?xml version="1.0" encoding="utf-8"?>
<!-- Generator: Adobe Illustrator 26.0.1, SVG Export Plug-In . SVG Version: 6.00 Build 0)  -->
<svg version="1.1" id="Livello_1" xmlns="http://www.w3.org/2000/svg" xmlns:xlink="http://www.w3.org/1999/xlink" x="0px" y="0px"
	 viewBox="0 0 721.43 54.72" enable-background="new 0 0 721.43 54.72" xml:space="preserve">
<g>
	<path fill="#FFFFFF" d="M0,2.23h22.03c9.36,0,15.99,5.83,15.99,13.18c0,6.41-4.75,10.15-10.08,12.03
		c6.34,1.58,12.46,5.4,12.46,13.03c0,8.93-8.28,13.61-18,13.61H0v-0.29c0.29-1.3,1.66-5.98,1.66-10.44V12.96
		C1.66,8.42,0.29,3.82,0,2.45V2.23z M28.51,15.41c0-5.26-3.02-10.37-9.43-10.37h-8.42v21.17h8.06
		C25.13,26.21,28.51,21.24,28.51,15.41z M30.96,40.47c0-6.98-4.39-11.38-11.52-11.38h-7.99l-0.79,0.07V51.2h8.78
		C27.43,51.2,30.96,47.24,30.96,40.47z"/>
	<path fill="#FFFFFF" d="M45,36.08c0-11.38,7.34-18.43,17.43-18.43c10.66,0,15.84,7.99,15.84,17.43H54.29
		c0.5,8.14,4.18,13.9,11.81,13.9c3.89,0,7.49-1.37,11.67-4.9l0.22,0.22c-2.16,5.33-7.7,10.44-15.55,10.44
		C53.42,54.72,45,48.17,45,36.08z M54.22,33.34l15.41-1.66c-0.22-6.19-2.23-11.45-7.34-11.45C56.52,20.23,54.22,26.64,54.22,33.34z"
		/>
	<path fill="#FFFFFF" d="M83.66,51.41v-9h0.29c3.89,4.25,8.64,9.43,14.04,9.43c3.1,0,6.26-1.66,6.26-5.26
		c0-3.67-3.46-4.97-9.36-7.06c-7.34-2.52-11.81-5.54-11.81-11.3c0-6.7,5.9-10.58,14.04-10.58c3.46,0,8.14,0.86,12.6,2.81v8.5h-0.29
		c-3.74-4.46-8.14-8.64-13.03-8.64c-3.17,0-6.19,1.66-6.19,4.75c0,3.6,3.89,4.75,9.65,6.7c7.99,2.74,11.23,6.12,11.23,11.52
		c0,7.85-6.55,11.38-13.68,11.38C93.89,54.65,89.14,53.72,83.66,51.41z"/>
	<path fill="#FFFFFF" d="M119.52,44.07V20.95h-5.26v-2.38c6.77-2.52,10.3-6.7,13.1-11.67h0.65v11.16h9.94v2.88h-9.94v22.18
		c0,3.96,1.94,5.83,5.11,5.83c1.58,0,3.82-0.43,6.12-1.87c-1.8,4.1-5.33,7.63-10.66,7.63C122.83,54.72,119.52,50.62,119.52,44.07z"
		/>
	<path fill="#FFFFFF" d="M143.35,5.54c0-3.1,2.52-5.54,5.62-5.54s5.69,2.45,5.69,5.54s-2.59,5.54-5.69,5.54
		C145.94,11.09,143.35,8.64,143.35,5.54z M155.23,54.08h-11.74v-0.29c0.29-1.3,1.66-5.98,1.66-10.44V28.8
		c0-4.54-1.37-9.14-1.66-10.51v-0.22h10.08v25.27c0,4.46,1.37,9.15,1.66,10.44V54.08z"/>
	<path fill="#FFFFFF" d="M160.2,43.64c0-7.92,8.42-12.6,18.07-11.31c1.58,0.22,3.1,0.5,4.25,0.86v-4.46c0-5.4-2.09-8.28-5.18-8.28
		c-4.39,0-12.89,6.91-14.33,8.93h-0.29v-8.93c5.62-1.87,11.23-2.81,15.12-2.81c8.71,0,13.18,4.54,13.18,11.45v16.56
		c0,3.82,1.51,5.26,4.61,4.03l0.07,0.22c-0.72,2.66-3.02,4.54-6.26,4.54c-3.6,0-5.98-1.94-6.7-5.33c-2.02,2.81-5.62,5.54-10.94,5.54
		C164.3,54.65,160.2,49.18,160.2,43.64z M176.18,49.97c2.38,0,4.54-1.15,6.34-3.24V35.35c-0.36,0-0.72-0.07-1.08-0.14
		c-8.06-1.3-12.31,2.59-12.31,7.42C169.13,46.88,172.15,49.97,176.18,49.97z"/>
	<path fill="#FFFFFF" d="M210.81,54.08h-11.74v-0.29c0.29-1.3,1.66-5.98,1.66-10.44V28.8c0-4.54-1.37-9.14-1.66-10.51v-0.22h10.08
		v6.41c2.74-5.18,7.92-8.64,14.76-6.48l-1.3,9.29h-0.36c-3.24-3.02-8.5-4.9-13.11-0.86v16.92c0,4.46,1.37,9.15,1.66,10.44V54.08z"/>
	<path fill="#FFFFFF" d="M228.17,5.54c0-3.1,2.52-5.54,5.62-5.54s5.69,2.45,5.69,5.54s-2.59,5.54-5.69,5.54
		C230.76,11.09,228.17,8.64,228.17,5.54z M240.05,54.08h-11.74v-0.29c0.29-1.3,1.66-5.98,1.66-10.44V28.8
		c0-4.54-1.37-9.14-1.66-10.51v-0.22h10.08v25.27c0,4.46,1.37,9.15,1.66,10.44V54.08z"/>
	<path fill="#FFFFFF" d="M244.65,36c0-11.95,8.21-18.36,18.07-18.36c9.79,0,18.22,6.41,18.22,18.36c0,11.95-8.42,18.72-18.22,18.72
		C252.86,54.72,244.65,47.96,244.65,36z M271.44,36c0-8.21-2.88-15.77-8.71-15.77s-8.64,7.56-8.64,15.77
		c0,8.21,2.81,15.99,8.64,15.99S271.44,44.28,271.44,36z"/>
	<path fill="#FFFFFF" d="M301.68,34.13c4.82-12.89,13.11-16.56,18-16.49c3.6,0.07,5.98,2.02,7.06,4.61l2.66-10.01
		c1.22-4.46,1.3-8.93,1.15-10.23l-0.07-0.22l10.3-1.37l-12.31,45.94c-1.15,4.39,4.03,1.37,8.42-5.04l0.58,0.43
		c-2.95,7.13-7.92,12.89-13.03,12.89c-3.96,0-5.54-3.17-4.18-8.35l0.43-1.51c-4.75,7.13-9.72,9.94-13.54,9.94
		C300.31,54.72,297.07,46.52,301.68,34.13z M311.54,49.4c3.74,0,8.78-5.47,11.88-14.83l2.09-7.92c0.07-2.88-1.08-5.11-3.6-5.18
		c-4.1-0.07-8.78,5.4-11.38,12.6C307.29,42.77,307.29,49.4,311.54,49.4z"/>
	<path fill="#FFFFFF" d="M342.71,34.78c3.24-11.3,12.31-17.14,20.45-17.14c6.48,0,11.59,3.46,10.23,9
		c-1.3,5.9-9.15,11.16-22.83,10.37c-1.3,7.2,1.08,12.1,6.48,12.1c4.1,0,10.08-2.52,14.19-9l0.79,0.5
		c-3.96,8.35-11.45,14.11-18.65,14.11C345.23,54.72,339.19,47.02,342.71,34.78z M351,35.14c9.72-0.5,13.97-4.61,15.12-8.57
		c0.94-3.38-0.29-6.34-3.31-6.34c-5.04,0-9.65,7.34-11.52,13.83C351.21,34.42,351.07,34.78,351,35.14z"/>
	<path fill="#FFFFFF" d="M376.27,46.01l9-33.77c1.22-4.46,1.22-9,1.08-10.3V1.8l10.3-1.37l-12.02,44.86
		c-1.58,6.19,3.89,2.16,8.21-4.25l0.65,0.43c-2.95,7.2-7.99,12.89-12.96,12.89C376.41,54.36,374.83,51.12,376.27,46.01z"/>
	<path fill="#FFFFFF" d="M397.22,46.01l9-33.77c1.22-4.46,1.22-9,1.08-10.3V1.8l10.3-1.37l-12.02,44.86
		c-1.58,6.19,3.89,2.16,8.21-4.25l0.65,0.43c-2.95,7.2-7.99,12.89-12.96,12.89C397.36,54.36,395.78,51.12,397.22,46.01z"/>
	<path fill="#FFFFFF" d="M431.27,12.31c-3.31,0.29-4.9-2.23-4.1-5.4c0.79-3.02,3.53-5.11,6.12-5.04c3.02,0,4.75,2.74,3.67,6.98
		c-1.15,4.75-5.4,9.65-10.51,11.3h-1.94C428.75,17.93,430.84,14.11,431.27,12.31z"/>
	<path fill="#FFFFFF" d="M438.69,40.61l11.02-30.53c1.22-3.31-0.29-6.84-0.65-7.63V2.23h10.8l15.41,40.76
		c1.73,4.61,3.31,8.06,5.18,10.87v0.22h-14.4v-0.29c0.29-1.51,1.15-6.26-0.58-10.87l-2.45-6.48h-19.59l-1.51,4.32
		c-1.94,5.54-0.29,11.23,0.14,12.96v0.36h-9.22v-0.22C434.37,51.41,436.67,46.23,438.69,40.61z M461.95,33.41l-8.93-23.62
		l-8.5,23.62H461.95z"/>
	<path fill="#FFFFFF" d="M506.8,48.6c-3.02,4.39-7.2,6.05-11.09,6.05c-7.56,0-14.4-6.26-14.4-18.36c0-12.53,7.2-18.65,14.83-18.58
		c4.03-0.07,7.85,1.73,10.3,5.18V12.24c0-4.46-1.94-8.93-2.45-10.15l-0.07-0.29l2.23-0.29l8.79-1.08v42.92
		c0,4.46,1.37,9.15,1.66,10.44v0.29h-7.92C508.1,52.28,507.23,50.84,506.8,48.6z M499.17,50.26c2.74,0,5.11-1.51,7.27-3.74
		c0-0.58,0-1.15,0-1.8V25.71c-1.87-1.87-4.18-3.24-6.91-3.24c-5.83,0-9,5.69-9,13.54C490.53,43.28,492.9,50.19,499.17,50.26z"/>
	<path fill="#FFFFFF" d="M533.73,54.08h-11.74v-0.29c0.29-1.3,1.66-5.98,1.66-10.44V28.8c0-4.54-1.37-9.14-1.66-10.51v-0.22h10.08
		v6.41c2.74-5.18,7.92-8.64,14.76-6.48l-1.3,9.29h-0.36c-3.24-3.02-8.5-4.9-13.11-0.86v16.92c0,4.46,1.37,9.15,1.66,10.44V54.08z"/>
	<path fill="#FFFFFF" d="M551.08,5.54c0-3.1,2.52-5.54,5.62-5.54s5.69,2.45,5.69,5.54s-2.59,5.54-5.69,5.54
		C553.67,11.09,551.08,8.64,551.08,5.54z M562.96,54.08h-11.74v-0.29c0.29-1.3,1.66-5.98,1.66-10.44V28.8
		c0-4.54-1.37-9.14-1.66-10.51v-0.22h10.08v25.27c0,4.46,1.37,9.15,1.66,10.44V54.08z"/>
	<path fill="#FFFFFF" d="M567.93,43.64c0-7.92,8.42-12.6,18.07-11.31c1.58,0.22,3.1,0.5,4.25,0.86v-4.46c0-5.4-2.09-8.28-5.18-8.28
		c-4.39,0-12.89,6.91-14.33,8.93h-0.29v-8.93c5.62-1.87,11.23-2.81,15.12-2.81c8.71,0,13.18,4.54,13.18,11.45v16.56
		c0,3.82,1.51,5.26,4.61,4.03l0.07,0.22c-0.72,2.66-3.02,4.54-6.26,4.54c-3.6,0-5.98-1.94-6.7-5.33c-2.02,2.81-5.62,5.54-10.94,5.54
		C572.03,54.65,567.93,49.18,567.93,43.64z M583.91,49.97c2.38,0,4.54-1.15,6.34-3.24V35.35c-0.36,0-0.72-0.07-1.08-0.14
		c-8.06-1.3-12.31,2.59-12.31,7.42C576.85,46.88,579.88,49.97,583.91,49.97z"/>
	<path fill="#FFFFFF" d="M608.89,44.07V20.95h-5.26v-2.38c6.77-2.52,10.3-6.7,13.1-11.67h0.65v11.16h9.94v2.88h-9.94v22.18
		c0,3.96,1.94,5.83,5.11,5.83c1.58,0,3.82-0.43,6.12-1.87c-1.8,4.1-5.33,7.63-10.66,7.63C612.21,54.72,608.89,50.62,608.89,44.07z"
		/>
	<path fill="#FFFFFF" d="M632.72,5.54c0-3.1,2.52-5.54,5.62-5.54s5.69,2.45,5.69,5.54s-2.59,5.54-5.69,5.54
		C635.32,11.09,632.72,8.64,632.72,5.54z M644.61,54.08h-11.74v-0.29c0.29-1.3,1.66-5.98,1.66-10.44V28.8
		c0-4.54-1.37-9.14-1.66-10.51v-0.22h10.08v25.27c0,4.46,1.37,9.15,1.66,10.44V54.08z"/>
	<path fill="#FFFFFF" d="M649.21,36.08c0-11.74,7.42-18.43,17.64-18.43c5.4,0,10.01,2.02,13.1,3.38l0.07,9.65h-0.29
		c-2.52-4.18-7.2-10.44-12.67-10.44c-5.9,0-8.64,6.41-8.64,13.61c0.07,8.93,4.03,15.12,11.88,15.12c3.17,0,7.06-1.01,11.16-4.46
		l0.22,0.14c-2.23,5.4-7.63,10.08-15.12,10.08C657.64,54.72,649.21,48.39,649.21,36.08z"/>
	<path fill="#FFFFFF" d="M685.14,36c0-11.95,8.21-18.36,18.07-18.36c9.79,0,18.22,6.41,18.22,18.36c0,11.95-8.42,18.72-18.22,18.72
		C693.35,54.72,685.14,47.96,685.14,36z M711.93,36c0-8.21-2.88-15.77-8.71-15.77s-8.64,7.56-8.64,15.77
		c0,8.21,2.81,15.99,8.64,15.99S711.93,44.28,711.93,36z"/>
</g>
</svg>
