<?xml version="1.0" encoding="utf-8"?>
<!-- Generator: Adobe Illustrator 26.0.1, SVG Export Plug-In . SVG Version: 6.00 Build 0)  -->
<svg version="1.1" id="Livello_1" xmlns="http://www.w3.org/2000/svg" xmlns:xlink="http://www.w3.org/1999/xlink" x="0px" y="0px"
	 viewBox="0 0 929.34 289.1" enable-background="new 0 0 929.34 289.1" xml:space="preserve">
<g>
	<path fill="#FFFFFF" d="M0,6.99h58.05c24.01,0,40.67,14.69,40.67,33.33c0,16.31-12.36,25.09-25.8,29.56
		c16.13,3.94,31.89,13.08,31.89,32.43c0,22.4-20.96,33.69-44.97,33.69H0v-0.71c0.54-2.33,4.66-15.23,4.66-27.24v-73.1
		c0-12-4.12-24.91-4.66-27.24V6.99z M70.59,40.31c0-12.18-6.99-25.62-21.68-25.62H31.53v52.14h16.84
		C63.07,66.83,70.59,53.39,70.59,40.31z M76.87,102.13c0-15.95-8.96-27.77-26.16-27.77H31.53v53.93H50.7
		C68.62,128.29,76.87,118.61,76.87,102.13z"/>
	<path fill="#FFFFFF" d="M115.02,91.02c0-28.85,18.82-46.23,45.15-46.23c29.02,0,40.85,21.5,40.85,44.08h-58.23
		c1.79,18.81,10.21,32.25,28.49,32.25c9.32,0,17.74-3.04,27.95-10.75l0.71,0.36c-4.84,12.72-18.63,27.06-40.13,27.06
		C137.6,137.79,115.02,122.38,115.02,91.02z M142.61,84.57l33.15-5.2c-0.36-13.98-3.94-27.59-15.95-27.59
		c-13.08,0-17.38,15.59-17.2,30.64C142.61,83.14,142.61,83.86,142.61,84.57z"/>
	<path fill="#FFFFFF" d="M214.09,129.9v-24.55h0.71c10.39,10.75,22.75,24.73,36.19,24.73c6.99,0,13.98-3.76,13.98-11.47
		c0-8.6-8.78-11.64-23.47-16.84c-18.63-6.63-29.56-15.41-29.56-29.92c0-17.02,15.05-27.06,37.09-27.06c8.06,0,20.07,1.61,32.25,6.63
		v23.65h-0.9c-9.85-11.47-21.32-23.11-33.86-23.11c-6.81,0-13.44,3.4-13.44,10.39c0,8.42,9.68,11.46,23.83,16.31
		c20.96,7.17,28.13,16.66,28.13,29.56c0,20.6-17.38,29.38-35.66,29.38C240.97,137.61,228.61,135.64,214.09,129.9z"/>
	<path fill="#FFFFFF" d="M305.29,109.66V53.57h-13.08v-6.99c17.92-7.53,28.49-18.28,37.27-30.64h1.08v29.92h24.37v7.7h-24.37v53.58
		c0,9.49,5.02,13.8,12.36,13.8c3.76,0,8.78-1.08,13.98-3.94c-4.3,10.75-12.9,20.79-27.77,20.79
		C314.07,137.79,305.29,127.39,305.29,109.66z"/>
	<path fill="#FFFFFF" d="M366.56,15.95c0-8.96,7.17-15.95,16.13-15.95c8.78,0,16.13,6.99,16.13,15.95c0,8.78-7.53,15.77-16.13,15.77
		S366.56,24.73,366.56,15.95z M400.96,135.99h-34.4v-0.71c0.54-2.33,4.66-15.23,4.66-27.24V73.82c0-12-4.12-24.9-4.66-27.41v-0.54
		h29.74v62.17c0,12,4.12,24.91,4.66,27.24V135.99z"/>
	<path fill="#FFFFFF" d="M411.52,109.48c0-19.35,19.35-30.82,41.39-28.67c4.48,0.36,9.68,1.25,13.8,2.69V72.75
		c0-12.9-3.41-20.25-9.86-20.25c-10.75,0-35.48,19.89-37.81,23.11h-0.89V51.42c15.41-4.48,30.46-6.63,40.13-6.63
		c23.47,0,33.68,12.18,33.68,29.56v37.81c0,10.03,3.23,14.33,11.47,10.75l0.36,0.54c-1.61,7.89-7.88,13.8-17.92,13.8
		c-9.5,0-15.95-5.02-18.28-13.97c-4.66,6.99-13.62,14.33-27.24,14.33C421.38,137.61,411.52,123.28,411.52,109.48z M454.17,123.81
		c4.66,0,8.96-2.15,12.54-5.91c0-0.72,0-1.43,0-2.15V88.87c-1.08,0-2.33,0-3.58-0.18c-16.84-2.15-25.26,6.45-25.26,17.2
		C437.86,116.29,444.49,123.81,454.17,123.81z"/>
	<path fill="#FFFFFF" d="M545.36,135.99h-34.58v-0.71c0.54-2.33,4.66-15.23,4.66-27.24V73.82c0-12-4.12-24.9-4.66-27.41v-0.54h29.92
		v17.02c6.63-13.44,18.99-23.29,37.45-17.38l-3.94,27.42h-0.9c-7.89-8.06-20.42-13.98-32.61-5.2v40.31c0,12,4.12,24.91,4.66,27.24
		V135.99z"/>
	<path fill="#FFFFFF" d="M587.28,15.95C587.28,6.99,594.44,0,603.4,0c8.78,0,16.13,6.99,16.13,15.95c0,8.78-7.53,15.77-16.13,15.77
		S587.28,24.73,587.28,15.95z M621.68,135.99h-34.4v-0.71c0.54-2.33,4.66-15.23,4.66-27.24V73.82c0-12-4.12-24.9-4.66-27.41v-0.54
		h29.74v62.17c0,12,4.12,24.91,4.66,27.24V135.99z"/>
	<path fill="#FFFFFF" d="M631.35,90.66c0-30.82,21.5-45.87,46.58-45.87c24.91,0,46.77,15.23,46.77,45.87
		c0,31-21.86,47.12-46.77,47.12C652.85,137.79,631.35,121.66,631.35,90.66z M696.39,90.66c0-19.53-5.38-38.88-18.46-38.88
		c-13.26,0-18.27,19.53-18.27,38.88c0,19.53,5.02,39.95,18.27,39.95C691.01,130.62,696.39,110.37,696.39,90.66z"/>
	<path fill="#FFFFFF" d="M3.14,213.45c7.04-18.81,19.12-24.17,26.27-24.06c5.25,0.1,8.72,2.94,10.3,6.72l3.89-14.6
		c1.79-6.51,1.89-13.03,1.68-14.92l-0.11-0.31l15.03-2l-17.97,67.04c-1.68,6.41,5.88,2,12.29-7.35l0.84,0.63
		c-4.31,10.4-11.56,18.81-19.02,18.81c-5.78,0-8.09-4.62-6.09-12.19l0.63-2.21c-6.93,10.4-14.18,14.5-19.75,14.5
		C1.14,243.5-3.58,231.52,3.14,213.45z M17.54,235.73c5.46,0,12.82-7.99,17.34-21.65l3.05-11.56c0.11-4.2-1.58-7.46-5.25-7.57
		c-5.99-0.11-12.82,7.88-16.6,18.39C11.34,226.06,11.34,235.73,17.54,235.73z"/>
	<path fill="#FFFFFF" d="M63.03,214.4c4.73-16.5,17.97-25.01,29.84-25.01c9.46,0,16.92,5.04,14.92,13.13
		c-1.89,8.62-13.35,16.29-33.31,15.13c-1.89,10.51,1.58,17.65,9.46,17.65c5.99,0,14.71-3.68,20.7-13.13l1.16,0.74
		c-5.78,12.19-16.71,20.59-27.21,20.59C66.7,243.5,57.88,232.26,63.03,214.4z M75.11,214.92c14.18-0.74,20.38-6.72,22.06-12.5
		c1.37-4.94-0.42-9.25-4.83-9.25c-7.36,0-14.08,10.72-16.81,20.17C75.42,213.87,75.21,214.4,75.11,214.92z"/>
	<path fill="#FFFFFF" d="M111.98,230.79l13.14-49.28c1.79-6.51,1.79-13.13,1.58-15.03v-0.21l15.03-2l-17.55,65.46
		c-2.31,9.04,5.67,3.15,11.98-6.2l0.94,0.63c-4.31,10.51-11.66,18.81-18.91,18.81C112.19,242.98,109.88,238.25,111.98,230.79z"/>
	<path fill="#FFFFFF" d="M142.56,230.79l13.13-49.28c1.79-6.51,1.79-13.13,1.58-15.03v-0.21l15.03-2l-17.55,65.46
		c-2.31,9.04,5.67,3.15,11.98-6.2l0.94,0.63c-4.31,10.51-11.66,18.81-18.91,18.81C142.77,242.98,140.45,238.25,142.56,230.79z"/>
	<path fill="#FFFFFF" d="M195.16,181.61c-4.83,0.42-7.15-3.26-5.99-7.88c1.16-4.41,5.15-7.46,8.93-7.35c4.41,0,6.94,3.99,5.36,10.19
		c-1.68,6.93-7.88,14.08-15.34,16.5h-2.84C191.48,189.81,194.53,184.24,195.16,181.61z"/>
	<g>
		<path fill="#FFFFFF" d="M201.05,250.4l25.26-70.24c3.4-9.32-1.61-19.71-2.15-21.32v-0.54h31.89l37.63,99.98
			c4.66,12.36,8.96,21.32,13.8,28.49v0.53H265.2v-0.71c0.54-2.69,4.12-16.13-0.54-28.49l-5.38-14.51h-46.94l-3.22,8.96
			c-5.2,14.69,1.08,30.82,1.79,33.86v0.89h-25.62v-0.53C189.05,280.14,195.5,266.16,201.05,250.4z M256.24,235.53l-20.96-56.08
			l-20.07,56.08H256.24z"/>
		<path fill="#FFFFFF" d="M371.8,274.05c-7.53,11.11-18.1,14.87-27.42,14.87c-18.28,0-36.01-15.23-36.01-46.59
			c0-31.17,17.56-46.23,36.37-46.23c10.21,0,20.07,4.48,25.98,13.44v-24.91c0-12-6.09-24.37-6.99-26.7l-0.18-0.54l6.45-0.9
			l25.98-3.04v105.89c0,12,4.12,24.91,4.66,27.24v0.71h-23.29C375.56,282.83,373.23,279.42,371.8,274.05z M355.49,276.02
			c5.38,0,10.39-2.51,15.41-6.99c-0.18-1.43-0.18-3.23-0.18-5.02v-47.3c-4.3-3.76-9.32-6.27-14.87-6.27
			c-13.8,0-20.07,13.8-20.07,31.36C335.78,259,340.62,276.02,355.49,276.02z"/>
		<path fill="#FFFFFF" d="M447.04,287.31h-34.58v-0.71c0.54-2.33,4.66-15.23,4.66-27.24v-34.22c0-12-4.12-24.9-4.66-27.41v-0.54
			h29.92v17.02c6.63-13.44,18.99-23.29,37.45-17.38l-3.94,27.42h-0.9c-7.88-8.06-20.42-13.98-32.61-5.2v40.31
			c0,12,4.12,24.91,4.66,27.24V287.31z"/>
		<path fill="#FFFFFF" d="M488.96,167.26c0-8.96,7.17-15.95,16.13-15.95c8.78,0,16.13,6.99,16.13,15.95
			c0,8.78-7.53,15.77-16.13,15.77C496.49,183.03,488.96,176.04,488.96,167.26z M523.36,287.31h-34.4v-0.71
			c0.54-2.33,4.66-15.23,4.66-27.24v-34.22c0-12-4.12-24.9-4.66-27.41v-0.54h29.74v62.17c0,12,4.12,24.91,4.66,27.24V287.31z"/>
		<path fill="#FFFFFF" d="M533.93,260.79c0-19.35,19.35-30.82,41.39-28.67c4.48,0.36,9.68,1.25,13.8,2.69v-10.75
			c0-12.9-3.41-20.25-9.86-20.25c-10.75,0-35.48,19.89-37.81,23.11h-0.89v-24.19c15.41-4.48,30.46-6.63,40.13-6.63
			c23.47,0,33.68,12.18,33.68,29.56v37.81c0,10.03,3.23,14.33,11.47,10.75l0.36,0.54c-1.61,7.89-7.88,13.8-17.92,13.8
			c-9.5,0-15.95-5.02-18.28-13.97c-4.66,6.99-13.62,14.33-27.24,14.33C543.78,288.92,533.93,274.59,533.93,260.79z M576.57,275.12
			c4.66,0,8.96-2.15,12.54-5.91c0-0.72,0-1.43,0-2.15v-26.88c-1.08,0-2.33,0-3.58-0.18c-16.84-2.15-25.27,6.45-25.27,17.2
			C560.27,267.6,566.89,275.12,576.57,275.12z"/>
		<path fill="#FFFFFF" d="M638.56,260.97v-56.08h-13.08v-6.99c17.92-7.53,28.49-18.28,37.27-30.64h1.08v29.92h24.37v7.7h-24.37
			v53.58c0,9.49,5.02,13.8,12.36,13.8c3.76,0,8.78-1.08,13.98-3.94c-4.3,10.75-12.9,20.79-27.77,20.79
			C647.34,289.1,638.56,278.71,638.56,260.97z"/>
		<path fill="#FFFFFF" d="M699.83,167.26c0-8.96,7.17-15.95,16.13-15.95c8.78,0,16.13,6.99,16.13,15.95
			c0,8.78-7.52,15.77-16.13,15.77C707.35,183.03,699.83,176.04,699.83,167.26z M734.23,287.31h-34.4v-0.71
			c0.54-2.33,4.66-15.23,4.66-27.24v-34.22c0-12-4.12-24.9-4.66-27.41v-0.54h29.74v62.17c0,12,4.12,24.91,4.66,27.24V287.31z"/>
		<path fill="#FFFFFF" d="M743.9,242.33c0-29.39,18.99-46.23,45.51-46.23c14.33,0,26.7,5.38,34.22,8.24l0.36,26.52h-0.89
			c-6.45-10.57-19.71-27.77-32.97-27.77c-13.26,0-18.81,15.05-18.63,31.71c0.18,22.22,8.96,37.63,28.49,37.63
			c7.7,0,17.2-2.51,27.41-10.21l0.54,0.54c-5.02,12.9-18.63,26.34-39.24,26.34C766.48,289.1,743.9,273.87,743.9,242.33z"/>
		<path fill="#FFFFFF" d="M835.99,241.98c0-30.82,21.5-45.87,46.59-45.87c24.91,0,46.77,15.23,46.77,45.87
			c0,31-21.86,47.12-46.77,47.12C857.49,289.1,835.99,272.97,835.99,241.98z M901.03,241.98c0-19.53-5.38-38.88-18.45-38.88
			c-13.26,0-18.28,19.53-18.28,38.88c0,19.53,5.02,39.95,18.28,39.95C895.65,281.93,901.03,261.68,901.03,241.98z"/>
	</g>
</g>
</svg>
