<svg width="172" height="175" viewBox="0 0 172 175" fill="none" xmlns="http://www.w3.org/2000/svg">
<path d="M119.336 92.988C121.676 89.856 123.464 87.732 123.464 86.04C123.464 85.392 123.104 84.708 122.3 84.708C121.4 84.708 120.572 85.728 119.972 86.736L119.924 86.724L119.6 84.948C120.38 84.588 121.316 84.24 122.336 84.24C123.848 84.24 125.024 85.008 125.024 86.316C125.024 87.408 124.184 88.44 123.176 89.376C122.3 90.324 121.076 91.5 120.728 91.812H122.696C123.632 91.812 124.412 91.632 125.048 91.152L125.084 91.164L124.808 92.988H119.336ZM129.107 93.096C127.151 93.096 125.627 91.296 125.627 88.644C125.627 86.064 127.151 84.264 129.107 84.264C131.063 84.264 132.599 86.064 132.599 88.644C132.599 91.296 131.063 93.096 129.107 93.096ZM129.107 92.604C130.439 92.604 130.907 90.588 130.907 88.632C130.907 86.712 130.427 84.756 129.107 84.756C127.775 84.756 127.319 86.796 127.319 88.656C127.319 90.636 127.787 92.604 129.107 92.604ZM138.601 93.108C137.113 93.108 135.709 92.052 135.709 90C135.709 88.044 136.945 86.928 138.649 86.928C139.549 86.928 140.317 87.264 140.833 87.492L140.845 89.1H140.797C140.377 88.404 139.597 87.36 138.685 87.36C137.701 87.36 137.245 88.428 137.245 89.628C137.257 91.116 137.917 92.148 139.225 92.148C139.753 92.148 140.401 91.98 141.085 91.404L141.121 91.428C140.749 92.328 139.849 93.108 138.601 93.108ZM143.677 92.952V93H141.733V92.952C141.781 92.736 142.009 91.956 142.009 91.212V88.788C142.009 88.032 141.781 87.264 141.733 87.036V87H143.401V87.924C143.881 87.3 144.445 86.928 145.201 86.928C145.933 86.928 146.617 87.276 146.905 88.068C147.397 87.36 147.997 86.928 148.813 86.928C149.773 86.928 150.649 87.528 150.649 88.956V91.212C150.649 91.956 150.877 92.736 150.925 92.952V93H148.981V92.952C149.029 92.736 149.257 91.956 149.257 91.212V89.136C149.257 88.236 148.681 87.864 148.081 87.864C147.709 87.864 147.361 88.032 146.977 88.344C147.025 88.524 147.049 88.728 147.049 88.956V91.212C147.049 91.956 147.277 92.736 147.325 92.952V93H145.369V92.952C145.417 92.736 145.645 91.956 145.645 91.212V89.136C145.645 88.236 145.057 87.864 144.457 87.864C144.097 87.864 143.749 88.02 143.401 88.308V91.212C143.401 91.956 143.629 92.736 143.677 92.952Z" fill="white"/>
<path d="M104 1.06096L114.517 1.06096" stroke="#FEFEFE" stroke-opacity="0.6"/>
<path fill-rule="evenodd" clip-rule="evenodd" d="M104 175L114.517 175L114.517 174L104 174L104 175ZM109.758 173.935L109.758 1.62895L108.758 1.62895L108.758 173.935L109.758 173.935Z" fill="#FEFEFE" fill-opacity="0.6"/>
<g clip-path="url(#clip0_1497_32)">
<path d="M67.8582 170.714C69.0517 169.922 71.4057 168.048 72.4617 167.109C74.3647 165.416 76.1302 163.559 77.7637 161.586C78.3192 160.915 78.8417 160.239 78.1542 159.289C77.8517 158.871 77.7362 158.283 77.6537 157.75C77.5052 156.788 77.0817 156.074 76.2127 155.601C75.9377 155.453 75.6902 155.211 75.4867 154.964C74.6177 153.925 73.5672 153.513 72.1702 153.535C70.0912 153.568 68.1442 153.079 66.9287 151.112C66.6537 150.661 66.1312 150.425 65.6417 150.375C65.1247 150.326 64.7342 150.122 64.4042 149.798C63.9147 149.32 63.4087 149.37 62.8037 149.507C61.0217 149.919 59.2947 150.513 57.5072 150.908C55.5602 151.337 53.3932 151.211 51.8037 152.832C51.5012 153.139 50.7917 153.073 50.3462 152.815C49.7687 152.48 49.1747 152.502 48.5587 152.513C46.2762 152.551 43.9717 152.799 41.7277 152.277C39.8852 151.848 38.0647 151.276 36.2827 150.661C35.4742 150.381 34.4182 150.089 33.8737 149.419C32.5207 147.754 30.5737 146.721 29.3527 144.946C29.1382 144.633 28.7532 144.424 28.4342 144.193C28.1207 143.973 27.7412 143.869 27.4002 144.05C25.9702 144.819 25.1782 146.171 24.3532 147.485C23.7427 148.463 24.0342 149.375 24.5842 150.287C24.8592 150.749 25.0352 151.271 25.2387 151.771C26.1407 153.953 26.2672 156.14 25.2772 158.47C25.0077 157.723 24.9307 157.118 25.0517 156.453C25.1892 155.717 25.1672 154.969 25.0517 154.195C24.7987 152.458 23.4072 151.337 22.8297 149.787C22.6372 149.265 22.1532 149.43 21.8287 149.699C21.0752 150.32 20.3657 150.985 20.1457 152.002C19.8872 153.194 19.5297 154.354 19.3977 155.585C19.2932 156.558 19.3317 157.525 19.2272 158.503C19.0292 157.838 19.0347 157.173 19.0237 156.514C18.9852 152.859 19.7497 149.458 22.1312 146.561C23.3632 145.061 24.8372 143.764 25.9207 142.121C26.2617 141.605 26.5092 141.127 26.0032 140.692C25.4972 140.253 25.1177 140.731 24.7052 141.05C23.6547 141.879 22.8352 142.951 21.7022 143.693C20.1897 144.682 18.6442 145.572 16.9557 146.265C15.3937 146.902 13.8922 147.737 12.9242 149.249C12.7812 149.474 12.5392 149.936 12.1817 149.606C11.9397 149.381 12.2642 149.056 12.4567 148.886C13.1387 148.303 13.7217 147.606 14.5082 147.127C17.8522 145.089 20.8497 142.621 23.6052 139.846C24.5457 138.901 25.0462 137.785 24.9527 136.433C24.7767 134.048 24.8262 131.653 24.6722 129.268C24.4577 125.926 23.4512 122.953 19.9752 121.497C18.8862 121.041 18.6827 121.107 18.2592 122.266C17.5882 124.08 16.8842 125.882 16.1692 127.679C16.0757 127.916 15.8997 128.295 15.6027 128.19C15.2672 128.075 15.3772 127.723 15.4982 127.438C15.8942 126.509 16.2077 125.542 16.6807 124.662C17.6212 122.931 17.1702 121.398 16.1802 119.898C16.0207 119.656 15.8062 119.48 15.4927 119.403C12.7317 118.738 9.92116 118.606 7.09966 118.546C6.56066 118.535 5.93366 118.332 5.49366 118.53C3.31016 119.53 1.53916 121.041 0.285156 123.118V114.188C4.60266 114.397 8.92016 113.826 13.2432 114.117C13.4907 114.133 13.7437 114.067 13.9967 114.034C15.9712 113.787 15.9602 113.793 15.0417 112.023C14.6952 111.358 14.3927 110.66 14.1287 109.957C13.8152 109.127 14.4312 107.742 15.2672 107.528C16.0812 107.324 16.5432 108.066 17.0987 108.479C17.4067 108.704 17.5937 109.209 18.0557 109.045C18.5947 108.847 18.3857 108.297 18.3802 107.891C18.3637 106.764 17.5937 105.995 16.9777 105.176C16.5652 104.632 16.1032 104.11 15.5752 103.681C13.7712 102.225 13.8867 100.318 14.2277 98.3396C14.2607 98.1582 16.3837 96.7404 16.5597 96.8173C17.3132 97.1416 18.1327 97.3724 18.4792 98.2626C18.9137 99.3727 19.1007 100.532 19.3152 101.692C19.4032 102.17 19.2987 102.84 19.9422 102.945C20.6132 103.049 20.7287 102.313 20.8772 101.917C21.1302 101.214 21.4107 100.499 21.6032 99.7793C21.8672 98.7792 21.1797 97.9933 20.6737 97.2295C20.0357 96.2568 19.1447 95.471 18.2207 94.795C17.1867 94.0367 16.5597 93.0035 15.8612 92.0034C15.3167 91.223 15.5092 90.3987 15.9107 89.6459C16.7797 88.0302 19.2382 87.761 20.4592 89.1183C21.3832 90.1405 22.0102 91.3384 22.5217 92.6024C22.6702 92.9706 22.7087 93.4871 23.2202 93.3882C23.6822 93.3003 23.8252 92.8442 23.8637 92.3716C23.9957 90.7395 23.2642 89.459 22.2852 88.2445C21.1797 86.8817 19.6562 85.9255 18.8092 84.2989C18.2262 83.1833 18.0172 82.0623 18.0667 80.8643C18.1052 79.963 19.0897 79.0893 20.2997 78.809C21.3227 78.5727 22.0432 79.1222 22.5877 79.8751C23.5887 81.2599 23.8912 82.98 24.7052 84.4582C24.8097 84.6451 24.8372 84.8814 24.9692 85.0462C25.1892 85.3265 25.4367 85.6452 25.8602 85.5353C26.2672 85.4309 26.2342 85.0572 26.2507 84.733C26.4432 80.6499 25.6732 79.1497 21.6857 77.3912C20.1457 76.7153 18.4792 76.3416 17.0162 75.4513C15.1517 74.3083 14.8932 72.9894 16.1747 70.8957C16.9392 69.6427 18.7102 69.4779 20.2392 70.4231C21.5152 71.2089 22.3292 72.5058 23.5777 73.3136C23.9187 73.5334 24.2377 73.8577 24.6447 73.6653C25.0902 73.4565 24.9307 72.9674 24.9362 72.5882C24.9527 71.8464 24.6392 71.2693 24.0177 70.8462C22.1147 69.5438 20.1347 68.3953 18.0722 67.3566C17.0217 66.8236 16.0757 66.1532 15.6082 64.9222C15.1517 63.7187 15.5917 62.7845 16.2462 61.9272C16.8512 61.1359 17.9237 61.2348 18.9412 62.0316C19.9037 62.79 20.8497 63.5703 21.8342 64.2957C22.0487 64.4551 22.2632 64.8398 22.6757 64.5705C23.0497 64.3232 22.8572 64.0374 22.8297 63.7132C22.6207 61.0534 21.3172 59.0476 19.0347 57.7837C17.7917 57.0913 16.3947 56.5747 14.9372 56.5033C12.3632 56.3824 11.1807 55.2833 10.9827 52.6785C10.9662 52.4971 10.9607 52.3158 10.9772 52.1345C11.0487 51.3871 10.6637 50.4639 11.6427 50.0352C12.7812 49.5406 13.8812 49.1615 15.1022 50.0352C16.2462 50.854 17.3297 51.7553 18.4407 52.6071C18.6937 52.7994 18.9632 52.9148 19.2382 52.7499C19.5957 52.5411 19.5462 52.1509 19.3977 51.8762C18.8092 50.7991 18.5727 49.5901 18.0502 48.4745C16.8402 45.8807 14.5467 44.5398 12.2147 43.2704C11.2137 42.7264 10.3667 42.1658 10.0147 41.0558C9.57466 39.6709 10.4162 37.9784 11.8022 37.6047C13.1387 37.2475 13.9582 38.2586 14.7447 39.028C15.5587 39.8248 16.1692 40.825 16.8622 41.7427C17.0657 42.012 17.2967 42.3032 17.6487 42.2208C18.0667 42.1219 17.9567 41.7097 17.9732 41.3965C18.0832 38.8741 17.1427 36.9947 14.8657 35.6868C13.1937 34.7251 11.5272 33.6315 10.6362 31.7906C9.87166 30.2244 9.85516 29.4166 10.9607 28.6472C12.8527 27.3283 13.7932 28.1471 14.6622 29.7518C15.3057 30.9388 16.2517 31.884 16.9502 33.016C17.0877 33.2414 17.3792 33.4722 17.6872 33.3568C18.0337 33.2249 18.1492 32.8677 18.0997 32.5434C17.7752 30.4222 17.1757 28.4494 15.4542 26.9546C14.5522 26.1688 13.4192 25.6138 12.9517 24.3334C12.5997 23.3552 12.5942 22.3605 12.7757 21.4483C12.9572 20.569 13.9307 20.2338 14.8052 20.1294C15.5477 20.036 16.2957 19.97 16.6367 20.9977C16.9227 21.8769 17.3572 22.7122 17.6652 23.597C17.7807 23.9267 17.9127 24.4817 18.4407 24.3279C18.8532 24.207 18.7872 23.7344 18.7762 23.3827C18.6882 20.4152 17.9292 17.7059 15.8172 15.4748C14.4972 14.0735 14.3652 12.3974 15.2067 10.9137C15.4982 10.3971 15.8722 10.1663 16.3892 10.1113C17.3407 10.0069 17.9952 9.65522 18.1272 8.58911C18.1932 8.03408 18.4132 7.55049 19.2162 7.83625C19.9257 8.08903 20.0137 7.39112 20.0467 6.99545C20.1072 6.29754 20.4977 5.79746 20.8112 5.24243C21.4052 4.19831 22.5217 4.18182 23.4677 4.0939C24.2322 4.02246 25.1397 5.58314 25.1507 6.61078C25.1507 7.01194 25.1177 7.4131 25.1617 7.80877C25.2442 8.6001 25.4037 9.25405 26.4707 9.3145C27.4167 9.36396 27.9062 10.0454 27.9612 11.0126C28.0602 12.7821 27.7302 14.4142 26.6302 15.8705C25.8602 16.8926 26.0142 17.2773 27.1307 17.7884C28.7092 18.5028 29.2757 19.3381 28.4397 21.3274C28.3297 21.5912 28.2142 21.8549 28.0712 22.1077C27.6422 22.8881 26.7677 23.7508 28.5497 24.0091C28.8302 24.0531 28.9952 24.4817 29.0392 24.8115C29.3142 26.8557 29.0117 28.7846 27.2627 30.0595C24.8262 31.84 23.6327 34.4009 22.5107 37.0277C22.2632 37.6047 21.8397 38.5554 22.4612 38.7807C23.2037 39.05 23.1157 37.9619 23.3632 37.4673C23.7042 36.7914 23.9022 36.044 24.2707 35.3846C24.6942 34.6317 25.1067 33.9393 26.0692 33.5546C27.0922 33.1369 27.5322 33.3513 28.0712 34.1921C28.9732 35.5989 28.8357 36.9892 28.1757 38.3795C27.4827 39.8523 26.4267 41.0778 25.3762 42.3197C23.4182 44.6388 22.5877 47.3315 22.9947 50.3594C23.0442 50.7057 23.0607 51.2662 23.5227 51.3376C24.0507 51.4146 24.1827 50.8705 24.4027 50.5078C24.9857 49.5516 24.5292 48.4416 24.8867 47.4249C25.2112 46.5127 25.3267 45.5235 25.7667 44.6498C26.1132 43.9518 26.4322 43.1825 27.4717 43.3528C29.1492 43.6276 30.0127 44.3255 30.1502 45.4301C30.3867 47.3425 29.5452 48.8812 28.4782 50.31C26.9767 52.3268 26.3442 54.6678 25.7777 57.0418C25.5962 57.8002 25.3817 58.5695 25.7447 59.3719C25.8877 59.6796 25.9372 60.0643 26.3222 60.0368C26.6962 60.0093 26.7952 59.6192 26.8502 59.2949C27.0922 57.8332 27.3342 56.3769 27.5432 54.9096C27.6972 53.8105 28.5167 53.0687 29.6167 53.217C30.8267 53.3819 32.0862 53.5413 32.6472 54.8931C33.4337 56.8 32.9442 58.4926 31.6682 59.9928C29.6662 62.3394 28.3242 64.9277 28.4067 68.0985C28.4067 68.2799 28.3792 68.4722 28.4287 68.6426C28.5497 69.0492 28.6102 69.6372 29.0887 69.6592C29.6662 69.6867 29.4297 69.0712 29.5342 68.7305C29.9027 67.5215 30.1667 66.285 30.7277 65.1365C31.2392 64.0979 31.6462 63.999 32.7957 64.2518C34.1872 64.5595 34.8637 65.5597 35.2927 66.6972C35.4907 67.2302 35.2707 67.9776 35.0837 68.5876C34.4127 70.8132 33.2082 72.7421 31.6682 74.4731C30.5627 75.7151 29.9467 77.2043 29.5342 78.7925C29.4792 78.9958 29.5012 79.2266 29.4957 79.441C29.4847 79.7487 29.5397 80.0345 29.8642 80.1609C30.1997 80.2927 30.3812 80.0674 30.5847 79.8366C31.3767 78.9354 31.9927 77.9187 32.5702 76.8746C32.9607 76.1712 33.5107 75.6217 34.2037 75.193C35.7052 74.2698 36.2937 74.7534 37.2727 75.6601C38.7192 77.0065 38.4057 79.8091 36.8492 81.117C35.9637 81.8644 34.8802 82.2821 33.9782 83.0184C31.6022 84.9638 29.7322 87.2444 28.7587 90.1899C28.6487 90.5251 28.3352 90.9043 28.8027 91.1351C29.2372 91.3494 29.6002 91.0032 29.7927 90.668C30.5407 89.3546 31.6077 88.3709 32.7902 87.4532C34.2312 86.3322 35.5127 86.7553 35.8592 88.5468C35.8922 88.7226 35.9307 88.904 35.9802 89.0744C36.7722 91.7836 35.6667 93.3882 32.9607 94.7181C30.6452 95.8556 28.1647 96.7459 26.6522 99.0539C26.2342 99.6914 25.8327 100.323 25.5687 101.038C25.4862 101.252 25.4422 101.499 25.6347 101.642C25.9317 101.857 26.0967 101.571 26.2452 101.389C26.5037 101.082 26.7842 100.785 26.9602 100.433C27.5872 99.1694 28.5112 98.8012 29.9467 98.9111C31.1127 99.0045 31.4812 99.6255 31.6352 100.466C31.9872 102.368 31.2447 103.835 29.6002 104.852C29.0887 105.17 28.6102 105.538 28.0602 105.923C29.1382 106.22 29.9907 107.165 30.0842 108.094C30.2272 109.506 29.4957 110.787 27.9887 111.408C26.2782 112.111 25.0022 113.232 24.0727 114.798C23.3247 116.062 23.3742 116.711 24.3917 117.733C25.9592 119.304 26.8942 121.233 27.4662 123.333C28.0107 125.333 28.6487 127.317 28.9017 129.388C29.1107 131.103 29.2207 132.829 29.5122 134.532C30.0182 137.478 30.5847 140.418 33.1532 142.445C34.3302 143.374 34.7592 143.352 35.4302 142.055C36.5082 139.972 36.3542 137.873 35.6722 135.675C35.0452 133.664 33.9067 131.85 33.5107 129.757C33.2412 128.344 33.7692 126.679 34.7977 126.031C35.9417 125.316 36.8107 125.597 37.3662 126.828C37.8777 127.96 38.1032 129.152 38.2077 130.378C38.2957 131.389 38.3617 132.4 38.4277 133.411C38.4497 133.746 38.4497 134.092 38.8567 134.197C39.2472 134.296 39.4837 134.027 39.6267 133.73C40.3252 132.246 40.6552 130.773 40.3527 129.064C40.0117 127.13 38.9447 125.712 37.8062 124.272C37.3332 123.673 36.9372 123.036 36.7282 122.288C36.2332 120.53 37.8007 118.458 39.6377 118.568C40.6387 118.628 41.1062 119.497 41.3812 120.305C41.8542 121.689 42.1622 123.129 42.5417 124.547C42.6187 124.833 42.3987 125.311 42.8552 125.355C43.2347 125.393 43.4657 125.02 43.6307 124.69C44.5217 122.909 44.5052 121.134 43.4877 119.414C42.4702 117.689 41.3537 116.018 40.3747 114.271C39.1702 112.111 39.7037 110.512 41.8762 109.358C42.7342 108.902 43.4547 109.578 43.9387 110.259C44.8902 111.622 45.1927 113.216 45.4017 114.831C45.4402 115.117 45.4017 115.414 45.4622 115.699C45.5227 116.002 45.7537 116.216 46.0452 116.282C46.3917 116.364 46.4357 116.051 46.5402 115.826C47.1672 114.479 47.6347 113.309 46.6997 111.704C45.6932 109.979 44.4942 108.435 43.3722 106.813C42.4482 105.484 41.6562 104.071 41.6947 102.351C41.7277 100.774 43.0587 99.4166 44.6482 99.3947C45.9022 99.3782 46.1387 100.433 46.4467 101.252C47.0022 102.719 47.3707 104.258 47.8382 105.764C47.9317 106.066 48.0472 106.407 48.4267 106.478C48.7292 106.539 48.9547 106.313 49.0317 106.099C49.5102 104.758 49.7412 103.412 49.4442 101.966C49.0757 100.197 47.7997 99.4826 46.2927 98.9495C45.0167 98.4934 43.7132 98.1197 42.5197 97.4218C40.5012 96.2458 39.9347 94.784 40.7707 92.6189C41.3757 91.0417 43.9827 90.5581 45.1542 91.7946C46.6117 93.3278 48.3332 94.5917 49.6367 96.2843C50.0712 96.8503 50.4562 96.5975 50.6267 95.9985C51.0942 94.3554 50.4892 92.9871 49.2407 91.9045C47.5577 90.4427 45.6437 89.2227 44.2577 87.4422C43.3777 86.3102 42.5472 85.1012 42.7507 83.5515C42.9377 82.1447 43.7847 81.2984 45.1762 80.9962C46.0562 80.8038 47.4257 81.5732 48.0747 82.4854C49.0757 83.9032 49.4002 85.6837 50.5772 87.0081C50.8467 87.3103 51.0172 87.761 51.4627 87.6291C51.8972 87.5027 51.7652 87.0136 51.7597 86.6729C51.7487 85.6287 51.7927 84.5901 51.5837 83.5405C51.4352 82.7986 51.0007 82.4249 50.4507 82.0568C48.4102 80.6994 46.3642 79.353 44.3567 77.9572C43.1137 77.0944 42.4537 75.8085 42.2062 74.3468C41.9092 72.5717 43.8947 70.9781 45.5942 71.5331C47.1837 72.0497 48.1792 73.1817 48.9052 74.594C49.3452 75.4513 50.0492 76.0668 50.6487 76.7812C50.8027 76.9625 51.0392 77.1439 51.3197 77.034C51.5727 76.9351 51.5122 76.6713 51.5287 76.4625C51.7487 74.3468 51.2482 73.5994 49.4277 72.5333C47.7557 71.5496 45.9792 70.7473 44.3952 69.5933C42.9212 68.5162 41.8377 67.1698 41.1227 65.5157C40.6442 64.4166 41.2492 63.2681 42.5032 62.7955C44.0542 62.2075 45.7372 62.6581 46.9967 64.0979C48.2012 65.4772 49.3397 66.9115 50.5167 68.3183C50.6982 68.5381 50.9237 68.8404 51.2207 68.747C51.6112 68.6316 51.5122 68.2084 51.5232 67.9062C51.6222 64.8837 50.5662 62.5262 47.7447 61.0864C46.3642 60.383 44.9452 59.5532 44.7527 57.8057C44.4777 55.3877 44.7747 53.7006 47.4587 53.228C47.6897 53.1896 47.8987 53.1291 47.9207 52.8653C47.9482 52.5576 47.7007 52.4697 47.4862 52.3213C45.4072 50.9145 43.1962 49.733 41.0732 48.4086C39.4397 47.3919 38.8787 45.3916 39.5772 43.6606C40.0502 42.4846 41.3262 42.0175 42.5582 42.6C44.0652 43.3144 45.0827 44.6278 46.2652 45.7268C46.6062 46.0456 46.8427 46.4687 47.1782 46.8039C47.4422 47.0677 47.6952 47.5403 48.1572 47.2765C48.5587 47.0457 48.2782 46.6171 48.2507 46.2764C48.1462 44.952 47.5797 43.9848 46.4907 43.1001C44.8572 41.7702 43.4217 40.1875 41.9697 38.6488C41.0512 37.6761 40.8202 34.7471 41.6562 33.648C42.3162 32.7797 41.9257 32.3181 41.2987 31.8895C39.2912 30.5211 38.4167 28.7626 39.0932 26.3227C39.3682 25.328 40.0997 24.8169 41.0842 25.1906C42.6242 25.7731 43.4987 27.0591 44.3237 28.378C44.7637 29.0814 45.1707 29.8122 45.6492 30.4882C45.8417 30.7574 46.1167 31.1092 46.5512 30.9278C46.9087 30.7794 46.9252 30.4277 46.9582 30.098C47.0627 29.0154 46.5622 28.1581 45.9682 27.3118C44.5822 25.328 42.9102 23.586 41.4032 21.7066C40.2592 20.2833 40.1602 18.6017 40.7267 16.9091C41.0567 15.9309 42.5197 15.5847 43.4217 16.2607C43.9662 16.6728 44.4062 17.2223 44.9177 17.6785C45.0827 17.8213 45.2642 18.1181 45.5612 17.9312C45.7702 17.7994 45.7757 17.5521 45.7427 17.3377C45.5392 16.1617 45.4347 14.9583 45.0827 13.8317C44.5767 12.2106 44.4337 10.6059 44.7857 8.95181C44.8902 8.45173 45.2477 7.97363 45.6272 7.8857C47.8877 7.36914 47.8877 5.58864 48.0472 3.8576C48.1407 2.87392 49.4057 1.62098 50.3462 1.40666C52.3482 0.945048 52.8487 1.87377 53.2282 3.77517C53.3822 4.53902 53.2447 5.36333 53.1952 6.16016C53.1402 7.05041 53.4977 7.4186 54.2347 6.97897C55.4667 6.24259 56.5612 6.98996 57.6997 7.12734C58.0902 7.1768 58.0297 7.63841 58.0407 7.95165C58.1067 10.54 57.1497 12.5623 54.8122 13.8537C53.8992 14.3593 53.0247 14.9253 52.1502 15.4858C51.5122 15.8925 51.2812 16.5904 51.2482 17.2608C51.2207 17.8543 51.8752 17.9752 52.3317 18.1675C53.2282 18.5412 53.7837 19.7997 53.5197 20.8493C53.2832 21.7945 53.0357 22.7287 52.4747 23.5475C52.3372 23.7454 52.1392 24.0091 52.3042 24.2454C52.4692 24.4872 52.7717 24.3389 53.0192 24.3279C53.2007 24.3224 53.3932 24.3169 53.5582 24.2509C55.3127 23.5145 56.3082 24.6631 56.5227 26.57C56.7042 28.2241 55.8022 29.5265 54.9277 30.8289C54.0092 32.2027 52.9752 33.5051 52.3812 35.0823C52.2492 35.4285 52.1667 35.7747 52.1337 36.1264C52.0787 36.7749 52.3922 37.0002 53.0027 36.7474C53.2337 36.654 53.4537 36.5221 53.6737 36.3957C55.3897 35.3955 56.8197 36.2418 57.0067 38.2312C57.2267 40.5282 56.1212 42.3307 55.0927 44.1936C54.7462 44.8201 54.4162 45.4521 54.3447 46.194C54.2622 47.0347 54.6197 47.1721 55.3017 46.8644C56.9022 46.1445 59.1462 47.5733 59.1627 49.3483C59.1792 51.4036 59.0857 53.3929 58.1782 55.3547C57.5842 56.6352 57.6007 58.1958 57.3422 59.6356C57.4412 59.6741 57.5402 59.7126 57.6392 59.7565C58.1067 58.9872 58.6347 58.2453 59.0197 57.4375C59.4872 56.4703 60.3177 55.9427 61.2472 56.0087C62.2427 56.0801 62.9632 56.6681 63.3757 57.8222C63.9697 59.4763 63.4692 60.7787 62.7102 62.1141C61.5992 64.0704 60.0867 65.73 58.7062 67.483C57.3257 69.2416 56.7867 71.1484 56.9902 73.3246C57.0122 73.5389 56.9902 73.7972 57.2377 73.8741C57.5127 73.9621 57.7272 73.8192 57.8702 73.5774C58.7502 72.1376 59.6742 70.7253 60.4882 69.247C61.1427 68.0546 62.0722 67.1973 63.2492 66.5928C64.3437 66.0323 65.8727 66.972 66.3677 68.3403C67.1817 70.5879 66.5382 72.3739 64.7397 73.7972C63.0182 75.1601 61.2637 76.4735 59.5037 77.7759C58.1452 78.7815 57.3477 80.0345 57.4082 81.782C57.4247 82.315 57.2542 82.8481 57.1992 83.3811C57.1717 83.6339 57.2212 83.9582 57.4907 84.0296C57.8097 84.1175 57.8757 83.7603 57.9912 83.557C58.8492 82.0623 59.6742 80.551 60.5487 79.0673C61.0162 78.2704 61.6927 77.6275 62.6112 77.4297C63.8597 77.1659 65.2567 78.4023 65.5042 79.7652C66.0322 82.6997 64.4372 84.5736 62.4187 86.3102C60.5707 87.8928 58.3927 89.1568 57.2652 91.4648C57.2487 91.4978 57.2157 91.5198 57.2047 91.5528C56.9407 92.2452 56.3467 93.1189 57.0727 93.6135C57.7217 94.0477 58.1782 93.0805 58.6677 92.6573C59.9932 91.5143 61.0217 90.047 62.6772 89.2612C64.2062 88.5358 65.3172 88.926 65.9992 90.4812C66.8297 92.3716 66.3127 94.9984 63.5077 96.2953C61.2637 97.3284 59.2562 98.6968 57.2487 100.082C56.3632 100.692 55.5767 101.461 55.1697 102.527C55.0102 102.95 54.9057 103.241 55.5327 103.39C57.8042 103.923 58.7887 106.577 57.5292 108.566C56.6437 109.962 55.3732 110.858 53.8992 111.49C52.5957 112.051 51.3912 113.99 51.5507 115.37C51.5837 115.639 51.6442 115.903 51.9577 115.925C52.3317 115.952 52.5077 115.666 52.6947 115.381C53.5142 114.155 54.2017 112.809 55.4282 111.93C57.2652 110.605 58.5687 110.792 59.4102 112.677C59.9657 113.924 59.2672 115.133 58.3927 116.024C56.8582 117.59 55.0872 118.876 53.1567 119.958C51.9632 120.629 50.8357 121.415 49.9172 122.464C49.5927 122.838 49.3947 123.261 49.7852 123.607C50.1317 123.915 50.3957 123.525 50.6707 123.283C51.6332 122.426 52.5187 121.448 53.8882 121.2C54.3117 121.123 54.6967 120.964 55.1587 121.112C56.7977 121.634 57.1002 123.624 56.0057 125.322C54.8727 127.075 53.1182 127.619 51.3472 128.174C49.8842 128.636 48.5862 129.416 47.2332 130.086C46.3697 130.515 45.9957 131.378 45.5282 132.136C45.3302 132.46 45.1432 132.927 45.5667 133.219C45.9462 133.477 46.2432 133.125 46.4962 132.878C47.1672 132.235 47.7887 131.537 48.5037 130.944C49.2077 130.361 51.2482 130.29 51.7432 130.746C52.3757 131.328 52.4142 132.977 52.0457 133.994C51.4462 135.642 50.0327 136.269 48.6247 136.796C46.4522 137.609 44.5712 138.676 43.2182 140.67C42.1402 142.259 41.4527 143.847 41.7717 145.787C41.8597 146.314 42.1072 146.561 42.6517 146.721C43.9717 147.106 45.3027 146.853 46.5402 146.616C49.0372 146.138 51.5727 146.21 54.0697 145.776C54.9277 145.627 55.5492 145.451 56.1707 144.786C57.1332 143.753 58.3817 143.682 59.6302 144.303C60.0647 144.517 64.4702 143.907 64.5417 143.528C64.7232 142.588 65.3007 141.61 64.7397 140.654C64.2392 139.802 63.8762 138.879 63.2052 138.093C62.8092 137.626 62.7982 136.796 62.6992 136.115C62.3967 134.037 62.4132 134.038 64.5307 133.356C64.8607 133.252 65.2402 133.219 65.3337 132.746C65.4712 132.037 66.0872 131.631 66.4997 131.097C66.9232 130.548 67.3687 130.334 67.8252 131.097C68.1882 131.696 68.6172 131.405 68.8592 131.043C69.5357 130.053 70.6522 130.009 71.6257 129.724C72.1262 129.575 72.7037 129.872 73.0667 130.317C74.5352 132.125 74.1832 134.373 72.9292 136.076C72.0382 137.285 70.8007 138.379 71.4552 140.324C72.0822 142.187 71.9612 142.368 73.9962 142.303C77.1477 142.198 80.2937 141.874 83.4507 141.912C83.7697 141.912 83.9677 141.769 84.1932 141.55C85.1447 140.61 85.9257 140.681 86.7122 141.737C87.0037 142.132 87.3227 142.451 87.7572 141.885V147.331C85.8982 146.985 84.0337 146.853 82.1582 147.155C81.7292 147.226 81.3992 147.49 81.1682 147.924C80.5082 149.161 80.4367 150.43 80.7447 151.777C81.0307 153.024 80.9482 154.447 81.5202 155.524C82.8017 157.931 84.8367 159.426 87.7517 159.305V160.827C86.9212 160.772 86.0962 161.014 85.2657 160.838C84.9522 160.772 84.5672 160.789 84.4242 161.163C84.2977 161.503 84.4902 161.8 84.7432 162.025C85.1557 162.394 85.4197 162.855 85.6617 163.35C86.3437 164.768 87.0532 166.169 87.7572 167.576V168.664C87.5207 168.856 87.2897 168.878 87.1302 168.581C86.0907 166.697 84.2647 165.488 82.9777 163.822C82.5597 163.284 82.2517 162.652 81.8062 162.141C81.2947 161.558 80.6897 161.712 80.5797 162.465C80.5137 162.943 80.2002 163.223 80.0187 163.603C79.5677 164.559 78.4677 165.24 78.6657 166.466C79.1002 169.219 79.0947 172.005 79.4687 174.764H78.1597C78.0937 174.302 77.9287 173.829 77.9727 173.379C78.1597 171.521 77.3402 169.917 76.7297 168.263C76.5757 167.84 76.3612 167.339 75.7067 167.554C75.1127 167.752 74.5297 167.988 74.1557 168.504C73.4627 169.455 72.6652 169.999 71.4607 169.433C71.1637 169.29 70.9107 169.439 70.6577 169.615C70.1187 169.983 69.5742 170.345 69.0187 170.681L67.8912 170.752L67.8582 170.714ZM74.0127 147.287C71.4827 147.226 69.1892 147.611 66.9397 148.32C66.5437 148.446 66.1257 148.54 66.1037 149.018C66.0817 149.452 66.5327 149.441 66.8187 149.545C67.3962 149.754 67.7757 150.1 68.0397 150.672C68.4247 151.513 69.0352 151.941 70.0857 151.908C71.5212 151.87 73.1272 151.799 74.2712 152.694C75.1677 153.392 76.0587 153.755 77.0982 153.975C77.7857 154.118 78.2092 154.03 78.1652 153.139C78.1047 151.881 77.9232 150.634 77.8682 149.37C77.8077 147.842 77.0047 147.221 75.4647 147.221C74.9202 147.221 74.3812 147.265 74.0072 147.287H74.0127ZM70.9107 130.548C70.3607 130.548 69.9867 130.795 69.8492 131.301C69.7832 131.554 70.0307 131.773 70.2287 131.663C70.7732 131.356 71.6477 131.625 71.8787 130.971C71.9832 130.669 71.2462 130.685 70.9107 130.548ZM64.7782 134.702C64.7507 134.323 64.5637 134.125 64.2282 134.158C63.6727 134.208 63.4527 134.609 63.3702 135.104C63.3262 135.367 63.3427 135.664 63.7112 135.598C64.2337 135.505 64.6022 135.186 64.7837 134.708L64.7782 134.702Z" stroke="white" stroke-miterlimit="10"/>
</g>
<defs>
<clipPath id="clip0_1497_32">
<rect width="88" height="174" fill="white" transform="translate(0 1)"/>
</clipPath>
</defs>
</svg>
