<svg width="156" height="130" viewBox="0 0 156 130" fill="none" xmlns="http://www.w3.org/2000/svg">
<g clip-path="url(#clip0_1497_31)">
<path d="M45.082 83.7555C46.165 85.0743 46.4719 86.9855 45.8582 88.5752C45.7896 88.4957 45.7571 88.3801 45.7788 88.2753" stroke="white" stroke-miterlimit="10"/>
<path d="M46.537 87.0072C48.3059 87.3576 49.9846 88.1489 51.3744 89.2942C50.7066 90.136 49.4648 90.1721 48.3926 90.1324C46.7139 90.0746 44.8295 89.9228 43.732 88.6511C43.0136 87.8201 42.797 86.6856 42.5768 85.609C41.5949 80.8291 40.0246 76.172 37.9127 71.7751C36.9127 69.6904 35.7647 67.5624 35.7539 65.2501C36.6023 65.1309 37.4001 65.6692 38.0354 66.2437C39.1112 67.2119 40.0282 68.3572 40.7357 69.6218C41.4794 70.9477 41.9848 72.3893 42.4902 73.8236C43.6815 77.2053 44.8764 80.6195 45.3313 84.1783" stroke="white" stroke-miterlimit="10"/>
<path d="M36.6855 65.1598C37.505 61.9804 40.1873 59.5272 43.2016 58.2302C46.216 56.9331 49.5589 56.626 52.8368 56.4851C54.4252 56.4165 56.0677 56.3912 57.537 56.991C59.0063 57.5907 60.2734 58.9853 60.2301 60.575C60.2012 61.7022 59.5261 62.7355 58.6489 63.44C57.7717 64.1446 56.7031 64.5637 55.6345 64.925C51.7357 66.2509 47.6275 66.9518 43.5085 66.9915C42.1367 67.006 40.7215 66.9518 39.4508 67.4648" stroke="white" stroke-miterlimit="10"/>
<path d="M59.8691 62.208C60.4937 61.4132 62.7102 60.4269 63.5297 59.8343" stroke="white" stroke-miterlimit="10"/>
<path d="M58.1426 57.2944C59.2545 57.7063 60.3194 56.9151 61.3772 56.4526" stroke="white" stroke-miterlimit="10"/>
<path d="M60.5176 54.1548C61.1493 55.647 61.8641 57.1066 62.6583 58.5156C63.0735 59.249 63.5283 59.9969 64.2178 60.4847C64.8099 60.9038 65.5283 61.0989 66.2358 61.2687C70.1202 62.19 74.1273 62.4718 78.1128 62.6994C80.5315 62.8367 82.9755 62.9559 85.3617 62.5296C87.7479 62.1033 90.1017 61.0844 91.7081 59.2707" stroke="white" stroke-miterlimit="10"/>
<path d="M60.5589 54.0067C56.3821 47.9839 56.0825 38.7673 60.1546 32.6723" stroke="white" stroke-miterlimit="10"/>
<path d="M57.3661 46.7519C56.4167 47.0193 55.5611 47.4059 54.2109 47.5973" stroke="white" stroke-miterlimit="10"/>
<path d="M53.8066 52.688C54.9077 54.3174 58.6657 54.8124 60.5177 54.1548" stroke="white" stroke-miterlimit="10"/>
<path d="M54.7703 52.6265C55.8172 52.1027 56.6114 50.4263 55.9363 49.5483C55.3226 48.7463 54.5645 47.8286 53.7559 47.2216C52.8787 46.564 51.6513 46.6182 50.561 46.4846C42.4962 45.4982 34.3521 45.1261 26.2295 45.3537C25.3487 45.379 24.4498 45.4115 23.6267 45.7186C22.8072 46.0221 22.0491 46.6255 21.8072 47.4962C21.5148 48.5475 22.0924 49.6892 22.9516 50.3612C23.8108 51.0332 24.8974 51.3295 25.9624 51.5716C30.7204 52.6699 35.6083 53.0637 40.4782 53.2191C42.9475 53.2985 45.4637 53.425 47.9365 53.3238C50.2289 53.2299 52.4816 52.7169 54.7739 52.6302" stroke="white" stroke-miterlimit="10"/>
<path d="M21.4542 47.5468C19.7864 48.9666 19.7719 51.4885 19.8441 53.6779C20.0643 60.2679 19.8622 66.8687 19.2377 73.4334C19.0535 75.3627 18.8658 77.4474 19.8441 79.1202C20.003 78.3181 20.6636 77.6389 21.4614 77.4618C21.1726 72.0244 21.5697 66.5544 22.6455 61.2181C23.3314 57.8147 24.2845 54.2451 23.2159 50.9429" stroke="white" stroke-miterlimit="10"/>
<path d="M19.8223 79.3333C21.1688 80.5111 22.8475 81.306 24.6091 81.6059C24.9918 81.6709 25.4936 81.6456 25.62 81.2807C25.7174 81.0025 25.5189 80.7135 25.3167 80.4967C24.3167 79.4345 22.9702 78.7733 21.7969 77.9098C21.5406 77.722 21.2807 77.5124 21.1399 77.227" stroke="white" stroke-miterlimit="10"/>
<path d="M3.00309 42.5356C3.17276 44.3421 3.46878 46.1341 3.88393 47.9008C3.3316 48.1573 2.73595 47.6551 2.36412 47.171C1.30999 45.7945 0.566329 44.1831 0.212547 42.485C0.165617 42.2574 0.147567 41.9684 0.342508 41.8456C0.620479 42.1671 0.905671 42.4959 1.2775 42.7018C1.64933 42.9078 2.13308 42.9656 2.49047 42.7343" stroke="white" stroke-miterlimit="10"/>
<path d="M0.453904 41.7299C0.121782 40.2161 1.29143 38.8215 2.39248 37.7268C8.54756 31.5921 15.1828 25.9378 22.2223 20.84C21.9299 21.4975 21.8974 22.2671 22.1357 22.9463C22.262 23.304 22.4642 23.6725 22.3848 24.0446C22.3378 24.2578 22.2043 24.4385 22.0743 24.6119C19.9841 27.4011 17.8542 30.2264 15.0673 32.3183C13.2586 33.6767 11.2154 34.692 9.39953 36.036C6.83641 37.9364 4.78592 40.4474 2.99897 43.0884" stroke="white" stroke-miterlimit="10"/>
<path d="M23.3705 24.1458C24.2297 25.4862 25.3199 26.6821 26.5798 27.6612C27.8686 28.6656 29.3234 29.4351 30.7855 30.1686C34.6338 32.1015 38.6156 33.8285 42.1137 36.3394C43.7743 37.5317 45.323 38.8974 47.1316 39.844C48.9403 40.7906 51.1171 41.2819 53.0376 40.5883C53.4131 40.451 53.7921 40.2595 54.0123 39.9235C54.3481 39.4104 54.2181 38.724 53.9871 38.1531C53.182 36.166 51.4095 34.7606 49.7056 33.4636C46.6696 31.1549 43.6083 28.8788 40.5289 26.6315C39.482 25.8692 38.4315 25.1068 37.2871 24.4927C36.15 23.8821 34.9334 23.4305 33.7204 22.9933C32.1068 22.4116 30.4895 21.8516 28.8614 21.3097C26.6881 20.5871 24.2225 19.9223 22.1973 20.9917" stroke="white" stroke-miterlimit="10"/>
<path d="M50.0488 40.8845C50.3376 41.7697 52.7275 42.8283 53.4639 43.3991C54.6227 44.2915 55.6624 44.483 56.879 45.2923" stroke="white" stroke-miterlimit="10"/>
<path d="M53.4941 37.1921C54.1151 37.7666 56.5518 39.3165 57.3966 39.2984" stroke="white" stroke-miterlimit="10"/>
<path d="M58.1222 36.7911C56.9598 33.431 54.0501 31.5704 51.7072 28.8968C49.2633 26.104 47.5449 22.7657 45.8518 19.4671C44.6388 17.1042 43.4259 14.7377 42.2129 12.3749" stroke="white" stroke-miterlimit="10"/>
<path d="M42.5913 12.2809C41.5589 10.1674 40.6167 8.00685 39.7647 5.8138C39.5734 5.32244 39.3856 4.8058 39.4506 4.28553C39.5806 3.24862 40.7213 2.56578 41.7646 2.63081C42.8079 2.69946 43.7285 3.32811 44.4938 4.03985C47.1183 6.48942 48.4468 10.0048 49.4684 13.4479C50.4901 16.891 51.3167 20.4642 53.2373 23.4991C55.2192 26.6279 57.6884 28.3621 60.1216 31.1585" stroke="white" stroke-miterlimit="10"/>
<path d="M41.4836 2.27674C40.2851 1.66977 38.8808 1.69868 37.5414 1.74203C32.2383 1.91184 26.9352 2.08165 21.6321 2.25145C20.1917 2.29842 18.726 2.349 17.3578 2.80784C15.2207 3.52682 13.4554 5.27909 12.719 7.41072C12.5421 7.92737 12.589 8.72221 13.1377 8.75834C13.3327 8.77279 13.5132 8.6644 13.6756 8.5524C14.6575 7.86595 15.3904 6.83626 16.4662 6.30516C17.5058 5.79574 18.7152 5.82103 19.874 5.86077C24.7475 6.02335 29.6211 6.18955 34.491 6.35213C36.2202 6.40994 38.0035 6.4569 39.61 5.81742" stroke="white" stroke-miterlimit="10"/>
<path d="M59.7683 27.3649C58.5011 25.6199 58.169 24.6841 57.0788 22.8235C56.3424 21.5662 55.6384 20.2583 55.364 18.8276C55.0572 17.2307 55.3099 15.5687 55.8081 14.0224C56.5409 11.7462 57.8441 9.60738 59.743 8.1586C61.6419 6.70981 64.1797 6.01613 66.4937 6.59781C66.8295 6.68091 67.1868 6.81097 67.3746 7.10362L66.8006 7.95627C66.5154 8.37898 66.0605 8.81976 65.5551 8.88841C66.0605 8.78002 66.4612 9.42312 66.3313 9.92532C66.2013 10.4275 65.7645 10.778 65.353 11.0923C63.3205 12.6495 61.317 14.3331 59.9704 16.5117C59.4758 17.3101 59.0679 18.2748 59.3531 19.1672C59.4795 19.561 60.5516 22.4586 61.3567 25.2405" stroke="white" stroke-miterlimit="10"/>
<path d="M59.493 19.1636C58.9985 18.6 58.2548 18.2603 57.5039 18.2603" stroke="white" stroke-miterlimit="10"/>
<path d="M65.057 21.7974C64.9704 21.7143 64.844 21.6926 64.7213 21.689C63.7069 21.6493 62.8982 22.4839 62.234 23.2498C62.0427 23.4702 61.8405 23.7665 61.9632 24.0302C62.1329 24.3951 62.7827 24.3987 63.1184 24.1783C63.8296 23.705 64.6419 23.304 64.9993 22.5272C65.0534 22.4116 65.1798 22.0575 65.0534 21.7974C65.0209 21.7288 65.1112 21.8444 65.1761 21.8841C65.7971 22.2924 66.3747 22.7657 66.9992 23.1739" stroke="white" stroke-miterlimit="10"/>
<path d="M61.9668 24.0338C62.3964 24.8539 62.8513 26.1474 63.122 27.0362" stroke="white" stroke-miterlimit="10"/>
<path d="M60.1567 32.6723C60.2145 31.686 60.0412 29.9157 59.8607 28.9438C59.7632 28.4199 59.6332 27.878 59.7704 27.3649C59.8498 27.0687 60.0159 26.8013 60.182 26.5412C60.5177 26.0137 61.709 24.9804 62.0664 24.4674" stroke="white" stroke-miterlimit="10"/>
<path d="M65.7246 22.3357C68.6307 21.2229 73.0457 20.8689 76.1431 21.1362C77.7929 21.2808 79.1069 21.2121 80.5076 22.1009" stroke="white" stroke-miterlimit="10"/>
<path d="M82.6305 22.809C83.237 23.1306 83.894 23.3618 84.5691 23.4955C84.7026 23.5208 84.8543 23.5388 84.9626 23.4594C85.1431 23.3257 85.0709 23.0403 84.9626 22.8415C84.5366 22.0359 83.8398 21.3747 83.0095 20.9953C82.5475 20.7822 81.9229 20.6882 81.5908 21.0784C81.3056 21.4144 81.4175 21.96 81.7172 22.2852C82.0168 22.6103 82.4536 22.7693 82.8688 22.9174" stroke="white" stroke-miterlimit="10"/>
<path d="M85.0991 23.3871C84.7272 24.2072 84.4132 25.049 84.1641 25.9125" stroke="white" stroke-miterlimit="10"/>
<path d="M81.5936 21.0748C81.099 21.5264 79.868 23.0872 79.2109 23.1884" stroke="white" stroke-miterlimit="10"/>
<path d="M84.9609 23.4594C87.7984 27.8057 92.3579 31.4764 93.7622 36.4767C94.2279 38.1242 94.3831 39.844 94.5383 41.5493C94.8307 44.7467 95.1195 47.9803 94.6322 51.1525C94.1448 54.3246 94.1917 57.2366 91.7081 59.2707" stroke="white" stroke-miterlimit="10"/>
<path d="M62.4107 27.6756C63.9558 31.4295 66.6416 34.7028 70.0206 36.9464C70.1506 37.0331 70.2841 37.1198 70.3672 37.2535C70.591 37.622 70.2516 38.1242 69.8329 38.2218C69.4141 38.3193 68.9845 38.1387 68.6019 37.9436C66.6741 36.9717 64.963 35.5374 63.7825 33.7309C62.602 31.9244 61.9703 29.7386 62.1435 27.5853" stroke="white" stroke-miterlimit="10"/>
<path d="M84.9 28.1562C84.1563 29.9951 83.4091 31.845 82.3947 33.5503C81.3802 35.2556 80.0734 36.8236 78.4056 37.8966C78.2901 37.9689 78.1709 38.0484 78.1096 38.1676C77.9688 38.453 78.2504 38.7854 78.5572 38.8721C79.0121 39.0022 79.4922 38.8215 79.9182 38.6192C82.9109 37.1885 85.2141 34.3849 86.0408 31.1693C86.1852 30.6021 86.2899 30.006 86.1924 29.4279C86.0949 28.8498 85.7736 28.2826 85.2466 28.0189C85.1383 28.2356 85.03 28.4524 84.9217 28.6692" stroke="white" stroke-miterlimit="10"/>
<path d="M74.2692 26.4725C73.753 37.9544 74.7927 49.5086 77.3522 60.7123" stroke="white" stroke-miterlimit="10"/>
<path d="M86.2322 25.2369C86.1817 23.1775 86.3947 20.1355 86.5282 18.0797C86.5896 17.1692 86.6726 16.2371 87.0517 15.4061C87.4307 14.5752 88.16 13.849 89.0661 13.7225" stroke="white" stroke-miterlimit="10"/>
<path d="M87.0588 15.0737C87.4523 14.1163 86.5931 13.1408 85.8134 12.4616C84.9217 11.6848 84.0336 10.908 83.1419 10.1276C82.521 9.5857 81.8676 9.02931 81.0662 8.83783C80.4525 8.69331 79.7919 8.77641 79.207 8.54518C79.5933 8.1044 80.1384 7.81176 80.7196 7.73227C80.0554 7.53356 79.5103 6.98078 79.3189 6.316C82.1131 4.93948 85.7159 5.42361 88.0444 7.49382C89.6725 8.9426 90.6436 11.02 91.1093 13.1481C91.5786 15.2761 91.5858 17.48 91.5641 19.6586C91.528 22.9897 91.4161 26.3714 90.3945 29.5399" stroke="white" stroke-miterlimit="10"/>
<path d="M91.8027 31.7655C95.2214 27.943 98.2574 23.799 101.286 19.6586C102.427 18.0978 103.571 16.5334 104.568 14.8714C106.788 11.1609 108.264 6.9591 111.131 3.72553C111.82 2.94514 112.647 2.20087 113.669 1.99855C114.69 1.79623 115.918 2.35262 116.12 3.37508C116.224 3.9134 116.04 4.46618 116.087 5.01535C116.16 5.82103 116.798 6.54362 117.585 6.71342C117.817 6.764 118.073 6.77846 118.243 6.94104C118.6 7.28788 118.25 7.8804 117.896 8.23447C114.376 11.7824 110.34 14.9509 107.795 19.2503C106.972 20.6413 106.319 22.1298 105.542 23.5461C102.658 28.8029 98.1997 32.4339 93.763 36.4659" stroke="white" stroke-miterlimit="10"/>
<path d="M118.391 7.48659C122.3 8.35008 126.192 8.33202 130.105 9.19551C133.275 9.89641 136.473 10.6045 139.426 11.9522C142.379 13.2998 145.112 15.3519 146.7 18.1845C146.931 18.5964 147.321 19.0985 147.758 18.9143C148.206 18.7264 148.101 18.0652 147.913 17.6172C147.043 15.5217 146.116 13.4479 145.13 11.403C143.672 8.37537 139.56 7.39988 136.628 6.55084C130.596 4.8058 124.766 2.41042 118.708 0.770153C116.867 0.271569 113.698 0.708734 112.773 2.37429" stroke="white" stroke-miterlimit="10"/>
<path d="M94.6328 42.2394C95.3945 41.2277 96.6472 39.4755 97.4089 38.4675C97.575 38.2507 97.7807 38.0086 98.0551 38.0195C98.8349 39.6308 100.647 40.6786 102.434 40.5521" stroke="white" stroke-miterlimit="10"/>
<path d="M150.609 56.3479C150.938 54.9894 151.093 54.6281 151.57 53.3166C151.978 53.4142 152.385 53.5117 152.793 53.6093" stroke="white" stroke-miterlimit="10"/>
<path d="M98.123 38.0158C98.1483 34.4716 101.174 31.751 104.069 29.7061C110.989 24.8214 118.632 20.9664 126.671 18.3073C129.602 17.3391 132.711 16.5189 135.747 17.0681C138.523 17.5703 141.068 19.2575 142.613 21.6204C144.559 24.5938 144.851 28.3079 145.689 31.7619C147.205 38.0411 150.602 43.6809 153.1 49.6386C153.779 51.2536 155.176 53.248 154.219 54.7184L151.699 58.0748" stroke="white" stroke-miterlimit="10"/>
<path d="M151.725 53.266C150.296 52.0882 149.635 50.2456 148.974 48.515C147.213 43.8905 145.021 39.4177 142.278 35.3025C141.556 34.2187 140.794 33.1565 140.238 31.9823C139.661 30.7647 139.318 29.4496 138.978 28.1453C138.426 26.0281 137.874 23.8965 137.762 21.7107" stroke="white" stroke-miterlimit="10"/>
<path d="M138.058 24.471C137.314 23.9688 136.321 24.4059 135.538 24.8431C127.632 29.2726 119.726 33.7056 111.82 38.1351C110.589 38.8251 109.34 39.5224 107.975 39.8693C106.022 40.3643 103.943 40.1186 101.986 40.5955" stroke="white" stroke-miterlimit="10"/>
<path d="M98.8095 46.7194C98.5929 46.2461 98.8961 45.7042 99.2138 45.2923C101.557 42.2683 104.401 41.2277 107.972 39.8693" stroke="white" stroke-miterlimit="10"/>
<path d="M125.434 30.5299C129.311 29.9265 133.545 29.4062 136.932 31.3897C139.419 32.8457 141.029 35.4507 142.108 38.1242C143.188 40.7978 143.841 43.634 144.978 46.2858C145.776 48.1393 146.801 49.8843 147.827 51.6221C149.7 54.8015 151.574 57.9773 153.447 61.1567C154.003 62.096 154.577 63.151 154.368 64.2204C154.267 64.7407 153.985 65.2104 153.66 65.6295C152.184 67.5371 149.678 68.5957 147.281 68.3247C146.841 67.6419 147.57 66.8037 148.278 66.4063C149.191 65.8932 150.202 65.55 151.238 65.3946" stroke="white" stroke-miterlimit="10"/>
<path d="M150.288 65.438C149.065 62.656 147.844 59.8705 146.621 57.0885C146.122 55.9504 145.621 54.8087 144.989 53.7393C143.707 51.5607 141.92 49.7217 140.574 47.5829C138.173 43.7857 137.267 39.2623 136.404 34.8545" stroke="white" stroke-miterlimit="10"/>
<path d="M136.824 37.0801C132.571 39.5586 128.116 41.683 123.517 43.428C122.008 43.9989 120.481 44.5336 119.015 45.2092C117.665 45.8342 116.369 46.5749 115.026 47.218C112.084 48.6198 108.929 49.5194 105.792 50.4082C104.575 50.755 103.301 51.1019 102.059 50.8598C99.8966 50.4335 98.3696 47.9767 98.9472 45.8451" stroke="white" stroke-miterlimit="10"/>
<path d="M101.871 50.8923C100.322 51.3042 98.8346 51.9437 97.4736 52.7855C96.1487 53.6056 95.5386 54.3318 94.1055 54.9424" stroke="white" stroke-miterlimit="10"/>
<path d="M94.9004 47.4311C96.4419 45.1116 98.5248 43.3196 100.756 41.6974C101.402 41.2277 102.045 40.4979 102.882 40.404" stroke="white" stroke-miterlimit="10"/>
<path d="M98.8639 47.1132C97.4379 47.7888 96.456 48.2549 94.8965 48.4934" stroke="white" stroke-miterlimit="10"/>
<path d="M91.4531 59.6573C92.6517 59.7729 93.7419 60.3582 94.8501 60.8279C99.4998 62.815 104.734 62.9162 109.774 62.5187C111.283 62.3995 112.81 62.2333 114.214 61.6733C115.814 61.0338 117.178 59.9138 118.752 59.2057C120.294 58.5156 122.019 58.241 123.698 58.4217" stroke="white" stroke-miterlimit="10"/>
<path d="M122.928 55.2098C122.488 55.9938 122.567 56.4346 122.878 57.2475C123.188 58.0604 123.852 58.6782 124.47 59.2924C128 62.8114 130.578 67.1866 134.043 70.7707C135.433 72.2086 136.964 73.5165 138.271 75.0303C139.577 76.5441 140.678 78.3181 141 80.2944C141.314 82.2273 140.866 84.1963 140.422 86.1039C141.541 85.515 142.404 84.4492 142.743 83.2317C143.007 82.2851 142.967 81.2807 142.924 80.298C142.87 79.0587 143.141 78.0001 143.086 76.7609C142.696 76.7754 142 76.844 141.852 77.2053" stroke="white" stroke-miterlimit="10"/>
<path d="M143.09 76.7609C142.859 75.2254 141.75 73.997 140.729 72.83C138.115 69.8422 135.758 66.6339 133.693 63.2413C132.581 61.4132 131.541 59.52 130.144 57.8978C128.747 56.2756 126.931 54.9171 124.83 54.5233C124.105 54.386 123.148 54.5017 122.928 55.2098" stroke="white" stroke-miterlimit="10"/>
<path d="M123.885 54.3282C121.604 53.6093 119.304 52.8831 116.922 52.6663C115.489 52.5362 114.045 52.5904 112.604 52.6482C109.207 52.7783 105.81 52.912 102.417 53.042C99.211 53.1649 96.193 53.4322 93.9512 55.7264" stroke="white" stroke-miterlimit="10"/>
</g>
<path d="M55.9224 120.268C54.9024 120.268 53.9424 119.932 53.3184 119.656L53.6544 117.82L53.7144 117.808C54.3144 118.864 54.9384 119.812 55.9344 119.812C56.8584 119.812 57.3624 119.044 57.3624 118.084C57.3624 116.896 56.4384 116.056 55.1784 115.852V115.672C56.4144 115.456 57.3384 114.628 57.3384 113.464C57.3384 112.588 56.8224 111.808 55.9344 111.808C55.0584 111.808 54.4104 112.624 53.7504 113.74H53.6904L53.3784 111.952C53.9904 111.688 54.9264 111.352 55.9344 111.352C57.1824 111.352 58.9584 111.928 58.9584 113.536C58.9584 114.748 57.9144 115.6 56.4744 115.756C57.9384 115.888 59.0184 116.728 59.0184 118C59.0184 119.668 57.2184 120.268 55.9224 120.268ZM59.456 121.192L63.368 110.764H63.86L59.948 121.192H59.456ZM63.1721 118.12L67.2881 111.484H68.6081V117.616H69.8561V118.12H68.6081V118.348C68.6081 119.104 68.8361 119.896 68.8841 120.124H66.8321C66.8801 119.896 67.1081 119.104 67.1081 118.348V118.12H63.2561L63.2681 118.108L63.1721 118.12ZM64.0481 117.616H67.1081V112.72L64.0481 117.616ZM75.6015 120.232C74.1135 120.232 72.7095 119.176 72.7095 117.124C72.7095 115.168 73.9455 114.052 75.6495 114.052C76.5495 114.052 77.3175 114.388 77.8335 114.616L77.8455 116.224H77.7975C77.3775 115.528 76.5975 114.484 75.6855 114.484C74.7015 114.484 74.2455 115.552 74.2455 116.752C74.2575 118.24 74.9175 119.272 76.2255 119.272C76.7535 119.272 77.4015 119.104 78.0855 118.528L78.1215 118.552C77.7495 119.452 76.8495 120.232 75.6015 120.232ZM80.6775 120.076V120.124H78.7335V120.076C78.7815 119.86 79.0095 119.08 79.0095 118.336V115.912C79.0095 115.156 78.7815 114.388 78.7335 114.16V114.124H80.4015V115.048C80.8815 114.424 81.4455 114.052 82.2015 114.052C82.9335 114.052 83.6175 114.4 83.9055 115.192C84.3975 114.484 84.9975 114.052 85.8135 114.052C86.7735 114.052 87.6495 114.652 87.6495 116.08V118.336C87.6495 119.08 87.8775 119.86 87.9255 120.076V120.124H85.9815V120.076C86.0295 119.86 86.2575 119.08 86.2575 118.336V116.26C86.2575 115.36 85.6815 114.988 85.0815 114.988C84.7095 114.988 84.3615 115.156 83.9775 115.468C84.0255 115.648 84.0495 115.852 84.0495 116.08V118.336C84.0495 119.08 84.2775 119.86 84.3255 120.076V120.124H82.3695V120.076C82.4175 119.86 82.6455 119.08 82.6455 118.336V116.26C82.6455 115.36 82.0575 114.988 81.4575 114.988C81.0975 114.988 80.7495 115.144 80.4015 115.432V118.336C80.4015 119.08 80.6295 119.86 80.6775 120.076Z" fill="white"/>
<path d="M155 93.8997V107.808" stroke="#FEFEFE" stroke-opacity="0.6"/>
<path fill-rule="evenodd" clip-rule="evenodd" d="M0.162109 93.8998V107.808H1.16211V93.8998H0.162109ZM1.16577 101.354H154.496V100.354H1.16577V101.354Z" fill="#FEFEFE" fill-opacity="0.6"/>
<defs>
<clipPath id="clip0_1497_31">
<rect width="154.725" height="89.9258" fill="white" transform="translate(0 0.394409)"/>
</clipPath>
</defs>
</svg>
