<?xml version="1.0" encoding="utf-8"?>
<!-- Generator: Adobe Illustrator 26.0.1, SVG Export Plug-In . SVG Version: 6.00 Build 0)  -->
<svg version="1.1" id="Livello_1" xmlns="http://www.w3.org/2000/svg" xmlns:xlink="http://www.w3.org/1999/xlink" x="0px" y="0px"
	 viewBox="0 0 482.6 482.6" style="enable-background:new 0 0 482.6 482.6;" xml:space="preserve">
<style type="text/css">
	.st0{fill:#FFFFFF;}
</style>
<g>
	<path class="st0" d="M35.6,482.6h427.7c10.7,0,19.3-8.7,19.3-19.3l0-427.7c0-10.7-8.7-19.3-19.3-19.3h-10.7
		c-10.7,0-19.3,8.7-19.3,19.3v362.8L40.6,5.7c-7.5-7.5-19.8-7.5-27.3,0l-7.6,7.6c-7.5,7.5-7.5,19.8,0,27.3l392.7,392.7l-362.8,0
		c-10.7,0-19.3,8.7-19.3,19.3l0,10.7C16.2,474,24.9,482.6,35.6,482.6z"/>
</g>
</svg>
