<?xml version="1.0" encoding="utf-8"?>
<!-- Generator: Adobe Illustrator 26.0.1, SVG Export Plug-In . SVG Version: 6.00 Build 0)  -->
<svg version="1.1" id="Livello_1" xmlns="http://www.w3.org/2000/svg" xmlns:xlink="http://www.w3.org/1999/xlink" x="0px" y="0px"
	 viewBox="0 0 480.3 60.7" style="enable-background:new 0 0 480.3 60.7;" xml:space="preserve">
<style type="text/css">
	.st0{fill:#FFFFFF;}
	.st1{fill:#FFFFFF;stroke:#FEFEFE;}
	.st2{fill:none;stroke:#FEFEFE;}
</style>
<path class="st0" d="M2.8,45.4c-1.5,0-2.8-1.1-2.8-3.1c0-1.9,1.2-3.1,2.8-3.1c0.8,0,1.5,0.3,2.1,0.6l0,1.4h0c-0.4-0.7-1.1-1.6-2-1.6
	c-1.1,0-1.6,1.1-1.6,2.4c0,1.5,0.7,2.5,2,2.5c0.5,0,1.2-0.2,1.9-0.8l0,0C4.8,44.8,3.9,45.4,2.8,45.4z M8.7,45.4
	c-1.6,0-2.9-1.2-2.9-3.1c0-1.9,1.3-3,2.9-3c1.6,0,2.9,1.1,2.9,3C11.6,44.2,10.3,45.4,8.7,45.4z M8.7,45c1.1,0,1.7-1.2,1.7-2.7
	c0-1.4-0.6-2.6-1.7-2.6S7,40.9,7,42.3C7,43.7,7.6,45,8.7,45z M14.7,45.4c-0.6,0-1.4-0.2-2.2-0.6v-1.3h0c0.6,0.7,1.3,1.5,2.2,1.5
	c0.6,0,1.2-0.3,1.2-1c0-0.6-0.6-0.9-1.5-1.2c-1.2-0.4-2-0.8-2-1.8c0-1.1,1-1.7,2.2-1.7c0.6,0,1.4,0.2,2,0.5V41h0
	c-0.6-0.7-1.3-1.3-2.1-1.3c-0.6,0-1.2,0.3-1.2,0.9c0,0.6,0.6,0.8,1.6,1.1c1.2,0.4,1.9,0.9,1.9,1.9C16.8,44.8,15.8,45.4,14.7,45.4z
	 M19.7,45.4c-0.9,0-1.4-0.7-1.4-1.7v-4h-0.9v-0.3c1-0.3,1.5-1,1.9-1.8h0.1v1.7h1.7v0.4h-1.7l0,3.8c0,0.7,0.3,1,0.9,1
	c0.3,0,0.7-0.1,1.1-0.4C21.1,44.9,20.5,45.4,19.7,45.4z M23.6,45.3L23.6,45.3l-1.6,0v0c0.1-0.3,0.2-1,0.2-1.7V41
	c0-0.7-0.2-1.4-0.2-1.7v0h1.4v1c0.5-0.8,1.4-1.3,2.4-1l-0.2,1.3h0c-0.6-0.5-1.5-0.7-2.2,0v2.9C23.4,44.3,23.5,45,23.6,45.3z
	 M28.6,45.4c-1,0-2-0.6-2-2V41c0-0.7-0.2-1.4-0.2-1.7v0h1.4v3.9c0,1,0.6,1.4,1.3,1.4c0.5,0,1-0.3,1.5-0.7c0-0.1,0-0.3,0-0.4V41
	c0-0.7-0.2-1.4-0.3-1.7v0h1.4v4.3c0,0.7,0.2,1.4,0.2,1.7v0h-1.2c0-0.2-0.1-0.6-0.2-1C30,45,29.4,45.4,28.6,45.4z M33.7,38
	c-0.4,0-0.8-0.3-0.8-0.8c0-0.4,0.4-0.8,0.8-0.8c0.4,0,0.8,0.3,0.8,0.8C34.5,37.6,34.1,38,33.7,38z M34.6,45.3L34.6,45.3l-1.6,0v0
	c0.1-0.3,0.2-1,0.2-1.7l0-2.6c0-0.7-0.2-1.4-0.2-1.7v0h1.4v4.3C34.3,44.3,34.5,45,34.6,45.3z M37.6,45.4c-0.9,0-1.4-0.7-1.4-1.7v-4
	h-0.9v-0.3c1-0.3,1.5-1,1.9-1.8h0.1v1.7H39v0.4h-1.7l0,3.8c0,0.7,0.3,1,0.9,1c0.3,0,0.7-0.1,1.1-0.4C39,44.9,38.4,45.4,37.6,45.4z
	 M42.5,45.4c-1.6,0-2.9-1.2-2.9-3.1c0-1.9,1.3-3,2.9-3c1.6,0,2.9,1.1,2.9,3C45.4,44.2,44.1,45.4,42.5,45.4z M42.5,45
	c1.1,0,1.7-1.2,1.7-2.7c0-1.4-0.6-2.6-1.7-2.6s-1.7,1.2-1.7,2.6C40.8,43.7,41.4,45,42.5,45z M53.4,45.3c-0.1-0.3-0.2-0.5-0.3-0.9
	c-0.5,0.7-1.2,1-1.9,1c-1.3,0-2.4-1.1-2.4-3c0-2.1,1.2-3.1,2.5-3.1c0.7,0,1.3,0.3,1.7,0.8v-1.9c0-0.7-0.2-1.3-0.3-1.6v0l0.3,0
	l1.2-0.2v7.2c0,0.7,0.2,1.4,0.2,1.7v0H53.4z M50.1,42.3c0,1.3,0.5,2.4,1.6,2.4c0.6,0,1-0.3,1.4-0.8c0-0.1,0-0.2,0-0.2v-3.2
	c-0.3-0.4-0.8-0.6-1.3-0.6C50.7,39.9,50.1,40.9,50.1,42.3z M57.1,45.4c-1.2,0-1.9-0.9-1.9-1.8c0-1.4,1.5-2.1,3.3-1.8
	c0.2,0,0.3,0.1,0.5,0.1v-0.8c0-0.9-0.5-1.4-1.1-1.4c-0.8,0-1.9,1-2.3,1.4h0v-1.4c0.9-0.3,1.7-0.5,2.4-0.5c1.3,0,2.1,0.7,2.1,1.8v3
	c0,0.6,0.3,0.8,0.8,0.6l0,0c-0.1,0.4-0.5,0.6-0.9,0.6c-0.5,0-0.9-0.3-1-0.9C58.6,45,58,45.4,57.1,45.4z M56.4,43.5
	c0,0.7,0.6,1.2,1.3,1.2c0.5,0,0.9-0.3,1.3-0.7v-1.9c0,0-0.1,0-0.1,0C57.2,41.9,56.4,42.6,56.4,43.5z M63.1,45.3L63.1,45.3l-1.6,0v0
	c0.1-0.3,0.3-1,0.3-1.7v-5.4c0-0.7-0.2-1.4-0.3-1.6l0,0l0.2,0l1.2-0.2v7.2C62.8,44.3,63,45,63.1,45.3z M66.3,39.8v-0.4h1v-0.5
	c0-1.8,0.9-2.4,1.9-2.4c0.5,0,1,0.1,1.6,0.3v1.1h-0.1c-0.5-0.6-1-1-1.5-1c-0.6,0-0.8,0.7-0.8,1.9v0.6h1.9v0.4h-1.9v3.8
	c0,0.7,0.2,1.4,0.3,1.7v0h-1.6v0c0.1-0.3,0.2-1,0.2-1.7v-3.8H66.3z M72.9,45.4c-1.2,0-1.9-0.9-1.9-1.8c0-1.4,1.5-2.1,3.3-1.8
	c0.2,0,0.3,0.1,0.5,0.1v-0.8c0-0.9-0.5-1.4-1.1-1.4c-0.8,0-1.9,1-2.3,1.4h0v-1.4c0.9-0.3,1.7-0.5,2.4-0.5c1.3,0,2.1,0.7,2.1,1.8v3
	c0,0.6,0.3,0.8,0.8,0.6l0,0c-0.1,0.4-0.5,0.6-0.9,0.6c-0.5,0-0.9-0.3-1-0.9C74.4,45,73.8,45.4,72.9,45.4z M72.1,43.5
	c0,0.7,0.6,1.2,1.3,1.2c0.5,0,0.9-0.3,1.3-0.7v-1.9c0,0-0.1,0-0.1,0C73,41.9,72.1,42.6,72.1,43.5z M78.9,45.3L78.9,45.3l-1.6,0v0
	c0.1-0.3,0.2-1,0.2-1.7V41c0-0.7-0.2-1.4-0.2-1.7v0h1.4v1c0.5-0.8,1.4-1.3,2.4-1l-0.2,1.3h0c-0.6-0.5-1.5-0.7-2.2,0v2.9
	C78.6,44.3,78.8,45,78.9,45.3z M83.5,45.4c-1.2,0-1.9-0.9-1.9-1.8c0-1.4,1.5-2.1,3.3-1.8c0.2,0,0.3,0.1,0.5,0.1v-0.8
	c0-0.9-0.5-1.4-1.1-1.4c-0.8,0-1.9,1-2.3,1.4h0v-1.4c0.9-0.3,1.7-0.5,2.4-0.5c1.3,0,2.1,0.7,2.1,1.8v3c0,0.6,0.3,0.8,0.8,0.6l0,0
	c-0.1,0.4-0.5,0.6-0.9,0.6c-0.5,0-0.9-0.3-1-0.9C85,45,84.4,45.4,83.5,45.4z M82.8,43.5c0,0.7,0.6,1.2,1.3,1.2
	c0.5,0,0.9-0.3,1.3-0.7v-1.9c0,0-0.1,0-0.1,0C83.7,41.9,82.8,42.6,82.8,43.5z M90.5,45.4c-1.6,0-2.9-1.2-2.9-3.1c0-1.9,1.3-3,2.9-3
	c1.6,0,2.9,1.1,2.9,3C93.5,44.2,92.1,45.4,90.5,45.4z M90.5,45c1.1,0,1.7-1.2,1.7-2.7c0-1.4-0.6-2.6-1.7-2.6s-1.7,1.2-1.7,2.6
	C88.9,43.7,89.5,45,90.5,45z M95.8,45.3L95.8,45.3l-1.6,0v0c0.1-0.3,0.2-1,0.2-1.7V41c0-0.7-0.2-1.4-0.2-1.7v0h1.4v1
	c0.5-0.7,1.2-1.1,2-1.1c1,0,1.9,0.6,1.9,2.1v2.3c0,0.7,0.2,1.4,0.3,1.7v0h-1.6v0c0.1-0.3,0.2-1,0.2-1.7v-2.1c0-1-0.6-1.4-1.3-1.4
	c-0.5,0-1,0.3-1.5,0.7v2.9C95.6,44.3,95.8,45,95.8,45.3z M103.3,45.4c-1.5,0-2.8-1.1-2.8-3.1c0-1.9,1.2-3.1,2.8-3.1
	c1.6,0,2.5,1.2,2.5,2.9h-4.1c0,1.4,0.7,2.5,2,2.5c0.7,0,1.3-0.3,2-0.9l0,0C105.4,44.7,104.5,45.4,103.3,45.4z M103.3,39.7
	c-1,0-1.5,1-1.5,2.1l2.9-0.2C104.6,40.5,104.1,39.7,103.3,39.7z M27.7,58.4c-1.1,0-2.1-0.4-3.1-0.9V56h0c0.8,0.9,1.8,2,3.1,2
	c1,0,1.8-0.6,1.8-1.5c0-1.1-1-1.6-2.3-2c-1.7-0.6-2.6-1.4-2.6-2.5c0-1.2,1.1-2.3,2.9-2.3c1.1,0,2.2,0.4,2.9,0.8v1.5h0
	c-0.8-0.9-1.8-1.8-3-1.8c-1,0-1.7,0.6-1.7,1.4c0,0.9,1,1.4,2.5,1.9c1.7,0.6,2.5,1.5,2.5,2.7C30.6,57.7,29.3,58.4,27.7,58.4z
	 M34.3,58.4c-1.5,0-2.8-1.1-2.8-3.1c0-1.9,1.2-3.1,2.8-3.1c1.6,0,2.5,1.2,2.5,2.9h-4.1c0,1.4,0.7,2.5,2,2.5c0.7,0,1.3-0.3,2-0.9l0,0
	C36.4,57.7,35.5,58.4,34.3,58.4z M34.2,52.7c-1,0-1.5,1-1.5,2.1l2.9-0.2C35.6,53.5,35.1,52.7,34.2,52.7z M39.3,58.3L39.3,58.3
	l-1.6,0v0c0.1-0.3,0.2-1,0.2-1.7V54c0-0.7-0.2-1.4-0.2-1.7v0H39v1c0.5-0.7,1.2-1.1,2-1.1c1,0,1.9,0.6,1.9,2.1v2.3
	c0,0.7,0.2,1.4,0.3,1.7v0h-1.6v0c0.1-0.3,0.2-1,0.2-1.7v-2.1c0-1-0.6-1.4-1.3-1.4c-0.5,0-1,0.3-1.5,0.7v2.9
	C39,57.3,39.2,58,39.3,58.3z M46.2,58.4c-1,0-2-0.6-2-2V54c0-0.7-0.2-1.4-0.2-1.7v0h1.4v3.9c0,1,0.6,1.4,1.3,1.4
	c0.5,0,1-0.3,1.5-0.7c0-0.1,0-0.3,0-0.4V54c0-0.7-0.2-1.4-0.3-1.7v0h1.4v4.3c0,0.7,0.2,1.4,0.2,1.7v0h-1.2c0-0.2-0.1-0.6-0.2-1
	C47.6,58,47,58.4,46.2,58.4z M52.7,58.4c-0.6,0-1.4-0.2-2.2-0.6v-1.3h0c0.6,0.7,1.3,1.5,2.2,1.5c0.6,0,1.2-0.3,1.2-1
	c0-0.6-0.6-0.9-1.5-1.2c-1.2-0.4-2-0.8-2-1.8c0-1.1,1-1.7,2.2-1.7c0.6,0,1.4,0.2,2,0.5V54h0c-0.6-0.7-1.3-1.3-2.1-1.3
	c-0.6,0-1.2,0.3-1.2,0.9c0,0.6,0.6,0.8,1.6,1.1c1.2,0.4,1.9,0.9,1.9,1.9C54.9,57.8,53.8,58.4,52.7,58.4z M57.3,58.3L57.3,58.3
	l-1.6,0v0c0.1-0.3,0.2-1,0.2-1.7V54c0-0.7-0.2-1.4-0.2-1.7v0H57v1c0.5-0.8,1.4-1.3,2.4-1l-0.2,1.3h0c-0.6-0.5-1.5-0.7-2.2,0v2.9
	C57,57.3,57.2,58,57.3,58.3z M62.6,58.4c-1.5,0-2.8-1.1-2.8-3.1c0-1.9,1.2-3.1,2.8-3.1c1.6,0,2.5,1.2,2.5,2.9H61
	c0,1.4,0.7,2.5,2,2.5c0.7,0,1.3-0.3,2-0.9l0,0C64.7,57.7,63.8,58.4,62.6,58.4z M62.6,52.7c-1,0-1.5,1-1.5,2.1l2.9-0.2
	C63.9,53.5,63.5,52.7,62.6,52.7z M67.9,58.4c-0.9,0-1.4-0.7-1.4-1.7v-4h-0.9v-0.3c1-0.3,1.5-1,1.9-1.8h0.1v1.7h1.7v0.4h-1.7l0,3.8
	c0,0.7,0.3,1,0.9,1c0.3,0,0.7-0.1,1.1-0.4C69.2,57.9,68.6,58.4,67.9,58.4z M74.9,58.3L74.9,58.3l-1.7,0v0c0.1-0.3,0.2-1,0.2-1.7
	v-5.2c0-0.7-0.2-1.4-0.2-1.7v0h1.7v0c-0.1,0.3-0.3,1-0.3,1.7v5.2C74.6,57.3,74.8,58,74.9,58.3z M78,58.3L78,58.3l-1.7,0v0
	c0.1-0.3,0.2-1,0.2-1.7v-5.2c0-0.7-0.2-1.4-0.2-1.7v0H78v0c-0.1,0.3-0.3,1-0.3,1.7v5.2C77.7,57.3,77.9,58,78,58.3z M81.1,58.3
	L81.1,58.3l-1.7,0v0c0.1-0.3,0.2-1,0.2-1.7v-5.2c0-0.7-0.2-1.4-0.2-1.7v0h1.7v0c-0.1,0.3-0.3,1-0.3,1.7v5.2
	C80.8,57.3,81,58,81.1,58.3z"/>
<path class="st0" d="M27.6,26.4L27.6,26.4c0-0.1,0.7-1.1,0.9-2.1l1.3-4.8h-1.4l0.1-0.4c1.5-0.4,3-0.9,4.3-1.8l-1.8,6.9
	c-0.2,0.9-0.2,2-0.2,2l0,0H27.6z M35,26.5c-1.8,0-3.4-0.9-3-2.4c0.2-0.9,1.2-1.4,2.1-1.6c-0.7-0.5-1.2-1.4-0.8-2.7
	c0.4-1.3,1.7-2.2,3.5-2.2c1.7,0,3,0.8,2.6,2.2c-0.3,0.9-1.1,1.3-1.9,1.6c1.3,0.9,1.3,2,1.1,2.8C38.3,25.9,36.5,26.5,35,26.5z M37,21
	c0.3-0.3,0.6-0.7,0.7-1.2c0.2-0.9,0.1-1.6-0.9-1.6c-0.7,0-1.3,0.4-1.4,1.1C35.2,20.2,36.1,20.6,37,21z M34.9,25.9
	c0.8,0,1.3-0.5,1.4-1.1c0.2-0.8-0.6-1.4-1.6-2l-0.1,0c-0.4,0.4-0.7,0.9-0.8,1.3C33.6,25.1,34,25.9,34.9,25.9z M42.5,26.4
	c-2,0-3.3-1.7-2.5-4.8c0.6-2.2,2.6-3.9,4.6-3.9c2,0,3.3,1.7,2.5,4.8C46.5,24.7,44.5,26.4,42.5,26.4z M42.5,25.8c1,0,1.6-2.4,2-3.8
	c0.4-1.4,1-3.8,0-3.8c-1,0-1.6,2.4-2,3.8C42.1,23.5,41.5,25.8,42.5,25.8z M50.5,26.4c-2,0-3.3-1.7-2.5-4.8c0.6-2.2,2.6-3.9,4.6-3.9
	c2,0,3.3,1.7,2.5,4.8C54.5,24.7,52.5,26.4,50.5,26.4z M50.5,25.8c1,0,1.6-2.4,2-3.8c0.4-1.4,1-3.8,0-3.8c-1,0-1.6,2.4-2,3.8
	C50.1,23.5,49.5,25.8,50.5,25.8z M59.2,26.5c-1.4,0-1.8-1.8-0.9-3.9c0.8-2.1,2.2-2.5,3-2.5c0.7,0,1.3,0.3,1.5,0.7
	c0.7-0.2,1.4-0.5,1.8-0.6h0.3l-1.2,4.3c-0.2,0.8,0.5,0.5,1.1-0.2l0.1,0c-0.4,1.2-1.4,2.1-2.5,2.1c-1,0-1.2-0.7-1.1-1.4
	C60.5,26.3,59.7,26.5,59.2,26.5z M60.6,22.7c-0.5,1.3-0.8,2.5-0.2,2.5c0.4,0,1.1-0.6,1.6-2.5l0.4-1.5c-0.1-0.2-0.3-0.3-0.5-0.3
	C61.3,20.9,60.9,22.1,60.6,22.7z M66.3,26.5c-0.6,0-1-0.6-0.8-1.3c0.2-0.7,0.8-1.3,1.4-1.2c0.6,0,1,0.6,0.8,1.3
	C67.5,26,66.9,26.5,66.3,26.5z M72,26.5c-2.4,0-3.6-1.9-3-4.5c0.7-2.7,2.5-4.5,5.2-4.5c0.8,0,1.8,0.2,2.8,0.5l-0.7,2.6h-0.1
	c-0.4-1-1.1-2.5-2-2.5c-1,0-1.9,1.6-2.5,3.9C71.2,24,71.3,26,72.2,26c0.9,0,2.2-1.3,3.4-2.7h0.1L75,25.9
	C73.9,26.3,72.9,26.5,72,26.5z"/>
<path class="st0" d="M193.6,26L193.6,26c0-0.1,0.7-1.1,0.9-2.1l1.3-4.8h-1.4l0.1-0.4c1.5-0.4,3-0.9,4.3-1.8l-1.8,6.9
	c-0.2,0.9-0.2,2-0.2,2l0,0H193.6z M197.9,26c0.1-0.4,4.7-5.6,5.8-6.6h-2.4c-0.9,0-1.5,0.3-2.4,0.7h0l1.6-2.7h5.4
	c-1.8,2.4-3.3,5.1-4.1,6.7c-0.4,0.9-0.8,1.9-0.8,1.9H197.9z M207,26l1.1-4.1c0.2-0.9,0.2-2,0.2-2l0,0h2.4l-0.5,1.9
	c0.6-0.9,1.4-2,2.5-2c1,0,1.6,0.7,1.3,1.9l-0.7,2.5c-0.2,0.8,0.5,0.5,1.2-0.2l0.1,0c-0.4,1.2-1.4,2.1-2.5,2.1c-1.2,0-1.3-1-1.1-1.8
	l0.6-2.1c0.2-0.7,0.1-0.9-0.1-0.9c-0.3,0-1.2,0.6-1.9,2.8l-0.5,2H207z M217.6,26.1c-1.6,0-2.8-1.1-2.2-3.3s2.3-3.1,3.9-3.1
	c1.5,0,2.8,1,2.2,3.2C220.8,25.1,219.1,26.2,217.6,26.1z M217.7,25.6c0.6,0,1-1.6,1.4-2.6c0.3-1.1,0.6-2.5,0-2.6
	c-0.6,0-1,1.5-1.3,2.5C217.4,24,217.1,25.5,217.7,25.6z M223.6,26.1c-1.2,0-1.9-0.7-1.6-1.9l0.6-2.3c0.3-0.9,0.2-2,0.2-2v0h2.7
	l-1.1,3.9c-0.2,0.7-0.2,1.4,0.4,1.4c0.7,0,2-1.3,1.9-3.5c0-0.7-0.2-1.1-0.3-1.3l2.4-0.5c0,0.3-0.3,1.3-0.6,2.1
	C227.3,24.3,225.4,26.1,223.6,26.1z M230.8,26.1c-1.5,0-2.6-1.4-2.1-3.4c0.6-2.2,2.4-2.9,3.7-2.9c1.3,0,2.3,0.7,2,1.8
	c-0.3,1-1.5,1.7-3.6,1.7c-0.1,0.9,0.2,1.5,0.9,1.5c0.7,0,1.7-0.5,2.2-0.9l0.2,0C233.6,24.8,232.3,26.1,230.8,26.1z M231,22.5
	c0,0.1,0,0.2-0.1,0.3c1-0.2,1.5-0.9,1.7-1.4c0.2-0.5,0.2-1.1-0.3-1.1C231.9,20.4,231.3,21.5,231,22.5z M234.4,26l1.1-4.1
	c0.2-0.9,0.2-2,0.2-2l0,0h2.4l-0.5,1.9c0.6-0.9,1.4-2,2.5-2c0.9,0,1.5,0.6,1.3,1.6c0.5-0.8,1.3-1.6,2.3-1.6c1,0,1.6,0.7,1.3,1.9
	l-0.7,2.5c-0.2,0.8,0.5,0.5,1.1-0.2l0.1,0c-0.4,1.2-1.4,2.1-2.5,2.1c-1.2,0-1.3-1-1.1-1.8l0.6-2.1c0.2-0.7,0.1-0.9-0.1-0.9
	c-0.3,0-1,0.5-1.7,2.2l-0.8,2.7h-2.2l1.2-3.9c0.2-0.7,0.1-0.9-0.1-0.9c-0.3,0-1.2,0.6-1.9,2.8l-0.5,2H234.4z M245.6,26.1
	c0.3-0.5,0.6-1.2,0.8-2.1l1.2-4.4c0.3-1,0.2-2.1,0.2-2.1l0,0l2.6,0l-1,3.8c0.9-1.2,1.7-1.4,2.2-1.4c1.4,0,1.8,1.8,0.9,3.9
	c-0.8,2.1-2.2,2.5-3,2.5c-0.6,0-1-0.3-1.3-0.7l-2.6,0.6H245.6z M250.3,21.1c-0.4,0-0.9,0.4-1.4,1.7l-0.6,2.2
	c0.1,0.3,0.4,0.4,0.5,0.4c0.6,0,1-1.1,1.3-1.8C250.6,22.3,251,21.1,250.3,21.1z M252.9,26l1.1-4.1c0.2-0.9,0.2-2,0.2-2l0,0h2.4
	l-0.5,2.1c0.8-1.5,1.9-2.6,3-2l-0.9,2.4h0c-0.2-0.4-0.5-0.6-0.9-0.6c-0.3,0-1.1,0.1-1.7,2.2l-0.5,2.1H252.9z M261,26.1
	c-1.5,0-2.6-1.4-2.1-3.4c0.6-2.2,2.4-2.9,3.7-2.9c1.3,0,2.3,0.7,2,1.8c-0.3,1-1.5,1.7-3.6,1.7c-0.1,0.9,0.2,1.5,0.9,1.5
	c0.7,0,1.7-0.5,2.2-0.9l0.2,0C263.9,24.8,262.6,26.1,261,26.1z M261.2,22.5c0,0.1,0,0.2-0.1,0.3c1-0.2,1.5-0.9,1.7-1.4
	c0.2-0.5,0.2-1.1-0.3-1.1C262.1,20.4,261.5,21.5,261.2,22.5z M267.9,26L267.9,26c0-0.1,0.7-1.1,0.9-2.1l1.3-4.8h-1.4l0.1-0.4
	c1.5-0.4,3-0.9,4.3-1.8l-1.8,6.9c-0.2,0.9-0.2,2-0.2,2l0,0H267.9z M275.3,26.1c-1.8,0-3.4-0.9-3-2.4c0.2-0.9,1.2-1.4,2.1-1.6
	c-0.7-0.5-1.2-1.4-0.8-2.7c0.4-1.3,1.7-2.2,3.5-2.2c1.7,0,3,0.8,2.6,2.2c-0.3,0.9-1.1,1.3-1.9,1.6c1.3,0.9,1.3,2,1.1,2.8
	C278.5,25.6,276.8,26.1,275.3,26.1z M277.3,20.7c0.3-0.3,0.6-0.7,0.7-1.2c0.2-0.9,0.1-1.6-0.9-1.6c-0.7,0-1.3,0.4-1.4,1.1
	C275.5,19.9,276.4,20.2,277.3,20.7z M275.2,25.6c0.8,0,1.3-0.5,1.4-1.1c0.2-0.8-0.6-1.4-1.6-2l-0.1,0c-0.4,0.4-0.7,0.9-0.8,1.3
	C273.9,24.7,274.3,25.6,275.2,25.6z M282.8,26.1c-2,0-3.3-1.8-2.5-4.8c0.6-2.3,2.4-4.1,4.6-4.1c0.8,0,1.9,0.2,2.8,0.6l-1,2.5h-0.1
	c-0.4-1.3-1-2.5-1.7-2.5c-0.7,0-1.2,1.2-1.8,3.4c0.5-0.3,1.2-0.6,1.9-0.6c1.6,0,2.2,1.2,1.8,2.5C286.2,24.9,284.6,26.1,282.8,26.1z
	 M282.7,25.6c0.5,0,1.1-0.8,1.3-1.8c0.3-1,0.3-2.3-0.5-2.3c-0.2,0-0.4,0.1-0.7,0.2C282.3,23.6,281.8,25.6,282.7,25.6z M291.9,17.2
	c2,0,3.3,1.8,2.5,4.8c-0.6,2.3-2.4,4.1-4.6,4.1c-0.8,0-1.9-0.2-2.8-0.6l1-2.5h0.1c0.4,1.3,1,2.5,1.7,2.5c0.7,0,1.2-1.2,1.8-3.4
	c-0.5,0.3-1.2,0.6-1.9,0.6c-1.6,0-2.2-1.2-1.8-2.5C288.5,18.5,290.1,17.2,291.9,17.2z M292,17.8c-0.5,0-1.1,0.8-1.3,1.8
	c-0.3,1-0.3,2.3,0.5,2.3c0.2,0,0.4-0.1,0.7-0.2C292.4,19.8,292.8,17.8,292,17.8z"/>
<path class="st0" d="M404.6,26.5c-2,0-3.3-1.8-2.5-4.8c0.6-2.3,2.4-4.1,4.6-4.1c0.8,0,1.9,0.2,2.8,0.6l-1,2.5h-0.1
	c-0.4-1.3-1-2.5-1.7-2.5c-0.7,0-1.2,1.2-1.8,3.4c0.5-0.3,1.2-0.6,1.9-0.6c1.6,0,2.2,1.2,1.8,2.5C408,25.3,406.4,26.5,404.6,26.5z
	 M404.5,26c0.5,0,1.1-0.8,1.3-1.8c0.3-1,0.3-2.3-0.5-2.3c-0.2,0-0.4,0.1-0.7,0.2C404.1,24,403.6,26,404.5,26z M410.7,26.4
	L410.7,26.4c0.4-0.5,1.2-1.6,2-2.9l2.4-3.9c0.5-0.8,0.3-1.7,0.3-1.7l0,0h2.5l0.6,6.5c0.1,0.9,0.2,1.6,0.4,2.1l0,0h-3.4l0,0
	c0-0.1,0.7-1.2,0.6-2.1l-0.1-0.8h-2.8l-0.2,0.4c-0.7,1.1-0.4,2.4-0.4,2.5l0,0.1H410.7z M413.7,22.9h2.3l-0.3-3.4L413.7,22.9z
	 M421.4,28.8c-0.7,0-2.8-0.1-2.3-1.4c0.1-0.2,0.2-0.5,0.5-0.7c-0.2-0.3-0.1-0.7-0.1-0.9c0.2-0.8,0.8-1.2,1.7-1.5
	c-0.6-0.3-1-1.2-0.8-2.1c0.4-1.5,2-1.9,3.2-1.9c0.4,0,0.9,0.1,1.3,0.3c0.5-0.8,1.3-1.5,2.3-1.3l-0.7,1.7l0,0
	c-0.3-0.2-0.7-0.3-1.3-0.2c0.5,0.3,0.7,1,0.5,1.8c-0.4,1.6-2.1,2-3.2,2c-0.3,0-0.6,0-0.9-0.1c-0.3,0.1-0.5,0.2-0.6,0.4
	c-0.1,0.2,0.2,0.3,0.6,0.3h1.8c1.2,0,1.9,0.9,1.6,2C424.6,28.5,423,28.8,421.4,28.8z M422.7,24c0.5,0,0.9-0.9,1.1-1.6
	c0.2-0.8,0.3-1.6-0.2-1.6c-0.5,0-0.8,0.9-1,1.6C422.3,23.1,422.2,24,422.7,24z M421.6,28.2c0.6,0,1.9-0.1,2-0.6
	c0.1-0.3-0.2-0.4-0.9-0.4H421c-0.3,0-0.5,0-0.7-0.1c0,0.3,0,0.5,0.1,0.7C420.6,28,421,28.2,421.6,28.2z M428.5,26.5
	c-1.6,0-2.8-1.1-2.2-3.3s2.3-3.1,3.9-3.1c1.5,0,2.8,1,2.2,3.2C431.7,25.5,430,26.6,428.5,26.5z M428.6,25.9c0.6,0,1-1.6,1.4-2.6
	c0.3-1.1,0.6-2.5,0-2.6c-0.6,0-1,1.5-1.3,2.5C428.3,24.3,428,25.9,428.6,25.9z M435.1,26.5c-0.8,0-1.7-0.2-2.6-0.6l0.6-2h0.1
	c0.6,0.8,1.3,1.9,2.2,1.9c0.4,0,0.5-0.2,0.6-0.4c0.1-0.5-0.4-0.9-1.1-1.4c-1-0.7-1.6-1.4-1.4-2.3c0.3-1.1,1.3-1.6,2.8-1.6
	c0.6,0,1.4,0.1,2.1,0.4l-0.4,1.9h-0.1c-0.5-0.8-1.2-1.7-2-1.7c-0.4,0-0.6,0.2-0.6,0.5c0,0.4,0.5,0.6,1.3,1.3
	c1.1,0.8,1.3,1.6,1.1,2.4C437.3,26,436.3,26.5,435.1,26.5z M440,26.5c-1,0-1.4-1-1.1-2.1l0.9-3.6h-0.8l0.2-0.6
	c1.4-0.7,2.6-1.5,3.6-2.2l0.1,0l-0.6,2.3h1.5l-0.2,0.6h-1.5l-1,3.7c-0.1,0.3,0,0.4,0.2,0.4c0.3,0,0.8-0.4,1.2-0.8l0.1,0
	C442.2,25.3,441.1,26.5,440,26.5z M445.6,26.5c-1.6,0-2.8-1.1-2.2-3.3s2.3-3.1,3.9-3.1c1.5,0,2.8,1,2.2,3.2
	C448.9,25.5,447.2,26.6,445.6,26.5z M445.8,25.9c0.6,0,1-1.6,1.4-2.6c0.3-1.1,0.6-2.5,0-2.6c-0.6,0-1,1.5-1.3,2.5
	C445.4,24.3,445.1,25.9,445.8,25.9z M451.8,26.4c3-3,4.8-5.4,5.3-7.2c0.1-0.3,0.2-1-0.4-1c-0.9,0-2.1,1.5-2.9,2.5h0l0.1-2.5
	c1.1-0.3,2.1-0.6,3.1-0.6c1.5,0,2.9,0.7,2.5,2.3c-0.2,0.8-0.9,1.8-2.5,2.9c-1.2,0.8-2,1.3-2.8,1.8h2.1c0.9,0,1.8-0.3,2.6-0.9l0,0
	l-1.1,2.7H451.8z M462.7,26.4c-2,0-3.3-1.7-2.5-4.8c0.6-2.2,2.6-3.9,4.6-3.9c2,0,3.3,1.7,2.5,4.8C466.7,24.7,464.7,26.4,462.7,26.4z
	 M462.7,25.8c1,0,1.6-2.4,2-3.8c0.4-1.4,1-3.8,0-3.8c-1,0-1.6,2.4-2,3.8C462.3,23.5,461.7,25.8,462.7,25.8z M467.7,26.4L467.7,26.4
	c0-0.1,0.7-1.1,0.9-2.1l1.3-4.8h-1.4l0.1-0.4c1.5-0.4,3-0.9,4.3-1.8l-1.8,6.9c-0.2,0.9-0.2,2-0.2,2l0,0H467.7z M474.2,26.5
	c-1.1,0-2.1-0.3-2.6-0.6l0.9-2.5h0.1c0.3,1.3,0.9,2.4,1.6,2.4c0.4,0,0.9-0.5,1.3-1.8c0.3-1.2,0.1-2.1-0.9-2.2
	c-0.4,0-1.1,0.1-1.8,0.4l1.7-4.6h3.2c0.9,0,1.6-0.2,2-0.3l-1.1,2.4h-4.2l-0.6,1.8c0.9-0.4,1.7-0.6,2.4-0.6c2,0,2.4,1.4,2,2.9
	C477.5,25.6,476.1,26.5,474.2,26.5z"/>
<path class="st0" d="M409.3,45.4c-1.2,0-1.9-0.9-1.9-1.8c0-1.4,1.5-2.1,3.3-1.8c0.2,0,0.3,0.1,0.5,0.1v-0.8c0-0.9-0.5-1.4-1.1-1.4
	c-0.8,0-1.9,1-2.3,1.4h0v-1.4c0.9-0.3,1.7-0.5,2.4-0.5c1.3,0,2.1,0.7,2.1,1.8v3c0,0.6,0.3,0.8,0.8,0.6l0,0c-0.1,0.4-0.5,0.6-0.9,0.6
	c-0.5,0-0.9-0.3-1-0.9C410.8,45,410.2,45.4,409.3,45.4z M408.5,43.5c0,0.7,0.6,1.2,1.3,1.2c0.5,0,0.9-0.3,1.3-0.7v-1.9
	c0,0-0.1,0-0.1,0C409.4,41.9,408.5,42.6,408.5,43.5z M415.2,45.3L415.2,45.3l-1.6,0v0c0.1-0.3,0.2-1,0.2-1.7V41
	c0-0.7-0.2-1.4-0.2-1.7v0h1.4v0.9c0.5-0.6,1-0.9,1.7-0.9c0.7,0,1.4,0.3,1.7,1.1c0.6-0.7,1.1-1.1,1.8-1.1c0.9,0,1.8,0.6,1.8,2.1v2.3
	c0,0.7,0.2,1.4,0.3,1.7v0h-1.6v0c0.1-0.3,0.2-1,0.2-1.7v-2.1c0-1-0.6-1.4-1.2-1.4c-0.4,0-0.8,0.2-1.2,0.6c0,0.2,0.1,0.4,0.1,0.7v2.3
	c0,0.7,0.2,1.4,0.3,1.7v0h-1.6v0c0.1-0.3,0.2-1,0.2-1.7v-2.1c0-1-0.6-1.4-1.2-1.4c-0.4,0-0.8,0.2-1.2,0.5v3
	C415,44.3,415.2,45,415.2,45.3z M426,45.4c-0.6,0-1.1-0.2-1.5-0.7V46c0,0.7,0.2,1.4,0.3,1.7v0h-1.6v0c0.1-0.3,0.3-1,0.3-1.7v-4.9
	c0-0.7-0.2-1.4-0.3-1.6l0,0l0.2,0l1.2-0.2v0.9c0.4-0.6,1.1-0.9,1.8-0.9c1.3,0,2.4,1.1,2.4,3C428.6,44.4,427.3,45.4,426,45.4z
	 M425.8,39.9c-0.5,0-0.9,0.3-1.3,0.7v3.6c0.3,0.3,0.7,0.5,1.2,0.5c1.1,0,1.7-1,1.7-2.5C427.4,41,426.9,39.9,425.8,39.9z M431.1,45.3
	L431.1,45.3l-1.6,0v0c0.1-0.3,0.3-1,0.3-1.7v-5.4c0-0.7-0.2-1.4-0.3-1.6l0,0l0.2,0l1.2-0.2v7.2C430.8,44.3,431,45,431.1,45.3z
	 M432.9,38c-0.4,0-0.8-0.3-0.8-0.8c0-0.4,0.4-0.8,0.8-0.8c0.4,0,0.8,0.3,0.8,0.8C433.7,37.6,433.3,38,432.9,38z M433.7,45.3
	L433.7,45.3l-1.6,0v0c0.1-0.3,0.2-1,0.2-1.7l0-2.6c0-0.7-0.2-1.4-0.2-1.7v0h1.4v4.3C433.5,44.3,433.7,45,433.7,45.3z M436.6,45.4
	c-1.2,0-1.9-0.9-1.9-1.8c0-1.4,1.5-2.1,3.3-1.8c0.2,0,0.3,0.1,0.5,0.1v-0.8c0-0.9-0.5-1.4-1.1-1.4c-0.8,0-1.9,1-2.3,1.4h0v-1.4
	c0.9-0.3,1.7-0.5,2.4-0.5c1.3,0,2.1,0.7,2.1,1.8v3c0,0.6,0.3,0.8,0.8,0.6l0,0c-0.1,0.4-0.5,0.6-0.9,0.6c-0.5,0-0.9-0.3-1-0.9
	C438.1,45,437.5,45.4,436.6,45.4z M435.9,43.5c0,0.7,0.6,1.2,1.3,1.2c0.5,0,0.9-0.3,1.3-0.7v-1.9c0,0-0.1,0-0.1,0
	C436.8,41.9,435.9,42.6,435.9,43.5z M442.6,45.3L442.6,45.3l-1.6,0v0c0.1-0.3,0.2-1,0.2-1.7V41c0-0.7-0.2-1.4-0.2-1.7v0h1.4v0.9
	c0.5-0.6,1-0.9,1.7-0.9c0.7,0,1.4,0.3,1.7,1.1c0.6-0.7,1.1-1.1,1.8-1.1c0.9,0,1.8,0.6,1.8,2.1v2.3c0,0.7,0.2,1.4,0.3,1.7v0h-1.6v0
	c0.1-0.3,0.2-1,0.2-1.7v-2.1c0-1-0.6-1.4-1.2-1.4c-0.4,0-0.8,0.2-1.2,0.6c0,0.2,0.1,0.4,0.1,0.7v2.3c0,0.7,0.2,1.4,0.3,1.7v0h-1.6v0
	c0.1-0.3,0.2-1,0.2-1.7v-2.1c0-1-0.6-1.4-1.2-1.4c-0.4,0-0.8,0.2-1.2,0.5v3C442.3,44.3,442.5,45,442.6,45.3z M453.2,45.4
	c-1.5,0-2.8-1.1-2.8-3.1c0-1.9,1.2-3.1,2.8-3.1c1.6,0,2.5,1.2,2.5,2.9h-4.1c0,1.4,0.7,2.5,2,2.5c0.7,0,1.3-0.3,2-0.9l0,0
	C455.3,44.7,454.4,45.4,453.2,45.4z M453.2,39.7c-1,0-1.5,1-1.5,2.1l2.9-0.2C454.5,40.5,454.1,39.7,453.2,39.7z M458.3,45.3
	L458.3,45.3l-1.6,0v0c0.1-0.3,0.2-1,0.2-1.7V41c0-0.7-0.2-1.4-0.2-1.7v0h1.4v1c0.5-0.7,1.2-1.1,2-1.1c1,0,1.9,0.6,1.9,2.1v2.3
	c0,0.7,0.2,1.4,0.3,1.7v0h-1.6v0c0.1-0.3,0.2-1,0.2-1.7v-2.1c0-1-0.6-1.4-1.3-1.4c-0.5,0-1,0.3-1.5,0.7v2.9
	C458,44.3,458.2,45,458.3,45.3z M464.9,45.4c-0.9,0-1.4-0.7-1.4-1.7v-4h-0.9v-0.3c1-0.3,1.5-1,1.9-1.8h0.1v1.7h1.7v0.4h-1.7l0,3.8
	c0,0.7,0.3,1,0.9,1c0.3,0,0.7-0.1,1.1-0.4C466.3,44.9,465.7,45.4,464.9,45.4z M469.8,45.4c-1.6,0-2.9-1.2-2.9-3.1c0-1.9,1.3-3,2.9-3
	c1.6,0,2.9,1.1,2.9,3C472.8,44.2,471.4,45.4,469.8,45.4z M469.8,45c1.1,0,1.7-1.2,1.7-2.7c0-1.4-0.6-2.6-1.7-2.6s-1.7,1.2-1.7,2.6
	C468.2,43.7,468.8,45,469.8,45z M419.4,58.3c-0.1-0.3-0.2-0.5-0.3-0.9c-0.5,0.7-1.2,1-1.9,1c-1.3,0-2.4-1.1-2.4-3
	c0-2.1,1.2-3.1,2.5-3.1c0.7,0,1.3,0.3,1.7,0.8v-1.9c0-0.7-0.2-1.3-0.3-1.6v0l0.3,0l1.2-0.2v7.2c0,0.7,0.2,1.4,0.2,1.7v0H419.4z
	 M416.1,55.3c0,1.3,0.5,2.4,1.6,2.4c0.6,0,1-0.3,1.4-0.8c0-0.1,0-0.2,0-0.2v-3.2c-0.3-0.4-0.8-0.6-1.3-0.6
	C416.8,52.9,416.1,53.9,416.1,55.3z M424.1,58.4c-1.5,0-2.8-1.1-2.8-3.1c0-1.9,1.2-3.1,2.8-3.1c1.6,0,2.5,1.2,2.5,2.9h-4.1
	c0,1.4,0.7,2.5,2,2.5c0.7,0,1.3-0.3,2-0.9l0,0C426.2,57.7,425.3,58.4,424.1,58.4z M424.1,52.7c-1,0-1.5,1-1.5,2.1l2.9-0.2
	C425.4,53.5,424.9,52.7,424.1,52.7z M429.1,58.3L429.1,58.3l-1.6,0v0c0.1-0.3,0.3-1,0.3-1.7v-5.4c0-0.7-0.2-1.4-0.3-1.6l0,0l0.2,0
	l1.2-0.2v7.2C428.8,57.3,429,58,429.1,58.3z M435.4,58.4c-1.5,0-2.8-1.1-2.8-3.1c0-1.9,1.2-3.1,2.8-3.1c0.8,0,1.5,0.3,2.1,0.6l0,1.4
	h0c-0.4-0.7-1.1-1.6-2-1.6c-1.1,0-1.6,1.1-1.6,2.4c0,1.5,0.7,2.5,2,2.5c0.5,0,1.2-0.2,1.9-0.8l0,0C437.4,57.8,436.6,58.4,435.4,58.4
	z M440.4,58.4c-1.2,0-1.9-0.9-1.9-1.8c0-1.4,1.5-2.1,3.3-1.8c0.2,0,0.3,0.1,0.5,0.1v-0.8c0-0.9-0.5-1.4-1.1-1.4
	c-0.8,0-1.9,1-2.3,1.4h0v-1.4c0.9-0.3,1.7-0.5,2.4-0.5c1.3,0,2.1,0.7,2.1,1.8v3c0,0.6,0.3,0.8,0.8,0.6l0,0c-0.1,0.4-0.5,0.6-0.9,0.6
	c-0.5,0-0.9-0.3-1-0.9C441.9,58,441.3,58.4,440.4,58.4z M439.7,56.5c0,0.7,0.6,1.2,1.3,1.2c0.5,0,0.9-0.3,1.3-0.7v-1.9
	c0,0-0.1,0-0.1,0C440.5,54.9,439.7,55.6,439.7,56.5z M446.4,58.3L446.4,58.3l-1.6,0v0c0.1-0.3,0.2-1,0.2-1.7V54
	c0-0.7-0.2-1.4-0.2-1.7v0h1.4v1c0.5-0.7,1.2-1.1,2-1.1c1,0,1.9,0.6,1.9,2.1v2.3c0,0.7,0.2,1.4,0.3,1.7v0h-1.6v0
	c0.1-0.3,0.2-1,0.2-1.7v-2.1c0-1-0.6-1.4-1.3-1.4c-0.5,0-1,0.3-1.5,0.7v2.9C446.1,57.3,446.3,58,446.4,58.3z M453,58.4
	c-1.2,0-1.9-0.9-1.9-1.8c0-1.4,1.5-2.1,3.3-1.8c0.2,0,0.3,0.1,0.5,0.1v-0.8c0-0.9-0.5-1.4-1.1-1.4c-0.8,0-1.9,1-2.3,1.4h0v-1.4
	c0.9-0.3,1.7-0.5,2.4-0.5c1.3,0,2.1,0.7,2.1,1.8v3c0,0.6,0.3,0.8,0.8,0.6l0,0c-0.1,0.4-0.5,0.6-0.9,0.6c-0.5,0-0.9-0.3-1-0.9
	C454.5,58,453.9,58.4,453,58.4z M452.3,56.5c0,0.7,0.6,1.2,1.3,1.2c0.5,0,0.9-0.3,1.3-0.7v-1.9c0,0-0.1,0-0.1,0
	C453.1,54.9,452.3,55.6,452.3,56.5z M459,58.3L459,58.3l-1.6,0v0c0.1-0.3,0.3-1,0.3-1.7v-5.4c0-0.7-0.2-1.4-0.3-1.6l0,0l0.2,0
	l1.2-0.2v7.2C458.7,57.3,458.9,58,459,58.3z M462.6,58.4c-1.5,0-2.8-1.1-2.8-3.1c0-1.9,1.2-3.1,2.8-3.1c1.6,0,2.5,1.2,2.5,2.9H461
	c0,1.4,0.7,2.5,2,2.5c0.7,0,1.3-0.3,2-0.9l0,0C464.7,57.7,463.8,58.4,462.6,58.4z M462.5,52.7c-1,0-1.5,1-1.5,2.1l2.9-0.2
	C463.9,53.5,463.4,52.7,462.5,52.7z"/>
<path class="st0" d="M181.4,38c-0.4,0-0.8-0.3-0.8-0.8c0-0.4,0.4-0.8,0.8-0.8c0.4,0,0.8,0.3,0.8,0.8C182.2,37.6,181.8,38,181.4,38z
	 M182.2,45.3L182.2,45.3l-1.6,0v0c0.1-0.3,0.2-1,0.2-1.7l0-2.6c0-0.7-0.2-1.4-0.2-1.7v0h1.4v4.3C182,44.3,182.2,45,182.2,45.3z
	 M184.9,45.3L184.9,45.3l-1.6,0v0c0.1-0.3,0.2-1,0.2-1.7V41c0-0.7-0.2-1.4-0.2-1.7v0h1.4v1c0.5-0.7,1.2-1.1,2-1.1
	c1,0,1.9,0.6,1.9,2.1v2.3c0,0.7,0.2,1.4,0.3,1.7v0h-1.6v0c0.1-0.3,0.2-1,0.2-1.7v-2.1c0-1-0.6-1.4-1.3-1.4c-0.5,0-1,0.3-1.5,0.7v2.9
	C184.7,44.3,184.8,45,184.9,45.3z M191.5,45.4c-1.2,0-1.9-0.9-1.9-1.8c0-1.4,1.5-2.1,3.3-1.8c0.2,0,0.3,0.1,0.5,0.1v-0.8
	c0-0.9-0.5-1.4-1.1-1.4c-0.8,0-1.9,1-2.3,1.4h0v-1.4c0.9-0.3,1.7-0.5,2.4-0.5c1.3,0,2.1,0.7,2.1,1.8v3c0,0.6,0.3,0.8,0.8,0.6l0,0
	c-0.1,0.4-0.5,0.6-0.9,0.6c-0.5,0-0.9-0.3-1-0.9C193,45,192.4,45.4,191.5,45.4z M190.8,43.5c0,0.7,0.6,1.2,1.3,1.2
	c0.5,0,0.9-0.3,1.3-0.7v-1.9c0,0-0.1,0-0.1,0C191.7,41.9,190.8,42.6,190.8,43.5z M197.8,45.4c-1,0-2-0.6-2-2V41
	c0-0.7-0.2-1.4-0.2-1.7v0h1.4v3.9c0,1,0.6,1.4,1.3,1.4c0.5,0,1-0.3,1.5-0.7c0-0.1,0-0.3,0-0.4V41c0-0.7-0.2-1.4-0.3-1.7v0h1.4v4.3
	c0,0.7,0.2,1.4,0.2,1.7v0H200c0-0.2-0.1-0.6-0.2-1C199.2,45,198.6,45.4,197.8,45.4z M204.4,43.5c-0.4,0-0.7-0.1-1.1-0.2
	c-0.3,0.1-0.5,0.3-0.5,0.6c0,0.4,0.5,0.5,0.9,0.5h2c1.1,0,1.8,0.6,1.8,1.6c0,1.6-1.8,1.8-2.9,1.8c-1,0-2.6-0.2-2.6-1.4
	c0-0.4,0.2-0.8,0.6-1.1c-0.3-0.2-0.5-0.5-0.5-0.9c0-0.6,0.4-1,1-1.2c-0.6-0.3-1-0.9-1-1.7c0-1.3,1.2-2.1,2.4-2.1
	c0.5,0,0.9,0.1,1.3,0.3c0.3-0.6,0.9-0.9,1.7-0.8l-0.2,1l0,0c-0.4-0.2-0.8-0.3-1.3-0.1c0.5,0.4,0.9,0.9,0.9,1.6
	C206.8,42.7,205.6,43.5,204.4,43.5z M204.4,43.1c0.7,0,1.3-0.7,1.3-1.7c0-1-0.5-1.7-1.3-1.7c-0.8,0-1.3,0.7-1.3,1.7
	C203.1,42.4,203.6,43.1,204.4,43.1z M202.7,45.9c0,0.8,0.7,1.4,2,1.4c1.2,0,1.9-0.5,1.9-1.1c0-0.4-0.3-0.8-0.9-0.8h-2
	c-0.3,0-0.6,0-0.8-0.1C202.7,45.5,202.7,45.7,202.7,45.9z M210.2,45.4c-1,0-2-0.6-2-2V41c0-0.7-0.2-1.4-0.2-1.7v0h1.4v3.9
	c0,1,0.6,1.4,1.3,1.4c0.5,0,1-0.3,1.5-0.7c0-0.1,0-0.3,0-0.4V41c0-0.7-0.2-1.4-0.3-1.7v0h1.4v4.3c0,0.7,0.2,1.4,0.2,1.7v0h-1.2
	c0-0.2-0.1-0.6-0.2-1C211.6,45,211,45.4,210.2,45.4z M216.1,45.3L216.1,45.3l-1.6,0v0c0.1-0.3,0.2-1,0.2-1.7V41
	c0-0.7-0.2-1.4-0.2-1.7v0h1.4v1c0.5-0.8,1.4-1.3,2.4-1l-0.2,1.3h0c-0.6-0.5-1.5-0.7-2.2,0v2.9C215.8,44.3,216,45,216.1,45.3z
	 M220.7,45.4c-1.2,0-1.9-0.9-1.9-1.8c0-1.4,1.5-2.1,3.3-1.8c0.2,0,0.3,0.1,0.5,0.1v-0.8c0-0.9-0.5-1.4-1.1-1.4c-0.8,0-1.9,1-2.3,1.4
	h0v-1.4c0.9-0.3,1.7-0.5,2.4-0.5c1.3,0,2.1,0.7,2.1,1.8v3c0,0.6,0.3,0.8,0.8,0.6l0,0c-0.1,0.4-0.5,0.6-0.9,0.6c-0.5,0-0.9-0.3-1-0.9
	C222.2,45,221.6,45.4,220.7,45.4z M220,43.5c0,0.7,0.6,1.2,1.3,1.2c0.5,0,0.9-0.3,1.3-0.7v-1.9c0,0-0.1,0-0.1,0
	C220.9,41.9,220,42.6,220,43.5z M226.9,45.4c-0.9,0-1.4-0.7-1.4-1.7v-4h-0.9v-0.3c1-0.3,1.5-1,1.9-1.8h0.1v1.7h1.7v0.4h-1.7l0,3.8
	c0,0.7,0.3,1,0.9,1c0.3,0,0.7-0.1,1.1-0.4C228.2,44.9,227.6,45.4,226.9,45.4z M231.7,45.4c-1.6,0-2.9-1.2-2.9-3.1c0-1.9,1.3-3,2.9-3
	c1.6,0,2.9,1.1,2.9,3C234.7,44.2,233.3,45.4,231.7,45.4z M231.7,45c1.1,0,1.7-1.2,1.7-2.7c0-1.4-0.6-2.6-1.7-2.6s-1.7,1.2-1.7,2.6
	C230.1,43.7,230.7,45,231.7,45z M242.6,45.3c-0.1-0.3-0.2-0.5-0.3-0.9c-0.5,0.7-1.2,1-1.9,1c-1.3,0-2.4-1.1-2.4-3
	c0-2.1,1.2-3.1,2.5-3.1c0.7,0,1.3,0.3,1.7,0.8v-1.9c0-0.7-0.2-1.3-0.3-1.6v0l0.3,0l1.2-0.2v7.2c0,0.7,0.2,1.4,0.2,1.7v0H242.6z
	 M239.4,42.3c0,1.3,0.5,2.4,1.6,2.4c0.6,0,1-0.3,1.4-0.8c0-0.1,0-0.2,0-0.2v-3.2c-0.3-0.4-0.8-0.6-1.3-0.6
	C240,39.9,239.4,40.9,239.4,42.3z M246.3,45.4c-1.2,0-1.9-0.9-1.9-1.8c0-1.4,1.5-2.1,3.3-1.8c0.2,0,0.3,0.1,0.5,0.1v-0.8
	c0-0.9-0.5-1.4-1.1-1.4c-0.8,0-1.9,1-2.3,1.4h0v-1.4c0.9-0.3,1.7-0.5,2.4-0.5c1.3,0,2.1,0.7,2.1,1.8v3c0,0.6,0.3,0.8,0.8,0.6l0,0
	c-0.1,0.4-0.5,0.6-0.9,0.6c-0.5,0-0.9-0.3-1-0.9C247.8,45,247.2,45.4,246.3,45.4z M245.6,43.5c0,0.7,0.6,1.2,1.3,1.2
	c0.5,0,0.9-0.3,1.3-0.7v-1.9c0,0-0.1,0-0.1,0C246.5,41.9,245.6,42.6,245.6,43.5z M252.3,45.3L252.3,45.3l-1.6,0v0
	c0.1-0.3,0.3-1,0.3-1.7v-5.4c0-0.7-0.2-1.4-0.3-1.6l0,0l0.2,0l1.2-0.2v7.2C252.1,44.3,252.3,45,252.3,45.3z M254.9,45.3L254.9,45.3
	l-1.6,0v0c0.1-0.3,0.3-1,0.3-1.7v-5.4c0-0.7-0.2-1.4-0.3-1.6l0,0l0.2,0l1.2-0.2v7.2C254.7,44.3,254.8,45,254.9,45.3z M255.9,39.3
	c0.7-0.4,0.9-1,0.9-1.2c0,0-0.1,0-0.1,0c-0.5,0-0.9-0.3-0.9-0.8c0-0.4,0.4-0.8,0.8-0.8c0.5,0,0.9,0.4,0.9,1.1c0,0.7-0.6,1.4-1.3,1.7
	H255.9z M259.4,38c-0.4,0-0.8-0.3-0.8-0.8c0-0.4,0.4-0.8,0.8-0.8c0.4,0,0.8,0.3,0.8,0.8C260.2,37.6,259.9,38,259.4,38z M260.3,45.3
	L260.3,45.3l-1.6,0v0c0.1-0.3,0.2-1,0.2-1.7l0-2.6c0-0.7-0.2-1.4-0.2-1.7v0h1.4v4.3C260,44.3,260.2,45,260.3,45.3z M262.9,45.3
	L262.9,45.3l-1.6,0v0c0.1-0.3,0.2-1,0.2-1.7V41c0-0.7-0.2-1.4-0.2-1.7v0h1.4v1c0.5-0.7,1.2-1.1,2-1.1c1,0,1.9,0.6,1.9,2.1v2.3
	c0,0.7,0.2,1.4,0.3,1.7v0h-1.6v0c0.1-0.3,0.2-1,0.2-1.7v-2.1c0-1-0.6-1.4-1.3-1.4c-0.5,0-1,0.3-1.5,0.7v2.9
	C262.7,44.3,262.9,45,262.9,45.3z M270.1,43.5c-0.4,0-0.7-0.1-1.1-0.2c-0.3,0.1-0.5,0.3-0.5,0.6c0,0.4,0.5,0.5,0.9,0.5h2
	c1.1,0,1.8,0.6,1.8,1.6c0,1.6-1.8,1.8-2.9,1.8c-1,0-2.6-0.2-2.6-1.4c0-0.4,0.2-0.8,0.6-1.1c-0.3-0.2-0.5-0.5-0.5-0.9
	c0-0.6,0.4-1,1-1.2c-0.6-0.3-1-0.9-1-1.7c0-1.3,1.2-2.1,2.4-2.1c0.5,0,0.9,0.1,1.3,0.3c0.3-0.6,0.9-0.9,1.7-0.8l-0.2,1l0,0
	c-0.4-0.2-0.8-0.3-1.3-0.1c0.5,0.4,0.9,0.9,0.9,1.6C272.5,42.7,271.3,43.5,270.1,43.5z M270.1,43.1c0.7,0,1.3-0.7,1.3-1.7
	c0-1-0.5-1.7-1.3-1.7c-0.8,0-1.3,0.7-1.3,1.7C268.8,42.4,269.4,43.1,270.1,43.1z M268.4,45.9c0,0.8,0.7,1.4,2,1.4
	c1.2,0,1.9-0.5,1.9-1.1c0-0.4-0.3-0.8-0.9-0.8h-2c-0.3,0-0.6,0-0.8-0.1C268.4,45.5,268.4,45.7,268.4,45.9z M276.3,45.4
	c-1.5,0-2.8-1.1-2.8-3.1c0-1.9,1.2-3.1,2.8-3.1c1.6,0,2.5,1.2,2.5,2.9h-4.1c0,1.4,0.7,2.5,2,2.5c0.7,0,1.3-0.3,2-0.9l0,0
	C278.4,44.7,277.5,45.4,276.3,45.4z M276.2,39.7c-1,0-1.5,1-1.5,2.1l2.9-0.2C277.6,40.5,277.1,39.7,276.2,39.7z M282,43.5
	c-0.4,0-0.7-0.1-1.1-0.2c-0.3,0.1-0.5,0.3-0.5,0.6c0,0.4,0.5,0.5,0.9,0.5h2c1.1,0,1.8,0.6,1.8,1.6c0,1.6-1.8,1.8-2.9,1.8
	c-1,0-2.6-0.2-2.6-1.4c0-0.4,0.2-0.8,0.6-1.1c-0.3-0.2-0.5-0.5-0.5-0.9c0-0.6,0.4-1,1-1.2c-0.6-0.3-1-0.9-1-1.7
	c0-1.3,1.2-2.1,2.4-2.1c0.5,0,0.9,0.1,1.3,0.3c0.3-0.6,0.9-0.9,1.7-0.8l-0.2,1l0,0c-0.4-0.2-0.8-0.3-1.3-0.1
	c0.5,0.4,0.9,0.9,0.9,1.6C284.4,42.7,283.2,43.5,282,43.5z M282,43.1c0.7,0,1.3-0.7,1.3-1.7c0-1-0.5-1.7-1.3-1.7
	c-0.8,0-1.3,0.7-1.3,1.7C280.8,42.4,281.3,43.1,282,43.1z M280.3,45.9c0,0.8,0.7,1.4,2,1.4c1.2,0,1.9-0.5,1.9-1.1
	c0-0.4-0.3-0.8-0.9-0.8h-2c-0.3,0-0.6,0-0.8-0.1C280.4,45.5,280.3,45.7,280.3,45.9z M287.4,45.3L287.4,45.3l-1.6,0v0
	c0.1-0.3,0.2-1,0.2-1.7V41c0-0.7-0.2-1.4-0.2-1.7v0h1.4v1c0.5-0.7,1.2-1.1,2-1.1c1,0,1.9,0.6,1.9,2.1v2.3c0,0.7,0.2,1.4,0.3,1.7v0
	h-1.6v0c0.1-0.3,0.2-1,0.2-1.7v-2.1c0-1-0.6-1.4-1.3-1.4c-0.5,0-1,0.3-1.5,0.7v2.9C287.2,44.3,287.4,45,287.4,45.3z M294.9,45.4
	c-1.5,0-2.8-1.1-2.8-3.1c0-1.9,1.2-3.1,2.8-3.1c1.6,0,2.5,1.2,2.5,2.9h-4.1c0,1.4,0.7,2.5,2,2.5c0.7,0,1.3-0.3,2-0.9l0,0
	C297,44.7,296.1,45.4,294.9,45.4z M294.9,39.7c-1,0-1.5,1-1.5,2.1l2.9-0.2C296.2,40.5,295.8,39.7,294.9,39.7z M299.9,45.3
	L299.9,45.3l-1.6,0v0c0.1-0.3,0.2-1,0.2-1.7V41c0-0.7-0.2-1.4-0.2-1.7v0h1.4v1c0.5-0.8,1.4-1.3,2.4-1l-0.2,1.3h0
	c-0.6-0.5-1.5-0.7-2.2,0v2.9C299.7,44.3,299.8,45,299.9,45.3z M305.2,45.4c-1.5,0-2.8-1.1-2.8-3.1c0-1.9,1.2-3.1,2.8-3.1
	c1.6,0,2.5,1.2,2.5,2.9h-4.1c0,1.4,0.7,2.5,2,2.5c0.7,0,1.3-0.3,2-0.9l0,0C307.3,44.7,306.4,45.4,305.2,45.4z M305.2,39.7
	c-1,0-1.5,1-1.5,2.1l2.9-0.2C306.5,40.5,306.1,39.7,305.2,39.7z M205.9,51c-0.4,0-0.8-0.3-0.8-0.8c0-0.4,0.4-0.8,0.8-0.8
	c0.4,0,0.8,0.3,0.8,0.8C206.7,50.6,206.4,51,205.9,51z M206.8,58.3L206.8,58.3l-1.6,0v0c0.1-0.3,0.2-1,0.2-1.7l0-2.6
	c0-0.7-0.2-1.4-0.2-1.7v0h1.4v4.3C206.6,57.3,206.7,58,206.8,58.3z M209.8,58.4c-0.9,0-1.4-0.7-1.4-1.7v-4h-0.9v-0.3
	c1-0.3,1.5-1,1.9-1.8h0.1v1.7h1.7v0.4h-1.7l0,3.8c0,0.7,0.3,1,0.9,1c0.3,0,0.7-0.1,1.1-0.4C211.2,57.9,210.6,58.4,209.8,58.4z
	 M214,58.4c-1.2,0-1.9-0.9-1.9-1.8c0-1.4,1.5-2.1,3.3-1.8c0.2,0,0.3,0.1,0.5,0.1v-0.8c0-0.9-0.5-1.4-1.1-1.4c-0.8,0-1.9,1-2.3,1.4h0
	v-1.4c0.9-0.3,1.7-0.5,2.4-0.5c1.3,0,2.1,0.7,2.1,1.8v3c0,0.6,0.3,0.8,0.8,0.6l0,0c-0.1,0.4-0.5,0.6-0.9,0.6c-0.5,0-0.9-0.3-1-0.9
	C215.5,58,214.9,58.4,214,58.4z M213.3,56.5c0,0.7,0.6,1.2,1.3,1.2c0.5,0,0.9-0.3,1.3-0.7v-1.9c0,0-0.1,0-0.1,0
	C214.1,54.9,213.3,55.6,213.3,56.5z M220,58.3L220,58.3l-1.6,0v0c0.1-0.3,0.3-1,0.3-1.7v-5.4c0-0.7-0.2-1.4-0.3-1.6l0,0l0.2,0
	l1.2-0.2v7.2C219.7,57.3,219.9,58,220,58.3z M221.8,51c-0.4,0-0.8-0.3-0.8-0.8c0-0.4,0.4-0.8,0.8-0.8c0.4,0,0.8,0.3,0.8,0.8
	C222.6,50.6,222.2,51,221.8,51z M222.6,58.3L222.6,58.3l-1.6,0v0c0.1-0.3,0.2-1,0.2-1.7l0-2.6c0-0.7-0.2-1.4-0.2-1.7v0h1.4v4.3
	C222.4,57.3,222.6,58,222.6,58.3z M225.5,58.4c-1.2,0-1.9-0.9-1.9-1.8c0-1.4,1.5-2.1,3.3-1.8c0.2,0,0.3,0.1,0.5,0.1v-0.8
	c0-0.9-0.5-1.4-1.1-1.4c-0.8,0-1.9,1-2.3,1.4h0v-1.4c0.9-0.3,1.7-0.5,2.4-0.5c1.3,0,2.1,0.7,2.1,1.8v3c0,0.6,0.3,0.8,0.8,0.6l0,0
	c-0.1,0.4-0.5,0.6-0.9,0.6c-0.5,0-0.9-0.3-1-0.9C227,58,226.4,58.4,225.5,58.4z M224.8,56.5c0,0.7,0.6,1.2,1.3,1.2
	c0.5,0,0.9-0.3,1.3-0.7v-1.9c0,0-0.1,0-0.1,0C225.7,54.9,224.8,55.6,224.8,56.5z M231.5,58.3L231.5,58.3l-1.6,0v0
	c0.1-0.3,0.2-1,0.2-1.7V54c0-0.7-0.2-1.4-0.2-1.7v0h1.4v1c0.5-0.7,1.2-1.1,2-1.1c1,0,1.9,0.6,1.9,2.1v2.3c0,0.7,0.2,1.4,0.3,1.7v0
	h-1.6v0c0.1-0.3,0.2-1,0.2-1.7v-2.1c0-1-0.6-1.4-1.3-1.4c-0.5,0-1,0.3-1.5,0.7v2.9C231.3,57.3,231.4,58,231.5,58.3z M239.1,58.4
	c-1.6,0-2.9-1.2-2.9-3.1c0-1.9,1.3-3,2.9-3c1.6,0,2.9,1.1,2.9,3C242,57.2,240.7,58.4,239.1,58.4z M239.1,58c1.1,0,1.7-1.2,1.7-2.7
	c0-1.4-0.6-2.6-1.7-2.6s-1.7,1.2-1.7,2.6S238,58,239.1,58z M251.6,58.3l-5-7.3v5c0,1,0.3,1.9,0.5,2.3v0.1h-1.4v-0.1
	c0.1-0.4,0.5-1.3,0.5-2.3v-4.3c0-0.8-0.3-1.6-0.4-2v0h1.5l4.7,6.9V52c0-1-0.4-1.9-0.5-2.3v-0.1h1.4v0.1c-0.1,0.4-0.5,1.3-0.5,2.3
	v6.3H251.6z M256.3,58.4c-1.5,0-2.8-1.1-2.8-3.1c0-1.9,1.2-3.1,2.8-3.1c1.6,0,2.5,1.2,2.5,2.9h-4.1c0,1.4,0.7,2.5,2,2.5
	c0.7,0,1.3-0.3,2-0.9l0,0C258.4,57.7,257.5,58.4,256.3,58.4z M256.3,52.7c-1,0-1.5,1-1.5,2.1l2.9-0.2
	C257.6,53.5,257.1,52.7,256.3,52.7z M262,56.5c-0.4,0-0.7-0.1-1.1-0.2c-0.3,0.1-0.5,0.3-0.5,0.6c0,0.4,0.5,0.5,0.9,0.5h2
	c1.1,0,1.8,0.6,1.8,1.6c0,1.6-1.8,1.8-2.9,1.8c-1,0-2.6-0.2-2.6-1.4c0-0.4,0.2-0.8,0.6-1.1c-0.3-0.2-0.5-0.5-0.5-0.9
	c0-0.6,0.4-1,1-1.2c-0.6-0.3-1-0.9-1-1.7c0-1.3,1.2-2.1,2.4-2.1c0.5,0,0.9,0.1,1.3,0.3c0.3-0.6,0.9-0.9,1.7-0.8l-0.2,1l0,0
	c-0.4-0.2-0.8-0.3-1.3-0.1c0.5,0.4,0.9,0.9,0.9,1.6C264.5,55.7,263.2,56.5,262,56.5z M262,56.1c0.7,0,1.3-0.7,1.3-1.7
	c0-1-0.5-1.7-1.3-1.7c-0.8,0-1.3,0.7-1.3,1.7C260.8,55.4,261.3,56.1,262,56.1z M260.3,58.9c0,0.8,0.7,1.4,2,1.4
	c1.2,0,1.9-0.5,1.9-1.1c0-0.4-0.3-0.8-0.9-0.8h-2c-0.3,0-0.6,0-0.8-0.1C260.4,58.5,260.3,58.7,260.3,58.9z M267.4,58.3L267.4,58.3
	l-1.6,0v0c0.1-0.3,0.2-1,0.2-1.7V54c0-0.7-0.2-1.4-0.2-1.7v0h1.4v1c0.5-0.8,1.4-1.3,2.4-1l-0.2,1.3h0c-0.6-0.5-1.5-0.7-2.2,0v2.9
	C267.2,57.3,267.4,58,267.4,58.3z M272.8,58.4c-1.5,0-2.8-1.1-2.8-3.1c0-1.9,1.2-3.1,2.8-3.1c1.6,0,2.5,1.2,2.5,2.9h-4.1
	c0,1.4,0.7,2.5,2,2.5c0.7,0,1.3-0.3,2-0.9l0,0C274.9,57.7,274,58.4,272.8,58.4z M272.7,52.7c-1,0-1.5,1-1.5,2.1l2.9-0.2
	C274.1,53.5,273.6,52.7,272.7,52.7z M277.8,58.3L277.8,58.3l-1.6,0v0c0.1-0.3,0.3-1,0.3-1.7v-5.4c0-0.7-0.2-1.4-0.3-1.6l0,0l0.2,0
	l1.2-0.2v7.2C277.5,57.3,277.7,58,277.8,58.3z M280.4,58.3L280.4,58.3l-1.6,0v0c0.1-0.3,0.3-1,0.3-1.7v-5.4c0-0.7-0.2-1.4-0.3-1.6
	l0,0l0.2,0l1.2-0.2v7.2C280.1,57.3,280.3,58,280.4,58.3z M282.2,51c-0.4,0-0.8-0.3-0.8-0.8c0-0.4,0.4-0.8,0.8-0.8
	c0.4,0,0.8,0.3,0.8,0.8C283,50.6,282.6,51,282.2,51z M283,58.3L283,58.3l-1.6,0v0c0.1-0.3,0.2-1,0.2-1.7l0-2.6
	c0-0.7-0.2-1.4-0.2-1.7v0h1.4v4.3C282.8,57.3,283,58,283,58.3z"/>
<circle class="st1" cx="52.4" cy="5.2" r="4.6"/>
<circle class="st1" cx="244.4" cy="5.2" r="4.6"/>
<path class="st2" d="M50.6,5.2h391.2"/>
<circle class="st1" cx="439.4" cy="5.2" r="4.6"/>
</svg>
