<?xml version="1.0" encoding="utf-8"?>
<!-- Generator: Adobe Illustrator 26.0.1, SVG Export Plug-In . SVG Version: 6.00 Build 0)  -->
<svg version="1.1" id="Livello_1" xmlns="http://www.w3.org/2000/svg" xmlns:xlink="http://www.w3.org/1999/xlink" x="0px" y="0px"
	 viewBox="0 0 511.3 49" style="enable-background:new 0 0 511.3 49;" xml:space="preserve">
<style type="text/css">
	.st0{fill:#FFFFFF;}
	.st1{fill:#FEFEFE;}
	.st2{font-family:'LarkenDEMO-Medium';}
	.st3{font-size:16.0175px;}
	.st4{font-family:'MyriadPro-Regular';}
</style>
<g>
	<path class="st0" d="M444.5,21.5c-0.1-0.4-0.3-0.7-0.4-1.2c-0.7,1-1.6,1.4-2.5,1.4c-1.7,0-3.2-1.4-3.2-4c0-2.8,1.6-4.1,3.4-4.1
		c0.9,0,1.7,0.4,2.2,1.1V12c0-0.9-0.3-1.8-0.5-2.1V9.8h0.4l1.6-0.2v9.6c0,0.9,0.2,1.8,0.3,2.2l0,0L444.5,21.5L444.5,21.5z
		 M440.1,17.5c0,1.7,0.6,3.3,2.1,3.3c0.8,0,1.3-0.4,1.9-1.1c0-0.1,0-0.2,0-0.3v-4.2c-0.4-0.5-1-0.8-1.7-0.8
		C441,14.3,440.1,15.6,440.1,17.5z M450.7,21.6c-2,0-3.7-1.5-3.7-4.1c0-2.5,1.6-4.1,3.7-4.1s3.4,1.6,3.4,3.8h-5.5
		c0.1,1.9,1,3.3,2.7,3.3c0.9,0,1.7-0.3,2.7-1.2l0,0C453.5,20.6,452.3,21.6,450.7,21.6z M450.7,13.9c-1.3,0-2,1.3-2,2.9l3.9-0.2
		C452.5,15.1,451.9,13.9,450.7,13.9z M457.4,21.4L457.4,21.4h-2.2l0,0c0.1-0.4,0.3-1.3,0.3-2.2V12c0-0.9-0.2-1.8-0.4-2.2l0,0h0.3
		l1.6-0.2v9.6C457.1,20.1,457.3,21,457.4,21.4z M465,21.6c-1.2,0-1.9-0.9-1.9-2.2v-5.3h-1.2v-0.4c1.4-0.4,2-1.3,2.5-2.4h0.2v2.3h2.2
		v0.6h-2.2v5.1c0,0.9,0.4,1.4,1.2,1.4c0.4,0,0.9-0.1,1.5-0.5C466.8,20.9,466,21.6,465,21.6z M470.2,21.4L470.2,21.4h-2.1l0,0
		c0.1-0.4,0.3-1.3,0.3-2.2v-3.4c0-0.9-0.2-1.8-0.3-2.2v-0.1h1.8v1.3c0.6-1.1,1.8-1.8,3.2-1.3l-0.2,1.7l0,0c-0.8-0.6-2-0.9-2.9,0.1
		v3.9C469.8,20.1,470.1,21,470.2,21.4z M476.4,21.6c-1.6,0-2.6-1.1-2.6-2.4c0-1.8,2-2.9,4.4-2.5c0.2,0,0.5,0.1,0.6,0.1v-1
		c0-1.2-0.6-1.9-1.4-1.9c-1,0-2.6,1.3-3,1.9l0,0V14c1.1-0.4,2.3-0.7,3.1-0.7c1.8,0,2.9,0.9,2.9,2.4v4c0,0.8,0.4,1,1,0.8l0,0
		c-0.2,0.5-0.6,0.8-1.2,0.8c-0.7,0-1.2-0.4-1.3-1.1C478.4,21,477.6,21.6,476.4,21.6z M475.5,19.1c0,1,0.8,1.7,1.7,1.7
		c0.6,0,1.2-0.3,1.7-0.9v-2.5c0,0-0.1,0-0.2,0C476.6,16.9,475.5,17.9,475.5,19.1z M481.6,14.1v-0.6h1.3v-0.7c0-2.4,1.1-3.2,2.5-3.2
		c0.7,0,1.4,0.2,2.1,0.5v1.5h-0.1c-0.7-0.8-1.4-1.4-2-1.4c-0.8,0-1,0.9-1,2.6v0.8h2.6v0.6h-2.6v5.1c0,0.9,0.2,1.8,0.3,2.2l0,0h-2.2
		l0,0c0.1-0.4,0.3-1.3,0.3-2.2v-5.1h-1.2V14.1z M487.5,14.1v-0.6h1.3v-0.8c0-2.4,1.3-3.1,2.6-3.1c0.7,0,1.4,0.2,2.2,0.5v1.4h-0.1
		c-0.7-0.8-1.3-1.4-1.9-1.4c-0.8,0-1.4,0.8-1.4,2.5v0.8h4.1v5.7c0,0.9,0.2,1.8,0.3,2.2l0,0h-2.2l0,0c0.1-0.4,0.3-1.3,0.3-2.2v-3.4
		c0-0.6-0.1-1.2-0.2-1.7h-2.4v5.1c0,0.9,0.2,1.8,0.3,2.2l0,0h-2.2l0,0c0.1-0.4,0.3-1.3,0.3-2.2V14h-1V14.1z M499.6,21.6
		c-2,0-3.7-1.5-3.7-4.1s1.6-4.1,3.8-4.1c1.1,0,2.1,0.4,2.8,0.8v1.9h-0.1c-0.5-0.9-1.4-2.1-2.7-2.1c-1.4,0-2.2,1.5-2.2,3.2
		c0,2,1,3.4,2.7,3.4c0.7,0,1.6-0.2,2.5-1.1l0,0C502.2,20.7,501,21.6,499.6,21.6z M507.4,21.6c-2.1,0-3.9-1.6-3.9-4.1
		c0-2.6,1.7-4.1,3.9-4.1c2.1,0,3.9,1.5,3.9,4.1C511.3,20,509.6,21.6,507.4,21.6z M507.4,21c1.4,0,2.2-1.6,2.2-3.6
		c0-1.9-0.8-3.5-2.2-3.5c-1.4,0-2.2,1.6-2.2,3.5C505.2,19.4,506,21,507.4,21z M440.8,39.4L440.8,39.4h-2.1l0,0
		c0.1-0.4,0.3-1.3,0.3-2.2v-3.4c0-0.9-0.2-1.8-0.3-2.2v-0.1h1.8v1.2c0.7-0.8,1.4-1.2,2.3-1.2s1.8,0.4,2.2,1.5c0.7-1,1.5-1.5,2.5-1.5
		c1.2,0,2.4,0.8,2.4,2.7v3c0,0.9,0.2,1.8,0.3,2.2l0,0h-2.1l0,0c0.1-0.4,0.3-1.3,0.3-2.2v-2.9c0-1.3-0.8-1.9-1.7-1.9
		c-0.6,0-1.1,0.3-1.6,0.8c0.1,0.3,0.1,0.6,0.1,0.9v3c0,0.9,0.2,1.8,0.3,2.2l0,0h-2.1l0,0c0.1-0.4,0.3-1.3,0.3-2.2v-2.9
		c0-1.3-0.8-1.9-1.7-1.9c-0.5,0-1.1,0.2-1.6,0.7v4C440.5,38.1,440.7,39,440.8,39.4z M455,39.6c-2,0-3.7-1.5-3.7-4.1
		c0-2.5,1.6-4.1,3.7-4.1s3.4,1.6,3.4,3.8h-5.5c0.1,1.9,1,3.3,2.7,3.3c0.9,0,1.7-0.3,2.7-1.2l0,0C457.8,38.6,456.6,39.6,455,39.6z
		 M454.9,31.9c-1.3,0-2,1.3-2,2.9l3.9-0.2C456.7,33.1,456.1,31.9,454.9,31.9z M461.7,39.4L461.7,39.4h-2.1l0,0
		c0.1-0.4,0.3-1.3,0.3-2.2v-3.4c0-0.9-0.2-1.8-0.3-2.2v-0.1h1.8v1.3c0.6-1.1,1.8-1.8,3.2-1.3l-0.2,1.7l0,0c-0.8-0.6-2-0.9-2.9,0.1
		v3.9C461.3,38.1,461.6,39,461.7,39.4z M468.8,39.6c-2,0-3.7-1.5-3.7-4.1s1.6-4.1,3.8-4.1c1.1,0,2.1,0.4,2.8,0.8v1.9h-0.1
		c-0.5-0.9-1.4-2.1-2.7-2.1c-1.4,0-2.2,1.5-2.2,3.2c0,2,1,3.4,2.7,3.4c0.7,0,1.6-0.2,2.5-1.1l0,0C471.4,38.7,470.2,39.6,468.8,39.6z
		 M475.4,39.6c-1.6,0-2.6-1.1-2.6-2.4c0-1.8,2-2.9,4.4-2.5c0.2,0,0.5,0.1,0.6,0.1v-1c0-1.2-0.6-1.9-1.4-1.9c-1,0-2.6,1.3-3,1.9l0,0
		V32c1.1-0.4,2.3-0.7,3.1-0.7c1.8,0,2.9,0.9,2.9,2.4v4c0,0.8,0.4,1,1,0.8l0,0c-0.2,0.5-0.6,0.8-1.2,0.8c-0.7,0-1.2-0.4-1.3-1.1
		C477.4,39,476.6,39.6,475.4,39.6z M474.4,37.1c0,1,0.8,1.7,1.7,1.7c0.6,0,1.2-0.3,1.7-0.9v-2.5c0,0-0.1,0-0.2,0
		C475.6,34.9,474.4,35.9,474.4,37.1z M483.3,39.4L483.3,39.4h-2.1l0,0c0.1-0.4,0.3-1.3,0.3-2.2v-3.4c0-0.9-0.2-1.8-0.3-2.2v-0.1h1.8
		v1.4c0.7-0.9,1.6-1.5,2.6-1.5c1.3,0,2.6,0.8,2.6,2.7v3c0,0.9,0.2,1.8,0.3,2.2l0,0h-2.2l0,0c0.1-0.4,0.3-1.3,0.3-2.2v-2.9
		c0-1.3-0.8-1.9-1.7-1.9c-0.7,0-1.4,0.3-2,0.9V37C483,38.1,483.3,39,483.3,39.4z M492.3,39.6c-1.2,0-1.9-0.9-1.9-2.2v-5.3h-1.2v-0.4
		c1.4-0.4,2-1.3,2.5-2.4h0.2v2.3h2.2v0.6h-2.2v5.1c0,0.9,0.4,1.4,1.2,1.4c0.4,0,0.9-0.1,1.5-0.5C494.1,38.9,493.3,39.6,492.3,39.6z
		 M496.5,29.7c-0.6,0-1.1-0.5-1.1-1.1s0.5-1,1.1-1s1.1,0.5,1.1,1C497.6,29.2,497.1,29.7,496.5,29.7z M497.7,39.4L497.7,39.4h-2.1
		l0,0c0.1-0.4,0.3-1.3,0.3-2.2v-3.4c0-0.9-0.2-1.8-0.3-2.2v-0.1h1.8v5.7C497.3,38.1,497.6,39,497.7,39.4z M501.3,39.4L501.3,39.4
		h-2.2l0,0c0.1-0.4,0.3-1.3,0.3-2.2V30c0-0.9-0.2-1.8-0.4-2.2l0,0h0.3l1.6-0.2v9.6C500.9,38.1,501.2,39,501.3,39.4z M506,39.6
		c-2,0-3.7-1.5-3.7-4.1c0-2.5,1.6-4.1,3.7-4.1s3.4,1.6,3.4,3.8h-5.5c0.1,1.9,1,3.3,2.7,3.3c0.9,0,1.7-0.3,2.7-1.2l0,0
		C508.8,38.6,507.6,39.6,506,39.6z M506,31.9c-1.3,0-2,1.3-2,2.9l3.9-0.2C507.7,33.1,507.2,31.9,506,31.9z"/>
	<circle class="st1" cx="402.5" cy="24.6" r="24.5"/>
	<path d="M392.3,30.3c0-0.5,4.4-7.5,5.5-8.8h-3.4c-1.2,0-2,0.4-3.1,0.9h-0.1l1.2-3.6h7.5c-1.6,3.1-2.7,6.8-3.2,8.9
		c-0.2,1.2-0.4,2.5-0.4,2.6H392.3z M401.4,30.3l8.1-11.5h1l-8.1,11.5H401.4z M402.7,23.8c-1.1,0-2.3-1-2.3-2.5s1.2-2.5,2.3-2.5
		s2.4,1,2.4,2.5S403.8,23.8,402.7,23.8z M402.7,23.2c0.4,0,0.6-0.7,0.6-1.9c0-1.2-0.2-1.9-0.6-1.9s-0.6,0.7-0.6,1.9
		S402.3,23.2,402.7,23.2z M409.4,30.3c-1.1,0-2.3-1-2.3-2.5s1.2-2.5,2.3-2.5s2.4,1,2.4,2.5S410.5,30.3,409.4,30.3z M409.4,29.7
		c0.4,0,0.6-0.7,0.6-1.9c0-1.2-0.2-1.9-0.6-1.9s-0.6,0.7-0.6,1.9C408.7,29,409,29.7,409.4,29.7z"/>
</g>
<g>
	<path class="st0" d="M222.8,21.5c-0.1-0.4-0.3-0.7-0.4-1.2c-0.7,1-1.6,1.4-2.5,1.4c-1.7,0-3.2-1.4-3.2-4c0-2.8,1.6-4.1,3.4-4.1
		c0.9,0,1.7,0.4,2.2,1.1V12c0-0.9-0.3-1.8-0.5-2.1V9.8h0.4l1.6-0.2v9.6c0,0.9,0.2,1.8,0.3,2.2l0,0L222.8,21.5L222.8,21.5z
		 M218.4,17.5c0,1.7,0.6,3.3,2.1,3.3c0.8,0,1.3-0.4,1.9-1.1c0-0.1,0-0.2,0-0.3v-4.2c-0.4-0.5-1-0.8-1.7-0.8
		C219.2,14.3,218.4,15.6,218.4,17.5z M226.7,11.7c-0.6,0-1.1-0.5-1.1-1.1s0.5-1,1.1-1s1.1,0.5,1.1,1
		C227.7,11.2,227.3,11.7,226.7,11.7z M227.8,21.4L227.8,21.4h-2.1l0,0c0.1-0.4,0.3-1.3,0.3-2.2v-3.4c0-0.9-0.2-1.8-0.3-2.2v-0.1h1.8
		v5.7C227.5,20.1,227.7,21,227.8,21.4z M235.5,21.6c-1.2,0-1.9-0.9-1.9-2.2v-5.3h-1.2v-0.4c1.4-0.4,2-1.3,2.5-2.4h0.2v2.3h2.2v0.6
		h-2.2v5.1c0,0.9,0.4,1.4,1.2,1.4c0.4,0,0.9-0.1,1.5-0.5C237.4,20.9,236.6,21.6,235.5,21.6z M241.4,21.6c-1.3,0-2.6-0.7-2.6-2.7
		v-3.1c0-0.9-0.2-1.8-0.3-2.2v-0.1h1.8v5.2c0,1.3,0.8,1.9,1.7,1.9c0.7,0,1.3-0.3,2-0.9c0-0.2,0-0.4,0-0.5v-3.4
		c0-0.9-0.2-1.8-0.3-2.2v-0.1h1.8v5.7c0,0.9,0.2,1.8,0.3,2.2l0,0h-1.6c-0.1-0.2-0.1-0.8-0.2-1.4C243.3,21.1,242.4,21.6,241.4,21.6z
		 M249.6,21.6c-1.2,0-1.9-0.9-1.9-2.2v-5.3h-1.2v-0.4c1.4-0.4,2-1.3,2.5-2.4h0.2v2.3h2.2v0.6h-2.2v5.1c0,0.9,0.4,1.4,1.2,1.4
		c0.4,0,0.9-0.1,1.5-0.5C251.5,20.9,250.7,21.6,249.6,21.6z M255.4,21.6c-1.2,0-1.9-0.9-1.9-2.2v-5.3h-1.2v-0.4
		c1.4-0.4,2-1.3,2.5-2.4h0.2v2.3h2.2v0.6H255v5.1c0,0.9,0.4,1.4,1.2,1.4c0.4,0,0.9-0.1,1.5-0.5C257.2,20.9,256.4,21.6,255.4,21.6z
		 M261.8,21.6c-2,0-3.7-1.5-3.7-4.1c0-2.5,1.6-4.1,3.7-4.1s3.4,1.6,3.4,3.8h-5.5c0.1,1.9,1,3.3,2.7,3.3c0.9,0,1.7-0.3,2.7-1.2l0,0
		C264.6,20.6,263.3,21.6,261.8,21.6z M261.7,13.9c-1.3,0-2,1.3-2,2.9l3.9-0.2C263.5,15.1,262.9,13.9,261.7,13.9z M272.2,21.4
		L272.2,21.4H270l0,0c0.1-0.4,0.3-1.3,0.3-2.2V12c0-0.9-0.2-1.8-0.4-2.2l0,0h0.3l1.6-0.2v9.6C271.8,20.1,272.1,21,272.2,21.4z
		 M276.9,21.6c-2,0-3.7-1.5-3.7-4.1c0-2.5,1.6-4.1,3.7-4.1s3.4,1.6,3.4,3.8h-5.5c0.1,1.9,1,3.3,2.7,3.3c0.9,0,1.7-0.3,2.7-1.2l0,0
		C279.7,20.6,278.5,21.6,276.9,21.6z M276.9,13.9c-1.3,0-2,1.3-2,2.9l3.9-0.2C278.7,15.1,278.1,13.9,276.9,13.9z M287.3,21.4
		L287.3,21.4h-2.1l0,0c0.1-0.4,0.3-1.3,0.3-2.2v-3.4c0-0.9-0.2-1.8-0.3-2.2v-0.1h1.8v1.2c0.7-0.8,1.4-1.2,2.3-1.2s1.8,0.4,2.2,1.5
		c0.7-1,1.5-1.5,2.5-1.5c1.2,0,2.4,0.8,2.4,2.7v3c0,0.9,0.2,1.8,0.3,2.2l0,0h-2.1l0,0c0.1-0.4,0.3-1.3,0.3-2.2v-2.9
		c0-1.3-0.8-1.9-1.7-1.9c-0.6,0-1.1,0.3-1.6,0.8c0.1,0.3,0.1,0.6,0.1,0.9v3c0,0.9,0.2,1.8,0.3,2.2l0,0h-2.1l0,0
		c0.1-0.4,0.3-1.3,0.3-2.2v-2.9c0-1.3-0.8-1.9-1.7-1.9c-0.5,0-1.1,0.2-1.6,0.7v4C287,20.1,287.2,21,287.3,21.4z M301.5,21.6
		c-2,0-3.7-1.5-3.7-4.1c0-2.5,1.6-4.1,3.7-4.1s3.4,1.6,3.4,3.8h-5.5c0.1,1.9,1,3.3,2.7,3.3c0.9,0,1.7-0.3,2.7-1.2l0,0
		C304.3,20.6,303.1,21.6,301.5,21.6z M301.5,13.9c-1.3,0-2,1.3-2,2.9l3.9-0.2C303.2,15.1,302.6,13.9,301.5,13.9z M308.2,21.4
		L308.2,21.4h-2.1l0,0c0.1-0.4,0.3-1.3,0.3-2.2v-3.4c0-0.9-0.2-1.8-0.3-2.2v-0.1h1.8v1.3c0.6-1.1,1.8-1.8,3.2-1.3l-0.2,1.7l0,0
		c-0.8-0.6-2-0.9-2.9,0.1v3.9C307.9,20.1,308.1,21,308.2,21.4z M315.3,21.6c-2,0-3.7-1.5-3.7-4.1s1.6-4.1,3.8-4.1
		c1.1,0,2.1,0.4,2.8,0.8v1.9H318c-0.5-0.9-1.4-2.1-2.7-2.1c-1.4,0-2.2,1.5-2.2,3.2c0,2,1,3.4,2.7,3.4c0.7,0,1.6-0.2,2.5-1.1l0,0
		C317.9,20.7,316.8,21.6,315.3,21.6z M320.7,11.7c-0.6,0-1.1-0.5-1.1-1.1s0.5-1,1.1-1s1.1,0.5,1.1,1
		C321.7,11.2,321.2,11.7,320.7,11.7z M321.8,21.4L321.8,21.4h-2.1l0,0c0.1-0.4,0.3-1.3,0.3-2.2v-3.4c0-0.9-0.2-1.8-0.3-2.2v-0.1h1.8
		v5.7C321.5,20.1,321.7,21,321.8,21.4z M222.8,39.5c-0.1-0.4-0.3-0.7-0.4-1.2c-0.7,1-1.6,1.4-2.5,1.4c-1.7,0-3.2-1.4-3.2-4
		c0-2.8,1.6-4.1,3.4-4.1c0.9,0,1.7,0.4,2.2,1.1V30c0-0.9-0.3-1.8-0.5-2.1v-0.1h0.4l1.6-0.2v9.6c0,0.9,0.2,1.8,0.3,2.2l0,0h-1.3V39.5
		z M218.4,35.5c0,1.7,0.6,3.3,2.1,3.3c0.8,0,1.3-0.4,1.9-1.1c0-0.1,0-0.2,0-0.3v-4.2c-0.4-0.5-1-0.8-1.7-0.8
		C219.2,32.3,218.4,33.6,218.4,35.5z M229,39.6c-2,0-3.7-1.5-3.7-4.1c0-2.5,1.6-4.1,3.7-4.1c2.1,0,3.4,1.6,3.4,3.8h-5.5
		c0.1,1.9,1,3.3,2.7,3.3c0.9,0,1.7-0.3,2.7-1.2l0,0C231.8,38.6,230.6,39.6,229,39.6z M229,31.9c-1.3,0-2,1.3-2,2.9l3.9-0.2
		C230.7,33.1,230.1,31.9,229,31.9z M235.7,39.4L235.7,39.4h-2.2l0,0c0.1-0.4,0.3-1.3,0.3-2.2V30c0-0.9-0.2-1.8-0.4-2.2l0,0h0.3
		l1.6-0.2v9.6C235.3,38.1,235.6,39,235.7,39.4z M242.8,39.4L242.8,39.4h-2.1l0,0c0.1-0.4,0.3-1.3,0.3-2.2v-3.4
		c0-0.9-0.2-1.8-0.3-2.2v-0.1h1.8v1.2c0.7-0.8,1.4-1.2,2.3-1.2c0.9,0,1.8,0.4,2.2,1.5c0.7-1,1.5-1.5,2.5-1.5c1.2,0,2.4,0.8,2.4,2.7
		v3c0,0.9,0.2,1.8,0.3,2.2l0,0h-2.1l0,0c0.1-0.4,0.3-1.3,0.3-2.2v-2.9c0-1.3-0.8-1.9-1.7-1.9c-0.6,0-1.1,0.3-1.6,0.8
		c0.1,0.3,0.1,0.6,0.1,0.9v3c0,0.9,0.2,1.8,0.3,2.2l0,0h-2.1l0,0c0.1-0.4,0.3-1.3,0.3-2.2v-2.9c0-1.3-0.8-1.9-1.7-1.9
		c-0.5,0-1.1,0.2-1.6,0.7v4C242.5,38.1,242.7,39,242.8,39.4z M257.1,39.6c-2.1,0-3.9-1.6-3.9-4.1s1.7-4.1,3.9-4.1
		c2.1,0,3.9,1.5,3.9,4.1S259.2,39.6,257.1,39.6z M257.1,39c1.4,0,2.2-1.6,2.2-3.6c0-1.9-0.8-3.5-2.2-3.5c-1.4,0-2.2,1.6-2.2,3.5
		S255.7,39,257.1,39z M264.2,39.4L264.2,39.4h-2.1l0,0c0.1-0.4,0.3-1.3,0.3-2.2v-3.4c0-0.9-0.2-1.8-0.3-2.2v-0.1h1.8v1.4
		c0.7-0.9,1.6-1.5,2.6-1.5c1.3,0,2.6,0.8,2.6,2.7v3c0,0.9,0.2,1.8,0.3,2.2l0,0h-2.2l0,0c0.1-0.4,0.3-1.3,0.3-2.2v-2.9
		c0-1.3-0.8-1.9-1.7-1.9c-0.7,0-1.4,0.3-2,0.9V37C263.8,38.1,264.1,39,264.2,39.4z M276.4,39.5c-0.1-0.4-0.3-0.7-0.4-1.2
		c-0.7,1-1.6,1.4-2.5,1.4c-1.7,0-3.2-1.4-3.2-4c0-2.8,1.6-4.1,3.4-4.1c0.9,0,1.7,0.4,2.2,1.1V30c0-0.9-0.3-1.8-0.5-2.1v-0.1h0.4
		l1.6-0.2v9.6c0,0.9,0.2,1.8,0.3,2.2l0,0h-1.3V39.5z M272.1,35.5c0,1.7,0.6,3.3,2.1,3.3c0.8,0,1.3-0.4,1.9-1.1c0-0.1,0-0.2,0-0.3
		v-4.2c-0.4-0.5-1-0.8-1.7-0.8C272.9,32.3,272.1,33.6,272.1,35.5z M282.8,39.6c-2.1,0-3.9-1.6-3.9-4.1s1.7-4.1,3.9-4.1
		c2.1,0,3.9,1.5,3.9,4.1S285,39.6,282.8,39.6z M282.8,39c1.4,0,2.2-1.6,2.2-3.6c0-1.9-0.8-3.5-2.2-3.5c-1.4,0-2.2,1.6-2.2,3.5
		S281.4,39,282.8,39z"/>
	<circle class="st0" cx="180.2" cy="24.6" r="24.5"/>
	<path d="M167.8,21c2-0.6,3.7-1.2,5.2-2.4v9.2c0,1.2,0.5,2.6,0.5,2.7v0.1h-4.2v-0.1c0-0.1,0.5-1.5,0.5-2.7v-6.4h-2V21z M174.1,30.5
		c3-4,5.3-7.2,5.3-9.5c0-0.5-0.1-1.3-0.9-1.3c-1.3,0-2.4,2-3.1,3.4h-0.1l-0.8-3.3c1.1-0.4,2.4-0.8,4-0.8c2.1,0,4.1,0.9,4.1,2.9
		c0,1.9-1.6,3.5-3.3,4.7c-0.7,0.5-1.9,1.3-2.5,1.6h2.4c1.3,0,2.4-0.4,3.3-1.2l0,0l-0.6,3.6h-7.8V30.5z M184.4,30.5l8.1-11.5h1
		l-8.1,11.5H184.4z M185.7,24c-1.1,0-2.3-1-2.3-2.5s1.2-2.5,2.3-2.5s2.4,1,2.4,2.5S186.8,24,185.7,24z M185.7,23.4
		c0.4,0,0.6-0.7,0.6-1.9c0-1.2-0.2-1.9-0.6-1.9c-0.4,0-0.6,0.7-0.6,1.9C185.1,22.7,185.3,23.4,185.7,23.4z M192.4,30.5
		c-1.1,0-2.3-1-2.3-2.5s1.2-2.5,2.3-2.5s2.4,1,2.4,2.5S193.5,30.5,192.4,30.5z M192.4,29.9c0.4,0,0.6-0.7,0.6-1.9
		c0-1.2-0.2-1.9-0.6-1.9c-0.4,0-0.6,0.7-0.6,1.9C191.8,29.2,192,29.9,192.4,29.9z"/>
</g>
<text transform="matrix(1 0 0 1 8.8195 29.8858)"><tspan x="0" y="0" class="st0 st2 st3">TRANSITO</tspan><tspan x="79.2" y="0" class="st0 st4 st3">:</tspan></text>
</svg>
