<?xml version="1.0" encoding="utf-8"?>
<!-- Generator: Adobe Illustrator 26.0.1, SVG Export Plug-In . SVG Version: 6.00 Build 0)  -->
<svg version="1.1" id="Livello_1" xmlns="http://www.w3.org/2000/svg" xmlns:xlink="http://www.w3.org/1999/xlink" x="0px" y="0px"
	 viewBox="0 0 511 60.7" style="enable-background:new 0 0 511 60.7;" xml:space="preserve">
<style type="text/css">
	.st0{fill:#FFFFFF;enable-background:new    ;}
	.st1{enable-background:new    ;}
	.st2{fill:#FFFFFF;}
</style>
<path class="st0" d="M0,0.5L0,0.5h2.9c2.1,0,4,1.7,4,4.3c0,2.7-1.9,4.4-4,4.4H0l0,0c0.1-0.3,0.2-1,0.2-1.7V2.2
	C0.2,1.5,0.1,0.8,0,0.5z M2.7,0.9H1.4v7.8h1.2c1.9,0,3-1.7,3-3.9S4.5,0.9,2.7,0.9z M8.7,1.8C8.3,1.8,7.9,1.5,7.9,1
	c0-0.4,0.4-0.8,0.8-0.8S9.5,0.5,9.5,1S9.1,1.8,8.7,1.8z M9.6,9.1L9.6,9.1H8l0,0c0.1-0.3,0.2-1,0.2-1.7V4.8C8.2,4.2,8,3.5,8,3.2l0,0
	h1.4v4.3C9.3,8.1,9.5,8.8,9.6,9.1z M10.1,3.6V3.2h1V2.7c0-1.8,0.9-2.4,1.9-2.4c0.5,0,1,0.1,1.6,0.3v1.1h-0.1c-0.5-0.6-1-1-1.5-1
	c-0.6,0-0.8,0.7-0.8,1.9v0.6h1.9v0.4h-1.9v3.8c0,0.7,0.2,1.4,0.3,1.7l0,0h-1.6l0,0c0.1-0.3,0.2-1,0.2-1.7V3.6H10.1z M14.5,3.6V3.2h1
	V2.7c0-1.8,0.9-2.4,1.9-2.4c0.5,0,1,0.1,1.6,0.3v1.1h-0.1c-0.5-0.6-1-1-1.5-1c-0.6,0-0.8,0.7-0.8,1.9v0.6h1.9v0.4h-1.9v3.8
	c0,0.7,0.2,1.4,0.3,1.7l0,0h-1.6l0,0c0.1-0.3,0.2-1,0.2-1.7V3.6H14.5z M21.5,9.2c-1.5,0-2.8-1.1-2.8-3.1c0-1.9,1.2-3.1,2.8-3.1
	C23.1,3,24,4.2,24,5.9h-4c0,1.4,0.7,2.5,2,2.5c0.7,0,1.3-0.3,2-0.9l0,0C23.6,8.5,22.7,9.2,21.5,9.2z M21.5,3.5c-1,0-1.5,1-1.5,2.1
	l2.9-0.2C22.8,4.3,22.4,3.5,21.5,3.5z M26.5,9.1L26.5,9.1h-1.6l0,0c0.1-0.3,0.2-1,0.2-1.7V4.9c0-0.7-0.2-1.4-0.2-1.7l0,0h1.4v1
	c0.5-0.8,1.4-1.3,2.4-1l-0.2,1.3l0,0c-0.6-0.5-1.5-0.7-2.2,0v2.9C26.3,8.1,26.5,8.8,26.5,9.1z M31.9,9.2c-1.5,0-2.8-1.1-2.8-3.1
	c0-1.9,1.2-3.1,2.8-3.1c1.6,0,2.5,1.2,2.5,2.9h-4.1c0,1.4,0.7,2.5,2,2.5c0.7,0,1.3-0.3,2-0.9l0,0C34,8.5,33.1,9.2,31.9,9.2z
	 M31.8,3.5c-1,0-1.5,1-1.5,2.1l2.9-0.2C33.2,4.3,32.7,3.5,31.8,3.5z M36.9,9.1L36.9,9.1h-1.6l0,0c0.1-0.3,0.2-1,0.2-1.7V4.9
	c0-0.7-0.2-1.4-0.2-1.7l0,0h1.4v1c0.5-0.7,1.2-1.1,2-1.1c1,0,1.9,0.6,1.9,2.1v2.3c0,0.7,0.2,1.4,0.3,1.7l0,0h-1.6l0,0
	c0.1-0.3,0.2-1,0.2-1.7V5.3c0-1-0.6-1.4-1.3-1.4c-0.5,0-1,0.3-1.5,0.7v2.9C36.6,8.1,36.8,8.8,36.9,9.1z M41.5,9.1l3.3-5.5h-1.1
	c-0.8,0-1.6,0.7-2,0.9l0,0V3.2h4.8l-3.3,5.5h1.1c0.8,0,1.6-0.7,2-0.9l0,0v1.3C46.3,9.1,41.5,9.1,41.5,9.1z M49,9.2
	c-1.2,0-1.9-0.9-1.9-1.8c0-1.4,1.5-2.1,3.3-1.8c0.2,0,0.3,0.1,0.5,0.1V4.9c0-0.9-0.5-1.4-1.1-1.4c-0.8,0-1.9,1-2.3,1.4l0,0V3.6
	c0.9-0.3,1.7-0.5,2.4-0.5c1.3,0,2.1,0.7,2.1,1.8v3c0,0.6,0.3,0.8,0.8,0.6l0,0c-0.1,0.4-0.5,0.6-0.9,0.6c-0.5,0-0.9-0.3-1-0.9
	C50.4,8.8,49.8,9.2,49,9.2z M48.2,7.3c0,0.7,0.6,1.2,1.3,1.2c0.5,0,0.9-0.3,1.3-0.7V6h-0.1C49.1,5.7,48.2,6.5,48.2,7.3z M57.9,9.2
	c-1.2,0-1.9-0.9-1.9-1.8c0-1.4,1.5-2.1,3.3-1.8c0.2,0,0.3,0.1,0.5,0.1V4.9c0-0.9-0.5-1.4-1.1-1.4c-0.8,0-1.9,1-2.3,1.4l0,0V3.6
	c0.9-0.3,1.7-0.5,2.4-0.5c1.3,0,2.1,0.7,2.1,1.8v3c0,0.6,0.3,0.8,0.8,0.6l0,0c-0.1,0.4-0.5,0.6-0.9,0.6c-0.5,0-0.9-0.3-1-0.9
	C59.4,8.8,58.8,9.2,57.9,9.2z M57.2,7.3c0,0.7,0.6,1.2,1.3,1.2c0.5,0,0.9-0.3,1.3-0.7V6h-0.1C58.1,5.7,57.2,6.5,57.2,7.3z M63.9,9.1
	L63.9,9.1h-1.6l0,0c0.1-0.3,0.2-1,0.2-1.7V4.9c0-0.7-0.2-1.4-0.2-1.7l0,0h1.4v1c0.5-0.7,1.2-1.1,2-1.1c1,0,1.9,0.6,1.9,2.1v2.3
	c0,0.7,0.2,1.4,0.3,1.7l0,0h-1.6l0,0c0.1-0.3,0.2-1,0.2-1.7V5.3c0-1-0.6-1.4-1.3-1.4c-0.5,0-1,0.3-1.5,0.7v2.9
	C63.7,8.1,63.8,8.8,63.9,9.1z M70.3,9.1L70.3,9.1h-1.6l0,0c0.1-0.3,0.2-1,0.2-1.7V4.9c0-0.7-0.2-1.4-0.2-1.7l0,0h1.4v1
	c0.5-0.7,1.2-1.1,2-1.1c1,0,1.9,0.6,1.9,2.1v2.3c0,0.7,0.2,1.4,0.3,1.7l0,0h-1.6l0,0c0.1-0.3,0.2-1,0.2-1.7V5.3c0-1-0.6-1.4-1.3-1.4
	c-0.5,0-1,0.3-1.5,0.7v2.9C70.1,8.1,70.3,8.8,70.3,9.1z M77.3,9.2c-1,0-2-0.6-2-2V4.9c0-0.7-0.2-1.4-0.2-1.7l0,0h1.4V7
	c0,1,0.6,1.4,1.3,1.4c0.5,0,1-0.3,1.5-0.7c0-0.1,0-0.3,0-0.4V4.9c0-0.7-0.2-1.4-0.3-1.7l0,0h1.4v4.3c0,0.7,0.2,1.4,0.2,1.7l0,0h-1.2
	c0-0.2-0.1-0.6-0.2-1C78.7,8.9,78.1,9.2,77.3,9.2z M83.3,9.2c-1.2,0-1.9-0.9-1.9-1.8c0-1.4,1.5-2.1,3.3-1.8c0.2,0,0.3,0.1,0.5,0.1
	V4.9c0-0.9-0.5-1.4-1.1-1.4c-0.8,0-1.9,1-2.3,1.4l0,0V3.6c0.9-0.3,1.7-0.5,2.4-0.5c1.3,0,2.1,0.7,2.1,1.8v3c0,0.6,0.3,0.8,0.8,0.6
	l0,0c-0.1,0.4-0.5,0.6-0.9,0.6c-0.5,0-0.9-0.3-1-0.9C84.8,8.8,84.2,9.2,83.3,9.2z M82.6,7.3c0,0.7,0.6,1.2,1.3,1.2
	c0.5,0,0.9-0.3,1.3-0.7V6h-0.1C83.5,5.7,82.6,6.5,82.6,7.3z M89.3,9.1L89.3,9.1h-1.6l0,0c0.1-0.3,0.3-1,0.3-1.7V2.1
	c0-0.7-0.2-1.4-0.3-1.6l0,0h0.2l1.2-0.2v7.2C89.1,8.1,89.2,8.8,89.3,9.1z M92.9,9.2c-1.5,0-2.8-1.1-2.8-3.1c0-1.9,1.2-3.1,2.8-3.1
	c1.6,0,2.5,1.2,2.5,2.9h-4.1c0,1.4,0.7,2.5,2,2.5c0.7,0,1.3-0.3,2-0.9l0,0C95,8.5,94.1,9.2,92.9,9.2z M92.8,3.5c-1,0-1.5,1-1.5,2.1
	l2.9-0.2C94.2,4.3,93.7,3.5,92.8,3.5z M103.4,9.1c-0.1-0.3-0.2-0.5-0.3-0.9c-0.5,0.7-1.2,1-1.9,1c-1.3,0-2.4-1.1-2.4-3
	c0-2.1,1.2-3.1,2.5-3.1c0.7,0,1.3,0.3,1.7,0.8V2.1c0-0.7-0.2-1.3-0.3-1.6l0,0h0.3l1.2-0.2v7.2c0,0.7,0.2,1.4,0.2,1.7l0,0L103.4,9.1
	L103.4,9.1z M100.2,6.2c0,1.3,0.5,2.4,1.6,2.4c0.6,0,1-0.3,1.4-0.8c0-0.1,0-0.2,0-0.2V4.4c-0.3-0.4-0.8-0.6-1.3-0.6
	C100.8,3.8,100.2,4.7,100.2,6.2z M108.1,9.2c-1.5,0-2.8-1.1-2.8-3.1c0-1.9,1.2-3.1,2.8-3.1c1.6,0,2.5,1.2,2.5,2.9h-4.1
	c0,1.4,0.7,2.5,2,2.5c0.7,0,1.3-0.3,2-0.9l0,0C110.2,8.5,109.3,9.2,108.1,9.2z M108.1,3.5c-1,0-1.5,1-1.5,2.1l2.9-0.2
	C109.4,4.3,109,3.5,108.1,3.5z M113.1,9.1L113.1,9.1h-1.6l0,0c0.1-0.3,0.3-1,0.3-1.7V2.1c0-0.7-0.2-1.4-0.3-1.6l0,0h0.2l1.2-0.2v7.2
	C112.9,8.1,113,8.8,113.1,9.1z M115.7,9.1L115.7,9.1h-1.6l0,0c0.1-0.3,0.3-1,0.3-1.7V2.1c0-0.7-0.2-1.4-0.3-1.6l0,0h0.2l1.2-0.2v7.2
	C115.4,8.1,115.6,8.8,115.7,9.1z M119.3,9.2c-1.5,0-2.8-1.1-2.8-3.1c0-1.9,1.2-3.1,2.8-3.1c1.6,0,2.5,1.2,2.5,2.9h-4.1
	c0,1.4,0.7,2.5,2,2.5c0.7,0,1.3-0.3,2-0.9l0,0C121.4,8.5,120.5,9.2,119.3,9.2z M119.2,3.5c-1,0-1.5,1-1.5,2.1l2.9-0.2
	C120.6,4.3,120.1,3.5,119.2,3.5z M127.4,9.2c-0.9,0-1.4-0.7-1.4-1.7v-4h-0.9V3.3c1-0.3,1.5-1,1.9-1.8h0.1v1.7h1.7v0.4h-1.7v3.8
	c0,0.7,0.3,1,0.9,1c0.3,0,0.7-0.1,1.1-0.4C128.8,8.7,128.2,9.2,127.4,9.2z M132.2,9.2c-1.5,0-2.8-1.1-2.8-3.1c0-1.9,1.2-3.1,2.8-3.1
	s2.5,1.2,2.5,2.9h-4.1c0,1.4,0.7,2.5,2,2.5c0.7,0,1.3-0.3,2-0.9l0,0C134.3,8.5,133.4,9.2,132.2,9.2z M132.2,3.5c-1,0-1.5,1-1.5,2.1
	l2.9-0.2C133.5,4.3,133,3.5,132.2,3.5z M137.2,9.1L137.2,9.1h-1.6l0,0c0.1-0.3,0.2-1,0.2-1.7V4.9c0-0.7-0.2-1.4-0.2-1.7l0,0h1.4V4
	c0.5-0.6,1-0.9,1.7-0.9s1.4,0.3,1.7,1.1c0.6-0.7,1.1-1.1,1.8-1.1c0.9,0,1.8,0.6,1.8,2.1v2.3c0,0.7,0.2,1.4,0.3,1.7l0,0h-1.6l0,0
	c0.1-0.3,0.2-1,0.2-1.7V5.3c0-1-0.6-1.4-1.2-1.4c-0.4,0-0.8,0.2-1.2,0.6c0,0.2,0.1,0.4,0.1,0.7v2.3c0,0.7,0.2,1.4,0.3,1.7l0,0h-1.6
	l0,0c0.1-0.3,0.2-1,0.2-1.7V5.3c0-1-0.6-1.4-1.2-1.4c-0.4,0-0.8,0.2-1.2,0.5v3C136.9,8.1,137.1,8.8,137.2,9.1z M148,9.2
	c-0.6,0-1.1-0.2-1.5-0.7v1.3c0,0.7,0.2,1.4,0.3,1.7l0,0h-1.6l0,0c0.1-0.3,0.3-1,0.3-1.7V5c0-0.7-0.2-1.4-0.3-1.6l0,0h0.2l1.2-0.2V4
	c0.4-0.6,1.1-0.9,1.8-0.9c1.3,0,2.4,1.1,2.4,3C150.5,8.2,149.3,9.2,148,9.2z M147.7,3.8c-0.5,0-0.9,0.3-1.3,0.7v3.6
	c0.3,0.3,0.7,0.5,1.2,0.5c1.1,0,1.7-1,1.7-2.5C149.3,4.9,148.8,3.8,147.7,3.8z M154.2,9.2c-1.5,0-2.8-1.1-2.8-3.1
	c0-1.9,1.2-3.1,2.8-3.1s2.5,1.2,2.5,2.9h-4.1c0,1.4,0.7,2.5,2,2.5c0.7,0,1.3-0.3,2-0.9l0,0C156.3,8.5,155.4,9.2,154.2,9.2z
	 M154.1,3.5c-1,0-1.5,1-1.5,2.1l2.9-0.2C155.5,4.3,155,3.5,154.1,3.5z M159.2,9.1L159.2,9.1h-1.6l0,0c0.1-0.3,0.2-1,0.2-1.7V4.9
	c0-0.7-0.2-1.4-0.2-1.7l0,0h1.4v1c0.5-0.8,1.4-1.3,2.4-1l-0.2,1.3l0,0c-0.6-0.5-1.5-0.7-2.2,0v2.9C158.9,8.1,159.1,8.8,159.2,9.1z
	 M163.8,9.2c-1.2,0-1.9-0.9-1.9-1.8c0-1.4,1.5-2.1,3.3-1.8c0.2,0,0.3,0.1,0.5,0.1V4.9c0-0.9-0.5-1.4-1.1-1.4c-0.8,0-1.9,1-2.3,1.4
	l0,0V3.6c0.9-0.3,1.7-0.5,2.4-0.5c1.3,0,2.1,0.7,2.1,1.8v3c0,0.6,0.3,0.8,0.8,0.6l0,0c-0.1,0.4-0.5,0.6-0.9,0.6
	c-0.5,0-0.9-0.3-1-0.9C165.3,8.8,164.7,9.2,163.8,9.2z M163.1,7.3c0,0.7,0.6,1.2,1.3,1.2c0.5,0,0.9-0.3,1.3-0.7V6h-0.1
	C164,5.7,163.1,6.5,163.1,7.3z M170,9.2c-0.9,0-1.4-0.7-1.4-1.7v-4h-0.9V3.3c1-0.3,1.5-1,1.9-1.8h0.1v1.7h1.7v0.4h-1.7v3.8
	c0,0.7,0.3,1,0.9,1c0.3,0,0.7-0.1,1.1-0.4C171.3,8.7,170.7,9.2,170,9.2z M174.4,9.2c-1,0-2-0.6-2-2V4.9c0-0.7-0.2-1.4-0.2-1.7l0,0
	h1.4V7c0,1,0.6,1.4,1.3,1.4c0.5,0,1-0.3,1.5-0.7c0-0.1,0-0.3,0-0.4V4.9c0-0.7-0.2-1.4-0.3-1.7l0,0h1.4v4.3c0,0.7,0.2,1.4,0.2,1.7
	l0,0h-1.2c0-0.2-0.1-0.6-0.2-1C175.8,8.9,175.1,9.2,174.4,9.2z M180.2,9.1L180.2,9.1h-1.6l0,0c0.1-0.3,0.2-1,0.2-1.7V4.9
	c0-0.7-0.2-1.4-0.2-1.7l0,0h1.4v1c0.5-0.8,1.4-1.3,2.4-1l-0.2,1.3l0,0c-0.6-0.5-1.5-0.7-2.2,0v2.9C180,8.1,180.1,8.8,180.2,9.1z
	 M185.5,9.2c-1.5,0-2.8-1.1-2.8-3.1c0-1.9,1.2-3.1,2.8-3.1s2.5,1.2,2.5,2.9h-4c0,1.4,0.7,2.5,2,2.5c0.7,0,1.3-0.3,2-0.9l0,0
	C187.6,8.5,186.7,9.2,185.5,9.2z M185.5,3.5c-1,0-1.5,1-1.5,2.1l2.9-0.2C186.8,4.3,186.4,3.5,185.5,3.5z M193.3,9.1L193.3,9.1h-1.6
	l0,0c0.1-0.3,0.2-1,0.2-1.7V4.9c0-0.7-0.2-1.4-0.2-1.7l0,0h1.4V4c0.5-0.6,1-0.9,1.7-0.9s1.4,0.3,1.7,1.1c0.6-0.7,1.1-1.1,1.8-1.1
	c0.9,0,1.8,0.6,1.8,2.1v2.3c0,0.7,0.2,1.4,0.3,1.7l0,0h-1.6l0,0c0.1-0.3,0.2-1,0.2-1.7V5.3c0-1-0.6-1.4-1.2-1.4
	c-0.4,0-0.8,0.2-1.2,0.6c0,0.2,0.1,0.4,0.1,0.7v2.3c0,0.7,0.2,1.4,0.3,1.7l0,0h-1.6l0,0c0.1-0.3,0.2-1,0.2-1.7V5.3
	c0-1-0.6-1.4-1.2-1.4c-0.4,0-0.8,0.2-1.2,0.5v3C193.1,8.1,193.3,8.8,193.3,9.1z M204,9.2c-1.5,0-2.8-1.1-2.8-3.1
	c0-1.9,1.2-3.1,2.8-3.1s2.5,1.2,2.5,2.9h-4.1c0,1.4,0.7,2.5,2,2.5c0.7,0,1.3-0.3,2-0.9l0,0C206.1,8.5,205.1,9.2,204,9.2z M203.9,3.5
	c-1,0-1.5,1-1.5,2.1l2.9-0.2C205.3,4.3,204.8,3.5,203.9,3.5z M211.8,9.1c-0.1-0.3-0.2-0.5-0.3-0.9c-0.5,0.7-1.2,1-1.9,1
	c-1.3,0-2.4-1.1-2.4-3c0-2.1,1.2-3.1,2.5-3.1c0.7,0,1.3,0.3,1.7,0.8V2.1c0-0.7-0.2-1.3-0.3-1.6l0,0h0.3l1.2-0.2v7.2
	c0,0.7,0.2,1.4,0.2,1.7l0,0L211.8,9.1L211.8,9.1z M208.5,6.2c0,1.3,0.5,2.4,1.6,2.4c0.6,0,1-0.3,1.4-0.8c0-0.1,0-0.2,0-0.2V4.4
	c-0.3-0.4-0.8-0.6-1.3-0.6C209.2,3.8,208.5,4.7,208.5,6.2z M214.7,1.8c-0.4,0-0.8-0.3-0.8-0.8c0-0.4,0.4-0.8,0.8-0.8
	c0.4,0,0.8,0.3,0.8,0.8S215.2,1.8,214.7,1.8z M215.6,9.1L215.6,9.1H214l0,0c0.1-0.3,0.2-1,0.2-1.7V4.8c0-0.7-0.2-1.4-0.2-1.7l0,0
	h1.4v4.3C215.3,8.1,215.5,8.8,215.6,9.1z M219.3,9.2c-1.5,0-2.8-1.1-2.8-3.1c0-1.9,1.2-3.1,2.8-3.1s2.5,1.2,2.5,2.9h-4.1
	c0,1.4,0.7,2.5,2,2.5c0.7,0,1.3-0.3,2-0.9l0,0C221.4,8.5,220.5,9.2,219.3,9.2z M219.2,3.5c-1,0-1.5,1-1.5,2.1l2.9-0.2
	C220.6,4.3,220.1,3.5,219.2,3.5z M227.8,7.3c-0.4,0-0.7-0.1-1.1-0.2c-0.3,0.1-0.5,0.3-0.5,0.6c0,0.4,0.5,0.5,0.9,0.5h2
	c1.1,0,1.8,0.6,1.8,1.6c0,1.6-1.8,1.8-2.9,1.8c-1,0-2.6-0.2-2.6-1.4c0-0.4,0.2-0.8,0.6-1.1c-0.3-0.2-0.5-0.5-0.5-0.9
	c0-0.6,0.4-1,1-1.2c-0.6-0.3-1-0.9-1-1.7c0-1.3,1.2-2.1,2.4-2.1c0.5,0,0.9,0.1,1.3,0.3c0.3-0.6,0.9-0.9,1.7-0.8l-0.2,1l0,0
	c-0.4-0.2-0.8-0.3-1.3-0.1c0.5,0.4,0.9,0.9,0.9,1.6C230.2,6.6,229,7.3,227.8,7.3z M227.8,6.9c0.7,0,1.3-0.7,1.3-1.7
	s-0.5-1.7-1.3-1.7s-1.3,0.7-1.3,1.7S227,6.9,227.8,6.9z M226.1,9.8c0,0.8,0.7,1.4,2,1.4c1.2,0,1.9-0.5,1.9-1.1
	c0-0.4-0.3-0.8-0.9-0.8h-2c-0.3,0-0.6,0-0.8-0.1C226.1,9.3,226.1,9.6,226.1,9.8z M233,9.1L233,9.1h-1.6l0,0c0.1-0.3,0.3-1,0.3-1.7
	V2.1c0-0.7-0.2-1.4-0.3-1.6l0,0h0.2l1.2-0.2v7.2C232.8,8.1,233,8.8,233,9.1z M236.7,9.2c-1.6,0-2.9-1.2-2.9-3.1s1.3-3,2.9-3
	c1.6,0,2.9,1.1,2.9,3S238.3,9.2,236.7,9.2z M236.7,8.8c1.1,0,1.7-1.2,1.7-2.7c0-1.4-0.6-2.6-1.7-2.6S235,4.7,235,6.1
	S235.7,8.8,236.7,8.8z M243.2,9.2c-0.5,0-1-0.1-1.5-0.5l-1.1,0.5V2.1c0-0.7-0.2-1.4-0.3-1.6l0,0h0.3l1.2-0.2V4
	c0.4-0.6,1.1-0.9,1.8-0.9c1.3,0,2.4,1.1,2.4,3C245.9,8.2,244.6,9.2,243.2,9.2z M243.1,3.8c-0.5,0-0.9,0.3-1.3,0.7v3.9
	c0.3,0.2,0.7,0.2,1,0.2c1.3,0,1.9-1.2,1.9-2.6C244.6,4.8,244.1,3.8,243.1,3.8z M248.5,9.2c-1.2,0-1.9-0.9-1.9-1.8
	c0-1.4,1.5-2.1,3.3-1.8c0.2,0,0.3,0.1,0.5,0.1V4.9c0-0.9-0.5-1.4-1.1-1.4c-0.8,0-1.9,1-2.3,1.4l0,0V3.6c0.9-0.3,1.7-0.5,2.4-0.5
	c1.3,0,2.1,0.7,2.1,1.8v3c0,0.6,0.3,0.8,0.8,0.6l0,0c-0.1,0.4-0.5,0.6-0.9,0.6c-0.5,0-0.9-0.3-1-0.9C250,8.8,249.4,9.2,248.5,9.2z
	 M247.8,7.3c0,0.7,0.6,1.2,1.3,1.2c0.5,0,0.9-0.3,1.3-0.7V6h-0.1C248.7,5.7,247.8,6.5,247.8,7.3z M254.5,9.1L254.5,9.1h-1.6l0,0
	c0.1-0.3,0.3-1,0.3-1.7V2.1c0-0.7-0.2-1.4-0.3-1.6l0,0h0.2l1.2-0.2v7.2C254.3,8.1,254.5,8.8,254.5,9.1z M256.4,1.8
	c-0.4,0-0.8-0.3-0.8-0.8c0-0.4,0.4-0.8,0.8-0.8c0.4,0,0.8,0.3,0.8,0.8C257.2,1.5,256.8,1.8,256.4,1.8z M257.2,9.1L257.2,9.1h-1.6
	l0,0c0.1-0.3,0.2-1,0.2-1.7V4.8c0-0.7-0.2-1.4-0.2-1.7l0,0h1.4v4.3C257,8.1,257.1,8.8,257.2,9.1z M263.7,11.1
	c-1.2-0.7-2.5-2.9-2.5-5.6s1.3-4.8,2.5-5.5v0.1c-1.2,1.4-1.5,4-1.5,5.4S262.5,9.6,263.7,11.1L263.7,11.1z M266.2,3.7
	c-1,0-1.7-0.8-1.7-1.7s0.7-1.7,1.7-1.7s1.7,0.8,1.7,1.7S267.2,3.7,266.2,3.7z M266.2,3.2c0.7,0,1.2-0.6,1.2-1.2s-0.5-1.2-1.2-1.2
	s-1.1,0.6-1.1,1.2S265.5,3.2,266.2,3.2z M275.4,11.1L275.4,11.1c1.2-1.5,1.5-4.1,1.5-5.6s-0.3-4-1.5-5.4V0c1.2,0.7,2.5,2.8,2.5,5.5
	S276.6,10.3,275.4,11.1z"/>
<g>
	<defs>
		<rect id="SVGID_1_" y="14.8" width="511" height="31.7"/>
	</defs>
	<clipPath id="SVGID_00000017479236728208491260000015947917241561940359_">
		<use xlink:href="#SVGID_1_"  style="overflow:visible;"/>
	</clipPath>
	<g style="clip-path:url(#SVGID_00000017479236728208491260000015947917241561940359_);enable-background:new    ;">
		<image style="overflow:visible;" width="512" height="73" xlink:href="2C9EB6DB.png"  transform="matrix(1 0 0 1 0 -5.9042)">
		</image>
	</g>
</g>
<g class="st1">
	<path class="st2" d="M268.2,4.7c0-2.7,1.8-4.4,4.1-4.4c0.8,0,1.8,0.2,2.8,0.6v1.9h-0.1c-0.6-0.9-1.5-2-2.6-2
		c-1.4,0-2.5,1.7-2.5,3.9c0,2.3,1.2,4,2.5,4c0.9,0,1.9-1,2.6-2h0.1v2c-0.9,0.3-1.9,0.6-2.9,0.6C270,9.2,268.2,7.4,268.2,4.7z"/>
</g>
<g>
	<g class="st1">
		<path class="st2" d="M0,56.7V56h5.7v0.7H0z M11,50.3c2.4,0,4.3,2.1,4.3,5.2s-1.7,5.2-4.3,5.2c-1.4,0-2.3-0.3-3.4-0.7l0.5-2.9h0.1
			c0.9,1.5,2,2.9,2.9,2.9s1.1-1.4,1.1-3.9c-0.5,0.4-1.3,0.7-2.2,0.7c-2,0-3-1.4-3-3C7,51.7,8.8,50.3,11,50.3z M11,50.9
			c-0.7,0-1.1,0.9-1.1,2.1c0,1.1,0.4,2.7,1.4,2.7c0.2,0,0.5-0.1,0.8-0.2C12.1,53.3,12.1,50.9,11,50.9z"/>
		<g>
			<path class="st2" d="M20.1,49.6c-1.2,0-2,0.9-2,2c0,1,0.8,2,2,2s2-0.9,2-2C22.1,50.5,21.3,49.6,20.1,49.6z M20.1,53
				c-0.8,0-1.3-0.7-1.3-1.4c0-0.7,0.5-1.4,1.3-1.4s1.4,0.7,1.4,1.4C21.5,52.3,20.9,53,20.1,53z"/>
			<g>
				<path class="st2" d="M22.1,55.6c0-3.1,2.1-5.2,4.8-5.2c0.9,0,2.1,0.2,3.3,0.6v2.2H30c-0.7-1-1.8-2.3-3-2.3c-1.6,0-2.9,2-2.9,4.6
					c0,2.6,1.3,4.6,2.9,4.6c1.1,0,2.2-1.1,3-2.3h0.1v2.3c-1.1,0.4-2.2,0.6-3.3,0.6C24.2,60.7,22.1,58.6,22.1,55.6z"/>
			</g>
		</g>
	</g>
	<g>
		<path class="st2" d="M251.6,60.6c-2.5,0-4.4-2-4.4-5.1s1.9-5.1,4.4-5.1s4.4,2,4.4,5.1S254.1,60.6,251.6,60.6z M251.6,59.9
			c1.2,0,1.2-2.8,1.2-4.5s0-4.4-1.2-4.4c-1.2,0-1.2,2.8-1.2,4.4C250.4,57.2,250.4,59.9,251.6,59.9z"/>
		<g>
			<path class="st2" d="M260.8,49.6c-1.2,0-2,0.9-2,2c0,1,0.8,2,2,2c1.2,0,2-0.9,2-2C262.8,50.5,261.9,49.6,260.8,49.6z M260.8,53
				c-0.8,0-1.3-0.7-1.3-1.4c0-0.7,0.5-1.4,1.3-1.4s1.4,0.7,1.4,1.4C262.2,52.3,261.6,53,260.8,53z"/>
			<g>
				<path class="st2" d="M262.8,55.6c0-3.1,2.1-5.2,4.8-5.2c0.9,0,2.1,0.2,3.3,0.6v2.2h-0.1c-0.7-1-1.8-2.3-3-2.3
					c-1.6,0-2.9,2-2.9,4.6c0,2.6,1.3,4.6,2.9,4.6c1.1,0,2.2-1.1,3-2.3h0.1v2.3c-1.1,0.4-2.2,0.6-3.3,0.6
					C264.9,60.7,262.8,58.6,262.8,55.6z"/>
			</g>
		</g>
	</g>
	<g>
		<path class="st2" d="M491.9,50.3c2.4,0,4.3,2.1,4.3,5.2s-1.7,5.2-4.3,5.2c-1.4,0-2.3-0.3-3.4-0.7l0.5-2.9h0.1
			c0.9,1.5,2,2.9,2.9,2.9s1.1-1.4,1.1-3.9c-0.5,0.4-1.3,0.7-2.2,0.7c-2,0-3-1.4-3-3C487.8,51.7,489.7,50.3,491.9,50.3z M491.9,50.9
			c-0.7,0-1.1,0.9-1.1,2.1c0,1.1,0.4,2.7,1.4,2.7c0.2,0,0.5-0.1,0.8-0.2C493,53.3,493,50.9,491.9,50.9z"/>
		<g>
			<path class="st2" d="M501,49.6c-1.2,0-2,0.9-2,2c0,1,0.8,2,2,2c1.2,0,2-0.9,2-2C502.9,50.5,502.1,49.6,501,49.6z M501,53
				c-0.8,0-1.3-0.7-1.3-1.4c0-0.7,0.5-1.4,1.3-1.4s1.4,0.7,1.4,1.4C502.4,52.3,501.8,53,501,53z"/>
			<g>
				<path class="st2" d="M502.9,55.6c0-3.1,2.1-5.2,4.8-5.2c0.9,0,2.1,0.2,3.3,0.6v2.2h-0.1c-0.7-1-1.8-2.3-3-2.3
					c-1.6,0-2.9,2-2.9,4.6c0,2.6,1.3,4.6,2.9,4.6c1.1,0,2.2-1.1,3-2.3h0.1v2.3c-1.1,0.4-2.2,0.6-3.3,0.6
					C505,60.7,502.9,58.6,502.9,55.6z"/>
			</g>
		</g>
	</g>
</g>
</svg>
