<svg width="201" height="141" viewBox="0 0 201 141" fill="none" xmlns="http://www.w3.org/2000/svg">
<path d="M66.4 135.952V136H64.456V135.952C64.504 135.736 64.732 134.956 64.732 134.212V131.788C64.732 131.032 64.504 130.264 64.456 130.036V130H66.124V130.924C66.604 130.3 67.168 129.928 67.924 129.928C68.656 129.928 69.34 130.276 69.628 131.068C70.12 130.36 70.72 129.928 71.536 129.928C72.496 129.928 73.372 130.528 73.372 131.956V134.212C73.372 134.956 73.6 135.736 73.648 135.952V136H71.704V135.952C71.752 135.736 71.98 134.956 71.98 134.212V132.136C71.98 131.236 71.404 130.864 70.804 130.864C70.432 130.864 70.084 131.032 69.7 131.344C69.748 131.524 69.772 131.728 69.772 131.956V134.212C69.772 134.956 70 135.736 70.048 135.952V136H68.092V135.952C68.14 135.736 68.368 134.956 68.368 134.212V132.136C68.368 131.236 67.78 130.864 67.18 130.864C66.82 130.864 66.472 131.02 66.124 131.308V134.212C66.124 134.956 66.352 135.736 66.4 135.952ZM76.1561 136.096C74.9081 136.096 74.2241 135.184 74.2241 134.26C74.2241 132.94 75.6281 132.16 77.2361 132.376C77.5001 132.412 77.7521 132.46 77.9441 132.52V131.776C77.9441 130.876 77.5961 130.396 77.0801 130.396C76.3481 130.396 74.9321 131.548 74.6921 131.884H74.6441V130.396C75.5801 130.084 76.5161 129.928 77.1641 129.928C78.6161 129.928 79.3601 130.684 79.3601 131.836V134.596C79.3601 135.232 79.6121 135.472 80.1281 135.268L80.1401 135.304C80.0201 135.748 79.6361 136.06 79.0961 136.06C78.4961 136.06 78.1001 135.736 77.9801 135.172C77.6441 135.64 77.0441 136.096 76.1561 136.096ZM75.7121 134.092C75.7121 134.8 76.2161 135.316 76.8881 135.316C77.2841 135.316 77.6441 135.124 77.9441 134.776V132.88C77.8841 132.88 77.8241 132.868 77.7641 132.856C76.4201 132.64 75.7121 133.288 75.7121 134.092ZM80.3848 136.012C80.5528 135.88 81.1528 135.352 81.5128 134.872L82.7128 133.288L81.4768 131.524C81.0688 130.9 80.4448 130.228 80.2528 130.048V130H82.7128V130.036C82.6528 130.252 82.6528 130.756 83.0008 131.26L83.7808 132.388L84.6568 131.2C85.0168 130.72 84.9568 130.204 84.8968 130.024V130H86.3848V130.036C86.2168 130.168 85.6168 130.708 85.2568 131.176L84.0568 132.772L85.2328 134.476C85.6648 135.1 86.3128 135.76 86.5168 135.952V136H84.0088V135.964C84.0688 135.748 84.0688 135.244 83.7208 134.728L82.9768 133.684L82.1128 134.86C81.7528 135.34 81.8128 135.844 81.8728 136.024V136.06H80.3848V136.012ZM89.1738 133.996L93.2898 127.36H94.6098V133.492H95.8578V133.996H94.6098V134.224C94.6098 134.98 94.8378 135.772 94.8858 136H92.8338C92.8818 135.772 93.1098 134.98 93.1098 134.224V133.996H89.2578L89.2698 133.984L89.1738 133.996ZM90.0498 133.492H93.1098V128.596L90.0498 133.492ZM99.7118 136.096C97.7558 136.096 96.2318 134.296 96.2318 131.644C96.2318 129.064 97.7558 127.264 99.7118 127.264C101.668 127.264 103.204 129.064 103.204 131.644C103.204 134.296 101.668 136.096 99.7118 136.096ZM99.7118 135.604C101.044 135.604 101.512 133.588 101.512 131.632C101.512 129.712 101.032 127.756 99.7118 127.756C98.3798 127.756 97.9238 129.796 97.9238 131.656C97.9238 133.636 98.3918 135.604 99.7118 135.604ZM109.206 136.108C107.718 136.108 106.314 135.052 106.314 133C106.314 131.044 107.55 129.928 109.254 129.928C110.154 129.928 110.922 130.264 111.438 130.492L111.45 132.1H111.402C110.982 131.404 110.202 130.36 109.29 130.36C108.306 130.36 107.85 131.428 107.85 132.628C107.862 134.116 108.522 135.148 109.83 135.148C110.358 135.148 111.006 134.98 111.69 134.404L111.726 134.428C111.354 135.328 110.454 136.108 109.206 136.108ZM114.282 135.952V136H112.338V135.952C112.386 135.736 112.614 134.956 112.614 134.212V131.788C112.614 131.032 112.386 130.264 112.338 130.036V130H114.006V130.924C114.486 130.3 115.05 129.928 115.806 129.928C116.538 129.928 117.222 130.276 117.51 131.068C118.002 130.36 118.602 129.928 119.418 129.928C120.378 129.928 121.254 130.528 121.254 131.956V134.212C121.254 134.956 121.482 135.736 121.53 135.952V136H119.586V135.952C119.634 135.736 119.862 134.956 119.862 134.212V132.136C119.862 131.236 119.286 130.864 118.686 130.864C118.314 130.864 117.966 131.032 117.582 131.344C117.63 131.524 117.654 131.728 117.654 131.956V134.212C117.654 134.956 117.882 135.736 117.93 135.952V136H115.974V135.952C116.022 135.736 116.25 134.956 116.25 134.212V132.136C116.25 131.236 115.662 130.864 115.062 130.864C114.702 130.864 114.354 131.02 114.006 131.308V134.212C114.006 134.956 114.234 135.736 114.282 135.952Z" fill="white"/>
<g clip-path="url(#clip0_1510_26)">
<path d="M11.218 45.4093C10.8059 45.0239 10.3551 44.6771 9.89149 44.356C7.43168 42.6732 4.44384 41.9795 1.53328 41.3116C1.27571 41.2473 0.966624 41.2088 0.773445 41.4015C0.683295 41.4914 0.644659 41.6327 0.631781 41.774C0.580266 43.0329 2.70523 43.3926 2.8469 44.6386" stroke="white" stroke-miterlimit="10"/>
<path d="M2.00977 41.3886C3.46505 41.774 4.2764 43.3926 4.28928 44.8955C4.30215 46.3984 3.68398 47.8114 3.18172 49.2245C2.67945 50.6375 2.25446 52.1661 2.6537 53.6177C3.50368 53.1424 4.92033 52.8598 5.19078 53.7975C5.38396 54.4655 4.70139 55.0435 4.35367 55.6473C3.70974 56.752 4.35367 58.3963 5.57714 58.7688C6.27258 58.9871 7.05817 58.8458 7.7021 59.1927C8.29452 59.5138 8.6036 60.1689 9.0286 60.6956C9.45359 61.2223 10.2005 61.6462 10.7801 61.2994C11.4369 60.9012 11.2695 59.9377 11.3596 59.1798C11.5142 57.831 12.8149 56.7263 14.1672 56.8034C15.5194 56.8805 16.7042 58.1265 16.7042 59.4753C16.7042 59.668 16.6785 59.8607 16.5883 60.0276C16.0989 60.9397 14.4891 60.1176 13.7293 60.8241C13.0467 61.4535 13.6778 62.661 13.2914 63.496C12.802 64.5108 11.0763 64.5108 10.7415 65.5898C10.4968 66.3862 11.2308 67.1441 11.9778 67.5295C12.7248 67.9149 13.6005 68.1718 14.0512 68.8783C14.5793 69.7133 14.2831 70.8051 14.1414 71.7814C13.9997 72.7577 14.1929 74.0294 15.1459 74.312C15.7383 74.4918 16.3823 74.1964 17.0004 74.2478C18.7648 74.3891 19.383 77.0353 21.1216 77.3436C22.4996 77.5876 23.9162 76.2003 25.1912 76.7655C25.4617 76.8811 25.7193 77.0995 26.0155 77.1252C27.1359 77.2279 27.3935 74.9671 28.4882 75.1855C29.6343 75.4167 29.2995 78.0115 30.4328 77.7032C30.6904 77.639 30.8578 77.4078 31.0252 77.2151C31.9139 76.1361 33.704 75.3653 34.6055 76.4187C35.5585 77.5362 34.5153 79.5659 35.5714 80.5935C36.0479 81.0559 36.782 81.1202 37.2971 81.5312C38.1213 82.2249 37.941 83.6379 37.1941 84.4087C36.4471 85.1794 35.3267 85.4748 34.2578 85.6675C32.5707 85.9887 30.7677 86.1557 29.1707 85.5134C28.3465 85.1794 27.5995 84.6399 26.7495 84.4087C25.8996 84.1774 24.8049 84.3573 24.3928 85.1537C24.1738 85.5776 24.1867 86.0914 23.9678 86.5153C23.5556 87.3375 22.461 87.5301 21.5466 87.4531C20.6322 87.376 19.6921 87.0934 18.8034 87.3503C17.9663 87.5944 17.1164 88.3137 16.3308 87.9412C15.1588 87.4017 15.8671 85.4877 15.1331 84.4215C14.6565 83.715 13.6778 83.5737 12.9823 83.0856C12.274 82.5846 11.8619 81.634 12.1195 80.799C12.377 79.9641 13.3687 79.4117 14.1929 79.7072C13.4717 79.2062 13.8581 77.9987 14.605 77.5362C15.352 77.0738 16.2792 77.0481 17.1035 76.7527C17.9019 76.4701 18.5974 75.9177 19.0739 75.2112" stroke="white" stroke-miterlimit="10"/>
<path d="M30.0977 85.2565C31.3984 86.2456 31.4628 88.5449 33.0211 89.0459C35.4036 89.8167 36.7173 85.3592 39.2157 85.5262C40.452 85.6161 41.3149 86.8493 42.4997 87.209C45.6679 88.1467 48.2307 82.6103 51.3087 83.8049C51.9526 84.0618 52.4678 84.5885 53.1503 84.7298C54.2708 84.961 55.3011 84.0618 56.4215 83.8049C57.5548 83.548 58.7139 83.9591 59.8601 84.1132C62.204 84.4215 64.5479 83.6122 66.9047 83.381C69.1069 83.1626 71.322 83.4452 73.5114 83.7278C77.478 84.2417 81.4446 84.7426 85.4112 85.2565C86.5703 85.4106 87.974 85.7318 88.3218 86.8493C88.5278 87.4916 88.296 88.211 88.4892 88.8532C88.8369 89.958 90.2407 90.3176 91.3869 90.1507C92.5331 89.9837 93.6277 89.4698 94.7739 89.5341C97.4012 89.6625 98.9724 92.5528 101.394 93.5933C102.437 94.0429 103.828 94.3255 104.072 95.4302C104.188 95.9697 103.969 96.5863 104.265 97.0616C104.549 97.524 105.18 97.614 105.721 97.5754C107.962 97.4084 109.945 95.867 112.199 95.8027C113.886 95.7514 115.521 96.5221 117.196 96.3551C119.591 96.111 121.355 94.03 122.566 91.9619C123.313 90.6902 124.008 89.3028 125.232 88.4679C125.966 87.9669 126.829 87.71 127.666 87.4531C130.628 86.5667 133.603 85.6932 136.565 84.8069" stroke="white" stroke-miterlimit="10"/>
<path d="M136.457 84.7171C137.594 84.1486 140.814 85.6161 142.012 84.4986C142.63 83.9205 142.823 83.0213 143.416 82.4176C144.279 81.5312 145.669 81.5312 146.841 81.133C148.168 80.6834 149.25 79.6815 150.19 78.6538C151.323 77.4206 152.353 76.0975 153.281 74.6845C154.247 73.2073 155.122 71.4474 154.697 69.7261" stroke="white" stroke-miterlimit="10"/>
<path d="M128.592 87.5301C130.163 86.9906 132.018 87.3246 133.305 88.378C134.271 89.1744 134.877 90.2919 135.701 91.2297C136.525 92.1674 137.71 92.9638 138.933 92.7326C140.672 92.3986 141.432 90.292 142.99 89.457C144.664 88.5706 146.944 89.3028 148.451 88.1596C149.867 87.0805 149.88 84.8326 151.232 83.6636C151.876 83.1112 152.726 82.88 153.538 82.6103C158.393 80.9917 162.54 77.3692 164.781 72.7834" stroke="white" stroke-miterlimit="10"/>
<path d="M148.965 87.56C151.284 87.4444 155.058 87.7485 156.771 89.3157C158.097 90.5232 158.664 92.5271 160.248 93.3877C162.463 94.5952 165.232 92.8996 167.692 93.4648C168.503 93.6575 169.263 94.0943 170.087 94.1585C170.95 94.2356 171.8 93.9016 172.599 93.5547C175.059 92.4629 177.39 91.0884 179.515 89.4441C180.931 88.3651 182.374 87.1191 184.151 86.9521C186.314 86.7466 188.233 88.211 190.023 89.4313C191.814 90.6516 194.145 91.7307 196.089 90.7672C197.339 90.1507 198.098 88.789 198.292 87.4145C198.485 86.0401 198.201 84.6399 197.815 83.2911C197.429 81.9166 196.926 80.4907 197.248 79.1034C197.416 78.3712 197.815 77.6647 197.738 76.9197C197.622 75.6865 196.257 74.813 196.231 73.5669C196.205 72.6549 196.939 71.7172 196.54 70.895C196.141 70.0472 194.724 69.6876 194.904 68.7755C194.969 68.4287 195.278 68.1975 195.497 67.9277C196.051 67.2983 196.257 66.322 195.832 65.6026C195.407 64.8833 194.248 64.6649 193.681 65.2944C193.153 63.6116 195.445 61.6719 194.376 60.2589C193.552 59.167 191.852 59.8863 190.526 60.2589C188.427 60.8626 186.083 60.2203 184.344 58.8972C182.605 57.5741 181.408 55.6344 180.661 53.592C180.313 52.6543 180.068 51.5881 180.506 50.7017C181.034 49.6355 182.335 49.2502 183.417 48.7492C184.499 48.2482 185.619 47.182 185.246 46.0516C184.898 44.9854 183.533 44.7285 182.541 44.1761C181.356 43.5082 180.596 42.1465 180.661 40.7849C180.699 39.7829 180.97 38.4598 180.055 38.0616C179.141 37.6634 178.214 38.8195 177.222 38.7167C176.089 38.6011 175.806 37.0982 175.767 35.9549C175.728 34.8117 175.213 33.3087 174.08 33.4372C173.732 33.4757 173.423 33.6941 173.127 33.8996C171.981 34.7217 170.809 35.5952 169.456 36.0192C168.104 36.4431 166.481 36.3146 165.451 35.3383C163.79 33.7583 164.485 30.9451 165.734 29.0311C166.224 28.2861 166.803 27.4254 166.559 26.5648C166.43 26.128 166.095 25.7683 165.747 25.4729C163.97 23.9828 161.575 23.546 159.295 23.1478C158.754 23.0579 158.2 22.968 157.685 23.1478C157.016 23.3791 156.578 24.0213 156.23 24.6508C155.419 26.0895 154.762 27.631 153.757 28.9412C152.753 30.2515 151.285 31.3433 149.623 31.3819C147.627 31.4333 145.94 30.0074 144.472 28.6843C144.008 28.2604 143.519 27.8108 143.351 27.1942C143.184 26.5776 143.519 25.8069 144.15 25.7426" stroke="white" stroke-miterlimit="10"/>
<path d="M175.908 34.6704C176.874 34.452 177.582 33.6299 178.123 32.7949C178.664 31.9599 179.154 31.0607 179.965 30.4827C180.776 29.9046 182.051 29.8276 182.657 30.6111C183.507 31.703 182.476 33.3473 182.966 34.6447C183.236 35.3769 183.944 35.8522 184.357 36.5201C185.078 37.7276 184.666 39.2819 184.279 40.6307C183.893 41.9795 183.584 43.5852 184.46 44.7028" stroke="white" stroke-miterlimit="10"/>
<path d="M166.662 27.9393C166.662 28.543 167.267 29.0054 167.873 29.0568C168.478 29.1082 169.058 28.8641 169.611 28.6072C170.165 28.3503 170.745 28.1062 171.35 28.1576C172.097 28.209 172.779 28.7614 172.986 29.4679C173.076 29.7762 173.089 30.1102 173.153 30.4185C173.333 31.3433 173.939 32.1269 174.531 32.8591" stroke="white" stroke-miterlimit="10"/>
<path d="M143.441 25.627C139.835 21.5421 135.469 18.1252 130.64 15.6203C130.099 16.6479 129.906 17.8554 130.112 18.9987C129.197 19.7437 127.909 18.7032 127.304 17.7013C125.437 14.6183 124.561 10.9445 124.844 7.3477C124.922 6.33289 125.089 5.26671 124.728 4.31613C124.368 3.36555 123.26 2.58197 122.32 3.00588C122.037 3.13433 121.792 3.36555 121.483 3.36555C120.697 3.36555 120.697 2.20945 120.363 1.50294C119.796 0.282601 117.838 0.488131 116.95 1.50294C116.061 2.51774 115.868 3.93076 115.482 5.22817C114.091 9.86544 109.789 13.2182 105.114 14.4899C100.439 15.7616 95.4424 15.2092 90.7417 14.0274C89.7887 13.7834 88.5266 13.6292 88.0372 14.477C87.741 14.978 87.8827 15.6074 87.96 16.1855C88.6941 21.0797 85.0108 25.7426 80.5548 27.9007C76.0988 30.0588 70.9989 30.3542 66.0792 30.8937C64.0444 31.1121 61.9195 31.4204 60.2324 32.5894C56.9612 34.8759 56.5491 39.4361 56.1756 43.3926C56.1499 43.688 56.0983 44.0091 55.8536 44.1761C55.609 44.3431 55.1711 44.0991 55.3127 43.8293" stroke="white" stroke-miterlimit="10"/>
<path d="M57.8256 36.0063C57.4779 30.4827 60.1051 24.8691 64.574 21.6064C66.4672 20.219 68.6565 19.2299 70.3307 17.5985C72.1209 15.8644 73.1898 13.5136 74.8254 11.6253C76.2549 9.96821 78.1481 8.65795 80.2859 8.20836C82.4237 7.75876 84.8063 8.24689 86.4161 9.73699C86.854 10.148 87.2403 10.6233 87.4206 11.1885C88.0002 12.9998 86.429 15.0808 87.2403 16.8149" stroke="white" stroke-miterlimit="10"/>
<path d="M125.051 5.52362L126.931 5.35663C126.802 6.42282 127.086 7.96429 128.167 7.87437C128.657 7.83584 129.043 7.41193 129.533 7.3477C130.666 7.2064 130.988 8.8121 131.065 9.95536C131.155 11.2656 131.516 12.5502 132.134 13.7063C132.379 14.1816 132.726 14.6697 133.254 14.7596C134.156 14.9266 134.787 13.8604 134.89 12.9612C134.993 12.062 134.916 11.0216 135.547 10.3664C136.745 9.1204 139.076 10.5077 140.518 9.5443C140.853 9.32593 141.136 8.9791 141.535 8.96625C142.36 8.92771 142.501 10.1352 142.308 10.9316C141.819 12.9484 141.201 14.9395 140.454 16.8792C140.956 16.8792 141.458 17.0718 141.844 17.393C141.201 18.1894 140.582 19.4483 141.355 20.1163C142.102 20.7585 143.274 20.0649 144.214 20.3346C145.528 20.7072 145.657 22.5441 146.635 23.4947C147.099 23.9314 147.717 24.1498 148.322 24.3553C150.447 25.0747 152.572 25.794 154.697 26.5134" stroke="white" stroke-miterlimit="10"/>
<path d="M54.9399 44.1247L51.2437 44.3174C50.4324 44.356 49.4407 44.523 49.1445 45.2809" stroke="white" stroke-miterlimit="10"/>
<path d="M44.6367 49.8282C46.4912 50.4448 48.745 49.4428 49.5306 47.6573" stroke="white" stroke-miterlimit="10"/>
<path d="M49.376 47.9913C48.526 47.0921 48.2169 45.8075 48.1782 44.5743C48.1396 43.3412 48.3328 42.1208 48.3457 40.8876C48.3972 37.3551 47.0192 33.9895 45.6669 30.7268C45.4222 30.1359 44.8813 29.4165 44.3018 29.7119C44.0829 29.8276 43.9541 30.0588 43.8897 30.3028C43.5291 31.703 45.023 32.8206 45.6669 34.118C46.2593 35.3383 46.0919 36.777 45.8343 38.113C45.1003 41.9538 43.8124 45.6791 42.0352 49.1602" stroke="white" stroke-miterlimit="10"/>
<path d="M44.3662 42.4163C44.3018 38.9351 42.8079 35.4925 40.2966 33.0647C39.833 32.6151 39.086 32.1912 38.5966 32.6151C38.0557 33.0775 38.4936 33.9382 38.8799 34.5419C40.6443 37.3166 40.6057 40.9005 39.6784 44.0477C39.3693 45.1139 38.9572 46.1672 38.2747 47.0407C37.3989 48.1711 36.1626 48.9419 34.9777 49.7511C33.0331 51.0871 31.2172 52.59 29.543 54.2471" stroke="white" stroke-miterlimit="10"/>
<path d="M39.1504 46.437C39.7943 45.0625 40.992 43.9449 42.4216 43.4054" stroke="white" stroke-miterlimit="10"/>
<path d="M10.9082 45.1652C14.9134 47.4389 18.9058 49.6998 22.9111 51.9734C23.98 52.5772 25.0618 53.1938 26.2208 53.5534C27.3155 53.9003 28.7451 53.9003 29.3246 52.9112" stroke="white" stroke-miterlimit="10"/>
<path d="M16.2402 61.0039C16.7425 60.7599 17.3349 61.1067 17.7084 61.5306C18.0819 61.9545 18.3652 62.4812 18.8675 62.7252C19.5243 63.0464 20.3227 62.8023 20.9538 62.4298C21.5849 62.0573 22.1644 61.5691 22.8727 61.3764C24.5083 60.9397 26.1568 62.2628 27.8438 62.1472C28.681 62.0958 29.4794 61.6847 30.3294 61.6847C31.3339 61.6847 32.3127 62.2885 33.3044 62.1086C34.7468 61.8517 35.4036 60.1946 35.8028 58.7816" stroke="white" stroke-miterlimit="10"/>
<path d="M128.336 38.3185C129.302 38.9608 130.744 38.7553 131.543 39.6031C131.955 40.0398 132.084 40.6564 132.199 41.2345C132.406 42.2621 132.547 43.5082 131.774 44.2147C131.259 44.69 130.396 44.7413 129.83 44.3303C129.07 43.7779 128.838 42.5704 127.937 42.3264C127.164 42.108 126.378 42.7503 125.593 42.6218C124.962 42.519 124.459 41.8639 124.55 41.2216C124.64 40.5794 125.284 40.0784 125.928 40.1426" stroke="white" stroke-miterlimit="10"/>
<path d="M119.461 44.3174C119.937 44.5487 120.092 45.1524 120.118 45.6791C120.143 46.2057 120.118 46.7838 120.401 47.2205C120.659 47.6188 121.161 47.8371 121.625 47.7601C122.822 47.5545 123.286 45.7176 124.496 45.6791C124.973 45.6662 125.54 45.9231 125.874 45.5892C126.042 45.4222 126.081 45.1652 126.106 44.934C126.145 44.523 126.196 44.0991 126.003 43.7265C125.81 43.354 125.334 43.1099 124.986 43.3412" stroke="white" stroke-miterlimit="10"/>
<path d="M116.05 36.7257C115.779 37.7405 114.53 38.1387 113.487 38.0359C112.998 37.9845 112.431 37.9075 112.083 38.2543C111.684 38.6525 111.916 39.3719 112.341 39.7444C112.766 40.1169 113.332 40.2839 113.796 40.605C114.582 41.1446 115.02 42.1337 114.904 43.0843C114.775 44.0862 114.105 45.1781 114.685 46.0131C115.045 46.5269 115.792 46.6682 116.398 46.5012C117.003 46.3342 117.518 45.9231 118.007 45.5378" stroke="white" stroke-miterlimit="10"/>
<path d="M119.346 31.8315C118.625 32.538 118.702 33.9895 119.642 34.3364C120.711 34.7217 121.896 33.5014 122.965 33.9125C123.738 34.2079 124.034 35.2356 124.794 35.5696C125.966 36.0834 127.163 34.6447 128.438 34.7217C128.863 34.7474 129.263 34.9401 129.675 34.9401C130.731 34.9401 131.426 33.617 131.066 32.6279C130.705 31.6388 129.61 31.0736 128.567 30.9965C127.524 30.9194 126.481 31.2534 125.476 31.5874" stroke="white" stroke-miterlimit="10"/>
<path d="M99.4997 32.538C100.169 33.206 100.646 34.0538 100.878 34.9787C100.942 35.2227 100.955 35.5439 100.749 35.6852C100.62 35.7751 100.44 35.7494 100.285 35.7237C99.152 35.5439 98.0058 35.3769 96.8725 35.197C96.0225 35.0686 94.9922 35.0044 94.4642 35.6723C94.0521 36.1861 94.1165 36.944 93.743 37.4964C93.318 38.1258 92.4551 38.2928 91.7082 38.2029C90.7423 38.0873 89.7377 37.5478 89.4415 36.6229C89.1453 35.698 89.9438 34.4905 90.9097 34.6832C91.1158 34.7217 91.3089 34.8245 91.5279 34.8117C92.0688 34.786 92.3263 34.1308 92.3135 33.5913C92.3006 33.0518 92.1589 32.4738 92.4294 32.0113C92.7256 31.4975 93.3824 31.3562 93.9748 31.2663C95.1081 31.0864 96.2414 30.8937 97.3876 30.7139" stroke="white" stroke-miterlimit="10"/>
<path d="M95.0831 40.6564C95.5468 41.0418 95.3665 41.8511 94.8771 42.2108C94.3877 42.5704 93.7566 42.6218 93.1513 42.6218C92.546 42.6218 91.915 42.6218 91.387 42.9173C91.2195 43.02 91.0521 43.1485 90.9749 43.3283C90.8332 43.6495 90.9749 44.0348 91.1938 44.3174C92.0309 45.4093 93.6278 45.5892 94.9801 45.3066C95.7657 45.1396 96.5384 44.857 97.3369 44.8313C98.1354 44.8056 99.024 45.1267 99.3717 45.8589C99.7065 44.69 100.93 43.8421 102.153 43.9321C102.656 43.9706 103.158 44.1504 103.66 44.1247C104.974 44.0734 105.875 42.776 106.287 41.5299C106.442 41.0803 106.558 40.5922 106.416 40.1298C106.197 39.3976 105.425 38.9993 104.691 38.7553C102.991 38.1901 101.136 38.0873 99.3717 38.4341C98.8952 38.5241 98.38 38.6782 98.0838 39.0764C97.7876 39.4746 97.9035 40.1683 98.3672 40.2839" stroke="white" stroke-miterlimit="10"/>
<path d="M131.142 55.7244C130.46 55.9042 129.841 56.3923 129.623 57.0603C129.404 57.7283 129.713 58.5632 130.369 58.8202C130.949 59.0514 131.696 58.833 132.16 59.2569C132.43 59.501 132.507 59.8863 132.765 60.1433C132.971 60.3488 133.267 60.4387 133.55 60.4772C134.748 60.5929 135.92 59.5138 135.907 58.3063C135.907 57.9467 135.843 57.5099 136.126 57.2915C136.229 57.2145 136.384 57.1759 136.435 57.0475C136.487 56.919 136.41 56.7777 136.319 56.6749C135.688 55.9042 134.71 55.4289 133.705 55.4289" stroke="white" stroke-miterlimit="10"/>
<path d="M136.602 55.2105C137.156 56.1483 137.877 57.2016 138.959 57.253C139.796 57.2915 140.582 56.6492 140.801 55.84C141.02 55.0307 140.724 54.1443 140.144 53.5278C140.582 53.1424 141.29 53.3736 141.818 53.1039C142.488 52.7699 142.539 51.7808 142.114 51.177C141.689 50.5733 140.968 50.265 140.273 49.9824C139.5 49.6741 138.676 49.3786 137.852 49.5071C137.053 49.6355 136.383 50.1494 135.649 50.4705C134.671 50.9072 133.537 50.9972 132.494 50.7403" stroke="white" stroke-miterlimit="10"/>
<path d="M143.094 55.0307C143.313 56.1483 144.652 56.8933 145.721 56.4823C146.738 56.084 147.395 54.8765 148.49 54.8509C149.34 54.838 150.113 55.5831 150.937 55.3904C151.825 55.1848 152.122 54.0287 151.916 53.1552C151.697 52.2432 151.04 51.3825 150.125 51.2155C149.7 51.1385 149.275 51.2155 148.85 51.2155C148.078 51.2027 147.318 50.8816 146.777 50.342C146.326 49.9053 146.017 49.3272 145.579 48.8905C145.141 48.4537 144.459 48.1326 143.879 48.3767C143.3 48.6207 143.171 49.6355 143.763 49.8411" stroke="white" stroke-miterlimit="10"/>
<path d="M127.073 59.3982C126.069 59.745 125.077 60.169 124.137 60.6699C123.416 61.0553 122.604 61.8003 122.952 62.5582C123.261 63.2262 124.201 63.2134 124.91 63.0335C125.618 62.8537 126.468 62.6353 127.009 63.1363C127.46 63.5602 127.434 64.2796 127.614 64.8705C127.898 65.7953 128.748 66.4376 129.61 66.8872C130.473 67.324 131.735 67.5295 132.238 66.7074C132.431 66.3991 132.444 66.0137 132.573 65.6669C132.701 65.32 132.998 64.9861 133.358 65.0503C133.551 65.0888 133.757 65.2301 133.912 65.1145C134.028 65.0374 134.041 64.8833 134.028 64.742C133.963 63.83 133.345 62.9821 132.508 62.6353" stroke="white" stroke-miterlimit="10"/>
<path d="M135.895 62.9693C136.255 63.3804 136.423 63.907 136.719 64.3566C137.015 64.8062 137.517 65.2044 138.045 65.1017C138.754 64.9604 138.998 64.0355 138.831 63.3418C138.792 63.1748 138.728 62.9821 138.805 62.828C138.921 62.5839 139.282 62.5839 139.526 62.6995C139.771 62.8152 140.003 62.9821 140.273 62.9821C140.647 62.9821 140.956 62.6225 140.994 62.2499C141.033 61.8774 140.879 61.5177 140.672 61.1966C140.029 60.1946 138.921 59.501 137.736 59.3725" stroke="white" stroke-miterlimit="10"/>
<path d="M119.049 70.8437C118.302 70.3941 117.465 69.9702 116.602 70.0601C115.739 70.15 114.928 71.0492 115.224 71.8585C115.43 72.4237 116.1 72.7191 116.705 72.732C117.311 72.7448 117.903 72.5136 118.483 72.3595C118.843 72.2567 119.255 72.1796 119.577 72.3723C120.015 72.6292 120.067 73.2201 120.286 73.6697C120.608 74.3634 121.342 74.7873 122.101 74.9414C122.861 75.0956 123.634 75.0057 124.394 74.9157C125.334 74.813 126.493 74.5047 126.661 73.5798C126.789 72.9118 126.287 72.2824 125.707 71.9227C125.089 71.5373 124.342 71.3447 123.621 71.396C123.441 71.396 123.248 71.4346 123.093 71.3575C122.604 71.1391 122.758 70.4326 122.771 69.8931C122.771 69.2508 122.411 68.6085 121.857 68.3002C121.303 67.9919 120.556 67.9919 120.015 68.3388" stroke="white" stroke-miterlimit="10"/>
<path d="M159.772 58.1136C159.643 58.7688 160.158 59.3725 160.738 59.7193C161.317 60.0662 161.987 60.246 162.489 60.6828C162.991 61.1195 163.236 61.9802 162.76 62.4426C162.36 62.828 161.678 62.7638 161.266 63.1363C160.764 63.5987 160.957 64.4337 161.214 65.0631C161.472 65.6926 161.729 66.489 161.292 67.0157C160.763 67.6451 159.733 67.324 158.999 66.9386C158.265 66.5404 157.505 66.0908 157.093 65.3714C156.681 64.6521 156.784 63.5602 157.531 63.1748C157.84 63.0078 158.317 62.8151 158.188 62.4812" stroke="white" stroke-miterlimit="10"/>
<path d="M155.599 57.5741C155.238 58.0751 155.74 58.7688 156.268 59.0771C156.797 59.3854 157.479 59.6294 157.685 60.2075C157.93 60.9011 157.157 61.7104 156.462 61.492C156.256 61.4278 156.062 61.2994 155.843 61.3251C155.457 61.3893 155.38 61.8903 155.212 62.2499C154.8 63.1234 153.448 63.1877 152.714 62.5582C151.98 61.9288 151.735 60.8883 151.709 59.9249C151.697 59.3982 151.941 58.6917 152.456 58.7945" stroke="white" stroke-miterlimit="10"/>
<path d="M106.867 45.0111C107.923 45.5763 108.154 47.3362 109.352 47.4775C110.331 47.5931 111.31 46.4627 112.147 46.9636C112.919 47.4132 112.597 48.7106 113.254 49.3144C114.001 50.0209 115.482 49.3272 116.152 50.1237C116.551 50.6118 116.345 51.3825 115.882 51.8064C115.418 52.2303 114.761 52.3716 114.143 52.5001C113.28 52.6799 112.34 52.8598 111.567 52.4616C111.129 52.2432 110.794 51.8578 110.395 51.5752C109.996 51.2926 109.455 51.1128 109.017 51.3311C108.193 51.7551 108.515 53.091 107.91 53.8104C107.33 54.504 106.107 54.2343 105.604 53.4892C105.36 53.1295 105.231 52.6542 105.385 52.2432C105.54 51.8321 106.068 51.5752 106.454 51.7679" stroke="white" stroke-miterlimit="10"/>
<path d="M112.854 55.2748C113.228 55.8657 113.885 56.1868 114.529 56.4823C115.173 56.7777 115.829 57.0732 116.241 57.6255C116.654 58.1779 116.679 59.1028 116.1 59.4881C115.791 59.6937 115.391 59.7065 115.018 59.668C114.387 59.6037 113.756 59.4111 113.125 59.4496C112.494 59.4881 111.798 59.8093 111.618 60.413C111.283 61.5434 112.79 62.828 112.082 63.7657C111.721 64.241 110.948 64.2282 110.459 63.8942C109.97 63.5602 109.673 63.0078 109.403 62.4683C109.223 62.0958 109.029 61.7104 109.042 61.2994C109.055 60.8883 109.313 60.4516 109.725 60.4002C107.948 61.1195 105.694 60.2075 104.908 58.4605C104.805 58.2293 104.715 57.9852 104.535 57.8182C104.277 57.5998 103.839 57.5099 103.801 57.1759C103.775 56.919 104.02 56.7263 104.226 56.585C105.114 56.0198 106.042 55.4931 106.982 55.0179" stroke="white" stroke-miterlimit="10"/>
<path d="M82.2436 39.0636C82.3724 39.8728 81.9603 40.6693 81.8315 41.4786C81.7027 42.2878 82.0762 43.3412 82.9004 43.3797C83.8792 43.4182 84.2398 42.0823 85.064 41.5556C85.5148 41.2602 86.1201 41.2473 86.5966 41.5042C87.0602 41.7612 87.3693 42.2364 87.8716 42.4163C88.6057 42.6732 89.4299 42.0823 89.6746 41.3372C89.9193 40.5922 89.7261 39.7829 89.4428 39.0636" stroke="white" stroke-miterlimit="10"/>
</g>
<path d="M200.002 107L200.002 119.093" stroke="#FEFEFE" stroke-opacity="0.6"/>
<path fill-rule="evenodd" clip-rule="evenodd" d="M0.0742188 107L0.0742189 119.093H1.07422L1.07422 107H0.0742188ZM1.224 113.546L199.347 113.546L199.347 112.546L1.224 112.546L1.224 113.546Z" fill="#FEFEFE" fill-opacity="0.6"/>
<defs>
<clipPath id="clip0_1510_26">
<rect width="199" height="98.2562" fill="white"/>
</clipPath>
</defs>
</svg>
