<?xml version="1.0" encoding="utf-8"?>
<!-- Generator: Adobe Illustrator 26.0.1, SVG Export Plug-In . SVG Version: 6.00 Build 0)  -->
<svg version="1.1" id="Livello_1" xmlns="http://www.w3.org/2000/svg" xmlns:xlink="http://www.w3.org/1999/xlink" x="0px" y="0px"
	 viewBox="0 0 178.7 47.7" style="enable-background:new 0 0 178.7 47.7;" xml:space="preserve">
<style type="text/css">
	.st0{fill:#FFFFFF;}
</style>
<g>
	<g>
		<path class="st0" d="M0,23.8C0,37,10.6,47.7,23.8,47.7C37,47.7,47.7,37,47.7,23.8V0H0V23.8z"/>
	</g>
	<g>
		<path class="st0" d="M76.6,47.3c13,0,23.5-10.5,23.5-23.5S89.7,0.2,76.6,0.2H53.1v47H76.6z"/>
	</g>
	<g>
		<path class="st0" d="M118.7,6.1h1.3v9.3c0,1-0.2,1.8-0.7,2.6c-0.4,0.8-1.1,1.3-1.9,1.8c-0.8,0.4-1.7,0.6-2.8,0.6
			c-1.1,0-2-0.2-2.8-0.7c-0.8-0.4-1.4-1-1.9-1.8c-0.4-0.8-0.7-1.6-0.7-2.6V6.1h1.3v9.2c0,0.7,0.2,1.4,0.5,2s0.8,1,1.4,1.4
			s1.3,0.5,2.1,0.5s1.5-0.2,2.1-0.5s1.1-0.8,1.4-1.4c0.3-0.6,0.5-1.2,0.5-2V6.1z"/>
		<path class="st0" d="M134.2,6.1v14.1H133l-8.3-11.8h-0.1v11.8h-1.3V6.1h1.2l8.3,11.8h0.1V6.1H134.2z"/>
		<path class="st0" d="M138.8,6.1v14.1h-1.3V6.1H138.8z"/>
		<path class="st0" d="M142,20.2V6.1h4.5c1,0,1.8,0.2,2.5,0.5c0.7,0.4,1.2,0.9,1.5,1.5s0.5,1.4,0.5,2.2c0,0.8-0.2,1.5-0.5,2.2
			s-0.8,1.1-1.5,1.5c-0.7,0.4-1.5,0.5-2.5,0.5h-3.9v-1.2h3.8c0.7,0,1.3-0.1,1.8-0.4c0.5-0.2,0.9-0.6,1.1-1c0.2-0.4,0.4-1,0.4-1.6
			s-0.1-1.1-0.4-1.6c-0.2-0.5-0.6-0.8-1.1-1.1c-0.5-0.3-1.1-0.4-1.8-0.4h-3.2v12.9H142z M148.2,13.8l3.5,6.3h-1.5l-3.4-6.3H148.2z"
			/>
		<path class="st0" d="M161.4,9.6c-0.1-0.8-0.4-1.4-1-1.9C159.7,7.3,158.9,7,158,7c-0.7,0-1.2,0.1-1.7,0.3c-0.5,0.2-0.9,0.5-1.2,0.9
			c-0.3,0.4-0.4,0.8-0.4,1.3c0,0.4,0.1,0.7,0.2,1s0.4,0.5,0.6,0.7s0.6,0.4,0.9,0.5c0.3,0.1,0.7,0.3,1,0.4l1.5,0.4
			c0.4,0.1,0.9,0.3,1.3,0.5c0.4,0.2,0.9,0.4,1.2,0.7s0.7,0.6,0.9,1.1c0.2,0.4,0.3,0.9,0.3,1.5c0,0.8-0.2,1.4-0.6,2
			c-0.4,0.6-0.9,1.1-1.7,1.4c-0.7,0.4-1.6,0.5-2.6,0.5c-1,0-1.8-0.2-2.5-0.5s-1.3-0.8-1.7-1.3s-0.6-1.2-0.7-2h1.3
			c0,0.6,0.2,1,0.5,1.4s0.7,0.7,1.2,0.9c0.5,0.2,1.1,0.3,1.7,0.3c0.7,0,1.3-0.1,1.9-0.4c0.5-0.2,1-0.6,1.3-1s0.5-0.9,0.5-1.5
			c0-0.5-0.1-0.9-0.4-1.2c-0.2-0.3-0.6-0.6-1-0.8c-0.4-0.2-1-0.4-1.5-0.6l-1.7-0.5c-1.1-0.3-2-0.8-2.6-1.4c-0.6-0.6-0.9-1.3-0.9-2.2
			c0-0.8,0.2-1.4,0.6-2c0.4-0.6,1-1,1.6-1.3s1.5-0.5,2.3-0.5c0.9,0,1.6,0.2,2.3,0.5s1.2,0.8,1.6,1.3s0.6,1.2,0.6,1.9H161.4z"/>
		<path class="st0" d="M165.4,6.1h1.5l5.1,12.2h0.1l5.1-12.2h1.5v14.1h-1.2V8.8h-0.1l-4.7,11.3h-1.2l-4.7-11.3h-0.1v11.3h-1.2V6.1z"
			/>
		<path class="st0" d="M113.5,39.9h-4.1V25.9h4.4c1.3,0,2.5,0.3,3.4,0.8c1,0.6,1.7,1.4,2.2,2.4c0.5,1,0.8,2.3,0.8,3.8
			c0,1.5-0.3,2.7-0.8,3.8c-0.5,1.1-1.3,1.9-2.3,2.4C116.1,39.7,114.9,39.9,113.5,39.9z M110.7,38.8h2.8c1.2,0,2.2-0.2,3-0.7
			s1.4-1.2,1.8-2c0.4-0.9,0.6-1.9,0.6-3.2c0-1.2-0.2-2.3-0.6-3.1s-1-1.5-1.8-2c-0.8-0.5-1.7-0.7-2.9-0.7h-3V38.8z"/>
		<path class="st0" d="M122.8,39.9V25.9h8.2V27H124v5.3h6.4v1.2H124v5.3h7v1.2H122.8z"/>
		<path class="st0" d="M141.4,29.4c-0.1-0.8-0.4-1.4-1-1.9c-0.6-0.5-1.4-0.7-2.3-0.7c-0.7,0-1.2,0.1-1.7,0.3
			c-0.5,0.2-0.9,0.5-1.2,0.9c-0.3,0.4-0.4,0.8-0.4,1.3c0,0.4,0.1,0.7,0.2,1s0.4,0.5,0.6,0.7s0.6,0.4,0.9,0.5s0.7,0.3,1,0.4l1.5,0.4
			c0.4,0.1,0.9,0.3,1.3,0.5c0.4,0.2,0.9,0.4,1.2,0.7c0.4,0.3,0.7,0.6,0.9,1.1s0.3,0.9,0.3,1.5c0,0.8-0.2,1.4-0.6,2
			c-0.4,0.6-0.9,1.1-1.7,1.4c-0.7,0.4-1.6,0.5-2.6,0.5c-1,0-1.8-0.2-2.5-0.5c-0.7-0.3-1.3-0.8-1.7-1.3c-0.4-0.6-0.6-1.2-0.7-2h1.3
			c0,0.6,0.2,1,0.5,1.4c0.3,0.4,0.7,0.7,1.2,0.9s1.1,0.3,1.7,0.3c0.7,0,1.3-0.1,1.9-0.4s1-0.6,1.3-1c0.3-0.4,0.5-0.9,0.5-1.5
			c0-0.5-0.1-0.9-0.4-1.2c-0.2-0.3-0.6-0.6-1-0.8c-0.4-0.2-1-0.4-1.5-0.6l-1.7-0.5c-1.1-0.3-2-0.8-2.6-1.4c-0.6-0.6-0.9-1.3-0.9-2.2
			c0-0.8,0.2-1.4,0.6-2c0.4-0.6,1-1,1.6-1.3s1.5-0.5,2.3-0.5c0.9,0,1.6,0.2,2.3,0.5s1.2,0.8,1.6,1.3s0.6,1.2,0.6,1.9H141.4z"/>
		<path class="st0" d="M146.7,25.9v14.1h-1.3V25.9H146.7z"/>
		<path class="st0" d="M159.7,30.3c-0.1-0.5-0.3-0.9-0.6-1.3s-0.6-0.8-0.9-1.1c-0.4-0.3-0.8-0.5-1.3-0.7s-1-0.3-1.6-0.3
			c-0.9,0-1.7,0.2-2.5,0.7c-0.7,0.5-1.3,1.2-1.7,2.1c-0.4,0.9-0.6,2-0.6,3.2c0,1.3,0.2,2.3,0.6,3.2c0.4,0.9,1,1.6,1.7,2.1
			s1.6,0.7,2.5,0.7c0.9,0,1.6-0.2,2.3-0.6c0.7-0.4,1.2-0.9,1.6-1.6s0.6-1.6,0.5-2.5l0.4,0.1h-4.5v-1.2h5.3v1.2
			c0,1.2-0.2,2.2-0.7,3.1c-0.5,0.9-1.2,1.5-2,2c-0.8,0.5-1.8,0.7-2.9,0.7c-1.2,0-2.3-0.3-3.2-0.9c-0.9-0.6-1.6-1.4-2.1-2.5
			c-0.5-1.1-0.8-2.4-0.8-3.8c0-1.1,0.1-2.1,0.4-3s0.7-1.6,1.2-2.3c0.5-0.6,1.2-1.1,1.9-1.5c0.7-0.3,1.6-0.5,2.4-0.5
			c0.8,0,1.5,0.1,2.1,0.4s1.2,0.6,1.7,1c0.5,0.4,0.9,0.9,1.2,1.5c0.3,0.6,0.5,1.1,0.6,1.8H159.7z"/>
		<path class="st0" d="M174.8,25.9v14.1h-1.2l-8.3-11.8h-0.1v11.8h-1.3V25.9h1.2l8.3,11.8h0.1V25.9H174.8z"/>
	</g>
</g>
</svg>
