<?xml version="1.0" encoding="utf-8"?>
<!-- Generator: Adobe Illustrator 26.0.1, SVG Export Plug-In . SVG Version: 6.00 Build 0)  -->
<svg version="1.1" id="Livello_1" xmlns="http://www.w3.org/2000/svg" xmlns:xlink="http://www.w3.org/1999/xlink" x="0px" y="0px"
	 viewBox="0 0 111 32" style="enable-background:new 0 0 111 32;" xml:space="preserve">
<style type="text/css">
	.st0{fill:#FFFFFF;}
</style>
<path class="st0" d="M0.2,11L0.2,11c0.2-0.4,0.6-1.2,0.8-2l1.6-6.1C2.9,2.1,2.9,1.3,2.9,1l0,0h1.9v0C4.7,1.3,4.3,2.1,4.1,2.9l-2,7.6
	h2c1,0,2.2-1.1,2.7-1.4h0.1L6.2,11H0.2z M9.3,11.1c-1,0-1.8-0.7-1.3-2.4L8.7,6c0.2-0.8,0.2-1.6,0.2-1.9V4h1.7L9.3,8.5
	c-0.3,1.2,0.1,1.7,0.6,1.7c1.1,0,2.4-1.9,3.1-4L13.6,4h1.3l-1.6,5.7c-0.2,0.7,0.9,0.1,1.8-1.3l0.1,0.1c-0.6,1.4-1.5,2.5-2.4,2.5
	c-0.6,0-1-0.4-0.7-1.4l0.3-1C11.6,9.9,10.5,11.1,9.3,11.1z M15.4,11l1.3-5C17,5.2,17,4.4,17,4.1L17,4h1.5l-0.6,2.5
	C18.6,5.2,19.7,4,21,4c1,0,1.8,0.7,1.3,2.4l-1,3.5c-0.2,0.8,0.9,0.1,1.8-1.3l0.1,0.1c-0.6,1.4-1.5,2.5-2.4,2.5c-0.6,0-1-0.4-0.7-1.4
	l0.9-3.2c0.3-1.2-0.1-1.7-0.6-1.7c-1.1,0-2.4,1.9-3.1,4L16.7,11H15.4z M25.4,13.8c-1.1,0-2.9-0.3-2.4-1.7c0.1-0.5,0.5-1,1-1.3
	c-0.3-0.2-0.4-0.7-0.3-1.1c0.2-0.7,0.8-1.1,1.4-1.3c-0.6-0.4-0.8-1.3-0.5-2.2C25,4.7,26.5,4,27.8,4c0.5,0,1.1,0.1,1.4,0.4
	c0.6-0.7,1.3-1.1,2.1-0.9l-0.5,1.1l0,0c-0.3-0.2-0.8-0.3-1.4-0.1c0.5,0.4,0.7,1.2,0.4,2.1c-0.4,1.6-2,2.3-3.3,2.3
	c-0.4,0-0.8-0.1-1.2-0.3C25,8.7,24.7,9,24.6,9.3c-0.1,0.4,0.3,0.7,0.8,0.7h2c1.3,0,2.1,0.8,1.7,2C28.5,13.6,26.3,13.8,25.4,13.8z
	 M26.7,8.4c0.8,0,1.6-0.8,1.9-1.9c0.3-1.2,0-2.1-0.9-2.1c-0.8,0-1.5,0.7-1.9,1.9C25.5,7.6,25.8,8.4,26.7,8.4z M25.6,13.3
	c1.3,0,2.4-0.6,2.6-1.2c0.1-0.5-0.2-0.9-1.1-0.9h-1.8c-0.3,0-0.6,0-0.8-0.1c-0.4,0.3-0.6,0.7-0.6,1.1C23.8,12.9,24.4,13.3,25.6,13.3
	z M30.3,11l2.2-8.2c0.2-0.8,0.2-1.6,0.2-1.9v0l1.7-0.2l-1.6,5.9C33.5,5.2,34.5,4,35.8,4c1,0,1.8,0.7,1.3,2.4l-1,3.5
	C36,10.5,37,9.9,37.9,8.5L38,8.6c-0.6,1.4-1.5,2.5-2.4,2.5c-0.6,0-1-0.4-0.7-1.4l0.9-3.2c0.3-1.2-0.1-1.7-0.6-1.7
	c-1.1,0-2.4,1.9-3.1,4L31.5,11H30.3z M40.9,11.1c-1.5,0-2.6-1.5-1.9-3.8C39.6,5.2,41.2,4,42.8,4c1.2,0,2.1,0.6,1.9,1.7
	c-0.2,1.1-1.8,2.2-4.5,2c-0.3,1.5,0.2,2.6,1.3,2.6c0.8,0,1.9-0.5,2.8-2l0.1,0.1C43.7,10.1,42.2,11.1,40.9,11.1z M40.3,7.2
	c0,0,0,0.1,0,0.2c2.1,0,3-0.8,3.2-1.7c0.2-0.7-0.1-1.2-0.8-1.2C41.7,4.4,40.7,5.9,40.3,7.2z M44.7,11.1c0.7-2.5,4.2-3.9,5.8-6
	c-0.4,0.2-0.8,0.3-1.3,0.3c-0.7,0-1.1-0.3-1.8-0.3c-0.9,0-1.3,0.5-1.6,0.9h-0.1l0.3-0.9C46.3,4.2,46.8,4,47.5,4
	c1.2,0,2.3,0.8,4.3-0.1c-1,2.7-4.6,4-5.9,6c0.4-0.2,0.8-0.3,1.2-0.3c0.7,0,1.3,0.3,1.9,0.3c0.6,0,1.1-0.3,1.4-0.8h0.1L50.2,10
	c-0.3,0.8-0.7,1.1-1.4,1.1C47.5,11.1,46.8,10.4,44.7,11.1z M51.2,11.1c0.7-2.5,4.2-3.9,5.8-6c-0.4,0.2-0.8,0.3-1.3,0.3
	c-0.7,0-1.1-0.3-1.8-0.3c-0.9,0-1.3,0.5-1.6,0.9h-0.1l0.3-0.9C52.8,4.2,53.4,4,54,4c1.2,0,2.3,0.8,4.3-0.1c-1,2.7-4.6,4-5.9,6
	c0.4-0.2,0.8-0.3,1.2-0.3c0.7,0,1.3,0.3,1.9,0.3c0.6,0,1.1-0.3,1.4-0.8H57L56.7,10c-0.3,0.8-0.7,1.1-1.4,1.1
	C54,11.1,53.3,10.4,51.2,11.1z M59.2,11.1c-1.2,0-1.9-1.4-1-3.8C59.1,4.8,60.7,4,61.7,4c0.7,0,1.2,0.4,1.4,0.9
	C63.6,4.6,64,4.3,64.3,4h0.3L63,9.7c-0.2,0.8,0.9,0.2,1.7-1.2l0.1,0.1c-0.6,1.4-1.5,2.5-2.4,2.5c-0.6,0-0.9-0.4-0.7-1.4l0.2-0.6
	C61,10.5,60,11.1,59.2,11.1z M59.5,7.2c-0.6,1.8-0.5,3,0.3,3s1.9-1.3,2.5-3.2l0.4-1.5c0-0.5-0.2-1-0.8-1.1
	C61.1,4.5,60.1,5.6,59.5,7.2z M67.5,5.8c-0.4,0-0.7-0.4-0.6-0.9C67,4.4,67.5,4,67.9,4c0.4,0,0.7,0.4,0.6,0.9
	C68.4,5.4,67.9,5.8,67.5,5.8z M66,11.1c-0.4,0-0.7-0.4-0.6-0.9c0.1-0.5,0.6-0.9,1-0.9s0.7,0.4,0.6,0.9C66.9,10.7,66.4,11.1,66,11.1z
	 M72.6,11L72.6,11c0.2-0.4,0.6-1.2,0.8-2l1.8-6.6h-1.5l0.1-0.3c1.2-0.3,2.3-0.8,3.3-1.5L74.8,9c-0.2,0.8-0.2,1.6-0.2,1.9l0,0H72.6z
	 M81.8,0.8c2.3,0,3.1,2.4,2.3,5.4c-0.7,2.7-2.6,5-4.9,5c-0.9,0-2-0.4-2.7-0.8l0.7-1.8h0.1c0.4,1.1,1.1,2.1,2,2.1
	c1.7,0,2.8-2.4,3.4-5c-0.8,1-1.9,1.6-3,1.6c-1.7,0-2.5-1.3-2.1-3.1C78.2,2.1,80,0.8,81.8,0.8z M81.7,1.3c-1.1,0-2.1,1.1-2.5,2.5
	c-0.4,1.5,0,2.7,1.2,2.7c0.7,0,1.6-0.4,2.4-1.4C83.2,2.8,82.9,1.3,81.7,1.3z M86.8,11.2c-1.1,0-2.2-0.4-2.9-0.8l0.8-1.8l0.1,0
	c0.3,1.1,0.9,2.2,2.1,2.2c1.1,0,1.9-0.9,2.2-2c0.3-1.3-0.4-2.5-1.9-2.7l0.1-0.3c1.4-0.2,2.9-1.2,3.3-2.6c0.3-1.1-0.2-1.9-1.3-1.9
	c-1,0-2,0.8-3,2.1l-0.1,0l0.2-1.8c0.8-0.4,1.9-0.8,3.1-0.8c1.7,0,2.9,0.9,2.5,2.5c-0.4,1.3-1.6,2.4-3.2,2.6c1.4,0.2,2.2,1.4,1.8,2.8
	C90.1,10.4,88.3,11.2,86.8,11.2z M91.1,11L91.1,11c0.2-0.4,0.6-1.2,0.8-2l1.7-6.2c0.2-0.8,0.2-1.6,0.2-1.9v0l1.7-0.2L93.2,9
	C93,9.8,93,10.6,93,11l0,0H91.1z M96.3,11.1c-0.7,0-1-0.8-1.5-1.9l-0.9-2v0l1.8-1.4c0.9-0.7,1.1-1.3,1.1-1.8l0-0.1h2l0,0.1l-3.7,2.8
	l1.1,2.5c0.3,0.5,0.4,0.7,0.6,0.7c0.4,0,0.8-0.6,1.5-1.5l0.1,0.1C98,10,97.2,11.1,96.3,11.1z M98.9,11l1.3-5
	c0.2-0.8,0.2-1.6,0.2-1.9l0-0.1h1.5l-0.6,2.3c0.7-1.2,1.6-2.4,2.8-2.4c0.9,0,1.7,0.6,1.3,2.2c0.7-1.2,1.6-2.2,2.7-2.2
	c1,0,1.8,0.7,1.3,2.4l-0.9,3.5c-0.2,0.8,0.9,0.1,1.8-1.3l0.1,0.1c-0.6,1.4-1.5,2.5-2.4,2.5c-0.6,0-1-0.4-0.7-1.4l0.9-3.2
	c0.3-1.2-0.1-1.7-0.6-1.7c-1,0-2.1,1.6-2.7,3.5l-0.7,2.6h-1.3l1.2-4.5c0.3-1.2-0.1-1.7-0.6-1.7c-1.1,0-2.2,1.8-2.8,3.9l-0.6,2.3
	H98.9z M13.6,29L13.6,29c0.2-0.4,0.6-1.2,0.8-2l1.6-6.1c0.2-0.8,0.2-1.6,0.2-1.9l0,0h1.9v0c-0.2,0.3-0.6,1.1-0.8,1.9l-2,7.6h2
	c1,0,2.2-1.1,2.7-1.4h0.1L19.6,29H13.6z M22.4,29.1c-1.2,0-1.9-1.4-1-3.8c0.9-2.5,2.5-3.3,3.6-3.3c0.7,0,1.2,0.4,1.4,0.9
	c0.4-0.3,0.9-0.5,1.1-0.8h0.3l-1.5,5.7c-0.2,0.8,0.9,0.2,1.7-1.2l0.1,0.1c-0.6,1.4-1.5,2.5-2.4,2.5c-0.6,0-0.9-0.4-0.7-1.4l0.2-0.6
	C24.2,28.5,23.2,29.1,22.4,29.1z M22.7,25.2c-0.6,1.8-0.5,3,0.3,3s1.9-1.3,2.5-3.2l0.4-1.5c0-0.5-0.2-1.1-0.8-1.1
	C24.3,22.5,23.3,23.6,22.7,25.2z M28.2,29l1.3-5c0.2-0.8,0.2-1.6,0.3-1.9l0-0.1h1.5l-0.6,2.4c0.7-1.5,1.9-3,3.3-2.3l-0.5,1.4h0
	c-0.2-0.2-0.5-0.4-0.8-0.3c-0.9,0-1.9,1.5-2.5,3.3L29.5,29H28.2z M35,31.8c-1.1,0-2.9-0.3-2.4-1.7c0.1-0.5,0.5-1,1-1.3
	c-0.3-0.2-0.4-0.7-0.3-1.1c0.2-0.7,0.8-1.1,1.4-1.3c-0.6-0.4-0.8-1.3-0.5-2.2c0.4-1.6,1.9-2.3,3.2-2.3c0.5,0,1.1,0.1,1.4,0.4
	c0.6-0.7,1.3-1.1,2.1-0.9l-0.5,1.1l0,0c-0.3-0.2-0.8-0.3-1.4-0.1c0.5,0.4,0.7,1.2,0.4,2.1c-0.4,1.6-2,2.3-3.3,2.3
	c-0.4,0-0.8-0.1-1.2-0.3c-0.4,0.1-0.7,0.3-0.8,0.6c-0.1,0.4,0.3,0.7,0.8,0.7h2c1.3,0,2.1,0.8,1.7,2C38.2,31.6,36,31.8,35,31.8z
	 M36.4,26.4c0.8,0,1.6-0.8,1.9-1.9c0.3-1.2,0-2.1-0.9-2.1c-0.8,0-1.5,0.7-1.9,1.9C35.2,25.6,35.5,26.4,36.4,26.4z M35.3,31.3
	c1.3,0,2.4-0.6,2.6-1.2c0.1-0.5-0.2-0.9-1.1-0.9h-1.8c-0.3,0-0.6,0-0.8-0.1c-0.3,0.3-0.6,0.7-0.6,1.1C33.4,30.9,34.1,31.3,35.3,31.3
	z M39.9,29l2.2-8.2c0.2-0.8,0.2-1.6,0.2-1.9v0l1.7-0.2l-1.6,5.9c0.7-1.3,1.8-2.5,3.1-2.5c1,0,1.8,0.7,1.3,2.4l-1,3.5
	c-0.2,0.8,0.9,0.1,1.8-1.3l0.1,0.1c-0.6,1.4-1.5,2.5-2.4,2.5c-0.6,0-1-0.4-0.7-1.4l0.9-3.1c0.3-1.2-0.1-1.7-0.6-1.7
	c-1.1,0-2.4,1.9-3.1,4L41.2,29H39.9z M50.6,29.1c-1.5,0-2.6-1.5-1.9-3.8c0.6-2.1,2.2-3.3,3.8-3.3c1.2,0,2.1,0.6,1.9,1.7
	c-0.2,1.1-1.8,2.2-4.5,2c-0.3,1.5,0.2,2.6,1.3,2.6c0.8,0,1.9-0.5,2.8-2l0.1,0.1C53.3,28.1,51.9,29.1,50.6,29.1z M50,25.1
	c0,0,0,0.1,0,0.2c2.1,0,3-0.8,3.2-1.7c0.2-0.7-0.1-1.2-0.8-1.2C51.3,22.4,50.4,23.9,50,25.1z M54.4,29.1c0.7-2.5,4.2-3.9,5.8-6
	c-0.4,0.2-0.8,0.4-1.3,0.4c-0.7,0-1.1-0.3-1.8-0.3c-0.9,0-1.3,0.5-1.6,0.9h-0.1l0.3-0.9c0.3-0.9,0.9-1.2,1.5-1.2
	c1.2,0,2.3,0.8,4.3-0.1c-1,2.7-4.6,4-5.9,6c0.4-0.2,0.8-0.3,1.2-0.3c0.7,0,1.3,0.3,1.9,0.3c0.6,0,1.1-0.3,1.4-0.8h0.1L59.9,28
	c-0.3,0.8-0.7,1.1-1.4,1.1C57.2,29.1,56.5,28.4,54.4,29.1z M60.9,29.1c0.7-2.5,4.2-3.9,5.8-6c-0.4,0.2-0.8,0.4-1.3,0.4
	c-0.7,0-1.1-0.3-1.8-0.3c-0.9,0-1.3,0.5-1.6,0.9h-0.1l0.3-0.9c0.3-0.9,0.9-1.2,1.5-1.2c1.2,0,2.3,0.8,4.3-0.1c-1,2.7-4.6,4-5.9,6
	c0.4-0.2,0.8-0.3,1.2-0.3c0.7,0,1.3,0.3,1.9,0.3c0.6,0,1.1-0.3,1.4-0.8h0.1L66.4,28c-0.3,0.8-0.7,1.1-1.4,1.1
	C63.7,29.1,63,28.4,60.9,29.1z M68.9,29.1c-1.2,0-1.9-1.4-1-3.8c0.9-2.5,2.5-3.3,3.6-3.3c0.7,0,1.2,0.4,1.4,0.9
	c0.4-0.3,0.9-0.5,1.1-0.8h0.3l-1.5,5.7c-0.2,0.8,0.9,0.2,1.7-1.2l0.1,0.1c-0.6,1.4-1.5,2.5-2.4,2.5c-0.6,0-0.9-0.4-0.7-1.4l0.2-0.6
	C70.7,28.5,69.7,29.1,68.9,29.1z M69.2,25.2c-0.6,1.8-0.5,3,0.3,3c0.8,0,1.9-1.3,2.5-3.2l0.4-1.5c0-0.5-0.2-1.1-0.8-1.1
	C70.8,22.5,69.8,23.6,69.2,25.2z M77.1,23.8c-0.4,0-0.7-0.4-0.6-0.9c0.1-0.5,0.6-0.9,1-0.9c0.4,0,0.7,0.4,0.6,0.9
	C78,23.4,77.6,23.8,77.1,23.8z M75.7,29.1c-0.4,0-0.7-0.4-0.6-0.9c0.1-0.5,0.6-0.9,1-0.9c0.4,0,0.7,0.4,0.6,0.9S76.1,29.1,75.7,29.1
	z M82.3,29L82.3,29c0.2-0.4,0.6-1.2,0.8-2l1.8-6.6h-1.5l0.1-0.3c1.2-0.3,2.3-0.8,3.3-1.5L84.5,27c-0.2,0.8-0.2,1.6-0.2,1.9l0,0H82.3
	z M86.4,29L86.4,29c0.2-0.4,0.6-1.2,0.8-2l1.8-6.6h-1.5l0.1-0.3c1.2-0.3,2.3-0.8,3.3-1.5L88.6,27c-0.2,0.8-0.2,1.6-0.2,1.9l0,0H86.4
	z M93.6,29.1c-2.1,0-3.3-2.1-2.4-5.4c0.7-2.8,3-4.9,5.1-4.9s3.3,2.1,2.5,5.3C97.9,27,95.7,29.1,93.6,29.1z M93.7,28.6
	c1.6,0,2.9-2.2,3.5-4.7c0.6-2.4,0.5-4.6-1-4.6c-1.6,0-2.9,2.3-3.5,4.6C92,26.4,92.1,28.6,93.7,28.6z M98.9,29l1.3-5
	c0.2-0.8,0.2-1.6,0.2-1.9l0-0.1h1.5l-0.6,2.3c0.7-1.2,1.6-2.4,2.8-2.4c0.9,0,1.7,0.6,1.3,2.2c0.7-1.2,1.6-2.2,2.7-2.2
	c1,0,1.8,0.7,1.3,2.4l-0.9,3.5c-0.2,0.8,0.9,0.1,1.8-1.3l0.1,0.1c-0.6,1.4-1.5,2.5-2.4,2.5c-0.6,0-1-0.4-0.7-1.4l0.9-3.1
	c0.3-1.2-0.1-1.7-0.6-1.7c-1,0-2.1,1.6-2.7,3.5l-0.7,2.6h-1.3l1.2-4.5c0.3-1.2-0.1-1.7-0.6-1.7c-1.1,0-2.2,1.8-2.8,3.9l-0.6,2.3
	H98.9z"/>
</svg>
