<svg width="185" height="197" viewBox="0 0 185 197" fill="none" xmlns="http://www.w3.org/2000/svg">
<path d="M46.32 192C46.608 191.004 48.972 186.588 50.268 184.68H47.616C46.716 184.68 46.08 184.836 45.312 185.232H45.264L45.864 183.36H51.444C49.944 186.012 49.044 188.664 48.636 190.308C48.42 191.172 48.336 191.952 48.336 192H46.32ZM51.362 188.352V187.872H55.754V188.352H51.362ZM56.1908 184.488C57.2948 184.176 58.2908 183.732 59.1068 183.084V190.212C59.1068 190.956 59.3348 191.736 59.3828 191.952V192H57.3308V191.952C57.3788 191.736 57.6068 190.956 57.6068 190.212V184.764H56.1908V184.488ZM60.1275 191.988C62.4675 188.856 64.2555 186.732 64.2555 185.04C64.2555 184.392 63.8955 183.708 63.0915 183.708C62.1915 183.708 61.3635 184.728 60.7635 185.736L60.7155 185.724L60.3915 183.948C61.1715 183.588 62.1075 183.24 63.1275 183.24C64.6395 183.24 65.8155 184.008 65.8155 185.316C65.8155 186.408 64.9755 187.44 63.9675 188.376C63.0915 189.324 61.8675 190.5 61.5195 190.812H63.4875C64.4235 190.812 65.2035 190.632 65.8395 190.152L65.8755 190.164L65.5995 191.988H60.1275ZM71.9656 192.108C70.4776 192.108 69.0736 191.052 69.0736 189C69.0736 187.044 70.3096 185.928 72.0136 185.928C72.9136 185.928 73.6816 186.264 74.1976 186.492L74.2096 188.1H74.1616C73.7416 187.404 72.9616 186.36 72.0496 186.36C71.0656 186.36 70.6096 187.428 70.6096 188.628C70.6216 190.116 71.2816 191.148 72.5896 191.148C73.1176 191.148 73.7656 190.98 74.4496 190.404L74.4856 190.428C74.1136 191.328 73.2136 192.108 71.9656 192.108ZM77.0416 191.952V192H75.0976V191.952C75.1456 191.736 75.3736 190.956 75.3736 190.212V187.788C75.3736 187.032 75.1456 186.264 75.0976 186.036V186H76.7656V186.924C77.2456 186.3 77.8096 185.928 78.5656 185.928C79.2976 185.928 79.9816 186.276 80.2696 187.068C80.7616 186.36 81.3616 185.928 82.1776 185.928C83.1376 185.928 84.0136 186.528 84.0136 187.956V190.212C84.0136 190.956 84.2416 191.736 84.2896 191.952V192H82.3456V191.952C82.3936 191.736 82.6216 190.956 82.6216 190.212V188.136C82.6216 187.236 82.0456 186.864 81.4456 186.864C81.0736 186.864 80.7256 187.032 80.3416 187.344C80.3896 187.524 80.4136 187.728 80.4136 187.956V190.212C80.4136 190.956 80.6416 191.736 80.6896 191.952V192H78.7336V191.952C78.7816 191.736 79.0096 190.956 79.0096 190.212V188.136C79.0096 187.236 78.4216 186.864 77.8216 186.864C77.4616 186.864 77.1136 187.02 76.7656 187.308V190.212C76.7656 190.956 76.9936 191.736 77.0416 191.952Z" fill="white"/>
<path d="M129.18 171L129.18 181.578" stroke="#FEFEFE" stroke-opacity="0.6"/>
<path fill-rule="evenodd" clip-rule="evenodd" d="M0 171L1.06497e-07 181.578H1L1 176.788L128.756 176.788L128.756 175.788L1 175.788L1 171H0Z" fill="#FEFEFE" fill-opacity="0.6"/>
<path d="M96.522 167C93.5593 167 90.4382 166.128 86.826 164.305L85.7328 163.735C84.6238 163.148 83.5623 162.577 82.4533 162.134C80.869 161.484 79.9976 160.295 79.1738 159.042C77.8271 156.934 79.3956 153.415 81.1067 152.321C85.1466 149.722 87.7291 145.901 88.9965 140.638C89.4401 138.831 89.9629 137.024 90.4541 135.281C91.1195 132.95 91.8166 130.541 92.3236 128.147C92.577 126.958 92.8147 125.674 92.8147 124.39C92.8147 123.344 93.1316 122.425 93.4326 121.521C93.6702 120.84 93.8762 120.19 93.9554 119.54L94.2881 116.544C94.5574 114.198 94.8109 111.852 95.0327 109.49C95.4605 105.083 95.8407 100.66 96.2051 96.2534C96.2051 96.1583 96.2051 96.0791 96.2051 95.984C94.098 99.1385 92.0701 101.817 89.456 104.1C88.0142 105.352 87.4122 106.446 88.6321 108.253L88.7272 108.443C89.5193 110.837 87.7607 112.914 87.127 113.579C87.032 114.229 86.9527 114.879 86.8735 115.545C86.8102 116.068 86.7468 116.591 86.6834 117.114L86.6517 117.273L84.9565 121.981C85.21 123.36 84.1961 124.279 83.7366 124.676C83.2138 125.135 82.992 125.357 82.9603 125.801L82.8811 127.196L81.7245 126.404C79.9976 125.215 80.2036 123.661 80.362 122.52C80.3779 122.345 80.4096 122.187 80.4254 122.013C80.1878 122.013 79.966 121.933 79.7283 121.775L79.2689 121.87L79.0312 121.236C78.9362 120.966 78.7777 120.729 78.5876 120.538L78.3341 120.285V119.936C78.3975 119.08 78.3024 118.367 78.0173 117.685C77.7638 117.067 77.7004 116.417 77.6529 115.846C77.6053 115.339 77.5578 114.879 77.3994 114.562C76.9716 113.801 76.7973 113.009 76.6389 112.295C76.5755 111.994 76.5122 111.709 76.4171 111.424C76.3062 111.075 76.2428 110.948 76.2111 110.9C76.2111 110.9 76.1319 110.9 76.0052 110.948C73.597 111.598 71.1255 111.677 68.955 111.756C67.846 111.804 67.2756 112.169 66.9271 113.056C66.8796 113.183 66.8479 113.31 66.8004 113.453C66.5944 114.15 66.3092 115.101 65.216 115.577L64.2971 115.989L64.2338 115.64L64.0912 116.243L63.3466 116.116C63.1723 116.084 63.0614 116.068 62.9505 116.084L62.1742 116.132L62.1108 115.355C62.1108 115.212 62.0633 115.054 61.7781 114.832C61.3028 114.483 60.9067 113.992 60.7325 113.468C60.4314 112.597 59.7027 112.375 59.4016 112.311L59.0056 112.232C57.6114 111.947 56.1697 111.646 54.918 111.852C53.7298 112.042 52.6208 111.915 51.5435 111.804C50.8305 111.725 50.1493 111.646 49.4522 111.661C48.9452 111.661 48.66 111.852 48.565 112.01C48.4858 112.137 48.5016 112.295 48.5967 112.517C48.8818 113.183 48.866 113.722 48.565 114.34L48.0897 115.26C47.3609 116.655 46.6955 117.97 46.442 119.445C46.3311 120.174 45.8875 121.046 45.0161 121.315C44.6042 121.442 44.5408 121.553 44.5408 121.553C44.5408 121.553 44.4775 121.711 44.7626 122.33L45.032 122.932L44.4933 123.312C44.3824 123.392 44.2873 123.487 44.2081 123.566L43.6536 124.279L43.0199 123.629C43.0199 123.629 42.8615 123.629 42.4812 124.153C41.5465 125.405 40.3583 125.231 39.5661 125.12L39.2492 125.072C38.4254 125.009 37.8551 124.153 37.9184 123.043C37.9184 122.853 37.9343 122.647 37.9501 122.441C38.0135 121.569 38.061 120.808 37.6649 120.158C37.4907 119.904 37.3322 119.429 37.4748 118.985C38.2353 116.797 37.9501 114.626 37.6491 112.327C37.5699 111.772 37.5065 111.202 37.4431 110.647C37.3798 110.124 37.4431 109.601 37.5065 109.109C37.5382 108.856 37.5699 108.586 37.5857 108.333C37.6966 105.701 37.2055 103.735 36.0489 102.119L35.637 101.548C34.2111 99.5665 32.7377 97.5374 31.5178 95.334C31.8505 106.716 33.0229 115.83 35.1934 123.931C38.0769 134.662 42.7347 143.666 49.072 150.689C49.88 151.576 50.6879 152.48 51.0207 153.653C51.5118 155.381 50.7988 157.426 49.2145 158.852C47.9154 160.025 46.2677 160.659 44.7943 161.214C43.8596 162.26 42.6555 162.879 41.6099 163.338C40.8969 163.655 40.2157 164.052 39.5027 164.48C38.5522 165.05 37.5699 165.637 36.445 166.017C34.021 166.841 31.3752 167 28.3651 166.493C24.5627 165.859 20.5703 165.034 17.2591 162.371C17.1323 162.26 16.9739 162.165 16.8313 162.07C16.2926 161.706 15.5638 161.23 15.3104 160.247C14.9776 160.247 14.5499 160.247 14.1855 159.914L14.0112 159.772L13.2666 160.485L12.7596 159.661C12.6962 159.566 12.6329 159.47 12.5537 159.375L11.714 158.63L12.0942 158.408C11.9991 158.361 11.9199 158.297 11.8566 158.218C11.5397 157.869 11.6031 157.457 11.6348 157.299C11.6823 155.935 11.1912 155.65 10.3198 155.618C9.84449 155.618 9.4801 155.444 9.24245 155.127C8.89391 154.651 9.05234 154.065 9.09987 153.859C9.27414 153.272 9.28998 153.019 9.27414 152.924C9.27414 152.924 9.21077 152.924 9.13155 152.924C9.03649 152.924 8.90975 152.924 8.71963 152.955C8.18097 153.035 7.76905 152.908 7.48387 152.622C7.04027 152.179 7.13533 151.592 7.18285 151.243V151.085C7.24623 150.704 7.26207 150.403 7.26207 150.15L6.94521 151.101L6.058 150.387C5.96294 150.308 5.86788 150.229 5.80451 150.134C5.75698 150.15 5.72529 150.165 5.67776 150.181L4.29941 150.641L4.85392 148.533C5.01235 147.914 5.17078 147.344 5.31337 146.757C5.34506 146.63 5.37674 146.504 5.42427 146.377C5.45596 146.298 5.48765 146.202 5.50349 146.107C4.18851 145.22 4.31526 143.92 4.41032 143.032C4.41032 142.969 4.41032 142.921 4.41032 142.858C4.3311 142.858 4.25189 142.858 4.2202 142.842L3.72906 142.747L3.60232 142.255C3.4122 141.558 3.63401 140.94 3.79244 140.464C3.93502 140.02 4.03008 139.735 3.95087 139.45C3.57063 138.055 3.45973 136.628 3.36467 135.249C3.3013 134.504 3.25377 133.743 3.15871 133.014C2.93691 131.381 3.00028 129.796 3.06365 128.274C3.0795 127.799 3.11118 127.323 3.11118 126.847C3.11118 126.404 3.11118 125.96 3.06365 125.5C2.98444 124.168 2.88938 122.663 3.71322 121.236C3.71322 121.236 3.71322 121.22 3.71322 121.204C3.45973 121.077 3.3013 120.935 3.20624 120.729C3.01612 120.316 3.14287 119.936 3.31714 119.46C3.45973 119.064 3.60232 118.795 3.74491 118.541C4.12514 117.844 4.23604 117.574 3.88749 117.099C3.50726 116.575 3.80828 115.989 4.03008 115.561C4.1093 115.402 4.25189 115.133 4.26773 115.038C4.31526 114.752 4.41032 114.499 4.48953 114.277C4.53706 114.134 4.63212 113.912 4.63212 113.817C4.63212 113.817 4.58459 113.77 4.45785 113.706C4.18851 113.579 3.9984 113.342 3.93502 113.04C3.82412 112.549 4.14098 112.169 4.25189 112.026C4.67965 111.471 4.79055 110.758 4.91729 109.934C5.04404 109.157 5.17078 108.364 5.5827 107.587C5.56686 107.651 5.55102 107.508 5.50349 107.35C5.09157 105.939 5.26584 104.591 5.44012 103.292C5.50349 102.753 5.5827 102.23 5.59855 101.691C5.63023 100.977 5.72529 100.248 5.82035 99.5189C5.96294 98.4251 6.10553 97.4106 6.01047 96.5071C5.93125 95.6986 6.1689 95.0329 6.34317 94.5097C6.51745 93.9866 6.62835 93.6854 6.53329 93.3843C6.26396 92.4649 6.53329 91.6564 6.75509 91.0065C6.85015 90.7053 6.99274 90.309 6.94521 90.1822C6.3907 88.8348 6.83431 87.6935 7.21454 86.6948C7.57893 85.7437 7.78489 85.1096 7.51556 84.4121C7.21454 83.6513 7.62646 82.9538 7.97501 82.3673C8.16513 82.0344 8.37109 81.7015 8.40277 81.4162C8.46614 81.004 8.49783 80.576 8.51367 80.1639C8.54536 79.5456 8.57705 78.864 8.75132 78.1982C8.6721 78.1665 8.60873 78.119 8.5612 78.0873L8.26018 77.8654V77.4849C8.21265 76.8191 8.57705 76.3277 8.83053 75.9631C8.95728 75.7888 9.08402 75.6144 9.13155 75.4717C9.21077 75.1864 9.3692 74.9645 9.49594 74.7743C9.49594 74.7584 9.51179 74.7426 9.52763 74.7267C9.51179 74.7267 9.49594 74.7109 9.46426 74.695C9.19492 74.5523 9.02065 74.3146 8.95728 74.0292C8.83053 73.4586 9.21077 72.9672 9.46426 72.6343C9.87618 72.0953 10.0821 71.5563 10.2881 70.9698L9.89202 70.7796L9.86033 70.3358C9.79696 69.5907 10.193 69.0835 10.4624 68.7506C10.5733 68.6079 10.7 68.4494 10.7159 68.3543C10.7951 68.0372 10.9852 67.7995 11.1278 67.5934C11.1436 67.5617 11.1753 67.53 11.207 67.4824C11.207 67.4824 11.1753 67.4666 11.1595 67.4507L10.8268 67.2605L10.7 66.7691C10.6208 66.3094 10.906 65.8814 11.1436 65.6278C11.3654 65.3583 11.4922 64.9779 11.6189 64.534C11.7298 64.1853 11.8566 63.7731 12.0625 63.3927C11.7298 63.0598 11.5397 62.6952 11.4922 62.2989C11.413 61.5856 11.8407 61.0625 12.1576 60.6662C12.2843 60.5235 12.4428 60.3174 12.4744 60.2065C12.5537 59.9211 12.7121 59.6992 12.8547 59.5248L12.5061 59.3822L12.316 58.9383C12.1893 58.4786 12.4269 58.114 12.6012 57.8287C12.6487 57.7653 12.6962 57.686 12.7279 57.6226C12.7279 57.5909 12.7438 57.5434 12.7596 57.5117L8.02254 59.9528L13.4567 54.69L13.425 54.4364L13.5835 54.1828C13.726 53.945 13.8528 53.6914 13.9637 53.406C13.631 53.2475 13.3933 53.0097 13.2824 52.7086C13.0606 52.122 13.4092 51.5989 13.5835 51.3294C13.6151 51.2819 13.6468 51.2343 13.6785 51.1868C13.8369 50.838 14.0904 50.5052 14.3122 50.204C14.4231 50.0613 14.5816 49.8552 14.6608 49.7126C14.2964 48.5237 14.8192 47.6677 15.2153 47.0336C15.3737 46.78 15.5163 46.5422 15.5797 46.3203C15.5955 46.241 15.6431 46.1459 15.6906 46.0349C15.1202 44.9412 15.6906 43.9742 16.0708 43.3084C16.2926 42.9121 16.4986 42.5793 16.4827 42.2781C16.4827 42.1513 16.4827 42.0086 16.5144 41.8501C16.3085 42.0244 16.055 42.1988 15.754 42.3098L13.6468 43.1658L14.7717 41.1843C15.6589 39.5991 16.863 38.2993 18.0354 37.0311C18.3047 36.7299 18.574 36.4446 18.8434 36.1434C18.9067 36.0642 18.9859 36.0166 19.0493 35.9532C19.081 35.0021 19.5721 34.2412 19.9999 33.5754C20.1583 33.3218 20.3326 33.0682 20.4435 32.8304C20.2376 32.7353 20.095 32.5926 19.9999 32.3866C19.7306 31.8159 20.1583 31.3562 20.3326 31.1501C20.6178 30.8331 20.8396 30.6112 21.0614 30.3734C21.204 30.2149 21.3624 30.0563 21.505 29.8978C20.9822 29.2796 21.3149 28.6138 21.4416 28.376C21.7268 27.8371 22.0595 27.4883 22.3605 27.1872C22.4714 27.0762 22.5665 26.9811 22.6615 26.8701L22.8041 26.7116C22.9467 26.5531 23.1527 26.3312 23.1527 26.2519C23.1527 26.2519 23.1527 26.1885 23.0576 26.03L22.8833 25.7605L22.9467 25.285C23.0101 24.9996 23.1844 24.6192 23.5012 24.429C24.4043 23.9058 24.8479 22.8913 25.2598 21.8134C25.5767 20.9416 26.1629 20.2758 26.6857 19.6734C27.256 19.0235 27.7472 18.4528 27.8898 17.7078C28.0007 17.153 28.4284 16.8359 28.777 16.5823C28.872 16.5189 28.9512 16.4555 29.0305 16.3921C29.1889 16.2494 29.3632 16.1068 29.5374 15.9799C30.1236 15.5202 30.3613 15.3142 30.2979 14.7435C30.2187 13.9192 30.9316 13.5071 31.3435 13.2534C31.4861 13.1742 31.6446 13.0791 31.7238 12.9998C31.803 12.9205 31.8981 12.8571 31.9931 12.7937C31.7238 12.4926 31.7079 12.1755 31.7238 12.0011C31.7872 11.4463 32.2783 11.2086 32.5159 11.0976L33.3239 10.6854C33.7517 10.4794 34.1636 10.2574 34.5914 10.0197C34.7023 9.95626 34.8132 9.90871 34.9241 9.86115C34.9716 9.8453 35.0508 9.8136 35.0984 9.78189C35.0033 9.44901 35.035 9.13197 35.1934 8.87834C35.3677 8.59301 35.6687 8.38694 35.9856 8.33938C36.9045 8.13331 37.7283 7.54679 38.5997 6.91272C39.4077 6.34205 40.2315 5.73969 41.2455 5.39095C44.4141 4.31302 47.6302 3.48873 50.6246 2.75955C53.7457 2.01451 56.7717 1.50726 59.7819 1.20607L59.4492 1.06341L61.9682 1.01585C62.3643 0.984147 62.7604 0.968295 63.1723 0.952444L63.9961 0.904888V0.968295C65.4537 0.936592 66.9429 0.936592 68.4164 1.22192C68.6065 1.26948 68.7491 1.26948 68.8758 1.28533L72.8366 1.4914C73.8822 1.4597 74.8328 1.77674 75.6566 2.06207C76.0686 2.20474 76.4646 2.3474 76.8924 2.44251C78.1757 2.71199 79.554 2.99732 80.7264 3.85332C80.7264 3.85332 80.7581 3.85332 80.7739 3.85332L81.075 3.93258C82.485 4.29717 83.7208 4.99465 84.909 5.66043C85.7804 6.15183 86.5884 6.61153 87.4597 6.94442C88.0142 7.1505 88.6004 7.38827 89.1708 7.6419L89.3609 7.72116C89.852 7.91138 90.6759 8.21257 90.7392 9.49656C90.7709 9.52827 91.0244 9.62338 91.1829 9.68678C91.4839 9.79775 91.8483 9.92456 92.1651 10.194C92.4978 10.2416 92.8939 10.3209 93.0999 10.7013L93.29 11.05L93.1315 11.5097C93.1315 11.5097 93.084 11.6366 93.0682 11.6683C93.1474 11.7 93.2425 11.7317 93.3058 11.7634C93.6227 11.8743 94.0029 12.017 94.2881 12.3499C94.2723 12.3182 94.3198 12.334 94.3832 12.3499C94.6525 12.445 95.0961 12.6194 95.302 13.1108C95.3971 13.3327 95.4288 13.5863 95.3971 13.8717C95.6664 14.0936 96.1259 14.3948 96.3319 14.5374C96.4269 14.6008 96.4903 14.6167 96.5378 14.6325C96.7755 14.7277 97.2824 14.902 97.3775 15.4568C97.425 15.6946 97.3775 15.9007 97.2983 16.0751L101.101 18.4528L99.4371 18.643C100.166 19.1979 100.863 19.9587 101.069 21.1635C101.164 21.2269 101.322 21.322 101.433 21.4013C101.687 21.5439 101.924 21.7024 102.115 21.8768C102.479 22.2097 102.812 22.5901 103.144 22.9706L103.921 23.8583L103.16 24.3497C103.319 24.4607 103.493 24.5875 103.683 24.7143C104.317 25.1423 105.03 25.6178 105.457 26.4263L105.869 27.203L105.125 27.5201C105.6 28.0115 106.091 28.5821 106.265 29.3747C106.376 29.9454 106.709 30.4685 107.058 31.0233C107.612 31.911 108.23 32.9097 108.119 34.2254C108.785 35.0021 109.196 35.9215 109.608 36.8092C110.099 37.8871 110.575 38.9175 111.462 39.615C111.731 39.8528 111.826 40.1064 111.906 40.2966C111.921 40.36 111.953 40.4076 111.985 40.471L112.492 41.3428L111.525 41.6281H111.51C111.7 42.0244 111.874 42.4207 112.048 42.8012C112.761 44.3864 113.442 45.8764 114.821 47.1129L116.405 48.5237L114.282 48.492C114.282 48.492 114.139 48.492 114.06 48.492C114.203 48.9834 114.203 49.5858 113.918 50.2991C113.934 50.4259 114.266 50.8697 114.456 51.1234C114.694 51.4404 114.932 51.7733 115.09 52.0903C115.106 52.1062 115.169 52.1537 115.233 52.2172C115.518 52.4866 115.993 52.9305 115.851 53.5804C115.771 53.9133 115.565 54.1511 115.328 54.3096C115.454 54.5315 115.581 54.7693 115.708 55.0071C115.93 55.4034 116.167 55.8155 116.373 56.2277C116.738 56.9727 116.643 57.7811 116.579 58.3835C116.563 58.5262 116.548 58.6688 116.532 58.7956C116.484 60.1906 116.722 61.5539 117.324 63.3134C117.371 63.4561 117.419 63.5829 117.482 63.7256C117.752 64.3596 118.179 65.39 117.34 66.4996C117.403 66.6423 117.53 66.8484 117.625 66.991C117.831 67.3239 118.053 67.6885 118.164 68.069C118.164 68.0531 118.211 68.0848 118.243 68.1324C118.449 68.3701 118.845 68.8298 118.655 69.4164C118.56 69.7017 118.37 69.9078 118.148 70.0504C118.179 70.1297 118.227 70.2089 118.259 70.2723C118.385 70.5418 118.512 70.8113 118.591 71.0174C118.845 71.271 119.225 71.6832 119.051 72.238C118.987 72.4282 118.877 72.5867 118.734 72.6977C119.051 73.522 119.13 74.3621 119.193 75.2023C119.288 76.2643 119.368 77.2471 119.986 78.0397C120.318 78.3409 120.857 78.8323 120.635 79.4981C120.477 79.9578 120.049 80.148 119.685 80.2273C119.685 80.4333 119.748 80.7187 119.859 80.9248C119.986 81.1625 120.176 81.3845 120.366 81.6222C120.825 82.1929 121.38 82.8904 121.491 83.9207L121.586 84.9987L121.031 84.8877C121.031 84.8877 121.11 85.0304 121.142 85.0938C121.491 85.7278 121.855 86.3778 122.045 87.1228L122.251 87.9471L121.681 88.0422C121.839 88.28 121.998 88.5019 122.188 88.7555C122.726 89.4847 123.36 90.3249 123.519 91.4503L123.788 93.194L122.885 92.6075C123.297 93.3367 123.424 94.5573 122.98 95.1597C122.742 95.4767 122.774 95.6828 122.932 96.2059C123.027 96.5229 123.138 96.8875 123.122 97.3155C123.075 98.869 123.471 100.105 124.374 101.231C124.596 101.564 124.818 102.261 124.374 102.689C123.772 103.228 123.851 103.403 124.422 104.227C124.612 104.512 124.818 104.813 124.976 105.162C125.008 105.194 125.04 105.226 125.087 105.257C125.372 105.511 125.911 105.971 125.752 106.636C125.657 107.017 125.372 107.255 125.071 107.397C125.166 107.762 125.372 108.126 125.626 108.523C125.895 108.967 126.196 109.458 126.354 110.06L126.576 110.9L125.927 111.027C126.069 111.233 126.212 111.439 126.37 111.646C126.925 112.422 127.559 113.31 127.875 114.435L128.335 116.084L128.161 116.005L127.289 116.56C127.289 116.56 127.289 116.56 127.289 116.575C127.543 117.336 127.432 117.923 126.941 118.303C126.972 118.398 127.02 118.509 127.052 118.589C127.416 119.524 127.463 120.364 127.511 121.172C127.543 121.807 127.574 122.393 127.749 122.948C127.939 123.55 128.145 124.137 128.367 124.755L129.016 126.61H127.907C127.59 126.61 127.353 126.546 127.162 126.435C127.178 126.816 127.337 127.244 127.574 127.814C127.828 128.464 128.129 129.193 128.097 130.002L128.05 131.191L127.036 130.715C126.988 131.127 126.988 131.46 127.131 131.777C127.527 132.617 127.052 133.267 126.798 133.6C126.735 133.68 126.656 133.806 126.624 133.854C126.37 135.138 126.228 136.121 126.703 137.072C126.988 137.674 127.02 138.277 126.766 138.831L126.608 139.196L126.228 139.291C126.085 139.323 125.848 139.37 125.61 139.291C125.61 139.576 125.673 139.909 125.737 140.29C125.816 140.702 125.879 141.114 125.895 141.526V142.382L125.055 142.335C124.96 142.335 124.865 142.319 124.786 142.287C124.469 143.65 124.707 145.045 124.976 146.519L125.293 148.327L123.756 147.328C123.598 147.217 123.455 147.106 123.344 146.979C123.313 147.058 123.281 147.138 123.249 147.217C123.059 147.661 122.821 148.089 122.584 148.517C122.045 149.5 121.57 150.34 121.712 151.37C121.776 151.735 121.712 152.321 121.316 152.702C121.047 152.971 120.651 153.082 120.255 153.019C120.033 152.987 119.875 152.892 119.764 152.797C119.114 153.352 118.75 153.922 118.781 154.794C118.797 155.254 118.607 155.507 118.433 155.634C118.069 155.92 117.657 155.824 117.498 155.777C117.324 155.777 116.706 155.856 116.674 156.49C116.674 157.013 116.516 157.441 116.389 157.854C116.326 158.044 116.262 158.234 116.215 158.456L115.93 159.661L114.963 158.9C114.789 158.757 114.662 158.614 114.567 158.472C108.88 163.75 103.636 166.35 97.7102 166.841C97.3141 166.873 96.9339 166.889 96.5378 166.889L96.522 167ZM97.8211 93.4318V94.4146C97.8369 95.1438 97.8528 95.762 97.8053 96.3803C97.4409 100.819 97.0606 105.241 96.6329 109.648C96.4111 112.01 96.1417 114.372 95.8882 116.718L95.5555 119.714C95.4605 120.538 95.207 121.299 94.9535 122.044C94.6842 122.853 94.4148 123.629 94.4148 124.406C94.4148 125.833 94.1613 127.196 93.892 128.48C93.3692 130.937 92.6721 133.378 91.9908 135.724C91.4997 137.452 90.9769 139.244 90.5491 141.019C89.1708 146.694 86.3666 150.831 81.9622 153.653C80.7739 154.414 79.7758 157.013 80.5046 158.171C81.2017 159.233 81.883 160.168 83.0554 160.659C84.2277 161.135 85.3684 161.737 86.4775 162.324L87.5548 162.894C91.373 164.828 94.5574 165.605 97.5676 165.383C103.493 164.892 108.737 162.102 114.599 156.363L115.296 155.682C115.629 154.953 116.326 154.445 117.229 154.334C117.435 152.543 118.797 151.608 119.827 150.895L120.128 150.689C120.239 149.579 120.746 148.675 121.205 147.851C121.411 147.471 121.633 147.09 121.792 146.694C121.855 146.535 121.903 146.377 121.95 146.202C122.077 145.695 122.267 144.998 122.885 144.475L123.075 144.316C123.027 143.413 123.091 142.493 123.376 141.574C123.297 140.686 123.756 140.369 124.121 140.242C123.978 139.37 123.93 138.372 124.659 137.436L124.944 137.072H124.976C124.628 135.835 124.865 134.631 125.071 133.616C125.15 133.236 125.356 132.966 125.515 132.744C125.578 132.665 125.673 132.538 125.689 132.491C125.293 131.73 125.404 130.969 125.483 130.303C125.546 129.796 125.61 129.368 125.451 128.956L124.944 127.672L125.832 127.814C125.483 126.816 125.309 125.627 126.386 124.422L126.497 124.295C126.402 124.026 126.323 123.756 126.228 123.471C126.006 122.742 125.958 122.013 125.927 121.331C125.879 120.618 125.848 119.936 125.61 119.334C125.388 118.763 124.96 117.669 125.8 117.21C125.8 117.178 125.8 117.162 125.784 117.146C125.721 116.972 125.626 116.655 125.657 116.306C125.055 115.688 124.992 114.895 124.944 114.277C124.913 113.896 124.881 113.548 124.738 113.31L123.265 110.79L124.247 111.344C124.01 110.916 123.804 110.457 123.693 109.934L123.534 109.189L124.057 109.046C123.788 108.586 123.55 108.079 123.471 107.461C123.392 107.286 123.249 106.922 123.471 106.525L123.725 106.177C123.645 106.082 123.582 105.986 123.55 105.875C123.471 105.654 123.297 105.416 123.122 105.162C122.663 104.481 121.855 103.276 122.932 101.96C121.95 100.629 121.507 99.0909 121.554 97.2997C121.554 97.1253 121.507 96.9192 121.427 96.6814C121.253 96.0949 121 95.2072 121.728 94.2403C121.744 94.1293 121.633 93.5428 121.507 93.3843C120.73 92.6234 120.603 91.7357 120.493 90.9589C120.429 90.5309 120.366 90.1188 120.223 89.7066L119.178 86.9326L119.669 87.3289C119.621 87.1387 119.605 86.9326 119.589 86.7107L119.526 85.4108C119.13 84.6816 118.766 83.8573 118.671 82.8745L118.576 81.8759C118.576 81.8759 118.496 81.7491 118.465 81.6856C118.053 80.9089 117.973 79.7834 118.29 79.2128C118.37 79.0701 118.48 78.9433 118.607 78.864C117.799 77.7385 117.688 76.4704 117.593 75.3449C117.514 74.5048 117.451 73.7122 117.118 73.0306C117.023 72.8403 116.991 72.666 116.96 72.5233L116.801 71.7466L117.086 71.6515C117.086 71.6515 117.07 71.6197 117.055 71.588C116.991 71.4137 116.88 71.1918 116.769 70.9857C116.421 70.2565 116.183 69.7809 116.389 69.3054L116.548 68.9725L116.754 68.9091C116.674 68.7981 116.611 68.6872 116.563 68.5445C116.5 68.3543 116.342 68.0848 116.183 67.8312C115.803 67.213 115.28 66.357 115.898 65.6436C116.262 65.2315 116.183 64.9778 115.914 64.3438C115.835 64.1694 115.771 63.9792 115.708 63.8207C115.248 62.4574 114.773 60.7613 114.852 58.7322C114.852 58.5579 114.884 58.3835 114.9 58.2091C114.947 57.7653 115.011 57.258 114.852 56.941C114.662 56.5605 114.44 56.1801 114.219 55.7997C114.044 55.4826 113.87 55.1814 113.696 54.8644C113.506 54.5632 113.268 54.1669 113.442 53.7072L113.569 53.3426L113.854 53.2158C113.743 53.089 113.632 52.9622 113.553 52.8037C113.442 52.5659 113.252 52.3281 113.078 52.0745C112.587 51.4087 111.985 50.5844 112.349 49.6809C112.603 49.0943 112.444 48.7932 112.064 48.1749C111.937 47.9689 111.811 47.7469 111.7 47.525C111.573 47.2555 111.589 47.0178 111.605 46.8434L111.652 46.0191H111.795C111.288 45.179 110.892 44.3071 110.511 43.4511C110.036 42.4049 109.593 41.4062 108.943 40.4868L107.866 38.965L108.927 39.1236C108.61 38.5846 108.357 38.0298 108.103 37.475C107.707 36.619 107.343 35.8105 106.772 35.1765C106.535 34.8911 106.424 34.5107 106.471 34.162C106.566 33.3377 106.139 32.656 105.663 31.8634C105.252 31.2135 104.84 30.5319 104.665 29.7076C104.57 29.2638 104.19 28.8833 103.746 28.4395C103.192 27.8688 102.542 27.2347 102.321 26.2361L102.194 25.6654C101.544 25.1898 100.91 24.5558 100.705 23.5413L100.562 22.7962C100.562 22.7962 100.546 22.7962 100.53 22.7804C100.087 22.5109 99.548 22.178 99.4371 21.5756C99.2945 20.5453 98.6608 20.0856 97.6468 19.4198C97.3775 19.2454 97.1082 19.071 96.8547 18.8808L96.316 18.4845L96.617 17.8822C96.617 17.8822 96.6962 17.7395 96.7438 17.6761L96.2368 17.3591C95.8407 17.1213 95.413 16.8042 95.3654 16.297L95.3179 15.9007L95.3496 15.869C94.1614 15.0605 93.4326 14.5533 93.6702 13.84C93.4643 13.7607 93.2108 13.6497 93.0048 13.4278C92.9573 13.3961 92.7988 13.3327 92.6879 13.301C92.3077 13.1742 91.7374 12.9681 91.4839 12.3816C91.3888 12.1755 91.3571 11.9377 91.373 11.7C91.2621 11.6524 91.167 11.589 91.072 11.4939C90.9927 11.4146 90.7392 11.3195 90.5491 11.2561C90.0421 11.0659 89.1074 10.733 89.0599 9.65508C89.0599 9.48071 89.0124 9.4173 89.0124 9.4173C88.9807 9.3856 88.8064 9.32219 88.6955 9.27464L88.4578 9.17953C87.9033 8.94175 87.3488 8.70397 86.8102 8.51375C86.5725 8.41864 86.3349 8.32353 86.0972 8.21257L85.7804 8.46619C85.7804 8.46619 85.8754 8.46619 85.923 8.46619C86.4775 8.51375 87.0478 8.83079 87.4597 9.33804L86.224 10.3367C86.0814 10.1623 85.8913 10.0514 85.7804 10.0514C85.7804 10.0514 85.9546 10.2574 86.0655 10.4001L86.1923 10.5428C89.8045 14.8862 92.482 19.6893 94.9218 24.2387C105.125 43.0707 108.103 63.2024 110.464 83.889C111.129 89.6908 112.27 95.6035 113.379 101.326C115.486 112.264 117.672 123.566 116.706 134.789C116.5 137.151 115.977 139.687 115.153 142.35C114.9 143.191 114.567 144.11 114.171 145.061L115.058 144.459L114.076 146.868C112.539 150.451 110.797 154.176 107.755 156.871C107.485 157.108 107.232 157.33 106.978 157.568C105.568 158.868 104.095 160.2 101.861 160.739C100.72 161.024 99.2787 161.674 97.9162 162.53C97.3458 162.894 96.6804 162.942 96.0942 163.005L95.6823 163.053C95.2545 163.116 94.7792 163.18 94.3515 162.863C94.2723 162.799 94.193 162.736 94.1297 162.625C89.9788 162.118 86.6042 160.485 85.8437 158.551C85.5269 157.743 85.6695 156.934 86.2557 156.284C87.8716 154.477 88.6638 152.226 89.4084 149.88L90.9135 150.356C90.1214 152.876 89.25 155.301 87.4439 157.33C87.2538 157.536 87.2221 157.727 87.3171 157.964C87.7607 159.106 90.4541 160.548 94.1297 161.024C94.3356 160.739 94.7 160.501 95.3337 160.422C96.7913 160.2 98.2013 159.819 99.6431 159.248C103.382 157.822 106.424 155.571 108.753 152.511L108.579 151.846C108.103 149.959 107.897 148.01 107.707 146.139C107.47 143.856 107.216 141.494 106.487 139.259C106.107 138.086 105.521 136.929 104.966 135.82C104.729 135.328 104.475 134.853 104.238 134.361C103.16 132.063 102.875 129.685 102.606 127.386C102.495 126.515 102.4 125.643 102.241 124.771C100.752 115.926 101.877 106.779 102.954 97.9337C103.873 90.4517 104.824 82.7002 104.174 75.1864C103.715 69.8761 103.192 64.3913 102.21 59.0334C102.225 59.3029 102.257 59.5882 102.273 59.8577C102.352 60.999 102.431 62.1245 102.574 63.25C102.764 64.8035 102.796 66.357 102.828 67.8629C102.843 68.7823 102.859 69.7017 102.923 70.6052C103.033 72.4916 98.1538 91.7674 97.726 93.416L97.8211 93.4318ZM15.8332 158.694C16.4194 158.805 16.7362 159.153 16.8154 159.724C16.8788 160.184 17.164 160.39 17.7027 160.754C17.8928 160.881 18.067 161.008 18.2413 161.135C21.2515 163.56 25.0222 164.337 28.6185 164.939C30.3613 165.225 31.9456 165.272 33.4348 165.098L33.3873 164.543C35.7162 164.321 37.6649 163.196 39.7404 161.991C40.5167 161.547 41.293 161.103 42.0852 160.707C42.2277 160.643 42.3545 160.532 42.4812 160.422C42.8298 160.136 43.3209 159.772 44.0814 159.756C45.5706 158.725 46.8698 157.378 47.8679 155.872L48.058 155.587L48.3907 155.523C48.5174 155.507 48.6442 155.412 48.7393 155.254C48.9135 155 48.9769 154.604 48.8977 154.287C48.7392 153.621 48.2006 153.035 47.6302 152.416C39.5978 143.666 34.2587 131.619 31.2485 115.608L30.2821 115.038C29.4582 114.562 28.9354 113.595 28.9354 112.533C28.9354 111.471 29.4424 110.504 30.2662 110.029L30.6623 109.791C30.6148 109.521 30.5197 109.299 30.3137 109.173C30.2345 109.125 30.1395 109.078 30.0603 109.03C29.886 108.951 29.68 108.84 29.4899 108.697C28.1908 107.667 28.8403 105.939 29.2681 104.782C29.8068 103.339 29.8543 101.817 29.4582 100.422C29.2681 100.454 29.0621 100.438 28.8562 100.407C28.1432 100.264 27.6204 99.7567 27.5254 99.0909C27.4303 98.4251 27.8105 97.7911 28.4601 97.474C28.6819 97.3631 28.9037 97.2997 29.1255 97.2838C29.6959 93.416 28.5235 89.5798 27.2719 85.5376C26.654 83.5562 26.0361 81.5271 25.6242 79.4664C25.1964 81.749 25.1489 84.3804 25.1172 86.6473L25.0855 88.1215C25.0222 90.1981 24.9429 92.2588 24.8479 94.3354C24.7211 97.3789 24.5786 100.533 24.5627 103.625V104.259C24.531 107.033 24.4993 109.902 23.929 112.692C22.7408 118.478 22.2179 123.376 22.2655 128.1C22.2813 130.43 21.9169 132.649 21.1564 134.694C20.3326 136.929 19.7781 138.879 19.4612 140.67C18.875 143.983 19.1285 146.916 20.2534 149.658L20.4594 150.165C20.4594 150.165 20.4752 150.229 20.491 150.245L20.5861 150.197L21.4416 151.751L21.2357 152.115C21.1723 152.242 21.0931 152.369 21.2832 152.718C22.6457 155.143 23.9607 157.6 25.2756 160.073C25.3073 160.136 25.3232 160.152 25.7193 160.215C27.256 160.453 28.7611 160.295 30.3613 160.12C30.9475 160.057 31.5495 159.994 32.1357 159.946C35.6053 159.676 38.4254 159.122 40.8969 157.315C41.2296 157.077 41.5148 156.744 41.8 156.411C42.1961 155.935 42.6555 155.412 43.3526 155.016C43.717 154.794 43.7487 154.588 43.7487 154.525C43.7804 154.208 43.5427 153.764 43.0833 153.336C42.0693 152.385 41.3247 151.291 40.5959 150.229L40.4058 149.943L41.7208 149.056L41.9109 149.341C42.6238 150.387 43.2892 151.37 44.1764 152.194C45.0161 152.987 45.428 153.875 45.333 154.715C45.2538 155.396 44.8419 155.999 44.1448 156.411C43.6853 156.68 43.3684 157.045 43.0041 157.473C42.6714 157.869 42.3228 158.282 41.8317 158.63C38.8849 160.77 35.4944 161.293 32.2624 161.547C31.6921 161.595 31.1059 161.658 30.5356 161.721C28.9196 161.896 27.2402 162.07 25.5133 161.816C25.0063 161.737 24.2934 161.642 23.8656 160.849C22.5506 158.392 21.2357 155.951 19.889 153.526C19.7147 153.209 19.6038 152.892 19.5721 152.591C19.2711 153.795 18.574 154.778 17.6076 155.27L17.0531 155.555L16.6412 155.079C10.6525 147.978 10.3356 137.944 10.8743 128.147C11.809 111.122 13.9795 93.1465 17.6868 71.588C20.0474 57.9079 22.9309 43.3718 28.0323 29.7235C30.789 22.3682 35.4152 12.1121 44.1289 6.19939C43.3209 6.43716 42.5129 6.70665 41.7049 6.97613C40.9128 7.24561 40.2157 7.75286 39.4869 8.27597C38.6314 8.89419 37.76 9.52827 36.6668 9.86115C36.7302 10.844 35.843 11.2403 35.5103 11.3829C35.4469 11.4146 35.3677 11.4463 35.3202 11.478C34.8924 11.7158 34.4488 11.9536 34.0052 12.1755L33.6091 12.3816C33.7042 12.5718 33.7675 12.7937 33.7517 13.0474C33.7042 13.6497 33.2289 13.9509 32.9279 14.1253C32.8645 14.157 32.8011 14.1887 32.7694 14.2362C32.5793 14.4265 32.3258 14.5691 32.1199 14.696C32.0406 14.7435 31.9297 14.8069 31.8505 14.8545C31.9139 16.1702 31.0901 16.8201 30.4722 17.2956C30.3296 17.4066 30.187 17.5176 30.0603 17.6444C29.9335 17.7553 29.8068 17.8505 29.68 17.9456C29.585 18.0248 29.4107 18.1358 29.3632 18.1992C29.2047 19.2613 28.476 20.0697 27.8422 20.7989C27.3669 21.3379 26.9392 21.8293 26.7174 22.4475C26.353 23.3986 25.8143 24.7935 24.5944 25.6654C24.9905 26.6799 24.3884 27.3615 23.9765 27.8371L23.8498 27.9956C23.7389 28.1224 23.6121 28.2492 23.4854 28.376C23.2477 28.6138 23.0259 28.8516 22.8833 29.1052C23.1051 29.3272 23.2794 29.5491 23.2953 29.8978C23.3111 30.3417 23.0576 30.627 22.8358 30.8489C22.6299 31.0867 22.4081 31.3086 22.1862 31.5306C22.1229 31.594 22.0437 31.6732 21.9803 31.7366C21.9961 31.7683 22.0278 31.7842 22.0437 31.8159C22.3288 32.2122 22.2021 32.6402 22.1546 32.8146C21.9644 33.4803 21.6317 33.9876 21.3149 34.479C20.8396 35.2082 20.5703 35.6679 20.6336 36.3019C20.6336 36.8885 20.2376 37.1262 20.0633 37.2214C19.7306 37.5384 19.4612 37.8396 19.1761 38.1408C18.8592 38.4736 18.5582 38.8065 18.273 39.1394C18.6691 39.4406 18.9067 39.9796 18.6057 40.6612C18.273 41.3111 18.0354 42.0403 18.0354 42.2305C18.0829 42.9914 17.7027 43.6255 17.4175 44.1327C16.9897 44.8619 16.9105 45.0997 17.1798 45.496C17.465 45.9874 17.2591 46.3995 17.1323 46.6532C17.1006 46.7007 17.0848 46.7483 17.0689 46.7958C16.9263 47.2238 16.7204 47.5567 16.5303 47.8738C16.15 48.492 15.9758 48.809 16.1817 49.348C16.4194 50.0296 15.9599 50.632 15.548 51.1709C15.3579 51.4087 15.1836 51.6623 15.0886 51.8367C15.0569 51.916 14.9935 52.0111 14.946 52.0903C15.1995 52.2013 15.3737 52.3915 15.4846 52.6134C15.7064 53.089 15.548 53.6121 15.4213 53.9609C15.2945 54.2462 15.1836 54.4998 15.0569 54.7376L15.1361 55.229L14.2647 56.0691C14.2647 56.0691 14.3598 56.1484 14.3915 56.196C14.6766 56.4971 15.0727 57.1471 14.2964 57.9714C14.233 58.114 14.1697 58.2567 14.0904 58.3835C14.2964 58.5579 14.4865 58.7798 14.5499 59.081C14.7083 59.6675 14.3439 60.1272 14.138 60.3967C14.0904 60.4601 14.0112 60.5711 13.9795 60.6186C13.8686 61.0149 13.5993 61.3478 13.3775 61.6331C13.2666 61.7758 13.0765 62.0136 13.0606 62.1087C13.0606 62.1087 13.1082 62.2038 13.33 62.3782C13.8686 62.822 13.7102 63.7097 13.4726 64.0901C13.33 64.3279 13.2349 64.645 13.124 64.9778C12.9814 65.4376 12.8071 65.9607 12.4744 66.4362C12.6646 66.6264 12.7913 66.8484 12.8388 67.102C12.9656 67.7044 12.6329 68.1641 12.4111 68.4811C12.3477 68.5604 12.2685 68.6713 12.2526 68.7189C12.1893 68.9884 12.0467 69.2261 11.9041 69.4164L12.4269 69.7651L12.1893 70.3675C12.0784 70.6369 11.9833 70.9064 11.8882 71.1759C11.6348 71.9368 11.3654 72.7294 10.7951 73.4744C10.7634 73.5061 10.7317 73.5537 10.7159 73.5854C10.9693 73.8073 11.1119 74.0451 11.1753 74.3146C11.3179 74.8852 11.0169 75.3449 10.8109 75.6303C10.7634 75.7095 10.6683 75.8363 10.6525 75.868C10.5733 76.1534 10.4307 76.3911 10.3039 76.5972C10.399 76.6606 10.4782 76.7399 10.5733 76.8508L10.906 77.2788L10.6366 77.7544C10.2089 78.4677 10.1614 79.3237 10.1138 80.2114C10.0821 80.687 10.0663 81.1625 9.98708 81.6222C9.90786 82.1929 9.60685 82.7002 9.35336 83.1282C9.22661 83.3501 9.02065 83.6988 9.02065 83.8256C9.52763 85.1096 9.09987 86.2351 8.71963 87.2179C8.35524 88.1849 8.13344 88.819 8.43446 89.5481C8.70379 90.2298 8.48199 90.8955 8.27603 91.4979C8.10175 92.0052 7.94332 92.4649 8.07007 92.8929C8.32356 93.6855 8.07007 94.3829 7.86411 95.0011C7.70568 95.445 7.56309 95.873 7.61062 96.3327C7.72152 97.4106 7.56309 98.5837 7.4205 99.725C7.32544 100.407 7.23038 101.088 7.1987 101.754C7.16701 102.325 7.10364 102.911 7.02442 103.482C6.86599 104.671 6.72341 105.796 7.02442 106.89C7.11948 107.207 7.24623 107.825 6.97689 108.317C6.69172 108.856 6.58082 109.49 6.48576 110.155C6.35901 110.948 6.21643 111.836 5.72529 112.644C6.51745 113.389 6.15305 114.356 5.97878 114.816C5.91541 114.959 5.86788 115.117 5.85204 115.212C5.80451 115.593 5.61439 115.957 5.45596 116.274C5.42427 116.338 5.39259 116.385 5.37674 116.433C6.04215 117.606 5.50349 118.589 5.15494 119.254C5.04404 119.445 4.94898 119.635 4.86977 119.841C4.86977 119.873 4.85392 119.904 4.83808 119.936C5.12325 120.126 5.26584 120.364 5.32921 120.554C5.56686 121.188 5.21831 121.775 5.07573 121.997C4.48953 122.995 4.56875 124.137 4.63212 125.357C4.66381 125.865 4.69549 126.356 4.67965 126.832C4.67965 127.307 4.64796 127.799 4.63212 128.274C4.56875 129.732 4.50537 131.238 4.71133 132.728C4.82224 133.489 4.86977 134.282 4.93314 135.059C5.0282 136.358 5.12325 137.706 5.4718 138.958C5.64608 139.64 5.51933 140.21 5.3609 140.686C5.3609 140.686 5.37674 140.686 5.39259 140.686L5.66192 140.813L5.78866 141.082C6.10553 141.764 6.04215 142.477 5.97878 143.111C5.88372 144.11 5.89957 144.459 6.54913 144.807C7.40466 145.251 7.0878 146.282 6.94521 146.757L7.1987 147.423L7.46803 147.582C9.06818 148.549 8.90975 150.039 8.79885 151.132C8.79885 151.164 8.79885 151.212 8.79885 151.275C9.32167 151.243 10.0663 151.275 10.5257 151.814C11.0644 152.448 10.8901 153.352 10.7159 153.986C11.7932 154.128 13.1557 154.715 13.2349 156.871C13.6468 156.902 14.0904 157.029 14.3122 157.489C14.4231 157.727 14.439 157.964 14.3756 158.171L14.4548 158.25C14.8509 157.964 15.3104 157.933 15.5638 157.964C15.6272 157.964 15.6906 157.964 15.754 157.964L15.8649 158.63L15.8332 158.694ZM45.6182 7.1505C36.9203 12.7303 32.2941 22.9706 29.5533 30.2941C24.4993 43.7998 21.6317 58.2567 19.287 71.8734C15.5797 93.3684 13.425 111.281 12.4903 128.258C11.9833 137.468 12.2526 146.868 17.4175 153.51C17.9878 152.892 18.2096 151.909 18.178 151.053C18.1463 150.245 17.9403 149.452 17.7343 148.596C17.6076 148.089 17.4809 147.566 17.3858 147.058C16.863 144.126 17.4175 141.193 17.972 138.356L18.0354 138.007L18.4314 138.086C18.7483 136.866 19.1602 135.566 19.683 134.171C20.3643 132.3 20.7128 130.271 20.697 128.147C20.6336 123.297 21.1723 118.287 22.3922 112.406C22.9309 109.775 22.9626 106.985 22.9942 104.274V103.64C23.0259 100.518 23.1685 97.3631 23.2953 94.3037C23.3745 92.2429 23.4695 90.1822 23.5329 88.1056L23.5646 86.6473C23.628 83.0172 23.7072 78.5153 25.3073 75.5351L26.1787 73.9183C25.9727 71.4454 25.8777 68.9567 25.7985 66.5947C25.5291 57.8762 27.161 49.7443 30.6465 42.4049C32.4209 38.6639 34.6548 35.1606 37.253 31.9903C37.3164 31.911 44.525 23.8266 46.0142 23.779H46.3786L46.6955 24.0485C47.3292 24.7301 47.8679 25.491 48.2956 26.3153L50.0701 13.7924L51.6385 14.0143L48.8026 33.9083C48.8502 34.0351 48.8818 34.1303 48.9135 34.2095C49.0086 34.4473 49.0878 34.6692 49.0561 34.9387C48.9452 35.9057 48.9769 36.8726 49.0086 37.8871C49.0561 39.1711 49.1036 40.5185 48.8343 41.8818C48.6759 42.6902 48.7392 43.5462 48.8185 44.4498C48.8818 45.2265 48.9452 46.0191 48.866 46.8434C48.8502 47.0336 48.866 47.208 48.866 47.4141C48.866 47.7469 48.866 48.0798 48.8185 48.3969C48.5333 49.9345 48.6283 51.4563 48.7234 53.0731L48.7709 54.0401C48.7709 54.3571 48.7234 54.6425 48.6759 54.8961C48.565 55.4192 48.5967 55.4668 48.7234 55.5777L49.072 55.8789L48.9769 56.3862C48.9769 56.3862 48.7234 57.48 47.9629 57.6226C47.6883 57.6755 47.551 57.9502 47.551 58.4469V58.7322L48.2956 57.8128L48.7709 59.1127C49.1036 60.0162 49.1512 60.9039 49.1829 61.6807C49.2145 62.1721 49.2304 62.6318 49.3254 63.0598C49.7057 64.8669 49.7057 66.7057 49.6898 68.4969V69.3212C49.674 72.127 50.1651 74.8535 50.6721 77.1362L50.783 77.6117C51.9237 82.5099 52.0821 85.0779 51.3058 86.2034C51.2583 86.2668 51.2108 86.3461 51.1474 86.3936C51.6068 88.0581 51.0365 90.5626 50.5295 92.8295C50.3236 93.7172 50.1334 94.5573 50.0859 95.0963C49.975 96.1266 49.5472 96.9351 49.167 97.6484C48.9769 98.013 48.7709 98.3776 48.6283 98.7739L48.5174 99.0751C48.3432 99.5348 48.2798 99.6774 48.4858 100.026C48.9769 100.85 48.9452 101.865 48.4065 102.784C47.7887 103.831 46.648 104.544 45.4756 104.687C45.4439 104.75 45.3964 104.813 45.3647 104.877C44.4458 106.177 43.5269 106.224 42.909 106.034C42.5604 105.939 42.2753 105.654 42.1644 105.273C42.0218 104.702 42.307 104.084 42.6397 103.751C42.6397 103.751 42.7664 103.609 42.8298 103.545C42.8932 103.482 42.9407 103.418 43.0041 103.355C41.9901 103.846 41.4831 103.466 41.2138 103.07C40.8177 102.499 40.8494 101.738 41.3088 101.183C41.5465 100.93 41.5306 100.755 41.3881 100.105L41.3405 99.8994C41.3088 99.7567 41.293 99.614 41.2772 99.4714L40.5642 98.6946C39.3126 97.3314 39.1383 95.7303 38.9799 94.3195C38.9165 93.8123 38.869 93.305 38.7581 92.8136C38.0135 89.6274 37.3798 86.2193 36.8569 82.6685C36.5242 80.4175 36.5084 78.1348 36.4767 75.9156V75.0754C36.3975 70.4626 37.158 66.0875 37.9026 62.4099C38.0452 61.7282 38.1561 61.0466 38.267 60.3491C38.5205 58.8115 38.774 57.2105 39.3285 55.657C39.5661 55.0229 39.677 54.3413 39.8038 53.6121C39.9305 52.8512 40.0731 52.0745 40.3424 51.2977C40.5484 50.6795 40.7385 50.0455 40.9445 49.4114C41.3247 48.1749 41.7049 46.8909 42.2594 45.6704C42.6714 44.751 43.115 43.8474 43.5586 42.928C44.9211 40.0747 46.3311 37.1421 47.2342 33.7657L47.9313 31.1343L48.058 31.5306L47.8837 30.2941C47.7253 31.4671 47.0916 32.45 46.5054 33.3535C46.0776 34.0034 45.6815 34.6058 45.4914 35.2557C45.3964 35.5886 45.2062 35.8264 45.0478 36.0325C44.9844 36.1117 44.8894 36.2385 44.8735 36.2702C45.1429 36.7934 45.3171 37.8554 44.6517 38.6639C44.4775 38.8699 44.2715 39.0443 44.0655 39.2345C43.5744 39.6467 43.3843 39.8052 43.5586 40.4868C43.9546 42.0403 43.0991 43.4036 42.3545 44.6083C42.1168 44.9729 41.895 45.3375 41.7049 45.7021L41.499 46.1142C40.8811 47.3189 40.2315 48.5712 39.8988 49.7284C38.6314 54.1828 37.6333 57.8921 36.7936 61.3795C36.7144 61.6648 36.6193 61.9343 36.5242 62.2038C36.3658 62.6476 36.1915 63.1073 36.2549 63.3927C36.4925 64.8193 36.2549 66.1509 35.9856 67.2605C35.3518 69.9078 35.2251 72.6818 35.0984 75.3766C35.0667 76.09 35.035 76.7874 34.9875 77.5008C34.8924 79.2128 35.2093 80.893 35.542 82.6843C35.7321 83.6513 35.9064 84.6658 36.0331 85.6803L36.0806 86.1241C36.144 86.9167 36.2074 87.3289 36.6668 87.6776C37.3164 88.1849 37.253 89.1201 36.9837 89.8176C36.8728 90.1346 36.8728 90.42 37.0154 90.9906C37.3956 92.6709 36.9362 93.8123 35.637 94.4146C35.2093 94.6207 34.8132 94.7317 34.4646 94.7634C34.4805 94.7951 34.4963 94.8268 34.528 94.8743C35.3835 96.3961 36.1757 97.8545 37.253 99.1226C37.5065 99.408 37.6174 99.7725 37.5382 100.121C37.4907 100.327 37.3639 100.597 37.0629 100.803L37.3639 101.215C38.7423 103.117 39.3285 105.416 39.2017 108.412C39.2017 108.713 39.1542 109.014 39.1225 109.315C39.075 109.743 39.0274 110.14 39.0591 110.504C39.1225 111.059 39.1859 111.598 39.2651 112.153C39.5661 114.483 39.8988 116.908 39.075 119.381C39.7245 120.491 39.6453 121.6 39.582 122.599C39.582 122.789 39.5503 122.98 39.5503 123.154C39.5503 123.344 39.5661 123.487 39.5978 123.55L39.8513 123.582C40.5959 123.693 40.9128 123.709 41.2772 123.233C41.6415 122.742 42.2277 122.076 42.9882 122.028C42.9882 122.028 43.0199 122.028 43.0357 122.028C42.9724 121.664 42.9882 121.299 43.1466 120.935C43.3843 120.412 43.8596 120.063 44.62 119.841C44.7151 119.809 44.8735 119.571 44.9369 119.239C45.2221 117.511 45.9826 116.021 46.743 114.578L47.2025 113.675C47.2817 113.5 47.3134 113.453 47.2025 113.183C46.8856 112.47 46.9173 111.772 47.2817 111.186C47.6936 110.52 48.5016 110.124 49.468 110.108C50.2602 110.108 51.0365 110.171 51.7811 110.266C52.7951 110.377 53.7457 110.488 54.7279 110.33C56.2647 110.076 57.849 110.393 59.3858 110.71L59.7819 110.79C60.4156 110.916 60.9859 111.202 61.4296 111.63C61.4612 111.566 61.4929 111.503 61.5405 111.439C61.5088 111.36 61.4771 111.265 61.4612 111.17C61.2078 109.775 61.5246 108.57 62.396 107.603C62.5544 107.413 62.903 107.033 62.2692 106.097C62.1425 105.923 61.9999 105.828 61.9207 105.812C61.8415 105.78 61.7147 105.907 61.6672 105.955C60.78 106.763 60.0829 106.161 59.9561 106.034L59.9245 106.002C59.5125 106.7 58.9105 107.334 58.1342 107.857C56.534 108.951 54.0308 110.377 50.9098 110.076H50.6721C49.9592 110.013 49.2938 109.949 48.9769 109.442L48.7709 109.093L48.9294 108.602C48.9769 108.507 48.9769 108.269 48.9769 108.095C48.9769 107.54 48.9769 106.525 50.1018 106.145C50.3869 106.05 50.4503 106.002 50.4186 105.289C50.4186 105.115 50.3869 104.972 50.3711 104.829C50.2919 104.29 50.1968 103.545 50.8147 102.848C50.9731 102.673 50.9573 102.547 50.7672 101.976C50.6087 101.485 50.3869 100.803 50.6721 100.074L50.8147 99.7091C51.3058 98.4568 51.7494 97.3789 51.29 96.1266C50.9573 95.2231 51.5752 93.8915 52.7 93.0989L53.0486 93.6062C52.8268 92.449 52.6683 91.276 52.6208 90.0712C52.5574 88.5336 52.4307 86.9801 52.3039 85.4584C52.1455 83.6513 51.9871 81.7966 51.9554 79.9419H52.7475L51.9554 79.9102C52.2881 62.7744 53.9516 56.4496 55.2824 51.3612C55.4726 50.632 55.6627 49.9186 55.8369 49.2053C56.9301 44.751 58.1183 41.0575 59.5442 37.5859L60.1304 36.1593L60.9384 37.475C61.889 39.0126 62.19 40.3759 61.8732 41.7867L61.4454 43.7523C60.5582 47.8579 59.6551 52.0903 59.2115 56.2911C59.0689 57.6385 58.9105 58.97 58.7362 60.3174C58.3085 63.8207 57.8649 67.4349 57.9282 71.0015C57.9599 72.8403 57.9282 74.6791 57.9282 76.518C57.8807 80.0371 57.849 83.683 58.1976 87.2496L58.3877 89.136C58.8471 93.6379 59.3066 98.2983 60.3998 102.769C60.4314 102.927 60.4631 103.07 60.479 103.228C61.5563 100.961 61.9207 98.4093 61.6514 95.2865C61.5405 93.9232 61.2077 92.6234 60.8275 91.2601C60.7166 90.848 60.6057 90.4517 60.5107 90.0395C60.3681 89.4213 60.2255 88.7238 60.4156 88.0422C60.3522 87.6935 60.273 87.2496 60.574 86.8692C60.78 86.5997 61.1127 86.457 61.5246 86.4253C61.9682 86.4095 62.3643 86.5204 62.6653 86.7424C62.6653 85.6486 62.7445 84.5707 62.8079 83.5086C62.8871 82.3673 62.9663 81.1942 62.9505 80.0371C62.9505 79.5774 63.1089 79.1494 63.4416 78.8799C63.7902 78.5787 64.2655 78.4836 64.7724 78.5945C65.7706 78.8006 66.2458 79.5139 66.0716 80.5126C65.7864 82.3197 65.5646 84.1902 65.3428 85.9973C65.1685 87.5191 64.9784 89.025 64.7566 90.5468C64.2971 93.6696 64.6774 96.7924 65.8815 99.8201C65.9607 99.2494 66.0716 98.6471 66.2617 98.013C67.3549 94.2086 67.9252 90.2773 68.3847 86.5997C69.2085 80.2273 69.2402 73.95 69.1768 68.1165C69.0976 62.6793 68.2104 57.4007 67.3707 52.978C66.8004 49.9979 66.0557 46.8909 65.0101 43.1975C64.4714 41.3111 65.0101 39.393 66.6261 37.4908C67.1172 36.8885 67.64 36.8885 67.9094 36.9519C68.3847 37.047 68.7649 37.4591 68.9233 38.0298L69.2402 39.0443C69.7947 40.8039 70.365 42.6268 70.7136 44.4815C71.2364 47.0812 71.68 49.8235 72.0919 52.8671C72.2821 54.3571 72.393 55.8314 72.5197 57.3056C72.5989 58.2408 72.6781 59.1761 72.7574 60.1113C73.1534 63.8999 73.5178 67.7044 73.8664 71.5088C73.9297 72.2063 74.009 72.8879 74.104 73.5854C74.3417 75.5034 74.5793 77.4691 74.3733 79.4188C74.2783 80.3699 74.1199 81.321 73.9773 82.288C73.7872 83.5244 73.5812 84.8084 73.502 86.0607C73.3752 87.8995 73.0425 89.7225 72.7098 91.4821C72.6781 91.6564 72.6464 91.8149 72.6148 91.9893C72.694 91.9893 72.7732 91.9893 72.8207 91.9893C73.2485 92.0369 73.9773 92.2905 74.2149 93.3843L74.2783 93.7172C74.8486 96.5546 75.4507 99.503 75.4824 102.547C75.4824 103.942 75.926 105.035 76.7498 105.765C77.6212 106.494 77.3835 107.603 77.2409 108.253C77.0984 108.903 76.6864 109.189 76.2745 109.315C77.4786 109.315 77.8271 110.488 77.9697 110.964C78.0648 111.281 78.144 111.614 78.2232 111.947C78.3658 112.612 78.5084 113.231 78.8253 113.801C79.158 114.404 79.2213 115.07 79.2689 115.704C79.3164 116.211 79.3639 116.686 79.5223 117.083C79.855 117.891 80.0135 118.747 79.9818 119.698C80.1085 119.857 80.2353 120.031 80.3303 120.221C80.6472 119.777 80.9958 119.746 81.2651 119.809L81.677 119.904L81.8354 120.285C82.184 121.141 82.0731 121.997 81.9622 122.758C81.883 123.423 81.8196 123.883 81.9622 124.279C82.184 123.994 82.4375 123.772 82.6593 123.566C83.4356 122.869 83.5148 122.536 83.4039 122.187L83.3247 121.933L85.1625 116.829C85.2259 116.338 85.2892 115.846 85.3526 115.371C85.4477 114.61 85.5427 113.849 85.6536 113.104L85.7011 112.819L85.9071 112.628C85.9071 112.628 87.8241 110.869 87.3171 109.062C85.416 106.129 87.0636 104.148 88.4895 102.927C91.4997 100.311 93.7177 97.0936 96.2685 93.1465C96.2526 91.3711 97.2983 86.0607 98.8826 78.3568C99.7698 74.0609 100.673 69.6383 100.689 68.7506V68.4494C100.72 65.1047 100.752 61.6331 100.261 58.2725C99.5638 53.5646 98.6133 48.5395 96.4586 43.8157C96.1101 43.0707 95.7932 42.3098 95.4605 41.5489C95.0169 40.5185 94.5574 39.4406 94.0505 38.4261L93.0206 36.8885C92.3236 35.8264 91.6265 34.7802 90.8818 33.7657C90.2956 32.9414 89.6144 32.2122 88.9015 31.4513C88.4262 30.9282 87.935 30.4209 87.4914 29.882C86.7785 29.026 85.9388 28.3126 85.0674 27.5676C84.6713 27.2347 84.2911 26.9018 83.9109 26.5531L84.7822 25.4593C84.7822 25.4593 84.7664 25.4593 84.7506 25.4752C84.1802 25.8081 83.4831 25.8081 82.6276 25.5069C82.5959 25.5069 82.4692 25.5069 82.2632 25.6178C81.6453 25.9666 80.9958 26.8701 80.8373 27.5993C80.3145 30.2307 80.9958 32.6877 81.7404 34.7485C82.8019 37.7762 83.9584 40.8197 85.0833 43.784L85.4952 44.8619C86.018 46.2569 86.4141 47.3189 87.2062 48.4444C87.4756 49.0151 92.2443 59.5724 91.4205 68.2116C91.3413 69.0835 91.0878 69.8602 90.8343 70.6211C90.5174 71.588 90.2164 72.5075 90.359 73.4427C90.3907 73.6646 90.4224 73.8707 90.4699 74.0768C90.6125 74.806 90.7551 75.6303 90.6125 76.7557C90.2164 79.6725 89.5985 82.4941 88.9015 85.6169L87.3647 85.2681C87.3171 85.4742 87.4122 85.6327 87.4597 85.6803C87.4122 85.6327 87.3488 85.601 87.3013 85.5693C87.0795 85.4267 86.8102 85.2523 86.6676 84.9353C86.4616 84.4756 86.3507 84.0317 86.2398 83.6037C86.1131 83.0806 86.0022 82.6367 85.7328 82.2405L85.3684 81.7015C84.5763 80.5602 84.2436 79.9736 84.2911 78.2141V77.9129C84.3228 76.9935 84.3386 75.8363 84.8931 74.9328C83.7841 74.1402 82.8811 72.4282 82.1206 70.954C81.6612 70.0663 81.075 68.9408 80.7423 68.7189L80.1402 68.2909V68.4018L79.6808 68.2592C80.7106 71.8417 81.471 75.4876 82.1998 79.0384C82.4533 80.259 82.7068 81.4796 82.9603 82.7002C83.7049 86.1558 84.4654 89.881 84.8931 93.6062C84.9565 94.3354 85.1942 95.0646 85.4793 95.873C85.9071 97.157 85.8279 98.3459 85.2417 99.3921C85.0041 99.8201 84.9407 100.248 85.004 100.882C85.0516 101.485 85.1308 102.404 84.4495 102.895C84.1802 103.086 83.8633 103.165 83.4831 103.117C83.7366 103.656 83.8475 104.211 83.9426 104.655C84.101 105.495 83.7524 106.319 83.0554 106.747C82.2632 107.223 81.5344 106.985 80.8849 106.05C80.663 105.717 80.4254 105.432 80.1878 105.13C80.0769 105.765 79.9343 106.351 79.7125 106.953L79.2372 108.317L78.35 107.175C77.6529 106.288 77.4944 105.289 77.3677 104.417C77.3043 104.053 77.2568 103.672 77.1459 103.323C76.9399 102.658 76.5438 101.405 77.0825 100.185C77.0191 100.185 76.9716 100.153 76.9082 100.137C76.2587 99.8835 76.0369 99.1068 75.9893 98.8848C75.72 97.8703 75.9101 96.8717 76.0844 95.9998C76.1478 95.6986 76.2111 95.4133 76.2428 95.1121L76.2745 94.8902C74.9754 94.1927 74.6268 92.8295 74.3733 91.7832C74.2624 91.3552 74.1674 90.9431 74.009 90.5944C73.7872 90.0554 73.9456 89.453 74.1832 89.1043C74.405 88.7872 74.7694 88.6287 75.1021 88.6446C75.2447 88.6604 75.2606 88.6604 75.5299 88.3275C75.5299 88.3275 75.5299 88.3117 75.5457 88.2958C74.4367 87.2021 73.4703 85.7278 73.9139 83.6196C74.0406 83.0806 74.2308 82.5733 74.4209 82.0978C74.611 81.6222 74.7853 81.1625 74.8645 80.7187C75.213 78.8799 75.4982 77.0411 75.7675 75.1864C75.8943 74.3463 76.021 73.5061 76.1636 72.666C76.4963 70.526 76.6072 68.3226 76.7023 66.1984C76.7657 64.7084 76.8449 63.1549 77.0033 61.6331C77.0508 61.1734 77.1776 60.1113 78.2549 60.0479C78.1598 59.8894 78.0648 59.715 78.0014 59.5248C77.6053 58.542 77.6529 57.4799 77.6845 56.624C77.8271 53.6438 77.9856 50.6637 78.144 47.6994C78.3183 44.3705 78.5084 41.0416 78.6668 37.7128C78.7143 36.4129 78.5876 34.9862 78.2391 33.2267C78.0173 32.1012 78.2074 31.0709 78.3658 30.0563C78.4292 29.6759 78.4925 29.2955 78.5401 28.915C78.5559 28.7406 78.5876 28.5821 78.6193 28.4236C78.6985 28.0432 78.6827 28.0273 78.6193 27.9639C78.4609 27.7578 78.4292 27.5518 78.4133 27.3932C77.8271 26.5531 78.35 25.7447 78.6193 25.3167C78.6985 25.1898 78.8411 24.9679 78.8569 24.8887C78.8569 24.8887 78.8094 24.8252 78.6985 24.746C77.5578 23.8424 77.7004 22.4158 77.7954 21.3696L77.8271 20.9574C77.8905 20.149 77.6687 19.3564 77.4469 18.5162C77.2568 17.8505 77.0825 17.1688 77.0033 16.4396C76.9558 15.8214 77.0033 15.2349 77.035 14.6642C77.0984 13.8717 77.1459 13.1266 76.9558 12.4133C76.5914 11.05 77.6529 10.2416 78.2866 9.75019C78.4767 9.60752 78.6827 9.46486 78.8253 9.30634C79.1421 8.97345 79.5223 8.68812 79.9026 8.41864C80.2036 8.19671 80.5046 7.99064 80.7423 7.75286C81.17 7.32487 81.5978 7.05538 82.0256 6.92857L81.9305 6.83346C80.7739 7.49924 79.6808 8.32353 78.6193 9.33804C78.3658 9.59167 77.7479 10.1782 77.035 9.95626C76.3379 9.73434 76.1795 8.94175 76.0686 8.37108C75.7992 6.91272 75.4824 5.67628 74.9595 4.5508C74.3417 5.56532 74.0565 6.73835 73.7396 7.99064L72.2345 13.9034L72.2028 13.2534C72.2028 13.2534 72.2028 13.301 72.2028 13.3327C72.0286 14.5374 71.8543 15.7422 71.6959 16.9628C71.6325 17.5017 71.4899 18.1358 71.0146 18.6748C69.5571 20.3233 68.353 21.6707 67.1806 22.8913C67.1331 22.9389 67.0855 23.0023 67.0538 23.0498C66.8479 23.3193 66.4993 23.7473 65.9131 23.7949C65.5171 23.8266 65.1685 23.6681 64.82 23.351C64.7408 23.2876 64.6457 23.2084 64.5506 23.145C64.3922 23.034 64.2021 22.8913 64.0278 22.7011C63.7268 23.0023 63.3466 23.2242 62.9188 23.3352C62.0791 23.5571 61.1602 23.3352 60.479 22.717C58.8788 21.2269 58.0233 19.6734 57.7381 17.6602C57.5163 16.1543 57.342 14.6325 57.1678 13.1108L57.0885 12.5084C56.7717 9.67093 56.439 6.7542 55.8845 3.91673C55.8686 3.83747 55.8369 3.6631 55.8369 3.45703C55.5835 3.50458 55.33 3.53629 55.0765 3.58384L54.9814 3.72651C54.4428 4.50325 54.1417 5.32754 53.8249 6.19939C53.4922 7.10294 53.1436 8.0382 52.5257 8.9576L51.7336 10.1148L51.1474 8.83079C50.5137 7.43583 49.3571 6.83346 47.9946 6.13598C47.6461 5.96161 47.2975 5.77139 46.949 5.58117L46.8539 5.51776L46.9173 5.78724C47.2817 7.30901 48.4858 8.64056 49.9433 9.17953L49.4047 10.6696C47.757 10.0672 46.4103 8.78323 45.7132 7.1822L45.6182 7.1505ZM92.577 32.45C93.1949 33.1474 93.797 33.8766 94.3515 34.6375C97.0765 38.331 99.3262 42.7219 101.053 47.6518C104.079 56.3545 105.093 65.9607 105.869 75.0596C106.535 82.7477 105.568 90.5626 104.649 98.1398C103.588 106.874 102.479 115.894 103.921 124.517C104.079 125.405 104.19 126.308 104.285 127.212C104.554 129.495 104.824 131.635 105.79 133.711C106.012 134.187 106.25 134.662 106.487 135.138C107.073 136.295 107.675 137.5 108.103 138.8C108.895 141.193 109.149 143.634 109.402 146.012C109.545 147.344 109.672 148.644 109.909 149.912C111.684 147.486 113.03 144.332 113.759 141.938C114.551 139.37 115.043 136.945 115.248 134.694C116.199 123.693 114.044 112.502 111.953 101.675C110.844 95.9206 109.688 89.9761 109.022 84.111C106.677 63.5829 103.731 43.6096 93.6544 25.0313C91.2462 20.5453 88.6163 15.8214 85.115 11.6049L85.004 11.478C84.703 11.1451 84.2594 10.6379 84.2594 9.98797C83.8634 9.8453 83.6574 9.54412 83.5465 9.40145C83.2772 9.05271 82.8019 8.46619 82.485 8.45034C82.3424 8.45034 82.0414 8.60886 81.7562 8.89419C81.4394 9.21123 81.075 9.46486 80.7264 9.71849C80.3937 9.95626 80.0927 10.1782 79.8709 10.4001C79.6808 10.6062 79.4114 10.8123 79.1421 11.0183C78.445 11.5414 78.3024 11.7317 78.3816 12.0011C78.651 12.984 78.5876 13.9034 78.5242 14.7752C78.4925 15.3142 78.445 15.8056 78.4925 16.3128C78.5401 16.8994 78.7143 17.47 78.8728 18.0882C79.1263 19.0235 79.3956 19.9905 79.3164 21.0684L79.2847 21.5122C79.1896 22.495 79.158 23.1608 79.6016 23.4937C80.3145 24.0485 80.4254 24.6509 80.3303 25.1423C80.6631 24.7618 81.0433 24.4448 81.4394 24.2229C82.184 23.8107 82.7702 23.8741 83.1187 24.001C83.6574 24.1912 83.8633 24.1278 83.9109 24.0961C84.0376 24.0327 84.1327 23.779 84.1961 23.4144L84.703 20.5611L85.717 23.2718C86.3032 24.8252 87.1746 26.1885 88.1885 27.4883C88.6955 27.8688 89.1866 28.3126 89.6302 28.8199C90.565 29.8978 91.5789 31.1026 92.577 32.4341V32.45ZM5.77282 146.25C5.77282 146.25 5.77282 146.25 5.78866 146.25C5.78866 146.25 5.78866 146.25 5.77282 146.25ZM39.3918 123.487H39.4235C39.4235 123.487 39.4077 123.487 39.3918 123.487ZM126.576 118.589C126.576 118.589 126.56 118.589 126.545 118.589C126.545 118.589 126.545 118.589 126.576 118.589ZM63.4416 108.713C62.9505 109.299 62.7921 109.997 62.9505 110.9C63.299 111.519 63.0772 111.963 62.8396 112.216C62.7287 112.343 62.6812 112.454 62.697 112.549C62.7128 112.676 62.8554 112.819 63.0139 112.914C63.5367 113.215 63.9169 113.579 64.1229 113.992C64.2338 113.484 64.4714 113.072 64.6615 112.739C64.7566 112.581 64.8517 112.406 64.915 112.248C65.2477 111.455 65.1685 110.964 64.614 110.266C64.5031 110.124 64.3922 109.997 64.2655 109.87C63.9961 109.569 63.6793 109.204 63.4416 108.745V108.713ZM64.8041 107.841C64.915 108.19 65.1527 108.459 65.4378 108.776C65.5804 108.935 65.723 109.093 65.8498 109.268C66.2617 109.791 66.531 110.314 66.6261 110.853C67.2123 110.425 67.9569 110.203 68.8758 110.171C70.9512 110.108 73.2802 110.029 75.4824 109.442C75.4665 109.442 75.4507 109.442 75.4348 109.442H75.2764C72.6306 109.664 70.3809 108.792 68.4164 106.779C68.3847 106.858 68.353 106.922 68.3371 106.969L68.1312 107.461H67.5925C67.339 107.461 67.0855 107.429 66.832 107.413C65.8973 107.35 65.3269 107.334 64.7883 107.841H64.8041ZM50.4661 108.428C50.5612 108.428 50.6404 108.428 50.7196 108.443H50.989C53.001 108.65 54.918 108.047 57.1836 106.51C58.4986 105.622 59.1323 104.338 58.8313 103.133C57.7223 98.5678 57.247 93.844 56.7875 89.2786L56.5974 87.3923C56.2172 83.7464 56.2647 80.0529 56.3122 76.4863C56.3281 74.6633 56.3598 72.8403 56.3122 71.0174C56.2489 67.3398 56.6925 63.6622 57.1361 60.1113C57.2945 58.7798 57.4688 57.4482 57.5955 56.1167C58.0391 51.8209 58.958 47.5409 59.8452 43.4036L60.273 41.4379C60.3839 40.9307 60.3839 40.4393 60.2572 39.9162C59.1481 42.817 58.1976 45.9398 57.3103 49.5858C57.1361 50.3149 56.946 51.0283 56.7558 51.7733C55.4409 56.7825 53.7932 63.0122 53.4763 79.9261C53.508 81.7173 53.6664 83.5562 53.809 85.3157C53.9358 86.8533 54.0784 88.4385 54.1417 90.0078C54.2368 92.6075 54.8864 95.0011 55.5676 97.5533C55.8053 98.4251 56.0429 99.297 56.2489 100.169L54.7121 100.533C54.5061 99.6774 54.2685 98.8214 54.0467 97.9496C53.7615 96.8717 53.4605 95.7779 53.207 94.6683C52.8426 95.0487 52.6842 95.4608 52.7159 95.5877C53.3813 97.3948 52.7634 98.9165 52.2247 100.28L52.0821 100.629C52.0029 100.819 52.0821 101.072 52.2089 101.469C52.4148 102.071 52.7159 102.99 51.9395 103.878C51.8128 104.021 51.8128 104.163 51.8762 104.607C51.9079 104.798 51.9237 104.988 51.9237 105.194C51.9554 105.828 52.0188 107.144 50.5137 107.635C50.482 107.683 50.482 107.936 50.4661 108.095C50.4661 108.206 50.4661 108.317 50.4661 108.428ZM67.4974 38.8858C66.4676 40.2649 66.1508 41.5172 66.4993 42.7378C67.5608 46.4788 68.3213 49.6333 68.8916 52.6452C69.7472 57.1471 70.6502 62.4891 70.7294 68.069C70.8087 73.9658 70.7611 80.3065 69.9373 86.7741C69.462 90.5151 68.8758 94.5097 67.7509 98.4093C67.038 100.93 67.2915 102.832 68.6065 104.544C70.4601 106.969 72.5989 108.047 75.1497 107.857H75.3715C75.4507 107.857 75.5616 107.841 75.6566 107.825C75.7517 107.413 75.7992 107.064 75.6566 106.953C74.4842 105.907 73.8664 104.385 73.8347 102.547C73.803 99.8835 73.3277 97.3314 72.8049 94.6683L72.694 95.3499C72.5039 96.5705 72.2979 97.7911 72.1236 99.0117L70.5552 98.7739C70.6344 98.1874 70.7294 97.6008 70.8245 97.0302L70.27 96.9985C70.365 95.0012 70.7453 93.0355 71.0938 91.1492C71.4107 89.4372 71.7434 87.6618 71.8701 85.9181C71.9494 84.6024 72.1712 83.2708 72.3613 82.0027C72.5039 81.0674 72.6623 80.148 72.7574 79.2128C72.9475 77.4374 72.7098 75.551 72.488 73.728C72.393 73.0147 72.3137 72.3014 72.2504 71.6039C71.9018 67.7995 71.5374 63.995 71.1414 60.2223C71.0463 59.2712 70.9671 58.3359 70.8879 57.3848C70.777 55.9265 70.6502 54.484 70.4759 53.0256C70.0799 50.0296 69.6363 47.3189 69.1293 44.751C68.7966 42.9756 68.2421 41.2002 67.7034 39.4882L67.5133 38.8699L67.4974 38.8858ZM30.5197 106.018C30.3138 106.652 30.2028 107.239 30.4722 107.461C30.5197 107.492 30.5831 107.54 30.6623 107.572C30.6148 107.049 30.5672 106.541 30.5197 106.018ZM61.8415 104.195C61.8415 104.195 61.9682 104.195 62.0316 104.195C62.6019 104.259 63.1248 104.607 63.505 105.162C63.806 105.606 63.9803 106.002 64.0753 106.367C64.9626 105.717 65.929 105.733 66.7528 105.796C65.9765 104.591 65.4854 103.26 64.9942 101.944C64.82 101.469 64.6299 100.977 64.4397 100.502C63.9169 99.2177 63.5367 97.9179 63.2832 96.618C63.3624 99.5348 62.8554 101.992 61.7306 104.195C61.7623 104.195 61.7939 104.195 61.8256 104.195H61.8415ZM78.8569 101.595L80.0452 102.784C80.8532 103.593 81.4394 104.29 82.0097 105.099C82.0731 105.178 82.1206 105.273 82.184 105.337C82.2949 105.226 82.279 105.067 82.2632 104.972C82.1365 104.354 82.0256 103.846 81.7245 103.418C81.4235 103.038 81.4077 102.436 81.5344 102.071C81.6295 101.77 81.8354 101.532 82.1206 101.405C82.4375 101.263 82.8177 101.278 83.2138 101.437C83.2613 101.453 83.293 101.469 83.3247 101.485C83.3247 101.358 83.3247 101.215 83.3088 101.136C83.1979 100.09 83.3247 99.3445 83.7366 98.6312C84.101 97.9654 84.1327 97.2521 83.8475 96.3803C83.5465 95.5084 83.2772 94.6524 83.1979 93.7647C82.786 90.1188 82.0414 86.4412 81.2968 83.033C81.0274 81.8125 80.7739 80.576 80.5205 79.3554C79.7917 75.8522 79.0471 72.238 78.0489 68.7189C77.9697 70.1138 77.843 71.5246 77.6212 72.9196C77.4944 73.7597 77.3677 74.5999 77.2251 75.4242C76.9399 77.2788 76.6547 79.1494 76.3062 81.004C76.1953 81.5905 75.9893 82.1453 75.7834 82.6685C75.6091 83.1123 75.4507 83.5245 75.3556 83.9525C75.0704 85.2999 75.5933 86.3936 77.13 87.6935L78.144 88.5495L76.9241 89.0409C76.9241 89.0409 76.734 89.2152 76.6389 89.3421C76.4013 89.6274 76.0369 90.0712 75.4348 90.1981C75.5774 90.5785 75.6883 91.0065 75.7834 91.4186C76.1319 92.7978 76.3696 93.5428 77.6053 93.7489C78.2074 93.8757 78.3658 94.4622 78.4133 94.6841C78.4767 95.0963 78.4133 95.4133 78.2074 95.6511C78.0489 95.8413 77.8271 95.984 77.5736 96.0315C77.5578 96.1425 77.5261 96.2376 77.5103 96.3486C77.3677 97.0936 77.2251 97.7911 77.3677 98.4568C77.637 98.3459 77.9539 98.2983 78.2707 98.4885C78.5084 98.6312 78.6351 98.8373 78.6827 99.0434L80.1402 98.7422L78.6351 100.502C78.1123 101.12 78.1915 101.849 78.5242 102.911C78.5876 103.101 78.6351 103.307 78.6668 103.498C78.6668 103.434 78.6668 103.355 78.6827 103.292L78.8411 101.627L78.8569 101.595ZM43.9546 101.5C44.2557 101.5 44.5408 101.564 44.7943 101.722C45.2538 102.008 45.4756 102.499 45.5865 103.038C46.1568 102.879 46.6796 102.483 46.9807 101.976C47.1233 101.738 47.3292 101.263 47.0599 100.835C46.4737 99.8201 46.7589 99.0592 46.9648 98.5044L47.0599 98.2349C47.25 97.7277 47.4718 97.2997 47.7094 96.8717C48.058 96.2376 48.3749 95.6194 48.4541 94.906C48.5174 94.272 48.7076 93.4318 48.9294 92.4649C49.373 90.4834 50.0542 87.4874 49.4205 86.4729L48.7709 85.4267L49.9909 85.2681C50.0542 85.173 50.6404 84.2061 49.1829 77.9605L49.072 77.4532C48.565 75.0754 48.0422 72.2538 48.058 69.2895V68.4652C48.058 66.7691 48.0738 65.0095 47.7253 63.3768C47.6778 63.1707 47.6461 62.9488 47.6302 62.7427C47.6144 62.8379 47.5827 62.9488 47.5669 63.0439C46.0776 68.6872 45.0637 73.8707 44.4616 78.8957C43.9388 83.1282 43.7011 87.4715 43.4793 91.6723L43.3051 94.8585C43.2734 95.5084 43.1466 96.1425 43.0199 96.7607C42.8298 97.7435 42.6555 98.6629 42.8456 99.5506L42.8932 99.7408C43.0199 100.327 43.1783 101.009 42.8139 101.722C43.1942 101.595 43.5902 101.5 43.9546 101.5ZM29.1889 98.8531C29.1889 98.8531 29.1889 98.869 29.1889 98.8848H29.2206L29.1889 98.8531ZM47.4084 38.0932C46.648 40.0113 45.7924 41.8184 44.9528 43.5779C44.525 44.4815 44.0814 45.385 43.6695 46.2886C43.1625 47.4141 42.7981 48.5871 42.4337 49.8235C42.2436 50.4735 42.0376 51.1234 41.8158 51.7733C41.594 52.4232 41.4673 53.1049 41.3405 53.834C41.2138 54.5949 41.0712 55.4034 40.786 56.1642C40.2632 57.5751 40.0256 59.081 39.7879 60.5552C39.677 61.2685 39.5661 61.9819 39.4235 62.6793C38.6947 66.2777 37.9501 70.5418 38.0135 74.9962V75.8522C38.0452 78.0239 38.0769 80.259 38.3937 82.399C38.9007 85.9022 39.5344 89.2786 40.2632 92.4173C40.3899 92.9721 40.4533 93.5428 40.5167 94.1135C40.5959 94.8902 40.691 95.6352 40.9286 96.3169C40.9286 96.301 40.9286 96.2851 40.9286 96.2693C41.0712 95.3816 41.1029 94.5097 41.1187 93.5903C41.1187 93.1465 41.1504 92.7026 41.1663 92.2588C41.2772 90.5626 41.4197 88.8665 41.5623 87.1704C41.7366 85.0938 41.9267 82.9538 42.0218 80.8455C42.1327 78.6262 42.4812 76.4228 42.8298 74.2987L43.0991 72.6184C43.3368 71.2235 43.6853 69.8602 44.0339 68.5604C44.0972 68.3384 44.0972 68.1007 44.1131 67.8629C44.1448 67.4666 44.1606 67.0069 44.3349 66.5313C44.5091 66.0082 44.5884 65.39 44.6359 64.8035C44.6676 64.4864 44.8102 64.2487 44.9052 64.0743C44.8894 64.0743 44.8735 64.0584 44.8419 64.0426L44.4141 63.789L44.3824 63.2183C44.4141 62.6635 44.9052 62.4733 45.2062 62.3465C45.3171 62.2989 45.5389 62.2196 45.634 62.1404C45.3647 61.2368 45.5548 60.4601 45.7132 59.7626C45.8083 59.398 45.8875 59.0651 45.8875 58.7481V58.3994C45.8875 57.7019 45.9033 56.5764 47.1708 56.1325C46.8539 55.5143 46.9807 54.9278 47.0599 54.5157C47.0916 54.3413 47.1391 54.1669 47.1233 54.056L47.0757 53.1049C46.9807 51.4721 46.8856 49.776 47.1866 48.0798C47.2183 47.8579 47.2183 47.6201 47.2025 47.3824C47.2025 47.1287 47.2025 46.8751 47.2025 46.6373C47.2658 45.9557 47.2025 45.2582 47.1549 44.529C47.0757 43.5621 46.9965 42.5476 47.2025 41.5172C47.4243 40.3917 47.3926 39.2504 47.3609 38.0456L47.4084 38.0932ZM33.0229 92.3063C33.2606 92.7026 33.4982 93.0989 33.72 93.4794L34.322 93.2257C34.2587 93.1465 34.4805 93.1148 34.9082 92.9246C34.9716 92.8929 35.0508 92.8612 35.0984 92.8136L34.6072 92.1795C34.4646 92.1795 34.322 92.2112 34.1636 92.2429C33.8151 92.2905 33.4348 92.3539 33.0229 92.3063C33.0229 92.3063 33.0071 92.3063 32.9912 92.3063H33.0229ZM31.201 90.5151L31.5495 91.1492C31.7238 90.9748 31.9297 90.8638 32.1515 90.8004C29.2523 78.119 30.7257 67.6568 31.4386 62.5684C31.5654 61.6331 31.6763 60.8564 31.7396 60.2857C32.6902 50.1089 34.9399 41.4062 38.5997 33.7023C38.7898 33.2901 39.1067 32.5926 39.8988 32.5134C39.8354 32.228 39.7562 31.8476 39.8196 31.4671C39.1542 32.1805 38.6314 32.7353 38.4412 32.9731C35.9222 36.0483 33.7675 39.4406 32.0406 43.0707C28.6661 50.1723 27.0976 58.0665 27.3511 66.5313C27.4462 69.242 27.5571 72.127 27.8264 74.9645C27.9056 75.8046 29.2839 81.8759 30.187 85.9022C30.694 88.1532 31.1059 89.9761 31.201 90.4517C31.201 90.4834 31.201 90.5151 31.2168 90.5309L31.201 90.5151ZM40.1523 34.0985C40.1523 34.0985 40.1048 34.1937 40.0889 34.2254L40.0256 34.368C36.445 41.8976 34.2587 50.4259 33.3239 60.4125C33.2764 61.0149 33.1655 61.8075 33.0229 62.7745C32.31 67.7995 30.8524 78.1824 33.7675 90.7053C33.8309 90.7053 33.8943 90.6895 33.9577 90.6736C34.1953 90.6419 34.4329 90.6102 34.6706 90.5944C34.8924 90.5944 35.0984 90.6261 35.2885 90.6736C35.2251 90.2139 35.2409 89.7225 35.4311 89.1835C35.4944 89.0092 35.5261 88.8665 35.5261 88.7714C34.5914 88.0105 34.4963 87.0118 34.4329 86.1876L34.4013 85.7913C34.2904 84.8402 34.1161 83.8573 33.926 82.9062C33.5933 81.0991 33.2447 79.2445 33.3398 77.3422C33.3873 76.6448 33.419 75.9314 33.4507 75.234C33.5774 72.4758 33.72 69.6383 34.3696 66.8325C34.5914 65.8655 34.7973 64.7401 34.6072 63.5987C34.4805 62.9013 34.734 62.2038 34.9558 61.6014C35.035 61.3795 35.1142 61.1417 35.1776 60.9198C36.0331 57.4165 37.0312 53.6914 38.2987 49.2212C38.6789 47.9213 39.3601 46.5898 40.0097 45.3216L40.2157 44.9095C40.4216 44.5132 40.6751 44.101 40.9286 43.6889C41.5782 42.6585 42.1802 41.6916 41.9426 40.8039C41.5148 39.1553 42.3862 38.4261 42.9565 37.9505C43.0991 37.8396 43.2417 37.7128 43.3526 37.5859C43.4793 37.4274 43.4635 37.1104 43.4318 37.0153C42.8773 36.0325 43.4477 35.3191 43.7328 34.9704C43.7962 34.8911 43.8913 34.7802 43.9071 34.7326C44.1764 33.8608 44.6517 33.1316 45.1112 32.4183C45.9033 31.1977 46.5846 30.1514 46.0935 28.7089C45.6815 27.5359 45.3488 27.5993 45.032 27.6627C44.319 27.8054 44.0972 27.9639 44.0339 28.0749C43.9705 28.1858 44.0022 28.4236 44.0972 28.7248C44.2398 29.1052 44.3666 29.9612 43.8121 30.3892C43.6536 30.516 43.2734 30.7221 42.703 30.4685C42.703 30.516 42.703 30.5477 42.703 30.5953C42.7347 30.8965 42.7664 31.4196 42.3386 31.8C42.0535 32.0537 41.7208 32.1012 41.3881 32.0854C41.3881 32.1171 41.4039 32.1488 41.4197 32.1963C41.5623 32.6719 41.7208 33.2267 41.3405 33.6864C40.9761 34.1303 40.3899 34.0985 40.1206 34.0668L40.1523 34.0985ZM86.7943 75.2023C85.8913 75.5669 85.7962 76.4863 85.7645 77.9446V78.2617C85.717 79.5774 85.8913 79.831 86.5567 80.7979L86.9369 81.3528C87.3488 81.9868 87.5231 82.6367 87.6657 83.2074C87.6657 83.2391 87.6815 83.2867 87.6974 83.3184C88.2044 80.9882 88.648 78.7848 88.9648 76.5338C89.0757 75.6778 88.9648 75.0437 88.8381 74.3621C88.7905 74.1243 88.7589 73.9024 88.7113 73.6646C88.5212 72.3648 88.9014 71.2235 89.25 70.1297C89.4876 69.4164 89.6936 68.7506 89.7728 68.0531C90.565 59.8577 85.8121 49.3321 85.7645 49.2212C84.9407 48.0481 84.4971 46.8592 83.9743 45.4801L83.5465 44.3388C82.4216 41.3745 81.2651 38.3151 80.1878 35.2716C80.1085 35.0497 80.0293 34.8277 79.9501 34.59C80.1085 35.7471 80.1561 36.7775 80.1244 37.7603C79.966 41.105 79.7917 44.4339 79.6016 47.7628C79.4431 50.7429 79.2847 53.7072 79.1421 56.6874C79.1104 57.4165 79.0629 58.2567 79.3322 58.9066C79.5065 59.3346 79.8234 59.7151 80.1561 60.1272C80.3303 60.3333 80.5046 60.5552 80.663 60.7613C82.0731 62.711 82.4216 65.2315 82.7068 67.2605L82.7702 67.7044L82.2315 68.1324C82.5801 68.6238 82.9445 69.3054 83.4039 70.1931C84.1485 71.6198 85.3843 74.0292 86.1923 73.7122L86.7943 75.1864V75.2023ZM119.241 80.3382C119.241 80.3382 119.225 80.3382 119.209 80.3382C119.209 80.3382 119.225 80.3382 119.241 80.3382ZM117.451 70.415C117.451 70.415 117.451 70.415 117.435 70.415C117.435 70.415 117.435 70.415 117.451 70.415ZM79.2213 65.0096C79.2213 65.0096 79.3005 65.0254 79.3639 65.0413C80.1085 65.1364 80.0769 65.929 80.0293 66.7532C80.0293 66.9435 80.0135 67.1495 80.0135 67.3081V67.9104L81.075 67.0544C80.8373 65.3583 80.5205 63.5195 79.6174 62.0611C79.6016 62.5208 79.554 62.9805 79.5065 63.4402L79.4431 64.0901C79.4273 64.2962 79.3639 64.5023 79.3005 64.6925C79.2689 64.7876 79.2213 64.9303 79.2055 65.0254L79.2213 65.0096ZM41.1663 30.0722C41.0395 30.2149 40.8969 30.3417 40.7702 30.4685C40.8811 30.4526 41.0237 30.4526 41.1663 30.4685C41.1663 30.4209 41.1663 30.3734 41.1663 30.31C41.1663 30.2466 41.1663 30.1515 41.1663 30.0563V30.0722ZM78.5084 27.5993C78.5084 27.5993 78.5084 27.5993 78.5242 27.6152C78.5242 27.6152 78.5242 27.6152 78.5084 27.5993ZM45.3013 26.0775C45.8558 26.0775 46.2677 26.2678 46.6004 26.5372C46.3786 26.1885 46.141 25.8398 45.8875 25.5227C45.6974 25.6654 45.4756 25.8556 45.2221 26.0775C45.2538 26.0775 45.2855 26.0775 45.3013 26.0775ZM65.121 21.1635C64.9942 21.5122 65.0101 21.5281 65.4378 21.8451C65.5329 21.9244 65.628 21.9878 65.723 22.067C65.723 22.067 65.723 22.067 65.723 22.0512C65.8022 21.9402 65.8815 21.8451 65.9765 21.7659C67.1014 20.577 68.3054 19.2613 69.7472 17.6127C69.9056 17.4383 69.9848 17.1847 70.0482 16.7408C70.2066 15.5202 70.3809 14.2997 70.571 13.0949C70.7453 11.8902 70.9196 10.6854 71.078 9.46486C71.3315 7.49924 71.6008 5.48606 72.187 3.47288C71.9969 3.47288 71.7434 3.47288 71.4424 3.56799C70.9829 3.71066 70.7453 3.93258 70.7136 4.02769L67.6559 13.5071C66.8479 16.0275 66.024 18.6272 65.121 21.1793V21.1635ZM57.3737 3.56799C57.9441 6.46887 58.2768 9.4173 58.5936 12.2865L58.6412 12.7462C58.8471 14.3948 59.0214 15.9007 59.2432 17.3908C59.4809 19.0393 60.1463 20.2599 61.4929 21.5122C61.7781 21.7659 62.1266 21.861 62.4593 21.7659C62.6495 21.7183 62.9663 21.5756 63.1248 21.1159C64.0753 18.1833 65.0259 15.2508 65.9607 12.334C66.8954 9.4173 67.846 6.50057 68.7966 3.58384C68.8283 3.47288 68.86 3.39362 68.86 3.33021C68.8124 3.33021 68.7649 3.29851 68.6857 3.28266L68.4005 3.21925C67.846 3.13999 67.1964 3.12414 66.5152 3.12414C65.5329 3.12414 64.5189 3.12414 63.505 2.8071C63.2673 2.98147 62.903 3.09244 62.3801 3.02903C61.4612 2.99733 60.6216 3.13999 59.7502 3.28266C58.9897 3.40947 58.2134 3.53629 57.4213 3.56799C57.4054 3.56799 57.3896 3.56799 57.3737 3.56799ZM36.3341 9.97211C36.3341 9.97211 36.3024 9.97211 36.2866 9.97211C36.3024 9.97211 36.3183 9.97211 36.3341 9.97211ZM76.6072 4.48739C77.0667 5.66043 77.3518 6.88101 77.5736 8.05405C78.4925 7.19805 79.4273 6.45302 80.4096 5.8348C80.2828 5.73969 80.1402 5.62872 80.0293 5.47021C79.253 5.37509 78.5401 5.12147 77.8588 4.86784C77.4311 4.70932 77.0191 4.56665 76.6231 4.45569L76.6072 4.48739ZM49.5156 5.15317C50.3236 5.61287 51.1157 6.13598 51.7494 6.91272C51.9396 6.50057 52.098 6.05672 52.2564 5.61287C52.399 5.21658 52.5574 4.80443 52.7317 4.40814L49.5156 5.15317ZM75.8468 47.4458C74.9912 47.4458 74.6744 46.3995 74.2308 44.957C74.1199 44.6083 73.8188 44.2913 73.4703 43.9425C73.1851 43.6413 72.8524 43.3084 72.5989 42.8804C72.1236 42.0879 72.0286 41.2002 71.9494 40.4076L71.9018 39.9637C71.7117 38.4736 71.2206 36.9994 70.4443 35.6996C70.1749 35.2399 69.9848 34.1303 69.6363 31.372C69.2243 31.055 69.1293 30.3575 69.0501 29.8661C68.9392 29.0577 68.8441 28.2492 69.0342 27.4249L69.1768 26.775L69.8898 26.7275C70.0957 26.7275 70.2541 26.7592 70.3809 26.8543C70.4759 26.3153 70.571 25.7605 70.6661 25.2532C71.2206 22.067 71.8543 18.4687 72.5989 16.4396L72.8999 15.6154L73.6921 15.9958C75.3873 16.8359 75.7675 18.8016 75.926 20.6245L76.4646 27.0604C76.734 30.31 77.0033 33.5596 77.13 36.7775C77.1617 37.5225 77.1776 38.2517 77.1934 38.9968V39.5516C77.2409 41.4696 77.2885 43.4353 77.0825 45.3692C76.9875 46.2093 76.8607 47.3506 75.9577 47.4458C75.926 47.4458 75.8943 47.4458 75.8468 47.4458ZM71.1572 30.6746C71.3473 32.2122 71.6483 34.5107 71.8385 34.907C72.7098 36.3654 73.2802 38.0615 73.4861 39.7576L73.5337 40.2332C73.6129 40.9148 73.6763 41.5647 73.9614 42.0561C74.1199 42.3098 74.3575 42.5634 74.611 42.817C74.9595 43.1816 75.3398 43.5779 75.5933 44.0852C75.6883 42.5951 75.6566 41.0575 75.6249 39.5674V39.0126C75.5933 38.2834 75.5774 37.5542 75.5457 36.8251C75.419 33.6388 75.1497 30.4051 74.8803 27.2664L74.3417 20.7355C74.2624 19.7844 74.1199 18.7857 73.7079 18.1041C73.1534 20.1173 72.6464 23.0498 72.2187 25.491C71.7275 28.2968 71.4582 29.8344 71.1572 30.6429V30.6746ZM51.4959 47.4458C51.4959 47.4458 51.4326 47.4458 51.385 47.4458C50.482 47.3665 50.3552 46.2093 50.2602 45.3692C50.0542 43.4353 50.1018 41.4696 50.1334 39.5516V38.9968C50.1651 38.2517 50.181 37.5225 50.2127 36.7775C50.3394 33.5596 50.6087 30.31 50.8781 27.1555L51.4167 20.6245C51.5752 18.8016 51.9554 16.8201 53.6506 15.9958L54.4428 15.6154L54.7438 16.4396C55.4884 18.4528 56.1221 22.067 56.6766 25.2532C56.7717 25.7764 56.8667 26.3153 56.9618 26.8543C57.0886 26.7592 57.2311 26.7433 57.4529 26.7275L58.1183 26.6958L58.2926 27.4249C58.4669 28.2334 58.3877 29.0418 58.2609 29.8661C58.1976 30.3734 58.1025 31.055 57.6747 31.372C57.3262 34.1303 57.1361 35.2399 56.8667 35.6996C56.0904 36.9994 55.5993 38.4736 55.4092 39.9637L55.3617 40.4076C55.2824 41.2002 55.1874 42.0879 54.7121 42.8804C54.4586 43.2926 54.1417 43.6413 53.8407 43.9425C53.4922 44.3071 53.1912 44.6083 53.0803 44.957C52.6366 46.3995 52.3198 47.4458 51.4643 47.4458H51.4959ZM53.6348 18.1358C53.2228 18.8174 53.0803 19.8161 53.001 20.7672L52.4624 27.203C52.193 30.4368 51.9237 33.6706 51.797 36.8568C51.7653 37.5859 51.7494 38.3151 51.7336 39.0443V39.5991C51.6861 41.0892 51.6544 42.6268 51.7336 44.1169C51.9871 43.5938 52.3673 43.1975 52.7159 42.8329C52.9693 42.5634 53.207 42.3256 53.3654 42.072C53.6506 41.5806 53.7298 40.9307 53.7932 40.249L53.8407 39.7735C54.0467 38.0615 54.6329 36.3812 55.5042 34.8911C55.6785 34.4948 55.9795 32.2122 56.1697 30.6746C55.8686 29.8503 55.5835 28.3126 55.1082 25.5227C54.6804 23.0816 54.1734 20.149 53.6189 18.1358H53.6348Z" fill="white"/>
<path d="M147.594 166.97L137.016 166.97" stroke="#FEFEFE" stroke-opacity="0.6"/>
<path fill-rule="evenodd" clip-rule="evenodd" d="M147.594 0.934689L137.016 0.934688L137.016 1.93469L147.594 1.93469L147.594 0.934689ZM141.805 1.97292L141.805 166.427L142.805 166.427L142.805 1.97292L141.805 1.97292Z" fill="#FEFEFE" fill-opacity="0.6"/>
<path d="M151.336 87.9404C153.676 84.8084 155.464 82.6844 155.464 80.9924C155.464 80.3444 155.104 79.6604 154.3 79.6604C153.4 79.6604 152.572 80.6804 151.972 81.6884L151.924 81.6764L151.6 79.9004C152.38 79.5404 153.316 79.1924 154.336 79.1924C155.848 79.1924 157.024 79.9604 157.024 81.2684C157.024 82.3604 156.184 83.3924 155.176 84.3284C154.3 85.2764 153.076 86.4524 152.728 86.7644H154.696C155.632 86.7644 156.412 86.5844 157.048 86.1044L157.084 86.1164L156.808 87.9404H151.336ZM158.092 89.3564C158.788 88.9724 159.004 88.3364 159.004 88.0484C158.968 88.0244 158.956 88.0604 158.956 88.0604C158.38 88.0844 157.972 87.6764 157.972 87.1604C157.984 86.6684 158.404 86.2844 158.896 86.2844C159.46 86.2844 159.916 86.7644 159.916 87.4724C159.916 88.2524 159.34 89.0684 158.452 89.3564H158.092ZM163.273 88.0964C162.253 88.0964 161.437 87.7604 160.801 87.3884L160.969 85.6364L161.029 85.6244C161.677 86.8004 162.469 87.6284 163.273 87.6284C164.185 87.6284 164.809 86.8364 164.809 85.4804C164.809 84.1964 164.173 83.2844 162.961 83.2604C162.529 83.2484 161.821 83.3684 160.957 83.8364L161.389 79.3124H161.461H164.053C165.013 79.3124 165.925 79.1204 166.273 78.9164L165.949 80.6084H161.773L161.521 83.1404C162.205 82.7324 162.925 82.5284 163.609 82.5284C165.457 82.5284 166.417 83.8004 166.417 85.2884C166.417 87.0164 165.097 88.0964 163.273 88.0964ZM172.426 88.0604C170.938 88.0604 169.534 87.0044 169.534 84.9524C169.534 82.9964 170.77 81.8804 172.474 81.8804C173.374 81.8804 174.142 82.2164 174.658 82.4444L174.67 84.0524H174.622C174.202 83.3564 173.422 82.3124 172.51 82.3124C171.526 82.3124 171.07 83.3804 171.07 84.5804C171.082 86.0684 171.742 87.1004 173.05 87.1004C173.578 87.1004 174.226 86.9324 174.91 86.3564L174.946 86.3804C174.574 87.2804 173.674 88.0604 172.426 88.0604ZM177.502 87.9044V87.9524H175.558V87.9044C175.606 87.6884 175.834 86.9084 175.834 86.1644V83.7404C175.834 82.9844 175.606 82.2164 175.558 81.9884V81.9524H177.226V82.8764C177.706 82.2524 178.27 81.8804 179.026 81.8804C179.758 81.8804 180.442 82.2284 180.73 83.0204C181.222 82.3124 181.822 81.8804 182.638 81.8804C183.598 81.8804 184.474 82.4804 184.474 83.9084V86.1644C184.474 86.9084 184.702 87.6884 184.75 87.9044V87.9524H182.806V87.9044C182.854 87.6884 183.082 86.9084 183.082 86.1644V84.0884C183.082 83.1884 182.506 82.8164 181.906 82.8164C181.534 82.8164 181.186 82.9844 180.802 83.2964C180.85 83.4764 180.874 83.6804 180.874 83.9084V86.1644C180.874 86.9084 181.102 87.6884 181.15 87.9044V87.9524H179.194V87.9044C179.242 87.6884 179.47 86.9084 179.47 86.1644V84.0884C179.47 83.1884 178.882 82.8164 178.282 82.8164C177.922 82.8164 177.574 82.9724 177.226 83.2604V86.1644C177.226 86.9084 177.454 87.6884 177.502 87.9044Z" fill="white"/>
</svg>
