<svg width="219" height="155" viewBox="0 0 219 155" fill="none" xmlns="http://www.w3.org/2000/svg">
<path d="M81.4 149.952V150H79.456V149.952C79.504 149.736 79.732 148.956 79.732 148.212V145.788C79.732 145.032 79.504 144.264 79.456 144.036V144H81.124V144.924C81.604 144.3 82.168 143.928 82.924 143.928C83.656 143.928 84.34 144.276 84.628 145.068C85.12 144.36 85.72 143.928 86.536 143.928C87.496 143.928 88.372 144.528 88.372 145.956V148.212C88.372 148.956 88.6 149.736 88.648 149.952V150H86.704V149.952C86.752 149.736 86.98 148.956 86.98 148.212V146.136C86.98 145.236 86.404 144.864 85.804 144.864C85.432 144.864 85.084 145.032 84.7 145.344C84.748 145.524 84.772 145.728 84.772 145.956V148.212C84.772 148.956 85 149.736 85.048 149.952V150H83.092V149.952C83.14 149.736 83.368 148.956 83.368 148.212V146.136C83.368 145.236 82.78 144.864 82.18 144.864C81.82 144.864 81.472 145.02 81.124 145.308V148.212C81.124 148.956 81.352 149.736 81.4 149.952ZM91.1561 150.096C89.9081 150.096 89.2241 149.184 89.2241 148.26C89.2241 146.94 90.6281 146.16 92.2361 146.376C92.5001 146.412 92.7521 146.46 92.9441 146.52V145.776C92.9441 144.876 92.5961 144.396 92.0801 144.396C91.3481 144.396 89.9321 145.548 89.6921 145.884H89.6441V144.396C90.5801 144.084 91.5161 143.928 92.1641 143.928C93.6161 143.928 94.3601 144.684 94.3601 145.836V148.596C94.3601 149.232 94.6121 149.472 95.1281 149.268L95.1401 149.304C95.0201 149.748 94.6361 150.06 94.0961 150.06C93.4961 150.06 93.1001 149.736 92.9801 149.172C92.6441 149.64 92.0441 150.096 91.1561 150.096ZM90.7121 148.092C90.7121 148.8 91.2161 149.316 91.8881 149.316C92.2841 149.316 92.6441 149.124 92.9441 148.776V146.88C92.8841 146.88 92.8241 146.868 92.7641 146.856C91.4201 146.64 90.7121 147.288 90.7121 148.092ZM95.3848 150.012C95.5528 149.88 96.1528 149.352 96.5128 148.872L97.7128 147.288L96.4768 145.524C96.0688 144.9 95.4448 144.228 95.2528 144.048V144H97.7128V144.036C97.6528 144.252 97.6528 144.756 98.0008 145.26L98.7808 146.388L99.6568 145.2C100.017 144.72 99.9568 144.204 99.8968 144.024V144H101.385V144.036C101.217 144.168 100.617 144.708 100.257 145.176L99.0568 146.772L100.233 148.476C100.665 149.1 101.313 149.76 101.517 149.952V150H99.0088V149.964C99.0688 149.748 99.0688 149.244 98.7208 148.728L97.9768 147.684L97.1128 148.86C96.7528 149.34 96.8128 149.844 96.8728 150.024V150.06H95.3848V150.012ZM106.737 147.996L110.853 141.36H112.173V147.492H113.421V147.996H112.173V148.224C112.173 148.98 112.401 149.772 112.449 150H110.397C110.445 149.772 110.673 148.98 110.673 148.224V147.996H106.821L106.833 147.984L106.737 147.996ZM107.613 147.492H110.673V142.596L107.613 147.492ZM117.275 150.096C115.319 150.096 113.795 148.296 113.795 145.644C113.795 143.064 115.319 141.264 117.275 141.264C119.231 141.264 120.767 143.064 120.767 145.644C120.767 148.296 119.231 150.096 117.275 150.096ZM117.275 149.604C118.607 149.604 119.075 147.588 119.075 145.632C119.075 143.712 118.595 141.756 117.275 141.756C115.943 141.756 115.487 143.796 115.487 145.656C115.487 147.636 115.955 149.604 117.275 149.604ZM126.769 150.108C125.281 150.108 123.877 149.052 123.877 147C123.877 145.044 125.113 143.928 126.817 143.928C127.717 143.928 128.485 144.264 129.001 144.492L129.013 146.1H128.965C128.545 145.404 127.765 144.36 126.853 144.36C125.869 144.36 125.413 145.428 125.413 146.628C125.425 148.116 126.085 149.148 127.393 149.148C127.921 149.148 128.569 148.98 129.253 148.404L129.289 148.428C128.917 149.328 128.017 150.108 126.769 150.108ZM131.845 149.952V150H129.901V149.952C129.949 149.736 130.177 148.956 130.177 148.212V145.788C130.177 145.032 129.949 144.264 129.901 144.036V144H131.569V144.924C132.049 144.3 132.613 143.928 133.369 143.928C134.101 143.928 134.785 144.276 135.073 145.068C135.565 144.36 136.165 143.928 136.981 143.928C137.941 143.928 138.817 144.528 138.817 145.956V148.212C138.817 148.956 139.045 149.736 139.093 149.952V150H137.149V149.952C137.197 149.736 137.425 148.956 137.425 148.212V146.136C137.425 145.236 136.849 144.864 136.249 144.864C135.877 144.864 135.529 145.032 135.145 145.344C135.193 145.524 135.217 145.728 135.217 145.956V148.212C135.217 148.956 135.445 149.736 135.493 149.952V150H133.537V149.952C133.585 149.736 133.813 148.956 133.813 148.212V146.136C133.813 145.236 133.225 144.864 132.625 144.864C132.265 144.864 131.917 145.02 131.569 145.308V148.212C131.569 148.956 131.797 149.736 131.845 149.952Z" fill="white"/>
<g clip-path="url(#clip0_1497_33)">
<path d="M0.944489 54.3574C-0.656889 56.7512 -0.17555 60.2038 2.03676 62.059L1.88865 61.4974C1.6665 62.5976 2.35611 63.394 3.10589 64.1213C4.05005 65.0374 5.0081 65.9351 5.98004 66.8236C7.91928 68.6005 9.90017 70.3314 11.9042 72.03C15.9539 75.455 20.1194 78.7511 24.2848 82.0379C28.0013 84.9749 31.7409 87.9533 35.9341 90.2044C38.0169 91.3231 40.2106 92.2576 42.497 92.879C43.5199 93.1552 44.7093 93.2887 45.5933 93.9194C46.5838 94.6283 46.9216 96.037 47.3382 97.1096C49.5181 102.749 51.3277 108.531 52.7625 114.4C52.8319 114.681 53.1883 114.911 53.4752 114.801C53.9797 114.607 54.4842 114.419 54.9887 114.225L54.3361 113.963C54.9239 115.091 55.5117 116.214 56.1041 117.342C56.2568 117.632 56.6271 117.682 56.8955 117.549C59.1541 116.435 60.6305 114.225 60.8943 111.749L59.9085 112.154C60.6213 112.798 61.4868 113.13 62.4541 113.061C62.6947 113.042 62.9585 112.895 63.0141 112.637C63.2779 111.362 64.3424 110.386 65.6661 110.317C66.0641 110.294 66.2955 109.967 66.2261 109.59C65.791 107.343 66.925 105.004 68.9151 103.89C69.2669 103.693 69.2576 103.264 69.0308 102.988C67.3508 100.917 67.2258 97.883 68.6328 95.6411L68.1329 95.9265C74.6218 96.6354 81.1291 97.1832 87.6457 97.5561L87.0672 96.9807C86.9653 100.944 87.5485 104.903 88.7889 108.673C88.974 109.24 89.7053 109.198 89.9043 108.673C90.1218 108.107 90.3347 107.546 90.5522 106.979L90.2884 107.325C91.2465 106.883 92.2138 107.767 92.8201 108.411C93.6532 109.304 94.3289 110.372 95.0463 111.353C96.5458 113.397 98.0454 115.436 99.5449 117.48C99.8967 117.959 100.855 117.696 100.6 117.038C99.9893 115.427 100.225 113.585 101.271 112.2C102.364 110.75 104.266 110.114 106.038 110.446C109.477 111.081 110.255 115.339 113.592 116.117C113.893 116.186 114.221 116.025 114.304 115.717C114.744 114.082 115.295 112.476 115.985 110.934C116.545 109.686 117.267 107.61 119.011 108.429C121.307 109.511 122.247 113.318 125.343 112.596C125.644 112.527 125.829 112.177 125.746 111.887C125.084 109.571 125.005 106.404 127.629 105.281C129.832 104.342 132.531 105.244 134.65 106.008C135.113 106.174 135.419 105.69 135.363 105.299C135.076 103.333 135.483 101.34 136.474 99.6231C136.844 98.9786 135.844 98.3986 135.474 99.043C134.317 101.055 133.914 103.32 134.248 105.608L134.96 104.899C132.447 103.987 129.24 103.057 126.722 104.447C123.917 105.994 123.853 109.474 124.63 112.19L125.033 111.482C123.487 111.841 122.367 110.064 121.534 109.06C120.701 108.057 119.34 106.897 117.877 107.09C116.276 107.302 115.614 108.95 115.031 110.239C114.277 111.91 113.657 113.636 113.184 115.408L113.897 115.008C112.05 114.575 111.055 112.734 109.866 111.431C108.552 109.99 106.807 109.125 104.817 109.221C100.781 109.419 98.0454 113.576 99.4848 117.346L100.54 116.904C98.4666 114.082 96.4301 111.233 94.3196 108.439C93.5884 107.467 92.6303 106.418 91.39 106.123C90.8623 105.999 90.1635 106.017 89.696 106.335C89.4507 106.501 89.3905 106.781 89.2933 107.044C89.1221 107.486 88.9555 107.932 88.7842 108.374H89.8997C88.687 104.696 88.1224 100.861 88.2196 96.9899C88.2289 96.6677 87.9465 96.4329 87.6411 96.4145C81.1245 96.037 74.6171 95.4938 68.1283 94.7848C67.9293 94.7618 67.7303 94.9091 67.6285 95.0703C65.9253 97.7817 66.203 101.34 68.207 103.812L68.3227 102.91C65.8605 104.291 64.5692 107.164 65.1014 109.912L65.6614 109.184C63.8472 109.281 62.2689 110.561 61.894 112.352L62.4541 111.928C61.7922 111.974 61.2183 111.808 60.7277 111.362C60.3343 111.003 59.7928 111.279 59.7419 111.767C59.5151 113.848 58.1868 115.648 56.3124 116.573L57.1038 116.78C56.516 115.652 55.9282 114.529 55.3358 113.401C55.2294 113.194 54.91 113.051 54.6832 113.139C54.1787 113.332 53.6743 113.521 53.1698 113.714L53.8825 114.115C52.619 108.95 51.0732 103.858 49.2311 98.8681C48.7914 97.6758 48.3425 96.4835 47.8612 95.3096C47.4678 94.3475 46.9957 93.4683 46.0978 92.8882C45.1999 92.3082 44.1447 92.1333 43.1403 91.8755C41.9972 91.5809 40.8771 91.208 39.7848 90.7706C35.3556 88.9983 31.4262 86.1626 27.6819 83.2624C23.6322 80.1229 19.6195 76.9327 15.6624 73.6781C13.3991 71.8183 11.1637 69.9263 8.97452 67.9836C7.89614 67.0261 6.82701 66.0594 5.77639 65.0742C5.21637 64.5541 4.66561 64.0293 4.11485 63.4999C3.69368 63.0948 2.8791 62.4871 3.01332 61.8196C3.05035 61.6263 3.02721 61.3961 2.86522 61.258C1.02317 59.7158 0.615883 56.9446 1.95345 54.9513C2.36537 54.3344 1.36566 53.7544 0.953746 54.3712L0.944489 54.3574Z" fill="white"/>
<path d="M164.957 56.0193C167.22 57.5983 170.145 57.833 172.783 57.2162C175.713 56.5303 178.291 54.8454 180.711 53.1375C185.539 49.7356 190.07 45.9423 194.804 42.4207C199.488 38.9405 204.496 35.5156 210.013 33.4808C212.443 32.5832 216.303 32.1182 217.52 35.1104C218.066 36.4546 217.83 38.0152 217.617 39.4009C217.358 41.0719 217.029 42.7337 216.631 44.3818C216.159 46.3336 215.645 48.3269 214.882 50.1913C214.461 51.2179 214.146 52.2859 213.887 53.3631C212.767 58.0126 212.794 62.9106 213.813 67.5739C214.451 70.4971 215.817 73.2361 216.131 76.2284C216.418 78.9582 216.076 81.8078 214.863 84.2936C214.22 85.6148 213.419 87.0373 211.772 87.0695C210.304 87.1017 208.796 86.6368 207.449 86.0982C204.51 84.9197 201.821 83.0599 199.178 81.352C193.749 77.8488 188.612 74.0049 183.488 70.0828C181.119 68.269 178.587 66.8143 175.532 66.6624C172.478 66.5105 169.525 67.5279 166.808 68.7846C165.42 69.4245 164.068 70.1518 162.731 70.893C162.564 70.9851 162.425 71.1968 162.444 71.3902C162.61 73.2454 164.364 73.9543 165.892 74.5205C166.577 74.7737 167.549 75.1189 167.831 75.8693C168.002 76.3251 167.896 77.2319 167.271 77.2273C166.785 77.2273 166.484 77.8672 166.864 78.2079C167.553 78.8339 168.076 79.5567 168.465 80.4037L168.673 79.6165C168.03 79.9295 167.331 80.0216 166.628 79.8881C166.021 79.773 165.568 80.6155 166.183 80.9377C167.104 81.4211 167.905 82.0425 168.599 82.8113L168.715 81.909C168.331 82.0978 167.947 82.1438 167.53 82.0471C166.938 81.9136 166.604 82.5719 166.965 83.0093C167.673 83.8701 167.886 85.0117 167.599 86.0751L168.002 85.6746C167.382 85.7759 166.762 85.8772 166.146 85.9739C165.79 86.0337 165.605 86.5355 165.799 86.8209C166.169 87.3641 166.623 87.9764 166.665 88.6531C166.688 89.0858 166.452 89.7027 165.947 89.7395C165.498 89.7717 165.244 90.1998 165.447 90.6049C165.683 91.0745 165.915 91.5394 166.151 92.009L166.498 91.1619C165.623 91.3369 164.748 91.5118 163.874 91.6867C163.254 91.811 163.402 92.6074 163.874 92.7962C164.156 92.9067 164.082 93.3808 164.008 93.5972C163.846 94.0667 163.388 94.2969 162.948 94.4718C162.467 94.6606 161.958 94.7757 161.49 94.992C160.967 95.2268 160.495 95.5352 159.944 95.7194C158.871 96.0784 157.704 96.1889 156.589 95.991C155.589 95.8114 154.626 95.4754 153.631 95.2912C152.761 95.1301 151.836 95.0611 150.998 95.3971C150.091 95.7608 149.656 96.5157 149.114 97.2707C148.906 97.5607 148.651 97.9014 148.249 97.8461C147.744 97.7771 147.277 97.2983 146.814 97.1004C145.939 96.7321 144.981 96.8518 144.139 97.2477C141.82 98.3387 141.436 101.032 141.228 103.297L142.098 102.799C140.297 101.911 138.492 101.023 136.692 100.129C136.025 99.8026 135.442 100.792 136.109 101.124C137.909 102.012 139.714 102.901 141.515 103.794C141.931 103.996 142.343 103.743 142.385 103.297C142.565 101.336 143 98.1408 145.592 98.0257C146.694 97.975 147.392 99.1029 148.517 98.9924C149.475 98.8957 149.961 98.0717 150.447 97.3536C151.03 96.4927 151.794 96.2349 152.817 96.3316C153.84 96.4283 154.904 96.8104 155.945 97.0359C157.066 97.2799 158.209 97.2983 159.333 97.0774C160.458 96.8564 161.398 96.2165 162.481 95.8529C163.564 95.4892 164.707 95.1301 165.105 93.9746C165.424 93.0494 165.123 92.0734 164.184 91.6959V92.8054C165.059 92.6304 165.933 92.4555 166.808 92.2806C167.197 92.2023 167.308 91.742 167.155 91.4335C166.919 90.964 166.688 90.4991 166.452 90.0295L165.952 90.8949C166.882 90.8259 167.567 90.1492 167.771 89.2561C168.021 88.1513 167.4 87.1247 166.803 86.2455L166.456 87.0925C167.076 86.9912 167.697 86.8899 168.312 86.7933C168.507 86.7611 168.669 86.5677 168.715 86.3928C169.122 84.9059 168.761 83.3913 167.785 82.2037L167.22 83.1658C167.951 83.3315 168.627 83.244 169.298 82.9126C169.65 82.7376 169.65 82.2681 169.414 82.0103C168.659 81.1725 167.761 80.482 166.762 79.9572L166.317 81.0068C167.345 81.2047 168.317 81.0758 169.256 80.6201C169.557 80.4728 169.585 80.0953 169.465 79.8329C169.039 78.9076 168.437 78.0928 167.678 77.4069L167.271 78.3874C169.141 78.3966 169.488 75.9107 168.465 74.7461C167.798 73.9865 166.803 73.6413 165.878 73.3052C165.003 72.9876 163.698 72.4858 163.601 71.404L163.314 71.9011C166.1 70.3544 168.983 68.826 172.126 68.1355C173.639 67.8041 175.227 67.689 176.759 67.9606C178.291 68.2322 179.619 68.8491 180.892 69.6593C182.165 70.4695 183.354 71.4454 184.553 72.3799C185.858 73.3973 187.177 74.4008 188.505 75.386C191.204 77.3838 193.957 79.3127 196.757 81.1633C199.558 83.0139 202.117 84.7401 204.959 86.2178C206.329 86.9314 207.763 87.5482 209.272 87.9073C210.619 88.2296 212.22 88.5012 213.503 87.8291C214.785 87.1569 215.47 85.7575 216.016 84.556C216.562 83.3545 216.955 82.0563 217.163 80.7352C217.608 77.9501 217.358 75.0591 216.46 72.3845C215.937 70.8239 215.386 69.2864 215.016 67.6798C214.683 66.2343 214.447 64.7704 214.317 63.2927C214.109 60.8851 214.169 58.4407 214.535 56.0515C214.775 54.4909 215.132 52.9396 215.645 51.4435C215.766 51.0936 215.891 50.7483 216.034 50.4123C215.955 50.601 216.043 50.3985 216.062 50.3478C216.298 49.754 216.488 49.1371 216.678 48.5249C217.677 45.3393 218.436 42.057 218.867 38.7472C219.047 37.3523 219.107 35.8884 218.533 34.5718C218.015 33.3842 217.015 32.5371 215.821 32.063C212.97 30.9305 209.939 32.1919 207.328 33.3749C204.718 34.558 202.085 36.0542 199.618 37.6562C194.564 40.9338 189.912 44.7685 185.15 48.4328C182.757 50.2696 180.346 52.1202 177.786 53.7268C175.227 55.3334 172.394 56.5993 169.326 56.3645C167.96 56.2587 166.665 55.8167 165.54 55.0341C164.929 54.606 164.35 55.605 164.957 56.0285V56.0193Z" fill="white"/>
<path d="M2.42565 54.8224C2.37474 49.4778 8.0999 46.4165 12.1589 44.1562C17.9257 40.9476 23.6601 37.6792 29.4778 34.5672C35.1289 31.5382 40.9559 28.7623 47.1763 27.0866C53.5124 25.3834 60.066 24.7757 66.5919 24.3108C79.9351 23.3625 93.4358 22.4832 106.761 24.1543C117.443 25.4939 127.963 28.6058 137.552 33.49C147.026 38.3144 155.612 44.9204 162.267 53.2158C163.1 54.2562 163.901 55.3242 164.669 56.4152C165.095 57.0182 166.099 56.4428 165.669 55.8351C159.398 46.9597 151.034 39.7231 141.584 34.3509C132.133 28.9787 121.409 25.3235 110.551 23.5466C97.2633 21.3738 83.7257 22.009 70.35 22.9021C63.6483 23.3487 56.9049 23.7768 50.3189 25.1532C43.7329 26.5296 37.8966 28.9464 32.0928 31.8972C26.0437 34.9677 20.1658 38.3835 14.237 41.6796C9.84476 44.1194 4.04555 46.6283 1.92117 51.5401C1.4676 52.5851 1.2547 53.6853 1.26396 54.8224C1.27322 55.5635 2.43028 55.5635 2.42103 54.8224H2.42565Z" fill="white"/>
<path d="M44.9626 94.2186C48.7763 95.8344 52.9741 95.8943 57.0516 96.1337C59.2732 96.2626 61.4994 96.3961 63.7209 96.525C64.8687 96.594 66.0212 96.6677 67.169 96.7275C67.8678 96.7643 68.7518 96.6677 68.9277 95.8483C69.0804 95.1255 67.965 94.8171 67.8123 95.5444C67.7707 95.7332 65.5769 95.4846 65.3269 95.4708C64.3319 95.4109 63.3321 95.3557 62.3371 95.2958C60.3423 95.1807 58.3521 95.0611 56.3574 94.946C52.7288 94.7342 48.9429 94.6652 45.5457 93.2289C44.87 92.9435 44.2776 93.9332 44.9626 94.2232V94.2186Z" fill="white"/>
<path d="M87.8351 98.0027C98.7948 96.6861 109.662 94.6606 120.353 91.9123C125.68 90.5451 131.008 89.072 136.159 87.1431C141.032 85.3202 145.707 83.0138 150.21 80.4129C155.297 77.4713 160.161 74.1752 164.951 70.7871C165.553 70.3636 164.974 69.3646 164.368 69.7928C155.94 75.7404 147.225 81.4993 137.598 85.357C132.567 87.3733 127.333 88.8694 122.098 90.2643C116.808 91.6729 111.476 92.9066 106.103 93.9608C100.054 95.1531 93.9583 96.1152 87.8351 96.8518C87.1039 96.9393 87.0946 98.0901 87.8351 98.0027Z" fill="white"/>
<path d="M41.3577 27.5056C37.3496 26.3225 33.9432 23.5972 31.9114 19.9651L31.12 20.7523C33.6655 22.451 37.0858 22.5062 39.6961 20.8996C39.909 20.7661 40.034 20.4991 39.96 20.2505C38.8307 16.4665 38.9556 12.4569 40.3025 8.74654H39.187C40.1081 12.2313 43.7459 14.5008 47.2911 13.9208C47.5364 13.8794 47.7169 13.5986 47.7169 13.3638C47.7077 9.98486 48.064 6.62895 48.7907 3.32368L47.7354 3.46179C48.837 5.04537 49.9477 6.64737 51.3085 8.0238C52.5118 9.24371 54.0669 10.5695 55.8349 10.7905C56.5847 10.8871 57.3576 10.7444 57.9454 10.2473C58.6952 9.61198 58.9867 8.58542 59.3385 7.71076C60.1947 5.57477 61.0463 3.43877 61.9025 1.30277L60.8473 1.44088C61.8146 3.05208 62.7865 4.66789 63.7538 6.27909C64.3972 7.35169 65.184 8.87083 66.6095 8.97671C68.1137 9.08719 69.0208 7.3609 69.8076 6.36195C70.9878 4.86123 72.168 3.36051 73.3482 1.85518L72.3809 1.602C73.14 3.82546 74.2878 6.01209 75.8706 7.77061C76.8055 8.80638 78.8003 7.2228 79.5362 6.51847C80.6053 5.50111 81.4245 4.25818 82.4011 3.16256C83.3082 2.1452 84.3496 1.24753 85.7982 1.41325L85.2197 0.837824C85.0161 2.39839 84.8309 4.11548 85.6224 5.55175C86.224 6.64737 87.4367 7.51742 88.7279 7.44376C89.561 7.39773 89.7971 6.91897 90.2969 6.32052C90.843 5.66223 91.4216 5.02696 92.0279 4.4193C93.2636 3.18098 94.6197 2.06694 96.0684 1.08641L95.2168 0.437325C94.8835 2.28791 94.5318 4.40549 95.6287 6.08575C96.4571 7.35169 97.9706 8.20333 99.4886 7.69235C100.664 7.29645 101.465 6.2883 102.224 5.36761C102.932 4.51137 103.728 3.40654 104.973 3.54004L104.413 2.8127C104.034 4.75535 103.409 6.61975 102.52 8.38747C102.391 8.64526 102.428 9.03655 102.728 9.17466C107.264 11.2554 112.082 8.63605 115.905 6.22385L115.053 5.57477C114.466 7.69235 113.97 10.3163 115.905 11.9229C116.641 12.5352 117.576 12.7515 118.506 12.5168C119.589 12.2452 120.394 11.3751 121.454 11.0805C121.848 10.97 122.357 10.9148 122.741 11.1035C123.32 11.3935 123.125 12.1255 123.208 12.6503C123.343 13.4881 123.903 14.0911 124.699 14.3811C125.495 14.6712 126.42 14.6435 127.235 14.418C128.462 14.0819 129.665 13.2487 130.989 13.5801L130.563 13.0231C130.364 14.9888 130.23 17.5621 132.081 18.8419C133.381 19.7396 135.404 19.7626 136.265 18.2711H135.265C135.811 19.4818 135.978 20.7707 135.825 22.0873C135.797 22.3221 136.024 22.5937 136.251 22.6443C137.2 22.8469 138.088 22.5799 139.009 22.3589C139.38 22.2668 139.838 22.1287 140.217 22.2392C140.8 22.4096 140.814 23.1645 140.999 23.6387C141.814 25.7378 144.387 25.5905 146.067 24.7481C147.206 24.1773 148.238 23.4269 149.386 22.8653C150.599 22.2714 151.871 21.7973 153.181 21.4428C155.977 20.6925 158.878 20.5313 161.757 20.4163C162.951 20.3656 164.28 20.1953 165.131 21.2034C165.687 21.8663 165.96 22.741 166.265 23.5374C166.585 24.3706 166.927 25.2084 167.492 25.9082C168.218 26.8058 169.348 27.1925 170.111 28.0396C171.532 29.6185 171.259 32.0998 171.217 34.0517C171.194 35.115 171.199 36.1784 171.356 37.2326C171.541 38.471 171.916 39.6725 172.287 40.8647C173.115 43.5624 173.832 46.2738 172.222 48.8333C170.926 50.8956 169 52.4608 168.084 54.7625C167.811 55.4531 168.926 55.7523 169.199 55.0664C170.056 52.9212 171.939 51.4112 173.166 49.4962C174.48 47.4523 174.601 45.192 174.059 42.8764C173.462 40.3261 172.398 37.9416 172.365 35.2854C172.337 33.177 172.685 30.9167 171.93 28.8912C171.578 27.9475 170.995 27.1695 170.185 26.5711C169.658 26.1798 169.047 25.8805 168.584 25.4064C168.246 25.0611 168.001 24.6422 167.793 24.2095C167.038 22.6627 166.737 20.6556 165.131 19.7027C164.002 19.0352 162.6 19.2286 161.35 19.2838C159.901 19.3437 158.453 19.4219 157.009 19.5876C154.236 19.9007 151.557 20.5636 149.034 21.7651C147.65 22.4234 146.41 23.4453 144.98 23.9885C144.383 24.2141 143.749 24.3108 143.124 24.1266C142.416 23.9195 142.147 23.4637 141.948 22.7962C141.643 21.7651 141.009 21.0285 139.856 21.0607C138.704 21.093 137.663 21.7743 136.561 21.5395L136.987 22.0965C137.163 20.5728 136.899 19.0951 136.269 17.7002C136.089 17.2951 135.469 17.355 135.27 17.7002C134.673 18.736 133.113 18.3677 132.419 17.6312C131.317 16.4665 131.581 14.4778 131.729 13.0323C131.752 12.7884 131.53 12.5352 131.303 12.4753C130.239 12.2037 129.244 12.4661 128.239 12.839C127.351 13.1704 126.471 13.5709 125.499 13.4052C125.134 13.3454 124.727 13.2027 124.509 12.885C124.213 12.4477 124.384 11.8493 124.278 11.3567C124.111 10.6109 123.56 10.1046 122.829 9.91581C122.098 9.72707 121.292 9.86057 120.612 10.1644C119.691 10.5787 118.788 11.4948 117.719 11.458C116.715 11.4257 115.984 10.4636 115.766 9.56135C115.47 8.33683 115.854 7.05247 116.183 5.87399C116.312 5.40444 115.766 4.9533 115.331 5.2249C111.939 7.3655 107.403 10.0447 103.321 8.17571L103.529 8.9629C104.459 7.10771 105.14 5.15125 105.538 3.11192C105.616 2.71603 105.371 2.42601 104.978 2.38458C102.733 2.1406 101.613 4.56661 100.238 5.86939C99.2619 6.79468 98.0168 6.99263 97.0033 5.95225C95.6564 4.56661 96.036 2.44443 96.3414 0.736549C96.4201 0.290015 95.948 -0.220967 95.4898 0.0874634C92.8887 1.85518 90.6209 4.00039 88.7048 6.48164L89.0519 6.21925C87.9226 6.52768 86.8813 5.65763 86.4879 4.65408C86.0111 3.44798 86.224 2.07615 86.386 0.833221C86.4277 0.501773 86.0852 0.290015 85.8075 0.257791C81.2302 -0.271605 80.3971 6.38957 76.2918 6.99263L76.8564 7.13994C75.3708 5.41825 74.2369 3.43877 73.5056 1.29356C73.3806 0.929893 72.8252 0.6721 72.5383 1.04038C71.5895 2.25108 70.6361 3.45718 69.6873 4.66789C69.1967 5.28935 68.7107 5.91542 68.2201 6.53688C67.8822 6.965 67.4241 7.77521 66.8177 7.82585C65.6746 7.92252 64.7767 5.72208 64.3278 4.97171C63.5039 3.59989 62.6801 2.22806 61.8563 0.856238C61.5786 0.395894 60.9769 0.552411 60.801 0.994341C60.1021 2.74365 59.3987 4.49756 58.6998 6.24687C58.3665 7.08009 58.0889 7.96395 57.6677 8.75574C57.2234 9.59817 56.4875 9.80533 55.5988 9.57055C54.1178 9.18386 52.8358 7.95474 51.8222 6.86833C50.6744 5.63921 49.7117 4.25358 48.7536 2.87715C48.4898 2.49967 47.8095 2.49506 47.6984 3.01525C46.9533 6.41259 46.5737 9.87898 46.583 13.3592L47.0088 12.8022C44.0745 13.2809 41.0754 11.2692 40.3256 8.4335C40.1729 7.85347 39.3953 7.92252 39.2102 8.4335C37.7986 12.3234 37.6829 16.5862 38.8677 20.5498L39.1315 19.9007C36.8544 21.3001 33.9432 21.2357 31.7263 19.7534C31.2264 19.4173 30.6664 20.0618 30.9348 20.5406C33.1101 24.4305 36.7803 27.349 41.0707 28.6104C41.7881 28.8221 42.0936 27.7127 41.3762 27.501L41.3577 27.5056Z" fill="white"/>
<path d="M137.56 33.1264C142.374 29.2733 147.608 25.991 152.824 22.7134C153.162 22.5016 153.236 21.9124 152.824 21.719C151.556 21.1252 150.589 22.2715 149.779 23.0909C148.664 24.2233 147.544 25.3604 146.428 26.4928C144.193 28.7623 141.962 31.0318 139.726 33.3013C139.203 33.8307 140.023 34.6455 140.546 34.1161C142.513 32.1182 144.484 30.1157 146.451 28.1178C147.409 27.1465 148.367 26.1706 149.326 25.1992C149.83 24.6837 150.334 24.1727 150.844 23.6571C151.103 23.3947 151.792 22.4924 152.246 22.7088V21.7144C146.942 25.0427 141.638 28.3894 136.746 32.307C136.167 32.7719 136.991 33.5821 137.565 33.1218L137.56 33.1264Z" fill="white"/>
<path d="M142.735 35.1104C148.377 30.6773 154.176 26.4422 160.109 22.4003L159.526 21.406C153.634 25.4386 148.418 30.3597 144.049 35.9897C143.596 36.5743 144.6 37.1498 145.049 36.5697C149.288 31.1008 154.389 26.3087 160.109 22.3957C160.72 21.9768 160.142 20.9825 159.526 21.4014C153.509 25.4985 147.641 29.7981 141.92 34.291C141.337 34.7514 142.161 35.557 142.739 35.1058L142.735 35.1104Z" fill="white"/>
<path d="M146.568 38.1395C152.085 32.9146 158.329 28.4999 165.095 25.0243L164.512 24.03C158.472 28.104 152.752 32.6338 147.401 37.5733C146.855 38.0797 147.675 38.8899 148.221 38.3881C153.497 33.5131 159.139 29.0477 165.095 25.0243C165.711 24.61 165.179 23.6893 164.512 24.03C157.662 27.5516 151.335 32.0399 145.754 37.3293C145.212 37.8403 146.031 38.6551 146.573 38.1441L146.568 38.1395Z" fill="white"/>
<path d="M150.095 40.7174C155.968 37.0209 162.013 33.5913 168.201 30.4426L167.617 29.4482C164.66 31.3264 161.707 33.2046 158.75 35.0828C157.301 36.0035 155.857 36.9242 154.404 37.8403C152.95 38.7564 151.562 39.608 150.016 40.2479C149.34 40.5287 149.637 41.6427 150.322 41.3573C153.464 40.0545 156.278 38.0152 159.134 36.2015C162.156 34.2818 165.178 32.3622 168.196 30.4472C168.825 30.0467 168.275 29.1168 167.613 29.4528C161.425 32.6016 155.385 36.0311 149.507 39.7277C148.878 40.1236 149.461 41.1179 150.09 40.722L150.095 40.7174Z" fill="white"/>
<path d="M154.292 42.3655C160.202 39.4837 166.464 36.8321 171.407 32.3944C171.962 31.8972 171.143 31.0916 170.588 31.5796C165.293 36.2337 159.42 40.1972 153.125 43.392C152.463 43.7281 153.047 44.7224 153.708 44.3864C160.091 41.1502 166.038 37.1129 171.407 32.3944L170.588 31.5796C165.728 35.9391 159.517 38.5354 153.708 41.3711C153.042 41.698 153.625 42.6923 154.292 42.3655Z" fill="white"/>
<path d="M156.399 46.4763C158.981 45.4083 161.569 44.3357 164.151 43.2677C166.526 42.2872 168.951 41.3527 171.038 39.829C171.519 39.4791 171.26 38.5262 170.594 38.7794C168.132 39.7047 165.711 40.7312 163.337 41.8545C162.156 42.4161 160.985 43.0007 159.828 43.6084C158.671 44.2161 157.561 44.9572 156.265 45.0815C155.529 45.1506 155.524 46.306 156.265 46.2324C157.5 46.1127 158.57 45.5879 159.648 45.0078C160.861 44.3588 162.087 43.7281 163.327 43.1296C165.803 41.9373 168.331 40.8555 170.899 39.8888L170.455 38.8392C168.386 40.3492 165.984 41.2745 163.633 42.2504C161.12 43.2908 158.607 44.3311 156.089 45.3715C155.413 45.6523 155.709 46.7664 156.394 46.4809L156.399 46.4763Z" fill="white"/>
<path d="M160.188 48.3499C162.275 47.1208 164.515 46.1863 166.867 45.5879C168.75 45.1091 170.902 44.9112 172.268 43.369C172.68 42.9041 172.147 42.0847 171.569 42.4667C168.042 44.7777 164.344 46.817 160.507 48.5663C159.832 48.8747 160.419 49.8691 161.09 49.5606C164.927 47.8067 168.625 45.772 172.152 43.4611L171.453 42.5588C170.12 44.0641 167.778 44.1332 165.959 44.6442C163.733 45.2702 161.6 46.1909 159.609 47.3602C158.971 47.7377 159.549 48.732 160.193 48.3545L160.188 48.3499Z" fill="white"/>
<path d="M162.36 52.8751C165.489 51.1442 168.724 49.6159 172.056 48.3085L171.492 47.3464C168.891 49.4686 165.989 51.1995 162.897 52.5253C162.217 52.8153 162.805 53.8096 163.48 53.5196C166.665 52.157 169.627 50.3478 172.306 48.1612C172.741 47.8067 172.274 46.9919 171.742 47.1991C168.317 48.5387 164.984 50.0992 161.768 51.8808C161.115 52.2398 161.698 53.2342 162.351 52.8751H162.36Z" fill="white"/>
<path d="M50.0734 24.8586C48.5646 21.0653 47.7084 17.0511 47.5695 12.9725C47.5464 12.2359 46.3893 12.2313 46.4125 12.9725C46.5559 17.1524 47.4075 21.2771 48.958 25.1624C49.2311 25.8437 50.3465 25.5445 50.0734 24.8586Z" fill="white"/>
<path d="M49.3796 6.27909C48.2549 12.1301 49.1806 18.0501 50.134 23.855C50.2543 24.5824 51.3697 24.2739 51.2494 23.5512C50.333 17.9626 49.4166 12.2175 50.495 6.58752C50.6338 5.86478 49.5184 5.55175 49.3796 6.2837V6.27909Z" fill="white"/>
<path d="M56.6966 9.66262C56.0672 14.1694 56.0117 18.7222 56.5717 23.2382C56.6596 23.9563 57.6917 23.9977 57.7287 23.2382C57.7426 22.9159 57.7611 22.5983 57.775 22.2761C57.8121 21.5349 56.655 21.5395 56.618 22.2761C56.6041 22.5983 56.5856 22.9159 56.5717 23.2382H57.7287C57.1826 18.8327 57.2011 14.3673 57.8121 9.97105C57.9139 9.24831 56.7985 8.93528 56.6966 9.66723V9.66262Z" fill="white"/>
<path d="M59.5004 4.66789C58.8663 10.901 58.8015 17.18 59.306 23.4269C59.3662 24.1681 60.3983 24.1681 60.4631 23.4269C60.4955 23.0402 60.5279 22.6581 60.5603 22.2715C60.6251 21.5349 59.468 21.5395 59.4032 22.2715C59.3708 22.6581 59.3384 23.0402 59.306 23.4269H60.4631C59.9586 17.18 60.028 10.901 60.6574 4.66789C60.7315 3.93134 59.5744 3.93594 59.5004 4.66789Z" fill="white"/>
<path d="M67.6471 7.88569C66.4206 13.106 65.7819 18.4552 65.7402 23.8136C65.7356 24.5548 66.8834 24.5548 66.8973 23.8136C66.9066 23.3671 66.9158 22.9159 66.9251 22.4694C66.939 21.7282 65.7819 21.7282 65.768 22.4694C65.7588 22.9159 65.7495 23.3671 65.7402 23.8136H66.8973C66.9343 18.5519 67.5592 13.3178 68.7625 8.18952C68.9338 7.46678 67.8183 7.16295 67.6471 7.88569Z" fill="white"/>
<path d="M70.1415 4.73694C69.0956 10.8457 68.6697 17.0419 68.9012 23.2336C68.9243 23.8044 69.6741 24.0162 69.9795 23.5236C70.086 23.3533 70.1924 23.1829 70.2989 23.0126C70.6923 22.3819 69.6926 21.8019 69.2992 22.4326C69.1927 22.6029 69.0863 22.7732 68.9798 22.9436L70.0582 23.2336C69.8314 17.1478 70.2248 11.0483 71.2569 5.04537C71.3819 4.32263 70.2665 4.0096 70.1415 4.74154V4.73694Z" fill="white"/>
<path d="M79.2043 5.93844C76.8855 11.4902 74.5714 17.1478 74.1363 23.2105C74.09 23.878 75.0897 23.9655 75.2749 23.3625C75.3906 22.9804 75.5109 22.5983 75.6266 22.2116C75.8442 21.5027 74.7287 21.1988 74.5112 21.9078C74.3955 22.2899 74.2752 22.6719 74.1595 23.0586L75.298 23.2105C75.7284 17.2629 78.0518 11.6881 80.3243 6.24226C80.6113 5.56095 79.4912 5.26173 79.2089 5.93844H79.2043Z" fill="white"/>
<path d="M82.4344 2.61936C79.6714 8.834 78.0468 15.486 77.6534 22.2714C77.6118 23.0126 78.7689 23.008 78.8105 22.2714C79.19 15.7023 80.759 9.22069 83.4341 3.19939C83.7304 2.52729 82.7353 1.94265 82.4344 2.61936Z" fill="white"/>
<path d="M83.6965 22.2576C85.9643 16.3422 88.695 10.6109 91.8469 5.10521C92.2171 4.46073 91.2174 3.8807 90.8472 4.52518C87.649 10.1138 84.886 15.9417 82.5811 21.9492C82.3173 22.6397 83.4327 22.9435 83.6965 22.253V22.2576Z" fill="white"/>
<path d="M86.7614 21.8848C87.414 18.4184 88.5618 15.0625 90.2048 11.9367C91.8479 8.81098 93.8797 6.01209 95.9716 3.22241C96.416 2.62856 95.4116 2.05313 94.9719 2.64237C92.8383 5.4873 90.751 8.38286 89.1079 11.5408C87.4649 14.6988 86.2986 18.0823 85.646 21.5763C85.5118 22.2991 86.6226 22.6121 86.7614 21.8802V21.8848Z" fill="white"/>
<path d="M92.9576 22.6167C93.8092 19.8731 94.9524 17.2261 96.3779 14.7264C97.0768 13.5019 97.8405 12.3142 98.6689 11.1679C99.4974 10.0217 100.52 8.87543 101.214 7.57726C101.566 6.92357 100.566 6.34354 100.215 6.99723C99.502 8.32302 98.4838 9.45086 97.609 10.6708C96.7343 11.8907 95.9892 13.0646 95.2764 14.3213C93.8463 16.8532 92.6985 19.537 91.8376 22.3083C91.6154 23.0172 92.7355 23.321 92.953 22.6121L92.9576 22.6167Z" fill="white"/>
<path d="M94.7355 22.81C96.8645 17.2951 100.28 12.3188 104.635 8.30921C105.181 7.80743 104.362 6.99263 103.816 7.4944C99.3036 11.6467 95.8185 16.798 93.6155 22.5016C93.347 23.1921 94.467 23.4914 94.7309 22.8054L94.7355 22.81Z" fill="white"/>
<path d="M101.191 22.9712C103.121 17.9212 106.25 13.3822 110.263 9.74549C110.814 9.24371 109.994 8.4335 109.444 8.93068C105.278 12.7055 102.075 17.4286 100.071 22.6673C99.8075 23.3625 100.923 23.6617 101.187 22.9712H101.191Z" fill="white"/>
<path d="M103.909 23.809C106.371 17.7969 110.421 12.4937 115.535 8.46573C116.118 8.00538 115.294 7.19518 114.716 7.65092C109.435 11.8078 105.33 17.3043 102.793 23.5006C102.511 24.1865 103.631 24.4857 103.909 23.8044V23.809Z" fill="white"/>
<path d="M109.204 23.3394C111.755 19.735 114.67 16.4021 117.896 13.3822C118.438 12.8712 117.619 12.061 117.077 12.5674C113.782 15.6563 110.81 19.0767 108.205 22.7594C107.774 23.3671 108.779 23.9425 109.204 23.3394Z" fill="white"/>
<path d="M111.958 23.8919C115.462 19.4311 119.456 15.3709 123.867 11.7986C124.445 11.3291 123.621 10.5189 123.047 10.9838C118.637 14.5607 114.638 18.6163 111.139 23.0771C110.685 23.6525 111.5 24.4765 111.958 23.8919Z" fill="white"/>
<path d="M117.281 25.8575C120.604 20.9641 125.306 17.0972 130.744 14.731C131.425 14.4364 130.837 13.442 130.161 13.7367C124.543 16.1811 119.711 20.2229 116.281 25.2729C115.865 25.8897 116.864 26.4652 117.281 25.8529V25.8575Z" fill="white"/>
<path d="M120.905 26.0647C124.131 22.184 127.972 18.8511 132.286 16.2087C132.92 15.822 132.337 14.8231 131.703 15.2144C127.31 17.9028 123.376 21.2955 120.086 25.2499C119.614 25.8161 120.428 26.6355 120.905 26.0647Z" fill="white"/>
<path d="M124.44 27.013C127.221 24.1589 130.396 21.7236 133.881 19.781C134.529 19.4173 133.946 18.423 133.298 18.7866C129.73 20.7753 126.467 23.275 123.62 26.1982C123.102 26.7322 123.921 27.547 124.44 27.013Z" fill="white"/>
<path d="M127.078 28.2605C129.23 25.3465 132.169 23.0632 135.506 21.6362C135.793 21.5119 135.853 21.093 135.714 20.849C135.543 20.5544 135.21 20.5221 134.923 20.6418C131.396 22.1518 128.351 24.6054 126.078 27.6805C125.638 28.2789 126.638 28.8544 127.078 28.2605Z" fill="white"/>
<path d="M131.558 29.3515C133.437 27.1189 135.806 25.3604 138.491 24.2003C138.778 24.076 138.842 23.6571 138.699 23.4131C138.528 23.1185 138.194 23.0817 137.907 23.2059C135.144 24.3982 132.673 26.2396 130.738 28.5367C130.262 29.103 131.076 29.9178 131.558 29.3515Z" fill="white"/>
<path d="M134.006 31.2297C135.311 28.3664 137.722 26.0417 140.684 24.9138C140.976 24.8033 141.175 24.5271 141.087 24.2049C141.008 23.9287 140.67 23.6893 140.374 23.8044C137.139 25.0381 134.441 27.5056 133.006 30.6497C132.876 30.9305 132.923 31.2666 133.214 31.4369C133.464 31.5796 133.876 31.5152 134.006 31.2297Z" fill="white"/>
<path d="M38.6923 17.9212C38.896 19.9743 39.4514 21.9538 40.3585 23.809C40.5807 24.2601 40.8214 24.6975 41.0805 25.1256C41.3166 25.5169 41.5804 26.0601 41.9229 26.3685C41.9784 26.5112 42.0154 26.5342 42.034 26.4284C42.0664 26.3317 42.0617 26.3455 42.0201 26.479C42.0062 26.5619 41.983 26.6585 41.9877 26.746C41.9969 26.99 42.1404 27.2247 42.3672 27.3168C42.7467 27.4779 43.1586 27.2524 43.2928 26.8795C43.4132 26.5434 43.0938 26.1245 42.7328 26.1521H42.6912C41.9553 26.212 41.946 27.3629 42.6912 27.3076H42.7328C42.5477 27.0636 42.3626 26.8196 42.1728 26.5757L42.1635 26.5987L42.4274 26.2534L42.5847 26.2166L43.0846 26.502C43.1494 26.6309 43.1309 26.723 43.1864 26.5665C43.2188 26.4744 43.2049 26.3547 43.1864 26.2626C43.1494 26.0785 43.0244 25.9404 42.9133 25.7931C42.6727 25.4708 42.4459 25.144 42.233 24.8033C41.7887 24.1082 41.3999 23.3763 41.0666 22.6213C40.4187 21.1344 40.0021 19.537 39.8402 17.9258C39.7661 17.1938 38.609 17.1892 38.6831 17.9258L38.6923 17.9212Z" fill="white"/>
<path d="M38.9238 12.3787C39.4977 17.7002 41.6035 22.7272 44.996 26.8795C45.4635 27.4549 46.2781 26.6355 45.8152 26.0647C42.6356 22.1702 40.6223 17.3642 40.0808 12.374C40.0021 11.6467 38.8451 11.6375 38.9238 12.374V12.3787Z" fill="white"/>
<path d="M17.6339 51.7243C19.1057 52.3365 20.7673 51.6828 21.9012 50.6977C22.489 50.1867 22.9611 49.5284 22.9472 48.7182C22.9333 47.908 22.5214 47.1807 21.966 46.6421C20.8969 45.6017 19.1844 45.1413 17.7589 45.6431C16.3334 46.1449 15.2596 47.5443 15.3337 49.0589C15.4124 50.6977 16.9073 52.1616 18.5966 52.0189C18.9067 51.9913 19.1751 51.7749 19.1751 51.4435C19.1751 51.1534 18.9113 50.8404 18.5966 50.868C17.6108 50.9509 16.699 50.2281 16.5139 49.2614C16.3288 48.2947 16.9813 47.3004 17.8283 46.8584C18.7771 46.3613 19.9758 46.5914 20.8228 47.1807C21.2486 47.4753 21.6096 47.9126 21.7438 48.4144C21.8919 48.9484 21.642 49.3535 21.2625 49.7172C20.3924 50.5504 19.115 51.1028 17.9394 50.6102C17.6524 50.4905 17.3053 50.7391 17.2266 51.0107C17.1341 51.3422 17.3424 51.6 17.6293 51.7197L17.6339 51.7243Z" fill="white"/>
<path d="M12.9781 43.8846C11.7469 46.7203 11.9598 50.1131 13.9778 52.5437C15.9957 54.9743 19.2632 55.5083 21.7995 53.8234C24.4006 52.0971 26.3491 49.3305 25.9233 46.1081C25.7474 44.7593 25.155 43.4427 24.1692 42.4806C23.0168 41.3573 21.4663 40.9706 19.8927 40.8924C18.2404 40.8095 16.4678 41.0949 15.1024 42.0801C13.8297 42.9961 12.9595 44.437 12.9919 46.0252C13.0058 46.7664 14.1629 46.7664 14.149 46.0252C14.0981 43.3828 16.8195 42.0893 19.1198 42.034C20.3648 42.0018 21.7486 42.1399 22.8085 42.8534C23.7758 43.5071 24.4052 44.5843 24.6783 45.6984C25.3216 48.3545 23.91 50.6286 21.9337 52.2859C20.9664 53.0961 19.8695 53.6761 18.5783 53.6485C17.4119 53.6255 16.2688 53.1513 15.4079 52.3734C13.2326 50.4123 12.8485 47.0656 13.9778 44.4646C14.2693 43.7925 13.2743 43.2033 12.9781 43.8846Z" fill="white"/>
<path d="M1.86147 53.4321C1.67634 54.247 2.079 54.9881 2.7501 55.4531C3.48136 55.9594 4.39776 55.9456 5.24473 56.0009C6.71652 56.0975 8.08185 56.8663 8.88717 58.1C9.29446 58.7169 10.2942 58.1415 9.88688 57.52C9.10007 56.3231 7.90135 55.4254 6.50825 55.048C5.75847 54.8454 4.9948 54.8914 4.23114 54.7856C3.7498 54.7165 2.82415 54.3989 2.97688 53.7406C3.1435 53.0178 2.02809 52.7094 1.86147 53.4367V53.4321Z" fill="white"/>
<path d="M2.38387 60.8345C3.453 60.0887 4.8461 61.1797 5.86432 61.5204C6.95196 61.8795 8.45615 61.7229 8.99302 60.5629C9.12262 60.2821 9.0717 59.9414 8.78475 59.7757C8.53483 59.6284 8.12291 59.6974 7.99332 59.9828C7.51661 61.0048 6.11425 60.4202 5.38761 60.0841C4.28146 59.5777 2.92075 59.0621 1.80071 59.8447C1.54615 60.0243 1.42582 60.3465 1.59244 60.6319C1.74054 60.8851 2.12469 61.0186 2.38387 60.8391V60.8345Z" fill="white"/>
<path d="M18.3042 73.9543C23.3212 72.2924 28.4771 70.4511 32.5592 66.9939C34.6882 65.1939 36.3451 62.9613 37.6318 60.5076C38.9879 57.9205 40.0987 55.14 40.9734 52.3595C41.987 49.1417 42.5378 45.6753 41.5195 42.3839C41.3298 41.767 40.3949 41.8775 40.381 42.5358C40.3254 46.4073 40.2653 50.2788 40.2097 54.1503C40.1866 55.7339 40.2931 57.3865 40.0292 58.9517C39.8395 60.0703 39.4229 61.3639 38.2196 61.7229C37.5068 61.9347 37.8123 63.0441 38.5251 62.8324C41.6028 61.9163 41.3159 57.7962 41.3529 55.2965C41.4177 51.043 41.4779 46.7894 41.5427 42.5358L40.4041 42.6877C41.2789 45.505 40.904 48.442 40.1079 51.2317C39.3119 54.0214 38.2566 56.6592 37.0024 59.2003C35.7481 61.7414 34.3041 63.8681 32.2862 65.6957C30.4302 67.3806 28.2596 68.6879 25.9964 69.7652C23.4138 70.9989 20.7063 71.938 17.9941 72.8356C17.2906 73.0704 17.5914 74.1799 18.2996 73.9451L18.3042 73.9543Z" fill="white"/>
<path d="M19.4387 70.3498C21.1789 70.939 22.9608 71.404 24.7334 70.672C26.2283 70.0552 27.4178 68.8307 28.1768 67.4266C30.0281 64.0016 29.519 59.8724 31.2824 56.429C31.6203 55.7707 30.6206 55.1861 30.2827 55.8489C28.6674 59.0069 28.9081 62.6482 27.6215 65.9029C27.0568 67.3253 26.1126 68.6511 24.7427 69.4015C23.1043 70.2991 21.4057 69.8112 19.7488 69.245C19.0407 69.0056 18.7398 70.115 19.4433 70.3544L19.4387 70.3498Z" fill="white"/>
<path d="M36.5687 69.3554C38.6421 70.2853 40.3315 71.9011 41.2802 73.9635C42.354 76.2974 42.3031 79.0089 41.3173 81.3566C41.0673 81.9551 42.118 82.4016 42.3725 81.7985C42.4373 81.6466 42.5021 81.4947 42.5669 81.3428C42.8539 80.6707 41.8588 80.0815 41.5672 80.7628C41.5024 80.9147 41.4376 81.0666 41.3728 81.2185L42.4281 81.6604C44.5524 76.5874 42.1781 70.6168 37.1472 68.3611C36.4715 68.0573 35.8837 69.0516 36.564 69.3554H36.5687Z" fill="white"/>
<path d="M37.8317 67.2471C42.7608 59.8585 47.9259 52.4102 54.8359 46.6927C56.7798 45.0861 58.8578 43.6498 61.0563 42.4069L60.2047 42.0616C60.3713 42.8718 60.1815 43.6498 59.7187 44.3311C59.566 44.5567 59.6539 44.8375 59.8113 45.0263C60.5796 45.97 61.6903 45.3669 62.6762 45.5971C63.3149 45.7444 63.0881 46.619 63.0557 47.1024C62.9909 48.0185 62.9261 48.9392 62.8613 49.8553C62.616 53.3723 62.3661 56.8939 62.1208 60.411C61.9912 62.2477 61.8616 64.0845 61.732 65.9167C61.6163 67.5463 61.5885 69.2127 61.2414 70.8101C60.9313 72.2326 60.2972 73.4985 59.2374 74.5113C58.2747 75.4366 57.0713 76.1087 55.831 76.5921C52.4338 77.9178 48.6942 77.9409 45.2647 79.1792C44.5704 79.4324 44.8712 80.5418 45.5701 80.2886C51.0731 78.2953 59.4225 79.0365 61.9588 72.4582C62.5605 70.893 62.6577 69.1759 62.7734 67.5187C62.903 65.6819 63.0325 63.8451 63.1621 62.013C63.4306 58.1875 63.699 54.362 63.9675 50.5412C64.0415 49.4686 64.1156 48.4006 64.1942 47.328C64.2498 46.5546 64.4164 45.6063 63.8379 44.971C63.4167 44.5107 62.8011 44.4094 62.1995 44.4232C61.7135 44.4324 60.9776 44.6396 60.6258 44.2114L60.7184 44.9066C61.3571 43.9675 61.5469 42.8534 61.3201 41.7486C61.246 41.3757 60.7739 41.233 60.4685 41.4033C52.5125 45.8871 46.4773 52.9027 41.2427 60.2222C39.7293 62.3352 38.2713 64.4896 36.832 66.6532C36.42 67.2701 37.4197 67.8501 37.8317 67.2333V67.2471Z" fill="white"/>
<path d="M53.7064 89.8546C59.5334 93.4314 66.1055 96.6262 73.1498 95.9219C73.8857 95.8482 73.8903 94.6974 73.1498 94.771C66.2953 95.4569 59.9638 92.3358 54.2942 88.8602C53.6602 88.4689 53.077 89.4633 53.7111 89.8546H53.7064Z" fill="white"/>
<path d="M49.5591 97.349C52.6692 102.924 52.7155 109.613 55.8165 115.201C56.0849 115.689 56.9272 115.487 56.8948 114.911C56.7977 113.309 56.2885 111.804 55.7841 110.294C55.2796 108.784 54.7381 107.168 54.2197 105.608C53.1645 102.445 52.1092 99.287 51.0494 96.1244C50.8133 95.4247 49.6979 95.7239 49.9339 96.4283C50.966 99.5172 51.9982 102.606 53.0303 105.69C53.5394 107.214 54.0485 108.742 54.5622 110.266C55.0759 111.79 55.6452 113.3 55.7424 114.906L56.8208 114.616C53.7245 109.037 53.6782 102.348 50.5634 96.7643C50.2024 96.1152 49.2027 96.6953 49.5637 97.3444L49.5591 97.349Z" fill="white"/>
<path d="M50.7669 97.6988C52.5673 100.088 54.1502 102.634 55.4739 105.313C56.1449 106.666 56.7466 108.057 57.2789 109.47C57.7139 110.635 57.9592 112.094 59.0746 112.826C59.4125 113.047 60.0003 112.761 59.9448 112.329C59.1533 106.243 56.1635 100.797 52.6784 95.839C52.2526 95.236 51.2529 95.8114 51.6787 96.4191C55.0342 101.188 58.0286 106.468 58.7877 112.329L59.6578 111.831C59.1302 111.482 58.9728 110.777 58.7738 110.22C58.5378 109.548 58.2878 108.881 58.024 108.218C57.501 106.91 56.9225 105.626 56.2884 104.369C55.0018 101.824 53.4837 99.3975 51.7666 97.1188C51.3269 96.5342 50.318 97.105 50.7669 97.6988Z" fill="white"/>
<path d="M52.5946 96.7137C54.6357 98.8359 56.6999 100.976 58.2272 103.508C59.5509 105.7 60.4257 108.167 62.5408 109.769C63.0314 110.142 63.5821 109.442 63.3322 108.982C61.9854 106.496 60.5553 104.061 59.0279 101.685C57.7598 99.7105 56.4361 97.5653 54.2608 96.4789C53.5943 96.1475 53.0112 97.1418 53.6777 97.4733C55.802 98.5275 57.0424 100.709 58.2643 102.629C59.7036 104.889 61.0597 107.205 62.3371 109.562L63.1286 108.775C61.069 107.214 60.259 104.512 58.9076 102.408C57.3664 100.014 55.3855 97.9428 53.4138 95.8989C52.9001 95.3649 52.0809 96.1751 52.5946 96.7137Z" fill="white"/>
<path d="M56.8956 98.5827C59.3254 101.299 61.4082 104.503 64.9118 105.944C65.3838 106.137 65.8235 105.492 65.5643 105.097C63.3613 101.695 60.5473 98.7392 57.2659 96.35C56.6642 95.9127 56.0857 96.9116 56.6827 97.3444C59.7975 99.6139 62.4727 102.454 64.5646 105.681L65.2172 104.834C61.9636 103.495 59.9641 100.286 57.7102 97.7679C57.215 97.2155 56.4004 98.0303 56.891 98.5827H56.8956Z" fill="white"/>
<path d="M60.3154 98.5551C61.8103 99.7059 63.3052 100.861 64.7955 102.012C64.9853 102.16 65.1936 102.233 65.4296 102.132C65.6194 102.049 65.8137 101.833 65.786 101.607C65.5499 99.6921 64.3744 97.9428 62.6156 97.0866C62.3333 96.9485 61.9908 97.0129 61.8242 97.2937C61.6761 97.5469 61.7501 97.9428 62.0325 98.0809C62.736 98.4216 63.3423 98.9187 63.7773 99.5218C63.893 99.6829 63.9995 99.8486 64.0967 100.024C64.1429 100.111 64.1892 100.199 64.2355 100.286C64.2586 100.337 64.2818 100.387 64.3049 100.433C64.3049 100.433 64.342 100.525 64.3234 100.479C64.4669 100.829 64.5919 101.303 64.6289 101.603L65.6147 101.197C64.1198 100.047 62.6249 98.8911 61.1346 97.7403C60.8893 97.5515 60.556 97.5009 60.3154 97.7403C60.1164 97.9382 60.0654 98.3617 60.3154 98.5551Z" fill="white"/>
<path d="M93.0891 96.8058C92.7697 96.3915 92.1865 96.2303 91.7839 96.6677C91.3396 97.1464 91.5664 97.9934 91.6311 98.5689C91.7978 100.051 92.0569 101.52 92.4133 102.97C93.1353 105.879 94.2554 108.687 95.7133 111.311C96.0743 111.96 97.074 111.38 96.713 110.731C95.5513 108.641 94.6164 106.441 93.936 104.153C93.6028 103.034 93.3297 101.902 93.1168 100.756C93.0057 100.166 92.9132 99.5724 92.8391 98.9786C92.8067 98.707 92.7743 98.4354 92.7466 98.1592C92.728 97.9888 92.7142 97.8185 92.7003 97.6482C92.6956 97.5883 92.691 97.5239 92.6864 97.4641C92.7003 97.2753 92.5938 97.3075 92.367 97.5699L92.0199 97.3075L92.0847 97.395C92.529 97.975 93.538 97.4042 93.0844 96.815L93.0891 96.8058Z" fill="white"/>
<path d="M93.9902 97.8784C94.0458 101.303 94.5132 104.728 95.3972 108.038C95.8369 109.686 96.3784 111.307 97.0217 112.89C97.3272 113.645 97.6558 114.396 98.0029 115.132C98.2945 115.744 98.5954 116.485 99.3914 116.476C100.137 116.467 100.137 115.316 99.3914 115.325C99.2988 115.325 98.998 114.547 98.9564 114.46C98.7944 114.115 98.637 113.765 98.4843 113.415C98.1695 112.692 97.8826 111.96 97.6142 111.224C97.1004 109.815 96.6654 108.383 96.309 106.929C95.5824 103.964 95.1982 100.935 95.1519 97.883C95.138 97.1418 93.981 97.1418 93.9949 97.883L93.9902 97.8784Z" fill="white"/>
<path d="M98.512 97.2569C99.757 99.752 101.03 102.233 102.363 104.687C103.51 106.8 104.783 108.899 106.667 110.446C107.236 110.915 108.06 110.105 107.486 109.631C105.621 108.098 104.404 106.026 103.274 103.936C101.979 101.538 100.734 99.1167 99.5163 96.6769C99.1877 96.014 98.188 96.594 98.5166 97.2569H98.512Z" fill="white"/>
<path d="M100.919 96.6769C102.256 100.005 103.77 103.264 105.478 106.422C106.329 107.997 107.223 109.543 108.167 111.063C109.041 112.476 109.93 113.931 111.258 114.966C111.837 115.417 112.661 114.607 112.078 114.152C110.791 113.153 109.953 111.758 109.111 110.391C108.19 108.899 107.315 107.38 106.477 105.842C104.816 102.772 103.335 99.6093 102.034 96.373C101.761 95.6917 100.641 95.991 100.919 96.6769Z" fill="white"/>
<path d="M106.607 96.0784C109.819 100.935 113.707 105.331 118.15 109.111C118.715 109.59 119.534 108.779 118.969 108.296C114.6 104.581 110.768 100.272 107.607 95.4938C107.199 94.8769 106.195 95.4524 106.607 96.0738V96.0784Z" fill="white"/>
<path d="M108.829 94.4028C111.856 100.217 116.294 105.23 121.682 108.982C122.293 109.405 122.871 108.411 122.265 107.988C117.035 104.346 112.758 99.4573 109.824 93.8227C109.482 93.1644 108.482 93.7445 108.824 94.4028H108.829Z" fill="white"/>
<path d="M115.632 93.1921C117.585 96.1337 119.783 98.9141 122.218 101.478C123.417 102.74 124.676 103.95 125.981 105.106C126.596 105.649 127.226 106.303 127.925 106.735C128.526 107.108 129.47 106.855 129.401 106.026C129.341 105.295 128.184 105.285 128.244 106.026C128.545 105.893 128.605 105.773 128.42 105.672C128.336 105.608 128.258 105.538 128.174 105.469C128.022 105.341 127.864 105.212 127.712 105.083C127.457 104.866 127.203 104.645 126.948 104.424C126.393 103.936 125.846 103.444 125.31 102.938C124.213 101.902 123.157 100.825 122.139 99.7105C120.121 97.4871 118.279 95.1163 116.622 92.6166C116.215 91.9998 115.211 92.5752 115.623 93.1967L115.632 93.1921Z" fill="white"/>
<path d="M118.209 92.81C120.681 98.3801 125.272 102.951 130.868 105.419C131.543 105.718 132.131 104.724 131.451 104.424C126.008 102.026 121.611 97.6482 119.205 92.2299C118.904 91.5532 117.909 92.1379 118.205 92.81H118.209Z" fill="white"/>
<path d="M123.301 91.8755C125.546 93.7307 127.795 95.5812 130.04 97.4364C131.132 98.3387 132.229 99.241 133.321 100.143C134.117 100.802 135.15 101.883 136.196 101.055C136.779 100.594 135.955 99.7842 135.376 100.24C135.187 100.392 133.09 98.463 132.812 98.2328C131.836 97.4272 130.864 96.6216 129.887 95.816L124.125 91.0607C123.556 90.5911 122.732 91.4013 123.306 91.8755H123.301Z" fill="white"/>
<path d="M125.482 89.9236C127.634 92.3082 129.884 94.6053 132.235 96.7966C133.383 97.8692 134.558 98.9141 135.752 99.9361C136.331 100.429 136.895 100.958 137.511 101.4C138.02 101.768 138.626 101.911 139.122 101.451C139.668 100.944 138.849 100.129 138.302 100.636C138.381 100.562 137.826 100.18 137.715 100.088C137.442 99.8578 137.168 99.6323 136.895 99.3975C136.349 98.9372 135.812 98.4676 135.275 97.9981C134.23 97.0774 133.202 96.1383 132.198 95.1761C130.157 93.2289 128.19 91.208 126.301 89.1134C125.801 88.561 124.987 89.3758 125.482 89.9282V89.9236Z" fill="white"/>
<path d="M130.29 89.4863C132.382 91.2586 134.538 92.9573 136.751 94.5823C137.838 95.3787 138.94 96.1521 140.055 96.9116C141.078 97.6068 142.254 98.6563 143.577 98.5505C144.313 98.4906 144.323 97.3398 143.577 97.3996C142.934 97.4502 142.425 97.105 141.911 96.7643C141.365 96.4053 140.819 96.037 140.277 95.6687C139.227 94.9506 138.186 94.214 137.158 93.4591C135.085 91.9353 133.071 90.3379 131.109 88.6761C130.544 88.1973 129.725 89.0075 130.29 89.4909V89.4863Z" fill="white"/>
<path d="M132.863 87.7232C136.376 91.6223 140.069 95.6549 145.003 97.7587C145.679 98.0487 146.271 97.0543 145.586 96.7643C140.731 94.6974 137.135 90.743 133.682 86.9084C133.182 86.3559 132.368 87.1708 132.863 87.7232Z" fill="white"/>
<path d="M137.839 88.294C139.325 90.7292 141.898 92.3266 144.152 93.9885C145.443 94.9414 146.739 95.8851 148.044 96.8242C148.975 97.4917 150.21 98.6702 151.354 97.7587C151.937 97.2983 151.113 96.4881 150.534 96.9439C150.266 97.1556 149.359 96.3546 149.174 96.2211C148.628 95.8298 148.081 95.4385 147.54 95.0426C146.42 94.2324 145.309 93.4176 144.198 92.5936C142.278 91.1711 140.112 89.7855 138.843 87.7094C138.459 87.0787 137.455 87.6541 137.844 88.2894L137.839 88.294Z" fill="white"/>
<path d="M140.329 87.0142C144.129 90.8949 148.179 94.923 153.539 96.5111C154.256 96.7229 154.561 95.6135 153.844 95.4017C148.688 93.8734 144.8 89.9328 141.149 86.204C140.63 85.6746 139.811 86.4848 140.329 87.0188V87.0142Z" fill="white"/>
<path d="M142.819 86.5401C147.184 91.2724 152.525 95.0795 158.435 97.662C159.111 97.9566 159.698 96.9669 159.018 96.6677C153.186 94.122 147.943 90.3978 143.634 85.7299C143.129 85.1821 142.315 85.9969 142.815 86.5447L142.819 86.5401Z" fill="white"/>
<path d="M145.684 84.068C151.288 87.8797 156.889 91.6913 162.493 95.503C163.109 95.9219 163.688 94.9276 163.077 94.5086C157.472 90.697 151.872 86.8853 146.267 83.0737C145.651 82.6548 145.073 83.6491 145.684 84.068Z" fill="white"/>
<path d="M149.151 82.0103C153.103 85.937 157.19 89.9512 162.364 92.2438C163.04 92.543 163.628 91.5532 162.948 91.2494C157.856 88.9937 153.858 85.0578 149.97 81.1955C149.442 80.6707 148.623 81.4855 149.151 82.0103Z" fill="white"/>
<path d="M151.682 80.8871C155.964 84.579 160.384 88.1053 164.933 91.4658C165.53 91.9077 166.109 90.9088 165.516 90.4714C161.045 87.1708 156.704 83.6998 152.497 80.0723C151.937 79.5889 151.113 80.3991 151.678 80.8871H151.682Z" fill="white"/>
<path d="M154.871 79.8881C157.833 82.6548 161.008 85.1913 164.364 87.47C164.979 87.8889 165.558 86.8946 164.947 86.4756C161.675 84.2476 158.583 81.7709 155.69 79.0733C155.149 78.5669 154.329 79.3771 154.871 79.8881Z" fill="white"/>
<path d="M156.626 78.346C158.884 81.8262 162.189 84.5054 166.054 86.0291C166.748 86.3007 167.049 85.1913 166.359 84.9197C162.786 83.511 159.704 80.9745 157.621 77.7659C157.218 77.1445 156.218 77.7199 156.621 78.346H156.626Z" fill="white"/>
<path d="M158.401 77.7613C160.642 79.1746 162.877 80.5878 165.117 81.9965C165.747 82.3924 166.33 81.3981 165.7 81.0022C163.46 79.5889 161.225 78.1756 158.985 76.767C158.355 76.3711 157.772 77.3654 158.401 77.7613Z" fill="white"/>
<path d="M161.058 75.5148C162.882 77.2227 165.205 78.3828 167.682 78.7741C167.992 78.8247 168.302 78.6958 168.394 78.3736C168.468 78.102 168.302 77.7153 167.992 77.6647C165.705 77.301 163.567 76.2836 161.878 74.7C161.336 74.1937 160.517 75.0039 161.058 75.5148Z" fill="white"/>
</g>
<path d="M1 137.181L0.999999 124" stroke="#FEFEFE" stroke-opacity="0.6"/>
<path fill-rule="evenodd" clip-rule="evenodd" d="M218.873 137.181L218.873 124L217.873 124L217.873 137.181L218.873 137.181ZM217.666 130.092L1.7131 130.092L1.7131 131.092L217.666 131.092L217.666 130.092Z" fill="#FEFEFE" fill-opacity="0.6"/>
<defs>
<clipPath id="clip0_1497_33">
<rect width="219" height="118" fill="white"/>
</clipPath>
</defs>
</svg>
