<svg width="431" height="108" viewBox="0 0 431 108" fill="none" xmlns="http://www.w3.org/2000/svg">
<path d="M198.24 95.4084C199.344 95.0964 200.34 94.6524 201.156 94.0044V101.132C201.156 101.876 201.384 102.656 201.432 102.872V102.92H199.38V102.872C199.428 102.656 199.656 101.876 199.656 101.132V95.6844H198.24V95.4084ZM205.597 103.064C203.509 103.064 202.249 101.072 202.249 98.5644C202.249 96.1044 203.437 94.1604 205.585 94.1604C206.605 94.1604 207.481 94.4604 208.225 94.7844L207.985 96.5604H207.925C207.265 95.5164 206.413 94.6164 205.585 94.6164C204.277 94.6164 203.893 96.4284 203.941 98.6964C204.421 97.9644 205.249 97.5564 206.125 97.5564C207.673 97.5564 208.717 98.7204 208.717 100.208C208.717 101.912 207.301 103.064 205.597 103.064ZM205.597 102.596C206.473 102.596 207.121 101.732 207.121 100.52C207.121 99.3324 206.545 98.2284 205.513 98.2404C205.021 98.2404 204.409 98.4804 203.965 99.2004C204.097 101.144 204.589 102.596 205.597 102.596ZM212.803 103.016C210.847 103.016 209.323 101.216 209.323 98.5644C209.323 95.9844 210.847 94.1844 212.803 94.1844C214.759 94.1844 216.295 95.9844 216.295 98.5644C216.295 101.216 214.759 103.016 212.803 103.016ZM212.803 102.524C214.135 102.524 214.603 100.508 214.603 98.5524C214.603 96.6324 214.123 94.6764 212.803 94.6764C211.471 94.6764 211.015 96.7164 211.015 98.5764C211.015 100.556 211.483 102.524 212.803 102.524ZM219.734 103.028C218.246 103.028 216.842 101.972 216.842 99.9204C216.842 97.9644 218.078 96.8484 219.782 96.8484C220.682 96.8484 221.45 97.1844 221.966 97.4124L221.978 99.0204H221.93C221.51 98.3244 220.73 97.2804 219.818 97.2804C218.834 97.2804 218.378 98.3484 218.378 99.5484C218.39 101.036 219.05 102.068 220.358 102.068C220.886 102.068 221.534 101.9 222.218 101.324L222.254 101.348C221.882 102.248 220.982 103.028 219.734 103.028ZM224.81 102.872V102.92H222.866V102.872C222.914 102.656 223.142 101.876 223.142 101.132V98.7084C223.142 97.9524 222.914 97.1844 222.866 96.9564V96.9204H224.534V97.8444C225.014 97.2204 225.578 96.8484 226.334 96.8484C227.066 96.8484 227.75 97.1964 228.038 97.9884C228.53 97.2804 229.13 96.8484 229.946 96.8484C230.906 96.8484 231.782 97.4484 231.782 98.8764V101.132C231.782 101.876 232.01 102.656 232.058 102.872V102.92H230.114V102.872C230.162 102.656 230.39 101.876 230.39 101.132V99.0564C230.39 98.1564 229.814 97.7844 229.214 97.7844C228.842 97.7844 228.494 97.9524 228.11 98.2644C228.158 98.4444 228.182 98.6484 228.182 98.8764V101.132C228.182 101.876 228.41 102.656 228.458 102.872V102.92H226.502V102.872C226.55 102.656 226.778 101.876 226.778 101.132V99.0564C226.778 98.1564 226.19 97.7844 225.59 97.7844C225.23 97.7844 224.882 97.9404 224.534 98.2284V101.132C224.534 101.876 224.762 102.656 224.81 102.872Z" fill="white"/>
<g clip-path="url(#clip0_1484_27)">
<path d="M90.3804 10.9767L384.197 20.8038L229.087 24.7316L159.941 23.4839L100.908 21.2787C98.7647 20.1931 96.4197 19.7785 94.029 19.6013C91.1937 19.3902 88.3584 19.1339 85.5193 18.9454C82.969 18.7758 80.4111 18.6891 77.857 18.5308C76.295 18.4365 74.7367 18.2292 73.1708 18.1651C72.1712 18.1274 71.1602 18.2028 70.1682 18.3272C68.1044 18.5835 66.0559 18.4554 64.0377 18.0671C61.7421 17.6261 59.4274 17.5281 57.1052 17.4414C52.3201 17.2605 47.5693 17.758 42.807 18.0671C41.2791 18.1689 39.7512 18.233 38.2195 18.3159C34.5518 18.5232 30.888 18.7381 27.2203 18.9379C25.0615 19.0547 22.8989 19.0849 20.7477 19.2696C17.5855 19.5372 14.4309 19.835 11.2535 19.7559C10.5504 19.737 9.84728 19.688 9.14795 19.7257C8.64246 19.7521 8.14837 19.9142 7.64288 19.9971C7.43384 20.031 7.18299 20.0989 7.01196 20.0197C5.95156 19.5259 4.81515 19.7408 3.71675 19.6277C3.02122 19.5561 2.31429 19.5674 1.61116 19.5335C1.10187 19.5071 0.782608 19.247 0.634381 18.7569C0.558367 18.5044 0.455748 18.2518 0.318923 18.0257C0.0718772 17.6148 0.189699 17.3434 0.554566 17.072C1.73658 16.2012 3.10104 15.7715 4.5263 15.681C6.91314 15.5303 9.30758 15.4813 11.702 15.4398C15.6472 15.3719 19.5961 15.3908 23.5412 15.2852C27.0151 15.191 30.4851 15.0063 33.9513 14.8103C37.1325 14.6294 40.3099 14.422 43.4835 14.1506C48.128 13.7511 52.8066 13.5965 57.3941 12.7145C59.2222 12.3639 61.0085 11.7721 62.7911 11.2142C64.6648 10.6299 66.5196 9.93259 68.4921 9.84212C69.7007 9.78558 70.9284 9.9552 72.1332 10.1286C73.6193 10.3435 75.1015 10.2869 76.5914 10.2756C79.2785 10.253 81.9656 10.2228 84.6489 10.2831C85.8271 10.3095 87.0015 10.547 88.1684 10.7996L98.206 11.5987C98.206 11.5987 196.743 14.9799 212.204 15.3682C218.84 15.534 225.476 15.5793 232.112 15.6584L298.701 14.2034C309.54 14.3014 320.387 14.422 331.208 15.1005C342.01 15.7791 352.743 17.2378 363.518 18.2179C370.291 18.8323 379.591 20.1667 386.364 20.7812M4.81515 19.3073C3.67874 18.7796 2.50813 18.5685 1.31851 18.4365C1.21969 18.4252 1.03345 18.5157 1.02205 18.5798C0.995448 18.7192 1.01065 18.9416 1.09807 19.0095C1.2843 19.149 1.52755 19.2847 1.74799 19.2922C2.74757 19.3224 3.75096 19.3035 4.81135 19.3035L4.81515 19.3073Z" stroke="white" stroke-miterlimit="10"/>
<path d="M379.907 51.8681C387.36 44.2726 396.55 43.432 406.645 43.2435C412.08 43.1417 421.631 44.887 426.207 41.1929C441.623 28.7498 402.996 21.192 397.022 21.1129C273.89 19.4392 199.492 30.2275 78.4886 17.9314C76.1664 17.6939 73.2398 14.8895 75.3606 13.9169C74.5815 17.841 69.3099 18.5835 65.2773 18.4177" stroke="white" stroke-miterlimit="10"/>
<path d="M78.4728 17.6223C80.0349 17.6864 81.6008 17.709 83.1591 17.6412C84.5121 17.5809 85.6486 16.8307 86.7622 16.1598C87.6895 15.6019 88.5181 14.8819 89.3504 14.1846C89.5177 14.0451 89.6089 13.6455 89.5329 13.4344C89.4759 13.2686 89.1224 13.163 88.8829 13.1103C88.6435 13.0575 88.3775 13.0839 88.1304 13.1103C84.915 13.4608 81.6996 13.8152 78.4842 14.177C77.8685 14.2449 77.2604 14.3542 76.5801 14.4522" stroke="white" stroke-miterlimit="10"/>
<path d="M64.8015 12.2244C63.9274 12.2621 63.2204 12.5373 62.6389 13.0839C62.0498 13.6342 61.9206 14.3806 62.3159 15.0817C62.81 15.9675 63.5891 16.4915 64.6115 16.5443C65.6719 16.597 66.5384 16.1673 67.139 15.289C67.519 14.7349 67.5 14.1393 67.1618 13.5739C66.6183 12.6692 65.7593 12.296 64.8015 12.2207V12.2244Z" stroke="white" stroke-miterlimit="10"/>
<path d="M2.14746 17.2341H4.93338C4.006 16.9664 3.07863 16.9061 2.14746 17.2341Z" stroke="white" stroke-miterlimit="10"/>
<path d="M4.81553 19.3073C3.75513 19.3073 2.75174 19.3224 1.75216 19.296C1.52792 19.2884 1.28467 19.1527 1.10224 19.0133C1.01102 18.9454 0.999621 18.723 1.02623 18.5835C1.03763 18.5157 1.22386 18.429 1.32268 18.4403C2.5123 18.5722 3.68292 18.7833 4.81933 19.3111L4.81553 19.3073Z" stroke="white" stroke-miterlimit="10"/>
<path d="M76.2158 17.0305C76.8619 16.1447 76.9874 15.6433 76.5769 14.4597C77.2572 14.3617 77.8653 14.2524 78.481 14.1846C81.6964 13.8227 84.9118 13.4684 88.1272 13.1178C88.3781 13.0914 88.6403 13.065 88.8798 13.1178C89.1192 13.1706 89.4727 13.2761 89.5297 13.442C89.6019 13.6531 89.5145 14.0489 89.3472 14.1921C88.5149 14.8895 87.6825 15.6094 86.759 16.1673C85.6454 16.8383 84.509 17.5884 83.1559 17.6487C81.5976 17.7166 80.0279 17.7166 78.4696 17.6299C77.5005 17.5771 77.2078 17.1549 76.2158 17.0381V17.0305Z" stroke="white" stroke-miterlimit="10"/>
<path d="M64.8018 12.2244C65.7595 12.2961 66.6185 12.673 67.162 13.5777C67.5003 14.1431 67.5193 14.7387 67.1392 15.2928C66.5387 16.1748 65.6683 16.6008 64.6117 16.548C63.5893 16.4953 62.8102 15.9713 62.3161 15.0855C61.9246 14.3806 62.0538 13.6342 62.6392 13.0876C63.2245 12.5411 63.9314 12.2621 64.8018 12.2282V12.2244ZM65.121 14.8857C65.7633 14.8819 66.0066 14.701 66.0104 14.226C66.018 13.5928 65.2426 13.393 64.7333 13.4005C64.1822 13.4043 63.8592 13.7473 63.8592 14.324C63.8592 14.8216 64.5851 14.8895 65.121 14.8857Z" stroke="white" stroke-miterlimit="10"/>
<path d="M2.14746 17.2341C3.07863 16.9061 4.006 16.9664 4.93338 17.2341H2.14746Z" stroke="white" stroke-miterlimit="10"/>
<path d="M77.5156 14.9573C77.7665 14.897 78.0173 14.8028 78.272 14.7801C80.389 14.603 82.5059 14.4333 84.6229 14.2788C85.7974 14.1921 86.9756 14.1469 88.2488 14.0752C87.9866 14.6482 87.5875 14.799 87.1656 14.8367C86.3599 14.9121 85.5503 14.9686 84.7408 14.9875C83.0342 15.0289 81.3239 15.0478 79.6174 15.0704C78.9333 15.0779 78.253 15.0704 77.5688 15.0704C77.5498 15.0327 77.5346 14.9912 77.5156 14.9535V14.9573Z" stroke="white" stroke-miterlimit="10"/>
<path d="M86.4999 15.3833C86.2376 15.8243 85.8538 16.0731 85.4357 16.0655C82.8246 16.0014 80.2173 15.8959 77.61 15.8017C77.5112 15.8017 77.4162 15.7564 77.3174 15.73C77.3174 15.6848 77.3174 15.6358 77.3174 15.5906C80.3503 15.5227 83.3871 15.4549 86.4961 15.387L86.4999 15.3833Z" stroke="white" stroke-miterlimit="10"/>
<path d="M84.0717 16.842C83.4446 16.9401 82.8136 17.1323 82.1903 17.1097C80.5598 17.0531 78.9331 16.9024 77.3064 16.7742C77.2038 16.7667 77.1126 16.631 77.0176 16.5556C77.0974 16.5066 77.1734 16.4161 77.2494 16.4161C79.5184 16.4953 81.7875 16.582 84.0565 16.6686L84.0717 16.8383V16.842Z" stroke="white" stroke-miterlimit="10"/>
<path d="M65.1212 14.8819C64.5853 14.8819 63.8594 14.8178 63.8594 14.3203C63.8594 13.7435 64.1824 13.4005 64.7335 13.3967C65.2428 13.393 66.0144 13.5928 66.0106 14.2223C66.0068 14.6972 65.7635 14.8781 65.1212 14.8819ZM65.2048 14.7688C65.3873 14.5012 65.5355 14.3693 65.5659 14.2147C65.5849 14.128 65.4139 14.0036 65.3264 13.8943C65.2048 14.0149 65.0376 14.1167 64.973 14.2637C64.9388 14.3466 65.0756 14.5012 65.201 14.7726L65.2048 14.7688Z" stroke="white" stroke-miterlimit="10"/>
<path d="M65.2052 14.7688C65.076 14.5012 64.9391 14.3466 64.9772 14.26C65.038 14.1129 65.2052 14.0112 65.3306 13.8905C65.4142 13.9999 65.5853 14.1242 65.5701 14.2109C65.5397 14.3655 65.3952 14.4974 65.209 14.7651L65.2052 14.7688Z" stroke="white" stroke-miterlimit="10"/>
<path d="M290.298 14.4032C290.298 14.4032 308.176 0.93483 314.448 0.188473" stroke="white" stroke-miterlimit="10"/>
<path d="M289.115 23.171C289.115 23.171 308.123 39.2101 311.885 38.3356" stroke="white" stroke-miterlimit="10"/>
<path d="M359.565 18.3611C359.565 18.3611 373.845 7.27887 384.882 6.96223" stroke="white" stroke-miterlimit="10"/>
<path d="M359.23 20.9206C359.23 20.9206 376.535 41.0497 375.604 35.6405" stroke="white" stroke-miterlimit="10"/>
<path d="M362.024 20.9244C362.024 20.9244 371.138 32.5231 376 33.7029" stroke="white" stroke-miterlimit="10"/>
<path d="M365.791 20.9244C365.791 20.9244 373.187 30.1822 376.589 31.2264" stroke="white" stroke-miterlimit="10"/>
<path d="M369.994 20.9244C369.994 20.9244 373.137 26.5786 377.215 28.976" stroke="white" stroke-miterlimit="10"/>
<path d="M373.605 20.9244C373.605 20.9244 376.277 25.0859 378.28 25.8549" stroke="white" stroke-miterlimit="10"/>
<path d="M377.216 20.8302C377.216 20.8302 378.067 22.6734 379.606 23.0579" stroke="white" stroke-miterlimit="10"/>
<path d="M362.462 18.5911C362.462 18.5911 379.721 8.08177 384.278 8.73389" stroke="white" stroke-miterlimit="10"/>
<path d="M366.878 18.9002C366.878 18.9002 380.766 11.3574 383.457 11.316" stroke="white" stroke-miterlimit="10"/>
<path d="M371.191 19.2206C371.191 19.2206 381.757 13.8491 382.723 13.9433" stroke="white" stroke-miterlimit="10"/>
<path d="M376 19.6352C376 19.6352 380.983 16.646 382.153 16.4689" stroke="white" stroke-miterlimit="10"/>
<path d="M293.068 14.0413C293.068 14.0413 313.356 -0.233709 317.514 1.67742" stroke="white" stroke-miterlimit="10"/>
<path d="M296.622 14.1657C296.622 14.1657 314.037 2.8045 318.396 3.69032" stroke="white" stroke-miterlimit="10"/>
<path d="M301.263 14.1657C301.263 14.1657 316.017 5.79369 319.077 6.29126" stroke="white" stroke-miterlimit="10"/>
<path d="M306.519 14.1657C306.519 14.1657 317.685 8.2137 319.061 8.66981" stroke="white" stroke-miterlimit="10"/>
<path d="M311.312 14.2863C311.312 14.2863 317.222 10.2945 319.061 10.7543" stroke="white" stroke-miterlimit="10"/>
<path d="M293.129 23.0127C293.129 23.0127 309.438 36.334 314.295 35.9156" stroke="white" stroke-miterlimit="10"/>
<path d="M297.086 23.0127C297.086 23.0127 312.296 33.7256 315.341 33.7482" stroke="white" stroke-miterlimit="10"/>
<path d="M300.932 22.8732C300.932 22.8732 314.071 31.396 315.762 31.396" stroke="white" stroke-miterlimit="10"/>
<path d="M305.6 22.7903C305.6 22.7903 314.55 29.2059 316.93 29.1155" stroke="white" stroke-miterlimit="10"/>
<path d="M309.757 22.7903C309.757 22.7903 315.846 27.0837 317.503 27.0272" stroke="white" stroke-miterlimit="10"/>
<path d="M111.486 12.8087C111.323 12.8313 111.163 12.8766 111.011 12.9331C110.654 13.0688 110.038 13.491 110.358 13.9207C110.677 14.3504 112.212 13.9132 112.585 13.7963C112.668 13.7699 112.756 13.7398 112.817 13.6757C113.003 13.4834 112.82 13.1555 112.592 13.0085C112.269 12.8012 111.87 12.7522 111.483 12.8087H111.486Z" stroke="white" stroke-miterlimit="10"/>
<path d="M116.803 13.2723C116.746 13.3327 116.685 13.393 116.632 13.4646C116.586 13.5211 116.541 13.589 116.533 13.6606C116.518 13.834 116.704 13.9509 116.868 14.0074C117.525 14.2336 118.278 14.1619 118.878 13.8114C118.931 13.7812 118.985 13.7473 119.004 13.6908C119.026 13.6229 118.988 13.5513 118.95 13.491C118.445 12.6843 117.472 12.6089 116.803 13.2723Z" stroke="white" stroke-miterlimit="10"/>
<path d="M229.288 17.0079C229.231 17.0682 229.17 17.1285 229.117 17.2001C229.072 17.2567 229.026 17.3245 229.018 17.3962C229.003 17.5696 229.189 17.6864 229.353 17.7429C230.01 17.9691 230.763 17.8975 231.363 17.5469C231.417 17.5168 231.47 17.4829 231.489 17.4263C231.512 17.3585 231.474 17.2868 231.436 17.2265C230.93 16.4199 229.957 16.3445 229.288 17.0079Z" stroke="white" stroke-miterlimit="10"/>
<path d="M252.499 16.6762C252.442 16.7365 252.381 16.7968 252.328 16.8684C252.283 16.925 252.237 16.9928 252.229 17.0644C252.214 17.2378 252.4 17.3547 252.564 17.4112C253.221 17.6374 253.974 17.5658 254.574 17.2152C254.628 17.1851 254.681 17.1511 254.7 17.0946C254.723 17.0267 254.685 16.9551 254.647 16.8948C254.141 16.0881 253.168 16.0128 252.499 16.6762Z" stroke="white" stroke-miterlimit="10"/>
<path d="M209.62 16.9024C209.563 16.9627 209.503 17.023 209.449 17.0946C209.404 17.1511 209.358 17.219 209.35 17.2906C209.335 17.464 209.522 17.5809 209.685 17.6374C210.342 17.8636 211.095 17.792 211.696 17.4414C211.749 17.4112 211.802 17.3773 211.821 17.3208C211.844 17.2529 211.806 17.1813 211.768 17.121C211.262 16.3143 210.289 16.2389 209.62 16.9024Z" stroke="white" stroke-miterlimit="10"/>
<path d="M197.238 16.4462C197.181 16.5066 197.12 16.5669 197.066 16.6385C197.021 16.695 196.975 16.7629 196.968 16.8345C196.952 17.0079 197.139 17.1248 197.302 17.1813C197.96 17.4075 198.712 17.3358 199.313 16.9853C199.366 16.9551 199.419 16.9212 199.438 16.8647C199.461 16.7968 199.423 16.7252 199.385 16.6649C198.879 15.8582 197.906 15.7828 197.238 16.4462Z" stroke="white" stroke-miterlimit="10"/>
<path d="M217.438 17.0079C217.381 17.0682 217.32 17.1285 217.267 17.2001C217.221 17.2567 217.175 17.3245 217.168 17.3962C217.153 17.5696 217.339 17.6864 217.502 17.7429C218.16 17.9691 218.912 17.8975 219.513 17.5469C219.566 17.5168 219.619 17.4829 219.638 17.4263C219.661 17.3585 219.623 17.2868 219.585 17.2265C219.08 16.4199 218.107 16.3445 217.438 17.0079Z" stroke="white" stroke-miterlimit="10"/>
<path d="M122.725 13.4344C122.337 13.2686 121.82 13.1819 121.516 13.3176C121.436 13.3515 121.352 13.4043 121.322 13.4834C121.273 13.6229 121.406 13.7586 121.535 13.8378C121.847 14.03 122.531 14.2411 122.892 14.1431C123.5 13.9772 123.215 13.6418 122.725 13.4307V13.4344Z" stroke="white" stroke-miterlimit="10"/>
<path d="M161.066 14.5238C160.679 14.358 160.162 14.2713 159.858 14.407C159.778 14.4409 159.694 14.4937 159.664 14.5728C159.614 14.7123 159.747 14.848 159.877 14.9271C160.188 15.1194 160.873 15.3305 161.234 15.2325C161.842 15.0666 161.557 14.7311 161.066 14.52V14.5238Z" stroke="white" stroke-miterlimit="10"/>
<path d="M191.639 15.7941C191.251 15.6283 190.734 15.5416 190.43 15.6773C190.35 15.7112 190.267 15.764 190.236 15.8431C190.187 15.9826 190.32 16.1183 190.449 16.1975C190.761 16.3897 191.445 16.6008 191.806 16.5028C192.414 16.3369 192.129 16.0014 191.639 15.7904V15.7941Z" stroke="white" stroke-miterlimit="10"/>
<path d="M149.816 14.4484C149.429 14.2826 148.912 14.1959 148.608 14.3316C148.528 14.3655 148.444 14.4183 148.414 14.4974C148.364 14.6369 148.497 14.7726 148.627 14.8518C148.938 15.044 149.623 15.2551 149.984 15.1571C150.592 14.9912 150.307 14.6557 149.816 14.4447V14.4484Z" stroke="white" stroke-miterlimit="10"/>
<path d="M107.45 12.8049C107.062 12.6391 106.546 12.5524 106.242 12.6881C106.162 12.722 106.078 12.7748 106.048 12.8539C105.998 12.9934 106.131 13.1291 106.261 13.2083C106.572 13.4005 107.256 13.6116 107.617 13.5136C108.225 13.3477 107.94 13.0123 107.45 12.8012V12.8049Z" stroke="white" stroke-miterlimit="10"/>
<path d="M177.736 15.1382C177.349 14.9724 176.832 14.8857 176.528 15.0214C176.448 15.0553 176.364 15.1081 176.334 15.1872C176.284 15.3267 176.417 15.4624 176.547 15.5416C176.858 15.7338 177.542 15.9449 177.903 15.8469C178.512 15.681 178.227 15.3456 177.736 15.1345V15.1382Z" stroke="white" stroke-miterlimit="10"/>
<path d="M130.296 13.5588C129.372 13.7171 129.874 14.3353 130.516 14.5841C130.835 14.7085 131.227 14.6784 131.481 14.4522C131.561 14.3806 131.626 14.2901 131.641 14.1846C131.668 14.0112 131.554 13.834 131.405 13.7398C131.094 13.54 130.676 13.4947 130.296 13.5588Z" stroke="white" stroke-miterlimit="10"/>
<path d="M135.233 13.4759C134.309 13.6342 134.811 14.2524 135.453 14.5012C135.773 14.6256 136.164 14.5954 136.419 14.3693C136.499 14.2976 136.563 14.2072 136.578 14.1016C136.605 13.9282 136.491 13.7511 136.343 13.6568C136.031 13.4571 135.613 13.4118 135.233 13.4759Z" stroke="white" stroke-miterlimit="10"/>
<path d="M165.361 14.848C164.437 15.0063 164.939 15.6245 165.581 15.8733C165.901 15.9977 166.292 15.9675 166.547 15.7414C166.627 15.6697 166.691 15.5793 166.706 15.4737C166.733 15.3003 166.619 15.1232 166.471 15.0289C166.159 14.8291 165.741 14.7839 165.361 14.848Z" stroke="white" stroke-miterlimit="10"/>
<path d="M182.206 15.338C181.282 15.4963 181.784 16.1145 182.426 16.3633C182.745 16.4877 183.137 16.4576 183.392 16.2314C183.471 16.1598 183.536 16.0693 183.551 15.9638C183.578 15.7904 183.464 15.6132 183.316 15.519C183.004 15.3192 182.586 15.2739 182.206 15.338Z" stroke="white" stroke-miterlimit="10"/>
<path d="M171.096 15.1872C170.173 15.3456 170.674 15.9638 171.317 16.2125C171.636 16.3369 172.027 16.3068 172.282 16.0806C172.362 16.009 172.427 15.9185 172.442 15.813C172.468 15.6396 172.354 15.4624 172.206 15.3682C171.894 15.1684 171.476 15.1232 171.096 15.1872Z" stroke="white" stroke-miterlimit="10"/>
<path d="M203.972 16.6837C203.049 16.842 203.55 17.4602 204.193 17.709C204.512 17.8334 204.903 17.8033 205.158 17.5771C205.238 17.5055 205.303 17.415 205.318 17.3095C205.344 17.1361 205.23 16.9589 205.082 16.8647C204.77 16.6649 204.352 16.6196 203.972 16.6837Z" stroke="white" stroke-miterlimit="10"/>
<path d="M139.915 14.6934C140.006 14.7462 140.124 14.7877 140.257 14.799C140.535 14.8216 140.77 14.701 140.926 14.5841C141.105 14.4522 141.253 14.2788 141.093 14.1431C141.025 14.0866 140.911 14.0451 140.786 14.0187C140.485 13.9509 140.105 13.9622 139.858 14.0715C139.554 14.2034 139.623 14.5238 139.911 14.6934H139.915Z" stroke="white" stroke-miterlimit="10"/>
<path d="M155.133 15.3079C155.224 15.3606 155.342 15.4021 155.475 15.4134C155.753 15.436 155.988 15.3154 156.144 15.1985C156.323 15.0666 156.471 14.8932 156.311 14.7575C156.243 14.701 156.129 14.6595 156.003 14.6331C155.703 14.5653 155.323 14.5766 155.076 14.6859C154.772 14.8178 154.84 15.1382 155.129 15.3079H155.133Z" stroke="white" stroke-miterlimit="10"/>
<path d="M143.963 14.8781C144.054 14.9309 144.172 14.9724 144.305 14.9837C144.583 15.0063 144.818 14.8857 144.974 14.7688C145.153 14.6369 145.301 14.4635 145.141 14.3278C145.073 14.2713 144.959 14.2298 144.833 14.2034C144.533 14.1356 144.153 14.1469 143.906 14.2562C143.602 14.3881 143.67 14.7085 143.959 14.8781H143.963Z" stroke="white" stroke-miterlimit="10"/>
<path d="M126.229 14.2223C126.32 14.275 126.438 14.3165 126.571 14.3278C126.848 14.3504 127.084 14.2298 127.24 14.1129C127.418 13.981 127.567 13.8076 127.407 13.6719C127.339 13.6154 127.224 13.5739 127.099 13.5475C126.799 13.4797 126.419 13.491 126.172 13.6003C125.868 13.7322 125.936 14.0526 126.225 14.2223H126.229Z" stroke="white" stroke-miterlimit="10"/>
<path d="M71.2978 10.5583C71.1344 10.5809 70.9748 10.6262 70.8228 10.6827C70.4655 10.8184 69.8498 11.2406 70.169 11.6703C70.4883 12.1 72.0238 11.6628 72.3962 11.5459C72.4799 11.5195 72.5673 11.4894 72.6281 11.4253C72.8143 11.2331 72.6319 10.9051 72.4039 10.7581C72.0808 10.5508 71.6817 10.5018 71.294 10.5583H71.2978Z" stroke="white" stroke-miterlimit="10"/>
<path d="M76.5461 11.4328C76.4891 11.4932 76.4283 11.5535 76.3751 11.6251C76.3295 11.6816 76.2839 11.7495 76.2763 11.8211C76.2611 11.9945 76.4473 12.1113 76.6107 12.1679C77.2682 12.3941 78.0208 12.3224 78.6213 11.9719C78.6745 11.9417 78.7277 11.9078 78.7467 11.8513C78.7695 11.7834 78.7315 11.7118 78.6935 11.6515C78.188 10.8448 77.215 10.7694 76.5461 11.4328Z" stroke="white" stroke-miterlimit="10"/>
<path d="M318.666 16.5179C318.609 16.5782 318.548 16.6385 318.495 16.7101C318.45 16.7667 318.404 16.8345 318.396 16.9061C318.381 17.0795 318.567 17.1964 318.731 17.2529C319.388 17.4791 320.141 17.4075 320.741 17.0569C320.795 17.0267 320.848 16.9928 320.867 16.9363C320.89 16.8684 320.852 16.7968 320.814 16.7365C320.308 15.9298 319.335 15.8544 318.666 16.5179Z" stroke="white" stroke-miterlimit="10"/>
<path d="M311.824 15.9336C311.767 15.9939 311.707 16.0542 311.653 16.1258C311.608 16.1824 311.562 16.2502 311.555 16.3219C311.539 16.4953 311.726 16.6121 311.889 16.6686C312.547 16.8948 313.299 16.8232 313.9 16.4726C313.953 16.4425 314.006 16.4086 314.025 16.352C314.048 16.2842 314.01 16.2125 313.972 16.1522C313.466 15.3456 312.493 15.2702 311.824 15.9336Z" stroke="white" stroke-miterlimit="10"/>
<path d="M84.5234 11.0559C84.1357 10.89 83.6188 10.8033 83.3147 10.939C83.2349 10.973 83.1513 11.0257 83.1209 11.1049C83.0715 11.2444 83.2045 11.3801 83.3337 11.4592C83.6454 11.6515 84.3295 11.8626 84.6906 11.7646C85.2987 11.5987 85.0137 11.2632 84.5234 11.0521V11.0559Z" stroke="white" stroke-miterlimit="10"/>
<path d="M294.277 15.2589C293.89 15.093 293.373 15.0063 293.069 15.142C292.989 15.1759 292.905 15.2287 292.875 15.3079C292.825 15.4473 292.958 15.583 293.088 15.6622C293.399 15.8544 294.083 16.0655 294.445 15.9675C295.053 15.8017 294.768 15.4662 294.277 15.2551V15.2589Z" stroke="white" stroke-miterlimit="10"/>
<path d="M235.351 16.9401C234.963 16.7742 234.446 16.6875 234.142 16.8232C234.062 16.8571 233.978 16.9099 233.948 16.9891C233.899 17.1285 234.032 17.2642 234.161 17.3434C234.473 17.5356 235.157 17.7467 235.518 17.6487C236.126 17.4829 235.841 17.1474 235.351 16.9363V16.9401Z" stroke="white" stroke-miterlimit="10"/>
<path d="M245.696 17.3999C245.309 17.2341 244.792 17.1474 244.488 17.2831C244.408 17.317 244.324 17.3698 244.294 17.4489C244.244 17.5884 244.377 17.7241 244.507 17.8033C244.818 17.9955 245.502 18.2066 245.863 18.1086C246.472 17.9427 246.187 17.6073 245.696 17.3962V17.3999Z" stroke="white" stroke-miterlimit="10"/>
<path d="M262.139 15.7866C261.751 15.6207 261.234 15.534 260.93 15.6697C260.85 15.7037 260.767 15.7564 260.736 15.8356C260.687 15.9751 260.82 16.1108 260.949 16.1899C261.261 16.3822 261.945 16.5933 262.306 16.4953C262.914 16.3294 262.629 15.9939 262.139 15.7828V15.7866Z" stroke="white" stroke-miterlimit="10"/>
<path d="M225.279 17.0682C224.892 16.9024 224.375 16.8157 224.071 16.9514C223.991 16.9853 223.907 17.0381 223.877 17.1172C223.827 17.2567 223.96 17.3924 224.09 17.4715C224.401 17.6638 225.085 17.8749 225.446 17.7769C226.055 17.611 225.77 17.2755 225.279 17.0644V17.0682Z" stroke="white" stroke-miterlimit="10"/>
<path d="M326.07 16.4802C325.683 16.3143 325.166 16.2276 324.862 16.3633C324.782 16.3972 324.698 16.45 324.668 16.5292C324.618 16.6686 324.751 16.8043 324.881 16.8835C325.192 17.0758 325.876 17.2868 326.237 17.1888C326.846 17.023 326.561 16.6875 326.07 16.4764V16.4802Z" stroke="white" stroke-miterlimit="10"/>
<path d="M94.0866 11.7608C93.163 11.9191 93.6647 12.5373 94.307 12.7861C94.6263 12.9105 95.0177 12.8803 95.2724 12.6542C95.3522 12.5825 95.4168 12.4921 95.432 12.3865C95.4586 12.2131 95.3446 12.036 95.1964 11.9417C94.8847 11.7419 94.4666 11.6967 94.0866 11.7608Z" stroke="white" stroke-miterlimit="10"/>
<path d="M283.567 14.8178C282.643 14.9762 283.145 15.5943 283.787 15.8431C284.107 15.9675 284.498 15.9374 284.753 15.7112C284.833 15.6396 284.897 15.5491 284.912 15.4436C284.939 15.2702 284.825 15.093 284.677 14.9988C284.365 14.799 283.947 14.7538 283.567 14.8178Z" stroke="white" stroke-miterlimit="10"/>
<path d="M305.177 15.6094C304.254 15.7677 304.756 16.3859 305.398 16.6347C305.717 16.7591 306.109 16.729 306.363 16.5028C306.443 16.4312 306.508 16.3407 306.523 16.2352C306.549 16.0618 306.435 15.8846 306.287 15.7904C305.976 15.5906 305.557 15.5453 305.177 15.6094Z" stroke="white" stroke-miterlimit="10"/>
<path d="M272.989 15.534C272.065 15.6924 272.567 16.3105 273.209 16.5593C273.529 16.6837 273.92 16.6536 274.175 16.4274C274.255 16.3558 274.319 16.2653 274.334 16.1598C274.361 15.9864 274.247 15.8092 274.099 15.715C273.787 15.5152 273.369 15.47 272.989 15.534Z" stroke="white" stroke-miterlimit="10"/>
<path d="M299.309 15.6094C298.386 15.7677 298.887 16.3859 299.53 16.6347C299.849 16.7591 300.24 16.729 300.495 16.5028C300.575 16.4312 300.639 16.3407 300.655 16.2352C300.681 16.0618 300.567 15.8846 300.419 15.7904C300.107 15.5906 299.689 15.5453 299.309 15.6094Z" stroke="white" stroke-miterlimit="10"/>
<path d="M330.54 16.6837C329.616 16.842 330.118 17.4602 330.76 17.709C331.079 17.8334 331.471 17.8033 331.725 17.5771C331.805 17.5055 331.87 17.415 331.885 17.3095C331.912 17.1361 331.798 16.9589 331.649 16.8647C331.338 16.6649 330.92 16.6196 330.54 16.6837Z" stroke="white" stroke-miterlimit="10"/>
<path d="M288.249 16.0354C288.34 16.0881 288.458 16.1296 288.591 16.1409C288.869 16.1635 289.104 16.0429 289.26 15.9261C289.439 15.7941 289.587 15.6207 289.427 15.485C289.359 15.4285 289.245 15.387 289.12 15.3606C288.819 15.2928 288.439 15.3041 288.192 15.4134C287.888 15.5453 287.957 15.8657 288.245 16.0354H288.249Z" stroke="white" stroke-miterlimit="10"/>
<path d="M278.42 16.2502C278.511 16.303 278.629 16.3445 278.762 16.3558C279.04 16.3784 279.275 16.2578 279.431 16.1409C279.61 16.009 279.758 15.8356 279.598 15.6999C279.53 15.6433 279.416 15.6019 279.29 15.5755C278.99 15.5076 278.61 15.519 278.363 15.6283C278.059 15.7602 278.127 16.0806 278.416 16.2502H278.42Z" stroke="white" stroke-miterlimit="10"/>
<path d="M265.939 16.9589C266.03 17.0117 266.148 17.0531 266.281 17.0644C266.558 17.0871 266.794 16.9664 266.95 16.8496C267.128 16.7177 267.277 16.5443 267.117 16.4086C267.048 16.352 266.934 16.3105 266.809 16.2842C266.509 16.2163 266.129 16.2276 265.882 16.3369C265.578 16.4689 265.646 16.7893 265.935 16.9589H265.939Z" stroke="white" stroke-miterlimit="10"/>
<path d="M239.577 17.3698C239.669 17.4225 239.786 17.464 239.919 17.4753C240.197 17.4979 240.432 17.3773 240.588 17.2605C240.767 17.1285 240.915 16.9551 240.756 16.8194C240.687 16.7629 240.573 16.7214 240.448 16.695C240.147 16.6272 239.767 16.6385 239.52 16.7478C239.216 16.8797 239.285 17.2001 239.574 17.3698H239.577Z" stroke="white" stroke-miterlimit="10"/>
<path d="M102.357 13.1668C102.448 13.2196 102.566 13.261 102.699 13.2723C102.976 13.295 103.212 13.1743 103.368 13.0575C103.546 12.9256 103.694 12.7522 103.535 12.6165C103.466 12.5599 103.352 12.5184 103.227 12.4921C102.927 12.4242 102.547 12.4355 102.3 12.5448C101.996 12.6768 102.064 12.9972 102.353 13.1668H102.357Z" stroke="white" stroke-miterlimit="10"/>
<path d="M13.7892 16.7214C13.8805 16.7742 13.9983 16.8157 14.1313 16.827C14.4088 16.8496 14.6444 16.729 14.8002 16.6121C14.9789 16.4802 15.1271 16.3068 14.9675 16.1711C14.8991 16.1145 14.785 16.0731 14.6596 16.0467C14.3593 15.9788 13.9793 15.9901 13.7322 16.0995C13.4282 16.2314 13.4966 16.5518 13.7854 16.7214H13.7892Z" stroke="white" stroke-miterlimit="10"/>
<path d="M19.5168 16.5329C19.608 16.5857 19.7258 16.6272 19.8588 16.6385C20.1363 16.6611 20.3719 16.5405 20.5278 16.4236C20.7064 16.2917 20.8546 16.1183 20.695 15.9826C20.6266 15.9261 20.5126 15.8846 20.3871 15.8582C20.0869 15.7904 19.7068 15.8017 19.4598 15.911C19.1557 16.0429 19.2241 16.3633 19.513 16.5329H19.5168Z" stroke="white" stroke-miterlimit="10"/>
<path d="M42.0666 15.3833C42.1578 15.436 42.2756 15.4775 42.4087 15.4888C42.6861 15.5114 42.9217 15.3908 43.0776 15.2739C43.2562 15.142 43.4044 14.9686 43.2448 14.8329C43.1764 14.7764 43.0624 14.7349 42.937 14.7085C42.6367 14.6407 42.2566 14.652 42.0096 14.7613C41.7055 14.8932 41.7739 15.2136 42.0628 15.3833H42.0666Z" stroke="white" stroke-miterlimit="10"/>
<path d="M48.132 15.3795C48.2232 15.4323 48.3411 15.4737 48.4741 15.485C48.7515 15.5076 48.9872 15.387 49.143 15.2702C49.3216 15.1382 49.4699 14.9648 49.3102 14.8291C49.2418 14.7726 49.1278 14.7311 49.0024 14.7047C48.7021 14.6369 48.3221 14.6482 48.075 14.7575C47.771 14.8895 47.8394 15.2099 48.1282 15.3795H48.132Z" stroke="white" stroke-miterlimit="10"/>
<path d="M51.1418 14.8781C51.233 14.9309 51.3508 14.9724 51.4838 14.9837C51.7613 15.0063 51.9969 14.8857 52.1528 14.7688C52.3314 14.6369 52.4796 14.4635 52.32 14.3278C52.2516 14.2713 52.1376 14.2298 52.0121 14.2034C51.7119 14.1356 51.3318 14.1469 51.0848 14.2562C50.7807 14.3881 50.8491 14.7085 51.138 14.8781H51.1418Z" stroke="white" stroke-miterlimit="10"/>
<path d="M313.626 22.5905L318.472 24.9502" stroke="white" stroke-miterlimit="10"/>
<path d="M319.062 12.6617L315.341 14.4484" stroke="white" stroke-miterlimit="10"/>
</g>
<path d="M429.83 72V94.799" stroke="#FEFEFE" stroke-opacity="0.6"/>
<path fill-rule="evenodd" clip-rule="evenodd" d="M0 72V94.799H1V72H0ZM1.89941 83.8995H428.425V82.8995H1.89941V83.8995Z" fill="#FEFEFE" fill-opacity="0.6"/>
<defs>
<clipPath id="clip0_1484_27">
<rect width="430" height="52" fill="white"/>
</clipPath>
</defs>
</svg>
