<svg width="398" height="189" viewBox="0 0 398 189" fill="none" xmlns="http://www.w3.org/2000/svg">
<g clip-path="url(#clip0_1511_27)">
<path d="M3.55755 79.6121C0.481168 80.7508 -0.692945 84.4574 0.401036 87.3714C1.74238 90.9499 5.30653 92.8776 8.79751 93.909C10.7904 94.4973 12.839 94.9092 14.8702 95.3383C16.9013 95.7675 19.0301 96.1862 21.117 96.5808C25.3222 97.3768 29.5379 98.1105 33.7431 98.9065C42.0733 100.478 50.4036 102.288 58.3646 105.24C60.347 105.974 62.2771 106.828 64.2421 107.6C66.1583 108.355 68.1477 109.002 70.2207 109.137C72.2937 109.272 74.3806 108.728 76.3247 107.912C78.004 107.206 79.631 106.365 81.1884 105.423C87.2889 101.737 92.393 96.4112 95.769 90.1574C96.1906 89.3752 96.5842 88.5792 96.9501 87.7694C97.18 87.2676 96.4275 86.8246 96.1975 87.3333C93.3441 93.6079 88.8079 99.0899 83.1673 103.091C81.7737 104.077 80.3174 104.977 78.8053 105.776C77.133 106.659 75.3875 107.493 73.5479 107.96C69.3985 109.016 65.465 107.185 61.7058 105.627C54.1907 102.513 46.2716 100.53 38.3106 98.9203C30.3496 97.311 22.2249 96.0443 14.2361 94.3243C10.5395 93.5283 6.36219 92.8499 3.45652 90.2439C2.19879 89.1157 1.20236 87.6483 0.91667 85.9663C0.665821 84.492 1.0839 82.8584 2.04897 81.7025C2.51583 81.1453 3.10463 80.7058 3.79098 80.4531C4.3101 80.2593 4.08712 79.4253 3.56104 79.6191L3.55755 79.6121Z" fill="white"/>
<path d="M36.2486 100.509C43.3281 104.645 51.5539 106.382 59.487 108.123C68.1169 110.019 76.8304 111.539 85.5892 112.715C102.846 115.031 120.266 116.017 137.672 115.924C155.346 115.83 173.003 114.636 190.556 112.615C199.199 111.618 207.822 110.438 216.411 109.05C225.159 107.638 233.876 105.935 242.37 103.402C257.762 98.813 272.392 91.6767 285.46 82.3808C286.993 81.2907 288.502 80.1694 289.993 79.0238C290.435 78.6846 289.815 78.0755 289.376 78.4112C276.628 88.202 262.257 95.8817 246.993 101.025C230.587 106.552 213.209 108.94 196.081 111.082C178.867 113.238 161.548 114.619 144.197 114.972C126.906 115.325 109.58 114.653 92.3935 112.695C83.7322 111.705 75.1128 110.386 66.5595 108.711C58.4731 107.126 50.101 105.562 42.4153 102.537C40.4329 101.758 38.5202 100.834 36.6806 99.7613C36.1963 99.4775 35.7573 100.225 36.2416 100.509H36.2486Z" fill="white"/>
<path d="M286.777 82.2701C289.432 80.1555 292.839 79.2003 296.205 79.1276C299.867 79.048 303.462 80.0309 306.803 81.4603C310.211 82.9207 313.437 84.7965 316.576 86.7519C319.715 88.7073 322.534 90.6523 325.401 92.7634C331.191 97.0238 336.693 101.651 342.163 106.306C347.632 110.961 353.075 115.654 358.74 120.077C361.544 122.264 364.398 124.385 367.335 126.393C370.327 128.441 373.463 130.407 376.957 131.49C377.808 131.754 378.675 131.958 379.557 132.1C379.912 132.158 380.26 131.816 380.048 131.463C378.121 128.289 374.707 126.583 371.613 124.738C368.258 122.738 365.282 120.215 362.84 117.169C361.457 115.446 360.272 113.574 359.283 111.604C359.032 111.106 358.28 111.546 358.53 112.04C360.269 115.501 362.638 118.647 365.492 121.281C366.913 122.593 368.453 123.78 370.087 124.818C371.721 125.856 373.296 126.68 374.853 127.687C376.588 128.808 378.215 130.123 379.295 131.902L379.786 131.266C376.097 130.67 372.77 128.916 369.669 126.912C366.613 124.939 363.673 122.78 360.785 120.571C355.001 116.145 349.476 111.404 343.936 106.683C338.431 101.994 332.909 97.3145 327.119 92.9711C324.23 90.8046 321.272 88.7212 318.227 86.7761C315.182 84.8311 311.907 82.8723 308.549 81.3045C302.264 78.3663 294.623 76.7569 288.209 80.2836C287.484 80.6816 286.805 81.1488 286.161 81.661C285.725 82.0105 286.342 82.6197 286.777 82.2736V82.2701Z" fill="white"/>
<path d="M367.411 122.482C370.829 123.87 374.247 125.257 377.665 126.649C378.093 126.822 378.362 126.213 378.09 125.925C375.71 123.409 373.118 121.104 370.334 119.038C367.387 116.848 364.196 115.058 361.067 113.148C355.074 109.483 349.866 104.811 345.037 99.7509C342.312 96.8922 339.703 93.9297 337.093 90.9638L336.477 91.5764C345.497 99.0103 355.576 105.146 366.363 109.715C369.38 110.992 372.446 112.148 375.557 113.183C375.888 113.293 376.16 112.954 376.093 112.65C375.226 108.742 371.571 106.51 368.181 104.915C366.032 103.904 363.833 103.004 361.687 101.983C359.273 100.831 356.893 99.6021 354.555 98.2974C351.932 96.8334 349.364 95.2691 346.852 93.6217L346.413 94.3693C353.876 98.6261 361.708 102.215 369.805 105.101C370.202 105.243 370.432 104.776 370.296 104.465C368.467 100.332 364.021 98.3354 359.924 97.0757C355.367 95.674 350.193 94.7707 346.988 90.9153L346.563 91.6387C352.172 93.5006 357.785 95.366 363.394 97.2279C363.666 97.3179 363.941 97.0791 363.945 96.8092C363.966 94.7534 362.562 93.0991 360.813 92.1543C358.565 90.9396 355.949 91.0607 353.472 91.0122C350.995 90.9638 348.49 90.4896 346.225 89.2714C344.089 88.1224 342.271 86.4681 340.943 84.447L340.347 85.0388C346.793 88.4477 354.061 92.0816 361.565 90.3893C361.983 90.2958 361.976 89.6521 361.565 89.5552C355.747 88.1605 350.141 86.0321 344.873 83.2114L344.539 84.0005C348.911 85.3953 353.468 86.129 358.06 86.1809C358.301 86.1809 358.489 85.9801 358.496 85.7483C358.618 82.3635 354.308 81.4291 351.726 80.9342C347.211 80.0655 342.947 78.1344 339.337 75.3068L338.912 76.0302C344.371 78.3074 350.423 78.8923 356.228 77.7502C356.52 77.6914 356.604 77.3453 356.489 77.1134C356.057 76.2551 355.628 75.3968 355.196 74.542L355.04 75.1338C356.154 74.3413 357.269 73.5522 358.384 72.7596C358.691 72.5416 358.652 72.0917 358.28 71.9706C354.064 70.5862 349.845 69.1984 345.629 67.8141V68.6481C351.719 67.603 357.984 67.9629 363.917 69.6691C364.377 69.8006 364.715 69.0807 364.251 68.88C361.506 67.6722 358.76 66.4678 356.019 65.26L355.799 66.0663C359.914 66.319 364.028 66.5716 368.143 66.8243C368.373 66.8381 368.585 66.6131 368.578 66.3917C368.554 65.4122 369.265 64.5366 370.272 64.4467C370.672 64.4086 370.902 63.8618 370.491 63.6403C367.767 62.1867 364.84 61.1865 361.792 60.6847V61.5188C366.028 60.3871 370.512 62.6989 374.679 61.1519C376.752 60.3836 378.18 58.6636 379.86 57.3173C381.647 55.8845 383.633 54.6939 385.73 53.763C388.18 52.6763 390.803 51.9737 393.465 51.6657C394.008 51.6034 394.04 50.8212 393.465 50.8005C388.089 50.6205 382.797 49.3538 377.93 47.0697L377.71 47.876C381.943 48.0768 386.176 48.2775 390.409 48.4817C392.165 48.5648 394.13 48.8555 395.796 48.146C397.099 47.5888 398.137 46.3187 397.97 44.8582C397.938 44.5778 397.719 44.3667 397.419 44.4394C392.057 45.7926 386.309 45.052 381.473 42.3837L381.253 43.19C385.643 43.3458 390.354 43.415 394.196 40.982C394.635 40.7051 394.336 40.1202 393.862 40.1929C374.212 43.1485 354.513 45.8099 334.783 48.1702C329.868 48.7586 324.948 49.3296 320.029 49.8799C315.109 50.4302 310.256 50.9354 305.344 50.9251C295.658 50.9043 286.23 48.5094 276.963 45.9414C266.291 42.9858 255.63 39.9922 244.966 37.0193C244.426 36.867 244.196 37.7046 244.736 37.8534C254.358 40.5356 263.978 43.2212 273.601 45.9033C282.833 48.4782 292.157 51.1362 301.783 51.6865C306.678 51.9668 311.573 51.6276 316.444 51.1327C321.36 50.6309 326.265 50.0425 331.174 49.4646C341.11 48.2948 351.04 47.0489 360.959 45.7268C372.017 44.2525 383.065 42.6882 394.099 41.027L393.764 40.2379C390.05 42.5878 385.497 42.4736 381.26 42.3248C380.828 42.311 380.668 42.927 381.041 43.1312C386.082 45.9103 392.071 46.6855 397.66 45.2735L397.109 44.8547C397.322 46.7167 395.395 47.5957 393.82 47.703C392.099 47.8207 390.326 47.6096 388.605 47.5265C384.974 47.3535 381.347 47.1804 377.717 47.0074C377.299 46.9866 377.104 47.6303 377.498 47.8137C382.508 50.1637 387.932 51.4753 393.472 51.6622V50.797C388.998 51.3127 384.685 52.8839 380.971 55.4242C380.065 56.0437 379.198 56.7151 378.375 57.4384C377.463 58.2379 376.609 59.1273 375.567 59.7676C373.592 60.9823 371.233 60.8958 369.01 60.6778C366.53 60.4355 364.021 60.0306 361.569 60.6847C361.178 60.7885 361.13 61.4461 361.569 61.5188C364.547 62.0102 367.401 62.9689 370.063 64.3878L370.282 63.5814C368.815 63.7164 367.68 64.9069 367.718 66.3917L368.153 65.959C364.039 65.7064 359.924 65.4538 355.81 65.2011C355.395 65.1769 355.193 65.8345 355.59 66.0075C358.335 67.2153 361.081 68.4197 363.823 69.6276L364.157 68.8385C358.067 67.0873 351.653 66.7481 345.406 67.8175C344.953 67.8937 345.033 68.5305 345.406 68.6516C349.622 70.0359 353.841 71.4238 358.057 72.8081L357.952 72.019C356.837 72.8116 355.722 73.6006 354.608 74.3932C354.405 74.5351 354.339 74.76 354.451 74.985C354.883 75.8433 355.311 76.7016 355.743 77.5564L356.005 76.9196C350.347 78.0305 344.466 77.4145 339.152 75.1996C338.759 75.0334 338.396 75.6633 338.727 75.9229C341.974 78.4666 345.709 80.3459 349.719 81.3737C351.399 81.8063 353.134 82.0001 354.764 82.6162C356.186 83.1526 357.694 84.0594 357.635 85.7517L358.071 85.3191C353.552 85.2672 349.085 84.5404 344.779 83.1699C344.312 83.0211 344.009 83.7271 344.445 83.959C349.775 86.8142 355.458 88.9772 361.346 90.3893V89.5552C354.095 91.1887 347.016 87.5825 340.8 84.2912C340.435 84.0974 339.954 84.5024 340.205 84.883C342.591 88.5204 346.521 91.078 350.862 91.6906C353.51 92.0643 356.269 91.5971 358.868 92.2962C360.952 92.8569 363.105 94.4766 363.084 96.8057L363.635 96.387C358.025 94.525 352.413 92.6596 346.803 90.7977C346.354 90.6488 346.127 91.2164 346.378 91.521C349.416 95.1791 354.263 96.3454 358.646 97.5948C362.872 98.7992 367.648 100.609 369.547 104.894L370.038 104.257C362.008 101.398 354.249 97.8336 346.852 93.6148C346.361 93.3345 345.946 94.0578 346.413 94.3624C350.65 97.1414 355.053 99.6713 359.6 101.924C361.792 103.008 364.021 104.004 366.258 104.987C368.042 105.773 369.826 106.607 371.432 107.721C373.261 108.991 374.763 110.666 375.25 112.878L375.787 112.345C364.826 108.701 354.416 103.492 344.943 96.913C342.243 95.0372 339.626 93.0507 337.093 90.9603C336.665 90.6073 336.104 91.1472 336.477 91.5729C341.09 96.8196 345.723 102.08 350.97 106.718C353.51 108.96 356.189 111.054 359.039 112.899C362.109 114.882 365.349 116.595 368.352 118.678C371.658 120.973 374.707 123.617 377.47 126.535L377.895 125.811C374.477 124.423 371.059 123.036 367.641 121.644C367.122 121.433 366.896 122.271 367.411 122.478V122.482Z" fill="white"/>
<path d="M4.13814 80.4324C5.66065 80.3355 7.16575 80.5674 8.66736 80.7854C10.169 81.0034 11.5695 81.2076 13.0189 81.443C15.8828 81.9033 18.7362 82.4466 21.5373 83.2115C23.1295 83.6475 24.7008 84.1563 26.2372 84.7515C26.7599 84.9557 26.9863 84.1182 26.4672 83.9175C20.945 81.7717 15.0605 80.8477 9.22132 79.9998C7.53854 79.7541 5.84531 79.4599 4.13814 79.5706C3.5807 79.6052 3.57721 80.4705 4.13814 80.4358V80.4324Z" fill="white"/>
<path d="M27.0155 82.5574C22.9845 79.5672 18.957 76.577 14.926 73.5903C12.8878 72.0779 10.7103 70.6589 8.79063 69.0011C7.93705 68.264 7.07998 67.2534 7.36567 66.0456C7.65136 64.8377 8.80805 64.0175 9.74525 63.3496C16.6157 58.4351 24.0541 54.2198 31.6423 50.5063C47.0625 42.9651 63.5315 37.6976 80.2757 33.9461C97.0198 30.1945 114.349 27.893 131.578 26.3841C141.061 25.5535 150.58 24.8198 160.105 24.7921C170.222 24.7644 180.145 25.903 190.043 27.9519C199.941 30.0007 209.188 32.2745 218.849 34.0464C228.43 35.808 238.074 37.2235 247.756 38.2964C250.167 38.5629 252.581 38.8086 254.996 39.0335C255.553 39.0854 255.55 38.2202 254.996 38.1683C244.728 37.2097 234.499 35.8703 224.333 34.1399C214.313 32.4337 204.425 30.198 194.503 28.0211C184.674 25.8615 174.825 24.2349 164.742 23.9753C154.722 23.7192 144.702 24.4252 134.724 25.2489C117.133 26.6956 99.5667 28.8863 82.3068 32.6102C65.1794 36.3064 48.3238 41.5496 32.5098 49.122C24.6185 52.9012 17.0094 57.2619 9.81842 62.2386C8.5154 63.1419 6.93017 64.1802 6.52254 65.8102C6.11491 67.4403 7.24025 68.8558 8.45965 69.8456C12.3025 72.9708 16.4485 75.7914 20.4307 78.7435C22.4793 80.2628 24.5279 81.7821 26.573 83.3014C27.0225 83.6337 27.458 82.8827 27.012 82.5539L27.0155 82.5574Z" fill="white"/>
<path d="M128.613 26.4152C130.769 22.5114 132.93 18.6075 135.086 14.7037L134.292 14.3714C132.71 18.2372 131.132 22.1065 129.55 25.9722C129.341 26.4879 130.181 26.7129 130.39 26.2007C131.971 22.3349 133.55 18.4656 135.131 14.5998C135.32 14.143 134.57 13.8419 134.337 14.2676C132.18 18.1715 130.02 22.0753 127.864 25.9792C127.595 26.4671 128.345 26.9032 128.616 26.4152H128.613Z" fill="white"/>
<path d="M132.972 25.7646C135.452 20.8744 137.933 15.9842 140.413 11.0905L139.619 10.7583C137.609 15.7281 135.599 20.7013 133.588 25.6711C133.379 26.1868 134.222 26.4118 134.428 25.8996C136.438 20.9298 138.448 15.9565 140.459 10.9867C140.643 10.5333 139.884 10.2184 139.664 10.6545C137.184 15.5447 134.703 20.4349 132.223 25.3285C131.972 25.8234 132.721 26.263 132.975 25.7646H132.972Z" fill="white"/>
<path d="M139.712 25.5327C142.866 20.4625 145.757 15.2401 148.907 10.1699L148.154 9.73387C145.496 14.8871 142.698 19.9676 139.765 24.972C139.507 25.4116 140.085 25.8096 140.448 25.4946C140.65 25.3216 140.855 25.1486 141.057 24.9755C141.482 24.6121 140.866 24.003 140.441 24.3629C140.239 24.536 140.033 24.709 139.831 24.8821L140.514 25.4047C143.447 20.4002 146.245 15.3197 148.903 10.1665C149.158 9.67157 148.447 9.25281 148.151 9.73041C144.998 14.8006 142.106 20.023 138.956 25.0932C138.66 25.5673 139.413 26.0034 139.709 25.5292L139.712 25.5327Z" fill="white"/>
<path d="M148.763 24.5948C149.857 22.1065 151.739 20.0334 153.421 17.9292C155.261 15.6312 157.1 13.3332 158.94 11.0317L158.257 10.5091C157.02 13.3228 154.589 15.4131 152.477 17.5727C150.366 19.7323 148.397 21.9403 147.171 24.664C146.945 25.1693 147.694 25.6088 147.924 25.1001C149.16 22.3487 151.202 20.113 153.296 17.9776C155.397 15.8388 157.783 13.7381 159.006 10.9452C159.184 10.5402 158.658 10.0004 158.323 10.4226C156.449 12.7656 154.575 15.1086 152.697 17.4516C151.003 19.5696 149.108 21.6565 148.007 24.1587C147.784 24.664 148.537 25.1036 148.76 24.5948H148.763Z" fill="white"/>
<path d="M156.163 24.3837C158.403 19.1751 161.407 14.3057 165.075 9.96921L164.392 9.44662C162.974 12.2222 161.542 15.0117 159.654 17.507C158.052 19.6181 156.045 21.7431 156.006 24.5464C155.999 25.1036 156.87 25.1036 156.877 24.5464C156.916 21.8296 159.079 19.7392 160.598 17.6904C162.396 15.2609 163.776 12.5649 165.148 9.88269C165.361 9.47084 164.8 8.9621 164.466 9.36009C160.745 13.7519 157.686 18.6698 155.418 23.9511C155.202 24.4564 155.951 24.8994 156.17 24.3872L156.163 24.3837Z" fill="white"/>
<path d="M164.742 24.5879C167.689 20.9263 170.902 17.4827 174.354 14.2884C174.765 13.9077 174.156 13.3089 173.737 13.6758C171.685 15.4927 169.724 17.417 167.874 19.4381C166.958 20.4383 166.066 21.4627 165.205 22.5114C164.874 22.9128 164.275 23.4458 164.529 24.0203C164.71 24.4252 165.31 24.5879 165.609 24.2141C165.954 23.7815 165.341 23.1655 164.993 23.6015C165.209 23.7365 165.365 23.7261 165.456 23.5669C165.491 23.5219 165.529 23.477 165.564 23.432C165.648 23.3281 165.731 23.2243 165.818 23.1239C165.989 22.9198 166.156 22.7156 166.33 22.5114C166.689 22.0822 167.055 21.66 167.424 21.2412C168.146 20.421 168.881 19.6181 169.637 18.829C171.145 17.2509 172.72 15.7385 174.354 14.2918L173.737 13.6792C170.285 16.8771 167.073 20.3172 164.125 23.9788C163.777 24.4079 164.39 25.024 164.742 24.5914V24.5879Z" fill="white"/>
<path d="M174.423 25.1797C175.165 24.1276 176.078 23.1966 176.995 22.3003C177.911 21.4039 178.886 20.5179 179.841 19.6389L179.158 19.1163C178.636 20.1165 178.068 21.0959 177.486 22.0615C176.904 23.027 176.322 24.0376 175.639 24.8578C175.49 25.0413 175.465 25.2905 175.639 25.4704C175.793 25.6262 176.106 25.6504 176.256 25.4704C176.998 24.5741 177.597 23.56 178.197 22.5668C178.796 21.5735 179.378 20.5768 179.911 19.5523C180.137 19.1163 179.597 18.6871 179.228 19.0297C177.284 20.819 175.204 22.5771 173.671 24.7471C173.347 25.2039 174.103 25.6365 174.423 25.1832V25.1797Z" fill="white"/>
<path d="M189.669 27.4154C199.679 21.7569 209.249 15.2816 217.82 7.61582C220.238 5.45278 222.572 3.19976 224.816 0.860212L224.133 0.337622C223.381 1.7808 222.625 3.22744 221.872 4.67062C221.775 4.85751 221.802 5.16553 222.029 5.26243C222.869 5.62236 223.743 5.68812 224.617 5.3974L224.192 4.67408C220.283 8.56409 216.663 12.731 213.35 17.1367C213.04 17.5485 213.685 17.9707 214.033 17.6592C218.043 14.0807 222.175 10.6441 226.426 7.34933L225.809 6.73676C225.384 7.26627 224.955 7.79578 224.53 8.32529C224.266 8.65408 224.503 9.15244 224.955 9.04861C225.6 8.8998 226.245 8.74752 226.889 8.5987L226.398 7.9619C225.638 9.04169 224.879 10.1215 224.116 11.1978C223.875 11.5404 224.273 11.89 224.607 11.8346C225.715 11.6477 226.826 11.4608 227.934 11.2739L227.443 10.6372C223.994 15.645 220.541 20.6529 217.092 25.6608C216.81 26.0726 217.433 26.526 217.775 26.1833C221.942 22.0545 226.112 17.9257 230.279 13.7969L229.551 13.3747L229.161 14.7348C229.067 15.0671 229.38 15.3335 229.697 15.2678C230.516 15.0947 231.331 14.9217 232.15 14.7452L231.599 14.3264C231.589 14.8871 231.443 15.3924 231.153 15.8734C231.028 16.0811 231.115 16.3372 231.31 16.4652C232.024 16.9359 232.3 17.9119 231.92 18.6837C231.753 19.0228 232.028 19.4104 232.411 19.3205C233.484 19.0678 234.554 18.8152 235.627 18.566L235.136 17.9292C232.756 21.6323 230.373 25.3354 227.993 29.0386C227.729 29.4504 228.345 29.9315 228.676 29.5612C231.896 26.0138 235.359 22.6948 239.045 19.6285L238.362 19.1059C237.839 19.9746 237.487 20.9194 237.327 21.923C237.268 22.2899 237.609 22.6048 237.968 22.411C238.944 21.885 239.982 21.5423 241.076 21.3658L240.539 20.8329C240.32 21.6704 240.1 22.5079 239.881 23.3454C239.797 23.6673 240.093 23.9615 240.417 23.8784L242.086 23.4493L241.595 22.8125C239.979 25.2766 238.212 27.6404 236.303 29.8899C235.941 30.3191 236.488 30.859 236.92 30.5025C239.163 28.6544 241.574 27.0278 244.121 25.6227L243.682 24.8751C242.898 25.415 243.511 26.3702 244.274 26.5329C244.48 26.5779 244.682 26.5467 244.881 26.4914C245.159 26.4152 245.574 26.1384 245.866 26.1972C246.427 26.3045 246.149 27.1766 246.034 27.5296C245.929 27.8515 246.26 28.1387 246.57 28.0626C247.072 27.9345 247.574 27.8065 248.075 27.6819L247.584 27.4846C247.877 28.0661 248.169 28.6475 248.462 29.2324C248.56 29.4296 248.873 29.5162 249.058 29.3881C249.511 29.0732 250.145 29.0351 250.566 29.44C250.988 29.8449 250.971 30.5302 250.612 30.9559C250.385 31.2258 250.514 31.7103 250.918 31.693C252.026 31.655 253.214 31.5927 254.253 32.0461C255.117 32.4233 255.939 33.3058 255.799 34.306C255.754 34.6348 255.981 34.9151 256.336 34.839C257.04 34.6867 257.743 34.5344 258.447 34.3821L257.956 34.1849C258.217 34.7005 258.315 35.2647 258.228 35.8357C258.189 36.0814 258.336 36.4171 258.649 36.3825C259.729 36.2648 260.806 36.1472 261.886 36.0295L261.51 35.3789C261.001 36.0468 261.611 36.8947 262.294 37.1301C262.757 37.2893 263.241 37.1785 263.715 37.2062C263.931 37.22 264.158 37.2339 264.266 37.445C264.339 37.5904 264.353 37.6734 264.255 37.6873C263.827 37.7599 263.851 38.4313 264.255 38.5213C265.046 38.6978 265.833 38.8709 266.624 39.0474L266.363 38.4106C266.074 38.8017 265.785 39.1927 265.499 39.5838C265.29 39.8676 265.579 40.2171 265.875 40.2345C269.784 40.4629 273.634 41.2692 277.313 42.6086L277.01 42.0756L276.543 43.197C276.453 43.4115 276.641 43.6745 276.846 43.7299C282.933 45.3185 288.758 47.7861 294.124 51.0566C294.604 51.3473 295.04 50.5997 294.563 50.309C289.138 47.0039 283.233 44.5017 277.08 42.8959L277.383 43.4288L277.85 42.3075C277.944 42.0791 277.745 41.8472 277.547 41.7745C273.798 40.411 269.864 39.6046 265.879 39.3692L266.255 40.0199C266.544 39.6288 266.833 39.2377 267.119 38.8466C267.283 38.6251 267.112 38.2687 266.858 38.2098C266.067 38.0333 265.279 37.8603 264.489 37.6838V38.5179C265.314 38.3794 265.321 37.3169 264.872 36.7909C264.562 36.4275 264.091 36.3444 263.631 36.3341C263.349 36.3271 263.05 36.386 262.771 36.3479C262.541 36.3133 262.043 36.0953 262.259 35.8115C262.45 35.5623 262.193 35.1262 261.882 35.1608C260.802 35.2785 259.726 35.3962 258.646 35.5138L259.067 36.0607C259.196 35.2404 259.085 34.486 258.709 33.7453C258.618 33.5688 258.399 33.5065 258.217 33.5481C257.514 33.7003 256.81 33.8526 256.106 34.0049L256.643 34.5379C256.813 33.3023 256.172 32.2087 255.141 31.5408C253.908 30.7413 252.333 30.7794 250.922 30.8313L251.228 31.5685C251.859 30.8174 251.943 29.6996 251.281 28.9313C250.619 28.163 249.427 28.0764 248.622 28.6371L249.218 28.7928C248.925 28.2114 248.633 27.63 248.34 27.0451C248.253 26.8721 248.027 26.8028 247.849 26.8478C247.347 26.9759 246.846 27.1039 246.344 27.2285L246.88 27.7615C247.11 27.052 247.257 26.0484 246.549 25.55C246.17 25.2835 245.72 25.3043 245.295 25.4323C245.069 25.5016 244.752 25.7092 244.508 25.6919C244.428 25.6884 244.379 25.6469 244.309 25.6192C244.264 25.5915 244.226 25.5569 244.201 25.5119C244.159 25.4289 244.135 25.4669 244.131 25.6227C244.588 25.3077 244.187 24.6017 243.692 24.8751C241.079 26.3149 238.613 27.9968 236.313 29.8899L236.93 30.5025C238.888 28.1976 240.703 25.7784 242.358 23.2485C242.571 22.9232 242.219 22.5218 241.867 22.6117L240.198 23.0409L240.735 23.5739C240.954 22.7363 241.174 21.8988 241.393 21.0613C241.484 20.7186 241.177 20.4764 240.856 20.5283C239.689 20.7186 238.581 21.1028 237.54 21.66L238.181 22.148C238.331 21.2136 238.641 20.3518 239.128 19.5385C239.397 19.0955 238.808 18.7113 238.446 19.0159C234.759 22.0822 231.296 25.4012 228.077 28.9486L228.76 29.4712C231.14 25.768 233.523 22.0649 235.902 18.3618C236.115 18.0296 235.763 17.6419 235.411 17.725C234.338 17.9776 233.268 18.2303 232.195 18.4795L232.686 19.1163C233.282 17.9084 232.895 16.4618 231.763 15.7142L231.92 16.306C232.286 15.6935 232.474 15.0324 232.484 14.323C232.491 14.0288 232.202 13.8488 231.934 13.9042C231.115 14.0772 230.3 14.2503 229.481 14.4268L230.018 14.9598L230.408 13.5997C230.53 13.1809 229.986 12.8763 229.68 13.1774C225.513 17.3062 221.342 21.435 217.176 25.5639L217.858 26.0864C221.308 21.0786 224.76 16.0707 228.21 11.0628C228.446 10.7202 228.056 10.3707 227.718 10.426C226.61 10.6129 225.499 10.7998 224.391 10.9867L224.882 11.6235C225.642 10.5437 226.401 9.46392 227.164 8.38759C227.394 8.05881 227.014 7.67119 226.673 7.75079C226.028 7.89961 225.384 8.05189 224.739 8.2007L225.164 8.92402C225.59 8.39451 226.018 7.865 226.443 7.33549C226.795 6.89596 226.269 6.38029 225.826 6.72291C221.579 10.0177 217.444 13.4543 213.434 17.0328L214.117 17.5554C217.385 13.212 220.966 9.10745 224.823 5.26935C225.119 4.97518 224.823 4.40414 224.398 4.54603C223.76 4.76061 223.105 4.76407 222.482 4.50104L222.639 5.09285C223.391 3.64967 224.147 2.20303 224.9 0.759847C225.119 0.337622 224.572 -0.133055 224.217 0.237257C216.315 8.47757 207.278 15.5481 197.623 21.6531C194.874 23.3904 192.08 25.0516 189.248 26.654C188.76 26.9309 189.199 27.6784 189.687 27.4016L189.669 27.4154Z" fill="white"/>
<path d="M38.6794 69.9114C40.1044 68.7935 41.6234 67.5234 41.9196 65.6337C42.052 64.7789 41.9196 63.8791 41.4074 63.1661C40.8953 62.4532 40.1114 62.024 39.2961 61.7368C37.69 61.1761 35.7563 61.2004 34.6972 62.7058C33.8785 63.8721 33.875 65.5161 34.4882 66.7689C35.3522 68.527 37.2475 69.5134 39.0348 70.1121C39.5679 70.2886 39.7943 69.4545 39.2647 69.278C37.9338 68.835 36.5716 68.1775 35.6901 67.0527C34.9515 66.1079 34.6937 64.8308 35.1432 63.7026C35.6901 62.3251 37.136 62.0621 38.4599 62.3944C39.1567 62.5674 39.8849 62.8408 40.4075 63.3426C40.9301 63.8445 41.1496 64.5574 41.0869 65.2842C40.9336 67.0734 39.3727 68.2744 38.0593 69.3022C37.6203 69.6483 38.2404 70.254 38.6759 69.9148L38.6794 69.9114Z" fill="white"/>
<path d="M39.7385 75.1373C42.9786 74.6527 45.4279 71.7733 45.9156 68.6412C46.4487 65.2219 45.0412 61.3284 42.4038 59.0442C40.9892 57.8191 39.2786 57.3138 37.4216 57.2377C35.5646 57.1615 33.7704 57.2931 32.4116 58.6289C29.9554 61.0481 29.8474 65.0454 31.1713 68.039C32.7217 71.5483 36.2928 73.7875 39.9789 74.5247C40.5259 74.6354 40.7593 73.8014 40.2088 73.6906C37.2648 73.0988 34.4079 71.5518 32.7077 69.0288C31.018 66.5163 30.5929 63.0312 32.1677 60.3559C32.5405 59.7226 33.0318 59.1308 33.6554 58.7293C34.3696 58.269 35.1918 58.1306 36.0315 58.096C37.7456 58.0302 39.5329 58.1479 41.0171 59.0823C43.6615 60.7435 45.1944 64.2528 45.1596 67.2846C45.1213 70.5689 42.9124 73.7875 39.5051 74.2997C38.9511 74.3828 39.188 75.2169 39.735 75.1338L39.7385 75.1373Z" fill="white"/>
<path d="M15.7487 65.8518C17.5778 70.5516 23.3055 70.6208 27.1832 72.6351C29.2945 73.7321 30.8763 75.5318 32.6775 77.0338C34.5589 78.605 36.7921 79.5637 38.8303 80.8961C40.8684 82.2286 42.9588 84.5266 42.3457 87.1499L43.2027 87.2641C43.1644 85.4645 42.3282 83.7098 40.9033 82.585C39.4783 81.4603 37.5342 81.1003 35.7818 80.5397C34.9317 80.2663 34.0885 79.9202 33.3848 79.3595C32.8273 78.9165 32.3535 78.3732 31.9424 77.7987C31.0888 76.6116 30.4373 75.293 29.6185 74.0817C28.7301 72.7769 27.6152 71.621 26.037 71.2057C25.4935 71.0638 25.2635 71.8979 25.807 72.0398C28.5246 72.7562 29.5837 75.8917 31.0122 77.9752C31.8413 79.1865 32.8413 80.2316 34.1965 80.8546C35.8201 81.6021 37.6388 81.8029 39.2484 82.5746C41.081 83.4537 42.2969 85.2291 42.3387 87.2676C42.3491 87.7417 43.0808 87.8698 43.1958 87.3818C43.7184 85.1461 42.5686 82.9623 40.9625 81.4464C39.1996 79.7817 36.8862 78.8784 34.869 77.5772C32.8099 76.2482 31.2073 74.362 29.2458 72.9085C27.2843 71.4549 24.8176 70.7869 22.4519 70.0048C20.0863 69.2226 17.536 68.039 16.5953 65.6199C16.3967 65.1077 15.5536 65.3292 15.7556 65.8483L15.7487 65.8518Z" fill="white"/>
<path d="M21.1488 72.2094C21.6714 73.6629 22.4344 75.0023 23.4204 76.1928C24.4726 77.4595 25.7686 78.3766 27.0995 79.3249C28.3538 80.2213 29.385 81.2838 30.1445 82.6266C30.8553 83.8829 31.3117 85.2603 31.6392 86.6585C32.0259 88.3093 32.2384 89.9913 32.4231 91.6733C32.4823 92.2201 33.3568 92.227 33.2941 91.6733C32.9701 88.7454 32.5903 85.7483 31.3326 83.0453C30.7299 81.7544 29.9007 80.5501 28.8345 79.5949C27.5664 78.4597 26.0438 77.6602 24.8314 76.4558C23.619 75.2515 22.5912 73.656 21.985 71.9775C21.7968 71.4584 20.9537 71.6799 21.1453 72.2059L21.1488 72.2094Z" fill="white"/>
<path d="M24.8732 83.426C26.5385 85.5164 27.7893 87.9078 28.5732 90.455L29.4128 90.2266C28.9251 88.7834 28.4094 87.3022 27.3677 86.1497C26.4898 85.1772 25.3087 84.5404 24.0684 84.1459C22.8281 83.7513 21.3926 83.5748 20.0374 83.4883C18.8632 83.4122 17.1805 83.1215 16.3338 84.1528C15.982 84.582 16.5952 85.198 16.9505 84.7654C17.3338 84.2982 17.933 84.2739 18.4974 84.2809C19.0967 84.2878 19.7029 84.3293 20.3021 84.3708C21.4972 84.4608 22.6957 84.6166 23.8384 84.98C24.9812 85.3433 25.9741 85.8971 26.7545 86.7588C27.6883 87.7936 28.1412 89.1607 28.5767 90.455C28.7544 90.9776 29.5801 90.7631 29.4163 90.2266C28.5871 87.5271 27.2562 85.0284 25.4933 82.8169C25.1449 82.3808 24.5317 82.9969 24.8767 83.4295L24.8732 83.426Z" fill="white"/>
<path d="M55.8877 48.8451C57.6994 49.6549 59.6017 50.1983 61.5702 50.4475C63.5386 50.6966 65.6883 50.4059 67.608 51.0843C69.3256 51.6899 70.7401 53.0812 71.9421 54.3963C73.1441 55.7114 74.0952 57.0681 74.9209 58.5666C76.5758 61.5603 77.5444 64.9346 77.7012 68.347C77.7848 70.1605 77.621 71.9602 77.2691 73.7391C76.8685 75.7568 76.2936 77.7398 75.9417 79.7679C75.3042 83.4191 75.4958 87.7037 78.4014 90.4031C78.8091 90.7838 79.4292 90.1713 79.0181 89.7906C76.3981 87.3541 76.1996 83.4606 76.7535 80.159C77.0984 78.0998 77.6837 76.0925 78.0949 74.0505C78.4537 72.2578 78.6453 70.4443 78.5861 68.617C78.4711 65.2253 77.5897 61.8718 76.0532 58.8435C75.2867 57.3311 74.3495 55.9052 73.266 54.597C72.1825 53.2888 70.876 51.9495 69.3953 51.0081C68.4755 50.4232 67.4616 50.0598 66.3781 49.9076C65.2946 49.7553 64.1205 49.7691 62.9916 49.7068C60.6957 49.5857 58.4241 49.0354 56.3267 48.0975C55.8181 47.8691 55.3756 48.6167 55.8877 48.8451Z" fill="white"/>
<path d="M73.1823 73.3584C72.2137 78.2451 69.4231 82.4985 66.1934 86.2189C62.9637 89.9394 59.1138 93.8363 54.5568 96.1862C51.8357 97.5913 48.829 98.4254 45.7736 98.6504C45.2196 98.6919 45.2126 99.5571 45.7736 99.5156C48.5224 99.3148 51.2051 98.6538 53.7241 97.5429C56.243 96.4319 58.4449 94.9057 60.497 93.1614C62.5108 91.4518 64.3712 89.5552 66.1341 87.5929C67.8971 85.6306 69.4718 83.6544 70.8201 81.4603C72.3148 79.0342 73.468 76.3866 74.022 73.5868C74.13 73.0434 73.2903 72.8116 73.1823 73.3584Z" fill="white"/>
<path d="M50.7545 101.18C55.1374 98.5396 60.2346 97.1553 65.3561 97.1968C66.8333 97.2072 68.3035 97.3387 69.7599 97.5879C70.3068 97.6813 70.5438 96.8473 69.9898 96.7538C64.7429 95.8505 59.2695 96.425 54.3361 98.4254C52.9425 98.9895 51.5977 99.6575 50.3121 100.433C49.8348 100.72 50.2703 101.471 50.7511 101.18H50.7545Z" fill="white"/>
<path d="M80.3649 100.128C82.5912 98.1901 84.7094 96.1343 86.7023 93.9644C88.6882 91.8013 90.5974 89.531 92.1304 87.0184C93.7191 84.4158 94.8897 81.5745 96.1475 78.8058C97.4052 76.0371 98.757 73.0573 100.06 70.1848C100.795 68.5651 101.53 66.9454 102.265 65.3257C102.673 64.4294 103.307 62.8131 102.067 62.2386C101.562 62.0033 101.119 62.7508 101.628 62.9862C102.049 63.18 101.938 63.7199 101.833 64.0867C101.659 64.7131 101.318 65.3119 101.049 65.9037C100.422 67.288 99.7917 68.6724 99.1646 70.0567C97.9208 72.8012 96.6736 75.5422 95.4298 78.2867C94.2278 80.9342 93.1024 83.6475 91.6252 86.1601C90.148 88.6727 88.406 90.7804 86.5176 92.8707C84.3994 95.2172 82.1348 97.4321 79.7447 99.5121C79.3232 99.879 79.9398 100.488 80.3614 100.125L80.3649 100.128Z" fill="white"/>
<path d="M69.6809 42.2141C70.6599 42.4944 71.5937 42.8959 72.4612 43.4288C73.3287 43.9618 74.2032 44.6055 74.8024 45.4119C75.5236 46.3809 75.0707 47.3188 74.3809 48.1564C73.6423 49.0562 72.8583 49.9249 72.0953 50.8074C71.733 51.2262 72.3462 51.8422 72.712 51.42C73.5761 50.4198 74.5028 49.4507 75.2937 48.3952C76.0114 47.44 76.3598 46.2979 75.7083 45.2077C75.1334 44.2456 74.1231 43.4842 73.1998 42.8751C72.1894 42.2106 71.0745 41.7122 69.9109 41.38C69.3709 41.2277 69.1409 42.0618 69.6809 42.2141Z" fill="white"/>
<path d="M77.6723 59.0235C77.1497 57.2896 76.6863 55.5384 76.2787 53.7768C75.9721 52.4478 75.6028 51.0081 75.8781 49.6411C76.5365 46.3533 80.8184 47.1943 83.2781 47.1666C84.9156 47.1493 86.5809 46.9347 87.9815 46.0245C88.4484 45.7199 88.0129 44.9724 87.5425 45.2769C84.7832 47.0662 81.341 45.8618 78.2994 46.4086C76.864 46.6647 75.6586 47.4919 75.1778 48.897C74.7248 50.2294 74.9443 51.7176 75.23 53.0604C75.676 55.1473 76.2195 57.2134 76.8362 59.2554C76.9964 59.7883 77.8361 59.5599 77.6758 59.0269L77.6723 59.0235Z" fill="white"/>
<path d="M82.3306 54.9293C83.4316 53.4515 84.9855 52.3059 86.7135 51.6518C88.4416 50.9977 90.4867 50.7313 92.2845 51.2538C93.3157 51.5515 94.0578 52.2852 94.8069 53.012C95.5908 53.7768 96.3747 54.5417 97.1098 55.355C97.4791 55.7633 97.8415 56.1856 98.1794 56.6216C98.5174 57.0577 98.9494 57.5561 99.148 58.0717C99.3361 58.5597 98.9842 58.9681 98.6846 59.3246C98.385 59.681 98.0819 60.0583 97.845 60.477C96.8276 62.2905 96.7788 64.5263 97.6917 66.3847C97.9355 66.8866 98.6881 66.447 98.4442 65.9487C97.5558 64.1386 97.7822 61.8441 99.0365 60.2521C99.6357 59.4907 100.399 58.7189 99.9284 57.6841C99.4581 56.6493 98.5836 55.7011 97.831 54.8601C97.0785 54.0191 96.2458 53.2023 95.4236 52.4028C94.6397 51.6415 93.8488 50.8905 92.8001 50.5132C90.9466 49.8453 88.6855 50.0737 86.8529 50.6897C84.7451 51.3957 82.902 52.7178 81.5816 54.4967C81.2471 54.9466 82.0031 55.3757 82.3341 54.9327L82.3306 54.9293Z" fill="white"/>
<path d="M104.509 71.7595C111.958 69.9114 119.592 68.5409 127.298 68.7139C134.754 68.88 142.06 70.6001 149.14 72.8323C153.146 74.0955 157.097 75.5249 161.044 76.9577L160.94 76.1686C159.093 77.4595 156.773 77.9509 154.561 77.4699C154.265 77.4041 153.902 77.6741 154.024 78.0029C154.421 79.0584 155.191 79.8406 156.237 80.2697L156.351 79.4184C154.143 79.4945 151.955 79.8579 149.843 80.5051C149.596 80.5812 149.415 80.9031 149.582 81.1419C150.105 81.8721 150.812 82.3843 151.683 82.63L151.798 81.7787C150.634 81.924 149.471 82.0728 148.307 82.2182C148.108 82.2424 147.948 82.3359 147.885 82.5366C147.572 83.5645 148.025 84.6892 148.962 85.2188L149.296 84.4297C147.29 83.9244 145.192 83.9625 143.21 84.5508C142.938 84.6304 142.809 84.9384 142.948 85.1876C143.238 85.7033 143.53 86.2155 143.819 86.7311L144.081 86.0944C143.203 86.2397 142.457 86.7138 141.74 87.2122C140.858 87.8248 139.977 88.4408 139.095 89.0534C138.677 89.3441 138.256 89.6383 137.837 89.929C137.458 90.192 136.987 90.4343 136.684 90.7873C136.221 91.3341 136.193 92.182 136.622 92.7565L137.113 92.1197C135.068 91.6317 133.023 91.1472 130.981 90.6592C130.685 90.59 130.322 90.8669 130.444 91.1922C130.842 92.2339 131.535 93.0888 132.486 93.6806C132.897 93.9332 133.409 93.3068 133.012 93.0022C132.388 92.5246 131.699 92.1647 130.932 91.9778C130.552 91.8878 130.159 91.8359 129.768 91.8255C129.41 91.8186 128.88 91.8013 128.549 91.9536C127.999 92.2097 128.079 93.1026 128.295 93.5456C128.56 94.0855 129.1 94.4696 129.716 94.435C130.138 94.4108 130.322 93.8571 129.936 93.6287C125.598 91.0745 120.895 89.1572 116.003 87.9494C115.46 87.8144 115.226 88.6485 115.773 88.7834C120.599 89.9774 125.222 91.8602 129.5 94.3762L129.72 93.5698C129.215 93.601 128.824 93.0092 129.096 92.5696L128.835 92.7669C130.079 92.535 131.399 92.843 132.399 93.6148L132.925 92.9365C132.176 92.4727 131.598 91.7909 131.284 90.9672L130.747 91.5002C132.793 91.9882 134.838 92.4727 136.879 92.9607C137.214 93.0403 137.611 92.6492 137.371 92.3239C137.189 92.0816 137.116 91.7909 137.249 91.5037C137.391 91.1957 137.792 91.0157 138.064 90.8254C138.785 90.3235 139.51 89.8182 140.231 89.3164C140.952 88.8146 141.604 88.3543 142.294 87.8802C142.917 87.451 143.548 87.0565 144.307 86.9319C144.593 86.8834 144.694 86.5166 144.569 86.2951C144.279 85.7794 143.987 85.2672 143.698 84.7515L143.436 85.3883C145.272 84.8415 147.199 84.7965 149.059 85.2672C149.53 85.3849 149.833 84.7239 149.394 84.4781C148.784 84.1355 148.512 83.4364 148.718 82.7754L148.296 83.0938C149.46 82.9484 150.624 82.7996 151.787 82.6543C152.244 82.5954 152.415 81.9482 151.902 81.8029C151.261 81.6229 150.711 81.2561 150.324 80.7127L150.063 81.3495C152.104 80.7231 154.205 80.3666 156.341 80.2939C156.864 80.2766 156.895 79.626 156.456 79.4426C155.717 79.138 155.132 78.522 154.853 77.7779L154.317 78.3109C156.749 78.8404 159.33 78.3455 161.368 76.9196C161.686 76.6981 161.626 76.262 161.264 76.1305C154.184 73.5626 147.07 70.9877 139.691 69.3991C136.054 68.617 132.357 68.0736 128.64 67.9041C124.922 67.7345 120.919 67.9491 117.094 68.4405C112.77 68.9977 108.495 69.8837 104.265 70.9358C103.722 71.0707 103.952 71.9048 104.495 71.7698L104.509 71.7595Z" fill="white"/>
<path d="M107.96 74.6562C112.356 72.7839 116.987 71.4514 121.707 70.6831C126.306 69.9321 131.083 69.6483 135.727 70.1225C138.312 70.3855 140.887 70.9773 143.214 72.1471C143.713 72.3963 144.155 71.6522 143.653 71.3995C139.382 69.2503 134.455 68.9527 129.749 69.0704C124.892 69.1915 120.042 69.9044 115.356 71.178C112.684 71.9048 110.067 72.8254 107.521 73.9086C107.008 74.1267 107.451 74.8742 107.96 74.6562Z" fill="white"/>
<path d="M111.363 75.5526C116.68 73.7633 122.209 72.6039 127.801 72.109C133.361 71.6176 138.991 71.756 144.517 72.5589C147.642 73.0123 150.732 73.6768 153.77 74.5385C154.31 74.6908 154.54 73.8567 154 73.7045C148.555 72.1575 142.921 71.2611 137.263 71.0258C131.629 70.7904 125.968 71.2126 120.432 72.2751C117.279 72.8808 114.171 73.701 111.129 74.722C110.6 74.8985 110.826 75.736 111.359 75.556L111.363 75.5526Z" fill="white"/>
<path d="M115.321 76.2897C120.529 75.2792 125.808 74.5662 131.121 74.4935C136.033 74.4278 140.925 74.9365 145.722 75.9679C148.632 76.5908 151.499 77.3937 154.328 78.304C154.861 78.477 155.091 77.6395 154.558 77.4699C149.611 75.8779 144.548 74.6458 139.378 74.0436C134.208 73.4414 129.393 73.5141 124.418 74.0298C121.285 74.3551 118.174 74.8535 115.084 75.4522C114.533 75.5595 114.767 76.3936 115.314 76.2863L115.321 76.2897Z" fill="white"/>
<path d="M109.325 115.806C113.764 123.669 119.171 130.992 125.39 137.557C127.163 139.43 129.006 141.24 130.909 142.987C131.261 143.313 131.863 142.898 131.592 142.465C130.602 140.876 129.616 139.288 128.627 137.699L128.031 138.291C128.491 138.561 128.951 138.834 129.411 139.104C129.707 139.281 130.048 139.049 130.066 138.731C130.1 138.149 130.135 137.564 130.167 136.983C130.187 136.637 129.787 136.467 129.512 136.609C129.027 136.862 129.146 137.53 129.585 137.765C130.156 138.073 130.609 137.505 130.752 137.018C131.1 135.824 131.274 134.519 131.382 133.283C131.588 130.895 131.25 128.32 129.4 126.607L128.783 127.22C129.815 128.03 130.947 128.656 132.187 129.089C132.518 129.203 132.794 128.857 132.724 128.556C132.456 127.407 132.003 126.317 131.376 125.313L131.219 125.905C132.285 125.451 132.682 124.088 132.128 123.108L131.867 123.745C133.152 123.216 133.584 121.367 132.476 120.423L132.17 121.16C132.679 121.219 133.187 121.277 133.696 121.336C133.933 121.364 134.128 121.115 134.131 120.904C134.152 119.969 134.177 119.038 134.198 118.104L133.647 118.523C135.33 118.772 137.023 118.834 138.72 118.689C138.957 118.668 139.152 118.505 139.155 118.256C139.162 117.574 139.166 116.893 139.173 116.214L138.518 116.588C139.361 117.128 140.584 116.924 141.507 116.765C142.556 116.581 143.601 116.29 144.576 115.872C145.089 115.65 144.646 114.906 144.137 115.124C143.301 115.484 142.388 115.716 141.497 115.889C140.761 116.031 139.64 116.28 138.957 115.84C138.675 115.661 138.305 115.899 138.302 116.214C138.295 116.896 138.291 117.578 138.284 118.256L138.72 117.824C137.107 117.962 135.483 117.924 133.877 117.689C133.598 117.647 133.334 117.799 133.327 118.107C133.306 119.042 133.281 119.973 133.26 120.907L133.696 120.475C133.187 120.416 132.679 120.357 132.17 120.298C131.801 120.257 131.588 120.803 131.863 121.035C132.417 121.506 132.372 122.61 131.637 122.911C131.379 123.018 131.226 123.278 131.376 123.548C131.72 124.157 131.4 124.898 130.78 125.161C130.567 125.251 130.511 125.572 130.623 125.752C131.212 126.697 131.63 127.708 131.884 128.788L132.421 128.255C131.33 127.874 130.306 127.32 129.4 126.607C128.972 126.272 128.365 126.829 128.783 127.22C130.083 128.421 130.536 130.113 130.564 131.83C130.581 132.726 130.498 133.622 130.362 134.505C130.292 134.948 130.212 135.384 130.125 135.823C130.083 136.028 130.041 136.232 129.996 136.436C129.971 136.55 129.951 136.675 129.916 136.786C129.898 136.848 129.665 137.505 129.954 137.353L129.299 136.979C129.264 137.561 129.229 138.146 129.198 138.727L129.853 138.353C129.393 138.083 128.933 137.81 128.473 137.54C128.104 137.322 127.648 137.762 127.878 138.132C128.867 139.72 129.853 141.309 130.842 142.898L131.525 142.375C124.874 136.27 118.983 129.366 114.025 121.838C112.635 119.727 111.318 117.567 110.078 115.37C109.802 114.885 109.05 115.321 109.325 115.806Z" fill="white"/>
<path d="M118.074 117.651C119.949 119.146 121.806 120.658 123.586 122.264C125.366 123.87 127.073 125.552 128.787 127.22C129.188 127.611 129.805 126.998 129.404 126.607C127.687 124.936 125.979 123.254 124.203 121.651C122.426 120.049 120.565 118.533 118.691 117.038C118.259 116.692 117.639 117.301 118.074 117.651Z" fill="white"/>
<path d="M117.443 119.357C121.781 121.952 125.54 125.479 128.386 129.646C129.191 130.823 129.919 132.048 130.574 133.311C130.832 133.806 131.581 133.37 131.327 132.875C128.958 128.307 125.589 124.254 121.509 121.091C120.352 120.194 119.143 119.364 117.885 118.613C117.405 118.325 116.966 119.073 117.446 119.36L117.443 119.357Z" fill="white"/>
<path d="M116.547 119.021C120.038 123.832 123.345 128.77 126.459 133.827C126.752 134.301 127.505 133.868 127.212 133.391C124.097 128.334 120.787 123.396 117.3 118.585C116.976 118.138 116.22 118.568 116.547 119.021Z" fill="white"/>
<path d="M203.623 110.902C208.623 118.945 212.981 127.386 216.615 136.125C217.639 138.582 218.604 141.063 219.514 143.565C219.674 144.005 220.371 143.963 220.371 143.451C220.353 140.091 220.04 136.737 219.447 133.425L218.608 133.654C218.869 134.363 219.273 134.979 219.841 135.481C220.141 135.744 220.545 135.55 220.583 135.176C220.674 134.28 220.768 133.384 220.859 132.491L220.047 132.709C220.73 134.225 221.416 135.744 222.099 137.26C222.245 137.582 222.844 137.516 222.893 137.156C223.266 134.526 223.088 131.868 222.343 129.314L221.548 129.646C221.991 130.22 222.43 130.798 222.872 131.373C223.067 131.629 223.604 131.681 223.667 131.269C223.796 130.463 224.025 129.687 224.381 128.95H223.628C223.952 129.66 224.273 130.369 224.597 131.079C224.792 131.508 225.374 131.238 225.409 130.861C225.531 129.5 225.97 128.203 226.677 127.029H225.924C226.175 127.382 226.429 127.739 226.68 128.092C226.851 128.334 227.276 128.41 227.433 128.092C227.917 127.099 228.401 126.105 228.886 125.112H228.133C228.645 125.887 229.157 126.659 229.67 127.434C229.92 127.815 230.433 127.635 230.481 127.216C230.593 126.247 230.976 125.316 231.579 124.551L230.851 124.361C231 124.946 231.387 125.427 231.952 125.669C232.223 125.787 232.638 125.659 232.607 125.296C232.499 124.025 232.941 122.759 233.847 121.845C234.073 121.617 234.321 121.426 234.593 121.25C234.913 121.042 235 120.724 235.157 120.381C235.498 119.63 235.836 118.879 236.178 118.128L235.383 118.024C235.707 119.236 236.418 120.253 237.418 121.011C237.645 121.184 237.993 120.997 238.059 120.751C238.502 119.063 238.944 117.37 239.387 115.681H238.547C238.853 116.768 239.536 117.675 240.491 118.28C240.78 118.464 241.135 118.222 241.146 117.907C241.191 116.342 241.24 114.781 241.285 113.217L240.474 113.435C241.425 115.024 242.843 116.297 244.543 117.055C244.825 117.18 245.212 117.038 245.198 116.681C245.135 115.159 245.24 113.643 245.529 112.148H244.689C244.895 113.397 245.508 114.536 246.428 115.411C246.724 115.692 247.128 115.463 247.17 115.107C247.33 113.795 247.487 112.483 247.647 111.172L246.835 111.39C247.034 111.784 247.229 112.175 247.428 112.57C247.588 112.885 248.163 112.833 248.222 112.466C248.403 111.362 248.588 110.255 248.769 109.151L247.975 109.254C248.225 109.597 248.476 109.94 248.731 110.282C248.95 110.583 249.403 110.552 249.525 110.178C249.825 109.261 250.124 108.348 250.427 107.431L249.786 107.69C250.504 108.199 251.222 108.708 251.939 109.216C252.194 109.396 252.483 109.192 252.58 108.957C252.981 107.995 253.382 107.033 253.782 106.067L253.054 106.257C253.357 106.603 253.661 106.95 253.964 107.299C254.134 107.493 254.539 107.458 254.647 107.213C255.026 106.365 255.403 105.513 255.782 104.665H255.03C255.528 105.531 256.249 106.23 257.138 106.697C257.364 106.815 257.726 106.728 257.779 106.437C258.005 105.129 258.385 103.855 258.939 102.648L258.256 102.734C258.664 103.215 259.162 103.592 259.74 103.855C260.001 103.973 260.284 103.883 260.381 103.596C260.688 102.672 260.994 101.744 261.301 100.82L260.573 101.011C261.176 101.748 261.935 102.329 262.81 102.72C263.026 102.817 263.273 102.783 263.405 102.565C264.214 101.229 264.795 99.7751 265.123 98.2489L264.482 98.5085C265.085 98.9238 265.747 99.1453 266.475 99.2283C266.67 99.2491 266.841 99.076 266.896 98.9099C267.175 98.062 267.457 97.2106 267.736 96.3627L266.942 96.4665C267.422 97.131 268.06 97.5948 268.854 97.8232C269.025 97.8717 269.265 97.7921 269.346 97.6259C269.819 96.6327 269.969 95.5979 269.812 94.5112L269.084 94.9334C269.851 95.7848 271.234 96.0028 272.199 95.3418C273.164 94.6807 273.453 93.3725 272.972 92.3239L272.377 92.9157C273.509 93.4729 274.906 94.1166 276.153 93.5144C277.132 93.0403 277.728 91.9363 277.261 90.9084L276.665 91.5002C277.272 91.9571 277.962 92.2616 278.707 92.407C278.937 92.452 279.177 92.3447 279.244 92.1059C279.428 91.4102 279.613 90.7146 279.798 90.0224L279.376 90.3408C280.986 90.4827 282.397 89.2334 282.585 87.6725L281.93 88.0463C283.634 88.7869 285.828 87.3818 285.647 85.4714L285.431 85.8452C288.065 84.222 290.305 82.0486 292.006 79.4772L291.514 79.6744C292.929 79.9825 294.357 79.6191 295.451 78.6777C295.876 78.3143 295.256 77.7018 294.835 78.0651C293.988 78.7919 292.835 79.0757 291.744 78.8404C291.546 78.7954 291.365 78.8715 291.253 79.0376C289.633 81.4845 287.494 83.5506 284.992 85.0942C284.87 85.1703 284.762 85.3157 284.776 85.4679C284.891 86.6515 283.532 87.8006 282.372 87.2953C282.052 87.1568 281.759 87.323 281.717 87.669C281.585 88.7904 280.474 89.5691 279.38 89.4721C279.195 89.4548 279.007 89.6175 278.958 89.7906C278.773 90.4862 278.589 91.1818 278.404 91.874L278.941 91.5729C278.261 91.4414 277.658 91.1714 277.108 90.7561C276.721 90.4654 276.355 91.0053 276.512 91.3479C276.815 92.0124 276.077 92.7046 275.477 92.8465C274.568 93.0611 273.607 92.5592 272.819 92.1716C272.411 91.9709 272.042 92.3689 272.223 92.7634C272.523 93.4141 272.286 94.2862 271.662 94.6634C271.039 95.0407 270.192 94.8607 269.708 94.3243C269.384 93.9644 268.924 94.3623 268.98 94.7465C269.102 95.584 268.966 96.4319 268.6 97.1968L269.091 96.9995C268.527 96.8369 268.043 96.515 267.698 96.0374C267.478 95.7363 267.025 95.7709 266.903 96.1412C266.625 96.9891 266.342 97.8405 266.064 98.6884L266.485 98.37C265.914 98.3077 265.402 98.0897 264.935 97.7678C264.712 97.6156 264.349 97.7678 264.294 98.0274C263.98 99.4844 263.437 100.858 262.663 102.135L263.259 101.98C262.447 101.616 261.761 101.094 261.2 100.405C260.98 100.135 260.566 100.315 260.472 100.595C260.165 101.519 259.859 102.447 259.552 103.371L260.193 103.111C259.674 102.876 259.252 102.561 258.887 102.125C258.716 101.924 258.312 101.969 258.204 102.212C257.618 103.489 257.193 104.821 256.953 106.205L257.594 105.946C256.831 105.544 256.225 104.97 255.796 104.222C255.646 103.963 255.18 103.918 255.044 104.222C254.664 105.07 254.288 105.922 253.908 106.77L254.591 106.683C254.288 106.337 253.985 105.991 253.681 105.641C253.441 105.368 253.068 105.558 252.953 105.832C252.553 106.794 252.152 107.756 251.751 108.721L252.392 108.462C251.675 107.953 250.957 107.444 250.239 106.936C249.999 106.766 249.678 106.95 249.598 107.195C249.299 108.112 248.999 109.026 248.696 109.943L249.49 109.839C249.239 109.497 248.988 109.154 248.734 108.811C248.543 108.548 248.006 108.51 247.94 108.915C247.759 110.019 247.574 111.127 247.393 112.231L248.187 112.127C247.989 111.732 247.793 111.341 247.595 110.947C247.382 110.521 246.828 110.784 246.783 111.165C246.623 112.477 246.466 113.788 246.306 115.1L247.048 114.795C246.229 114.013 245.717 113.027 245.532 111.916C245.463 111.497 244.769 111.507 244.693 111.916C244.39 113.487 244.264 115.079 244.33 116.678L244.985 116.304C243.414 115.602 242.111 114.466 241.23 112.992C241.007 112.618 240.432 112.785 240.418 113.21C240.372 114.775 240.324 116.335 240.278 117.9L240.933 117.526C240.167 117.041 239.634 116.311 239.39 115.442C239.275 115.038 238.658 115.024 238.55 115.442C238.108 117.131 237.665 118.824 237.223 120.513L237.864 120.253C237.052 119.634 236.491 118.761 236.23 117.782C236.139 117.45 235.592 117.329 235.436 117.678C235.07 118.485 234.707 119.287 234.342 120.094C234.251 120.291 234.209 120.426 234.052 120.561C233.927 120.672 233.774 120.758 233.641 120.866C233.38 121.077 233.147 121.312 232.934 121.568C232.081 122.61 231.635 123.942 231.75 125.285L232.405 124.911C232.039 124.752 231.805 124.51 231.704 124.119C231.631 123.832 231.182 123.665 230.976 123.928C230.217 124.894 229.764 125.988 229.624 127.206L230.436 126.988C229.924 126.213 229.412 125.441 228.9 124.666C228.732 124.416 228.3 124.354 228.147 124.666C227.663 125.659 227.179 126.652 226.694 127.645H227.447C227.196 127.292 226.942 126.936 226.691 126.583C226.506 126.323 226.116 126.285 225.938 126.583C225.147 127.891 224.687 129.334 224.552 130.85L225.363 130.632C225.039 129.923 224.719 129.213 224.395 128.504C224.266 128.217 223.775 128.227 223.642 128.504C223.256 129.31 222.984 130.148 222.841 131.03L223.635 130.926C223.193 130.352 222.754 129.774 222.311 129.199C222.033 128.836 221.367 129.023 221.517 129.532C222.217 131.927 222.416 134.443 222.067 136.914L222.862 136.81C222.179 135.294 221.493 133.775 220.81 132.259C220.615 131.823 220.036 132.103 219.998 132.477C219.907 133.373 219.813 134.27 219.723 135.162L220.465 134.858C220.008 134.456 219.664 133.982 219.454 133.411C219.263 132.885 218.517 133.093 218.615 133.64C219.193 136.876 219.489 140.15 219.507 143.434L220.364 143.32C217.11 134.384 213.141 125.707 208.49 117.405C207.173 115.055 205.804 112.736 204.383 110.452C204.09 109.978 203.334 110.414 203.63 110.888L203.623 110.902Z" fill="white"/>
</g>
<path d="M169.4 183.952V184H167.456V183.952C167.504 183.736 167.732 182.956 167.732 182.212V179.788C167.732 179.032 167.504 178.264 167.456 178.036V178H169.124V178.924C169.604 178.3 170.168 177.928 170.924 177.928C171.656 177.928 172.34 178.276 172.628 179.068C173.12 178.36 173.72 177.928 174.536 177.928C175.496 177.928 176.372 178.528 176.372 179.956V182.212C176.372 182.956 176.6 183.736 176.648 183.952V184H174.704V183.952C174.752 183.736 174.98 182.956 174.98 182.212V180.136C174.98 179.236 174.404 178.864 173.804 178.864C173.432 178.864 173.084 179.032 172.7 179.344C172.748 179.524 172.772 179.728 172.772 179.956V182.212C172.772 182.956 173 183.736 173.048 183.952V184H171.092V183.952C171.14 183.736 171.368 182.956 171.368 182.212V180.136C171.368 179.236 170.78 178.864 170.18 178.864C169.82 178.864 169.472 179.02 169.124 179.308V182.212C169.124 182.956 169.352 183.736 169.4 183.952ZM179.156 184.096C177.908 184.096 177.224 183.184 177.224 182.26C177.224 180.94 178.628 180.16 180.236 180.376C180.5 180.412 180.752 180.46 180.944 180.52V179.776C180.944 178.876 180.596 178.396 180.08 178.396C179.348 178.396 177.932 179.548 177.692 179.884H177.644V178.396C178.58 178.084 179.516 177.928 180.164 177.928C181.616 177.928 182.36 178.684 182.36 179.836V182.596C182.36 183.232 182.612 183.472 183.128 183.268L183.14 183.304C183.02 183.748 182.636 184.06 182.096 184.06C181.496 184.06 181.1 183.736 180.98 183.172C180.644 183.64 180.044 184.096 179.156 184.096ZM178.712 182.092C178.712 182.8 179.216 183.316 179.888 183.316C180.284 183.316 180.644 183.124 180.944 182.776V180.88C180.884 180.88 180.824 180.868 180.764 180.856C179.42 180.64 178.712 181.288 178.712 182.092ZM183.385 184.012C183.553 183.88 184.153 183.352 184.513 182.872L185.713 181.288L184.477 179.524C184.069 178.9 183.445 178.228 183.253 178.048V178H185.713V178.036C185.653 178.252 185.653 178.756 186.001 179.26L186.781 180.388L187.657 179.2C188.017 178.72 187.957 178.204 187.897 178.024V178H189.385V178.036C189.217 178.168 188.617 178.708 188.257 179.176L187.057 180.772L188.233 182.476C188.665 183.1 189.313 183.76 189.517 183.952V184H187.009V183.964C187.069 183.748 187.069 183.244 186.721 182.728L185.977 181.684L185.113 182.86C184.753 183.34 184.813 183.844 184.873 184.024V184.06H183.385V184.012ZM192.306 176.488C193.41 176.176 194.406 175.732 195.222 175.084V182.212C195.222 182.956 195.45 183.736 195.498 183.952V184H193.446V183.952C193.494 183.736 193.722 182.956 193.722 182.212V176.764H192.306V176.488ZM196.242 183.988C198.582 180.856 200.37 178.732 200.37 177.04C200.37 176.392 200.01 175.708 199.206 175.708C198.306 175.708 197.478 176.728 196.878 177.736L196.83 177.724L196.506 175.948C197.286 175.588 198.222 175.24 199.242 175.24C200.754 175.24 201.93 176.008 201.93 177.316C201.93 178.408 201.09 179.44 200.082 180.376C199.206 181.324 197.982 182.5 197.634 182.812H199.602C200.538 182.812 201.318 182.632 201.954 182.152L201.99 182.164L201.714 183.988H196.242ZM206.013 184.096C204.057 184.096 202.533 182.296 202.533 179.644C202.533 177.064 204.057 175.264 206.013 175.264C207.969 175.264 209.505 177.064 209.505 179.644C209.505 182.296 207.969 184.096 206.013 184.096ZM206.013 183.604C207.345 183.604 207.813 181.588 207.813 179.632C207.813 177.712 207.333 175.756 206.013 175.756C204.681 175.756 204.225 177.796 204.225 179.656C204.225 181.636 204.693 183.604 206.013 183.604ZM215.507 184.108C214.019 184.108 212.615 183.052 212.615 181C212.615 179.044 213.851 177.928 215.555 177.928C216.455 177.928 217.223 178.264 217.739 178.492L217.751 180.1H217.703C217.283 179.404 216.503 178.36 215.591 178.36C214.607 178.36 214.151 179.428 214.151 180.628C214.163 182.116 214.823 183.148 216.131 183.148C216.659 183.148 217.307 182.98 217.991 182.404L218.027 182.428C217.655 183.328 216.755 184.108 215.507 184.108ZM220.583 183.952V184H218.639V183.952C218.687 183.736 218.915 182.956 218.915 182.212V179.788C218.915 179.032 218.687 178.264 218.639 178.036V178H220.307V178.924C220.787 178.3 221.351 177.928 222.107 177.928C222.839 177.928 223.523 178.276 223.811 179.068C224.303 178.36 224.903 177.928 225.719 177.928C226.679 177.928 227.555 178.528 227.555 179.956V182.212C227.555 182.956 227.783 183.736 227.831 183.952V184H225.887V183.952C225.935 183.736 226.163 182.956 226.163 182.212V180.136C226.163 179.236 225.587 178.864 224.987 178.864C224.615 178.864 224.267 179.032 223.883 179.344C223.931 179.524 223.955 179.728 223.955 179.956V182.212C223.955 182.956 224.183 183.736 224.231 183.952V184H222.275V183.952C222.323 183.736 222.551 182.956 222.551 182.212V180.136C222.551 179.236 221.963 178.864 221.363 178.864C221.003 178.864 220.655 179.02 220.307 179.308V182.212C220.307 182.956 220.535 183.736 220.583 183.952Z" fill="white"/>
<path fill-rule="evenodd" clip-rule="evenodd" d="M1.5 154.448L1.5 166.13H2.5L2.5 160.788L395.71 160.788L395.71 159.788L2.5 159.788L2.5 154.448H1.5Z" fill="#FEFEFE" fill-opacity="0.6"/>
<path d="M396 155L396 165.578" stroke="#FEFEFE" stroke-opacity="0.6"/>
<defs>
<clipPath id="clip0_1511_27">
<rect width="398" height="143.892" fill="white" transform="translate(0 0.053833)"/>
</clipPath>
</defs>
</svg>
