<svg width="204" height="178" viewBox="0 0 204 178" fill="none" xmlns="http://www.w3.org/2000/svg">
<path d="M84.4 172.952V173H82.456V172.952C82.504 172.736 82.732 171.956 82.732 171.212V168.788C82.732 168.032 82.504 167.264 82.456 167.036V167H84.124V167.924C84.604 167.3 85.168 166.928 85.924 166.928C86.656 166.928 87.34 167.276 87.628 168.068C88.12 167.36 88.72 166.928 89.536 166.928C90.496 166.928 91.372 167.528 91.372 168.956V171.212C91.372 171.956 91.6 172.736 91.648 172.952V173H89.704V172.952C89.752 172.736 89.98 171.956 89.98 171.212V169.136C89.98 168.236 89.404 167.864 88.804 167.864C88.432 167.864 88.084 168.032 87.7 168.344C87.748 168.524 87.772 168.728 87.772 168.956V171.212C87.772 171.956 88 172.736 88.048 172.952V173H86.092V172.952C86.14 172.736 86.368 171.956 86.368 171.212V169.136C86.368 168.236 85.78 167.864 85.18 167.864C84.82 167.864 84.472 168.02 84.124 168.308V171.212C84.124 171.956 84.352 172.736 84.4 172.952ZM94.1561 173.096C92.9081 173.096 92.2241 172.184 92.2241 171.26C92.2241 169.94 93.6281 169.16 95.2361 169.376C95.5001 169.412 95.7521 169.46 95.9441 169.52V168.776C95.9441 167.876 95.5961 167.396 95.0801 167.396C94.3481 167.396 92.9321 168.548 92.6921 168.884H92.6441V167.396C93.5801 167.084 94.5161 166.928 95.1641 166.928C96.6161 166.928 97.3601 167.684 97.3601 168.836V171.596C97.3601 172.232 97.6121 172.472 98.1281 172.268L98.1401 172.304C98.0201 172.748 97.6361 173.06 97.0961 173.06C96.4961 173.06 96.1001 172.736 95.9801 172.172C95.6441 172.64 95.0441 173.096 94.1561 173.096ZM93.7121 171.092C93.7121 171.8 94.2161 172.316 94.8881 172.316C95.2841 172.316 95.6441 172.124 95.9441 171.776V169.88C95.8841 169.88 95.8241 169.868 95.7641 169.856C94.4201 169.64 93.7121 170.288 93.7121 171.092ZM98.3848 173.012C98.5528 172.88 99.1528 172.352 99.5128 171.872L100.713 170.288L99.4768 168.524C99.0688 167.9 98.4448 167.228 98.2528 167.048V167H100.713V167.036C100.653 167.252 100.653 167.756 101.001 168.26L101.781 169.388L102.657 168.2C103.017 167.72 102.957 167.204 102.897 167.024V167H104.385V167.036C104.217 167.168 103.617 167.708 103.257 168.176L102.057 169.772L103.233 171.476C103.665 172.1 104.313 172.76 104.517 172.952V173H102.009V172.964C102.069 172.748 102.069 172.244 101.721 171.728L100.977 170.684L100.113 171.86C99.7528 172.34 99.8128 172.844 99.8728 173.024V173.06H98.3848V173.012ZM110.09 173.144C109.07 173.144 108.11 172.808 107.486 172.532L107.822 170.696L107.882 170.684C108.482 171.74 109.106 172.688 110.102 172.688C111.026 172.688 111.53 171.92 111.53 170.96C111.53 169.772 110.606 168.932 109.346 168.728V168.548C110.582 168.332 111.506 167.504 111.506 166.34C111.506 165.464 110.99 164.684 110.102 164.684C109.226 164.684 108.578 165.5 107.918 166.616H107.858L107.546 164.828C108.158 164.564 109.094 164.228 110.102 164.228C111.35 164.228 113.126 164.804 113.126 166.412C113.126 167.624 112.082 168.476 110.642 168.632C112.106 168.764 113.186 169.604 113.186 170.876C113.186 172.544 111.386 173.144 110.09 173.144ZM117.243 173.096C115.287 173.096 113.763 171.296 113.763 168.644C113.763 166.064 115.287 164.264 117.243 164.264C119.199 164.264 120.735 166.064 120.735 168.644C120.735 171.296 119.199 173.096 117.243 173.096ZM117.243 172.604C118.575 172.604 119.043 170.588 119.043 168.632C119.043 166.712 118.563 164.756 117.243 164.756C115.911 164.756 115.455 166.796 115.455 168.656C115.455 170.636 115.923 172.604 117.243 172.604ZM126.737 173.108C125.249 173.108 123.845 172.052 123.845 170C123.845 168.044 125.081 166.928 126.785 166.928C127.685 166.928 128.453 167.264 128.969 167.492L128.981 169.1H128.933C128.513 168.404 127.733 167.36 126.821 167.36C125.837 167.36 125.381 168.428 125.381 169.628C125.393 171.116 126.053 172.148 127.361 172.148C127.889 172.148 128.537 171.98 129.221 171.404L129.257 171.428C128.885 172.328 127.985 173.108 126.737 173.108ZM131.813 172.952V173H129.869V172.952C129.917 172.736 130.145 171.956 130.145 171.212V168.788C130.145 168.032 129.917 167.264 129.869 167.036V167H131.537V167.924C132.017 167.3 132.581 166.928 133.337 166.928C134.069 166.928 134.753 167.276 135.041 168.068C135.533 167.36 136.133 166.928 136.949 166.928C137.909 166.928 138.785 167.528 138.785 168.956V171.212C138.785 171.956 139.013 172.736 139.061 172.952V173H137.117V172.952C137.165 172.736 137.393 171.956 137.393 171.212V169.136C137.393 168.236 136.817 167.864 136.217 167.864C135.845 167.864 135.497 168.032 135.113 168.344C135.161 168.524 135.185 168.728 135.185 168.956V171.212C135.185 171.956 135.413 172.736 135.461 172.952V173H133.505V172.952C133.553 172.736 133.781 171.956 133.781 171.212V169.136C133.781 168.236 133.193 167.864 132.593 167.864C132.233 167.864 131.885 168.02 131.537 168.308V171.212C131.537 171.956 131.765 172.736 131.813 172.952Z" fill="white"/>
<g clip-path="url(#clip0_1528_26)">
<path d="M53.2086 83.9475C60.2078 77.9512 68.3892 73.3571 77.1349 70.5123C94.2859 64.9353 106.923 66.0264 124.902 67.3428C128.239 67.5863 134.512 68.0416 137.522 69.5159C129.421 68.7991 124.347 68.0597 116.246 67.3428C111.961 66.9641 107.662 66.5854 103.358 66.6981C90.1213 67.0453 77.4842 71.991 65.1829 76.9233C63.2573 77.6942 61.2691 78.5058 59.8092 79.989L58.7345 80.6202C58.2106 81.0305 57.6687 81.4813 58.0762 82.3199C58.5151 83.2216 59.1465 82.6806 59.6615 82.5273C63.1454 81.4904 66.3875 79.7591 69.9073 78.8123C70.6417 78.614 71.3224 78.1947 72.1911 78.4472C70.8387 79.0333 69.4863 79.6239 68.1295 80.2009C65.6621 81.2604 63.1902 82.3064 60.7228 83.3704C59.9615 83.6995 58.9808 83.9385 59.339 85.0971C59.7062 86.2874 60.6108 85.5795 61.3183 85.5345C61.484 85.5254 61.6452 85.5119 61.8691 85.4939C61.9945 86.1386 60.8034 86.1566 61.2064 86.7878C61.5646 87.3469 62.2364 87.1079 62.7648 87.0944C65.7024 87.0132 68.4967 86.0574 71.2686 85.282C74.4033 84.4073 77.5469 83.7491 80.7442 83.2397C86.0463 82.3921 124.607 84.6012 123.814 85.9132C120.12 86.3866 86.8747 83.2712 83.1758 83.6725C78.1066 84.227 73.1628 85.3451 68.2817 86.7788C66.7816 87.2206 65.2635 87.5948 63.7544 88.0096C62.8991 88.244 61.6318 88.4469 61.8781 89.5109C62.1334 90.611 63.3156 90.4216 64.2783 90.1015C65.2859 89.7679 66.3159 89.7408 67.3861 90.3089C66.0606 90.5839 64.7306 90.8589 63.4051 91.1249C62.7245 91.2647 61.9721 91.4496 61.9766 92.2836C61.9766 93.2439 62.8454 93.1267 63.4857 93.2079C65.9308 93.5234 68.3937 93.5144 70.8522 93.5325C76.6513 93.573 82.419 94.4026 88.2226 94.5198C85.3387 94.5198 82.4549 94.5198 79.571 94.5198C74.3092 94.5198 69.0475 94.5198 63.7902 94.5288C63.5126 94.5288 63.226 94.5153 62.9528 94.5469C62.5319 94.5965 61.9498 94.4792 61.8691 95.0789C61.7975 95.5928 62.2543 95.9084 62.6662 96.0482C63.835 96.4314 65.0307 96.729 66.2084 97.0851C66.5129 97.1753 66.8846 97.1753 67.1578 97.7118C65.7695 97.9192 64.5246 97.572 63.2797 97.297C62.8454 97.2023 62.4244 97.04 61.9856 96.9769C61.6497 96.9273 61.2736 96.9995 61.1482 97.3782C61.0094 97.7884 61.3542 97.9778 61.6318 98.1536M57.3463 77.7348C56.8268 78.1135 56.2492 78.4291 56.6746 79.2001C57.0731 79.9259 57.7135 79.9845 58.4166 79.7185M58.6897 98.5774C59.0883 98.1897 59.6525 97.9417 59.8316 97.3737C60.069 96.6298 60.5526 95.6559 58.9897 96.0301C58.6405 96.1158 58.2777 96.1068 58.0717 95.8002C56.7059 93.7714 54.4087 93.3792 52.3935 92.5135C51.5875 92.1664 50.9695 91.6795 50.3874 91.0528C49.4559 90.0429 48.7036 88.8707 47.1139 88.6047C45.963 88.4108 46.1287 87.2522 46.2407 86.3595C46.3168 85.7599 46.7422 85.8816 47.1273 86.08C47.9871 86.5263 48.7126 87.1485 49.2947 87.9194C50.4948 89.5154 52.1562 90.5343 53.7862 91.5938C54.2161 91.8733 54.7266 91.9951 55.2371 91.9004C55.8103 91.7922 56.6164 92.0807 56.8537 91.3323C57.0686 90.647 56.4417 90.2458 55.9715 89.8445C55.7207 89.6326 55.358 89.4162 55.2864 89.1412C54.4579 85.9267 51.8875 84.1864 49.5634 82.2388C49.3037 82.0179 48.9499 81.8646 49.129 81.4498C49.2902 81.0756 49.6574 81.1162 49.9978 81.1117C50.7904 81.1026 51.5069 81.3551 51.8114 82.0945C52.8906 84.6869 55.6446 85.2053 57.503 86.8194C57.9419 87.2026 58.5375 86.9997 58.4434 86.2197C58.3001 85.0475 58.2285 83.7942 56.6567 83.5778C56.4955 83.5552 56.3387 83.4651 56.1954 83.3839C55.7521 83.136 55.2685 82.87 55.3088 82.2703C55.3446 81.7564 55.8282 81.7654 56.1999 81.6752C57.1179 81.4543 57.0731 80.8907 56.6074 80.3092C56.2402 79.8493 56.0073 78.6455 55.0804 79.7907C54.7132 80.246 54.337 80.3227 53.9922 79.8448C53.6832 79.421 53.7773 78.9341 54.2116 78.6591M201.151 71.9189C200.627 71.6168 200.107 71.5447 199.543 71.5943C198.925 71.6439 198.625 71.3373 198.491 70.7602C198.37 70.2373 198.312 69.7954 198.858 69.4302C199.364 69.0921 199.83 68.6683 200.264 68.2355C200.645 67.8568 201.204 67.4691 200.855 66.8108C200.528 66.1977 199.924 66.3374 199.355 66.3961C196.673 66.6711 194.075 67.3248 191.514 68.1273C190.981 68.2941 190.457 68.6593 189.561 68.0101C191.294 67.7215 191.845 66.4141 192.817 65.589C194.335 64.2951 195.768 62.6676 198.343 64.5115C196.498 61.8109 196.364 61.7704 193.829 62.4376C192.262 62.8479 190.681 63.2041 189.105 63.5783C188.549 63.709 187.654 63.8262 187.573 63.3393C187.278 61.572 186.279 62.5233 185.603 62.7667C183.865 63.4024 182.101 63.9254 180.35 64.5115C175.648 66.085 171.837 69.1823 167.946 72.1173C167.659 72.3337 167.337 72.7575 167.35 73.0731C167.368 73.6727 168.214 72.8071 168.34 73.4969C168.076 73.9838 167.471 74.5158 167.184 74.3084C165.778 73.294 165.084 74.624 164.274 75.174C163.275 75.8503 162.272 76.4274 161.094 76.6077C159.384 76.8692 157.669 77.1262 155.944 77.2524C152.931 77.4778 150.159 76.5716 147.4 75.3363C147.879 74.606 148.542 74.6285 149.115 74.5158C150.042 74.3309 151.014 74.3219 151.919 74.0694C153.083 73.7403 152.949 73.1632 151.874 72.5411C153.164 72.0992 153.88 70.9225 155.192 70.6701C155.541 70.6024 156.083 70.3139 155.622 69.6827C154.829 68.6142 154.861 68.5646 156.298 68.2175C157.046 68.0371 157.928 68.0822 158.304 67.2211C158.734 66.2383 157.543 66.0083 157.207 65.2419C158.049 64.9714 158.788 64.7324 159.522 64.489C159.782 64.4033 160.127 64.3672 160.163 64.0381C160.212 63.5873 159.818 63.5151 159.5 63.443C158.922 63.3123 158.331 63.0823 158.3 62.4466C158.264 61.6937 159.079 61.7253 159.536 61.5269C160.597 61.0625 161.305 60.6027 160.069 59.3584C160.642 59.701 161.766 58.087 161.632 60.0391C161.609 60.3773 162.178 60.3367 162.491 60.2195C163.271 59.9219 163.365 59.1915 163.297 58.5288C163.221 57.7443 162.572 57.848 161.994 57.9021C161.453 57.9562 160.911 58.3349 160.091 57.9607C161.461 57.289 162.308 56.234 163.62 55.9364C164.095 55.8282 164.668 55.7426 164.699 55.0798C164.708 54.913 164.516 54.638 164.354 54.5749C163.812 54.363 163.374 54.6515 163.002 55.0122C161.932 56.0401 160.36 55.7967 159.169 56.5857C158.716 56.8877 158.287 56.3512 158.21 55.7922C158.569 55.2241 159.711 55.8282 159.527 55.3594C159.043 54.115 160.1 54.1511 160.552 53.9527C161.699 53.4478 162.635 52.6633 163.651 51.987C163.812 51.8788 163.956 51.6263 163.965 51.437C163.978 51.153 163.692 51.18 163.477 51.1169C161.435 50.5443 161.332 50.098 162.769 48.5426C161.65 47.7851 160.414 47.6634 159.102 48.0602C158.667 48.1909 158.018 48.5786 157.803 47.8843C157.619 47.2937 158.269 47.0908 158.703 46.8474C159.079 46.6355 159.702 46.4551 159.437 45.9186C159.133 45.2965 158.564 45.6166 158.148 45.9051C156.652 46.9511 154.825 46.1666 153.061 47.3929C153.437 46.2072 154.077 46.0945 154.44 45.6887C154.731 45.3641 155.268 45.0981 155.098 44.6022C154.892 43.998 154.252 44.0657 153.791 44.1964C152.783 44.4804 151.749 44.3542 150.705 44.751C149.63 45.1612 148.471 45.824 147.011 45.5489C147.947 44.3993 149.433 44.0837 150.101 42.7808C147.176 42.3525 144.991 44.6247 142.304 44.7555C143.76 43.5607 145.484 42.7988 146.473 41.0946C140.419 44.1874 134.714 47.9655 127.679 49.8185C129.157 47.4064 131.387 46.1576 132.502 43.7771C131.62 43.8718 131.136 44.3136 130.603 44.7014C127.424 47.0187 124.665 49.832 121.714 52.4108C120.559 53.4207 120.147 52.794 119.793 51.8608C119.359 50.7111 119.824 49.6697 120.393 48.6598C120.966 47.6409 121.759 46.5543 121.257 45.3776C120.93 44.6157 121.208 44.3813 121.642 44.0116C122.95 42.8935 123.917 41.5004 124.764 39.99C121.934 41.4192 119.614 43.4705 117.496 45.7879C117.16 46.1576 117.017 47.0322 116.305 46.658C115.763 46.374 115.843 45.6166 116.018 45.1026C117.115 41.9332 118.494 38.7998 121.49 37.0911C124.697 35.2606 126.564 32.2625 128.888 29.6431C129.045 29.4673 129.215 29.1652 128.906 28.9353C128.575 28.8631 128.369 29.5214 127.822 29.0209C129.434 27.47 131.051 26.0003 131.588 23.7731C123.667 29.5214 116.748 36.2751 111.029 44.0071C109.337 42.0278 109.108 40.1884 111.298 38.6014C111.621 38.899 110.98 39.3633 111.638 39.7375C112.646 37.9206 113.86 36.2796 115.879 35.4275C117.182 34.8774 118.006 33.854 118.315 32.4023C118.481 31.6268 118.965 30.928 119.596 30.4591C122.184 28.5476 123.792 25.6757 126.268 23.6559C127.142 22.9435 127.818 22.114 127.876 20.8336C127.952 19.215 128.158 17.5785 129.363 16.2981C129.493 16.1583 129.475 15.8698 129.219 15.6894C128.583 15.6894 128.306 16.253 127.939 16.6407C126.703 17.9437 125.619 19.4134 124.267 20.5766C119.43 24.7334 115.521 29.7378 111.424 34.5663C109.901 36.3607 108.674 38.4662 106.95 40.0216C105.969 40.9052 105.356 41.7573 104.944 42.925C104.809 43.3173 104.469 43.5742 104.039 43.1414C103.242 42.3389 102.714 41.4372 103.135 40.2741C103.788 38.4707 105.145 37.303 106.301 37.4743C107.863 37.7042 108.625 37.1362 108.737 35.5176C108.781 34.8864 108.777 34.2913 109.229 33.7909C110.801 32.0416 112.131 30.0714 114.133 28.7324C115.149 28.0516 115.548 27.1139 115.234 25.8109C114.728 23.6965 115.893 22.4972 117.926 22.8849C118.127 22.9255 118.459 22.93 118.548 22.8128C119.48 21.6 121.087 21.3521 122.063 20.0581C123.228 18.5207 124.123 16.6182 125.91 15.6759C127.213 14.9906 127.728 13.9897 127.957 12.6327C128.176 11.3298 127.983 10.0494 127.957 8.75993C127.939 7.88529 127.554 7.75455 126.936 8.29556C125.673 9.40464 124.325 10.4416 123.205 11.6859C120.089 15.1439 117.061 18.683 114.016 22.2042C110.385 26.406 106.726 30.5854 103.618 35.2111C102.382 37.0505 101.057 38.8268 99.6148 40.8511C99.5163 40.3101 99.4626 40.0531 99.4223 39.7916C99.2163 38.4571 100.058 37.4382 100.461 36.2841C100.815 35.2742 100.766 34.4852 99.4939 34.395C98.1998 34.3049 98.3072 33.7097 98.8401 32.8712C99.2028 32.3031 99.5342 31.7125 99.9014 31.1489C100.116 30.8153 100.385 30.4682 100.851 30.6936C101.258 30.8874 101.321 31.2842 101.29 31.7035C101.254 32.1859 100.77 32.6187 101.142 33.4302C101.854 31.8838 101.625 30.1481 102.888 29.2283C104.317 28.1824 105.32 26.8208 106.413 25.4773C107.416 24.242 108.087 23.0563 107.962 21.3836C107.877 20.252 107.984 18.4982 108.804 18.1736C110.873 17.3621 112.033 15.446 113.949 14.5398C115.073 14.0078 115.467 12.8897 116 11.7941C117.07 9.594 117.442 6.9836 119.851 5.50934C120.035 5.39662 120.214 5.2794 120.393 5.16669C120.407 4.70683 120.442 4.24246 120.55 3.79612C120.187 4.03056 119.829 4.265 119.466 4.49493C118.92 4.84208 118.396 5.83394 117.657 5.31547C116.855 4.75192 117.666 3.86826 117.639 3.12436C117.639 3.0387 117.514 2.96206 117.339 2.75016C112.122 8.39475 107.295 14.2738 103.157 20.6938C99.4088 26.5052 96.0189 32.524 93.0768 38.7953C92.8888 39.192 92.7455 39.7601 92.2036 39.6789C91.6573 39.5978 91.7155 38.9982 91.617 38.5744C90.8915 35.4049 91.6439 32.7134 94.0217 30.4276C95.7458 28.773 95.7055 26.0679 97.3668 24.3276C97.4519 24.2375 97.4027 24.012 97.4071 23.8452C97.8684 23.6514 98.0117 23.2546 98.1012 22.7948C98.5177 20.6668 99.2252 18.6921 100.802 17.0961C101.433 16.4604 101.693 15.5452 101.872 14.648C102.1 13.5118 102.208 12.3306 103.403 11.3839C102.929 11.4064 102.758 11.3748 102.62 11.4244C101.706 11.74 100.734 11.5326 100.452 10.7076C100.125 9.74729 101.079 9.45874 101.881 9.26939C102.678 9.08003 103.067 8.32712 102.933 7.732C102.539 5.96018 103.681 4.75642 104.29 3.3588C104.599 2.65097 105.002 1.99274 104.783 1.13613C103.945 1.26688 103.569 1.87552 103.211 2.40752C100.609 6.27577 98.052 10.1621 95.8891 14.3098C92.6828 20.4594 89.8661 26.7532 87.9808 33.4528C87.2956 35.8873 86.4538 38.2813 85.6298 40.6753C85.4238 41.2749 85.2133 42.0233 84.2282 41.7168C82.6922 41.2389 81.6174 37.2218 82.4011 35.8107C84.4386 32.1273 87.0717 28.6242 86.6284 24.0211C86.5836 23.5792 86.5299 23.0337 86.7359 22.6911C87.945 20.6938 88.6838 18.647 89.0958 16.262C89.4675 14.1115 90.287 11.9474 90.6049 9.73376C90.9184 7.5697 90.8557 5.39662 92.6156 3.66538C93.4933 2.79975 92.8171 1.32098 91.2767 0.577083C90.1168 0.0180346 90.0586 1.26237 89.772 1.82593C86.3329 8.54353 83.5699 15.5361 81.6846 22.8534C80.3681 27.9705 78.7022 33.0064 77.8962 38.2543C77.7484 39.2101 77.3901 39.2912 76.7184 38.6916C75.7646 37.8395 75.0974 36.9874 75.4601 35.4906C75.9616 33.4212 76.1632 31.2752 76.4945 29.1607C76.6423 28.2275 76.4677 27.4204 75.8945 26.6224C74.4481 24.6027 74.5152 23.7956 75.984 21.7939C76.9065 20.536 77.9723 19.3323 78.2589 17.7273C78.7828 14.8013 79.3068 11.8978 80.2919 9.062C80.8024 7.59224 81.9533 6.15855 81.2995 4.40927C80.8562 3.21453 80.068 2.1325 80.1576 0.76193C80.1755 0.495931 80.0053 0.166814 79.6605 0.220915C79.4993 0.247966 79.3202 0.482406 79.2441 0.667252C78.035 3.50758 76.7229 6.31635 75.6661 9.21529C74.1077 13.5028 73.23 17.9662 72.3299 22.4431C71.3134 27.4881 70.8208 32.5511 70.4044 37.6591C70.2655 39.3273 71.1746 41.4958 69.0027 42.659C68.9714 42.6771 68.9803 42.898 69.0341 42.934C69.5759 43.3443 69.8894 43.9259 69.0833 44.1694C68.3176 44.3993 67.6817 43.5968 67.8071 42.9656C68.1474 41.2659 67.0682 40.1163 66.5308 38.7457C65.6621 36.5185 64.7485 34.1651 66.0517 31.9154C67.7309 29.0119 67.5384 26.1851 66.4726 23.2321C65.9263 21.7217 66.092 20.1258 65.9487 18.5703C65.9084 18.1285 66.1412 17.6281 66.7592 17.7588C67.4936 17.9076 67.9996 17.3801 68.0175 16.9202C68.1429 14.134 68.9893 11.5056 69.5804 8.82305C69.6252 8.62919 69.4684 8.39475 69.4102 8.17383C68.8191 5.88354 68.134 3.60226 68.9535 1.21278C69.043 0.955794 69.0117 0.640202 68.5146 0.513965C67.8832 1.39762 67.4354 2.3985 67.1667 3.49406C66.6741 5.51835 66.177 7.53814 65.7113 9.56695C64.2201 16.0321 63.1006 22.5648 62.4289 29.1697C62.0527 32.8621 61.9005 36.5816 61.5333 40.2741C61.3094 42.4877 60.772 42.7176 58.8688 41.5995C58.1255 41.1622 57.5926 41.1352 56.9477 41.7799C55.8864 42.8484 55.4028 42.6906 54.955 41.2344C54.552 39.9314 54.6729 39.5843 55.77 38.624C55.8909 38.5158 55.9223 38.2047 55.8775 38.0198C55.0356 34.8323 55.6715 31.7846 56.585 28.7234C57.0283 27.2356 56.7641 25.8244 55.4073 24.7875C54.852 24.3637 54.4893 23.7821 54.7535 23.0157C54.8654 22.6911 55.1879 22.2357 55.4342 22.5197C56.3745 23.6243 56.4552 22.4882 56.688 22.0509C57.718 20.1212 58.8285 18.1961 57.9195 15.8517C57.7045 15.3017 57.9732 14.7291 58.2464 14.2332C59.2316 12.4479 58.4345 10.7301 58.0449 9.0079C57.9643 8.65173 57.6821 8.24146 57.2254 8.26851C56.6746 8.30007 57.2433 9.03946 56.6746 9.18824C55.4342 7.26763 57.203 4.8511 55.6894 2.77721C54.9057 3.88178 55.1386 5.05398 54.9236 6.10896C53.419 13.5164 52.5458 21.0004 52.1741 28.5476C51.9502 33.1146 51.9547 37.6637 52.6309 42.2037C52.7294 42.8619 53.1682 43.8493 52.4249 44.1964C51.8203 44.4804 51.3681 43.5427 50.862 43.1279C49.9933 42.4201 49.1604 41.1848 48.2468 41.1216C45.9138 40.9684 46.0929 39.2191 45.7302 37.826C45.5645 37.1903 45.3227 36.0226 46.0795 35.8648C47.0199 35.6709 46.993 36.8882 47.2885 37.56C47.3647 37.7358 47.2572 38.0198 47.5841 38.0559C47.9961 37.3075 47.5662 36.6538 47.3826 35.964C46.572 32.9703 46.4601 29.9136 46.6303 26.8434C46.6974 25.6441 46.7109 24.4809 46.1063 23.3899C45.7705 22.7857 45.6406 22.123 45.6854 21.4332C45.7705 20.0401 46.0795 18.6019 44.9062 17.4567C44.7763 17.3305 44.6868 17.1727 44.8614 17.0284C46.6437 15.5497 45.0226 14.5037 44.2569 13.593C43.4822 12.6733 42.9985 11.7896 42.9762 10.5994C42.9672 10.1666 43.2404 9.37759 42.4925 9.4362C41.9507 9.47678 42.0089 10.2432 41.991 10.7346C41.7312 16.9789 42.1701 23.205 42.5283 29.4267C42.806 34.2508 43.218 39.0883 44.7763 43.732C44.9689 44.3001 45.1659 45.0124 44.3867 45.3416C43.7643 45.603 43.1598 45.4407 42.7254 44.8952C41.9552 43.9304 41.0864 43.0197 40.4729 41.9602C38.6056 38.7277 37.9338 34.8684 35.3142 32.01C34.8619 31.5186 34.8037 30.7612 35.1574 30.0894C35.9948 28.5115 35.2112 27.3348 34.0872 26.406C33.2184 25.6892 32.6184 24.9453 32.4213 23.8001C32.2915 23.0337 31.9198 22.3124 31.6287 21.5775C31.4944 21.2393 31.4272 20.6668 30.8988 20.8651C30.4375 21.041 30.6838 21.5414 30.7331 21.9156C30.7555 22.0824 30.8092 22.2447 30.8451 22.4115C32.802 31.4149 35.9635 39.9945 39.6758 48.3938C40.1594 49.4893 41.5476 50.5173 41.0282 51.6173C40.5625 52.6047 39.1519 53.1232 38.1891 53.8896C37.4681 54.4667 37.0606 54.4802 36.8367 53.4433C36.5412 52.0547 35.9321 52.6678 35.4306 53.3125C34.6245 54.3495 34.2797 55.6208 33.7379 56.7885C32.8333 58.7362 31.8392 60.6207 29.7882 61.6486C29.0493 62.0183 28.3508 61.9597 28.0642 61.2519C27.3253 59.4125 26.5819 59.9264 25.6774 61.0761C25.3505 61.4909 24.5981 61.8515 24.6564 61.0175C24.7414 59.8092 24.2578 58.353 25.552 57.4152C26.0356 57.0681 26.0714 56.4279 26.358 56.0221C27.2133 54.8003 26.2102 53.1727 27.3477 52.0772C28.4806 50.9907 27.4507 50.8329 26.6581 50.5849C27.1865 49.8094 28.5299 49.2865 27.9253 48.227C27.1417 46.8609 27.988 46.7211 28.8344 46.1891C30.0703 45.4137 31.5929 44.6923 31.2302 42.7537C30.9122 41.0405 30.554 39.3363 30.1957 37.6321C29.9136 36.3021 29.1031 35.441 27.8044 34.8233C27.7507 35.8017 28.4135 36.0226 28.8747 36.3652C29.5106 36.8431 29.842 37.4427 29.842 38.2317C29.842 39.5933 30.0972 40.9188 30.3928 42.2397C30.6211 43.2587 30.4375 44.1784 29.5061 44.7645C28.7001 45.2694 27.8403 45.6887 27.0073 46.1441C26.1162 46.631 25.7983 46.2883 25.8296 45.3506C25.8475 44.7329 26.0132 43.98 25.7311 43.5247C24.6116 41.7032 24.5623 41.7393 24.9653 39.8503C25.028 39.5662 25.2833 39.2326 24.8355 38.935C24.0473 40.0396 23.8503 41.2704 23.7966 42.5869C23.6488 46.2297 24.2309 49.9222 23.1249 53.5064C22.4979 55.5352 21.2709 57.3791 21.3381 59.6334C21.0605 58.3259 21.047 57.0275 20.756 55.7922C20.4559 54.5253 20.5992 53.5109 21.4948 52.5416C23.7025 50.1566 22.3949 47.4695 21.965 44.9178C21.7904 43.8898 20.6485 43.9304 19.6678 43.9665C21.1948 44.6743 22.2516 45.5309 21.2306 47.3523C21.0336 47.704 21.3068 48.1188 21.4948 48.4659C21.9023 49.2233 21.7456 49.9582 21.5396 50.7517C21.2038 52.0547 20.1425 52.9067 19.6454 54.1105C19.4215 54.6605 18.8393 55.2466 18.2661 55.1835C17.6079 55.1114 17.8363 54.2593 17.6527 53.7543C17.5765 53.547 17.5765 53.308 17.5094 53.0961C17.3571 52.6002 17.469 51.7571 16.6809 51.8923C16.0137 52.0096 16.3182 52.7309 16.363 53.1953C16.6272 56.0807 17.2944 58.8714 18.714 61.4097C19.5021 62.8208 19.5334 64.0246 18.3781 65.2329C17.8407 65.7964 17.3168 66.4231 17.1825 67.2346C16.8869 69.0515 15.9286 70.6024 15.1808 72.23C14.4195 73.8936 13.1656 74.2137 11.5759 73.3616C11.0296 73.0686 10.8818 72.505 10.5549 72.0632C10.0847 71.432 9.35926 70.9541 8.67411 71.3373C7.79193 71.8242 8.5129 72.5456 8.83532 73.0325C9.48017 74.0018 9.413 74.8674 8.59799 75.6023C7.47399 76.6122 6.58285 77.9332 5.19465 78.5779C4.21843 79.0333 4.02587 80.6428 3.10339 80.494C2.12717 80.3407 2.19882 78.8259 1.63458 78.0053C1.43755 77.7168 1.21812 77.4328 0.833007 77.5094C0.438937 77.586 0.353854 77.9467 0.318029 78.2894C0.197121 79.5607 0.197121 80.751 1.53606 81.5174C2.13165 81.8601 3.07652 82.5589 2.52572 83.2036C1.16438 84.7996 2.09582 87.3018 0.210555 88.6227C-0.0939536 88.8392 0.00456398 89.3531 0.0627789 89.7544C0.232946 90.9085 0.653885 91.8598 1.68832 92.5677C2.9377 93.4197 4.12439 94.353 3.44372 96.2691C3.25117 96.8146 3.5915 97.5946 3.80645 98.2258C4.00348 98.8119 4.35725 99.4566 5.07374 99.3799C5.6962 99.3123 5.97384 98.627 6.02757 98.113C6.21565 96.2375 6.90527 96.9904 7.68446 97.7118C8.1457 98.1401 8.45917 98.5684 8.6159 99.2311C8.96071 100.692 9.09505 102.162 9.57421 103.64C10.8952 107.716 12.0192 111.769 15.5077 114.628C16.1615 115.164 16.7346 115.502 17.6168 115.268C18.6244 115.002 18.7587 114.222 18.7453 113.437C18.714 111.733 17.8586 110.133 19.014 108.302C19.6812 107.252 18.8662 105.777 17.3347 105.331C16.2286 105.006 15.8704 103.825 16.1794 103.226C16.5779 102.45 17.2496 103.429 17.7601 103.731C19.1259 104.538 20.5321 104.538 21.9337 103.942C22.4487 103.726 22.901 103.284 23.4876 103.537C24.5175 103.983 25.4624 103.843 26.3938 103.099C26.4342 104.452 25.0549 105.566 25.5878 106.431C26.4655 107.856 26.6581 109.474 27.4104 110.881C28.0507 112.08 29.1792 111.801 29.43 110.854C29.8957 109.082 31.6959 107.892 31.4406 105.872C31.3466 105.137 31.5839 104.664 32.4213 104.673C36.0486 104.713 39.7161 104.443 43.0657 106.314C43.6434 106.639 44.3017 106.972 44.9375 107.013C46.7915 107.134 48.0364 108.099 49.0216 109.587C49.6127 110.484 50.3695 111.26 51.1128 112.044C51.4218 112.004 51.7487 112.116 51.9592 112.454C54.1355 115.949 55.7655 119.736 57.4403 123.487C57.5657 123.766 57.5836 124.077 57.4672 124.339C59.9749 128.631 62.9931 132.603 65.5546 136.859C65.9218 137.467 66.3024 138.062 67.2831 137.828C68.3489 137.571 68.6266 138.243 68.4474 139.212C68.3131 139.92 68.0668 140.619 68.537 141.331C69.8401 143.319 71.2015 145.24 73.4763 146.223C73.9644 146.435 74.5779 147.237 74.8779 146.768C75.2317 146.218 75.5452 145.339 75.1556 144.559C74.8018 143.851 74.3137 143.252 73.6913 142.738C72.9345 142.111 72.2941 141.363 72.0388 140.258C73.0419 140.258 73.539 140.822 74.045 141.43C75.4825 143.175 76.199 145.447 78.6619 146.453C79.7949 146.913 80.0322 147.287 80.1845 145.614C81.1652 147.102 83.0863 146.038 83.9237 148.085C84.0893 146.547 84.8327 146.534 85.6611 146.678C86.1448 146.759 86.812 146.976 86.8031 146.187C86.7941 144.951 87.2733 145.159 87.9853 145.637C88.2674 145.826 88.6525 145.975 88.8988 145.664C89.2391 145.235 88.7913 144.96 88.5629 144.667C88.1778 144.167 87.5464 143.775 87.8554 142.846C88.8003 143.513 89.6511 144.122 90.5109 144.717C91.1199 145.141 91.6573 144.951 92.3603 144.753C94.8009 144.054 92.423 142.309 93.2157 141.277C93.453 140.97 93.0186 140.677 92.7858 140.461C92.132 139.848 91.4468 139.266 90.7796 138.671C89.4809 137.517 88.1868 136.358 86.8881 135.204L87.1389 134.875C88.4913 135.605 89.8347 136.349 91.196 137.053C91.514 137.219 91.9752 137.576 92.2394 137.125C92.5216 136.638 92.0782 136.318 91.6842 136.07C91.0214 135.65 90.3766 135.195 89.6959 134.812C88.8764 134.348 88.0793 133.716 88.0211 132.819C87.936 131.575 87.4972 130.551 86.5433 129.42C88.5853 130.394 89.0466 131.011 89.1272 132.63C89.1406 132.891 88.8898 133.211 89.2167 133.392C89.5615 133.586 89.8616 133.351 90.1258 133.144C90.8691 132.562 91.0886 131.863 90.3497 131.151C89.463 130.294 88.5316 129.483 87.3852 128.96C86.8837 128.73 86.3149 128.518 86.0104 127.779C87.6808 127.918 89.0107 129.221 90.6721 128.315C89.1496 128.135 88.3883 126.025 86.4851 126.827C86.1851 126.954 85.9343 126.733 85.9477 126.386C85.9746 125.561 85.285 125.326 84.77 125.137C80.9189 123.717 78.8321 120.141 75.787 117.743C75.384 117.423 74.8197 116.954 75.1735 116.323C75.5362 115.673 76.1766 116.03 76.696 116.147C79.0649 116.674 81.0487 118.158 83.3325 118.902C84.8193 119.384 86.2657 119.997 87.9674 119.907C87.0225 118.645 85.9119 117.635 84.8685 116.566C84.5148 116.205 83.7759 115.75 84.2595 115.2C84.6984 114.7 85.3566 115.272 85.7283 115.588C87.7927 117.333 90.4213 117.576 92.8305 118.383C93.9725 118.766 95.1636 118.987 96.3593 118.924C96.4846 118.379 96.1846 118.131 95.9294 117.968C94.3262 116.972 93.1037 115.615 92.0917 114.037C91.7334 113.478 91.4826 112.86 91.8633 112.306C92.2842 111.688 92.8753 112.193 93.3813 112.333C96.6145 113.234 99.8432 114.145 103.076 115.029C103.493 115.141 104.066 115.331 104.321 114.898C104.621 114.389 104.008 114.096 103.712 113.843C102.566 112.856 101.357 111.94 100.184 110.985C99.9238 110.773 99.6283 110.511 99.7178 110.146C99.8163 109.745 100.219 109.758 100.551 109.74C103.793 109.524 106.986 108.924 110.192 108.437C111.889 108.18 113.354 108.473 114.554 109.916C115.458 111.007 116.434 111.931 118.118 112.103C119.224 112.216 119.963 112.955 120.263 113.911C120.447 113.83 120.644 113.807 120.827 113.875C121.222 114.023 121.616 114.186 122.001 114.366C122.381 113.924 122.905 113.947 123.505 114.389C125.664 115.971 127.818 117.563 129.855 119.298C131.906 121.043 134.109 122.612 135.941 124.654C135.645 123.401 134.262 122.833 134.029 121.444C136.125 122.296 137.105 124.46 139.125 125.168C138.032 122.86 136.138 121.287 134.468 119.524C134.19 119.231 133.577 118.865 134.051 118.451C134.45 118.104 134.907 117.459 135.645 117.856C136.357 118.234 137.101 118.712 136.962 119.6C136.846 120.358 137.123 120.89 137.602 121.214C138.816 122.03 139.671 123.23 140.822 124.104C141.171 124.37 141.503 124.726 141.977 124.307C141.709 123.031 140.437 122.152 140.522 120.642C142.801 121.895 144.749 123.5 147.23 124.091C146.55 123.261 146.075 122.269 144.884 121.918C146.447 120.439 146.899 123.063 148.224 122.531C147.772 121.471 146.979 120.777 146.214 120.056C145.914 119.772 145.685 119.42 145.905 119.005C146.115 118.608 146.438 118.775 146.769 118.906C148.909 119.722 151.31 121.832 152.492 123.969C152.626 124.213 152.846 124.208 153.065 124.145C153.356 124.059 153.553 123.856 153.558 123.536C153.562 122.968 153.19 122.626 152.805 122.283C152.456 121.976 151.963 121.71 152.228 121.129C152.895 120.881 153.164 121.841 153.786 121.534C153.88 121.183 153.692 120.921 153.464 120.809C151.547 119.826 149.939 118.514 148.663 116.742C148.139 116.012 147.324 116.404 146.67 116.742C145.793 117.202 147.418 117.486 146.724 118.004C146.2 117.734 145.587 117.535 145.125 117.157C143.809 116.07 145.099 115.101 145.47 114.226C145.842 113.352 146.603 113.938 147.087 114.38C147.875 115.101 148.556 115.939 149.38 116.607C150.226 117.288 150.866 118.293 152.013 118.694C152.102 118.117 151.775 117.919 151.596 117.648C151.269 117.166 150.996 116.647 151.323 116.079C151.704 115.421 152.331 115.75 152.846 115.827C153.585 115.935 154.306 116.142 155.143 116.332C154.1 114.646 152.313 114.114 151.028 112.946C152.062 112.928 152.787 113.573 153.62 113.956C154.005 114.132 154.516 114.501 154.838 114.046C155.17 113.577 154.673 113.234 154.332 112.959C153.638 112.391 152.931 111.837 152.219 111.296C150.965 110.344 149.702 109.402 148.444 108.455C150.602 108.401 152.416 109.389 154.386 109.709C154.785 109.772 155.622 110.024 155.506 109.565C155.264 108.613 156.128 107.31 154.579 106.679C153.352 106.179 152.25 105.354 151.108 104.641C150.71 104.393 150.002 104.218 150.195 103.613C150.396 102.978 151.054 103.275 151.525 103.356C152.514 103.528 153.495 103.785 154.489 103.929C154.946 103.997 155.653 104.19 155.77 103.532C155.873 102.951 155.215 102.775 154.749 102.594C154.543 102.513 154.323 102.459 154.113 102.383C150.163 100.989 146.138 99.8668 142.022 99.0869C140.759 98.8479 139.501 98.5684 138.261 98.2303C137.705 98.0815 136.89 97.9823 136.953 97.1843C137.002 96.5216 137.755 96.4675 138.274 96.3502C140.728 95.7867 143.182 95.2141 145.654 94.7362C152.72 93.3747 159.54 94.3485 165.868 97.6712C170.382 100.043 174.73 102.707 179.768 103.812C182.692 104.452 185.648 104.948 188.679 104.835C186.566 104.06 184.456 103.284 182.047 102.401C182.929 101.972 183.507 102.112 184.08 101.824C185.119 101.301 186.857 101.576 187.295 102.27C188.823 104.695 190.65 102.536 192.235 103.072C190 100.94 187.072 100.264 184.403 98.9561C184.828 98.5955 185.182 98.7533 185.468 98.8434C187.569 99.4701 189.745 99.5873 191.903 99.8263C192.23 99.8623 192.79 100.291 192.871 99.4476C192.965 98.4286 194.393 99.3258 194.46 98.4602C194.523 97.6487 193.283 97.7434 193.108 96.9093C192.745 95.169 191.702 94.1997 190.018 94.2268C188.46 94.2493 186.951 93.537 185.285 94.1997C185.889 92.5722 186.74 91.9004 188.308 92.4234C188.809 92.5902 189.741 92.6758 189.915 92.4144C190.654 91.3233 191.523 91.8688 192.378 91.9906C193.319 92.1258 194.093 91.8463 193.833 90.7823C193.52 89.4974 194.057 89.1863 195.132 89.0375C195.669 88.9609 196.176 88.6498 196.699 88.4514C197.25 88.244 197.788 87.9014 197.81 87.3063C197.841 86.5534 197.053 86.603 196.574 86.4091C195.199 85.85 193.717 85.9312 192.284 85.6923C191.756 85.6021 191.021 85.4894 191.496 84.6598C191.774 84.1729 195.069 83.6364 195.504 83.9835C196.149 84.4975 196.726 84.4659 197.304 83.943C197.577 83.695 197.649 83.3433 197.438 83.0232C196.991 82.347 196.386 82.3515 195.661 82.5679C194.635 82.87 193.686 83.5011 192.732 83.4651C192.893 80.3858 195.302 80.7239 197.259 80.3497C197.864 80.237 198.482 80.2009 199.077 80.0657C199.48 79.9755 200.143 79.9936 200.058 79.3984C199.977 78.8394 199.333 78.9972 198.916 78.9882C197.631 78.9611 196.337 79.0423 195.056 78.9431C194.581 78.907 194.053 78.2894 194.102 77.8971C194.201 77.1262 196.905 76.3778 197.514 76.9053C198.007 77.3336 198.491 77.7619 199.14 77.3967C199.856 76.9954 199.65 76.3823 199.342 75.7827C199.028 75.1785 199.552 74.9847 199.901 74.7547C200.224 74.5428 200.604 74.2813 200.989 74.5428C201.5 74.89 201.195 75.3408 201.043 75.7511C200.797 76.4364 200.273 77.0901 200.783 78.0189C201.63 77.045 201.491 75.8368 202.06 74.9756C203.049 73.4833 202.396 72.6583 201.11 71.9099L201.151 71.9189ZM86.2254 144.153C84.0849 143.748 78.1425 138.238 77.4439 135.786C80.6323 138.662 83.7042 140.993 86.2254 144.153ZM104.478 51.3468C104.715 52.2305 105.154 52.528 105.853 51.7571C106.524 51.0177 106.825 51.5317 106.999 52.1133C107.192 52.749 107.268 53.4252 107.353 54.0925C107.496 55.1835 106.932 55.6028 105.907 55.6389C104.98 55.6704 104.312 55.6163 104.299 54.354C104.285 53.0916 103.99 51.8337 103.797 50.4181C104.451 50.657 104.397 51.0357 104.482 51.3423L104.478 51.3468ZM97.1653 46.7707C96.8384 50.0168 99.7895 52.8662 98.2669 56.1438C97.5818 53.5334 97.3668 50.8554 95.9294 48.4704C95.3517 47.5101 96.7892 47.4155 97.1653 46.7662V46.7707ZM71.6313 48.2089C72.2224 47.979 72.9076 48.4885 72.9389 48.9618C73.1405 51.9239 75.2183 54.1691 75.8407 56.9824C73.6868 54.9265 72.8136 52.1268 71.3716 49.6697C71.1208 49.2414 70.9462 48.4794 71.6313 48.2089ZM59.5092 59.5297C57.3239 56.4684 56.3611 52.9609 54.1355 50.2062C56.9746 52.5957 59.7107 55.0483 59.5092 59.5297ZM46.2451 51.0448C46.7064 50.8058 47.2706 50.657 47.5527 51.2567C48.2245 52.6813 49.55 53.6687 50.0694 55.197C50.2754 55.8012 50.7008 56.2069 51.2964 56.6262C52.4607 57.4423 52.6533 58.7813 52.1696 60.1383C50.5262 57.866 49.1962 55.5848 47.4497 53.5965C47.0109 53.0961 46.4422 52.7129 46.1869 52.0592C46.0526 51.7075 45.7167 51.3243 46.2407 51.0493L46.2451 51.0448ZM31.1182 99.3754C30.5898 99.664 30.0211 99.673 29.5464 99.2537C29.027 98.7938 29.1165 98.2889 29.5016 97.7614C30.6346 96.2105 30.2271 94.8444 29.0404 93.5099C27.6701 91.9725 27.3611 88.5641 28.4448 86.4452C28.9016 87.9149 29.524 89.2134 29.6852 90.5659C29.9494 92.7795 30.4465 94.8264 31.7675 96.6703C32.4885 97.6802 32.3094 98.7262 31.1227 99.3754H31.1182ZM35.1306 95.5658C34.6245 95.7912 34.4365 95.3629 34.2753 95.0067C33.6842 93.7128 32.6855 92.739 31.8123 91.6524C30.4062 89.9077 30.0748 87.6895 29.8778 85.4668C30.863 87.5137 32.8826 88.9293 33.2274 91.3143C33.3483 92.1619 33.917 92.7029 34.5171 93.2169C34.947 93.5866 35.3903 93.9382 35.4888 94.5378C35.556 94.9391 35.5694 95.3719 35.135 95.5613L35.1306 95.5658ZM42.6851 87.9916C41.6551 87.3243 40.5311 86.7968 39.6669 85.8861C39.3444 85.5435 38.9862 85.1693 39.1922 84.7094C39.8191 83.3163 39.0802 82.4912 38.0906 81.7293C37.7771 81.4859 37.4278 81.2108 37.6383 80.76C37.804 80.4038 38.2204 80.494 38.5384 80.4264C39.2414 80.3903 39.6848 80.8457 40.0788 81.319C40.7998 82.1892 41.3237 83.181 41.7671 84.2225C42.1432 85.1016 42.4836 86.0214 43.4911 86.3911C44.2524 86.6751 43.9076 87.1575 43.7195 87.6174C43.509 88.1313 43.2045 88.3297 42.6851 87.9916ZM54.9998 96.2105C54.1982 95.8137 53.4907 95.9896 52.6309 96.3232C51.3009 96.8417 49.9843 96.4765 49.0753 95.2321C48.108 93.9112 47.2169 92.6127 45.2868 92.5451C44.3823 92.5135 44.0016 91.5217 43.8449 90.6876C43.7374 90.1015 44.2658 89.813 44.7584 89.6417C45.6316 89.3396 46.1242 89.7724 46.4511 90.5479C46.5586 90.8003 46.7288 91.1385 46.9437 91.2061C49.8589 92.1213 51.8024 95.2637 55.2864 94.885C55.6804 94.8444 56.2178 94.7858 56.3566 95.417C56.0208 95.8949 55.873 96.6388 54.9998 96.206V96.2105ZM138.373 84.3803C137.79 86.0619 136.729 87.5903 136.846 89.5199C136.881 90.0835 136.357 89.8761 136.004 89.6011C134.857 88.7219 134.629 86.6706 135.511 85.0025C136.505 83.1314 136.545 83.0954 137.602 83.2261C138.319 83.2532 138.677 83.5102 138.373 84.3803ZM139.94 73.6772C138.677 75.6564 138.529 77.7168 139.214 79.9485C139.376 80.4715 139.85 81.6121 138.892 81.7293C138.019 81.833 137.025 81.301 137.052 80.0251C137.056 79.7456 137.052 79.4661 137.052 79.1865C137.374 76.8692 138.507 74.8088 139.147 72.5907C139.228 72.3157 139.456 72.0947 139.779 72.1894C140.097 72.2841 140.159 72.5862 140.137 72.8702C140.115 73.1452 140.088 73.4563 139.944 73.6772H139.94Z" stroke="#FEFEFE" stroke-miterlimit="10"/>
<path d="M16.8203 69.8631C17.2816 71.3418 18.1145 72.7034 19.2161 73.7854C19.7669 74.3264 20.3893 74.7998 21.0969 75.0929C22.3597 75.6113 23.7927 75.5076 25.1227 75.2056C26.2556 74.9486 27.3707 74.5473 28.329 73.8846C30.877 72.1218 31.898 68.4023 30.5322 65.6116C29.1664 62.8208 25.5346 61.3736 22.6732 62.5458C22.0328 62.8073 21.4417 63.1815 20.8551 63.5467C20.2236 63.9434 19.5967 64.3402 18.9653 64.7369C18.7011 64.9037 18.3966 65.2148 18.5623 65.4808" stroke="#FEFEFE" stroke-miterlimit="10"/>
<path d="M22.8512 67.7621C22.4526 67.5863 22.0675 68.0552 21.9556 68.4745C21.8481 68.8667 21.8302 69.3175 22.0496 69.6602C22.4123 70.2237 23.2273 70.2553 23.8722 70.0885C24.3916 69.9532 24.9066 69.7188 25.238 69.295C25.5694 68.8712 25.6724 68.2355 25.3679 67.7937C25.1708 67.5051 24.835 67.3383 24.5081 67.2256C23.9662 67.0408 23.3617 66.9641 22.8198 67.149C22.278 67.3338 21.8167 67.8388 21.7988 68.4158" stroke="#FEFEFE" stroke-miterlimit="10"/>
<path d="M0.984375 88.4289C2.18898 88.6228 3.14728 89.538 3.89512 90.5073C4.64296 91.4766 5.27437 92.5586 6.21029 93.3431C7.23129 94.1997 8.56575 94.6551 9.47928 95.6289" stroke="#FEFEFE" stroke-miterlimit="10"/>
<path d="M1.71094 86.2513C2.80807 85.832 4.00819 86.4542 4.9665 87.135C6.27409 88.0682 7.46974 89.1547 8.52656 90.3675C9.00572 90.9175 9.47144 91.5082 10.1163 91.8463C10.9537 92.2881 11.9568 92.234 12.9016 92.1664C14.8496 92.0221 16.8289 91.8688 18.741 92.2746C21.71 92.9058 24.2536 94.8354 27.1509 95.7416" stroke="#FEFEFE" stroke-miterlimit="10"/>
<path d="M46.4336 106.287C48.9951 106.102 51.4043 104.939 53.4642 103.392C55.5241 101.846 57.2616 99.9254 58.9901 98.0139" stroke="#FEFEFE" stroke-miterlimit="10"/>
<path d="M51.6328 104.447C53.9614 106.278 55.9676 108.519 57.5439 111.034C59.8993 114.803 61.5383 119.443 65.4477 121.521C63.9072 119.213 61.3547 117.743 59.8098 115.435C58.5335 113.532 58.0499 111.21 57.105 109.118C56.0751 106.832 53.6076 105.976 51.6328 104.447Z" stroke="#FEFEFE" stroke-miterlimit="10"/>
<path d="M54.2832 102.865C57.176 106.409 60.2256 109.812 63.4319 113.072C66.2262 115.917 69.5266 118.82 73.4986 118.92C69.4997 117.91 65.8098 115.673 63.0557 112.581C59.8226 108.956 58.1657 105.782 54.2877 102.86" stroke="#FEFEFE" stroke-miterlimit="10"/>
<path d="M56.1334 100.137C59.8144 103.311 63.4953 106.49 67.1763 109.664C68.269 110.606 70.1498 111.959 71.3947 112.68C73.8083 114.082 75.5145 113.609 78.2685 114.064C69.3885 113.703 71.0319 112.662 66.827 110.322C65.5149 109.592 64.7089 108.699 63.6073 107.675C62.5102 106.652 61.9101 107.017 61.0727 105.773C60.3338 104.677 56.8678 101.233 56.1289 100.137" stroke="#FEFEFE" stroke-miterlimit="10"/>
<path d="M59.607 99.0238C63.8387 102.653 68.89 105.155 73.9547 107.464C77.5372 109.096 81.2002 110.66 85.0827 111.305C90.2146 112.157 95.6241 111.386 100.541 113.108C86.5247 109.253 72.7232 104.619 59.2129 99.2357" stroke="#FEFEFE" stroke-miterlimit="10"/>
<path d="M61.4922 97.5224C65.8986 99.4205 70.6588 100.286 75.3742 101.138C85.6738 103 96.0943 104.871 106.542 104.258C91.7819 101.242 76.8251 99.2221 61.8012 98.2032" stroke="#FEFEFE" stroke-miterlimit="10"/>
<path d="M64.4623 94.5423C71.878 94.096 79.3474 93.6497 86.7228 94.5604C93.7802 95.435 100.873 97.545 107.877 96.3097C92.6473 94.7317 77.3457 93.821 62.0352 93.582" stroke="#FEFEFE" stroke-miterlimit="10"/>
<path d="M66.5623 90.5163C83.8745 89.0285 101.106 89.5199 118.45 90.5974C106.131 89.0195 93.677 87.437 81.3265 88.74C78.6441 89.024 75.9573 89.4433 73.266 89.272C70.0373 89.0646 68.058 89.7724 65.4473 89.8851" stroke="#FEFEFE" stroke-miterlimit="10"/>
<path d="M60.6816 86.6435C71.4828 81.9592 83.3407 80.1604 95.1001 79.9349C106.86 79.7095 118.583 81.0125 130.275 82.3109C128.856 81.851 127.383 81.6031 125.909 81.3776C107.536 78.5689 88.6875 78.907 70.4259 82.374C66.4942 83.1179 63.7491 83.0773 60.7264 85.7148" stroke="#FEFEFE" stroke-miterlimit="10"/>
<path d="M63.3116 83.0052C70.4451 80.0837 78.0579 78.5599 85.6124 77.054C94.7924 75.2236 104.093 73.3842 113.435 73.9657C117.039 74.1912 120.613 74.7728 124.182 75.3544C127.424 75.8864 130.666 76.4138 133.908 76.9458C133.908 76.3778 133.228 76.1073 132.677 75.99C119.65 73.1407 106.247 71.5808 92.9654 72.744C79.6834 73.9071 66.491 77.8836 55.457 85.4127" stroke="#FEFEFE" stroke-miterlimit="10"/>
<path d="M57.5392 77.7348C59.5812 75.6113 62.4964 74.1776 65.0982 72.8116C69.8494 70.3184 74.6902 68.0056 79.6116 65.8776C83.9553 64.0021 86.9915 63.9299 91.6352 63.0282C95.1326 62.3475 101.603 62.1491 105.163 62.1356C115.768 62.0905 124.809 61.9642 135.305 63.5016C134.096 62.3069 132.278 62.0499 130.59 61.8966C125.525 61.4458 120.438 61.4097 115.356 61.3917C104.348 61.3466 93.2384 61.3736 82.5 63.7992C71.7615 66.2247 61.4799 70.1606 54.418 78.6591" stroke="#FEFEFE" stroke-miterlimit="10"/>
<path d="M108.41 97.1527C109.436 97.9733 110.994 97.5495 112.028 96.7335C113.063 95.9174 113.82 94.7903 114.89 94.0284C115.557 93.555 116.327 93.2394 116.945 92.6984C117.563 92.1574 118.002 91.2872 117.711 90.5208" stroke="#FEFEFE" stroke-miterlimit="10"/>
<path d="M118.346 90.5163C118.762 89.3171 120.088 88.758 121.261 88.2891C122.434 87.8202 123.742 87.1485 124.002 85.9041" stroke="#FEFEFE" stroke-miterlimit="10"/>
<path d="M124.172 86.7743C124.32 85.3271 125.287 83.9971 126.612 83.42C127.159 83.181 127.754 83.0638 128.269 82.7663C128.784 82.4687 129.219 81.9097 129.12 81.319" stroke="#FEFEFE" stroke-miterlimit="10"/>
<path d="M129.314 81.9728C129.247 80.5481 130.107 79.1234 131.397 78.5283C132.337 78.0955 133.698 77.7799 133.694 76.7385" stroke="#FEFEFE" stroke-miterlimit="10"/>
<path d="M134.906 63.5422C135.004 64.1193 135.018 64.7189 135.242 65.2599C135.766 66.5268 137.297 67.1805 137.714 68.488L137.821 68.7314C137.964 69.6737 137.593 70.6791 136.867 71.2922C136.527 71.5808 136.119 71.7882 135.77 72.0722C134.507 73.1001 134.274 74.917 134.145 76.5446" stroke="#FEFEFE" stroke-miterlimit="10"/>
<path d="M104.232 104.285C105.133 104.24 105.742 103.298 105.903 102.405C106.064 101.512 105.93 100.579 106.131 99.691C106.476 98.1626 107.891 96.9408 109.445 96.8372" stroke="#FEFEFE" stroke-miterlimit="10"/>
<path d="M93.9492 110.89C94.8224 111.44 96.0226 110.967 96.7032 110.187C97.3839 109.407 97.7242 108.392 98.2392 107.495C99.4035 105.462 101.692 103.983 104.007 104.258" stroke="#FEFEFE" stroke-miterlimit="10"/>
<path d="M78.9219 114.619C80.3772 114.731 81.9087 114.826 83.2163 114.181C84.2463 113.672 85.0165 112.757 85.9614 112.098C88.1333 110.583 90.9724 110.579 93.6099 110.624" stroke="#FEFEFE" stroke-miterlimit="10"/>
<path d="M72.6426 118.604C73.9188 118.577 74.5234 117.076 75.2757 116.043C76.122 114.889 77.4923 114.141 78.9164 114.064" stroke="#FEFEFE" stroke-miterlimit="10"/>
<path d="M64.8477 121.187C66.3075 121.769 67.7539 120.479 69.0794 119.636C70.5169 118.721 72.2365 118.275 73.9337 118.37" stroke="#FEFEFE" stroke-miterlimit="10"/>
<path d="M52.6164 24.7063C52.9075 25.7478 54.036 26.2843 54.6539 27.168C55.1555 27.8893 55.2943 28.8226 55.2002 29.7017C55.1062 30.5809 54.8062 31.4194 54.5017 32.2445C54.3136 32.7539 54.1121 33.2769 53.727 33.6556C53.3418 34.0343 52.7149 34.2237 52.2537 33.9487C52.1641 33.8946 52.0746 33.8179 52.0566 33.7142" stroke="#FEFEFE" stroke-miterlimit="10"/>
<path d="M53.0645 21.0229C53.3645 19.8102 55.093 19.5036 55.5677 18.3494C55.8901 17.565 55.505 16.6497 54.9363 16.0231C54.69 15.748 54.3944 15.4911 54.2825 15.1349C54.1705 14.7787 54.3497 14.3008 54.7169 14.2693" stroke="#FEFEFE" stroke-miterlimit="10"/>
<path d="M65.1914 16.3071C65.9975 16.6137 67.0095 16.0817 67.22 15.2431C67.3498 14.7201 67.2021 14.1701 67.0767 13.6471C66.8752 12.795 66.7319 11.8933 66.9737 11.0547C67.014 10.9195 67.0632 10.7842 67.0543 10.6445C67.0364 10.3469 66.7453 10.1215 66.4497 10.0809C66.1542 10.0403 65.8586 10.1305 65.5765 10.2207" stroke="#FEFEFE" stroke-miterlimit="10"/>
<path d="M42.3529 19.1023C42.2947 19.6884 42.7335 20.1979 43.2037 20.5495C43.6739 20.9012 44.2157 21.1807 44.5382 21.6676C44.986 22.3439 44.8427 23.3493 44.2292 23.8768C44.0098 24.0661 43.7411 24.1969 43.5575 24.4178C43.3739 24.6387 43.3157 25.0129 43.5351 25.1978" stroke="#FEFEFE" stroke-miterlimit="10"/>
<path d="M81.6174 24.9723C81.1338 26.2302 81.8727 27.5918 82.5086 28.7775C82.8131 29.3365 83.0997 30.0128 82.8265 30.5899C82.4325 31.4104 81.2771 31.3653 80.4397 31.717C79.5441 32.0912 78.944 33.0831 79.0202 34.0569" stroke="#FEFEFE" stroke-miterlimit="10"/>
<path d="M99.6406 27.6278C100.388 28.0606 101.356 28.0832 102.121 27.6819C102.887 27.2807 103.429 26.4782 103.51 25.6125C103.568 25.0084 103.416 24.4088 103.353 23.8092C103.29 23.2095 103.34 22.5468 103.725 22.0824C103.832 21.9517 103.971 21.8345 104.029 21.6722C104.132 21.3836 103.926 21.059 103.657 20.9237C103.389 20.7885 103.066 20.7975 102.762 20.8155" stroke="#FEFEFE" stroke-miterlimit="10"/>
<path d="M110.143 11.9835C110.407 12.6102 111.043 13.0655 111.723 13.1061C112.404 13.1467 113.085 12.777 113.425 12.1864C114.056 11.0818 113.497 9.4903 114.339 8.53902C114.468 8.39475 114.625 8.26851 114.679 8.08366C114.759 7.81316 114.571 7.52011 114.321 7.38936C114.07 7.25862 113.779 7.2496 113.497 7.24509" stroke="#FEFEFE" stroke-miterlimit="10"/>
<path d="M85.9978 11.1945C86.6112 11.9249 86.965 13.0024 86.5083 13.8365C86.2261 14.3459 85.6888 14.684 85.4425 15.216C84.9678 16.253 85.8142 17.4432 85.6753 18.5703C85.5903 19.2511 85.1156 19.8643 84.4797 20.1167C83.8438 20.3692 83.0825 20.243 82.5586 19.8057" stroke="#FEFEFE" stroke-miterlimit="10"/>
<path d="M74.9097 11.4921C75.3261 12.4433 75.7112 13.4127 76.074 14.3865C76.3158 15.0492 76.5397 15.8247 76.168 16.4243C75.8948 16.8661 75.3754 17.078 74.9186 17.3305C74.0812 17.7949 73.3737 18.4847 72.8945 19.3142" stroke="#FEFEFE" stroke-miterlimit="10"/>
<path d="M112.723 34.138C113.188 34.8549 114.2 35.0803 115.002 34.7873C115.804 34.4942 116.395 33.7819 116.735 32.9929C117.075 32.2039 117.201 31.3473 117.313 30.4952C117.357 30.1796 117.268 29.7198 116.954 29.7558" stroke="#FEFEFE" stroke-miterlimit="10"/>
<path d="M53.6016 44.0882C55.1062 46.9646 57.1348 49.5615 59.5574 51.712C60.0455 52.1448 60.5471 52.5641 60.9501 53.0781C61.8323 54.2187 62.1144 55.702 62.3607 57.1267C62.7458 59.3042 63.1354 61.5224 64.1295 63.4926C65.1057 65.4357 66.6999 67.3879 66.2073 69.5114" stroke="#FEFEFE" stroke-miterlimit="10"/>
<path d="M58.5822 41.5094C57.9866 43.8267 58.4792 46.401 59.8853 48.3262C61.0585 49.9312 62.7916 51.0718 63.8708 52.7444C66.8576 57.3656 63.8529 64.1599 66.9114 68.7314" stroke="#FEFEFE" stroke-miterlimit="10"/>
<path d="M45.0547 44.8592C45.6816 46.3785 45.2383 48.1188 45.498 49.7418C45.9682 52.7039 48.6103 54.7282 50.4329 57.0996C51.9599 59.0878 52.9719 61.4683 53.3481 63.9525C53.572 65.4493 53.5765 66.9957 54.0735 68.4249C55.0184 71.1344 57.7366 72.6808 57.3649 75.5302" stroke="#FEFEFE" stroke-miterlimit="10"/>
<path d="M45.6309 41.568C46.8175 43.971 50.5567 43.9575 51.9584 46.2387C53.4496 48.6598 51.5419 52.4289 53.5794 54.4036C54.0452 54.8544 54.6631 55.1294 55.1199 55.5893C56.2887 56.775 56.0603 58.7317 56.7096 60.2691C57.4619 62.0364 59.3562 63.15 59.9517 64.9759C60.31 66.076 60.1398 67.2707 60.198 68.4294C60.2562 69.588 61.2772 71.1435 62.3117 71.6484" stroke="#FEFEFE" stroke-miterlimit="10"/>
<path d="M34.8 54.8228C33.8148 56.6533 35.6284 58.6235 37.0972 60.0932C38.566 61.563 40.4289 62.6991 41.4409 64.516C42.9724 67.2707 42.1485 70.8955 43.6889 73.6411C44.5353 75.1515 46.022 76.2425 46.7385 77.816C47.4013 79.2767 47.3878 81.1072 48.5208 82.2388" stroke="#FEFEFE" stroke-miterlimit="10"/>
<path d="M32.6356 59.2772C32.452 61.3601 33.8357 61.8876 35.1165 63.5332C36.3972 65.1788 37.9287 66.644 38.9408 68.4699C40.3558 71.0217 40.6245 74.0244 41.3276 76.8602C42.0306 79.696 43.4188 82.6536 46.0698 83.8393" stroke="#FEFEFE" stroke-miterlimit="10"/>
<path d="M88.2441 38.5158C89.1801 39.3543 89.9861 40.3417 90.6175 41.4282C90.819 41.7754 91.0071 42.1451 91.0474 42.5463C91.1056 43.1504 90.8101 43.7275 90.5459 44.273C89.9682 45.4678 89.4935 46.7076 89.1263 47.9835C88.9427 48.6192 88.7949 49.3406 89.1174 49.9221C89.395 50.4181 89.9458 50.6796 90.3399 51.0853C90.922 51.685 91.1191 52.5551 91.2892 53.3801C91.7012 55.3593 92.3237 60.1022 92.7312 62.0815" stroke="#FEFEFE" stroke-miterlimit="10"/>
<path d="M86.5742 40.0712C86.7533 41.0089 86.9369 41.9602 86.8608 42.9115C86.7847 43.8628 86.4175 44.8321 85.6741 45.4317C85.3428 45.6977 84.9487 45.8826 84.6531 46.1846C83.9904 46.8609 83.968 47.9655 84.2994 48.8536C84.6307 49.7418 85.4189 50.3955 85.7637 51.2792C86.1533 52.2801 86.4533 53.4297 86.6145 53.9347" stroke="#FEFEFE" stroke-miterlimit="10"/>
<path d="M86.4141 53.4523C87.4351 56.0536 88.1381 59.9264 88.2456 62.7217" stroke="#FEFEFE" stroke-miterlimit="10"/>
<path d="M78.9707 36.9603C79.0065 37.9116 79.0424 38.89 79.4051 39.7691C79.7678 40.6483 80.5201 41.4327 81.4605 41.5409C81.8411 41.586 82.2352 41.5184 82.6114 41.5995C83.7622 41.8475 84.2056 43.3263 83.9772 44.4849C83.7488 45.6436 83.0771 46.6806 82.8621 47.8438C82.4233 50.2062 83.9055 52.4784 84.21 54.8679C84.5146 57.2664 84.1697 60.8281 85.0027 63.0959" stroke="#FEFEFE" stroke-miterlimit="10"/>
<path d="M77.3908 38.5158C77.9461 40.6708 78.4969 42.9566 77.8386 45.0801C77.664 45.6391 77.4087 46.1756 77.3057 46.7527C76.952 48.7094 78.3715 50.4857 79.0611 52.3477C79.7687 54.2638 79.7104 56.3602 79.8493 58.398C79.9881 60.4359 80.4135 62.5954 81.8286 64.0562" stroke="#FEFEFE" stroke-miterlimit="10"/>
<path d="M62.9566 38.8809C62.67 38.7547 62.7595 38.2633 63.0461 38.1325C63.3327 38.0018 63.6686 38.1235 63.9418 38.2813C65.7509 39.3453 66.1002 41.7528 66.6689 43.7816C67.166 45.5399 67.9675 47.2126 69.0692 48.6643C69.6737 49.4623 70.3678 50.1927 70.9052 51.0357C72.1008 52.9158 72.4232 55.2106 72.7143 57.4197C73.1084 60.3998 73.5069 63.3799 73.901 66.3645C73.8114 66.0985 73.7219 65.837 73.6323 65.571" stroke="#FEFEFE" stroke-miterlimit="10"/>
<path d="M62.0982 42.3074C61.122 43.457 61.4668 45.2739 62.3311 46.5092C63.1953 47.7446 64.4716 48.6237 65.4836 49.7373C67.1047 51.5181 68.0272 53.9257 68.0182 56.3422C68.0137 57.4648 67.8212 58.637 68.2376 59.6784C68.4839 60.2871 68.9138 60.7965 69.2586 61.3556C69.9214 62.4286 70.2483 63.7045 70.1946 64.9669C70.1542 65.8821 70.1274 67.1354 71.0185 67.3383" stroke="#FEFEFE" stroke-miterlimit="10"/>
<path d="M94.2148 41.3786C94.7656 40.3101 96.5166 40.4273 97.2196 41.4057C97.9227 42.384 97.766 43.7681 97.2241 44.8456C96.9733 45.3461 96.6464 45.8104 96.4181 46.3244C95.8852 47.5236 95.9165 48.8942 95.9568 50.2107C96.0419 52.8707 96.1494 55.6118 97.2734 58.0193C97.3674 58.2267 97.6316 58.4521 97.7749 58.2808C97.7749 58.2808 99.2661 61.4818 99.499 61.3872" stroke="#FEFEFE" stroke-miterlimit="10"/>
<path d="M94.1775 41.5139C94.4686 42.357 94.7552 43.2902 94.4104 44.1107C94.2402 44.512 93.9357 44.8366 93.6984 45.1973C92.6147 46.8609 93.0983 49.0385 93.3804 51.0087C93.8462 54.2097 93.7297 57.6632 95.4538 60.3908C95.6016 60.251 96.224 61.9687 96.3718 61.829" stroke="#FEFEFE" stroke-miterlimit="10"/>
<path d="M163.182 75.972C164.373 78.4922 165.573 81.0576 165.976 83.8167C166.272 85.832 166.124 87.8834 165.882 89.9077C165.595 92.2881 165.179 94.6506 164.624 96.9859" stroke="#FEFEFE" stroke-miterlimit="10"/>
<path d="M161.865 77.0135C163.446 79.696 164.037 82.9511 163.513 86.0259C163.397 86.6931 163.231 87.3649 163.312 88.0366C163.468 89.3757 164.566 90.5028 164.548 91.8508C164.53 93.3611 163.124 94.5469 162.976 96.0482" stroke="#FEFEFE" stroke-miterlimit="10"/>
<path d="M160.131 77.5906C160.61 78.623 161.094 79.6599 161.394 80.76C162.724 85.6652 160.261 91.1475 162.11 95.8814" stroke="#FEFEFE" stroke-miterlimit="10"/>
<path d="M154.61 94.2583C154.305 93.5144 154.399 91.8598 154.833 91.1835C155.03 90.877 155.344 90.6741 155.604 90.4171C156.481 89.538 156.584 88.1629 156.629 86.914C156.723 84.3307 156.822 81.7473 156.916 79.1595C156.934 78.7086 156.593 77.2885 156.145 77.2524" stroke="#FEFEFE" stroke-miterlimit="10"/>
<path d="M157.601 77.2569C158.304 79.0513 158.841 82.0179 158.286 83.8663C158.017 84.768 157.462 85.557 157.117 86.4361C156.616 87.7075 156.58 89.1593 157.014 90.4532C157.314 91.3504 157.91 93.5775 157.941 94.5288" stroke="#FEFEFE" stroke-miterlimit="10"/>
<path d="M151.479 76.9549C151.304 78.0234 151.367 80.0612 151.452 81.1387C151.537 82.2162 151.425 83.4065 150.691 84.1954C150.458 84.4479 150.172 84.6463 149.925 84.8852C148.739 86.0439 148.689 87.933 148.909 89.5876C149.128 91.2422 149.531 92.9644 148.967 94.5288" stroke="#FEFEFE" stroke-miterlimit="10"/>
<path d="M145.326 94.8489C145.474 93.8571 145.917 91.7651 146.128 90.7823C146.459 89.2584 146.271 87.5272 147.202 86.2829C147.726 85.584 148.573 85.0971 148.823 84.2586C149.007 83.6364 148.81 82.9691 148.64 82.3425C148.071 80.21 147.435 77.55 147.592 75.3453C147.592 75.3453 125.237 47.0187 97.2227 44.8456" stroke="#FEFEFE" stroke-miterlimit="10"/>
<path d="M144.037 75.5302C143.137 75.3048 142.121 75.963 141.946 76.8782C141.865 77.3065 141.946 77.7483 142.009 78.1812C142.192 79.3939 142.233 80.6247 142.139 81.8465C142.116 82.1666 142.085 82.5003 142.215 82.7888C142.345 83.0773 142.712 83.2892 142.989 83.1359C143.191 83.0277 143.267 82.7843 143.33 82.5634C143.93 80.4309 144.49 78.2894 145.018 76.1388L144.033 75.5302H144.037Z" stroke="#FEFEFE" stroke-miterlimit="10"/>
<path d="M142.098 95.5342C141.252 94.6641 140.687 92.8246 140.781 91.6073C140.875 90.3901 141.363 89.2404 141.964 88.1854C142.08 87.978 142.205 87.7616 142.21 87.5272C142.219 86.9321 141.404 86.6165 140.884 86.9005C140.365 87.1845 140.145 87.8202 140.087 88.4108C139.98 89.4748 140.257 90.5929 139.899 91.5983C139.604 92.4279 138.914 93.0546 138.506 93.839C138.099 94.6235 138.117 95.7957 138.914 96.1699" stroke="#FEFEFE" stroke-miterlimit="10"/>
<path d="M110.43 108.451C112.333 108.442 137.195 97.1888 137.195 97.1888" stroke="#FEFEFE" stroke-miterlimit="10"/>
<path d="M115.345 55.7606C115.533 56.1528 115.789 56.5361 115.798 56.9734C115.807 57.3972 115.574 57.7804 115.35 58.1411C115.059 58.6054 114.772 59.0653 114.481 59.5297C114.432 59.6063 114.374 59.692 114.284 59.71C114.185 59.728 114.091 59.6559 114.015 59.5883C113.442 59.0698 112.82 58.4567 112.824 57.6812C112.824 57.2935 112.99 56.9238 113.044 56.5406C113.173 55.5713 112.56 54.6245 111.767 54.0564C111.633 53.9572 111.481 53.858 111.427 53.7002C111.382 53.565 111.418 53.4162 111.458 53.281C111.678 52.5371 112.027 51.8337 112.493 51.2161L112.676 50.9005C113.281 50.6345 114.02 50.7156 114.548 51.1034C115.077 51.4911 115.386 52.1719 115.323 52.8301C115.292 53.1637 115.175 53.4793 115.095 53.8039C114.862 54.7327 114.987 54.8724 115.35 55.7561" stroke="#FEFEFE" stroke-miterlimit="10"/>
<path d="M131.279 99.8127C129.828 98.1942 129.676 95.7416 130.195 93.6226C130.715 91.5036 131.807 89.583 132.609 87.5542C132.873 86.8915 133.106 86.1792 132.989 85.4758C132.873 84.7725 132.282 84.1008 131.574 84.1368C130.826 84.1774 130.32 84.9484 130.164 85.6832C130.007 86.4181 130.07 87.2026 129.832 87.9149C129.313 89.4794 127.463 90.4667 127.374 92.1123C127.32 93.0906 127.938 94.0239 127.835 94.9977C127.768 95.6244 127.419 96.1744 127.159 96.747C126.384 98.4512 126.438 100.512 127.298 102.175" stroke="#FEFEFE" stroke-miterlimit="10"/>
<path d="M124.137 103.194C122.189 101.328 121.629 98.1536 122.821 95.7281C123.21 94.9391 123.761 94.2177 123.998 93.3702C124.236 92.5226 124.03 91.445 123.246 91.0528C122.977 90.9176 122.668 90.8815 122.368 90.904C121.862 90.9401 121.347 91.17 121.097 91.6119C120.868 92.0131 120.9 92.5045 120.882 92.9689C120.841 93.9923 120.532 95.0067 119.991 95.8769C119.404 96.8191 118.508 97.7749 118.737 98.8615C118.893 99.5963 119.552 100.164 119.65 100.913C119.762 101.774 119.108 102.518 118.665 103.266C118.222 104.015 118.092 105.191 118.867 105.57" stroke="#FEFEFE" stroke-miterlimit="10"/>
</g>
<path d="M203.133 152L203.133 162.578" stroke="#FEFEFE" stroke-opacity="0.6"/>
<path fill-rule="evenodd" clip-rule="evenodd" d="M2 152L2 162.578H3L3 152H2ZM3.15307 157.788L202.475 157.788L202.475 156.788L3.15307 156.788L3.15307 157.788Z" fill="#FEFEFE" fill-opacity="0.6"/>
<defs>
<clipPath id="clip0_1528_26">
<rect width="203" height="149" fill="white"/>
</clipPath>
</defs>
</svg>
