<svg width="278" height="147" viewBox="0 0 278 147" fill="none" xmlns="http://www.w3.org/2000/svg">
<path d="M105.756 143.144C103.668 143.144 102.408 141.152 102.408 138.644C102.408 136.184 103.596 134.24 105.744 134.24C106.764 134.24 107.64 134.54 108.384 134.864L108.144 136.64H108.084C107.424 135.596 106.572 134.696 105.744 134.696C104.436 134.696 104.052 136.508 104.1 138.776C104.58 138.044 105.408 137.636 106.284 137.636C107.832 137.636 108.876 138.8 108.876 140.288C108.876 141.992 107.46 143.144 105.756 143.144ZM105.756 142.676C106.632 142.676 107.28 141.812 107.28 140.6C107.28 139.412 106.704 138.308 105.672 138.32C105.18 138.32 104.568 138.56 104.124 139.28C104.256 141.224 104.748 142.676 105.756 142.676ZM112.962 143.096C111.006 143.096 109.482 141.296 109.482 138.644C109.482 136.064 111.006 134.264 112.962 134.264C114.918 134.264 116.454 136.064 116.454 138.644C116.454 141.296 114.918 143.096 112.962 143.096ZM112.962 142.604C114.294 142.604 114.762 140.588 114.762 138.632C114.762 136.712 114.282 134.756 112.962 134.756C111.63 134.756 111.174 136.796 111.174 138.656C111.174 140.636 111.642 142.604 112.962 142.604ZM117.488 139.352V138.872H121.88V139.352H117.488ZM123.326 143C123.614 142.004 125.978 137.588 127.274 135.68H124.622C123.722 135.68 123.086 135.836 122.318 136.232H122.27L122.87 134.36H128.45C126.95 137.012 126.05 139.664 125.642 141.308C125.426 142.172 125.342 142.952 125.342 143H123.326ZM131.949 143.096C129.993 143.096 128.469 141.296 128.469 138.644C128.469 136.064 129.993 134.264 131.949 134.264C133.905 134.264 135.441 136.064 135.441 138.644C135.441 141.296 133.905 143.096 131.949 143.096ZM131.949 142.604C133.281 142.604 133.749 140.588 133.749 138.632C133.749 136.712 133.269 134.756 131.949 134.756C130.617 134.756 130.161 136.796 130.161 138.656C130.161 140.636 130.629 142.604 131.949 142.604ZM141.443 143.108C139.955 143.108 138.551 142.052 138.551 140C138.551 138.044 139.787 136.928 141.491 136.928C142.391 136.928 143.159 137.264 143.675 137.492L143.687 139.1H143.639C143.219 138.404 142.439 137.36 141.527 137.36C140.543 137.36 140.087 138.428 140.087 139.628C140.099 141.116 140.759 142.148 142.067 142.148C142.595 142.148 143.243 141.98 143.927 141.404L143.963 141.428C143.591 142.328 142.691 143.108 141.443 143.108ZM146.519 142.952V143H144.575V142.952C144.623 142.736 144.851 141.956 144.851 141.212V138.788C144.851 138.032 144.623 137.264 144.575 137.036V137H146.243V137.924C146.723 137.3 147.287 136.928 148.043 136.928C148.775 136.928 149.459 137.276 149.747 138.068C150.239 137.36 150.839 136.928 151.655 136.928C152.615 136.928 153.491 137.528 153.491 138.956V141.212C153.491 141.956 153.719 142.736 153.767 142.952V143H151.823V142.952C151.871 142.736 152.099 141.956 152.099 141.212V139.136C152.099 138.236 151.523 137.864 150.923 137.864C150.551 137.864 150.203 138.032 149.819 138.344C149.867 138.524 149.891 138.728 149.891 138.956V141.212C149.891 141.956 150.119 142.736 150.167 142.952V143H148.211V142.952C148.259 142.736 148.487 141.956 148.487 141.212V139.136C148.487 138.236 147.899 137.864 147.299 137.864C146.939 137.864 146.591 138.02 146.243 138.308V141.212C146.243 141.956 146.471 142.736 146.519 142.952ZM159.762 143.108C158.274 143.108 156.87 142.052 156.87 140C156.87 138.044 158.106 136.928 159.81 136.928C160.71 136.928 161.478 137.264 161.994 137.492L162.006 139.1H161.958C161.538 138.404 160.758 137.36 159.846 137.36C158.862 137.36 158.406 138.428 158.406 139.628C158.418 141.116 159.078 142.148 160.386 142.148C160.914 142.148 161.562 141.98 162.246 141.404L162.282 141.428C161.91 142.328 161.01 143.108 159.762 143.108ZM164.838 142.952V143H162.894V142.952C162.942 142.736 163.17 141.956 163.17 141.212V138.788C163.17 138.032 162.942 137.264 162.894 137.036V137H164.562V137.924C165.042 137.3 165.606 136.928 166.362 136.928C167.094 136.928 167.778 137.276 168.066 138.068C168.558 137.36 169.158 136.928 169.974 136.928C170.934 136.928 171.81 137.528 171.81 138.956V141.212C171.81 141.956 172.038 142.736 172.086 142.952V143H170.142V142.952C170.19 142.736 170.418 141.956 170.418 141.212V139.136C170.418 138.236 169.842 137.864 169.242 137.864C168.87 137.864 168.522 138.032 168.138 138.344C168.186 138.524 168.21 138.728 168.21 138.956V141.212C168.21 141.956 168.438 142.736 168.486 142.952V143H166.53V142.952C166.578 142.736 166.806 141.956 166.806 141.212V139.136C166.806 138.236 166.218 137.864 165.618 137.864C165.258 137.864 164.91 138.02 164.562 138.308V141.212C164.562 141.956 164.79 142.736 164.838 142.952Z" fill="white"/>
<path d="M277.058 108.627V128.41" stroke="#FEFEFE" stroke-opacity="0.6"/>
<path fill-rule="evenodd" clip-rule="evenodd" d="M0 108.627V128.41H1V108.627H0ZM1.40166 119.018H276.153V118.018H1.40166V119.018Z" fill="#FEFEFE" fill-opacity="0.6"/>
<g clip-path="url(#clip0_1656_27)">
<path d="M190.57 5.09736C188.174 -1.8479 170.56 6.6072 167.026 8.60019C157.62 13.9752 151.509 14.8207 141.205 10.9555C122.094 3.7687 100.647 0.80942 80.2778 1.35296C69.7938 1.65493 59.7291 4.19146 49.7843 7.21113C41.8763 9.62688 31.4521 8.90215 24.5626 13.8544C21.4474 16.089 20.369 18.8671 18.5718 22.0075C16.3551 25.9331 13.4196 27.6845 9.82508 30.4626C3.11529 35.6565 -5.57151 43.2661 5.69135 47.9768C5.81117 49.547 2.5162 51.238 2.33647 53.9557C2.15675 57.3982 5.51164 62.7732 7.12918 65.6721C9.16608 69.3561 12.7007 74.1272 16.6547 77.0261M199.017 17.5988C199.736 19.7126 200.036 21.2828 200.755 23.3966L201.653 24.6649C206.805 31.0062 190.69 30.523 187.814 30.1607C190.031 34.3278 202.731 35.7773 206.985 37.1663C213.755 39.4613 220.524 43.6888 227.833 43.3265C229.031 43.2661 230.17 43.1453 231.248 42.8433M197.22 71.2887C197.759 68.9333 195.662 68.0274 193.805 67.5443C192.966 67.3027 189.312 66.5176 191.409 65.3097C192.487 64.7058 194.344 64.887 195.483 64.9474C197.519 65.0077 199.496 65.4305 201.533 65.4305C205.427 65.3701 209.262 65.3701 213.156 65.2493C219.386 65.1285 226.156 64.2226 231.608 67.4839C231.727 67.5443 231.847 67.6651 231.967 67.7255C239.036 72.5569 245.027 78.8982 252.276 83.5486C254.193 84.7564 258.986 88.2593 261.502 86.8098L262.281 86.2663C278.277 66.6988 278.936 45.1987 270.069 28.2281C265.456 19.4106 257.368 25.3896 250.898 29.8587C244.428 34.3278 239.036 40.9107 231.308 42.8433M172.777 19.4106C172.837 19.1691 173.017 19.0483 173.256 18.9879C178.109 16.7533 183.141 14.8811 188.174 13.1297C189.552 12.6466 190.929 12.1634 192.367 12.3446C192.727 12.405 193.086 12.4654 193.326 12.6466C193.625 12.8277 193.805 13.1901 193.685 13.4921C193.625 13.8544 193.266 14.0356 192.906 14.2168C192.307 14.5188 191.648 14.7603 190.989 15.0019C188.114 16.0286 185.178 16.9949 182.243 17.9612C180.206 18.6255 177.809 19.2294 175.952 20.3769C175.413 20.7393 174.874 21.1016 174.155 20.9809C173.496 20.8601 172.957 20.3769 172.717 19.773C172.777 19.5918 172.777 19.5314 172.777 19.4106ZM74.5266 42.2394C79.9184 42.0582 84.8309 40.4276 89.8034 38.3138C91.9601 37.4079 94.2965 39.0989 94.0569 41.4543C93.5776 46.5273 93.0983 52.5063 90.3425 55.3448C86.3886 59.3911 79.8585 57.0962 75.5451 55.1032C68.8952 52.0835 56.6738 42.1186 65.2407 33.9655C65.2407 33.9655 69.8537 31.0666 73.8077 28.8924C78.0612 26.5371 82.4346 23.8797 87.2872 22.7323C89.5637 22.1887 97.7113 19.6522 93.4578 24.9064L93.1582 25.3896C97.292 25.8123 94.656 28.1677 92.6191 29.5567C94.8357 29.7983 96.573 28.7112 96.1537 32.2744C95.7343 35.5961 90.9416 36.1396 88.3655 36.9851L74.5865 42.179C74.4667 42.179 74.4667 42.2394 74.5266 42.2394ZM37.7426 23.8194C37.8025 33.7239 22.0465 33.6031 23.1847 23.155C24.2631 13.9752 37.6827 14.2168 37.7426 23.8194ZM11.5624 35.4149C11.6822 38.7366 6.82963 40.4276 9.40571 44.4136C6.05081 43.7492 3.53463 44.3532 4.49318 41.0919C5.21208 38.8573 9.40571 35.7169 11.5624 35.4149ZM25.5811 33.2407C20.9082 29.436 20.0096 27.6845 20.8483 24.6649C22.2861 27.3222 23.664 29.7983 25.5811 33.2407ZM9.58543 51.7816C9.58543 54.1369 9.58543 56.2507 9.58543 58.3041C5.69135 56.9754 5.63144 55.8883 9.58543 51.7816Z" stroke="white" stroke-miterlimit="10"/>
<path d="M197.22 71.2887C197.699 71.5302 194.524 85.4811 186.376 86.3266C177.33 87.2325 171.998 84.1525 166.307 78.1131C164.749 76.4825 161.454 71.7718 158.639 72.3153C156.422 72.7381 152.887 79.2606 151.449 80.7704C149.173 83.1862 138.809 94.6609 135.214 92.0036C97.232 106.377 52.54 95.748 16.6546 77.026" stroke="white" stroke-miterlimit="10"/>
<path d="M169.123 16.9949C168.224 16.2098 174.694 13.4317 175.054 13.2505C179.068 11.1971 183.321 9.74766 187.635 8.35861C188.114 8.17743 188.593 8.05664 189.132 8.11704C189.971 8.23782 190.57 8.84176 191.109 9.44569C191.229 9.56648 191.349 9.74766 191.409 9.92884C191.589 10.5328 190.75 11.0159 190.151 11.1971C186.976 12.103 183.8 13.0693 180.685 14.2168C177.81 15.2435 174.814 17.1157 171.819 17.5988C170.86 17.7196 169.902 17.5988 169.123 16.9949Z" stroke="white" stroke-miterlimit="10"/>
<path d="M90.6421 49.1846C83.9922 53.1706 77.8216 49.4866 70.8722 47.7956C76.4437 52.8686 87.7665 53.6538 90.6421 49.1846Z" stroke="white" stroke-miterlimit="10"/>
<path d="M89.2044 45.6818C89.5639 45.5006 89.5039 44.9571 89.0846 44.9571C86.6882 44.8967 85.2504 45.0175 83.8725 45.4402C82.1352 45.9838 75.7249 45.3194 74.6466 46.5877C74.4668 46.8293 74.7065 47.4936 75.006 47.6144C77.4024 48.2787 83.7527 48.0975 86.0292 47.554C87.4071 47.252 87.7067 46.2857 89.2044 45.6818Z" stroke="white" stroke-miterlimit="10"/>
<path d="M77.2826 16.1494C75.2457 12.6466 80.5776 9.02294 75.1259 6.42602C71.3517 4.61421 69.135 5.33893 67.6972 8.66058C66.2594 11.8614 65.9 15.7266 71.112 14.398C71.5314 14.2772 72.7895 15.8474 72.6697 16.3909C72.1904 18.8067 72.9093 20.1957 74.8863 19.471C76.0844 18.9879 78.7803 18.2028 77.2826 16.1494Z" stroke="white" stroke-miterlimit="10"/>
<path d="M123.652 15.485C122.334 13.6732 125.749 11.8614 122.274 10.5328C119.878 9.62687 118.5 9.98924 117.541 11.6803C116.643 13.3109 116.403 15.2435 119.698 14.5791C119.938 14.5187 120.776 15.3039 120.716 15.6058C120.417 16.8137 120.896 17.5384 122.094 17.1761C122.873 16.8741 124.611 16.5117 123.652 15.485Z" stroke="white" stroke-miterlimit="10"/>
<path d="M107.417 28.4697C105.859 26.3559 109.873 24.1817 105.799 22.6719C102.984 21.5848 101.366 22.0075 100.228 24.0005C99.1494 25.9331 98.9098 28.2281 102.804 27.443C103.103 27.3826 104.062 28.2885 104.002 28.6508C103.643 30.1003 104.182 30.9458 105.62 30.4626C106.518 30.1607 108.495 29.6775 107.417 28.4697Z" stroke="white" stroke-miterlimit="10"/>
<path d="M124.191 34.0862C122.634 31.9725 126.648 29.7983 122.574 28.2885C119.758 27.2014 118.141 27.6241 117.002 29.6171C115.924 31.5497 115.684 33.8447 119.578 33.0596C119.878 32.9992 120.836 33.9051 120.777 34.2674C120.417 35.7169 120.956 36.5624 122.394 36.0792C123.293 35.7169 125.33 35.2941 124.191 34.0862Z" stroke="white" stroke-miterlimit="10"/>
<path d="M107.057 16.6929C104.062 13.7336 111.91 10.6536 103.882 8.419C98.3105 6.90917 95.1353 7.5131 92.9786 10.2912C90.8818 13.0089 90.3426 16.2702 97.951 15.1227C98.5501 15.0623 100.407 16.3909 100.228 16.8137C99.5686 18.8671 100.647 20.0146 103.463 19.4106C105.32 19.1087 109.274 18.4443 107.057 16.6929Z" stroke="white" stroke-miterlimit="10"/>
<path d="M67.2176 26.9598C64.6415 22.9738 71.3513 18.8671 64.5217 15.9078C59.7889 13.8544 57.0331 14.6999 55.2359 18.4443C53.4386 22.0679 53.0192 26.4767 59.4894 24.9064C60.0286 24.7856 61.5862 26.5371 61.4664 27.141C60.8673 29.8587 61.8258 31.4289 64.2222 30.6438C65.7199 30.1607 69.1347 29.3152 67.2176 26.9598Z" stroke="white" stroke-miterlimit="10"/>
<path d="M56.4342 41.9374C52.7797 36.6228 62.7845 31.4893 52.7198 27.443C45.7704 24.6045 41.6966 25.6312 38.8809 30.4022C36.1251 35.1129 35.3463 40.7899 44.9916 38.9781C45.7704 38.8573 48.047 41.2127 47.8073 41.9978C46.8488 45.561 48.1668 47.6144 51.7613 46.6481C54.0978 46.0442 59.1301 45.0175 56.4342 41.9374Z" stroke="white" stroke-miterlimit="10"/>
<path d="M118.2 24.4233C116.582 22.1887 120.836 19.8938 116.463 18.2028C113.407 17.0553 111.73 17.5384 110.532 19.5918C109.393 21.6452 109.094 24.1213 113.228 23.2154C113.527 23.155 114.546 24.1213 114.486 24.4837C114.126 26.0539 114.725 26.8994 116.223 26.4163C117.241 26.2351 119.458 25.7519 118.2 24.4233Z" stroke="white" stroke-miterlimit="10"/>
<path d="M137.551 24.0005C135.035 21.3432 141.625 18.5651 134.855 16.6325C130.182 15.2435 127.486 15.8474 125.629 18.3235C123.832 20.7393 123.412 23.6986 129.823 22.6719C130.302 22.6115 131.859 23.759 131.74 24.1817C131.141 25.9935 132.099 27.0806 134.435 26.5371C136.053 26.1747 139.408 25.5708 137.551 24.0005Z" stroke="white" stroke-miterlimit="10"/>
<path d="M111.011 37.2267C110.592 38.4346 110.951 39.2801 112.21 39.2197C113.048 39.1593 114.067 39.0989 113.947 37.5287C113.827 36.2604 113.288 35.4149 112.21 35.2941C110.652 35.1129 110.951 36.3208 111.011 37.2267Z" stroke="white" stroke-miterlimit="10"/>
<path d="M142.104 25.9331C140.906 29.4963 146.178 29.9795 146.477 26.4163C146.717 23.155 141.684 21.3432 142.104 25.9331Z" stroke="white" stroke-miterlimit="10"/>
<path d="M165.409 36.1396C164.15 39.8236 168.524 36.4416 167.925 36.3812C167.865 36.4416 164.989 32.1537 165.409 36.1396Z" stroke="white" stroke-miterlimit="10"/>
<path d="M158.159 33.0596C157.201 35.9584 162.533 36.0188 161.155 32.516C160.196 30.3419 157.86 30.4626 158.159 33.0596Z" stroke="white" stroke-miterlimit="10"/>
<path d="M172.238 37.891C172.358 38.5554 172.657 38.7969 173.137 38.495C173.915 38.0118 172.118 36.3208 172.238 37.891Z" stroke="white" stroke-miterlimit="10"/>
<path d="M132.998 33.7843C132.279 35.8377 132.938 37.3475 135.095 37.2267C136.533 37.1663 138.33 36.9851 138.09 34.3278C137.91 32.0933 136.952 30.7042 135.035 30.4626C132.339 30.1003 132.878 32.1537 132.998 33.7843Z" stroke="white" stroke-miterlimit="10"/>
<path d="M149.652 32.2744C148.454 35.8981 153.786 36.3812 154.086 32.7576C154.325 29.4359 149.233 27.6241 149.652 32.2744Z" stroke="white" stroke-miterlimit="10"/>
<path d="M28.1571 18.2631C29.2953 20.1957 31.8714 21.9472 30.4336 23.8797C28.9359 25.9331 27.3183 22.5511 25.2215 22.9738C24.6824 25.6916 25.1616 28.1073 28.217 29.4963C30.7931 30.7042 33.0097 29.6171 34.5673 27.8657C36.6042 25.5104 36.0051 22.5511 34.5673 20.075C33.1295 17.5988 30.853 17.0553 28.1571 18.2631Z" stroke="white" stroke-miterlimit="10"/>
<path d="M190.57 5.09736C190.57 5.09736 198.957 14.096 199.017 17.6592" stroke="white" stroke-miterlimit="10"/>
<path d="M73.8076 39.7028C73.8076 39.7028 89.8631 35.1129 90.2825 33.4219C90.4622 32.7576 90.0429 32.2141 89.5037 31.7913C88.3654 30.9458 87.946 29.436 88.4852 28.1073V28.0469C89.3239 25.9331 87.6465 24.9064 86.4483 25.8727C85.2501 26.839 68.9549 35.2941 68.9549 35.2941C68.9549 35.2941 66.259 37.2871 67.2775 39.2197C68.2959 41.1523 69.7338 40.9107 69.7338 40.9107L73.8076 39.7028Z" stroke="white" stroke-miterlimit="10"/>
<path d="M183.741 65.1285C184.819 64.9473 185.957 65.3097 186.796 66.0344C188.414 67.4839 191.229 69.7788 193.626 70.3828C197.22 71.2887 193.626 76.7845 193.626 76.7845C193.626 76.7845 190.99 80.7704 182.662 70.8055L181.045 68.0878C180.386 66.9403 181.045 65.4909 182.303 65.3097L183.741 65.1285Z" stroke="white" stroke-miterlimit="10"/>
<path d="M175.353 66.3364C176.611 65.8532 178.049 66.3364 178.768 67.4839C181.224 71.2887 186.736 79.321 189.192 80.7704C192.487 82.6426 183.8 85.7831 179.846 83.9713C175.892 82.1595 173.256 67.0611 173.256 67.0611L175.353 66.3364Z" stroke="white" stroke-miterlimit="10"/>
<path d="M170.381 67.0611L173.975 77.9923C174.395 79.321 172.957 80.4081 171.819 79.6834C169.842 78.3547 167.505 76.4221 166.547 74.3687C165.828 72.8589 165.229 71.7114 164.689 70.8055C164.03 69.7184 164.689 68.3294 165.888 68.0274L170.381 67.0611Z" stroke="white" stroke-miterlimit="10"/>
<path d="M194.584 20.5581C195.123 20.4373 195.662 20.3165 196.202 20.3769C197.52 20.5581 198.538 21.7056 199.137 22.9134C199.497 23.6382 199.916 26.3559 199.557 27.141C199.077 28.0469 197.939 28.3489 196.921 28.4697C192.128 29.1944 188.773 29.0736 183.98 28.2281C183.381 28.1073 181.524 27.0202 181.404 26.2351C181.284 25.5708 182.003 25.0876 182.542 24.846C184.04 24.1817 184.879 23.8194 186.436 23.2758C188.833 22.4303 191.229 21.6452 193.626 20.7997C193.985 20.7393 194.285 20.6789 194.584 20.5581Z" stroke="white" stroke-miterlimit="10"/>
<path d="M196.681 18.2028C196.441 18.4443 196.082 18.6255 195.782 18.7463C191.409 20.2561 186.975 21.5244 182.722 23.3966C181.644 23.8797 180.565 24.3629 179.427 24.3025C178.468 24.2421 176.611 23.5174 176.252 22.4907C176.012 21.8264 180.865 20.1957 181.344 20.0146C185.178 18.8671 189.372 18.2028 192.787 15.9078C193.685 15.3039 194.704 14.5791 195.662 15.0623C196.381 15.4247 196.681 16.3306 196.86 17.1157C196.92 17.3572 196.92 17.6592 196.86 17.9008C196.8 18.0216 196.741 18.082 196.681 18.2028Z" stroke="white" stroke-miterlimit="10"/>
<path d="M180.805 5.33894C181.404 5.09736 181.943 4.91618 182.542 4.735C183.441 4.43303 184.339 4.07067 185.298 4.07067C187.275 4.07067 189.072 5.76169 186.556 6.90917C181.284 9.32491 175.952 11.7406 170.68 14.1564C169.662 14.6395 168.643 15.0623 167.505 15.1831C166.367 15.3039 165.169 14.9415 164.45 14.096C164.09 13.6732 163.91 13.0089 164.15 12.5258C164.33 12.1634 164.749 11.9822 165.109 11.801C170.261 9.44569 175.533 7.27153 180.805 5.33894Z" stroke="white" stroke-miterlimit="10"/>
</g>
<defs>
<clipPath id="clip0_1656_27">
<rect width="276" height="98.0187" fill="white" transform="matrix(-1 0 0 1 276 0.990601)"/>
</clipPath>
</defs>
</svg>
