<svg width="429" height="126" viewBox="0 0 429 126" fill="none" xmlns="http://www.w3.org/2000/svg">
<g filter="url(#filter0_d_1484_26)">
<path d="M4.916 13L6.068 8.752C6.248 8.056 6.272 7.348 6.236 7.084L6.248 7.036H7.568L7.064 8.992C7.64 7.924 8.408 6.964 9.464 6.964C10.256 6.964 10.94 7.504 10.616 8.86C11.192 7.852 11.948 6.964 12.944 6.964C13.772 6.964 14.468 7.528 14.084 8.98L13.28 11.944C13.1 12.592 14.024 12.04 14.78 10.84L14.864 10.924C14.36 12.124 13.544 13.084 12.812 13.084C12.284 13.084 11.96 12.712 12.2 11.848L12.944 9.148C13.232 8.104 12.884 7.708 12.416 7.708C11.564 7.708 10.652 9.076 10.112 10.744L9.488 13H8.384L9.452 9.148C9.74 8.104 9.404 7.708 8.936 7.708C8.024 7.708 7.052 9.256 6.536 11.032L6.02 13H4.916ZM16.4779 13.096C15.4339 13.096 14.8339 11.86 15.5899 9.808C16.3699 7.648 17.7379 6.964 18.6379 6.964C19.2619 6.964 19.6939 7.276 19.8259 7.756C20.2099 7.54 20.5699 7.288 20.8099 7.036H21.0259L19.7059 11.908C19.5139 12.628 20.4379 12.04 21.1939 10.84L21.2779 10.924C20.7739 12.124 19.9699 13.084 19.2019 13.084C18.7099 13.084 18.3979 12.724 18.6259 11.848L18.7699 11.344C18.0259 12.532 17.1739 13.096 16.4779 13.096ZM16.7659 9.772C16.2139 11.272 16.3339 12.352 17.0539 12.352C17.7739 12.352 18.7219 11.26 19.2259 9.64L19.5739 8.356C19.5979 7.924 19.4179 7.456 18.8899 7.444C18.1339 7.42 17.2579 8.38 16.7659 9.772ZM23.5221 13.144C22.7661 13.144 21.9741 12.916 21.3621 12.52L21.7821 11.26L21.8301 11.248C22.1061 11.932 22.7301 12.688 23.5581 12.712C24.0261 12.736 24.5061 12.544 24.6981 12.052C24.9501 11.368 24.3501 10.852 23.6181 10.36C22.9101 9.88 22.0581 9.244 22.3941 8.26C22.6581 7.42 23.4621 6.988 24.5301 6.964C25.2501 6.94 25.9221 7.144 26.4621 7.408L26.0901 8.632H26.0421C25.7781 7.912 25.1661 7.348 24.3861 7.372C23.9061 7.384 23.4861 7.588 23.3421 8.032C23.1381 8.668 23.8341 9.088 24.4701 9.52C25.4541 10.216 25.9461 10.888 25.6701 11.752C25.3821 12.664 24.5661 13.132 23.5221 13.144ZM28.4543 13.096C27.1583 13.096 26.2343 11.848 26.7623 9.88C27.2543 8.032 28.6583 6.964 29.9543 6.964C30.5543 6.964 31.1063 7.18 31.5743 7.504L31.2023 8.824H31.1543C30.9503 8.188 30.5663 7.36 29.9183 7.372C29.0663 7.384 28.2263 8.62 27.9023 9.82C27.5183 11.236 27.8783 12.316 28.9343 12.316C29.5823 12.316 30.5423 11.908 31.2383 10.648L31.3463 10.744C30.6623 12.268 29.5343 13.096 28.4543 13.096ZM31.5523 13L33.4363 5.944C33.6283 5.248 33.6403 4.588 33.6043 4.324V4.288L35.0323 4.084L33.6883 9.1C34.3123 8.008 35.2003 6.964 36.3043 6.964C37.1203 6.964 37.8163 7.528 37.4323 8.98L36.6163 11.944C36.4483 12.592 37.3723 12.04 38.1283 10.84L38.2123 10.924C37.7083 12.124 36.8923 13.084 36.1603 13.084C35.6323 13.084 35.3083 12.712 35.5483 11.848L36.2923 9.148C36.5803 8.104 36.2443 7.72 35.7763 7.72C34.8043 7.72 33.7003 9.352 33.1483 11.116L32.6443 13H31.5523ZM40.7464 5.74C40.3504 5.74 40.0984 5.392 40.2064 4.948C40.3264 4.516 40.7584 4.168 41.1664 4.168C41.5744 4.168 41.8264 4.516 41.7064 4.948C41.5984 5.392 41.1544 5.74 40.7464 5.74ZM39.2464 13.036C38.7304 13.036 38.4064 12.628 38.6704 11.68L39.4744 8.716C39.6664 8.02 39.6544 7.432 39.6424 7.084L39.6544 7.036H41.0224L39.7624 11.668C39.4624 12.772 40.4464 11.992 41.2024 10.78L41.2864 10.864C40.7824 12.064 39.9904 13.036 39.2464 13.036ZM43.7625 13.144C42.3705 13.12 41.4705 11.908 41.9985 9.952C42.5025 8.056 43.9305 6.94 45.3225 6.964C46.7025 6.988 47.5785 8.164 47.0745 10.06C46.5585 12.004 45.1425 13.168 43.7625 13.144ZM43.8705 12.736C44.7585 12.76 45.4905 11.464 45.8865 10.036C46.2585 8.656 46.0785 7.384 45.1905 7.372C44.2905 7.348 43.5705 8.608 43.1865 9.976C42.8025 11.392 42.9585 12.724 43.8705 12.736Z" fill="white"/>
<path d="M221.344 15.232C222.556 14.572 223.168 13.828 223.744 11.716L224.86 7.48H223.924L224.044 7.036H224.98L225.124 6.52C225.592 4.768 226.552 4.204 227.524 4.204C227.992 4.204 228.46 4.324 228.916 4.552L228.616 5.68H228.556C228.232 5.08 227.896 4.6 227.488 4.6C226.888 4.6 226.552 5.344 226.216 6.568L226.084 7.036H227.908L227.8 7.48H225.964L224.824 11.716C224.164 14.212 223.048 15.1 221.344 15.232ZM229.105 13.096C227.809 13.096 226.837 11.848 227.437 9.808C227.941 8.032 229.357 6.964 230.725 6.964C231.733 6.964 232.537 7.504 232.345 8.392C232.141 9.352 230.821 10.288 228.469 10.12C228.193 11.428 228.637 12.328 229.585 12.328C230.245 12.328 231.253 11.932 231.997 10.648L232.105 10.744C231.433 12.268 230.185 13.096 229.105 13.096ZM228.577 9.7C228.565 9.736 228.553 9.784 228.541 9.832C230.365 9.808 231.121 9.124 231.313 8.416C231.469 7.828 231.205 7.36 230.665 7.36C229.729 7.36 228.901 8.62 228.577 9.7ZM232.285 13L233.437 8.752C233.617 8.056 233.641 7.348 233.605 7.084L233.617 7.036H234.937L234.433 8.992C235.009 7.924 235.777 6.964 236.833 6.964C237.625 6.964 238.309 7.504 237.985 8.86C238.561 7.852 239.317 6.964 240.313 6.964C241.141 6.964 241.837 7.528 241.453 8.98L240.649 11.944C240.469 12.592 241.393 12.04 242.149 10.84L242.233 10.924C241.729 12.124 240.913 13.084 240.181 13.084C239.653 13.084 239.329 12.712 239.569 11.848L240.313 9.148C240.601 8.104 240.253 7.708 239.785 7.708C238.933 7.708 238.021 9.076 237.481 10.744L236.857 13H235.753L236.821 9.148C237.109 8.104 236.773 7.708 236.305 7.708C235.393 7.708 234.421 9.256 233.905 11.032L233.389 13H232.285ZM242.36 13L243.512 8.752C243.692 8.056 243.716 7.348 243.68 7.084L243.692 7.036H245.012L244.508 8.992C245.084 7.924 245.852 6.964 246.908 6.964C247.7 6.964 248.384 7.504 248.06 8.86C248.636 7.852 249.392 6.964 250.388 6.964C251.216 6.964 251.912 7.528 251.528 8.98L250.724 11.944C250.544 12.592 251.468 12.04 252.224 10.84L252.308 10.924C251.804 12.124 250.988 13.084 250.256 13.084C249.728 13.084 249.404 12.712 249.644 11.848L250.388 9.148C250.676 8.104 250.328 7.708 249.86 7.708C249.008 7.708 248.096 9.076 247.556 10.744L246.932 13H245.828L246.896 9.148C247.184 8.104 246.848 7.708 246.38 7.708C245.468 7.708 244.496 9.256 243.98 11.032L243.464 13H242.36ZM254.847 5.74C254.451 5.74 254.199 5.392 254.307 4.948C254.427 4.516 254.859 4.168 255.267 4.168C255.675 4.168 255.927 4.516 255.807 4.948C255.699 5.392 255.255 5.74 254.847 5.74ZM253.347 13.036C252.831 13.036 252.507 12.628 252.771 11.68L253.575 8.716C253.767 8.02 253.755 7.432 253.743 7.084L253.755 7.036H255.123L253.863 11.668C253.563 12.772 254.547 11.992 255.303 10.78L255.387 10.864C254.883 12.064 254.091 13.036 253.347 13.036ZM255.584 13L256.736 8.752C256.916 8.056 256.94 7.348 256.904 7.084L256.916 7.036H258.236L257.684 9.148C258.308 8.044 259.22 6.964 260.336 6.964C261.152 6.964 261.848 7.528 261.464 8.98L260.648 11.944C260.48 12.592 261.404 12.04 262.16 10.84L262.244 10.924C261.74 12.124 260.924 13.084 260.192 13.084C259.664 13.084 259.34 12.712 259.58 11.848L260.324 9.148C260.612 8.104 260.276 7.72 259.808 7.72C258.848 7.72 257.732 9.352 257.18 11.116L256.688 13H255.584ZM263.853 13.096C262.809 13.096 262.209 11.86 262.965 9.808C263.745 7.648 265.113 6.964 266.013 6.964C266.637 6.964 267.069 7.276 267.201 7.756C267.585 7.54 267.945 7.288 268.185 7.036H268.401L267.081 11.908C266.889 12.628 267.813 12.04 268.569 10.84L268.653 10.924C268.149 12.124 267.345 13.084 266.577 13.084C266.085 13.084 265.773 12.724 266.001 11.848L266.145 11.344C265.401 12.532 264.549 13.096 263.853 13.096ZM264.141 9.772C263.589 11.272 263.709 12.352 264.429 12.352C265.149 12.352 266.097 11.26 266.601 9.64L266.949 8.356C266.973 7.924 266.793 7.456 266.265 7.444C265.509 7.42 264.633 8.38 264.141 9.772Z" fill="white"/>
<path d="M80.024 114.55C79.004 114.55 78.044 114.214 77.42 113.938L77.756 112.102L77.816 112.09C78.416 113.146 79.04 114.094 80.036 114.094C80.96 114.094 81.464 113.326 81.464 112.366C81.464 111.178 80.54 110.338 79.28 110.134V109.954C80.516 109.738 81.44 108.91 81.44 107.746C81.44 106.87 80.924 106.09 80.036 106.09C79.16 106.09 78.512 106.906 77.852 108.022H77.792L77.48 106.234C78.092 105.97 79.028 105.634 80.036 105.634C81.284 105.634 83.06 106.21 83.06 107.818C83.06 109.03 82.016 109.882 80.576 110.038C82.04 110.17 83.12 111.01 83.12 112.282C83.12 113.95 81.32 114.55 80.024 114.55ZM87.1773 114.502C85.2213 114.502 83.6973 112.702 83.6973 110.05C83.6973 107.47 85.2213 105.67 87.1773 105.67C89.1333 105.67 90.6693 107.47 90.6693 110.05C90.6693 112.702 89.1333 114.502 87.1773 114.502ZM87.1773 114.01C88.5093 114.01 88.9773 111.994 88.9773 110.038C88.9773 108.118 88.4973 106.162 87.1773 106.162C85.8453 106.162 85.3893 108.202 85.3893 110.062C85.3893 112.042 85.8573 114.01 87.1773 114.01ZM91.031 115.474L94.943 105.046H95.435L91.523 115.474H91.031ZM98.5507 114.55C97.5307 114.55 96.7147 114.214 96.0787 113.842L96.2467 112.09L96.3067 112.078C96.9547 113.254 97.7467 114.082 98.5507 114.082C99.4627 114.082 100.087 113.29 100.087 111.934C100.087 110.65 99.4507 109.738 98.2387 109.714C97.8067 109.702 97.0987 109.822 96.2347 110.29L96.6667 105.766H96.7387H99.3307C100.291 105.766 101.203 105.574 101.551 105.37L101.227 107.062H97.0507L96.7987 109.594C97.4827 109.186 98.2027 108.982 98.8867 108.982C100.735 108.982 101.695 110.254 101.695 111.742C101.695 113.47 100.375 114.55 98.5507 114.55ZM105.813 114.502C103.857 114.502 102.333 112.702 102.333 110.05C102.333 107.47 103.857 105.67 105.813 105.67C107.769 105.67 109.305 107.47 109.305 110.05C109.305 112.702 107.769 114.502 105.813 114.502ZM105.813 114.01C107.145 114.01 107.613 111.994 107.613 110.038C107.613 108.118 107.133 106.162 105.813 106.162C104.481 106.162 104.025 108.202 104.025 110.062C104.025 112.042 104.493 114.01 105.813 114.01ZM115.306 114.514C113.818 114.514 112.414 113.458 112.414 111.406C112.414 109.45 113.65 108.334 115.354 108.334C116.254 108.334 117.022 108.67 117.538 108.898L117.55 110.506H117.502C117.082 109.81 116.302 108.766 115.39 108.766C114.406 108.766 113.95 109.834 113.95 111.034C113.962 112.522 114.622 113.554 115.93 113.554C116.458 113.554 117.106 113.386 117.79 112.81L117.826 112.834C117.454 113.734 116.554 114.514 115.306 114.514ZM120.382 114.358V114.406H118.438V114.358C118.486 114.142 118.714 113.362 118.714 112.618V110.194C118.714 109.438 118.486 108.67 118.438 108.442V108.406H120.106V109.33C120.586 108.706 121.15 108.334 121.906 108.334C122.638 108.334 123.322 108.682 123.61 109.474C124.102 108.766 124.702 108.334 125.518 108.334C126.478 108.334 127.354 108.934 127.354 110.362V112.618C127.354 113.362 127.582 114.142 127.63 114.358V114.406H125.686V114.358C125.734 114.142 125.962 113.362 125.962 112.618V110.542C125.962 109.642 125.386 109.27 124.786 109.27C124.414 109.27 124.066 109.438 123.682 109.75C123.73 109.93 123.754 110.134 123.754 110.362V112.618C123.754 113.362 123.982 114.142 124.03 114.358V114.406H122.074V114.358C122.122 114.142 122.35 113.362 122.35 112.618V110.542C122.35 109.642 121.762 109.27 121.162 109.27C120.802 109.27 120.454 109.426 120.106 109.714V112.618C120.106 113.362 120.334 114.142 120.382 114.358Z" fill="white"/>
<path d="M203.852 91V101.456" stroke="#FEFEFE" stroke-opacity="0.6"/>
<path fill-rule="evenodd" clip-rule="evenodd" d="M5 91V101.456H6V91H5ZM6.14654 96.7279H203.202V95.7279H6.14654V96.7279Z" fill="#FEFEFE" fill-opacity="0.6"/>
<path d="M300.024 116.55C299.004 116.55 298.044 116.214 297.42 115.938L297.756 114.102L297.816 114.09C298.416 115.146 299.04 116.094 300.036 116.094C300.96 116.094 301.464 115.326 301.464 114.366C301.464 113.178 300.54 112.338 299.28 112.134V111.954C300.516 111.738 301.44 110.91 301.44 109.746C301.44 108.87 300.924 108.09 300.036 108.09C299.16 108.09 298.512 108.906 297.852 110.022H297.792L297.48 108.234C298.092 107.97 299.028 107.634 300.036 107.634C301.284 107.634 303.06 108.21 303.06 109.818C303.06 111.03 302.016 111.882 300.576 112.038C302.04 112.17 303.12 113.01 303.12 114.282C303.12 115.95 301.32 116.55 300.024 116.55ZM307.177 116.502C305.221 116.502 303.697 114.702 303.697 112.05C303.697 109.47 305.221 107.67 307.177 107.67C309.133 107.67 310.669 109.47 310.669 112.05C310.669 114.702 309.133 116.502 307.177 116.502ZM307.177 116.01C308.509 116.01 308.977 113.994 308.977 112.038C308.977 110.118 308.497 108.162 307.177 108.162C305.845 108.162 305.389 110.202 305.389 112.062C305.389 114.042 305.857 116.01 307.177 116.01ZM311.031 117.474L314.943 107.046H315.435L311.523 117.474H311.031ZM318.551 116.55C317.531 116.55 316.715 116.214 316.079 115.842L316.247 114.09L316.307 114.078C316.955 115.254 317.747 116.082 318.551 116.082C319.463 116.082 320.087 115.29 320.087 113.934C320.087 112.65 319.451 111.738 318.239 111.714C317.807 111.702 317.099 111.822 316.235 112.29L316.667 107.766H316.739H319.331C320.291 107.766 321.203 107.574 321.551 107.37L321.227 109.062H317.051L316.799 111.594C317.483 111.186 318.203 110.982 318.887 110.982C320.735 110.982 321.695 112.254 321.695 113.742C321.695 115.47 320.375 116.55 318.551 116.55ZM325.813 116.502C323.857 116.502 322.333 114.702 322.333 112.05C322.333 109.47 323.857 107.67 325.813 107.67C327.769 107.67 329.305 109.47 329.305 112.05C329.305 114.702 327.769 116.502 325.813 116.502ZM325.813 116.01C327.145 116.01 327.613 113.994 327.613 112.038C327.613 110.118 327.133 108.162 325.813 108.162C324.481 108.162 324.025 110.202 324.025 112.062C324.025 114.042 324.493 116.01 325.813 116.01ZM335.306 116.514C333.818 116.514 332.414 115.458 332.414 113.406C332.414 111.45 333.65 110.334 335.354 110.334C336.254 110.334 337.022 110.67 337.538 110.898L337.55 112.506H337.502C337.082 111.81 336.302 110.766 335.39 110.766C334.406 110.766 333.95 111.834 333.95 113.034C333.962 114.522 334.622 115.554 335.93 115.554C336.458 115.554 337.106 115.386 337.79 114.81L337.826 114.834C337.454 115.734 336.554 116.514 335.306 116.514ZM340.382 116.358V116.406H338.438V116.358C338.486 116.142 338.714 115.362 338.714 114.618V112.194C338.714 111.438 338.486 110.67 338.438 110.442V110.406H340.106V111.33C340.586 110.706 341.15 110.334 341.906 110.334C342.638 110.334 343.322 110.682 343.61 111.474C344.102 110.766 344.702 110.334 345.518 110.334C346.478 110.334 347.354 110.934 347.354 112.362V114.618C347.354 115.362 347.582 116.142 347.63 116.358V116.406H345.686V116.358C345.734 116.142 345.962 115.362 345.962 114.618V112.542C345.962 111.642 345.386 111.27 344.786 111.27C344.414 111.27 344.066 111.438 343.682 111.75C343.73 111.93 343.754 112.134 343.754 112.362V114.618C343.754 115.362 343.982 116.142 344.03 116.358V116.406H342.074V116.358C342.122 116.142 342.35 115.362 342.35 114.618V112.542C342.35 111.642 341.762 111.27 341.162 111.27C340.802 111.27 340.454 111.426 340.106 111.714V114.618C340.106 115.362 340.334 116.142 340.382 116.358Z" fill="white"/>
<path d="M424.02 92.6119V103.129" stroke="#FEFEFE" stroke-opacity="0.6"/>
<path fill-rule="evenodd" clip-rule="evenodd" d="M224 92.6119V103.129H225V92.6119H224ZM225.15 98.3706H423.366V97.3706H225.15V98.3706Z" fill="#FEFEFE" fill-opacity="0.6"/>
<g clip-path="url(#clip0_1484_26)">
<path d="M15.4239 57.6126C12.6331 57.1531 9.92842 56.1728 7.49061 54.7386C6.60388 54.215 5.70325 53.5773 5.32243 52.6165C4.8332 51.38 5.37524 49.9263 6.30645 48.9794C7.23765 48.0325 8.49408 47.4895 9.71994 46.9826C14.868 44.8522 20.1467 42.9529 24.9306 40.0984C28.016 38.2603 30.8792 36.0324 34.1259 34.4979C38.1231 32.6097 42.5401 31.8439 46.8987 31.1087" stroke="white" stroke-miterlimit="10"/>
<path d="M9.784 56.0586C8.99456 55.9806 8.16065 55.9946 7.45182 56.3538C6.74299 56.7131 6.19817 57.5012 6.34271 58.2838C6.51227 59.2167 7.49352 59.7291 8.35801 60.1134C17.0696 63.965 25.595 68.2454 33.8925 72.9268C35.5409 73.8569 37.1865 74.8066 38.9266 75.5529C41.6979 76.7393 44.6611 77.3882 47.6048 78.0315C58.6292 80.4404 70.0983 82.8522 81.0838 80.2734" stroke="white" stroke-miterlimit="10"/>
<path d="M7.98553 56.8245C7.31562 57.1141 6.68184 57.7908 6.87364 58.4954C7.00151 58.9661 7.4685 59.2835 7.94939 59.3754C8.43028 59.4673 8.92229 59.3782 9.4004 59.2891C11.185 58.9577 12.9696 58.6291 14.7541 58.2977" stroke="white" stroke-miterlimit="10"/>
<path d="M31.01 50.3663C33.0948 49.6283 33.5228 48.5115 33.6312 46.6429C33.7397 44.7742 32.2664 42.925 30.4123 42.6967C29.848 42.627 29.2754 42.6939 28.7167 42.783C28.2108 42.8638 27.7021 42.9668 27.2323 43.1729C25.9481 43.7382 25.0725 45.1028 25.0364 46.5064C25.0002 47.91 25.7813 49.2941 26.9683 50.0405C28.1552 50.7868 29.7091 50.8898 31.01 50.3663Z" stroke="white" stroke-miterlimit="10"/>
<path d="M28.8115 48.0938C29.4342 48.3055 30.1625 47.7903 30.2487 47.1358C30.3348 46.4813 29.8512 45.8297 29.2202 45.6375C28.9005 45.54 28.5447 45.5484 28.2445 45.696C27.619 46.0107 27.4523 46.9492 27.8887 47.4978C28.3251 48.0465 29.2174 48.1189 29.7761 47.6983" stroke="white" stroke-miterlimit="10"/>
<path d="M25.5195 41.8306C24.2937 42.4126 23.5126 43.6658 23.0623 44.9469C22.6286 46.1834 22.4424 47.5591 22.8566 48.804C23.557 50.9149 25.8698 52.1653 28.0908 52.2405C31.1568 52.3436 34.1978 50.4415 35.4487 47.6371" stroke="white" stroke-miterlimit="10"/>
<path d="M44.9893 35.4949C46.0344 34.4339 47.3298 33.6235 48.7391 33.1472C49.4507 32.9077 50.3652 32.8075 50.8322 33.3951C51.1519 33.7989 51.1213 34.3782 50.9907 34.8767C50.5765 36.4362 49.3618 37.6727 48.8697 39.2072" stroke="white" stroke-miterlimit="10"/>
<path d="M52.0859 32.3118C52.8726 32.2783 53.6704 32.2839 54.4348 32.4789C55.1992 32.6738 55.9331 33.072 56.4028 33.7042C56.9671 34.4645 57.0922 35.4893 56.9087 36.4223C56.7253 37.3524 56.2666 38.2046 55.7524 39.0011" stroke="white" stroke-miterlimit="10"/>
<path d="M57.6367 38.9538C58.9154 39.4188 59.7187 40.7695 59.8605 42.123C60.0023 43.4764 59.5881 44.8299 59.0433 46.0775" stroke="white" stroke-miterlimit="10"/>
<path d="M53.6004 44.8299C54.0896 44.2674 54.526 43.6575 54.8957 43.0086C55.1653 42.5407 55.4072 42.0422 55.4878 41.5075C55.6851 40.2209 54.9457 38.99 54.173 37.9401C53.9311 37.6114 53.6726 37.28 53.3252 37.0684C52.9777 36.8567 52.5079 36.7927 52.166 37.0127" stroke="white" stroke-miterlimit="10"/>
<path d="M47.4156 46.0525C48.244 45.593 48.9361 44.8912 49.3864 44.0585C49.7506 43.3818 49.959 42.5964 49.8395 41.8361C49.7478 41.2541 49.4726 40.7166 49.1418 40.2292C48.5748 39.3993 47.8298 38.6892 46.9736 38.1656" stroke="white" stroke-miterlimit="10"/>
<path d="M48.9502 47.4394C50.1594 47.871 50.9711 49.1381 51.0239 50.4248C51.0767 51.7114 50.4512 52.9702 49.5061 53.8418C49.3282 54.0062 49.1337 54.2874 49.3116 54.449" stroke="white" stroke-miterlimit="10"/>
<path d="M55.9051 47.0133C56.5584 47.0244 57.0865 47.5535 57.434 48.1105C57.8343 48.7566 58.0956 49.5085 58.0566 50.2688C58.0122 51.1433 57.573 51.962 56.992 52.6165C56.411 53.2709 55.6911 53.7861 54.9795 54.2958C55.0601 54.3849 55.2352 54.3376 55.2602 54.2206" stroke="white" stroke-miterlimit="10"/>
<path d="M62.8184 43.9638C64.261 44.0167 65.4591 45.2003 66.0067 46.537C66.7656 48.389 66.4931 50.6281 65.3118 52.2433" stroke="white" stroke-miterlimit="10"/>
<path d="M62.832 37.5307C63.9967 37.7674 64.8918 38.8229 65.1336 39.987C65.3755 41.151 65.0391 42.382 64.4109 43.3929" stroke="white" stroke-miterlimit="10"/>
<path d="M59.4238 31.6768C60.0187 31.6824 60.4579 32.2254 60.7609 32.7406C61.5531 34.0885 62.0479 35.779 61.4085 37.2076C61.0388 38.032 60.3384 38.6586 59.888 39.4411" stroke="white" stroke-miterlimit="10"/>
<path d="M65.2917 31.6879C65.9116 32.348 66.4925 33.0609 66.8706 33.8824C67.2486 34.704 67.4071 35.6564 67.1597 36.5281C66.8428 37.6393 65.9366 38.458 65.1416 39.2935C65.0221 39.4188 64.9526 39.6918 65.1249 39.7057" stroke="white" stroke-miterlimit="10"/>
<path d="M68.333 37.915C69.6228 37.954 70.5929 39.2685 70.6624 40.5606C70.7319 41.8528 70.1204 43.0782 69.4171 44.1615" stroke="white" stroke-miterlimit="10"/>
<path d="M68.4023 43.638C68.8026 43.5294 69.1751 43.8802 69.4003 44.2284C70.3732 45.7155 70.4288 47.7568 69.5392 49.2969" stroke="white" stroke-miterlimit="10"/>
<path d="M54.0063 69.3064C53.1085 68.8218 52.5025 67.8388 52.4719 66.8195C52.4413 65.8002 52.9889 64.7809 53.8534 64.2462C54.8402 63.6363 56.1022 63.6586 57.1363 63.1351C57.9118 62.7452 58.5067 62.0768 59.096 61.4363C65.0279 54.9642 72.0939 49.6366 79.3879 44.7547C79.9022 44.4094 80.4442 44.0585 81.0585 43.9805C81.6729 43.9025 82.3817 44.1894 82.5763 44.7798C82.7764 45.3785 82.3956 46.0023 82.0342 46.5203C82.6902 46.512 83.5742 46.7153 83.5742 47.3725C83.5742 47.7234 83.2907 48.0019 83.1683 48.3305C82.9376 48.9627 83.4713 49.748 84.144 49.7592C84.2775 50.4582 83.2684 51.0319 83.4769 51.7114C83.5964 52.1041 84.0662 52.2739 84.283 52.6221C84.6333 53.1874 84.1996 53.892 83.816 54.435C83.4324 54.9781 83.11 55.7885 83.5964 56.2396C83.7354 56.3705 83.9244 56.4429 84.0551 56.5822C84.4248 56.9832 84.119 57.6321 83.7549 58.0359C83.3907 58.4397 82.9376 58.9048 83.0516 59.4367C83.11 59.7068 83.3046 59.9185 83.4741 60.1357C84.2135 61.0882 84.5304 62.294 84.8306 63.4637C84.9891 64.0819 85.1475 64.7225 85.0419 65.3518C84.8862 66.2681 84.2052 66.9894 83.6214 67.7134C82.3178 69.3287 81.3699 71.2363 80.8723 73.2526C80.5888 74.4028 80.3414 75.7423 79.3129 76.3244C78.2566 76.9203 76.9473 76.394 75.8494 75.8788C73.5922 74.8149 71.3101 73.8012 69.0001 72.8599C67.652 72.3113 66.276 71.7822 64.8305 71.6207C63.4018 71.4619 61.9563 71.668 60.522 71.5622C57.9035 71.3728 55.4601 70.1558 53.2947 68.6714" stroke="white" stroke-miterlimit="10"/>
<path d="M61.3311 63.9009C61.634 62.191 62.9016 60.8264 64.2164 59.6957C69.1059 55.4821 75.4937 52.8894 79.2436 47.6315" stroke="white" stroke-miterlimit="10"/>
<path d="M63.4209 65.0037C64.4383 62.2996 66.9039 60.4142 69.4445 59.0496C71.9852 57.685 74.7399 56.6797 77.0665 54.9725C78.7761 53.7165 80.202 52.1208 81.6114 50.5362" stroke="white" stroke-miterlimit="10"/>
<path d="M65.5586 65.7974C67.5739 63.8926 69.6503 61.971 72.1688 60.8152C73.8116 60.0633 75.5934 59.6623 77.2584 58.9605C79.1653 58.1584 80.9054 56.9637 82.3398 55.4738" stroke="white" stroke-miterlimit="10"/>
<path d="M66.4593 67.0673C66.2424 67.0673 66.3953 66.7165 66.5927 66.6218C71.1125 64.5108 76.255 63.7672 81.1862 64.5052" stroke="white" stroke-miterlimit="10"/>
<path d="M66.501 68.5155C70.8846 67.2512 75.7797 67.875 79.7074 70.2004" stroke="white" stroke-miterlimit="10"/>
<path d="M68.7275 69.5905C72.3884 70.5234 75.2654 73.4392 78.8763 74.5504" stroke="white" stroke-miterlimit="10"/>
<path d="M39.0762 73.8959C40.719 74.4056 42.5341 73.6174 43.7572 72.4032C44.9803 71.189 45.7447 69.6044 46.5703 68.0922C47.3959 66.58 48.3549 65.0622 49.8087 64.1376C50.637 63.6113 51.5932 63.3022 52.391 62.734C54.1673 61.4669 54.8455 59.1833 55.407 57.0695" stroke="white" stroke-miterlimit="10"/>
<path d="M38.2061 32.9606C50.9983 29.758 67.646 27.3184 80.8219 27.7668C85.792 27.9367 90.765 28.2932 95.6684 29.1147C100.158 29.8666 104.572 31.0084 108.98 32.1475C114.754 33.6402 120.527 35.1301 126.304 36.6228C127.73 36.9904 129.164 37.3636 130.498 37.9874C133.55 39.4188 135.896 42.0951 138.976 43.4709C140.172 44.0028 141.453 44.3286 142.623 44.9107C143.705 45.4481 144.669 46.1889 145.625 46.9241C149.172 49.6561 152.719 52.3853 156.266 55.1173" stroke="white" stroke-miterlimit="10"/>
<path d="M72.5195 81.3817C84.7142 81.8663 99.4884 80.6744 111.144 77.0512C122.969 73.3751 134.532 67.5408 146.91 67.8193C152.197 67.939 157.387 69.1839 162.527 70.4204" stroke="white" stroke-miterlimit="10"/>
<path d="M112.13 76.9983C116.9 79.4323 122.293 80.6242 127.643 80.4265C128.566 80.3931 129.503 80.3151 130.368 79.9865C131.288 79.6384 132.152 79.0007 133.133 79.0424C133.712 79.0675 134.318 79.3265 134.846 79.0898C135.154 78.9533 135.368 78.6748 135.599 78.4297C136.394 77.5804 137.506 77.0373 138.665 76.9343C139.143 76.8925 139.641 76.9203 140.094 76.7588C140.566 76.5917 140.944 76.2352 141.339 75.9233C142.824 74.7481 144.733 74.1215 146.623 74.1883C147.032 74.2023 147.474 74.2413 147.816 74.0157C148.027 73.8764 148.169 73.6564 148.344 73.4698C149.714 72.0245 152.425 73.3111 153.998 72.0913C154.771 71.4926 155.035 70.3257 154.593 69.454C154.154 68.5823 153.058 68.1005 152.119 68.3679" stroke="white" stroke-miterlimit="10"/>
<path d="M117.042 75.6031C118.398 75.7395 119.624 76.4218 120.87 76.976C122.882 77.87 125.034 78.4492 127.224 78.686" stroke="white" stroke-miterlimit="10"/>
<path d="M121.351 74.2775C121.34 74.3415 121.226 74.2663 121.265 74.2106C121.304 74.1549 121.384 74.1633 121.448 74.1772C125.365 75.0517 129.168 76.4358 132.731 78.2877" stroke="white" stroke-miterlimit="10"/>
<path d="M125.009 72.328C128.317 74.0407 131.872 75.2661 135.53 75.954" stroke="white" stroke-miterlimit="10"/>
<path d="M128.336 70.93C131.683 72.9268 135.43 74.2496 139.285 74.801" stroke="white" stroke-miterlimit="10"/>
<path d="M132.48 70.0138C135.844 71.6095 139.327 72.9463 142.893 74.0101" stroke="white" stroke-miterlimit="10"/>
<path d="M136.825 69.0641C138.657 69.8745 140.489 70.6849 142.321 71.4981C143.238 71.9047 144.164 72.3141 145.15 72.484" stroke="white" stroke-miterlimit="10"/>
<path d="M140.375 68.5628C143.055 69.5793 145.79 70.4482 148.564 71.1639" stroke="white" stroke-miterlimit="10"/>
<path d="M146.104 68.8803C147.633 69.5793 149.204 70.1864 150.805 70.6961" stroke="white" stroke-miterlimit="10"/>
<path d="M89.5674 59.7319C89.7091 59.8099 89.8509 59.8879 89.9899 59.9714C91.5132 60.9127 92.3749 62.7312 92.4083 64.5219C92.4416 66.3126 91.7217 68.0616 90.657 69.5041" stroke="white" stroke-miterlimit="10"/>
<path d="M92.4697 51.6529C94.7463 54.1064 96.5309 57.9329 93.576 60.6843" stroke="white" stroke-miterlimit="10"/>
<path d="M86.6846 52.1737C87.3406 52.9423 87.9549 53.7639 88.3357 54.7024C88.7165 55.6409 88.85 56.7047 88.5359 57.6683C88.2106 58.6736 87.4434 59.4646 86.704 60.2165" stroke="white" stroke-miterlimit="10"/>
<path d="M87.5049 42.1313C89.1505 43.6435 90.3569 44.4818 91.0379 46.6122C91.7189 48.7427 91.6884 52.2433 89.9677 53.6748" stroke="white" stroke-miterlimit="10"/>
<path d="M84.9004 37.1324C85.8677 38.199 86.8601 39.3074 87.3187 40.6748C87.7774 42.0422 87.5606 43.7438 86.4209 44.6238" stroke="white" stroke-miterlimit="10"/>
<path d="M88.3027 33.5427C89.3173 34.2473 89.9622 35.4559 89.9845 36.6896C90.0067 37.9233 89.4063 39.1571 88.4195 39.8978" stroke="white" stroke-miterlimit="10"/>
<path d="M89.3701 38.135C90.9935 38.7087 92.1471 40.4047 92.0887 42.1285C92.0581 43.0476 91.719 43.922 91.3854 44.7798" stroke="white" stroke-miterlimit="10"/>
<path d="M92.3359 42.5992C93.3366 43.3762 94.354 44.1671 95.0962 45.1919C95.8412 46.2196 96.2887 47.5313 96.0079 48.7678C95.8217 49.5865 95.3186 50.3245 94.6403 50.8202" stroke="white" stroke-miterlimit="10"/>
<path d="M96.9082 51.7504C98.2508 53.1679 99.6573 54.7107 99.9575 56.6435C100.219 58.3228 99.5184 60.119 98.1924 61.1773" stroke="white" stroke-miterlimit="10"/>
<path d="M95.8778 61.1968C97.0619 62.1771 97.7374 63.745 97.6345 65.2822C97.5317 66.8195 96.6561 68.2843 95.3496 69.0975" stroke="white" stroke-miterlimit="10"/>
<path d="M101.718 59.7987C102.969 60.2638 103.933 61.3666 104.37 62.6282C104.806 63.8898 104.748 65.2961 104.35 66.5716C104.119 67.3152 103.736 68.0699 103.049 68.4347" stroke="white" stroke-miterlimit="10"/>
<path d="M98.043 69.014C98.7713 69.117 99.2966 69.7715 99.594 70.4426C100.481 72.4561 99.8248 75.0349 98.0847 76.3745" stroke="white" stroke-miterlimit="10"/>
<path d="M102.368 52.9924C103.65 53.8335 104.853 54.9252 105.373 56.3678C105.893 57.8103 105.54 59.6539 104.244 60.4727" stroke="white" stroke-miterlimit="10"/>
<path d="M98.8076 45.3507C100.4 46.0191 101.615 47.5201 101.94 49.2189C102.266 50.9177 101.69 52.7613 100.459 53.9727" stroke="white" stroke-miterlimit="10"/>
<path d="M94.9297 38.8479C96.2779 39.43 97.1979 40.7389 97.69 42.1258C97.8679 42.6243 97.9985 43.145 97.9818 43.6742C97.9512 44.6934 97.3814 45.6069 96.8282 46.4646" stroke="white" stroke-miterlimit="10"/>
<path d="M100.983 40.349C101.876 40.4075 102.557 41.1678 103.004 41.9447C104.15 43.9248 104.433 46.3839 103.766 48.5728C103.708 48.765 103.488 48.9961 103.357 48.8429" stroke="white" stroke-miterlimit="10"/>
<path d="M98.8293 35.5506C99.2323 35.5005 99.6354 35.7316 99.88 36.0547C100.125 36.3777 100.241 36.7843 100.305 37.1881C100.667 39.4439 99.9662 41.5688 97.9814 42.6939" stroke="white" stroke-miterlimit="10"/>
<path d="M105.045 46.913C106.351 47.3001 107.33 48.4809 107.705 49.7926C108.08 51.1043 107.914 52.5218 107.488 53.8196C107.196 54.7107 106.752 55.5991 105.984 56.1366" stroke="white" stroke-miterlimit="10"/>
<path d="M107.488 53.8196C109.064 54.5576 109.84 55.251 110.49 56.8663C111.141 58.4815 110.435 60.8514 109.162 62.0406" stroke="white" stroke-miterlimit="10"/>
<path d="M105.679 59.1304C106.702 59.5871 107.675 60.1998 108.408 61.0464C109.142 61.893 109.62 62.9986 109.57 64.1181C109.52 65.2377 108.887 66.3544 107.877 66.8362" stroke="white" stroke-miterlimit="10"/>
<path d="M109.587 46.6178C112.055 48.0966 113.431 51.2073 112.864 54.034C112.725 54.7274 112.45 55.4404 111.877 55.847" stroke="white" stroke-miterlimit="10"/>
<path d="M106.271 41.2151C107.744 41.6802 108.945 42.9306 109.35 44.4233C109.756 45.916 109.356 47.6037 108.322 48.7538" stroke="white" stroke-miterlimit="10"/>
<path d="M111.371 43.1423C112.536 43.34 113.436 44.4122 113.631 45.579C113.826 46.7459 113.389 47.9573 112.655 48.8819" stroke="white" stroke-miterlimit="10"/>
<path d="M114.212 55.4654C115.28 56.1672 115.758 57.5458 115.661 58.8212C115.563 60.0967 114.98 61.2831 114.299 62.3636C114.129 62.631 113.837 62.9318 113.551 62.7953" stroke="white" stroke-miterlimit="10"/>
<path d="M115.01 48.4586C116.325 48.7093 117.161 50.0488 117.453 51.3549C117.828 53.0203 117.495 54.953 116.202 56.0642" stroke="white" stroke-miterlimit="10"/>
<path d="M118.701 56.5432C119.81 57.2144 120.552 58.462 120.619 59.7598C120.683 61.0575 120.069 62.372 119.029 63.149" stroke="white" stroke-miterlimit="10"/>
<path d="M113.673 38.6363C114.968 39.2183 115.911 40.5217 116.058 41.9364C116.205 43.3511 115.552 44.8215 114.404 45.657" stroke="white" stroke-miterlimit="10"/>
<path d="M116.711 43.6324C117.717 44.2896 118.634 45.1697 119.06 46.2948C119.485 47.4199 119.316 48.8262 118.432 49.6394" stroke="white" stroke-miterlimit="10"/>
<path d="M120.313 50.706C121.311 51.1739 122.054 52.157 122.229 53.2459C122.404 54.3348 122.009 55.5044 121.209 56.2619" stroke="white" stroke-miterlimit="10"/>
<path d="M134.007 53.6692C134.852 54.4211 135.625 55.3151 135.939 56.4012C136.253 57.4873 136.008 58.7962 135.113 59.4868" stroke="white" stroke-miterlimit="10"/>
<path d="M135.338 49.7202C136.519 49.0462 137.328 50.7395 137.584 51.6278C138.137 53.5578 137.35 55.2761 135.919 56.5571" stroke="white" stroke-miterlimit="10"/>
<path d="M137.709 54.1844C138.473 54.3236 138.799 54.7609 139.243 55.1953C140.914 56.8273 141.387 59.3142 139.619 60.9239C139.399 61.1244 139.146 61.2831 138.871 61.4001" stroke="white" stroke-miterlimit="10"/>
<path d="M136.105 59.7208C136.634 59.8628 137.07 60.2555 137.348 60.7289C137.626 61.2023 137.751 61.7482 137.804 62.294C137.898 63.2799 137.662 64.4273 136.803 64.9174" stroke="white" stroke-miterlimit="10"/>
<path d="M131.389 47.9935C131.953 48.6396 132.517 49.2969 132.901 50.0627C133.284 50.8286 133.471 51.7281 133.237 52.5552C133.062 53.179 132.662 53.7165 132.214 54.1844" stroke="white" stroke-miterlimit="10"/>
<path d="M128.628 52.8365C129.618 53.6775 130.635 54.6495 130.854 55.9277C131.052 57.0612 130.513 58.2866 129.545 58.9076" stroke="white" stroke-miterlimit="10"/>
<path d="M130.979 58.3172C132.236 58.5623 133.273 59.679 133.426 60.9517C133.581 62.2244 132.842 63.5584 131.68 64.0986" stroke="white" stroke-miterlimit="10"/>
<path d="M126.782 57.2589C127.538 57.8326 128.281 58.4759 128.698 59.3309C129.156 60.2694 129.165 61.4196 128.72 62.3664C128.275 63.3133 127.386 64.0374 126.368 64.2797" stroke="white" stroke-miterlimit="10"/>
<path d="M125.429 51.9787C125.96 52.235 126.338 52.7307 126.613 53.2514C127.052 54.0786 127.288 55.0366 127.141 55.9584C126.994 56.8802 126.421 57.7602 125.57 58.1473" stroke="white" stroke-miterlimit="10"/>
<path d="M123.13 59.0775C124.239 59.5008 124.956 60.7206 124.895 61.9097C124.834 63.0989 124.056 64.1933 123.005 64.7475" stroke="white" stroke-miterlimit="10"/>
<path d="M126.44 46.6122C127.772 47.4839 128.4 49.3025 127.889 50.8119C127.686 51.4134 127.274 51.9955 126.666 52.1653" stroke="white" stroke-miterlimit="10"/>
<path d="M121.479 45.7712C122.504 46.2836 123.305 47.2361 123.63 48.3389C123.955 49.4417 123.805 50.6754 123.221 51.6668C122.943 52.1375 122.565 52.5608 122.076 52.8086" stroke="white" stroke-miterlimit="10"/>
<path d="M124.461 42.421C125.687 43.159 126.343 44.738 126.001 46.1277C125.781 47.0216 125.134 47.8459 124.247 48.0827" stroke="white" stroke-miterlimit="10"/>
<path d="M119.419 41.2123C120.111 41.786 120.784 42.4488 121.065 43.3038C121.476 44.5598 120.848 46.072 119.666 46.6624" stroke="white" stroke-miterlimit="10"/>
<path d="M127.607 43.5488C128.247 43.8635 128.869 44.2423 129.348 44.7714C129.826 45.3005 130.154 45.9968 130.123 46.7097C130.073 47.8654 129.111 48.7984 128.055 49.2635" stroke="white" stroke-miterlimit="10"/>
<path d="M133.615 45.139C134.246 45.838 134.76 46.6429 135.127 47.509C135.366 48.0715 135.544 48.6842 135.45 49.2885C135.311 50.1825 134.613 50.8704 133.954 51.4886" stroke="white" stroke-miterlimit="10"/>
<path d="M150.43 50.6253C150.958 51.1516 152.912 51.3995 153.654 51.4914C165.143 52.9395 176.098 51.9537 187.461 49.7146C191.002 49.0156 194.544 48.1384 198.155 48.1133C199.406 48.1049 200.695 48.208 201.813 48.7705C202.93 49.3331 203.845 50.4443 203.864 51.6975C203.884 53.1261 202.783 54.4128 202.886 55.8358C202.944 56.6268 203.372 57.3815 203.275 58.1696C203.214 58.6514 202.961 59.0858 202.794 59.5425C202.235 61.0826 202.697 62.7897 202.594 64.4273C202.472 66.3795 201.549 68.1785 200.645 69.9107C199.361 72.3754 198.074 74.84 196.79 77.3019C196.167 78.4966 195.411 79.8027 194.121 80.1759C193.268 80.4237 192.359 80.2009 191.5 79.9754C188.267 79.1288 185.046 78.2376 181.824 77.3464C174.886 75.4276 167.892 73.4865 161.507 70.1586" stroke="white" stroke-miterlimit="10"/>
<path d="M46.9014 31.1115C46.9014 31.1115 69.6367 29.2372 76.8639 29.8666C106.145 32.4204 127.51 36.5587 152.431 52.1681" stroke="white" stroke-miterlimit="10"/>
</g>
<g clip-path="url(#clip1_1484_26)">
<path d="M226.034 57.4008C226.244 57.6975 226.598 57.8906 226.959 57.9606C227.442 58.053 227.937 57.9634 228.42 57.8766C230.214 57.5436 232.007 57.2133 233.801 56.8802L233.949 56.0965C232.2 55.7663 230.487 55.2317 228.859 54.5096C228.051 54.1541 227.263 53.7483 226.501 53.3004C225.609 52.7742 224.704 52.1305 224.324 51.1677C223.833 49.925 224.377 48.4639 225.313 47.5123C226.249 46.5635 227.512 46.0149 228.744 45.5055C233.918 43.3644 239.22 41.4555 244.031 38.5894C246.465 37.1368 248.761 35.4463 251.217 34.044C254.038 34.0804 256.969 34.3295 259.402 35.7598C261.872 37.2096 263.654 40.1988 262.861 42.9529C262.179 45.3096 259.777 47.3808 260.503 49.7234C261.243 52.1193 264.789 52.7267 265.507 55.1281C266.021 56.8466 264.831 58.5456 264.029 60.1493C262.179 63.8495 262.341 68.4872 264.448 72.0474C266.144 74.9163 269.06 77.0155 272.29 77.7964C270.482 77.4745 268.664 77.1134 266.82 76.7104C263.861 76.0639 260.883 75.4117 258.098 74.2194C256.349 73.4693 254.695 72.5149 253.038 71.58C244.699 66.8723 236.131 62.5732 227.372 58.6995C226.721 58.4112 226.003 58.0502 225.615 57.4904L226.034 57.4008ZM252.776 45.164C252.885 43.286 251.404 41.4275 249.54 41.198C248.973 41.128 248.398 41.1924 247.836 41.2848C247.325 41.3659 246.814 41.4695 246.342 41.6766C245.051 42.2448 244.171 43.6163 244.137 45.0269C244.101 46.4403 244.883 47.8286 246.079 48.5787C247.275 49.3288 248.834 49.4324 250.141 48.9062C252.234 48.1645 252.667 47.0421 252.776 45.164Z" fill="white"/>
<path d="M381.349 68.8287C378.681 68.1878 375.999 67.5636 373.294 67.1158C372.939 66.9562 372.543 66.8891 372.16 66.9367C370.324 66.668 368.481 66.4888 366.623 66.4468C360.303 66.3041 354.196 67.7483 348.156 69.688C345.659 70.4885 343.172 71.3757 340.689 72.2714C337.66 73.3601 334.635 74.4629 331.592 75.4341C331.288 75.5349 330.98 75.63 330.676 75.7252C322.513 78.2638 312.824 79.6157 303.552 80.0355C307.84 78.4485 306.172 74.684 306.007 73.4945C305.84 72.3077 305.823 70.9643 306.614 70.063C307.323 69.2541 308.491 69.0302 309.332 68.3557C310.891 67.1046 310.88 64.6584 310.086 62.8195C309.293 60.9806 307.904 59.458 307.027 57.6583C306.633 56.8438 306.343 55.9118 306.597 55.0441C307.01 53.6391 308.633 52.9814 309.427 51.7526C310.754 49.6927 309.354 47.0169 307.98 44.9877C306.309 42.5219 304.638 40.0561 302.968 37.5874C305.125 38.3347 307.636 35.9473 307.005 33.7501C306.734 32.8013 306.021 31.998 305.912 31.0184C305.831 30.2907 306.426 29.4818 307.047 29.3755C307.189 29.3923 307.329 29.4063 307.471 29.4231C326.343 31.5894 342.192 35.1188 358.728 43.2132C360.678 45.4215 361.577 49.228 360.918 51.8674C360.731 52.6175 360.426 53.4264 360.753 54.1261C361.616 55.979 364.771 54.1737 366.416 55.3828C368.07 56.5947 367.089 60.0066 369.031 60.6587C369.668 60.8743 370.364 60.6419 370.995 60.4124C372.47 59.875 373.945 59.3405 375.42 58.8031C377.644 57.9942 379.868 57.1853 382.089 56.3764C382.829 56.1077 383.606 55.8138 384.114 55.2093C385.126 54.003 384.969 50.7646 386.542 50.7171V50.6947C393.479 50.5435 400.349 49.6339 407.375 48.2512C410.937 47.5487 414.496 46.6671 418.125 46.6419C419.382 46.6335 420.679 46.737 421.802 47.3024C422.925 47.8678 423.844 48.9845 423.861 50.244C423.883 51.6799 422.774 52.9702 422.877 54.4032C422.936 55.1981 423.369 55.9594 423.268 56.7487C423.207 57.2329 422.953 57.6695 422.785 58.1285C422.224 59.6763 422.69 61.392 422.587 63.0378C422.464 64.9998 421.536 66.8051 420.626 68.5488C419.335 71.0258 418.041 73.5001 416.751 75.9771C416.125 77.1778 415.365 78.4905 414.066 78.8656C413.211 79.1147 412.295 78.8907 411.431 78.664C408.185 77.8132 404.947 76.9175 401.709 76.0219C394.758 74.099 387.749 72.1538 381.351 68.8287H381.349ZM325.491 54.7027L324.879 54.9378C325.195 55.811 325.192 56.8326 324.851 57.6863L325.186 57.7143C326.214 58.1733 327.192 58.7863 327.93 59.6399C328.201 59.9506 328.435 60.2977 328.623 60.6671L328.684 60.6363C329.964 59.444 330.673 57.0622 330.019 55.4388C329.366 53.8154 328.586 53.1157 327.002 52.3768C326.709 53.2696 326.262 54.1625 325.491 54.7027Z" fill="white"/>
<path d="M330.019 55.4388C330.673 57.0622 329.963 59.444 328.684 60.6363L328.622 60.6671C328.435 60.2977 328.2 59.9506 327.929 59.6399C327.192 58.7863 326.214 58.1733 325.186 57.7143L324.851 57.6863C325.191 56.8326 325.194 55.811 324.879 54.9378L325.49 54.7027C326.261 54.1625 326.708 53.2696 327.002 52.3768C328.586 53.1157 329.365 53.8154 330.019 55.4388Z" fill="white"/>
<path d="M234.474 56.1889C234.298 56.1609 234.125 56.1301 233.949 56.0965C232.2 55.7663 230.487 55.2317 228.859 54.5096C228.051 54.1541 227.263 53.7483 226.501 53.3004C225.609 52.7742 224.704 52.1305 224.324 51.1677C223.833 49.925 224.377 48.4639 225.313 47.5123C226.249 46.5635 227.512 46.0149 228.744 45.5055C233.918 43.3644 239.22 41.4555 244.031 38.5894C246.465 37.1368 248.761 35.4463 251.217 34.044C251.887 33.6578 252.572 33.2939 253.273 32.9609C254.6 32.3339 255.972 31.8301 257.374 31.4131C259.319 30.8281 261.319 30.4055 263.325 30.0388C264.252 29.8681 265.183 29.7113 266.11 29.5546" stroke="white" stroke-miterlimit="10"/>
<path d="M228.806 54.6271C228.012 54.5515 227.174 54.5627 226.462 54.9238C225.749 55.2849 225.205 56.0741 225.347 56.8634C225.389 57.0985 225.484 57.3057 225.615 57.4904C226.004 58.0502 226.722 58.4112 227.372 58.6995C236.131 62.5732 244.699 66.8723 253.038 71.58C254.695 72.5149 256.349 73.4693 258.098 74.2194C260.883 75.4117 263.861 76.0639 266.82 76.7104C268.664 77.1134 270.482 77.4745 272.29 77.7964C272.838 77.8971 273.385 77.9895 273.933 78.0791C282.426 79.4897 290.801 80.0467 300.568 79.9403" stroke="white" stroke-miterlimit="10"/>
<path d="M226.998 55.3968C226.325 55.6879 225.688 56.368 225.881 57.0761C225.911 57.1937 225.964 57.3057 226.034 57.4008C226.244 57.6975 226.599 57.8906 226.959 57.9606C227.442 58.053 227.937 57.9634 228.42 57.8766C230.214 57.5436 232.007 57.2133 233.801 56.8802" stroke="white" stroke-miterlimit="10"/>
<path d="M250.141 48.9062C252.233 48.1645 252.666 47.0421 252.775 45.164C252.884 43.286 251.403 41.4275 249.54 41.198C248.973 41.128 248.397 41.1924 247.836 41.2848C247.325 41.3659 246.813 41.4695 246.341 41.6766C245.051 42.2448 244.17 43.6163 244.137 45.0269C244.101 46.4403 244.883 47.8286 246.079 48.5787C247.274 49.3288 248.833 49.4324 250.141 48.9062Z" stroke="white" stroke-miterlimit="10"/>
<path d="M247.931 46.6223C248.556 46.835 249.288 46.3172 249.375 45.6594C249.462 45.0045 248.973 44.3496 248.341 44.1536C248.02 44.0557 247.663 44.0641 247.361 44.2152C246.732 44.5315 246.565 45.4747 247.003 46.0261C247.229 46.3088 247.579 46.4711 247.939 46.4963C248.28 46.5215 248.629 46.4319 248.9 46.2276" stroke="white" stroke-miterlimit="10"/>
<path d="M244.621 40.3276C243.389 40.9125 242.604 42.172 242.151 43.4595C241.715 44.705 241.531 46.0877 241.944 47.3388C242.651 49.4603 244.976 50.7171 247.205 50.7898C250.286 50.8962 253.343 48.9845 254.603 46.1632" stroke="white" stroke-miterlimit="10"/>
<path d="M273.253 67.9415C272.971 67.7903 272.72 67.5888 272.502 67.3537C272.027 66.8331 271.734 66.1474 271.711 65.4421C271.68 64.4177 272.231 63.3933 273.102 62.8531C274.091 62.2401 275.36 62.2625 276.402 61.7391C277.181 61.3445 277.779 60.6755 278.371 60.0318C284.333 53.5271 291.435 48.1729 298.763 43.2664C299.282 42.9193 299.824 42.5667 300.445 42.4883C301.062 42.4099 301.774 42.6982 301.97 43.2916C302.171 43.8933 301.788 44.5203 301.425 45.0409C302.087 45.0325 302.976 45.2368 302.973 45.8974C302.973 46.25 302.688 46.5299 302.565 46.8602C302.333 47.4983 302.87 48.2848 303.546 48.2988C303.683 49.0013 302.666 49.5779 302.875 50.2608C302.995 50.6555 303.467 50.8262 303.685 51.1761C304.037 51.7443 303.602 52.4552 303.216 53.001C302.833 53.5439 302.506 54.3584 302.995 54.8146C303.138 54.9434 303.328 55.0162 303.456 55.1589C303.828 55.5619 303.523 56.2113 303.157 56.6199C302.791 57.0258 302.336 57.4932 302.451 58.0278C302.506 58.2993 302.702 58.512 302.872 58.7303C303.616 59.6903 303.934 60.9022 304.236 62.0778C304.395 62.6991 304.557 63.3429 304.451 63.9754C304.294 64.8963 303.61 65.6212 303.023 66.3489C301.71 67.9723 300.76 69.8895 300.257 71.9159C299.973 73.0718 299.724 74.4181 298.69 75.0031C297.629 75.602 296.313 75.0731 295.209 74.5525C292.941 73.4861 290.647 72.4645 288.325 71.5185C286.971 70.9671 285.588 70.4353 284.135 70.2729C282.699 70.1134 281.246 70.3205 279.807 70.2142C277.176 70.0238 274.72 68.8035 272.544 67.3117" stroke="white" stroke-miterlimit="10"/>
<path d="M280.612 62.5088C280.92 60.7903 282.194 59.4188 283.512 58.2825C288.426 54.0449 294.846 51.442 298.615 46.1577" stroke="white" stroke-miterlimit="10"/>
<path d="M282.716 63.6172C283.738 60.9022 286.216 59.0046 288.77 57.6331C291.326 56.2645 294.095 55.2541 296.43 53.5355C298.148 52.276 299.582 50.6695 301.001 49.0797" stroke="white" stroke-miterlimit="10"/>
<path d="M284.864 64.4149C286.89 62.5032 288.977 60.5692 291.508 59.4076C293.159 58.6519 294.95 58.2489 296.626 57.5464C298.54 56.7403 300.288 55.5396 301.73 54.0421" stroke="white" stroke-miterlimit="10"/>
<path d="M285.766 65.6912C285.549 65.694 285.702 65.3385 285.901 65.2433C290.443 63.1246 295.612 62.3745 300.568 63.119" stroke="white" stroke-miterlimit="10"/>
<path d="M285.812 67.1466C290.217 65.8759 295.134 66.5028 299.082 68.8399" stroke="white" stroke-miterlimit="10"/>
<path d="M288.046 68.227C291.725 69.1646 294.62 72.095 298.246 73.2118" stroke="white" stroke-miterlimit="10"/>
<path d="M372.174 50.7171C373.459 51.7051 374.741 52.6959 376.026 53.6839" stroke="white" stroke-miterlimit="10"/>
<path d="M370.344 49.3064C370.953 49.7766 371.562 50.2468 372.171 50.7143" stroke="white" stroke-miterlimit="10"/>
<path d="M257.374 31.4131C259.279 30.9345 261.271 30.4754 263.325 30.0388C275.114 27.531 288.924 25.8097 300.205 26.1931C305.2 26.3639 310.195 26.7221 315.126 27.5478C319.638 28.3063 324.074 29.451 328.505 30.5958C334.308 32.096 340.11 33.5934 345.913 35.0936C347.346 35.4631 348.79 35.8381 350.128 36.4679C352.62 37.6378 354.646 39.6306 356.976 41.0777C357.515 41.4107 358.068 41.7158 358.649 41.9761C359.848 42.5135 361.136 42.841 362.315 43.4231C363.401 43.9633 364.371 44.7078 365.332 45.4495C366.941 46.6894 368.55 47.9266 370.159 49.1665C370.215 49.2085 370.271 49.2532 370.327 49.2952" stroke="white" stroke-miterlimit="10"/>
<path d="M291.856 80.0775C294.65 80.1894 297.578 80.2118 300.573 80.1363C301.559 80.1167 302.554 80.0803 303.551 80.0355C312.823 79.6157 322.512 78.2638 330.675 75.7252C330.98 75.63 331.287 75.5349 331.592 75.4341C334.634 74.4629 337.66 73.3601 340.688 72.2714C343.172 71.3757 345.658 70.4885 348.156 69.688C354.196 67.7483 360.303 66.3041 366.622 66.4469C368.48 66.4888 370.324 66.668 372.159 66.9367C372.536 66.9926 372.916 67.0514 373.294 67.1158C375.998 67.5636 378.68 68.1878 381.348 68.8287" stroke="white" stroke-miterlimit="10"/>
<path d="M331.667 75.672C336.461 78.1182 341.884 79.3162 347.259 79.1147C348.186 79.0811 349.128 79.0027 349.997 78.6724C350.824 78.359 351.606 77.816 352.469 77.732C352.57 77.7236 352.673 77.7208 352.776 77.7236C353.357 77.7488 353.967 78.0091 354.5 77.774C354.807 77.6368 355.025 77.3569 355.254 77.1106C356.053 76.2542 357.171 75.7084 358.336 75.6048C358.816 75.5629 359.314 75.5908 359.772 75.4285C360.247 75.2606 360.624 74.9023 361.021 74.5888C362.513 73.4077 364.432 72.778 366.332 72.8451C366.742 72.8619 367.186 72.8983 367.53 72.6716C367.742 72.5317 367.885 72.3105 368.058 72.1258C369.435 70.6732 372.159 71.9663 373.743 70.7404C374.517 70.1386 374.783 68.9631 374.341 68.087C374.123 67.6504 373.74 67.3117 373.293 67.1158C372.939 66.9562 372.542 66.8891 372.159 66.9367C372.059 66.9479 371.955 66.9674 371.858 66.9954" stroke="white" stroke-miterlimit="10"/>
<path d="M336.604 74.2698C337.967 74.4069 339.202 75.0926 340.453 75.6496C342.476 76.5481 344.638 77.1302 346.837 77.3682" stroke="white" stroke-miterlimit="10"/>
<path d="M340.346 72.1538C344.685 73.1766 348.898 74.7955 352.846 76.9615" stroke="white" stroke-miterlimit="10"/>
<path d="M344.61 70.9811C347.935 72.6996 351.511 73.9311 355.187 74.6224" stroke="white" stroke-miterlimit="10"/>
<path d="M347.958 69.5732C348.025 69.6124 348.089 69.6516 348.156 69.688C351.47 71.6304 355.16 72.9207 358.962 73.4609" stroke="white" stroke-miterlimit="10"/>
<path d="M352.123 68.6524C355.501 70.2561 359.004 71.5996 362.586 72.6688" stroke="white" stroke-miterlimit="10"/>
<path d="M356.487 67.698C358.331 68.5152 360.172 69.3297 362.013 70.1442C362.932 70.5528 363.866 70.9615 364.857 71.135" stroke="white" stroke-miterlimit="10"/>
<path d="M360.055 67.1942C362.748 68.2158 365.497 69.089 368.285 69.8083" stroke="white" stroke-miterlimit="10"/>
<path d="M365.812 67.5132C367.349 68.2158 368.928 68.8259 370.539 69.3381" stroke="white" stroke-miterlimit="10"/>
<path d="M311.907 50.1993C314.195 52.6651 315.989 56.5136 313.019 59.2761" stroke="#1D1D1B" stroke-miterlimit="10"/>
<path d="M311.776 41.1C312.782 41.8809 313.802 42.6758 314.551 43.7086C315.299 44.7386 315.749 46.0597 315.467 47.3024C315.28 48.1253 314.774 48.867 314.092 49.3624" stroke="#1D1D1B" stroke-miterlimit="10"/>
<path d="M316.372 50.2972C317.721 51.7219 319.135 53.2724 319.437 55.2149C319.697 56.8998 318.995 58.7051 317.66 59.7687" stroke="#1D1D1B" stroke-miterlimit="10"/>
<path d="M315.335 59.7911C316.526 60.7763 317.204 62.3549 317.101 63.8971C316.998 65.442 316.118 66.9143 314.805 67.7315" stroke="#1D1D1B" stroke-miterlimit="10"/>
<path d="M321.205 58.386C322.462 58.8534 323.432 59.9618 323.87 61.2297C324.309 62.5004 324.25 63.9111 323.851 65.1929C323.619 65.9403 323.233 66.6988 322.546 67.0682" stroke="#1D1D1B" stroke-miterlimit="10"/>
<path d="M317.509 67.6476C318.241 67.7511 318.769 68.4089 319.068 69.0862C319.959 71.107 319.3 73.6988 317.551 75.0479" stroke="#1D1D1B" stroke-miterlimit="10"/>
<path d="M321.858 51.5455C323.144 52.3908 324.353 53.488 324.878 54.9378C325.194 55.811 325.191 56.8326 324.85 57.6863C324.63 58.2461 324.261 58.7359 323.744 59.0634" stroke="#1D1D1B" stroke-miterlimit="10"/>
<path d="M318.277 43.8682C319.878 44.5371 321.099 46.0457 321.426 47.753C321.753 49.4603 321.174 51.3132 319.937 52.5307" stroke="#1D1D1B" stroke-miterlimit="10"/>
<path d="M324.546 45.4383C325.859 45.8246 326.842 47.0113 327.219 48.3296C327.597 49.6479 327.429 51.0725 327.002 52.3768C326.708 53.2696 326.261 54.1625 325.49 54.7027" stroke="#1D1D1B" stroke-miterlimit="10"/>
<path d="M327.002 52.3768C328.586 53.1157 329.365 53.8154 330.019 55.4388C330.673 57.0622 329.963 59.444 328.684 60.6363" stroke="#1D1D1B" stroke-miterlimit="10"/>
<path d="M325.186 57.7143C326.214 58.1733 327.191 58.7863 327.929 59.6399C328.2 59.9506 328.435 60.2977 328.622 60.6671C328.946 61.3053 329.127 62.0134 329.097 62.7271C329.046 63.8523 328.41 64.9746 327.393 65.4588" stroke="#1D1D1B" stroke-miterlimit="10"/>
<path d="M329.114 45.1389C331.595 46.6251 332.978 49.7542 332.408 52.5923C332.268 53.2892 331.992 54.0058 331.416 54.4172" stroke="#1D1D1B" stroke-miterlimit="10"/>
<path d="M325.781 39.709C327.262 40.1764 328.466 41.4331 328.877 42.9333C329.285 44.4335 328.882 46.1297 327.843 47.2828" stroke="#1D1D1B" stroke-miterlimit="10"/>
<path d="M330.907 41.6458C332.075 41.8474 332.983 42.9221 333.176 44.0949C333.371 45.2676 332.935 46.4851 332.195 47.4172" stroke="#1D1D1B" stroke-miterlimit="10"/>
<path d="M333.762 54.0309C334.832 54.7363 335.313 56.1217 335.218 57.4036C335.12 58.6855 334.533 59.8806 333.846 60.9666C333.679 61.2353 333.382 61.5376 333.095 61.4004" stroke="#1D1D1B" stroke-miterlimit="10"/>
<path d="M334.564 46.9889C335.883 47.2408 336.724 48.5871 337.02 49.8998C337.397 51.5735 337.062 53.516 335.763 54.6327" stroke="#1D1D1B" stroke-miterlimit="10"/>
<path d="M338.274 55.1141C339.389 55.7915 340.135 57.0426 340.199 58.3468C340.266 59.6511 339.646 60.9722 338.604 61.7559" stroke="#1D1D1B" stroke-miterlimit="10"/>
<path d="M333.221 37.12C334.523 37.7022 335.47 39.0121 335.618 40.4339C335.766 41.8557 335.109 43.3336 333.955 44.176" stroke="#1D1D1B" stroke-miterlimit="10"/>
<path d="M336.274 42.1384C337.286 42.799 338.208 43.6834 338.635 44.8142C339.06 45.9477 338.892 47.3584 338.001 48.1785" stroke="#1D1D1B" stroke-miterlimit="10"/>
<path d="M339.893 49.2476C340.753 49.6507 341.424 50.4344 341.708 51.3384C341.759 51.4896 341.795 51.6435 341.82 51.8002C341.996 52.8974 341.6 54.0701 340.792 54.8314" stroke="#1D1D1B" stroke-miterlimit="10"/>
<path d="M353.657 52.2257C354.504 52.9814 355.283 53.8798 355.599 54.9714C355.61 55.0078 355.618 55.047 355.627 55.0833C355.898 56.1553 355.638 57.4036 354.769 58.0754" stroke="#1D1D1B" stroke-miterlimit="10"/>
<path d="M354.992 48.2568C356.18 47.5795 356.995 49.2812 357.25 50.1713C357.803 52.0885 357.032 53.8014 355.626 55.0833C355.61 55.1001 355.596 55.1141 355.579 55.1281" stroke="#1D1D1B" stroke-miterlimit="10"/>
<path d="M357.375 52.7435C358.143 52.8862 358.47 53.3228 358.917 53.7595C360.596 55.3996 361.071 57.899 359.294 59.5168C359.074 59.7183 358.819 59.8778 358.546 59.9954" stroke="#1D1D1B" stroke-miterlimit="10"/>
<path d="M355.764 58.3077C356.294 58.4504 356.733 58.8451 357.012 59.3209C357.289 59.7939 357.418 60.3453 357.471 60.8938C357.566 61.8847 357.328 63.035 356.465 63.5276" stroke="#1D1D1B" stroke-miterlimit="10"/>
<path d="M351.022 46.5215C351.59 47.1709 352.159 47.8314 352.542 48.6039C352.928 49.3736 353.115 50.2776 352.883 51.1061C352.704 51.7331 352.302 52.2732 351.852 52.7435" stroke="#1D1D1B" stroke-miterlimit="10"/>
<path d="M348.251 51.3888C349.246 52.2313 350.268 53.2109 350.489 54.4956C350.687 55.6347 350.145 56.8662 349.176 57.4904" stroke="#1D1D1B" stroke-miterlimit="10"/>
<path d="M350.611 56.897C351.874 57.1433 352.916 58.2657 353.07 59.5448C353.226 60.8239 352.483 62.1645 351.318 62.7075" stroke="#1D1D1B" stroke-miterlimit="10"/>
<path d="M346.396 55.8334C347.156 56.41 347.902 57.0566 348.321 57.9158C348.782 58.859 348.79 60.015 348.343 60.9666C347.896 61.9182 347.002 62.646 345.979 62.8895" stroke="#1D1D1B" stroke-miterlimit="10"/>
<path d="M345.035 50.5267C345.569 50.7842 345.946 51.2852 346.225 51.8086C346.667 52.6371 346.904 53.5999 346.756 54.5292C346.608 55.4584 346.033 56.34 345.178 56.7291" stroke="#1D1D1B" stroke-miterlimit="10"/>
<path d="M342.725 57.6611C343.84 58.0865 344.558 59.3125 344.496 60.5076C344.435 61.6999 343.653 62.8027 342.597 63.3597" stroke="#1D1D1B" stroke-miterlimit="10"/>
<path d="M346.05 45.1361C347.388 46.0121 348.019 47.837 347.505 49.354C347.301 49.9586 346.888 50.5435 346.276 50.7171" stroke="#1D1D1B" stroke-miterlimit="10"/>
<path d="M341.065 44.288C342.096 44.803 342.901 45.763 343.228 46.8714C343.555 47.9769 343.404 49.2196 342.817 50.2161C342.549 50.6751 342.18 51.0893 341.708 51.3384C341.694 51.3468 341.68 51.3524 341.666 51.3608" stroke="#1D1D1B" stroke-miterlimit="10"/>
<path d="M344.064 40.9209C345.296 41.6626 345.955 43.2496 345.611 44.6462C345.391 45.5447 344.737 46.3732 343.846 46.6111" stroke="#1D1D1B" stroke-miterlimit="10"/>
<path d="M338.992 39.7062C339.688 40.2828 340.364 40.9489 340.646 41.8082C341.06 43.0705 340.428 44.5903 339.241 45.1836" stroke="#1D1D1B" stroke-miterlimit="10"/>
<path d="M347.223 42.0545C347.865 42.3707 348.491 42.7514 348.974 43.2832C349.455 43.8122 349.785 44.5119 349.754 45.2284C349.703 46.39 348.737 47.3304 347.675 47.7978" stroke="#1D1D1B" stroke-miterlimit="10"/>
<path d="M353.26 43.6554C353.897 44.3552 354.414 45.164 354.782 46.0373C355.02 46.6027 355.199 47.2184 355.104 47.8258C354.964 48.7242 354.263 49.4156 353.603 50.0369" stroke="#1D1D1B" stroke-miterlimit="10"/>
<path d="M370.159 49.1665C370.204 49.2112 370.263 49.256 370.327 49.2952C370.332 49.3008 370.338 49.3036 370.344 49.3064C371.048 49.7402 372.724 49.953 373.4 50.0369C377.842 50.5967 382.206 50.7954 386.542 50.6947C393.478 50.5435 400.348 49.6339 407.374 48.2512C410.936 47.5487 414.496 46.6671 418.125 46.6419C419.382 46.6335 420.678 46.737 421.801 47.3024C422.924 47.8678 423.843 48.9845 423.86 50.244C423.883 51.6799 422.773 52.9702 422.877 54.4032C422.935 55.1981 423.368 55.9594 423.268 56.7487C423.206 57.2329 422.952 57.6695 422.785 58.1285C422.223 59.6763 422.69 61.392 422.586 63.0378C422.463 64.9998 421.536 66.8051 420.625 68.5488C419.334 71.0258 418.041 73.5001 416.75 75.9771C416.124 77.1778 415.364 78.4905 414.065 78.8656C413.21 79.1147 412.294 78.8907 411.431 78.664C408.185 77.8132 404.947 76.9175 401.709 76.0219C394.758 74.099 387.748 72.1538 381.351 68.8287C381.331 68.8175 381.312 68.8091 381.292 68.7979" stroke="white" stroke-miterlimit="10"/>
<path d="M266.109 29.5546C266.109 29.5546 288.962 27.6681 296.223 28.3035C299.95 28.6282 303.551 28.978 307.046 29.3755C307.188 29.3923 307.328 29.4063 307.47 29.423C326.342 31.5894 342.191 35.1188 358.727 43.2132C363.135 45.3684 367.594 47.8482 372.17 50.7143C372.17 50.7171 372.173 50.7171 372.173 50.7171" stroke="white" stroke-miterlimit="10"/>
<path d="M303.552 80.0355C307.84 78.4485 306.172 74.684 306.007 73.4945C305.84 72.3077 305.823 70.9643 306.614 70.063C307.323 69.2541 308.491 69.0302 309.332 68.3557C310.891 67.1046 310.88 64.6584 310.086 62.8195C309.293 60.9806 307.904 59.458 307.027 57.6583C306.633 56.8438 306.343 55.9118 306.597 55.0441C307.01 53.6391 308.633 52.9814 309.427 51.7526C310.754 49.6927 309.354 47.0169 307.98 44.9877C306.309 42.5219 304.638 40.0561 302.968 37.5874C305.125 38.3347 307.636 35.9473 307.005 33.7501C306.734 32.8013 306.021 31.998 305.912 31.0184C305.831 30.2907 306.426 29.4818 307.047 29.3755C307.189 29.3503 307.334 29.3615 307.471 29.4231C307.541 29.451 307.608 29.493 307.672 29.549" stroke="white" stroke-miterlimit="10"/>
<path d="M251.094 34.0412C251.136 34.0412 251.175 34.0412 251.217 34.044C254.038 34.0804 256.969 34.3295 259.402 35.7598C261.872 37.2096 263.654 40.1988 262.861 42.9529C262.179 45.3096 259.777 47.3808 260.503 49.7234C261.243 52.1193 264.789 52.7267 265.507 55.1281C266.021 56.8466 264.83 58.5456 264.029 60.1493C262.179 63.8495 262.341 68.4872 264.448 72.0474C266.144 74.9163 269.06 77.0155 272.29 77.7964C272.829 77.9307 273.379 78.0231 273.932 78.0791C274.173 78.1043 274.419 78.1211 274.662 78.1294" stroke="white" stroke-miterlimit="10"/>
<path d="M356.487 41.6458C357.337 41.9285 358.091 42.4827 358.728 43.2132C360.678 45.4215 361.577 49.228 360.918 51.8674C360.731 52.6175 360.426 53.4264 360.753 54.1261C361.617 55.979 364.771 54.1737 366.416 55.3828C368.07 56.5947 367.089 60.0066 369.031 60.6587C369.668 60.8743 370.364 60.6419 370.995 60.4124C372.47 59.875 373.945 59.3405 375.42 58.8031C377.644 57.9942 379.868 57.1853 382.089 56.3764C382.829 56.1077 383.606 55.8138 384.114 55.2093C385.126 54.003 384.969 50.7646 386.542 50.7171" stroke="white" stroke-miterlimit="10"/>
</g>
</g>
<defs>
<filter id="filter0_d_1484_26" x="0.916016" y="4.084" width="427.604" height="121.39" filterUnits="userSpaceOnUse" color-interpolation-filters="sRGB">
<feFlood flood-opacity="0" result="BackgroundImageFix"/>
<feColorMatrix in="SourceAlpha" type="matrix" values="0 0 0 0 0 0 0 0 0 0 0 0 0 0 0 0 0 0 127 0" result="hardAlpha"/>
<feOffset dy="4"/>
<feGaussianBlur stdDeviation="2"/>
<feComposite in2="hardAlpha" operator="out"/>
<feColorMatrix type="matrix" values="0 0 0 0 0 0 0 0 0 0 0 0 0 0 0 0 0 0 0.25 0"/>
<feBlend mode="normal" in2="BackgroundImageFix" result="effect1_dropShadow_1484_26"/>
<feBlend mode="normal" in="SourceGraphic" in2="effect1_dropShadow_1484_26" result="shape"/>
</filter>
<clipPath id="clip0_1484_26">
<rect width="199" height="54.0494" fill="white" transform="translate(5 27.5746)"/>
</clipPath>
<clipPath id="clip1_1484_26">
<rect width="200" height="54.321" fill="white" transform="translate(224 26)"/>
</clipPath>
</defs>
</svg>
