<svg width="199" height="119" viewBox="0 0 199 119" fill="none" xmlns="http://www.w3.org/2000/svg">
<path d="M71.4 113.952V114H69.456V113.952C69.504 113.736 69.732 112.956 69.732 112.212V109.788C69.732 109.032 69.504 108.264 69.456 108.036V108H71.124V108.924C71.604 108.3 72.168 107.928 72.924 107.928C73.656 107.928 74.34 108.276 74.628 109.068C75.12 108.36 75.72 107.928 76.536 107.928C77.496 107.928 78.372 108.528 78.372 109.956V112.212C78.372 112.956 78.6 113.736 78.648 113.952V114H76.704V113.952C76.752 113.736 76.98 112.956 76.98 112.212V110.136C76.98 109.236 76.404 108.864 75.804 108.864C75.432 108.864 75.084 109.032 74.7 109.344C74.748 109.524 74.772 109.728 74.772 109.956V112.212C74.772 112.956 75 113.736 75.048 113.952V114H73.092V113.952C73.14 113.736 73.368 112.956 73.368 112.212V110.136C73.368 109.236 72.78 108.864 72.18 108.864C71.82 108.864 71.472 109.02 71.124 109.308V112.212C71.124 112.956 71.352 113.736 71.4 113.952ZM81.1561 114.096C79.9081 114.096 79.2241 113.184 79.2241 112.26C79.2241 110.94 80.6281 110.16 82.2361 110.376C82.5001 110.412 82.7521 110.46 82.9441 110.52V109.776C82.9441 108.876 82.5961 108.396 82.0801 108.396C81.3481 108.396 79.9321 109.548 79.6921 109.884H79.6441V108.396C80.5801 108.084 81.5161 107.928 82.1641 107.928C83.6161 107.928 84.3601 108.684 84.3601 109.836V112.596C84.3601 113.232 84.6121 113.472 85.1281 113.268L85.1401 113.304C85.0201 113.748 84.6361 114.06 84.0961 114.06C83.4961 114.06 83.1001 113.736 82.9801 113.172C82.6441 113.64 82.0441 114.096 81.1561 114.096ZM80.7121 112.092C80.7121 112.8 81.2161 113.316 81.8881 113.316C82.2841 113.316 82.6441 113.124 82.9441 112.776V110.88C82.8841 110.88 82.8241 110.868 82.7641 110.856C81.4201 110.64 80.7121 111.288 80.7121 112.092ZM85.3848 114.012C85.5528 113.88 86.1528 113.352 86.5128 112.872L87.7128 111.288L86.4768 109.524C86.0688 108.9 85.4448 108.228 85.2528 108.048V108H87.7128V108.036C87.6528 108.252 87.6528 108.756 88.0008 109.26L88.7808 110.388L89.6568 109.2C90.0168 108.72 89.9568 108.204 89.8968 108.024V108H91.3848V108.036C91.2168 108.168 90.6168 108.708 90.2568 109.176L89.0568 110.772L90.2328 112.476C90.6648 113.1 91.3128 113.76 91.5168 113.952V114H89.0088V113.964C89.0688 113.748 89.0688 113.244 88.7208 112.728L87.9768 111.684L87.1128 112.86C86.7528 113.34 86.8128 113.844 86.8728 114.024V114.06H85.3848V114.012ZM97.0898 114.144C96.0698 114.144 95.1098 113.808 94.4858 113.532L94.8218 111.696L94.8818 111.684C95.4818 112.74 96.1058 113.688 97.1018 113.688C98.0258 113.688 98.5298 112.92 98.5298 111.96C98.5298 110.772 97.6058 109.932 96.3458 109.728V109.548C97.5818 109.332 98.5058 108.504 98.5058 107.34C98.5058 106.464 97.9898 105.684 97.1018 105.684C96.2258 105.684 95.5778 106.5 94.9178 107.616H94.8578L94.5458 105.828C95.1578 105.564 96.0938 105.228 97.1018 105.228C98.3498 105.228 100.126 105.804 100.126 107.412C100.126 108.624 99.0818 109.476 97.6418 109.632C99.1058 109.764 100.186 110.604 100.186 111.876C100.186 113.544 98.3858 114.144 97.0898 114.144ZM104.243 114.096C102.287 114.096 100.763 112.296 100.763 109.644C100.763 107.064 102.287 105.264 104.243 105.264C106.199 105.264 107.735 107.064 107.735 109.644C107.735 112.296 106.199 114.096 104.243 114.096ZM104.243 113.604C105.575 113.604 106.043 111.588 106.043 109.632C106.043 107.712 105.563 105.756 104.243 105.756C102.911 105.756 102.455 107.796 102.455 109.656C102.455 111.636 102.923 113.604 104.243 113.604ZM113.737 114.108C112.249 114.108 110.845 113.052 110.845 111C110.845 109.044 112.081 107.928 113.785 107.928C114.685 107.928 115.453 108.264 115.969 108.492L115.981 110.1H115.933C115.513 109.404 114.733 108.36 113.821 108.36C112.837 108.36 112.381 109.428 112.381 110.628C112.393 112.116 113.053 113.148 114.361 113.148C114.889 113.148 115.537 112.98 116.221 112.404L116.257 112.428C115.885 113.328 114.985 114.108 113.737 114.108ZM118.813 113.952V114H116.869V113.952C116.917 113.736 117.145 112.956 117.145 112.212V109.788C117.145 109.032 116.917 108.264 116.869 108.036V108H118.537V108.924C119.017 108.3 119.581 107.928 120.337 107.928C121.069 107.928 121.753 108.276 122.041 109.068C122.533 108.36 123.133 107.928 123.949 107.928C124.909 107.928 125.785 108.528 125.785 109.956V112.212C125.785 112.956 126.013 113.736 126.061 113.952V114H124.117V113.952C124.165 113.736 124.393 112.956 124.393 112.212V110.136C124.393 109.236 123.817 108.864 123.217 108.864C122.845 108.864 122.497 109.032 122.113 109.344C122.161 109.524 122.185 109.728 122.185 109.956V112.212C122.185 112.956 122.413 113.736 122.461 113.952V114H120.505V113.952C120.553 113.736 120.781 112.956 120.781 112.212V110.136C120.781 109.236 120.193 108.864 119.593 108.864C119.233 108.864 118.885 109.02 118.537 109.308V112.212C118.537 112.956 118.765 113.736 118.813 113.952Z" fill="white"/>
<g clip-path="url(#clip0_1656_28)">
<path d="M3.40609 36.2432C3.08551 36.5694 3.04544 37.4663 3.20573 38.037M90.8851 13.4128C90.6447 14.6359 90.4043 15.8997 90.2039 17.1228C90.0837 17.7343 89.8833 18.4681 90.805 18.5089C91.6065 18.5497 92.7285 19.2427 93.1292 17.8566C93.6101 16.2259 94.0108 14.6359 94.8924 13.1682C95.8942 11.4967 96.4953 9.62137 97.6174 7.99063C99.2203 5.66682 99.5008 5.29991 97.3369 3.54686C94.8123 1.46767 93.7704 4.93299 93.7704 4.93299C93.2094 6.56373 92.8086 8.23524 92.2476 9.86598C91.8469 11.089 91.8068 12.4344 90.8851 13.4536M30.4953 23.8496L47.0054 20.1396C48.0072 20.0173 48.2476 19.6097 48.2075 18.7127C48.1675 15.6959 48.6884 13.6167 49.57 10.7629C49.8906 9.70291 50.2112 9.49906 50.9726 10.4367C51.6137 11.2113 52.6156 11.4152 53.5372 11.7006C54.2986 11.9452 54.6994 11.456 54.9398 10.7221C55.2604 9.74368 55.6611 8.806 56.142 7.86832C56.4225 7.29756 56.8633 6.93065 57.264 7.86832C57.5846 8.60216 58.2658 8.96907 58.907 9.29522C59.8287 9.78444 60.9106 9.37676 61.2713 8.35755C61.632 7.33833 61.9926 6.31912 62.3533 5.29991C62.7139 4.23993 63.2749 3.91378 64.1165 4.89222C64.5172 5.34068 64.958 5.74836 65.3587 6.19682C66.2804 7.21603 67.683 6.93065 68.2039 5.62606C68.244 5.50375 68.3241 5.38145 68.3642 5.21837C69.4862 1.67151 69.9671 2.2015 71.9708 4.07685C72.8524 4.93299 73.6137 4.72915 74.0545 3.50609C74.9361 1.18229 74.8961 1.18229 77.4607 2.48688C77.7412 2.64995 78.0218 2.81303 78.3023 2.9761C80.2658 3.87301 80.2658 3.87301 81.1074 1.91612C81.8687 0.203844 81.5882 -0.448452 83.5919 0.896909C83.9525 1.14152 84.8341 2.24227 85.1547 2.48688C86.0764 3.26148 86.7176 3.22071 87.4389 2.24227C89.0819 1.78466e-06 89.4425 1.78466e-06 91.6465 1.91612C92.4079 2.60919 92.9689 3.22071 94.1711 2.16073C94.1711 2.16073 95.0928 0.448455 97.7777 2.8538C99.3806 4.2807 99.3405 4.60684 100.783 3.38379C100.943 3.26148 101.184 3.26148 101.304 3.46533C101.304 3.46533 102.987 6.11528 103.789 6.40066C105.512 6.93065 105.872 7.54218 106.994 6.15605C108.036 4.89222 108.076 4.89222 109.078 6.15605C109.559 6.72681 110 7.29756 110.481 7.86832C111.002 8.52062 111.603 8.806 112.404 8.27601C112.965 7.86832 113.206 8.27601 113.647 8.60216C114.809 9.4583 115.169 10.926 116.331 11.7413C116.812 12.0675 117.333 12.3936 117.814 11.9452C118.816 11.0075 119.177 11.8229 119.537 12.5567C120.018 13.6167 120.299 14.7582 121.06 15.6959C121.621 16.3889 122.182 17.0005 123.184 16.5928C124.065 16.2259 124.186 16.5928 124.146 17.4082C124.065 18.9574 124.025 20.5473 125.789 21.3627C126.55 21.7296 127.031 21.6888 127.592 21.0366C129.916 18.3458 132.641 16.2666 135.727 14.5544C137.049 13.8205 138.371 13.6982 139.694 14.1059C143.701 15.3697 146.827 17.8974 149.432 21.1996C150.594 22.6265 151.916 23.9311 152.918 25.4803C153.96 27.0295 155.042 28.5787 156.404 29.8018C157.446 30.7395 158.208 31.7587 158.769 33.0225C159.33 34.3679 158.889 35.3463 157.606 35.9578C156.685 36.4063 155.723 36.3655 154.761 36.4878C154.16 36.5694 153.559 36.5694 152.958 37.1401C155.362 38.4039 157.847 38.9747 160.371 39.2601C163.217 39.5862 165.661 38.8116 168.146 37.2217C168.146 37.2217 180.688 30.821 186.259 30.3318C189.184 29.7202 192.189 29.3941 195.195 29.5572C197.84 29.7202 198.16 30.5356 197.078 33.1856C195.876 36.0801 193.392 37.9147 191.147 39.8716C190.466 40.4831 189.705 41.0131 189.064 41.7062C186.86 44.0708 187.02 46.4761 189.424 48.8814C190.987 50.4714 192.59 52.0206 194.073 53.6921C194.994 54.7113 196.036 56.3013 196.397 57.6874C197.038 60.2559 193.271 59.522 191.949 59.3997M61.7522 66.6157L56.7431 65.515C55.5008 65.515 55.3405 66.0858 56.0218 67.0234C57.3842 68.9395 58.6265 70.978 60.2294 72.6903C61.111 73.6279 61.2312 73.5056 62.9944 75.6256L64.397 77.2563L65.6392 78.2348C65.6793 79.0909 66.6811 79.6209 66.4808 80.4363C66.2804 81.3332 64.958 81.0478 64.6374 81.7001C63.6757 83.7793 61.7922 84.3908 59.9489 85.2877C57.7048 86.3885 55.5809 87.4077 53.0564 86.3477C52.6556 86.1846 52.1347 86.0623 51.6939 86.1031C49.8906 86.3069 49.1693 85.247 48.7686 83.6978C48.4079 82.3116 47.9671 80.9255 47.366 79.5801C46.7649 78.2348 46.4844 74.5248 46.4844 74.5248C46.5245 72.9756 46.1638 71.5487 46.4844 69.9995L46.6046 68.1649C46.4844 67.105 46.3642 66.1265 46.6447 65.1073C46.8851 64.3735 46.6447 63.9658 45.8432 63.8027C38.9507 62.3351 32.0582 60.7451 25.5664 57.8913C22.2804 56.4644 19.0345 54.8336 15.7085 53.4067C11.7012 51.6537 7.65381 49.9822 3.88697 47.6584C1.88332 46.4353 0.681137 44.8046 0.16019 42.6031C0.0800443 42.2769 0.120117 41.9508 0.280409 41.6654C0.4407 41.38 0.681137 41.1354 0.761283 40.8093C1.20208 38.2816 2.84507 36.6101 4.64835 35.0609C5.36966 34.4494 6.13105 33.8786 6.25126 32.7371C6.37148 31.881 7.09279 31.5141 7.77403 32.0033C8.33505 32.411 8.81593 32.1664 9.33687 31.9625C16.2294 28.9049 23.2422 26.2549 30.4152 23.8903L39.3915 22.3411C39.3915 22.3411 62.9944 19.0797 79.785 19.5689C90.6447 19.895 97.6174 20.0989 109.319 21.7296C127.552 24.298 147.508 33.8786 151.756 37.0586C151.756 37.0586 156.605 40.5239 160.011 40.2793C163.417 40.0347 166.503 38.2409 166.503 38.2409M3.20573 37.9963C3.32595 38.5262 3.88697 38.4855 4.24762 38.7301C5.6101 39.5862 7.13287 39.8308 8.65564 40.1978C9.7376 40.4424 10.2986 41.3393 10.4589 42.5216C9.65746 40.6462 8.13469 40.4016 6.41156 40.2793C5.32959 40.1978 4.40791 39.3416 3.28587 39.097C2.88514 39.0155 2.44434 38.3224 2.20391 39.0562C1.96347 39.7901 1.00172 40.85 2.12376 41.4208C3.44616 42.0731 4.32777 42.9292 5.20937 44.0708C6.21119 45.3754 8.37513 44.9269 10.4188 43.8669L8.77585 45.1715C7.5336 45.4977 6.17112 45.62 5.08915 44.6415C4.04726 43.7446 3.56638 44.7638 3.08551 45.2938C2.44434 46.0276 3.36602 46.313 3.76675 46.6392C6.0509 48.5553 8.81593 49.1261 11.7012 49.493C13.7449 49.7376 15.7085 50.553 17.5919 51.3276C19.7558 52.2245 21.9598 52.5914 24.244 52.3468C26.5682 52.0614 27.8906 50.3083 29.0527 48.4738C29.2531 48.1476 29.4134 47.8215 29.6538 47.4138C29.4935 49.6153 26.9689 52.5098 25.0454 52.7952C23.8432 52.9991 22.6411 53.0398 21.479 52.836C20.397 52.6729 19.4352 52.7137 18.7941 53.9367C20.5573 54.7929 22.3606 55.7713 24.244 56.5459C25.1256 56.9128 26.1274 56.5867 27.009 56.1382C28.6921 55.2413 29.9343 53.6921 31.6174 52.7952C34.5427 51.246 37.5882 50.0637 40.7941 49.3299C44.04 48.5553 45.9635 46.313 47.7667 43.7446C47.927 43.5 47.927 43.1331 47.9671 42.8069C48.1274 40.0347 47.7267 37.344 46.2039 34.9794C45.162 33.3486 45.8833 31.5141 45.162 29.8833C46.0436 30.3318 46.3642 31.0656 46.284 31.9217C46.2039 33.1856 46.5646 34.3271 47.2458 35.3871C48.8487 38.037 48.6083 40.9316 48.4881 43.8669C48.448 44.7231 47.5263 45.09 47.3259 46.1092C49.009 45.2938 50.131 44.0708 51.4534 43.0923C54.4589 40.9316 57.1839 38.3224 60.6702 36.977C62.7139 36.1617 63.6757 36.7732 63.7558 38.9747C63.876 43.5408 62.754 47.6176 59.1474 50.5937C57.7048 51.776 55.9817 52.5098 54.3387 53.2844C53.4571 53.6921 52.4953 54.0183 51.5336 54.426C52.0545 50.716 49.6902 48.3515 46.7649 48.2291C45.8432 48.1884 44.9616 48.3107 44.2403 48.7591C42.7576 49.6968 41.1147 50.0637 39.4316 50.4714C34.9034 51.6129 30.8961 53.8552 27.3296 56.9536C26.5682 57.6059 26.9689 57.769 27.6101 58.0136M82.4298 15.9813C82.4698 14.9213 82.8305 13.9836 83.2312 13.0052C84.3132 10.2737 85.315 7.54218 86.3569 4.76992C86.5172 4.36223 86.7576 3.91378 86.1165 3.58763C85.2349 3.17995 84.5136 2.52765 83.7922 1.87535C83.0309 1.22306 82.4298 1.05998 81.989 2.32381C81.0272 5.01453 80.386 7.78679 79.6247 10.5183L78.5026 16.9189C78.3824 17.3266 78.2221 17.9381 78.8633 18.2643C80.1456 18.8351 81.7085 18.142 82.1493 16.7966C82.2294 16.5112 82.2294 16.1443 82.5099 15.8997M97.2567 12.3529C96.6156 14.1059 95.9744 15.859 95.3332 17.612C95.1729 18.0605 95.0126 18.4681 95.6538 18.7535C97.4571 19.5689 98.8596 19.0797 99.7012 17.3266C99.8615 16.9597 100.142 16.6336 100.342 16.2259C101.705 13.6167 103.749 11.456 105.151 8.88754C105.512 8.23524 105.512 7.90909 104.831 7.58294L101.585 5.8299C101.024 5.54452 100.342 5.74836 100.062 6.31912C99.3004 7.74602 98.8596 9.05061 98.3387 10.7221C98.0983 11.4152 97.8177 11.9452 97.2567 12.3529ZM48.0473 65.2704C48.0473 65.2704 47.6465 70.8557 47.5664 74.8102C47.4862 78.7648 49.6902 82.4339 49.6902 82.4339C50.3314 84.3908 50.0509 85.3285 51.0126 85.2877C51.6137 85.2877 52.3351 84.7985 52.8961 85.5731C52.9762 85.6546 53.3769 85.6546 53.4972 85.5323C53.8177 85.247 53.5372 84.9208 53.4571 84.6354C52.6957 82.2709 51.8141 79.9471 51.2932 77.5825C50.6119 74.4841 51.1729 72.9756 50.652 69.8772C50.6119 69.7142 49.9708 65.5558 49.7303 65.0665L48.0473 65.2704ZM131.198 24.3796C130.798 24.7057 130.036 25.0726 130.557 25.6434C131.078 26.1734 131.8 26.4995 132.601 25.6842C135.126 23.1565 137.891 20.9142 140.736 18.7535C141.417 18.2643 142.098 17.7751 142.619 17.1228C142.379 17.1228 142.178 17.2451 141.978 17.2858C138.973 18.4274 136.448 20.425 133.723 22.0965L131.198 24.3796ZM86.1966 18.3458C87.3988 18.5904 87.7995 17.8158 88.3205 16.5928C89.1219 14.6767 88.2403 12.149 90.284 10.6814C90.3241 10.6406 90.3241 10.5998 90.3241 10.559C90.9653 9.00984 91.5664 7.46064 92.2877 5.9522C92.9289 4.64761 93.6902 3.42456 91.6866 2.64995C91.366 2.52765 91.2458 2.0792 90.9252 1.87535C89.683 0.937677 89.0819 1.10075 88.4808 2.52765C86.5973 6.88988 85.2749 11.456 84.3132 16.1036C83.9125 18.1828 83.9926 18.3051 86.1966 18.3458ZM73.0126 14.9213C73.0126 15.9813 73.0126 16.8374 73.0126 17.6528C73.0126 18.0605 73.0126 18.4681 73.5737 18.6312C74.7759 18.9574 75.8979 18.2643 76.1784 17.0005C76.2986 16.3074 76.4589 15.6143 76.6192 14.962C77.4207 11.8229 78.3423 8.76523 79.7048 5.8299C80.2258 4.68838 79.9453 4.15839 78.8633 3.70994C78.0618 3.38379 77.1802 3.38379 76.499 2.81303C75.7777 2.24227 75.417 2.36458 75.2167 3.05764C74.9361 4.2807 74.6957 5.54452 74.4553 6.76757C74.1748 8.1537 73.8542 9.5806 73.5336 11.1298L73.0126 14.9213ZM64.3168 5.87067C63.9161 5.54452 63.315 5.70759 63.1948 6.23758C62.8742 7.41987 62.6738 8.60216 62.4334 9.82521C61.9125 12.5567 61.8724 15.2882 61.7522 18.0605C61.7121 18.9166 62.0728 19.365 62.9944 19.2427C63.4753 19.1612 63.9963 19.1612 64.5172 19.1204C64.9981 19.0797 65.3187 18.8351 65.3187 18.3458C65.4789 15.0028 66.8014 11.9044 67.4425 8.68369C67.5227 8.31678 67.7631 7.66448 67.162 7.62371C65.8396 7.54218 65.1584 6.6045 64.3168 5.87067ZM103.508 19.732C104.189 19.8543 104.67 19.6504 104.951 18.9574C105.752 16.9189 107.195 15.329 108.397 13.5759C109.158 12.4752 109.84 11.2929 110.922 10.396C111.483 9.94752 111.763 9.29522 110.841 8.72446C110.481 8.52062 110.28 8.11294 109.96 7.82756C108.317 6.15605 108.317 6.15605 107.075 8.19447C106.994 8.31678 106.874 8.39831 106.834 8.52062C105.271 11.6598 103.268 14.5951 101.785 17.8158C101.264 18.9574 101.545 19.4466 102.707 19.5689C102.947 19.6504 103.228 19.6912 103.508 19.732ZM106.674 19.4873C106.674 20.0173 107.035 20.0173 107.355 20.0581C108.036 20.1396 108.758 20.0989 109.399 20.262C110.361 20.5473 110.962 20.1396 111.483 19.365C112.845 17.4489 114.328 15.6551 115.931 13.9836C116.532 13.3721 117.133 12.6382 115.891 11.9452C115.53 11.7413 115.33 11.2113 115.049 10.8444C113.647 8.96907 113.647 8.96907 112.284 10.8037C112.244 10.8444 112.204 10.8444 112.164 10.8852C110.441 13.6167 108.277 16.0628 106.874 19.0389C106.834 19.202 106.754 19.365 106.674 19.4873ZM68.805 18.7535C70.0072 18.9981 70.5682 18.5497 70.6884 17.1228C70.7686 16.1036 70.7285 14.9213 71.009 14.0651C71.6902 11.9859 71.8906 9.74368 72.7722 7.74602C73.2531 6.64527 73.8942 5.54452 71.8505 5.01453C71.6101 4.93299 71.4097 4.64761 71.2494 4.44377C70.9689 4.11762 70.7285 4.15839 70.5281 4.23993C70.1274 4.403 70.0473 4.56607 69.927 4.97376C69.8068 5.50375 69.0855 5.8299 69.0054 6.40066C68.8451 7.66448 68.4844 8.88754 68.3642 10.1514C68.2039 11.5375 68.1238 12.9236 68.0436 14.269C67.9635 15.2882 67.723 16.4705 67.5627 17.612C67.4024 18.5497 67.723 19.0797 68.805 18.7535ZM55.9015 16.022C55.9015 17.0005 55.9015 17.612 55.9015 18.2235C55.9416 18.7535 55.7813 19.5281 56.4225 19.6912C57.3041 19.895 58.346 19.9766 59.1074 19.365C59.5882 18.9981 59.7485 18.2235 59.3478 17.5712C59.1474 17.2451 59.2677 17.0005 59.3478 16.6743C59.7886 14.799 60.1893 12.8829 60.5901 10.9667C60.7103 10.396 60.4298 10.1106 59.9489 10.1921C59.1074 10.3144 58.5864 9.82521 58.0254 9.33599C56.9835 8.47985 56.7831 8.56139 56.5427 9.82521C56.182 12.0267 55.9015 14.1874 55.9015 16.022ZM116.331 21.5665C116.572 21.485 116.892 21.485 117.053 21.3219C118.335 20.0173 119.778 18.9981 121.18 17.8566C121.501 17.612 121.781 17.2451 121.341 16.7966C120.339 15.8182 119.898 14.5136 119.417 13.209C119.137 12.3936 118.736 12.4752 118.415 13.0459C117.694 14.269 116.732 15.329 115.851 16.4297C114.969 17.5712 113.967 18.5904 113.286 19.895C113.045 20.3843 112.925 20.7919 113.606 20.955C114.488 21.1996 115.37 21.3627 116.331 21.5665ZM50.1711 15.6143C50.2913 16.4705 49.9708 17.8158 50.2913 19.1612C50.652 20.7919 51.8141 20.1804 52.856 20.1804C53.8578 20.1804 53.938 19.6912 53.938 18.8351C53.938 17.3266 53.938 15.8182 54.2585 14.3505C54.5391 13.1275 54.3788 12.6382 52.8961 12.4344C52.295 12.3529 51.6939 11.9859 51.1729 11.619C50.4116 11.089 50.2913 11.5783 50.2913 12.149C50.1711 13.3313 50.1711 13.9836 50.1711 15.6143ZM128.794 25.0319C128.874 25.0319 129.155 24.7057 129.435 24.3796C130.076 23.6457 130.597 22.7488 131.359 22.1781C134.124 20.0989 136.368 18.1828 139.373 16.4297C139.734 16.2259 140.415 15.9405 140.215 15.492C139.974 14.962 139.253 14.799 138.652 15.0843C138.412 15.2067 137.209 15.5736 136.969 15.6959C133.242 17.6528 131.158 19.4466 128.273 22.5858C127.993 22.8711 127.752 23.2381 127.552 23.6457C127.071 24.5426 127.392 25.0319 128.794 25.0319ZM56.7431 73.8725C56.7431 73.8725 58.3059 78.2348 62.4334 81.2109C63.1147 81.7001 63.3551 82.2709 64.0363 81.4147C64.1966 81.2109 64.397 80.9663 64.6374 80.844C65.3988 80.477 65.2786 80.2324 64.6775 79.8247C62.4334 78.3571 61.1511 75.1771 59.468 73.0979L54.499 65.6781C54.3788 65.515 54.2185 65.3927 54.0582 65.3519C53.4571 65.2296 53.0163 65.8411 53.2567 66.3711L56.7431 73.8725ZM146.106 18.6312C145.665 18.3866 145.344 18.5089 145.064 18.5904C143.501 18.9981 142.379 20.1804 140.976 20.9142C138.492 22.2596 136.368 24.1757 134.204 25.9695C133.483 26.5811 133.483 27.0703 134.484 27.4372C135.126 27.6818 135.526 27.6003 136.047 27.0703C137.249 25.8065 138.612 24.7057 139.894 23.4827C141.778 21.6481 143.942 20.1804 146.106 18.6312ZM123.384 20.5066C123.304 20.3843 123.184 20.3027 123.104 20.1804C122.903 19.9358 122.543 18.9981 122.102 19.365C121.14 20.0989 120.018 20.6696 119.217 21.6481C119.016 21.8927 118.976 22.1781 119.337 22.3004C121.06 22.7896 122.743 23.3604 124.506 23.6865C124.947 23.768 126.43 23.8088 126.229 22.9527C126.069 22.2596 125.188 22.0558 124.667 21.6888C124.226 21.3219 123.745 20.9142 123.384 20.5066ZM150.273 23.3196C149.712 23.0342 149.311 23.1973 148.871 23.3604C145.545 24.5019 142.78 26.5811 140.095 28.7826C139.854 28.9864 139.534 29.1903 139.734 29.5572C139.894 29.8833 140.255 29.8426 140.616 29.8833C141.177 29.9241 141.537 29.5164 141.938 29.231C142.699 28.6603 143.421 28.008 144.262 27.478C146.266 26.1734 148.229 24.7465 150.273 23.3196ZM146.667 21.485C142.82 22.5042 139.934 25.0726 137.129 27.7226C136.889 27.9672 136.688 28.2526 137.089 28.538C137.45 28.8233 137.81 28.9456 138.211 28.6195C141.016 26.2549 143.701 23.7273 146.667 21.485ZM54.1784 82.8416C54.3387 83.6162 54.6192 84.35 54.7795 85.1247C54.8997 85.7769 55.1402 86.1846 55.9015 85.94C56.6228 85.6954 61.4316 82.7193 61.3514 82.6785C61.3514 82.6785 52.8159 71.7526 52.1347 65.515L50.5718 65.3112C50.5718 65.3112 52.6556 74.6471 53.0163 78.2755C53.3769 81.9855 54.1784 82.8416 54.1784 82.8416ZM153.639 27.6003C153.479 27.5595 153.279 27.478 153.118 27.5595C150.273 28.538 147.789 30.2502 145.304 31.9625C144.903 32.2479 144.903 32.5333 145.344 32.8187C145.865 33.1448 146.306 33.104 146.867 32.7371C149.191 31.1879 151.235 29.1903 153.639 27.6003ZM148.55 34.3679C149.151 34.0825 149.672 33.634 150.353 33.3894C152.076 32.6556 153.8 31.7994 155.483 30.9841C155.723 30.8618 156.204 30.7802 156.004 30.3318C155.843 29.9649 155.443 30.0872 155.162 30.2095C153.84 30.6579 152.517 31.0656 151.275 31.6364C150.233 32.0848 149.191 32.6148 148.31 33.3894C148.109 33.5525 147.829 33.7563 147.989 34.0825C148.029 34.2863 148.269 34.3679 148.55 34.3679ZM149.271 27.1111C149.191 26.9888 149.111 26.8664 149.031 26.7441C146.987 27.9264 144.943 29.0679 142.9 30.291C142.619 30.4541 142.459 30.7802 142.779 31.1064C143.1 31.4733 143.541 31.5548 143.902 31.2694C145.705 29.8833 147.468 28.4972 149.271 27.1111ZM13.3842 50.3491C12.9835 50.3491 12.5427 50.186 12.4225 50.716C12.3423 51.1237 12.6228 51.246 12.9835 51.3683C14.346 51.8983 15.6684 52.5098 17.0309 53.0398C17.3114 53.1621 17.632 53.4475 17.9125 53.2029C18.3132 52.836 17.8724 52.5098 17.7522 52.2245C17.632 51.8575 17.3114 51.6129 16.9507 51.4906C15.7886 51.0829 14.5463 50.716 13.3842 50.3491ZM150.073 35.3463C150.714 35.9578 151.195 35.6724 151.716 35.4686C153.479 34.7348 155.162 33.6748 157.045 33.2671C157.366 33.1856 157.807 33.104 157.767 32.7371C157.687 32.2071 157.166 32.411 156.845 32.5333C154.521 33.1856 152.237 33.8786 150.073 35.3463ZM55.1802 44.03C57.5044 42.8477 59.8687 41.6654 62.193 40.4831C62.5536 40.3201 63.2349 40.2793 62.9944 39.7493C62.754 39.1785 62.193 39.5862 61.7922 39.7901C59.4279 40.9316 57.3041 42.4808 55.1802 44.03ZM3.56638 43.7854C3.64653 43.3777 3.40609 43.1331 3.12558 43.2962C2.56456 43.5815 1.60281 43.0923 1.44252 44.0708C1.36238 44.4784 1.64289 45.09 2.20391 45.0492C2.88514 44.9269 3.28587 44.3561 3.56638 43.7854Z" stroke="white" stroke-miterlimit="10"/>
<path d="M56.7432 65.4742C58.827 65.1073 65.5592 66.6973 65.5592 66.6973C70.0874 67.3904 74.6557 67.1865 79.224 66.9827C81.8688 66.8604 84.4736 66.8196 87.1184 66.8196C94.9326 66.7788 102.667 65.9227 110.401 65.0258C115.971 64.3735 121.18 62.3758 126.43 60.5005C129.996 59.1959 133.483 57.8097 136.969 56.3421C141.016 54.6298 144.984 52.7952 149.071 51.1645C153.8 49.2484 160.732 46.5169 166.062 50.186M192.069 59.3997C183.494 57.8505 166.863 50.4714 166.863 50.4714C165.22 49.7376 163.417 49.3707 161.654 49.3707C159.049 49.3707 156.444 49.8191 153.8 50.553C154.361 51.4906 155.242 51.2868 155.923 51.5314C158.648 52.4283 159.009 53.9367 157.326 55.8936C155.683 57.769 153.76 59.359 152.157 61.2751C150.353 63.4358 148.51 65.5558 146.546 67.5534C145.745 68.3688 144.342 68.858 143.301 68.328C134.444 64.2104 129.395 68.8173 129.395 68.8173C128.714 69.5511 128.193 70.6111 127.993 71.6303C127.872 72.3233 127.592 72.9756 127.111 73.5056L126.831 73.791C126.47 74.1987 126.27 74.7287 126.35 75.2587C126.991 80.9663 121.06 81.9855 121.06 81.9855C120.499 82.1893 120.179 81.6186 119.818 81.2516C118.255 79.6617 115.851 79.9063 113.847 81.8224C113.727 81.9447 113.607 82.1078 113.486 82.2301C111.683 84.3093 110.641 84.2277 109.519 81.7001C108.157 78.6017 106.914 78.2348 103.949 80.5586C102.466 81.7409 101.825 81.6186 101.064 79.8655C100.222 78.0309 98.6193 77.7456 97.1366 79.1725C96.8962 79.4171 96.6958 79.6617 96.4954 79.9471C95.7741 81.0886 95.0528 80.7624 94.2914 79.9471C92.6084 78.0309 92.5683 77.9494 90.204 79.1725C89.082 79.7432 88.5209 79.5801 87.9599 78.4386C87.5191 77.5417 87.0783 78.3571 86.918 77.3379C86.7577 76.2779 86.5173 75.5848 86.3169 74.5656C86.1967 73.7095 86.1967 72.8126 86.1967 71.9564C86.1967 70.7334 86.5173 69.4695 86.5574 68.2465C86.7177 67.635 86.0765 67.6757 85.7158 67.5942C84.0729 67.3496 82.3898 67.5534 80.7468 67.5942C75.4572 67.7573 70.1275 68.2057 64.878 67.2273L61.7523 66.5342M132.521 62.2535C131.319 60.7859 130.437 60.0928 129.475 60.2966C128.554 60.5005 127.632 60.8674 126.71 61.1528C126.029 61.3566 125.909 61.8051 126.189 62.4574C126.59 63.3135 127.231 63.9658 127.792 64.6996C127.792 64.6996 129.475 67.0234 131.038 66.575C132 66.2896 133.443 65.8411 134.404 65.5558C134.885 65.3927 135.046 64.7812 134.685 64.4142L132.521 62.2535ZM125.067 75.5848C124.867 75.1771 124.146 75.5848 123.945 75.1364C123.905 75.0548 123.905 74.9733 123.945 74.9325C125.268 74.1579 124.907 73.5056 124.025 72.5272L118.536 64.1696L115.049 64.985L114.248 65.3927C113.647 65.7188 113.446 66.4527 113.767 67.0642C115.41 70.0811 119.137 77.9086 119.698 78.9686C119.978 79.4986 120.179 80.1101 120.619 80.5178C121.18 81.0886 121.301 81.0478 122.142 80.2732C122.142 80.314 126.029 77.4194 125.067 75.5848ZM123.344 69.2249C123.945 70.4888 124.827 71.5895 125.709 72.6495C125.869 72.8126 125.989 73.0572 126.23 73.0164C126.67 72.9756 126.75 71.8341 126.871 71.508C127.151 70.7334 127.432 69.918 127.792 69.1434C128.033 68.5726 128.594 68.2057 128.794 67.635C128.874 67.3496 128.834 67.1457 128.634 66.9827C128.353 66.7788 127.913 66.9011 127.592 66.8196C127.151 66.7381 126.911 66.2896 126.67 65.9227C125.989 65.0258 125.348 64.0881 124.627 63.2727C124.146 62.702 123.505 61.5197 122.783 63.1504C122.703 63.2727 122.342 63.395 122.182 63.3543C121.821 63.2727 121.421 63.1097 121.06 63.1912C120.419 63.3135 120.379 64.0066 120.579 64.455C121.02 65.3519 121.581 66.1265 122.062 66.9827C122.503 67.7165 122.984 68.4503 123.344 69.2249ZM109.038 66.1265C108.357 66.2896 107.876 66.9419 107.916 67.6757C108.076 70.4072 108.477 76.971 108.597 77.9494C108.758 79.1725 110.801 81.8224 110.801 81.8224C111.202 83.2493 111.923 82.3524 112.845 81.1701C113.927 79.7432 114.087 79.7024 115.69 79.254C116.612 79.0094 117.974 79.1725 117.454 78.3979C116.852 77.5417 113.566 68.165 112.925 67.105C112.244 65.6373 110.321 65.8004 109.038 66.1265ZM107.155 67.7573C107.035 66.9419 107.275 65.6373 105.752 66.7788C105.311 67.105 105.071 66.2896 104.51 66.3304C101.825 66.3711 101.024 67.1865 100.984 70.1218C100.984 71.0187 101.104 71.9157 101.104 72.8126L101.945 79.784C101.865 80.6809 102.747 81.007 103.348 80.3547C104.27 79.3763 105.392 78.5202 106.594 78.3163C107.235 78.194 107.596 77.9494 107.395 77.2156L107.155 67.7573ZM98.8197 68.6949C98.8197 66.9011 98.8197 66.9011 97.0565 66.9827C95.133 67.0642 94.8925 67.1865 94.7723 68.9803C94.5319 72.2826 94.3716 75.2587 94.8525 78.5609C94.8925 78.9278 94.8124 79.4986 95.3734 79.5801C95.7741 79.6617 96.0146 78.724 96.2951 78.4794C96.4954 78.2348 96.6958 78.1532 96.9763 78.0717C99.02 77.4602 98.5792 77.664 99.02 77.4602C100.062 76.971 99.4608 76.0333 99.3807 74.8918L98.8197 68.6949ZM91.3661 67.7573C90.5647 67.9203 87.5993 67.7573 87.6794 68.5726L88.0401 75.9925C88.2404 76.9709 88.8015 78.724 89.6831 78.2348C90.4044 77.8271 90.8452 77.5825 91.6867 77.5009C92.6885 77.3379 93.4098 76.4817 93.3297 75.4625C93.1694 72.4049 92.6885 67.4719 91.3661 67.7573ZM135.687 58.3397C135.126 58.0136 134.525 57.6874 134.124 58.3397C133.643 59.1143 134.525 59.359 134.885 59.7259C136.608 61.3566 138.732 62.2535 140.816 63.232C141.978 63.8027 143.1 64.7404 144.823 64.5773C143.381 63.7212 142.178 62.9466 140.976 62.2535L135.687 58.3397ZM139.133 59.3182C141.898 60.7859 144.663 62.2128 147.588 63.395C148.029 63.5581 148.51 64.0066 149.071 63.6397C148.911 63.1097 148.51 63.1097 148.189 62.9466C146.266 61.9274 144.222 61.2343 142.419 59.9705C141.097 59.0328 139.734 58.1767 138.412 57.239C137.931 56.8721 137.33 56.5867 136.929 57.1575C136.448 57.8097 137.25 58.0951 137.61 58.4213L139.133 59.3182ZM152.157 60.2559C151.275 59.1551 150.273 58.992 149.432 58.5436C147.348 57.4428 145.424 56.0567 143.461 54.7521C142.98 54.426 142.539 54.5075 142.219 54.8744C141.778 55.4044 142.379 55.6083 142.659 55.8529C145.424 57.9728 148.55 59.1143 152.157 60.2559ZM138.812 64.6589C138.251 63.6804 137.49 63.395 136.929 62.865C135.607 61.7235 134.244 60.6228 132.882 59.4813C132.521 59.1551 132.08 59.0736 131.76 59.4405C131.319 59.8889 131.92 60.0928 132.12 60.2966C134.044 62.0904 136.087 63.6397 138.812 64.6589ZM144.543 59.0736C143.421 58.1359 142.299 57.1982 141.177 56.2605C140.936 56.0567 140.616 55.9344 140.335 55.8121C140.015 55.6898 139.654 55.7713 139.494 56.0567C139.293 56.3829 139.614 56.5867 139.854 56.709C141.337 57.6467 142.699 58.7474 144.543 59.0736ZM150.594 56.8721C147.107 54.3852 145.745 53.6514 144.984 53.9775C146.066 55.0375 149.432 56.7498 150.594 56.8721ZM155.082 54.0183C153.599 53.1214 151.956 52.6321 150.554 51.6129C150.233 51.3683 149.913 51.4091 149.712 51.776C149.552 52.1429 149.913 52.2245 150.153 52.3468C151.716 53.1214 153.319 53.8552 155.082 54.0183ZM146.947 52.6729C148.31 53.896 149.632 54.1814 150.914 54.5075C149.592 54.1814 148.951 52.4283 146.947 52.6729Z" stroke="white" stroke-miterlimit="10"/>
<path d="M22.2402 30.1279C25.3258 30.0464 26.8887 31.7994 27.1692 35.0609C27.3695 37.4663 24.2038 41.1354 21.8395 41.0947C18.0326 41.0539 16.1892 38.6485 16.0289 35.9171C15.8686 33.3486 17.8723 29.9649 22.2402 30.1279ZM26.528 35.1425C26.528 32.3702 24.9251 30.821 22.0398 30.821C18.9943 30.821 16.7502 32.941 16.7102 35.8763C16.6701 38.3224 18.7939 40.2793 21.599 40.3201C23.8431 40.3608 26.528 37.5478 26.528 35.1425Z" stroke="white" stroke-miterlimit="10"/>
<path d="M24.8451 47.1284C24.0837 48.4738 23.3624 49.7784 21.5591 49.3299C21.3187 49.2891 20.9179 49.3299 20.7577 49.493C19.7959 50.6345 19.3952 49.7376 18.754 49.0445C18.0728 48.3515 17.0309 48.2699 16.1092 47.9438C15.1074 47.6176 14.3861 47.6176 13.7449 48.6368C13.4644 49.1261 12.9835 48.8814 12.9034 48.3107C12.703 46.843 11.7813 47.0061 10.7394 47.2915C9.53725 47.6176 8.33507 47.5769 7.05273 46.6799C8.41521 46.2315 9.6174 46.4353 10.7394 46.5169C13.224 46.6799 15.6283 47.3322 18.0327 48.0661C18.754 48.2699 19.4352 48.5961 20.1566 48.6368C21.9598 48.8814 23.8032 49.1261 24.8451 47.1284Z" stroke="white" stroke-miterlimit="10"/>
<path d="M41.8357 46.6799C41.3148 47.7807 40.353 48.4738 39.3111 48.6368C37.7884 48.8814 36.4259 49.493 34.9833 50.0637C33.4204 50.6753 32.4587 49.9414 32.5388 48.2699C32.5388 47.903 32.5789 47.4953 32.6991 47.1692C33.0998 45.9461 33.5407 44.6823 33.3403 43.3369C33.2601 42.9292 33.3403 42.4808 33.8612 42.0731C33.5006 43.9077 34.1417 45.7015 33.0598 47.3322C32.659 47.903 32.7793 48.6368 33.2201 49.1668C33.7009 49.7784 34.4223 49.7376 34.9833 49.3707C37.1472 48.1068 39.9122 48.4738 41.8357 46.6799Z" stroke="white" stroke-miterlimit="10"/>
<path d="M45.6028 42.5216C45.5627 40.157 45.2822 37.9147 44.3204 35.754C44.08 35.2648 44.2804 34.694 44.601 34.2048C44.601 37.0586 46.9252 39.5455 45.6028 42.5216Z" stroke="white" stroke-miterlimit="10"/>
<path d="M31.2567 48.6368C30.896 45.7015 32.3787 43.1739 32.8195 40.4016C32.9798 43.2554 31.5372 45.8238 31.2567 48.6368Z" stroke="white" stroke-miterlimit="10"/>
<path d="M30.8558 39.1785C30.2147 40.3201 29.8941 41.747 28.6919 42.44C29.4132 41.38 30.1345 40.2793 30.8558 39.1785Z" stroke="white" stroke-miterlimit="10"/>
<path d="M34.5426 33.5525C34.5827 34.9386 34.222 36.0801 33.8213 37.1809C34.0617 36.0394 33.7411 34.7755 34.5426 33.5525Z" stroke="white" stroke-miterlimit="10"/>
<path d="M31.1768 42.4808C31.337 41.7062 31.4973 40.8908 31.6576 40.1162C31.6977 39.9531 31.8179 39.7493 32.0183 39.7901C32.2988 39.8716 32.3389 40.157 32.2587 40.3201C31.9782 41.0539 31.6977 41.747 31.4172 42.4808C31.337 42.4808 31.2569 42.4808 31.1768 42.4808Z" stroke="white" stroke-miterlimit="10"/>
<path d="M27.57 53.2437C27.57 53.5291 27.57 53.9367 27.1693 53.7329C26.8487 53.5698 26.2075 53.7737 26.2075 53.1621C26.2075 52.9583 26.4079 52.4691 26.8086 52.5506C27.2093 52.6321 27.6101 52.7137 27.57 53.2437Z" stroke="white" stroke-miterlimit="10"/>
<path d="M24.6047 35.3463C24.5647 37.0586 23.4426 38.3632 22 38.3632C20.3169 38.3632 18.9545 37.0178 19.0346 35.3871C19.0747 34.0825 20.6375 32.7779 22.1603 32.7779C23.6029 32.7779 24.6047 33.8379 24.6047 35.3463Z" stroke="white" stroke-miterlimit="10"/>
</g>
<path d="M198.192 90.4084V104.55" stroke="#FEFEFE" stroke-opacity="0.6"/>
<path fill-rule="evenodd" clip-rule="evenodd" d="M0 90.4084V104.55H1V90.4084H0ZM1.14453 97.9791H197.545V96.9791H1.14453V97.9791Z" fill="#FEFEFE" fill-opacity="0.6"/>
<defs>
<clipPath id="clip0_1656_28">
<rect width="198" height="87" fill="white"/>
</clipPath>
</defs>
</svg>
