<?xml version="1.0" encoding="utf-8"?>
<!-- Generator: Adobe Illustrator 26.0.1, SVG Export Plug-In . SVG Version: 6.00 Build 0)  -->
<svg version="1.1" id="Livello_1" xmlns="http://www.w3.org/2000/svg" xmlns:xlink="http://www.w3.org/1999/xlink" x="0px" y="0px"
	 viewBox="0 0 486.7 500" style="enable-background:new 0 0 486.7 500;" xml:space="preserve">
<style type="text/css">
	.st0{fill:#FFFFFF;}
</style>
<path class="st0" d="M482.4,233L253.7,4.3c-5.7-5.7-15-5.7-20.7,0L4.3,233c-5.7,5.7-5.7,15,0,20.7l5.7,5.7c5.7,5.7,15,5.7,20.7,0
	l194-194v420c0,8.1,6.5,14.6,14.6,14.6h8.1c8.1,0,14.6-6.5,14.6-14.6v-420l194,194c5.7,5.7,15,5.7,20.7,0l5.7-5.7
	C488.1,248,488.1,238.7,482.4,233z"/>
</svg>
