<svg id="Livello_1" data-name="Livello 1" xmlns="http://www.w3.org/2000/svg" viewBox="0 0 411.46 73.45"><defs><style>.cls-1{fill:#fff;}</style></defs><path class="cls-1" d="M101.4,32c3-4,5.26-7.16,5.26-9.54,0-.46-.09-1.33-.92-1.33-1.32,0-2.39,2.05-3.06,3.39h-.08l-.75-3.34a12,12,0,0,1,4-.85c2.14,0,4.13.87,4.13,2.9,0,1.87-1.65,3.5-3.35,4.72-.7.49-1.9,1.26-2.51,1.65h2.42a4.65,4.65,0,0,0,3.29-1.2l0,0L109.27,32Zm14.23.09c-2.83,0-5-2.3-5-5.85s2.18-5.84,5-5.84,5,2.3,5,5.84S118.45,32,115.63,32Zm0-.8c1.41,0,1.41-3.15,1.41-5.09s0-5-1.41-5-1.41,3.15-1.41,5.07S114.22,31.24,115.63,31.24Zm10.75.8c-2.83,0-5-2.3-5-5.85s2.18-5.84,5-5.84,5,2.3,5,5.84S129.2,32,126.38,32Zm0-.8c1.41,0,1.41-3.15,1.41-5.09s0-5-1.41-5S125,24.3,125,26.22,125,31.24,126.38,31.24Zm10.75.8c-2.83,0-5-2.3-5-5.85s2.18-5.84,5-5.84,5,2.3,5,5.84S140,32,137.13,32Zm0-.8c1.41,0,1.41-3.15,1.41-5.09s0-5-1.41-5-1.41,3.15-1.41,5.07S135.72,31.24,137.13,31.24ZM104.54,50.09c-1.24,0-1.91-.88-1.91-2.21V42.6h-1.17v-.43a3.8,3.8,0,0,0,2.5-2.43h.18V42h2.24v.59h-2.24v5.09c0,.91.42,1.36,1.17,1.36a2.56,2.56,0,0,0,1.46-.5A2.47,2.47,0,0,1,104.54,50.09Zm5.16-.18V50h-2.15v-.05a10.33,10.33,0,0,0,.32-2.22V44.28a10.11,10.11,0,0,0-.32-2.21V42h1.83v1.33a2.68,2.68,0,0,1,3.2-1.33l-.23,1.7h0a2,2,0,0,0-2.92.06v3.92A10.33,10.33,0,0,0,109.7,49.91Zm6.21.16a2.37,2.37,0,0,1-2.56-2.36c0-1.81,2-2.87,4.35-2.47a4.5,4.5,0,0,1,.64.13v-1c0-1.24-.63-1.86-1.43-1.86-1,0-2.56,1.3-3,1.89h0V42.57a9.35,9.35,0,0,1,3.13-.66c1.8,0,2.87.93,2.87,2.45v4c0,.79.38,1,1,.82v0a1.23,1.23,0,0,1-1.2.78,1.25,1.25,0,0,1-1.33-1.14A2.93,2.93,0,0,1,115.91,50.07Zm-1-2.51a1.65,1.65,0,0,0,1.69,1.67,2.25,2.25,0,0,0,1.7-.9v-2.5h-.18C116.1,45.42,115,46.39,115,47.56Zm9.89,0a3.74,3.74,0,0,1-1.44-.29c-.4.13-.72.4-.72.75,0,.58.66.66,1.25.66h2.61a2.06,2.06,0,0,1,2.35,2.09c0,2.08-2.45,2.4-3.89,2.4s-3.47-.32-3.47-1.9a1.77,1.77,0,0,1,.77-1.44,1.33,1.33,0,0,1-.61-1.2A1.61,1.61,0,0,1,123,47a2.61,2.61,0,0,1-1.34-2.32,3,3,0,0,1,3.21-2.8,3.72,3.72,0,0,1,1.8.47,2.07,2.07,0,0,1,2.25-1.07l-.24,1.28h-.05a2,2,0,0,0-1.72-.08,2.6,2.6,0,0,1,1.2,2.19A3,3,0,0,1,124.84,47.55Zm0-.53c1,0,1.7-.9,1.7-2.29s-.7-2.3-1.7-2.3-1.68.91-1.68,2.3S123.84,47,124.84,47Zm-2.28,3.79c0,1.07.91,1.81,2.64,1.81s2.56-.66,2.56-1.44c0-.56-.37-1-1.25-1h-2.72a3.72,3.72,0,0,1-1-.13A1.66,1.66,0,0,0,122.56,50.81Zm9.31-.9V50h-2.16v-.05a10.33,10.33,0,0,0,.32-2.22V40.55a6.71,6.71,0,0,0-.37-2.16l0,0,.32-.05,1.57-.23v5.27a3.25,3.25,0,0,1,2.61-1.43,2.47,2.47,0,0,1,2.59,2.74v3a9,9,0,0,0,.34,2.22V50h-2.16v-.05a10.33,10.33,0,0,0,.32-2.22V44.83a1.69,1.69,0,0,0-1.75-1.91,2.92,2.92,0,0,0-1.95.9v3.87A9,9,0,0,0,131.87,49.91Zm10,.18a3.79,3.79,0,0,1-3.75-4.1c0-2.48,1.6-4.08,3.72-4.08s3.39,1.64,3.39,3.83h-5.46c.07,1.9,1,3.29,2.72,3.29a3.73,3.73,0,0,0,2.67-1.21l.05,0A3.63,3.63,0,0,1,141.87,50.09Zm-.05-7.63c-1.31,0-2,1.29-2,2.86l3.87-.24C143.6,43.56,143,42.46,141.82,42.46Zm7.06,7.63c-1.23,0-1.91-.88-1.91-2.21V42.6h-1.16v-.43a3.8,3.8,0,0,0,2.49-2.43h.18V42h2.24v.59h-2.24v5.09c0,.91.42,1.36,1.17,1.36a2.56,2.56,0,0,0,1.46-.5A2.47,2.47,0,0,1,148.88,50.09Zm5.75,0c-1.23,0-1.91-.88-1.91-2.21V42.6h-1.16v-.43a3.8,3.8,0,0,0,2.49-2.43h.18V42h2.24v.59h-2.24v5.09c0,.91.42,1.36,1.17,1.36a2.56,2.56,0,0,0,1.46-.5A2.47,2.47,0,0,1,154.63,50.09Zm4.26-9.9a1.05,1.05,0,1,1,0-2.1,1.05,1.05,0,1,1,0,2.1ZM160,49.91V50h-2.15v-.05a10.33,10.33,0,0,0,.32-2.22l0-3.41a10.11,10.11,0,0,0-.32-2.21V42h1.81v5.68A10.33,10.33,0,0,0,160,49.91Z"/><path class="cls-1" d="M188.11,37.06v-.67h1.65c1.38,0,1.5,0,1.65-.16s.14-.26.14-1.65V32.87h.72v1.72c0,1.4,0,1.52.15,1.65s.27.15,1.64.15h1.8v.67h-1.8c-1.37,0-1.52,0-1.64.16s-.15.25-.15,1.65v1.71h-.72V38.87c0-1.4,0-1.52-.14-1.65s-.27-.16-1.65-.16Z"/><path class="cls-1" d="M289.75,37.06v-.67h1.65c1.37,0,1.5,0,1.64-.16s.15-.26.15-1.65V32.87h.72v1.72c0,1.4,0,1.52.14,1.65s.27.15,1.65.15h1.79v.67H295.7c-1.38,0-1.52,0-1.65.16s-.14.25-.14,1.65v1.71h-.72V38.87c0-1.4,0-1.52-.15-1.65s-.27-.16-1.64-.16Z"/><path class="cls-1" d="M223.94,22.53a15.26,15.26,0,0,0,5.2-2.35v9.18a10.43,10.43,0,0,0,.5,2.67v.07h-4.2V32a10.43,10.43,0,0,0,.5-2.67V23h-2Zm10,9.76a8.61,8.61,0,0,1-3.5-.74l.29-3.28h.09c.93,1.78,2.16,3.27,3.11,3.27.59,0,1.15-.61,1.15-2.42,0-1.6-.58-2.8-2-2.88a5.29,5.29,0,0,0-2.29.53l.58-6.19h4.35a12.92,12.92,0,0,0,2.73-.43l-.65,3.16h-5.91l-.22,2.44a6.1,6.1,0,0,1,3.09-.85,3.48,3.48,0,0,1,3.81,3.69C238.53,31,236.61,32.29,233.93,32.29Zm10.34-.11c-2.83,0-5-2.31-5-5.86s2.18-5.84,5-5.84,5,2.31,5,5.84S247.08,32.18,244.27,32.18Zm0-.8c1.41,0,1.41-3.15,1.41-5.09s0-5-1.41-5-1.41,3.15-1.41,5.07S242.86,31.38,244.27,31.38Zm10.75.8c-2.83,0-5-2.31-5-5.86s2.18-5.84,5-5.84,5,2.31,5,5.84S257.83,32.18,255,32.18Zm0-.8c1.41,0,1.41-3.15,1.41-5.09s0-5-1.41-5-1.41,3.15-1.41,5.07S253.61,31.38,255,31.38ZM228,50.23a3.75,3.75,0,0,1-3.73-4.1c0-2.59,1.6-4.08,3.79-4.08a6,6,0,0,1,2.76.78v1.91h-.06c-.55-.91-1.44-2.15-2.69-2.15-1.42,0-2.16,1.49-2.16,3.2,0,2,1,3.38,2.72,3.38a3.69,3.69,0,0,0,2.53-1.09l.05,0A3.47,3.47,0,0,1,228,50.23Zm6.62,0a2.38,2.38,0,0,1-2.56-2.37c0-1.81,2-2.86,4.35-2.46a4.5,4.5,0,0,1,.64.13v-1c0-1.23-.63-1.85-1.43-1.85-1,0-2.56,1.29-3,1.88h0v-1.8a9.11,9.11,0,0,1,3.13-.66c1.8,0,2.87.93,2.87,2.45v4c0,.78.38,1,1,.81v0a1.22,1.22,0,0,1-1.2.79A1.25,1.25,0,0,1,237.08,49,3,3,0,0,1,234.64,50.21Zm-1-2.51a1.64,1.64,0,0,0,1.69,1.66,2.24,2.24,0,0,0,1.7-.89V46a.62.62,0,0,1-.18,0C234.83,45.55,233.68,46.53,233.68,47.7Zm8.93,2.35v.05h-2.14v-.05a10.44,10.44,0,0,0,.32-2.22V44.42a10.11,10.11,0,0,0-.32-2.21v-.06h1.82v1.32a2.68,2.68,0,0,1,3.2-1.32l-.22,1.69h-.05a2.05,2.05,0,0,0-2.93.07v3.92A10.44,10.44,0,0,0,242.61,50.05Zm6.78-2.37a3.5,3.5,0,0,1-1.44-.29c-.4.13-.72.4-.72.76,0,.57.65.65,1.24.65h2.61a2.06,2.06,0,0,1,2.35,2.1c0,2.08-2.44,2.4-3.88,2.4s-3.48-.32-3.48-1.91a1.8,1.8,0,0,1,.77-1.44,1.32,1.32,0,0,1-.61-1.2,1.6,1.6,0,0,1,1.28-1.58,2.62,2.62,0,0,1-1.34-2.32,3,3,0,0,1,3.22-2.8,3.81,3.81,0,0,1,1.79.46,2.1,2.1,0,0,1,2.25-1.07l-.24,1.28,0,0a2,2,0,0,0-1.73-.08,2.59,2.59,0,0,1,1.2,2.19A3,3,0,0,1,249.39,47.68Zm0-.53c1,0,1.69-.89,1.69-2.28s-.7-2.31-1.69-2.31-1.68.91-1.68,2.31S248.38,47.15,249.39,47.15ZM247.1,51c0,1.07.91,1.8,2.64,1.8s2.56-.65,2.56-1.44c0-.56-.37-1-1.25-1h-2.72a3.76,3.76,0,0,1-1-.12A1.66,1.66,0,0,0,247.1,51Zm10.66-.72a3.84,3.84,0,0,1-3.89-4.12,3.9,3.9,0,1,1,7.79,0A3.86,3.86,0,0,1,257.76,50.23Zm0-.56c1.41,0,2.22-1.64,2.22-3.56s-.81-3.52-2.22-3.52-2.21,1.62-2.21,3.52S256.33,49.67,257.76,49.67Z"/><path class="cls-1" d="M325.58,32.08c3-4,5.26-7.15,5.26-9.53,0-.47-.09-1.33-.93-1.33-1.31,0-2.38,2.05-3.05,3.39h-.08L326,21.27a11.9,11.9,0,0,1,4-.85c2.14,0,4.13.86,4.13,2.89s-1.65,3.51-3.35,4.72c-.7.5-1.9,1.27-2.51,1.65h2.42a4.66,4.66,0,0,0,3.29-1.2l.05,0-.56,3.57Zm14.23.1c-2.83,0-5-2.31-5-5.86s2.18-5.84,5-5.84,5,2.31,5,5.84S342.63,32.18,339.81,32.18Zm0-.8c1.41,0,1.41-3.15,1.41-5.09s0-5-1.41-5-1.41,3.15-1.41,5.07S338.4,31.38,339.81,31.38Zm10.75.8c-2.83,0-5-2.31-5-5.86s2.18-5.84,5-5.84,5,2.31,5,5.84S353.38,32.18,350.56,32.18Zm0-.8c1.41,0,1.41-3.15,1.41-5.09s0-5-1.41-5-1.41,3.15-1.41,5.07S349.15,31.38,350.56,31.38Zm10.75.8c-2.83,0-5-2.31-5-5.86s2.18-5.84,5-5.84,5,2.31,5,5.84S364.13,32.18,361.31,32.18Zm0-.8c1.41,0,1.41-3.15,1.41-5.09s0-5-1.41-5-1.41,3.15-1.41,5.07S359.9,31.38,361.31,31.38Zm-34.08,8.94a1,1,0,1,1,0-2.09,1,1,0,1,1,0,2.09Zm1.13,9.73v.05h-2.14v-.05a10.44,10.44,0,0,0,.32-2.22V44.42a10.11,10.11,0,0,0-.32-2.21v-.06H328v5.68A10.44,10.44,0,0,0,328.36,50.05Zm3.56,0v.05h-2.14v-.05a10.44,10.44,0,0,0,.32-2.22V44.42a10.11,10.11,0,0,0-.32-2.21v-.06h1.8V43.3a2.88,2.88,0,0,1,2.29-1.25,2.28,2.28,0,0,1,2.24,1.47,3.07,3.07,0,0,1,2.47-1.47c1.23,0,2.44.75,2.44,2.74v3a9.07,9.07,0,0,0,.34,2.22v.05h-2.14v-.05a10.44,10.44,0,0,0,.32-2.22V45a1.66,1.66,0,0,0-1.67-1.87,2.5,2.5,0,0,0-1.65.8,3.54,3.54,0,0,1,.1.9v3a9.07,9.07,0,0,0,.34,2.22v.05h-2.15v-.05a10.44,10.44,0,0,0,.32-2.22V45a1.66,1.66,0,0,0-1.66-1.87,2.35,2.35,0,0,0-1.59.72v4A9.07,9.07,0,0,0,331.92,50.05Zm14.32.16a3.07,3.07,0,0,1-1.94-.66l-1.47.64,0-9.5a6,6,0,0,0-.38-2.16l0-.05.34,0,1.58-.22v5a2.84,2.84,0,0,1,2.36-1.2c1.76,0,3.13,1.41,3.13,4C349.82,48.82,348.11,50.21,346.24,50.21ZM346.09,43a2.4,2.4,0,0,0-1.76.94v5.2a2.58,2.58,0,0,0,1.28.32c1.75,0,2.56-1.62,2.56-3.41C348.17,44.39,347.52,43,346.09,43Zm7.31,7.26a2.38,2.38,0,0,1-2.56-2.37c0-1.81,2-2.86,4.35-2.46a4.5,4.5,0,0,1,.64.13v-1c0-1.23-.63-1.85-1.43-1.85-1,0-2.56,1.29-3,1.88h0v-1.8a9.11,9.11,0,0,1,3.13-.66c1.8,0,2.87.93,2.87,2.45v4c0,.78.38,1,1,.81v0a1.22,1.22,0,0,1-1.2.79A1.25,1.25,0,0,1,355.84,49,3,3,0,0,1,353.4,50.21Zm-1-2.51a1.64,1.64,0,0,0,1.69,1.66,2.24,2.24,0,0,0,1.7-.89V46a.62.62,0,0,1-.18,0C353.59,45.55,352.44,46.53,352.44,47.7Zm8.93,2.35v.05h-2.14v-.05a10.44,10.44,0,0,0,.32-2.22V44.42a10.11,10.11,0,0,0-.32-2.21v-.06h1.82v1.32a2.68,2.68,0,0,1,3.2-1.32L364,43.84h0a2.05,2.05,0,0,0-2.93.07v3.92A10.44,10.44,0,0,0,361.37,50.05Zm7.1.18c-2,0-3.73-1.46-3.73-4.1s1.6-4.08,3.79-4.08a5.89,5.89,0,0,1,2.75.78l0,1.91h-.06c-.55-.91-1.44-2.15-2.69-2.15-1.43,0-2.16,1.49-2.16,3.2,0,2,1,3.38,2.72,3.38a3.69,3.69,0,0,0,2.53-1.09l0,0A3.46,3.46,0,0,1,368.47,50.23Zm6.61,0a2.39,2.39,0,0,1-2.56-2.37c0-1.81,2-2.86,4.36-2.46a4.5,4.5,0,0,1,.64.13v-1c0-1.23-.63-1.85-1.43-1.85-1,0-2.56,1.29-3,1.88h0v-1.8a9.11,9.11,0,0,1,3.13-.66c1.79,0,2.87.93,2.87,2.45v4c0,.78.38,1,1,.81l0,0a1.22,1.22,0,0,1-1.2.79A1.25,1.25,0,0,1,377.53,49,3,3,0,0,1,375.08,50.21Zm-1-2.51a1.65,1.65,0,0,0,1.7,1.66,2.24,2.24,0,0,0,1.7-.89V46a.58.58,0,0,1-.18,0C375.28,45.55,374.12,46.53,374.12,47.7Zm6.57,2.4,4.4-7.39h-1.48A5.87,5.87,0,0,0,381,43.87h-.07V42.15h6.35l-4.41,7.39h1.49A5.75,5.75,0,0,0,387,48.35H387V50.1Zm8.82-9.78a1,1,0,1,1,0-2.09,1,1,0,1,1,0,2.09Zm1.13,9.73v.05H388.5v-.05a10.44,10.44,0,0,0,.32-2.22V44.42a10.11,10.11,0,0,0-.32-2.21v-.06h1.81v5.68A10.44,10.44,0,0,0,390.64,50.05Zm5.07.18a3.84,3.84,0,0,1-3.89-4.12,3.9,3.9,0,1,1,7.79,0A3.86,3.86,0,0,1,395.71,50.23Zm0-.56c1.4,0,2.22-1.64,2.22-3.56s-.82-3.52-2.22-3.52-2.21,1.62-2.21,3.52S394.28,49.67,395.71,49.67Zm7.05.38v.05h-2.14v-.05a10.44,10.44,0,0,0,.32-2.22V44.42a10.11,10.11,0,0,0-.32-2.21v-.06h1.82v1.36a3.19,3.19,0,0,1,2.61-1.46,2.47,2.47,0,0,1,2.59,2.74v3a9.07,9.07,0,0,0,.34,2.22v.05h-2.16v-.05a10.44,10.44,0,0,0,.32-2.22V45a1.68,1.68,0,0,0-1.7-1.9,2.91,2.91,0,0,0-2,.94v3.83A10.44,10.44,0,0,0,402.76,50.05Zm7.56-9.73a1,1,0,1,1,1.07-1A1.06,1.06,0,0,1,410.32,40.32Zm1.14,9.73v.05h-2.15v-.05a10.44,10.44,0,0,0,.32-2.22l0-3.41a10.11,10.11,0,0,0-.32-2.21v-.06h1.81v5.68A10.44,10.44,0,0,0,411.46,50.05ZM329.58,68.23c-2,0-3.73-1.46-3.73-4.1s1.6-4.08,3.79-4.08a5.89,5.89,0,0,1,2.75.78l0,1.91h-.06c-.55-.91-1.44-2.15-2.69-2.15-1.43,0-2.16,1.49-2.16,3.2,0,2,1,3.38,2.72,3.38a3.69,3.69,0,0,0,2.53-1.09l0,0A3.46,3.46,0,0,1,329.58,68.23Zm7.88,0a3.84,3.84,0,0,1-3.89-4.12,3.9,3.9,0,1,1,7.79,0A3.86,3.86,0,0,1,337.46,68.23Zm0-.56c1.4,0,2.22-1.64,2.22-3.56s-.82-3.52-2.22-3.52-2.21,1.62-2.21,3.52S336,67.67,337.46,67.67Zm7.05.38v0h-2.14v0a10.44,10.44,0,0,0,.32-2.22V62.42a10.11,10.11,0,0,0-.32-2.21v-.06h1.81V61.3a2.85,2.85,0,0,1,2.29-1.25,2.29,2.29,0,0,1,2.24,1.47,3,3,0,0,1,2.46-1.47c1.23,0,2.45.75,2.45,2.74v3a9.7,9.7,0,0,0,.33,2.22v0h-2.14v0a10.44,10.44,0,0,0,.32-2.22V63a1.66,1.66,0,0,0-1.66-1.87,2.48,2.48,0,0,0-1.65.8,4.09,4.09,0,0,1,.09.9v3a9.07,9.07,0,0,0,.34,2.22v0h-2.14v0a10.44,10.44,0,0,0,.32-2.22V63a1.67,1.67,0,0,0-1.67-1.87,2.35,2.35,0,0,0-1.58.72v4A9.7,9.7,0,0,0,344.51,68.05Zm12.82,0v0h-2.15v0a10.44,10.44,0,0,0,.32-2.22V62.42a10.11,10.11,0,0,0-.32-2.21v-.06H357V61.3a2.85,2.85,0,0,1,2.29-1.25,2.28,2.28,0,0,1,2.24,1.47A3.06,3.06,0,0,1,364,60.05c1.24,0,2.45.75,2.45,2.74v3a9.07,9.07,0,0,0,.34,2.22v0h-2.15v0a10.44,10.44,0,0,0,.32-2.22V63a1.65,1.65,0,0,0-1.66-1.87,2.48,2.48,0,0,0-1.65.8,3.54,3.54,0,0,1,.1.9v3a9.7,9.7,0,0,0,.33,2.22v0h-2.14v0a10.44,10.44,0,0,0,.32-2.22V63a1.66,1.66,0,0,0-1.66-1.87,2.35,2.35,0,0,0-1.59.72v4A9.07,9.07,0,0,0,357.33,68.05Zm14.17.18a3.78,3.78,0,0,1-3.74-4.1c0-2.48,1.6-4.08,3.71-4.08s3.39,1.63,3.39,3.82H369.4c.07,1.91,1,3.3,2.72,3.3A3.78,3.78,0,0,0,374.8,66l0,0A3.63,3.63,0,0,1,371.5,68.23Zm-.05-7.64c-1.31,0-2,1.3-2,2.87l3.87-.24C373.23,61.7,372.64,60.59,371.45,60.59Zm6.72,7.46v0H376v0a10.44,10.44,0,0,0,.32-2.22V62.42a10.11,10.11,0,0,0-.32-2.21v-.06h1.82v1.32a2.67,2.67,0,0,1,3.2-1.32l-.22,1.69h-.05a2.05,2.05,0,0,0-2.93.07v3.92A10.44,10.44,0,0,0,378.17,68.05Zm7.09.18c-2,0-3.72-1.46-3.72-4.1s1.6-4.08,3.79-4.08a5.92,5.92,0,0,1,2.75.78l0,1.91H388c-.54-.91-1.44-2.15-2.69-2.15-1.42,0-2.16,1.49-2.16,3.2,0,2,1,3.38,2.72,3.38a3.69,3.69,0,0,0,2.53-1.09l.05,0A3.47,3.47,0,0,1,385.26,68.23Zm5.39-9.91a1,1,0,1,1,1.07-1A1.06,1.06,0,0,1,390.65,58.32Zm1.13,9.73v0h-2.14v0a10.44,10.44,0,0,0,.32-2.22l0-3.41a10.11,10.11,0,0,0-.32-2.21v-.06h1.8v5.68A10.44,10.44,0,0,0,391.78,68.05Zm3.83.16a2.39,2.39,0,0,1-2.56-2.37c0-1.81,2-2.86,4.36-2.46a4.5,4.5,0,0,1,.64.13v-1c0-1.23-.63-1.85-1.43-1.85-1,0-2.56,1.29-3,1.88h0v-1.8a9.11,9.11,0,0,1,3.13-.66c1.79,0,2.87.93,2.87,2.45v4c0,.78.38,1,1,.81l0,0a1.22,1.22,0,0,1-1.2.79A1.25,1.25,0,0,1,398.06,67,3,3,0,0,1,395.61,68.21Zm-1-2.51a1.65,1.65,0,0,0,1.7,1.66,2.24,2.24,0,0,0,1.7-.89V64a.58.58,0,0,1-.18,0C395.81,63.55,394.65,64.53,394.65,65.7Zm9,2.35v0h-2.18v0a9.07,9.07,0,0,0,.34-2.22V58.69a6.54,6.54,0,0,0-.38-2.16l0-.05.32,0,1.58-.22v9.62A9.07,9.07,0,0,0,403.61,68.05ZM406,58.32a1,1,0,1,1,1.07-1A1.06,1.06,0,0,1,406,58.32Zm1.13,9.73v0H405v0a10.44,10.44,0,0,0,.32-2.22l0-3.41a10.11,10.11,0,0,0-.32-2.21v-.06h1.8v5.68A10.44,10.44,0,0,0,407.17,68.05Z"/><ellipse class="cls-1" cx="36.66" cy="36.72" rx="36.66" ry="36.72"/><path d="M23.24,32.51c-2.33,0-4.43-1.34-4.43-4.28s2.1-4.16,4.43-4.16,4.45,1.23,4.45,4.16S25.56,32.51,23.24,32.51Zm0-.73c1,0,1.09-2,1.09-3.55s-.14-3.44-1.09-3.44-1.07,1.87-1.07,3.44S22.28,31.78,23.24,31.78Zm8.91-2a4.36,4.36,0,0,1-1.26-.18c-.36.11-.63.29-.63.54s.32.31.91.31h2.64c1.83,0,2.77.91,2.77,2.41,0,2.1-2.22,2.61-4.37,2.61-1,0-3.72-.11-3.72-1.74a1.74,1.74,0,0,1,.43-1.11,1.81,1.81,0,0,1-.45-1.26c0-1,.66-1.66,1.82-1.95a2.72,2.72,0,0,1-1.85-2.53c0-2,2.11-2.86,3.71-2.86a5,5,0,0,1,1.94.38,2.38,2.38,0,0,1,2.75-1.79l-.4,2.24,0,0a2.47,2.47,0,0,0-1.86-.26,2.51,2.51,0,0,1,1.36,2.26C35.89,29,33.75,29.83,32.15,29.83Zm0-.69c.67,0,.85-1.19.85-2.19s-.18-2.18-.85-2.18-.82,1.17-.82,2.18S31.48,29.14,32.15,29.14ZM31,33.38a3.86,3.86,0,0,1-1-.11c.15.81.77,1.48,2.42,1.48.89,0,2.4-.17,2.4-.84,0-.37-.31-.53-1.15-.53Zm10-1.12v.06h-4v-.06a10.84,10.84,0,0,0,.49-2.67V26.9a10.61,10.61,0,0,0-.49-2.67v-.07h3.5v1.36a2.91,2.91,0,0,1,2.56-1.45,2.51,2.51,0,0,1,2.66,2.65v2.87a10.84,10.84,0,0,0,.49,2.67v.06h-4v-.06a10.65,10.65,0,0,0,.5-2.67V27.15a1.11,1.11,0,0,0-1.15-1.26,2.39,2.39,0,0,0-1.06.24v3.46A10.65,10.65,0,0,0,41.08,32.26Zm7.79-8.79a1.78,1.78,0,1,1,1.81-1.77A1.81,1.81,0,0,1,48.87,23.47ZM51,32.26v.06H47v-.06a10.84,10.84,0,0,0,.49-2.67V26.9A10.61,10.61,0,0,0,47,24.23v-.07h3.5v5.43A10.65,10.65,0,0,0,51,32.26ZM16,47.83a4.47,4.47,0,0,1-1.27-.18c-.35.11-.62.29-.62.54s.32.31.91.31h2.64c1.83,0,2.77.91,2.77,2.41,0,2.1-2.22,2.61-4.37,2.61-1,0-3.73-.11-3.73-1.74a1.69,1.69,0,0,1,.44-1.11,1.81,1.81,0,0,1-.45-1.26c0-1,.65-1.66,1.82-1.95a2.72,2.72,0,0,1-1.85-2.53c0-2,2.11-2.86,3.71-2.86a4.92,4.92,0,0,1,1.93.38,2.39,2.39,0,0,1,2.76-1.79l-.4,2.24-.05,0a2.47,2.47,0,0,0-1.86-.26,2.51,2.51,0,0,1,1.36,2.26C19.75,47,17.61,47.83,16,47.83Zm0-.69c.67,0,.85-1.19.85-2.19s-.18-2.18-.85-2.18-.82,1.17-.82,2.18S15.34,47.14,16,47.14Zm-1.12,4.24a3.81,3.81,0,0,1-1-.11c.14.81.77,1.48,2.42,1.48.89,0,2.4-.17,2.4-.84,0-.37-.31-.53-1.16-.53Zm7.87-9.91a1.78,1.78,0,1,1,1.81-1.77A1.8,1.8,0,0,1,22.76,41.47Zm2.15,8.79v.06h-4v-.06a10.84,10.84,0,0,0,.49-2.67V44.9a10.61,10.61,0,0,0-.49-2.67v-.07h3.5v5.43A10.65,10.65,0,0,0,24.91,50.26Zm5,.25c-2.33,0-4.43-1.34-4.43-4.28s2.1-4.16,4.43-4.16,4.45,1.23,4.45,4.16S32.2,50.51,29.88,50.51Zm0-.73c.95,0,1.09-2,1.09-3.55s-.14-3.44-1.09-3.44-1.07,1.87-1.07,3.44S28.92,49.78,29.88,49.78Zm9,.48v.06h-4v-.06a10.65,10.65,0,0,0,.5-2.67V44.9a10.43,10.43,0,0,0-.5-2.67v-.07h3.51v1.75c.57-1.3,1.55-2.4,3.47-1.78l-.48,3.17h-.08c-.66-.77-1.71-1.57-2.91-1v3.27A10.84,10.84,0,0,0,38.84,50.26Zm7.53,0v.06h-4v-.06a10.65,10.65,0,0,0,.5-2.67V44.9a10.43,10.43,0,0,0-.5-2.67v-.07h3.51v1.36a2.88,2.88,0,0,1,2.56-1.45,2.5,2.5,0,0,1,2.65,2.65v2.87a10.65,10.65,0,0,0,.5,2.67v.06h-4v-.06a10.65,10.65,0,0,0,.5-2.67V45.15a1.11,1.11,0,0,0-1.16-1.26,2.38,2.38,0,0,0-1,.24v3.46A10.84,10.84,0,0,0,46.37,50.26Zm10.2.25c-2.34,0-4.43-1.34-4.43-4.28s2.09-4.16,4.43-4.16S61,43.3,61,46.23,58.89,50.51,56.57,50.51Zm0-.73c.94,0,1.09-2,1.09-3.55s-.15-3.44-1.09-3.44-1.07,1.87-1.07,3.44S55.61,49.78,56.57,49.78Z"/></svg>