<?xml version="1.0" encoding="utf-8"?>
<!-- Generator: Adobe Illustrator 26.0.1, SVG Export Plug-In . SVG Version: 6.00 Build 0)  -->
<svg version="1.1" id="Livello_1" xmlns="http://www.w3.org/2000/svg" xmlns:xlink="http://www.w3.org/1999/xlink" x="0px" y="0px"
	 viewBox="0 0 825.3 855.7" style="enable-background:new 0 0 825.3 855.7;" xml:space="preserve">
<style type="text/css">
	.st0{enable-background:new    ;}
	.st1{fill:#FFFFFF;}
	.st2{opacity:0.5;}
	.st3{fill:#F60000;}
</style>
<g id="Livello_2_00000100368673837013656980000017177112371157511824_">
</g>
<g id="Livello_1_00000029039402021790995620000007776115248889663874_">
	<g class="st0">
		<path class="st1" d="M114.1,839.1V852c0,1.5,0.5,3.1,0.6,3.3v0.1h-4.4v-0.1c0.1-0.3,0.6-1.9,0.6-3.3v-9.6h-2.6v-0.6
			C110.4,841.2,112.5,840.4,114.1,839.1z"/>
		<path class="st1" d="M128.4,847.6c0,4.6-2.3,8.1-6.3,8.1c-2,0-3.5-0.5-5-1.1l0.5-3.7h0.1c1.3,2.1,2.9,3.9,4.4,3.9
			c2.1,0,2.6-2.9,2.6-7.1c-0.9,1.1-2.3,1.7-3.8,1.7c-2.9,0-4.8-2.2-4.8-4.8c0-3.2,2.7-5.3,5.9-5.3
			C125.9,839.4,128.4,842.9,128.4,847.6z M119.7,843.9c0,2,0.9,4.2,2.7,4.2c0.7,0,1.6-0.3,2.3-1.3c-0.2-3.5-0.8-6.5-2.6-6.5
			C120.7,840.3,119.7,841.8,119.7,843.9z"/>
		<path class="st1" d="M129.7,851.7c0-2,1.8-3.2,3.5-3.6c-1.9-0.9-3.2-2.3-3.2-4.2c0-2.4,2.2-4.5,5.7-4.5c2.8,0,5.4,1.2,5.4,3.7
			c0,1.8-1.5,3-3,3.5c2.8,1.3,3.7,2.8,3.7,4.5c0,3-3,4.6-6.1,4.6C132.8,855.7,129.7,854.3,129.7,851.7z M135.7,854.8
			c1.8,0,3-1.1,3-2.6c0-1.6-1.8-2.7-4.2-3.6c-0.1,0-0.2-0.1-0.3-0.1c-1.1,0.7-1.7,1.8-1.7,2.9C132.4,853.1,133.6,854.8,135.7,854.8z
			 M137,846.1c0.8-0.6,1.5-1.5,1.5-2.7c0-1.7-1-3.1-2.9-3.1c-1.5,0-2.7,0.9-2.7,2.4C132.9,844.4,134.7,845.2,137,846.1z"/>
		<path class="st1" d="M150.1,842.6c0-1-0.5-2.2-1.8-2.2c-1.7,0-3.2,2.2-4.2,4H144l-0.7-3.7c1.5-0.6,3.2-1.3,5.1-1.3
			c2.8,0,5.2,1.3,5.2,3.9c0,2.2-1.8,4.2-3.8,5.9c-1.4,1.4-3.5,3.1-4.2,3.7h3.5c1.7,0,3.2-0.4,4.4-1.4h0.1l-0.6,3.9h-10.3
			C146.8,849.8,150.1,845.7,150.1,842.6z"/>
	</g>
	<g transform="translate(164.44444444444443,0)">
		<g class="st0">
			<path class="st1" d="M80,838.8v12.9c0,1.5,0.5,3.1,0.6,3.3v0.1h-4.4V855c0.1-0.3,0.6-1.9,0.6-3.3v-9.6H74v-0.6
				C76.3,841,78.3,840.1,80,838.8z"/>
			<path class="st1" d="M94.3,847.3c0,4.6-2.3,8.1-6.3,8.1c-2,0-3.5-0.5-5-1.1l0.6-3.7h0.1c1.3,2.1,2.9,3.9,4.4,3.9
				c2.1,0,2.6-2.9,2.6-7.1c-0.9,1.1-2.3,1.7-3.8,1.7c-2.9,0-4.8-2.2-4.8-4.8c0-3.2,2.7-5.3,5.9-5.3
				C91.7,839.1,94.3,842.7,94.3,847.3z M85.5,843.7c0,2,0.9,4.2,2.7,4.2c0.7,0,1.6-0.3,2.3-1.3c-0.2-3.5-0.8-6.5-2.6-6.5
				C86.5,840,85.5,841.6,85.5,843.7z"/>
			<path class="st1" d="M107.6,847.3c0,4.6-2.3,8.1-6.3,8.1c-2,0-3.5-0.5-5-1.1l0.6-3.7H97c1.3,2.1,2.9,3.9,4.4,3.9
				c2.1,0,2.6-2.9,2.6-7.1c-0.9,1.1-2.3,1.7-3.8,1.7c-2.9,0-4.8-2.2-4.8-4.8c0-3.2,2.7-5.3,5.9-5.3
				C105.1,839.1,107.6,842.7,107.6,847.3z M98.8,843.7c0,2,0.9,4.2,2.7,4.2c0.7,0,1.6-0.3,2.3-1.3c-0.2-3.5-0.8-6.5-2.6-6.5
				C99.8,840,98.8,841.6,98.8,843.7z"/>
			<path class="st1" d="M108.9,847.2c0-4.8,2.9-8,6.6-8s6.6,3.3,6.6,8c0,4.9-2.9,8.1-6.6,8.1C111.7,855.3,108.9,852.1,108.9,847.2z
				 M118.3,847.2c0-3.2-0.6-7-2.8-7c-2.3,0-2.8,3.9-2.8,7.1c0,3.3,0.6,7.1,2.8,7.1C117.7,854.4,118.3,850.4,118.3,847.2z"/>
		</g>
	</g>
	<g>
		<g class="st0">
			<path class="st1" d="M407.5,842.3c0-1-0.5-2.2-1.8-2.2c-1.7,0-3.2,2.2-4.2,4h-0.1l-0.7-3.7c1.5-0.6,3.2-1.3,5.1-1.3
				c2.8,0,5.2,1.3,5.2,3.9c0,2.2-1.8,4.2-3.8,5.9c-1.4,1.4-3.5,3.1-4.2,3.7h3.5c1.7,0,3.2-0.4,4.4-1.4h0.1l-0.6,3.9H400
				C404.2,849.5,407.5,845.4,407.5,842.3z"/>
			<path class="st1" d="M412.1,847.2c0-4.8,2.9-8,6.6-8s6.6,3.3,6.6,8c0,4.9-2.9,8.1-6.6,8.1C414.9,855.3,412.1,852.1,412.1,847.2z
				 M421.5,847.2c0-3.2-0.6-7-2.8-7c-2.3,0-2.8,3.9-2.8,7.1c0,3.3,0.6,7.1,2.8,7.1C420.9,854.4,421.5,850.4,421.5,847.2z"/>
			<path class="st1" d="M426.4,847.2c0-4.8,2.9-8,6.6-8s6.6,3.3,6.6,8c0,4.9-2.9,8.1-6.6,8.1S426.4,852.1,426.4,847.2z M435.8,847.2
				c0-3.2-0.6-7-2.8-7c-2.3,0-2.8,3.9-2.8,7.1c0,3.3,0.6,7.1,2.8,7.1S435.8,850.4,435.8,847.2z"/>
			<path class="st1" d="M440.8,847.2c0-4.8,2.9-8,6.6-8s6.6,3.3,6.6,8c0,4.9-2.9,8.1-6.6,8.1C443.7,855.3,440.8,852.1,440.8,847.2z
				 M450.2,847.2c0-3.2-0.6-7-2.8-7c-2.3,0-2.8,3.9-2.8,7.1c0,3.3,0.6,7.1,2.8,7.1S450.2,850.4,450.2,847.2z"/>
		</g>
	</g>
	<g>
		<g class="st0">
			<path class="st1" d="M575.2,842.3c0-1-0.5-2.2-1.8-2.2c-1.7,0-3.2,2.2-4.2,4H569l-0.7-3.7c1.5-0.6,3.2-1.3,5.1-1.3
				c2.8,0,5.2,1.3,5.2,3.9c0,2.2-1.8,4.2-3.8,5.9c-1.4,1.4-3.5,3.1-4.2,3.7h3.5c1.7,0,3.2-0.4,4.4-1.4h0.1l-0.6,3.9h-10.3
				C572,849.5,575.2,845.4,575.2,842.3z"/>
			<path class="st1" d="M579.8,847.2c0-4.8,2.9-8,6.6-8c3.7,0,6.6,3.3,6.6,8c0,4.9-2.9,8.1-6.6,8.1S579.8,852.1,579.8,847.2z
				 M589.2,847.2c0-3.2-0.6-7-2.8-7c-2.3,0-2.8,3.9-2.8,7.1c0,3.3,0.6,7.1,2.8,7.1C588.7,854.4,589.2,850.4,589.2,847.2z"/>
			<path class="st1" d="M599.9,838.8v12.9c0,1.5,0.5,3.1,0.6,3.3v0.1H596V855c0.1-0.3,0.6-1.9,0.6-3.3v-9.6H594v-0.6
				C596.2,841,598.2,840.1,599.9,838.8z"/>
			<path class="st1" d="M601.9,847.2c0-4.8,2.9-8,6.6-8c3.7,0,6.6,3.3,6.6,8c0,4.9-2.9,8.1-6.6,8.1
				C604.8,855.3,601.9,852.1,601.9,847.2z M611.3,847.2c0-3.2-0.6-7-2.8-7c-2.3,0-2.8,3.9-2.8,7.1c0,3.3,0.6,7.1,2.8,7.1
				S611.3,850.4,611.3,847.2z"/>
		</g>
	</g>
	<g>
		<g class="st0">
			<path class="st1" d="M737.8,842.3c0-1-0.5-2.2-1.8-2.2c-1.7,0-3.2,2.2-4.2,4h-0.1l-0.7-3.7c1.5-0.6,3.2-1.3,5.1-1.3
				c2.8,0,5.2,1.3,5.2,3.9c0,2.2-1.8,4.2-3.8,5.9c-1.4,1.4-3.5,3.1-4.2,3.7h3.5c1.7,0,3.2-0.4,4.4-1.4h0.1l-0.6,3.9h-10.3
				C734.6,849.5,737.8,845.4,737.8,842.3z"/>
			<path class="st1" d="M742.4,847.2c0-4.8,2.9-8,6.6-8c3.7,0,6.6,3.3,6.6,8c0,4.9-2.9,8.1-6.6,8.1
				C745.3,855.3,742.4,852.1,742.4,847.2z M751.8,847.2c0-3.2-0.6-7-2.8-7c-2.3,0-2.8,3.9-2.8,7.1c0,3.3,0.6,7.1,2.8,7.1
				C751.2,854.4,751.8,850.4,751.8,847.2z"/>
			<path class="st1" d="M763.7,842.3c0-1-0.5-2.2-1.8-2.2c-1.7,0-3.2,2.2-4.2,4h-0.1l-0.7-3.7c1.5-0.6,3.2-1.3,5.1-1.3
				c2.8,0,5.2,1.3,5.2,3.9c0,2.2-1.8,4.2-3.8,5.9c-1.4,1.4-3.5,3.1-4.2,3.7h3.5c1.7,0,3.2-0.4,4.4-1.4h0.1l-0.6,3.9h-10.3
				C760.4,849.5,763.7,845.4,763.7,842.3z"/>
			<path class="st1" d="M768.3,847.2c0-4.8,2.9-8,6.6-8c3.7,0,6.6,3.3,6.6,8c0,4.9-2.9,8.1-6.6,8.1
				C771.1,855.3,768.3,852.1,768.3,847.2z M777.7,847.2c0-3.2-0.6-7-2.8-7c-2.3,0-2.8,3.9-2.8,7.1c0,3.3,0.6,7.1,2.8,7.1
				S777.7,850.4,777.7,847.2z"/>
		</g>
	</g>
	<g>
		<path class="st1" d="M16,795.8h9.9v1H16V795.8z"/>
		<path class="st1" d="M32.8,787.2v12.9c0,1.5,0.5,3.1,0.6,3.3v0.1H29v-0.1c0.1-0.3,0.6-1.9,0.6-3.3v-9.6H27V790
			C29.1,789.4,31.1,788.5,32.8,787.2z"/>
		<path class="st1" d="M35.2,801.9c0-1,0.8-1.9,1.9-1.9s1.9,0.8,1.9,1.9s-0.9,1.9-1.9,1.9S35.2,803,35.2,801.9z"/>
		<path class="st1" d="M40.2,795.6c0-4.8,2.9-8,6.6-8c3.7,0,6.6,3.3,6.6,8c0,4.9-2.9,8.1-6.6,8.1C43,803.7,40.2,800.5,40.2,795.6z
			 M49.6,795.6c0-3.2-0.6-7-2.8-7c-2.3,0-2.8,3.9-2.8,7.1c0,3.3,0.6,7.1,2.8,7.1S49.6,798.9,49.6,795.6z"/>
		<path class="st1" d="M54.7,790.7c0-1.7,1.3-3.2,3.2-3.2s3.2,1.5,3.2,3.2s-1.4,3.2-3.2,3.2S54.7,792.4,54.7,790.7z M59.8,790.7
			c0-1-0.8-1.9-1.9-1.9c-1.1,0-1.8,0.9-1.8,1.9s0.7,1.9,1.8,1.9C59,792.6,59.8,791.7,59.8,790.7z"/>
	</g>
	<g>
		<path class="st1" d="M11.4,686.3h9.9v1h-9.9V686.3z"/>
		<path class="st1" d="M23.3,686.1c0-4.8,2.9-8,6.6-8s6.6,3.3,6.6,8c0,4.9-2.9,8.1-6.6,8.1C26.2,694.2,23.3,690.9,23.3,686.1z
			 M32.7,686c0-3.2-0.6-7-2.8-7c-2.3,0-2.8,3.9-2.8,7.1c0,3.3,0.6,7.1,2.8,7.1S32.7,689.3,32.7,686z"/>
		<path class="st1" d="M37.3,692.4c0-1,0.8-1.9,1.9-1.9s1.9,0.8,1.9,1.9s-0.9,1.9-1.9,1.9S37.3,693.4,37.3,692.4z"/>
		<path class="st1" d="M42.7,693.1l0.3-3.7h0.1c1.2,2.3,2.7,4,4.2,4c1.4,0,2.4-1.3,2.4-3.7c0-2.3-1-4-3.2-4c-0.8,0-2,0.2-3.5,0.9
			l0.8-8.4h0.1h5.2c1.7,0,3.5-0.4,4-0.7l-0.7,3.5h-7.8l-0.4,4.2c1.3-0.8,2.7-1.1,4-1.1c3.5,0,5.2,2.4,5.2,5.1c0,3.2-2.5,5.1-6,5.1
			C45.4,694.3,43.9,693.7,42.7,693.1z"/>
		<path class="st1" d="M54.7,681.1c0-1.7,1.3-3.2,3.2-3.2s3.2,1.5,3.2,3.2s-1.4,3.2-3.2,3.2S54.7,682.8,54.7,681.1z M59.8,681.1
			c0-1-0.8-1.9-1.9-1.9s-1.8,0.9-1.8,1.9s0.7,1.9,1.8,1.9S59.8,682.1,59.8,681.1z"/>
	</g>
	<g>
		<path class="st1" d="M21.2,576.8c0-4.8,2.9-8,6.6-8s6.6,3.3,6.6,8c0,4.9-2.9,8.1-6.6,8.1C24.1,584.9,21.2,581.7,21.2,576.8z
			 M30.6,576.8c0-3.2-0.6-7-2.8-7c-2.3,0-2.8,3.9-2.8,7.1c0,3.3,0.6,7.1,2.8,7.1S30.6,580,30.6,576.8z"/>
		<path class="st1" d="M35.2,583.1c0-1,0.8-1.9,1.9-1.9s1.9,0.8,1.9,1.9s-0.9,1.9-1.9,1.9S35.2,584.1,35.2,583.1z"/>
		<path class="st1" d="M40.2,576.8c0-4.8,2.9-8,6.6-8c3.7,0,6.6,3.3,6.6,8c0,4.9-2.9,8.1-6.6,8.1C43,584.9,40.2,581.7,40.2,576.8z
			 M49.6,576.8c0-3.2-0.6-7-2.8-7c-2.3,0-2.8,3.9-2.8,7.1c0,3.3,0.6,7.1,2.8,7.1S49.6,580,49.6,576.8z"/>
		<path class="st1" d="M54.7,571.8c0-1.7,1.3-3.2,3.2-3.2s3.2,1.5,3.2,3.2s-1.4,3.2-3.2,3.2S54.7,573.5,54.7,571.8z M59.8,571.8
			c0-1-0.8-1.9-1.9-1.9c-1.1,0-1.8,0.9-1.8,1.9s0.7,1.9,1.8,1.9C59,573.8,59.8,572.8,59.8,571.8z"/>
	</g>
	<g>
		<path class="st1" d="M23.3,467.3c0-4.8,2.9-8,6.6-8s6.6,3.3,6.6,8c0,4.9-2.9,8.1-6.6,8.1S23.3,472.2,23.3,467.3z M32.7,467.2
			c0-3.2-0.6-7-2.8-7c-2.3,0-2.8,3.9-2.8,7.1c0,3.3,0.6,7.1,2.8,7.1S32.7,470.5,32.7,467.2z"/>
		<path class="st1" d="M37.3,473.6c0-1,0.8-1.9,1.9-1.9s1.9,0.8,1.9,1.9s-0.9,1.9-1.9,1.9S37.3,474.6,37.3,473.6z"/>
		<path class="st1" d="M42.7,474.3l0.3-3.7h0.1c1.2,2.3,2.7,4,4.2,4c1.4,0,2.4-1.3,2.4-3.7c0-2.3-1-4-3.2-4c-0.8,0-2,0.2-3.5,0.9
			l0.8-8.4h0.1h5.2c1.7,0,3.5-0.4,4-0.7l-0.7,3.5h-7.8l-0.4,4.2c1.3-0.8,2.7-1.1,4-1.1c3.5,0,5.2,2.4,5.2,5.1c0,3.2-2.5,5.1-6,5.1
			C45.4,475.5,43.9,474.9,42.7,474.3z"/>
		<path class="st1" d="M54.7,462.3c0-1.7,1.3-3.2,3.2-3.2c1.8,0,3.2,1.5,3.2,3.2s-1.4,3.2-3.2,3.2C56.1,465.5,54.7,464,54.7,462.3z
			 M59.8,462.3c0-1-0.8-1.9-1.9-1.9c-1.1,0-1.8,0.9-1.8,1.9s0.7,1.9,1.8,1.9C59,464.3,59.8,463.3,59.8,462.3z"/>
	</g>
	<g>
		<path class="st1" d="M32.8,349.4v12.9c0,1.5,0.5,3.1,0.6,3.3v0.1H29v-0.1c0.1-0.3,0.6-1.9,0.6-3.3v-9.6H27v-0.6
			C29.1,351.5,31.1,350.7,32.8,349.4z"/>
		<path class="st1" d="M35.2,364.1c0-1,0.8-1.9,1.9-1.9s1.9,0.8,1.9,1.9s-0.9,1.9-1.9,1.9S35.2,365.1,35.2,364.1z"/>
		<path class="st1" d="M40.2,357.8c0-4.8,2.9-8,6.6-8c3.7,0,6.6,3.3,6.6,8c0,4.9-2.9,8.1-6.6,8.1C43,365.9,40.2,362.7,40.2,357.8z
			 M49.6,357.8c0-3.2-0.6-7-2.8-7c-2.3,0-2.8,3.9-2.8,7.1c0,3.3,0.6,7.1,2.8,7.1C49,364.9,49.6,361,49.6,357.8z"/>
		<path class="st1" d="M54.7,352.8c0-1.7,1.3-3.2,3.2-3.2c1.8,0,3.2,1.5,3.2,3.2s-1.4,3.2-3.2,3.2C56.1,356,54.7,354.5,54.7,352.8z
			 M59.8,352.8c0-1-0.8-1.9-1.9-1.9c-1.1,0-1.8,0.9-1.8,1.9s0.7,1.9,1.8,1.9C59,354.8,59.8,353.8,59.8,352.8z"/>
	</g>
	<g>
		<path class="st1" d="M34.9,239.9v12.9c0,1.5,0.5,3.1,0.6,3.3v0.1H31v-0.1c0.1-0.3,0.6-1.9,0.6-3.3v-9.6H29v-0.6
			C31.2,242,33.2,241.2,34.9,239.9z"/>
		<path class="st1" d="M37.3,254.6c0-1,0.8-1.9,1.9-1.9s1.9,0.8,1.9,1.9s-0.9,1.9-1.9,1.9S37.3,255.6,37.3,254.6z"/>
		<path class="st1" d="M42.7,255.3l0.3-3.7h0.1c1.2,2.3,2.7,4,4.2,4c1.4,0,2.4-1.3,2.4-3.7c0-2.3-1-4-3.2-4c-0.8,0-2,0.2-3.5,0.9
			l0.8-8.4h0.1h5.2c1.7,0,3.5-0.4,4-0.7l-0.7,3.5h-7.8l-0.4,4.2c1.3-0.8,2.7-1.1,4-1.1c3.5,0,5.2,2.4,5.2,5.1c0,3.2-2.5,5.1-6,5.1
			C45.4,256.5,43.9,256,42.7,255.3z"/>
		<path class="st1" d="M54.7,243.3c0-1.7,1.3-3.2,3.2-3.2s3.2,1.5,3.2,3.2s-1.4,3.2-3.2,3.2S54.7,245,54.7,243.3z M59.8,243.3
			c0-1-0.8-1.9-1.9-1.9c-1.1,0-1.8,0.9-1.8,1.9s0.7,1.9,1.8,1.9C59,245.3,59.8,244.3,59.8,243.3z"/>
	</g>
	<g>
		<path class="st1" d="M30.1,133.9c0-1-0.5-2.2-1.8-2.2c-1.7,0-3.2,2.2-4.2,4H24l-0.7-3.7c1.5-0.6,3.2-1.3,5.1-1.3
			c2.8,0,5.2,1.3,5.2,3.9c0,2.2-1.8,4.2-3.8,5.9c-1.4,1.4-3.5,3.1-4.2,3.7h3.5c1.7,0,3.2-0.4,4.4-1.4h0.1l-0.6,3.9H22.7
			C26.9,141.1,30.1,137,30.1,133.9z"/>
		<path class="st1" d="M35.2,145.1c0-1,0.8-1.9,1.9-1.9s1.9,0.8,1.9,1.9s-0.9,1.9-1.9,1.9S35.2,146.1,35.2,145.1z"/>
		<path class="st1" d="M40.2,138.8c0-4.8,2.9-8,6.6-8c3.7,0,6.6,3.3,6.6,8c0,4.9-2.9,8.1-6.6,8.1C43,146.9,40.2,143.7,40.2,138.8z
			 M49.6,138.8c0-3.2-0.6-7-2.8-7c-2.3,0-2.8,3.9-2.8,7.1c0,3.3,0.6,7.1,2.8,7.1C49,145.9,49.6,142,49.6,138.8z"/>
		<path class="st1" d="M54.7,133.8c0-1.7,1.3-3.2,3.2-3.2s3.2,1.5,3.2,3.2s-1.4,3.2-3.2,3.2S54.7,135.5,54.7,133.8z M59.8,133.8
			c0-1-0.8-1.9-1.9-1.9c-1.1,0-1.8,0.9-1.8,1.9s0.7,1.9,1.8,1.9C59,135.8,59.8,134.8,59.8,133.8z"/>
	</g>
	<g>
		<path class="st1" d="M30.1,24.4c0-1-0.5-2.2-1.8-2.2c-1.7,0-3.2,2.2-4.2,4H24l-0.7-3.7c1.5-0.6,3.2-1.3,5.1-1.3
			c2.8,0,5.2,1.3,5.2,3.9c0,2.2-1.8,4.2-3.8,5.9c-1.4,1.4-3.5,3.1-4.2,3.7h3.5c1.7,0,3.2-0.4,4.4-1.4h0.1L33,37.2H22.7
			C26.9,31.6,30.1,27.5,30.1,24.4z"/>
		<path class="st1" d="M35.2,35.6c0-1,0.8-1.9,1.9-1.9s1.9,0.8,1.9,1.9s-0.9,1.9-1.9,1.9S35.2,36.6,35.2,35.6z"/>
		<path class="st1" d="M40.6,36.3l0.3-3.7H41c1.2,2.3,2.7,4,4.2,4c1.4,0,2.4-1.3,2.4-3.7c0-2.3-1-4-3.2-4c-0.8,0-2,0.2-3.5,0.9
			l0.8-8.4h0.1H47c1.7,0,3.5-0.4,4-0.7l-0.7,3.5h-7.8l-0.4,4.2c1.3-0.8,2.7-1.1,4-1.1c3.5,0,5.2,2.4,5.2,5.1c0,3.2-2.5,5.1-6,5.1
			C43.3,37.5,41.8,37,40.6,36.3z"/>
		<path class="st1" d="M52.7,24.3c0-1.7,1.3-3.2,3.2-3.2s3.2,1.5,3.2,3.2s-1.4,3.2-3.2,3.2S52.7,26,52.7,24.3z M57.7,24.3
			c0-1-0.8-1.9-1.9-1.9c-1.1,0-1.8,0.9-1.8,1.9s0.7,1.9,1.8,1.9C56.9,26.3,57.7,25.3,57.7,24.3z"/>
	</g>
	<g class="st2">
		<rect x="84.5" y="797.4" class="st1" width="711.3" height="0.5"/>
	</g>
	<g class="st2">
		<g>
			<rect x="795.5" y="797.4" class="st1" width="3" height="0.5"/>
		</g>
		<g>
			<path class="st1" d="M819,797.9h-5.1v-0.5h5.1V797.9z M808.8,797.9h-5.1v-0.5h5.1V797.9z"/>
		</g>
		<g>
			<rect x="824.2" y="797.4" class="st1" width="3" height="0.5"/>
		</g>
	</g>
	<g class="st2">
		<rect x="84.5" y="250" class="st1" width="718.2" height="0.5"/>
	</g>
	<g class="st2">
		<rect x="88.5" y="140.5" class="st1" width="714.2" height="0.5"/>
	</g>
	<g class="st2">
		<rect x="88.5" y="31" class="st1" width="714.2" height="0.5"/>
	</g>
	<g class="st2">
		<rect x="84.5" y="359.5" class="st1" width="718.2" height="0.5"/>
	</g>
	<g class="st2">
		<rect x="84.5" y="469" class="st1" width="718.2" height="0.5"/>
	</g>
	<g class="st2">
		<rect x="88.3" y="578.5" class="st1" width="718.2" height="0.5"/>
	</g>
	<g class="st2">
		<rect x="84.5" y="687.8" class="st1" width="718.2" height="0.5"/>
	</g>
	<g class="st2">
		<rect x="262.4" y="7.9" class="st1" width="0.5" height="812.8"/>
	</g>
	<g class="st2">
		<rect x="426.8" y="7.9" class="st1" width="0.5" height="812.8"/>
	</g>
	<g class="st2">
		<rect x="591.2" y="7.9" class="st1" width="0.5" height="812.8"/>
	</g>
	<g class="st2">
		<rect x="755.7" y="7.9" class="st1" width="0.5" height="812.8"/>
	</g>
	<g class="st2">
		<rect x="130.8" y="7.9" class="st1" width="0.5" height="812.8"/>
	</g>
	<g transform="translate(657.7777777777777,0)">
		<g class="st0">
			<path class="st1" d="M-73,151.5h5.9c6.9,0,7.7-0.1,8.3-0.9c0.6-0.6,0.7-1.3,0.7-8.3V136h3.6v6.4c0,7.1,0.1,7.7,0.7,8.3
				c0.7,0.7,1.4,0.8,8.3,0.8h6.9v3.3h-6.9c-6.9,0-7.7,0.1-8.3,0.9c-0.6,0.6-0.7,1.3-0.7,8.3v6.4h-3.6V164c0-7.1-0.1-7.7-0.7-8.3
				c-0.7-0.7-1.4-0.9-8.3-0.9H-73V151.5z"/>
			<path class="st1" d="M-14.9,123.7v42c0,4.8,1.6,9.9,1.8,10.9v0.3h-14.4v-0.3c0.2-0.9,1.8-6.1,1.8-10.9v-31.1h-8.6v-1.8
				C-26.9,130.7-20.4,128-14.9,123.7z"/>
			<path class="st1" d="M-7,171.4c0-3.3,2.7-6.1,6.1-6.1c3.3,0,6.1,2.7,6.1,6.1c0,3.3-2.8,6.1-6.1,6.1C-4.3,177.5-7,174.8-7,171.4z"
				/>
			<path class="st1" d="M9.8,164.6c0-6.4,5.8-10.4,11.3-11.8c-6.1-3.1-10.3-7.5-10.3-13.6c0-7.8,7.1-14.5,18.6-14.5
				c8.9,0,17.4,4,17.4,11.9c0,6-4.9,9.8-9.8,11.4c9,4.4,12.1,9.1,12.1,14.6c0,9.9-9.7,15.1-19.6,15.1C20,177.7,9.8,173,9.8,164.6z
				 M29.3,174.7c5.7,0,9.6-3.7,9.6-8.3c0-5.1-5.9-8.7-13.6-11.6c-0.4-0.1-0.7-0.3-1.1-0.5c-3.6,2.3-5.6,5.8-5.6,9.4
				C18.7,169.3,22.6,174.7,29.3,174.7z M33.8,146.5c2.7-1.8,4.8-4.7,4.8-8.7c0-5.5-3.3-10.1-9.3-10.1c-4.8,0-8.8,2.8-8.8,7.7
				C20.3,141,26.2,143.5,33.8,146.5z"/>
			<path class="st1" d="M53.1,151c0-15.1,7.6-26.3,20.5-26.3c6.4,0,11.5,1.6,16.3,3.7l-1.8,11.9l-0.4,0.1
				c-4.2-6.8-9.4-12.6-14.2-12.6c-6.6,0-8.6,9.6-8.4,22.9c2.8-3.7,7.4-5.6,12.3-5.6c9.5,0,15.4,7.1,15.4,15.5
				c0,10.3-8.8,17.3-19.3,17.3C61.3,177.7,53.1,166.2,53.1,151z M81.5,162.9c0-6.6-2.8-13.7-8.8-13.6c-2.3,0-5.2,1.1-7.4,4.2
				c0.5,11.4,2.5,21.2,8.3,21.2C78.3,174.8,81.5,169.8,81.5,162.9z"/>
			<path class="st1" d="M97.4,134.9c0-5.5,4.4-10.3,10.4-10.3s10.5,4.8,10.5,10.3c0,5.5-4.5,10.4-10.5,10.4S97.4,140.4,97.4,134.9z
				 M113.8,134.9c0-3.2-2.5-6.1-6.1-6.1s-5.9,2.9-5.9,6.1c0,3.2,2.3,6.2,5.9,6.2C111.2,141.1,113.8,138.1,113.8,134.9z"/>
		</g>
	</g>
	<g id="viz_00000052783201796861972460000003383106665390589834_">
		<g>
			<g>
				<path class="st1" d="M164.1,771.5c-5.8,0-7.6-11.4-10.7-41.7c-1.4-13.7-3.6-34.2-6.2-37.2c-5.1-0.5-6.8-10.6-10.3-58.2
					c-1.6-21.4-3.7-50.7-6.7-53.9c0.1,0.1,0.4,0.3,0.9,0.3v-5c5.4,0,7.1,9.2,10.7,58.2c1.5,20.9,3.6,49.4,6.5,53.6
					c5.2,0.9,7,12.7,10,41.6c1.3,12.1,3.1,29.6,5.3,35.5c2.7-10.5,4.7-51.7,6.2-82.5c3.8-80.7,5.5-88.9,10.7-88.9
					c2.2,0,4.5-7.8,5.8-12.4c2.3-7.9,4.6-16,10.6-16s7.9,10.3,10.7,28.4c1.2,8,3.3,20.9,5.5,23.8c2.6-4.7,4.6-27.1,6-42.2
					c3.4-37.1,5.1-47.2,10.7-47.2c5.7,0,7.6,10.1,10.7,35.1c1.2,9.7,3.1,25.1,5.4,29.7c2.7-7.7,4.6-39.6,6.1-63.5
					c3.6-58.8,5.2-69.2,10.7-69.2c5.3,0,6.9,8.2,10.7,88.9c1.5,31.1,3.5,72.8,6.2,82.8c2.2-5.1,4.1-20.6,5.2-30.4
					c3.2-26.2,4.9-36.2,10.7-36.2c2.4,0,4.2-4.2,5.9-8.3c2.2-5.2,4.7-11.2,10.2-11.4c2.5-2.5,4.7-20.8,6.1-31.8
					c3.2-26.2,4.9-36.2,10.7-36.2c5.5,0,7.1,9.9,10.7,65.9c1.5,23.8,3.6,56.1,6.5,61.2H361c2.6-3.1,4.8-23.5,6.2-37.2
					c3.2-30.3,4.9-41.7,10.7-41.7c6.1,0,8.2,9,10.7,19.5c1,4.5,3.4,14.6,5.5,15.5c2.5-2.8,4.6-20.8,6-32.8
					c3.2-27,4.9-37.3,10.7-37.3c5,0,7.6,2.1,9.8,3.8c1.9,1.5,3.4,2.7,6.7,2.7c0,0,1.1-0.3,2.5-4.5c1.2-3.5,2.3-8.5,3.3-13.2
					c2.4-11.6,4.5-21.7,10.7-21.7c5.6,0,7.3,10.1,10.7,47.2c1.2,13.7,3,33.3,5.3,40.4c2.8-12.9,4.6-61.6,6.2-101.6
					c3.8-99.3,5.4-108.7,10.7-108.7c5.3,0,6.9,8.3,10.7,90C488.9,458,491,503,494,510c2.1-0.3,3.4-1.9,5.3-4.4
					c2.2-2.9,4.9-6.5,10.2-6.5c2.4,0,4.2-4.2,5.9-8.3c2.2-5.3,4.8-11.4,10.5-11.4c2.2,0,4.5-8.8,5.8-13.5
					c2.4-8.8,4.6-17.2,10.6-17.2c5.2,0,7.9,2.9,10,5.2c2,2.1,3.4,3.6,6.4,3.6c2.4,0,3.9-2.4,6-6.4s4.8-9,10.4-9
					c5.8,0,7.5,11.1,10.7,42.8c1.3,13.2,3.3,32.5,5.7,37.5c2.4-5.2,4.4-25.7,5.8-39.7c3.2-33.3,4.9-45,10.7-45
					c2.2,0,4.5-7.8,5.8-12.4c2.3-7.9,4.6-16,10.6-16c5.7,0,8.2,5.4,10.5,10.2c2.1,4.4,3.6,7.3,6,7.3c2.2-0.9,4.5-13.2,5.8-19.9
					c2.5-13.2,4.4-23.6,10.4-23.9c2.5-2.3,4.7-19.3,6-29.6c2.9-22.3,4.7-34,10.7-34c5.8,0,7.6,11.4,10.7,41.7
					c1.4,13.4,3.5,33.4,6,37c2.1-1.7,4.4-13,5.5-18.6c2.5-12.8,4.5-22.8,10.7-22.8c2.4,0,4.2-4.2,5.9-8.3
					c2.2-5.3,4.8-11.4,10.5-11.4c6.1,0,8.2,10.1,10.7,21.7c1,4.8,2,9.7,3.3,13.2c1.4,4.1,2.5,4.5,2.5,4.5c2.4,0,4.2-5,5.9-9.3
					c2.2-5.9,4.7-12.6,10.6-12.6c5.8,0,8.3,6.1,10.5,11.4c1.5,3.5,3,7.1,4.9,8.1c3-8.4,5.1-59.2,6.7-100.3c1-25.3,2.1-51.5,3.3-70.9
					c0.7-10.5,1.4-18.2,2.2-23.5c1-7.3,2.1-11,5.2-11v5c0.7,0,1.2-0.4,1.4-0.6c-3.3,4.8-5.4,58.3-7.1,101.2
					c-1,25.3-2.1,51.5-3.3,70.9c-0.7,10.5-1.4,18.2-2.2,23.5c-1,7.3-2.1,11-5.2,11c-5.8,0-8.3-6.1-10.5-11.4
					c-1.7-4.1-3.5-8.3-5.9-8.3s-4.2,5-5.9,9.3c-2.2,5.9-4.7,12.6-10.6,12.6c-6.1,0-8.2-10.1-10.7-21.7c-1-4.8-2-9.7-3.3-13.2
					c-1.4-4.1-2.5-4.5-2.5-4.5c-2.4,0-4.2,4.2-5.9,8.3c-2.2,5.3-4.8,11.4-10.5,11.4c-2.2,0.7-4.6,12.9-5.8,18.8
					c-2.5,12.8-4.5,22.8-10.7,22.8c-5.8,0-7.6-11.4-10.7-41.7c-1.4-13.1-3.4-32.4-5.8-36.7c-2.3,3.6-4.4,19.4-5.6,29.1
					c-2.9,22.3-4.7,34-10.7,34c-2.2,0.9-4.5,13.2-5.8,19.9c-2.5,13.4-4.5,24-10.7,24c-5.7,0-8.2-5.4-10.5-10.2
					c-2.1-4.4-3.6-7.3-6-7.3c-2.2,0-4.5,7.8-5.8,12.4c-2.2,7.7-4.5,15.6-10.1,16c-2.7,3.3-4.8,25.6-6.2,40.5
					c-3.2,33.3-4.9,45-10.7,45s-7.5-11.1-10.7-42.8c-1.4-14-3.6-35-6.2-38.3c-2.2,0.3-3.6,2.6-5.6,6.3c-2.1,4-4.8,9-10.4,9
					c-5.2,0-7.9-2.9-10-5.2c-2-2.1-3.4-3.6-6.4-3.6c-2.2,0-4.5,8.8-5.8,13.5c-2.4,8.8-4.6,17.2-10.6,17.2c-2.4,0-4.2,4.2-5.9,8.3
					c-2.2,5.3-4.8,11.4-10.5,11.4c-2.7,0-4.1,1.6-6.2,4.5c-2.2,2.9-4.9,6.5-10.2,6.5c-5.3,0-6.9-8.3-10.7-90
					c-1.4-29.2-3.2-67.5-5.6-81.1c-2.6,15.2-4.4,61.5-5.8,99.7c-3.8,99.3-5.4,108.7-10.7,108.7c-5.6,0-7.3-10.1-10.7-47.2
					c-1.4-15.3-3.5-38.1-6.1-42.4c-0.4,0.4-1.2,1.5-2.2,4.2c-1.2,3.5-2.3,8.5-3.3,13.2c-2.4,11.6-4.5,21.7-10.7,21.7
					c-5,0-7.6-2.1-9.8-3.8c-1.8-1.5-3.3-2.7-6.3-2.7c-2.5,2.6-4.7,20.8-6.1,32.8c-3.2,27-4.9,37.3-10.7,37.3c-6.1,0-8.2-9-10.7-19.5
					c-1-4.4-3.4-14.4-5.4-15.5c-2.6,3.4-4.7,23.6-6.1,37.1c-3.2,30.3-4.9,41.7-10.7,41.7H345c-5.5,0-7.1-9.9-10.7-65.9
					c-1.5-22.6-3.4-52.8-6.1-60.2c-2.3,4.7-4.2,20.7-5.4,30.8c-3.2,26.2-4.9,36.2-10.7,36.2c-2.4,0-4.2,4.2-5.9,8.3
					c-2.2,5.2-4.7,11.2-10.2,11.4c-2.5,2.5-4.7,20.8-6.1,31.8C286.7,628,285,638,279.2,638c-5.3,0-6.9-8.2-10.7-88.9
					c-1.4-29.8-3.3-69.2-5.9-81.3c-2.4,10-4.2,39.4-5.6,61.6c-3.6,58.8-5.2,69.2-10.7,69.2c-5.7,0-7.6-10.1-10.7-35.1
					c-1.2-10-3.3-26.1-5.6-30.1c-2.5,5.1-4.5,27.1-5.9,42c-3.4,37.1-5.1,47.2-10.7,47.2c-6,0-7.9-10.3-10.7-28.4
					c-1.3-8.4-3.5-22.5-5.9-24.2c-2.2,0.3-4.4,7.9-5.7,12.4c-2.1,7.4-4.4,15.1-9.6,16c-3,6.4-5.2,51.2-6.7,84.2
					C170.9,763.3,169.3,771.5,164.1,771.5z"/>
			</g>
		</g>
	</g>
	<g>
		<circle class="st3" cx="789.1" cy="170.8" r="12.2"/>
	</g>
	<g>
		<rect x="787.2" y="170.8" class="st3" width="3.9" height="627.4"/>
	</g>
</g>
</svg>
