<?xml version="1.0" encoding="utf-8"?>
<!-- Generator: Adobe Illustrator 26.0.1, SVG Export Plug-In . SVG Version: 6.00 Build 0)  -->
<svg version="1.1" xmlns="http://www.w3.org/2000/svg" xmlns:xlink="http://www.w3.org/1999/xlink" x="0px" y="0px"
	 viewBox="0 0 825.3 855.7" style="enable-background:new 0 0 825.3 855.7;" xml:space="preserve">
<style type="text/css">
	.st0{enable-background:new    ;}
	.st1{fill:#FFFFFF;}
	.st2{opacity:0.5;}
	.st3{fill:#1D1D1B;}
	.st4{fill:#F60000;}
	.st5{fill:#1D1D1B;stroke:#FFFFFF;stroke-width:0.25;}
	.st6{fill:#090A0A;}
	.st7{opacity:0.2;}
	.st8{fill:#FA0000;}
	.st9{fill:none;stroke:url(#SVGID_1_);stroke-width:6;}
	.st10{fill:none;stroke:url(#SVGID_00000111887155084934086760000005321229133702555784_);stroke-width:6;}
	.st11{fill:none;stroke:url(#SVGID_00000179622539179957803610000002214629844512405914_);stroke-width:6;}
	.st12{fill:none;stroke:url(#SVGID_00000124870400252269934240000016956653753031096722_);stroke-width:6;}
	.st13{fill:none;stroke:url(#SVGID_00000031925694551500679150000016432532642881597887_);stroke-width:6;}
</style>
<g id="Livello_2">
</g>
<g id="Livello_1">
	<g class="st0">
		<path class="st1" d="M114.1,839.1V852c0,1.5,0.5,3.1,0.6,3.3v0.1h-4.4v-0.1c0.1-0.3,0.6-1.9,0.6-3.3v-9.6h-2.6v-0.6
			C110.4,841.2,112.5,840.4,114.1,839.1z"/>
		<path class="st1" d="M128.4,847.6c0,4.6-2.3,8.1-6.3,8.1c-2,0-3.5-0.5-5-1.1l0.6-3.7l0.1,0c1.3,2.1,2.9,3.9,4.4,3.9
			c2.1,0,2.6-2.9,2.6-7.1c-0.9,1.1-2.3,1.7-3.8,1.7c-2.9,0-4.8-2.2-4.8-4.8c0-3.2,2.7-5.3,5.9-5.3
			C125.9,839.4,128.4,842.9,128.4,847.6z M119.7,843.9c0,2,0.9,4.2,2.7,4.2c0.7,0,1.6-0.3,2.3-1.3c-0.2-3.5-0.8-6.5-2.6-6.5
			C120.7,840.3,119.7,841.8,119.7,843.9z"/>
		<path class="st1" d="M129.7,851.7c0-2,1.8-3.2,3.5-3.6c-1.9-0.9-3.2-2.3-3.2-4.2c0-2.4,2.2-4.5,5.7-4.5c2.8,0,5.4,1.2,5.4,3.7
			c0,1.8-1.5,3-3,3.5c2.8,1.3,3.7,2.8,3.7,4.5c0,3-3,4.6-6.1,4.6C132.8,855.7,129.7,854.3,129.7,851.7z M135.7,854.8
			c1.8,0,3-1.1,3-2.6c0-1.6-1.8-2.7-4.2-3.6c-0.1,0-0.2-0.1-0.3-0.1c-1.1,0.7-1.7,1.8-1.7,2.9C132.4,853.1,133.6,854.8,135.7,854.8z
			 M137,846.1c0.8-0.6,1.5-1.5,1.5-2.7c0-1.7-1-3.1-2.9-3.1c-1.5,0-2.7,0.9-2.7,2.4C132.9,844.4,134.7,845.2,137,846.1z"/>
		<path class="st1" d="M150.1,842.6c0-1-0.5-2.2-1.8-2.2c-1.7,0-3.2,2.2-4.2,4h-0.1l-0.7-3.7c1.5-0.6,3.2-1.3,5.1-1.3
			c2.8,0,5.2,1.3,5.2,3.9c0,2.2-1.8,4.2-3.8,5.9c-1.4,1.4-3.5,3.1-4.2,3.7h3.5c1.7,0,3.2-0.4,4.4-1.4l0.1,0l-0.6,3.9h-10.3
			C146.8,849.8,150.1,845.7,150.1,842.6z"/>
	</g>
	<g transform="translate(164.44444444444443,0)">
		<g class="st0">
			<path class="st1" d="M80,838.8v12.9c0,1.5,0.5,3.1,0.6,3.3v0.1h-4.4v-0.1c0.1-0.3,0.6-1.9,0.6-3.3v-9.6H74v-0.6
				C76.3,841,78.3,840.1,80,838.8z"/>
			<path class="st1" d="M94.3,847.3c0,4.6-2.3,8.1-6.3,8.1c-2,0-3.5-0.5-5-1.1l0.6-3.7l0.1,0c1.3,2.1,2.9,3.9,4.4,3.9
				c2.1,0,2.6-2.9,2.6-7.1c-0.9,1.1-2.3,1.7-3.8,1.7c-2.9,0-4.8-2.2-4.8-4.8c0-3.2,2.7-5.3,5.9-5.3
				C91.7,839.1,94.3,842.7,94.3,847.3z M85.5,843.7c0,2,0.9,4.2,2.7,4.2c0.7,0,1.6-0.3,2.3-1.3c-0.2-3.5-0.8-6.5-2.6-6.5
				C86.5,840,85.5,841.6,85.5,843.7z"/>
			<path class="st1" d="M107.6,847.3c0,4.6-2.3,8.1-6.3,8.1c-2,0-3.5-0.5-5-1.1l0.6-3.7l0.1,0c1.3,2.1,2.9,3.9,4.4,3.9
				c2.1,0,2.6-2.9,2.6-7.1c-0.9,1.1-2.3,1.7-3.8,1.7c-2.9,0-4.8-2.2-4.8-4.8c0-3.2,2.7-5.3,5.9-5.3
				C105.1,839.1,107.6,842.7,107.6,847.3z M98.8,843.7c0,2,0.9,4.2,2.7,4.2c0.7,0,1.6-0.3,2.3-1.3c-0.2-3.5-0.8-6.5-2.6-6.5
				C99.8,840,98.8,841.6,98.8,843.7z"/>
			<path class="st1" d="M108.9,847.2c0-4.8,2.9-8,6.6-8c3.7,0,6.6,3.3,6.6,8c0,4.9-2.9,8.1-6.6,8.1
				C111.7,855.3,108.9,852.1,108.9,847.2z M118.3,847.2c0-3.2-0.6-7-2.8-7c-2.3,0-2.8,3.9-2.8,7.1c0,3.3,0.6,7.1,2.8,7.1
				C117.7,854.4,118.3,850.4,118.3,847.2z"/>
		</g>
	</g>
	<g>
		<g class="st0">
			<path class="st1" d="M407.5,842.3c0-1-0.5-2.2-1.8-2.2c-1.7,0-3.2,2.2-4.2,4h-0.1l-0.7-3.7c1.5-0.6,3.2-1.3,5.1-1.3
				c2.8,0,5.2,1.3,5.2,3.9c0,2.2-1.8,4.2-3.8,5.9c-1.4,1.4-3.5,3.1-4.2,3.7h3.5c1.7,0,3.2-0.4,4.4-1.4l0.1,0l-0.6,3.9H400
				C404.2,849.5,407.5,845.4,407.5,842.3z"/>
			<path class="st1" d="M412.1,847.2c0-4.8,2.9-8,6.6-8c3.7,0,6.6,3.3,6.6,8c0,4.9-2.9,8.1-6.6,8.1
				C414.9,855.3,412.1,852.1,412.1,847.2z M421.5,847.2c0-3.2-0.6-7-2.8-7c-2.3,0-2.8,3.9-2.8,7.1c0,3.3,0.6,7.1,2.8,7.1
				C420.9,854.4,421.5,850.4,421.5,847.2z"/>
			<path class="st1" d="M426.4,847.2c0-4.8,2.9-8,6.6-8c3.7,0,6.6,3.3,6.6,8c0,4.9-2.9,8.1-6.6,8.1
				C429.3,855.3,426.4,852.1,426.4,847.2z M435.8,847.2c0-3.2-0.6-7-2.8-7c-2.3,0-2.8,3.9-2.8,7.1c0,3.3,0.6,7.1,2.8,7.1
				C435.3,854.4,435.8,850.4,435.8,847.2z"/>
			<path class="st1" d="M440.8,847.2c0-4.8,2.9-8,6.6-8c3.7,0,6.6,3.3,6.6,8c0,4.9-2.9,8.1-6.6,8.1
				C443.7,855.3,440.8,852.1,440.8,847.2z M450.2,847.2c0-3.2-0.6-7-2.8-7c-2.3,0-2.8,3.9-2.8,7.1c0,3.3,0.6,7.1,2.8,7.1
				C449.7,854.4,450.2,850.4,450.2,847.2z"/>
		</g>
	</g>
	<g>
		<g class="st0">
			<path class="st1" d="M575.2,842.3c0-1-0.5-2.2-1.8-2.2c-1.7,0-3.2,2.2-4.2,4H569l-0.7-3.7c1.5-0.6,3.2-1.3,5.1-1.3
				c2.8,0,5.2,1.3,5.2,3.9c0,2.2-1.8,4.2-3.8,5.9c-1.4,1.4-3.5,3.1-4.2,3.7h3.5c1.7,0,3.2-0.4,4.4-1.4l0.1,0l-0.6,3.9h-10.3
				C572,849.5,575.2,845.4,575.2,842.3z"/>
			<path class="st1" d="M579.8,847.2c0-4.8,2.9-8,6.6-8c3.7,0,6.6,3.3,6.6,8c0,4.9-2.9,8.1-6.6,8.1
				C582.7,855.3,579.8,852.1,579.8,847.2z M589.2,847.2c0-3.2-0.6-7-2.8-7c-2.3,0-2.8,3.9-2.8,7.1c0,3.3,0.6,7.1,2.8,7.1
				C588.7,854.4,589.2,850.4,589.2,847.2z"/>
			<path class="st1" d="M599.9,838.8v12.9c0,1.5,0.5,3.1,0.6,3.3v0.1H596v-0.1c0.1-0.3,0.6-1.9,0.6-3.3v-9.6h-2.6v-0.6
				C596.2,841,598.2,840.1,599.9,838.8z"/>
			<path class="st1" d="M601.9,847.2c0-4.8,2.9-8,6.6-8c3.7,0,6.6,3.3,6.6,8c0,4.9-2.9,8.1-6.6,8.1
				C604.8,855.3,601.9,852.1,601.9,847.2z M611.3,847.2c0-3.2-0.6-7-2.8-7c-2.3,0-2.8,3.9-2.8,7.1c0,3.3,0.6,7.1,2.8,7.1
				C610.8,854.4,611.3,850.4,611.3,847.2z"/>
		</g>
	</g>
	<g>
		<g class="st0">
			<path class="st1" d="M737.8,842.3c0-1-0.5-2.2-1.8-2.2c-1.7,0-3.2,2.2-4.2,4h-0.1l-0.7-3.7c1.5-0.6,3.2-1.3,5.1-1.3
				c2.8,0,5.2,1.3,5.2,3.9c0,2.2-1.8,4.2-3.8,5.9c-1.4,1.4-3.5,3.1-4.2,3.7h3.5c1.7,0,3.2-0.4,4.4-1.4l0.1,0l-0.6,3.9h-10.3
				C734.6,849.5,737.8,845.4,737.8,842.3z"/>
			<path class="st1" d="M742.4,847.2c0-4.8,2.9-8,6.6-8c3.7,0,6.6,3.3,6.6,8c0,4.9-2.9,8.1-6.6,8.1
				C745.3,855.3,742.4,852.1,742.4,847.2z M751.8,847.2c0-3.2-0.6-7-2.8-7c-2.3,0-2.8,3.9-2.8,7.1c0,3.3,0.6,7.1,2.8,7.1
				C751.2,854.4,751.8,850.4,751.8,847.2z"/>
			<path class="st1" d="M763.7,842.3c0-1-0.5-2.2-1.8-2.2c-1.7,0-3.2,2.2-4.2,4h-0.1l-0.7-3.7c1.5-0.6,3.2-1.3,5.1-1.3
				c2.8,0,5.2,1.3,5.2,3.9c0,2.2-1.8,4.2-3.8,5.9c-1.4,1.4-3.5,3.1-4.2,3.7h3.5c1.7,0,3.2-0.4,4.4-1.4l0.1,0l-0.6,3.9h-10.3
				C760.4,849.5,763.7,845.4,763.7,842.3z"/>
			<path class="st1" d="M768.3,847.2c0-4.8,2.9-8,6.6-8c3.7,0,6.6,3.3,6.6,8c0,4.9-2.9,8.1-6.6,8.1
				C771.1,855.3,768.3,852.1,768.3,847.2z M777.7,847.2c0-3.2-0.6-7-2.8-7c-2.3,0-2.8,3.9-2.8,7.1c0,3.3,0.6,7.1,2.8,7.1
				C777.1,854.4,777.7,850.4,777.7,847.2z"/>
		</g>
	</g>
	<g>
		<path class="st1" d="M16,795.8h9.9v1H16V795.8z"/>
		<path class="st1" d="M32.8,787.2v12.9c0,1.5,0.5,3.1,0.6,3.3v0.1h-4.4v-0.1c0.1-0.3,0.6-1.9,0.6-3.3v-9.6h-2.6V790
			C29.1,789.4,31.1,788.5,32.8,787.2z"/>
		<path class="st1" d="M35.2,801.9c0-1,0.8-1.9,1.9-1.9s1.9,0.8,1.9,1.9s-0.9,1.9-1.9,1.9S35.2,803,35.2,801.9z"/>
		<path class="st1" d="M40.2,795.6c0-4.8,2.9-8,6.6-8c3.7,0,6.6,3.3,6.6,8c0,4.9-2.9,8.1-6.6,8.1C43,803.7,40.2,800.5,40.2,795.6z
			 M49.6,795.6c0-3.2-0.6-7-2.8-7c-2.3,0-2.8,3.9-2.8,7.1c0,3.3,0.6,7.1,2.8,7.1C49,802.8,49.6,798.9,49.6,795.6z"/>
		<path class="st1" d="M54.7,790.7c0-1.7,1.3-3.2,3.2-3.2c1.8,0,3.2,1.5,3.2,3.2s-1.4,3.2-3.2,3.2C56.1,793.9,54.7,792.4,54.7,790.7
			z M59.8,790.7c0-1-0.8-1.9-1.9-1.9s-1.8,0.9-1.8,1.9s0.7,1.9,1.8,1.9S59.8,791.7,59.8,790.7z"/>
	</g>
	<g>
		<path class="st1" d="M11.4,686.3h9.9v1h-9.9V686.3z"/>
		<path class="st1" d="M23.3,686.1c0-4.8,2.9-8,6.6-8c3.7,0,6.6,3.3,6.6,8c0,4.9-2.9,8.1-6.6,8.1C26.2,694.2,23.3,690.9,23.3,686.1z
			 M32.7,686c0-3.2-0.6-7-2.8-7c-2.3,0-2.8,3.9-2.8,7.1c0,3.3,0.6,7.1,2.8,7.1C32.1,693.2,32.7,689.3,32.7,686z"/>
		<path class="st1" d="M37.3,692.4c0-1,0.8-1.9,1.9-1.9s1.9,0.8,1.9,1.9s-0.9,1.9-1.9,1.9S37.3,693.4,37.3,692.4z"/>
		<path class="st1" d="M42.7,693.1l0.3-3.7l0.1,0c1.2,2.3,2.7,4,4.2,4c1.4,0,2.4-1.3,2.4-3.7c0-2.3-1-4-3.2-4c-0.8,0-2,0.2-3.5,0.9
			l0.8-8.4h0.1h5.2c1.7,0,3.5-0.4,4-0.7l-0.7,3.5h-7.8l-0.4,4.2c1.3-0.8,2.7-1.1,4-1.1c3.5,0,5.2,2.4,5.2,5.1c0,3.2-2.5,5.1-6,5.1
			C45.4,694.3,43.9,693.7,42.7,693.1z"/>
		<path class="st1" d="M54.7,681.1c0-1.7,1.3-3.2,3.2-3.2c1.8,0,3.2,1.5,3.2,3.2s-1.4,3.2-3.2,3.2C56.1,684.3,54.7,682.8,54.7,681.1
			z M59.8,681.1c0-1-0.8-1.9-1.9-1.9c-1.1,0-1.8,0.9-1.8,1.9s0.7,1.9,1.8,1.9C59,683,59.8,682.1,59.8,681.1z"/>
	</g>
	<g>
		<path class="st1" d="M21.2,576.8c0-4.8,2.9-8,6.6-8c3.7,0,6.6,3.3,6.6,8c0,4.9-2.9,8.1-6.6,8.1C24.1,584.9,21.2,581.7,21.2,576.8z
			 M30.6,576.8c0-3.2-0.6-7-2.8-7c-2.3,0-2.8,3.9-2.8,7.1c0,3.3,0.6,7.1,2.8,7.1C30,583.9,30.6,580,30.6,576.8z"/>
		<path class="st1" d="M35.2,583.1c0-1,0.8-1.9,1.9-1.9s1.9,0.8,1.9,1.9s-0.9,1.9-1.9,1.9S35.2,584.1,35.2,583.1z"/>
		<path class="st1" d="M40.2,576.8c0-4.8,2.9-8,6.6-8c3.7,0,6.6,3.3,6.6,8c0,4.9-2.9,8.1-6.6,8.1C43,584.9,40.2,581.7,40.2,576.8z
			 M49.6,576.8c0-3.2-0.6-7-2.8-7c-2.3,0-2.8,3.9-2.8,7.1c0,3.3,0.6,7.1,2.8,7.1C49,583.9,49.6,580,49.6,576.8z"/>
		<path class="st1" d="M54.7,571.8c0-1.7,1.3-3.2,3.2-3.2c1.8,0,3.2,1.5,3.2,3.2s-1.4,3.2-3.2,3.2C56.1,575,54.7,573.5,54.7,571.8z
			 M59.8,571.8c0-1-0.8-1.9-1.9-1.9s-1.8,0.9-1.8,1.9s0.7,1.9,1.8,1.9S59.8,572.8,59.8,571.8z"/>
	</g>
	<g>
		<path class="st1" d="M23.3,467.3c0-4.8,2.9-8,6.6-8c3.7,0,6.6,3.3,6.6,8c0,4.9-2.9,8.1-6.6,8.1C26.2,475.4,23.3,472.2,23.3,467.3z
			 M32.7,467.2c0-3.2-0.6-7-2.8-7c-2.3,0-2.8,3.9-2.8,7.1c0,3.3,0.6,7.1,2.8,7.1C32.1,474.4,32.7,470.5,32.7,467.2z"/>
		<path class="st1" d="M37.3,473.6c0-1,0.8-1.9,1.9-1.9s1.9,0.8,1.9,1.9s-0.9,1.9-1.9,1.9S37.3,474.6,37.3,473.6z"/>
		<path class="st1" d="M42.7,474.3l0.3-3.7l0.1,0c1.2,2.3,2.7,4,4.2,4c1.4,0,2.4-1.3,2.4-3.7c0-2.3-1-4-3.2-4c-0.8,0-2,0.2-3.5,0.9
			l0.8-8.4h0.1h5.2c1.7,0,3.5-0.4,4-0.7l-0.7,3.5h-7.8l-0.4,4.2c1.3-0.8,2.7-1.1,4-1.1c3.5,0,5.2,2.4,5.2,5.1c0,3.2-2.5,5.1-6,5.1
			C45.4,475.5,43.9,474.9,42.7,474.3z"/>
		<path class="st1" d="M54.7,462.3c0-1.7,1.3-3.2,3.2-3.2c1.8,0,3.2,1.5,3.2,3.2s-1.4,3.2-3.2,3.2C56.1,465.5,54.7,464,54.7,462.3z
			 M59.8,462.3c0-1-0.8-1.9-1.9-1.9c-1.1,0-1.8,0.9-1.8,1.9s0.7,1.9,1.8,1.9C59,464.3,59.8,463.3,59.8,462.3z"/>
	</g>
	<g>
		<path class="st1" d="M32.8,349.4v12.9c0,1.5,0.5,3.1,0.6,3.3v0.1h-4.4v-0.1c0.1-0.3,0.6-1.9,0.6-3.3v-9.6h-2.6v-0.6
			C29.1,351.5,31.1,350.7,32.8,349.4z"/>
		<path class="st1" d="M35.2,364.1c0-1,0.8-1.9,1.9-1.9s1.9,0.8,1.9,1.9s-0.9,1.9-1.9,1.9S35.2,365.1,35.2,364.1z"/>
		<path class="st1" d="M40.2,357.8c0-4.8,2.9-8,6.6-8c3.7,0,6.6,3.3,6.6,8c0,4.9-2.9,8.1-6.6,8.1C43,365.9,40.2,362.7,40.2,357.8z
			 M49.6,357.8c0-3.2-0.6-7-2.8-7c-2.3,0-2.8,3.9-2.8,7.1c0,3.3,0.6,7.1,2.8,7.1C49,364.9,49.6,361,49.6,357.8z"/>
		<path class="st1" d="M54.7,352.8c0-1.7,1.3-3.2,3.2-3.2c1.8,0,3.2,1.5,3.2,3.2s-1.4,3.2-3.2,3.2C56.1,356,54.7,354.5,54.7,352.8z
			 M59.8,352.8c0-1-0.8-1.9-1.9-1.9c-1.1,0-1.8,0.9-1.8,1.9s0.7,1.9,1.8,1.9C59,354.8,59.8,353.8,59.8,352.8z"/>
	</g>
	<g>
		<path class="st1" d="M34.9,239.9v12.9c0,1.5,0.5,3.1,0.6,3.3v0.1H31v-0.1c0.1-0.3,0.6-1.9,0.6-3.3v-9.6h-2.6v-0.6
			C31.2,242,33.2,241.2,34.9,239.9z"/>
		<path class="st1" d="M37.3,254.6c0-1,0.8-1.9,1.9-1.9s1.9,0.8,1.9,1.9s-0.9,1.9-1.9,1.9S37.3,255.6,37.3,254.6z"/>
		<path class="st1" d="M42.7,255.3l0.3-3.7l0.1,0c1.2,2.3,2.7,4,4.2,4c1.4,0,2.4-1.3,2.4-3.7c0-2.3-1-4-3.2-4c-0.8,0-2,0.2-3.5,0.9
			l0.8-8.4h0.1h5.2c1.7,0,3.5-0.4,4-0.7l-0.7,3.5h-7.8l-0.4,4.2c1.3-0.8,2.7-1.1,4-1.1c3.5,0,5.2,2.4,5.2,5.1c0,3.2-2.5,5.1-6,5.1
			C45.4,256.5,43.9,256,42.7,255.3z"/>
		<path class="st1" d="M54.7,243.3c0-1.7,1.3-3.2,3.2-3.2c1.8,0,3.2,1.5,3.2,3.2s-1.4,3.2-3.2,3.2C56.1,246.5,54.7,245,54.7,243.3z
			 M59.8,243.3c0-1-0.8-1.9-1.9-1.9s-1.8,0.9-1.8,1.9s0.7,1.9,1.8,1.9S59.8,244.3,59.8,243.3z"/>
	</g>
	<g>
		<path class="st1" d="M30.1,133.9c0-1-0.5-2.2-1.8-2.2c-1.7,0-3.2,2.2-4.2,4h-0.1l-0.7-3.7c1.5-0.6,3.2-1.3,5.1-1.3
			c2.8,0,5.2,1.3,5.2,3.9c0,2.2-1.8,4.2-3.8,5.9c-1.4,1.4-3.5,3.1-4.2,3.7h3.5c1.7,0,3.2-0.4,4.4-1.4l0.1,0l-0.6,3.9H22.7
			C26.9,141.1,30.1,137,30.1,133.9z"/>
		<path class="st1" d="M35.2,145.1c0-1,0.8-1.9,1.9-1.9s1.9,0.8,1.9,1.9s-0.9,1.9-1.9,1.9S35.2,146.1,35.2,145.1z"/>
		<path class="st1" d="M40.2,138.8c0-4.8,2.9-8,6.6-8c3.7,0,6.6,3.3,6.6,8c0,4.9-2.9,8.1-6.6,8.1C43,146.9,40.2,143.7,40.2,138.8z
			 M49.6,138.8c0-3.2-0.6-7-2.8-7c-2.3,0-2.8,3.9-2.8,7.1c0,3.3,0.6,7.1,2.8,7.1C49,145.9,49.6,142,49.6,138.8z"/>
		<path class="st1" d="M54.7,133.8c0-1.7,1.3-3.2,3.2-3.2c1.8,0,3.2,1.5,3.2,3.2s-1.4,3.2-3.2,3.2C56.1,137,54.7,135.5,54.7,133.8z
			 M59.8,133.8c0-1-0.8-1.9-1.9-1.9s-1.8,0.9-1.8,1.9s0.7,1.9,1.8,1.9S59.8,134.8,59.8,133.8z"/>
	</g>
	<g>
		<path class="st1" d="M30.1,24.4c0-1-0.5-2.2-1.8-2.2c-1.7,0-3.2,2.2-4.2,4h-0.1l-0.7-3.7c1.5-0.6,3.2-1.3,5.1-1.3
			c2.8,0,5.2,1.3,5.2,3.9c0,2.2-1.8,4.2-3.8,5.9c-1.4,1.4-3.5,3.1-4.2,3.7h3.5c1.7,0,3.2-0.4,4.4-1.4l0.1,0L33,37.2H22.7
			C26.9,31.6,30.1,27.5,30.1,24.4z"/>
		<path class="st1" d="M35.2,35.6c0-1,0.8-1.9,1.9-1.9s1.9,0.8,1.9,1.9s-0.9,1.9-1.9,1.9S35.2,36.6,35.2,35.6z"/>
		<path class="st1" d="M40.6,36.3l0.3-3.7l0.1,0c1.2,2.3,2.7,4,4.2,4c1.4,0,2.4-1.3,2.4-3.7c0-2.3-1-4-3.2-4c-0.8,0-2,0.2-3.5,0.9
			l0.8-8.4h0.1H47c1.7,0,3.5-0.4,4-0.7l-0.7,3.5h-7.8l-0.4,4.2c1.3-0.8,2.7-1.1,4-1.1c3.5,0,5.2,2.4,5.2,5.1c0,3.2-2.5,5.1-6,5.1
			C43.3,37.5,41.8,37,40.6,36.3z"/>
		<path class="st1" d="M52.7,24.3c0-1.7,1.3-3.2,3.2-3.2c1.8,0,3.2,1.5,3.2,3.2s-1.4,3.2-3.2,3.2C54,27.5,52.7,26,52.7,24.3z
			 M57.7,24.3c0-1-0.8-1.9-1.9-1.9S54,23.4,54,24.3s0.7,1.9,1.8,1.9S57.7,25.3,57.7,24.3z"/>
	</g>
	<g class="st2">
		<rect x="84.5" y="797.4" class="st1" width="711.3" height="0.5"/>
	</g>
	<g class="st2">
		<g>
			<rect x="795.5" y="797.4" class="st1" width="3" height="0.5"/>
		</g>
		<g>
			<path class="st1" d="M819,797.9h-5.1v-0.5h5.1V797.9z M808.8,797.9h-5.1v-0.5h5.1V797.9z"/>
		</g>
		<g>
			<rect x="824.2" y="797.4" class="st1" width="3" height="0.5"/>
		</g>
	</g>
	<g class="st2">
		<rect x="84.5" y="250" class="st1" width="718.2" height="0.5"/>
	</g>
	<g class="st2">
		<rect x="88.5" y="140.5" class="st1" width="714.2" height="0.5"/>
	</g>
	<g class="st2">
		<rect x="88.5" y="31" class="st1" width="714.2" height="0.5"/>
	</g>
	<g class="st2">
		<rect x="84.5" y="359.5" class="st1" width="718.2" height="0.5"/>
	</g>
	<g class="st2">
		<rect x="84.5" y="469" class="st1" width="718.2" height="0.5"/>
	</g>
	<g class="st2">
		<rect x="88.3" y="578.5" class="st1" width="718.2" height="0.5"/>
	</g>
	<g class="st2">
		<rect x="84.5" y="687.8" class="st1" width="718.2" height="0.5"/>
	</g>
	<g class="st2">
		<rect x="262.4" y="7.9" class="st1" width="0.5" height="812.8"/>
	</g>
	<g class="st2">
		<rect x="426.8" y="7.9" class="st1" width="0.5" height="812.8"/>
	</g>
	<g class="st2">
		<rect x="591.2" y="7.9" class="st1" width="0.5" height="812.8"/>
	</g>
	<g class="st2">
		<rect x="755.7" y="7.9" class="st1" width="0.5" height="812.8"/>
	</g>
	<g class="st2">
		<rect x="130.8" y="7.9" class="st1" width="0.5" height="812.8"/>
	</g>
	<g transform="translate(657.7777777777777,0)">
		<g class="st0">
			<path class="st1" d="M-508.5,44.7c0-2.3-1.1-5.1-4.3-5.1c-4,0-7.4,5-9.8,9.3h-0.3l-1.7-8.6c3.3-1.4,7.4-2.9,11.9-2.9
				c6.5,0,12,3.1,12,8.9c0,5.1-4.1,9.7-8.8,13.6c-3.2,3.1-8,7.3-9.6,8.6h8.2c4,0,7.4-0.9,10.1-3.1l0.2,0.1l-1.4,8.9h-23.7
				C-516,61.4-508.5,52.1-508.5,44.7z"/>
			<path class="st1" d="M-497.9,56.1c0-11,6.6-18.5,15.1-18.5c8.5,0,15.1,7.5,15.1,18.5c0,11.2-6.6,18.7-15.1,18.7
				C-491.4,74.8-497.9,67.3-497.9,56.1z M-476.3,56c0-7.4-1.4-16.2-6.5-16.2c-5.3,0-6.5,9.1-6.5,16.3c0,7.6,1.3,16.4,6.5,16.4
				S-476.3,63.6-476.3,56z"/>
			<path class="st1" d="M-448.9,44.7c0-2.3-1.1-5.1-4.3-5.1c-4,0-7.4,5-9.8,9.3h-0.3l-1.7-8.6c3.3-1.4,7.4-2.9,11.9-2.9
				c6.5,0,12,3.1,12,8.9c0,5.1-4.1,9.7-8.8,13.6c-3.2,3.1-8,7.3-9.6,8.6h8.2c4,0,7.4-0.9,10.1-3.1l0.2,0.1l-1.4,8.9h-23.7
				C-456.4,61.4-448.9,52.1-448.9,44.7z"/>
			<path class="st1" d="M-421,44.7c0-2.3-1.1-5.1-4.3-5.1c-4,0-7.4,5-9.8,9.3h-0.3l-1.7-8.6c3.3-1.4,7.4-2.9,11.9-2.9
				c6.5,0,12,3.1,12,8.9c0,5.1-4.1,9.7-8.8,13.6c-3.2,3.1-8,7.3-9.6,8.6h8.2c4,0,7.4-0.9,10.1-3.1l0.2,0.1l-1.4,8.9h-23.7
				C-428.5,61.4-421,52.1-421,44.7z"/>
		</g>
	</g>
	<g transform="translate(657.7777777777777,0)">
		<g class="st0">
			<path class="st1" d="M-526.7,194.2h13.1c15.4,0,17-0.3,18.5-1.9c1.4-1.4,1.6-2.9,1.6-18.5v-14.1h7.9v14.3
				c0,15.7,0.2,17.1,1.6,18.5c1.6,1.6,3.2,1.7,18.5,1.7h15.4v7.3h-15.4c-15.4,0-17,0.3-18.5,1.9c-1.4,1.4-1.6,2.9-1.6,18.5V236h-7.9
				v-14.1c0-15.7-0.2-17.1-1.6-18.5c-1.6-1.6-3.2-1.9-18.5-1.9h-13.1V194.2z"/>
			<path class="st1" d="M-385.8,157.4c0-7.1-3.5-16-13.3-16c-12.4,0-23.1,15.7-30.6,29h-0.8l-5.2-26.8c10.5-4.3,23.1-9,37.1-9
				c20.4,0,37.4,9.7,37.4,27.9c0,15.8-12.8,30.3-27.4,42.5c-10,9.8-24.9,22.7-29.9,26.9h25.5c12.5,0,23-2.9,31.5-9.8l0.5,0.3
				l-4.3,27.7h-74.1C-409,209.4-385.8,180.3-385.8,157.4z"/>
			<path class="st1" d="M-349,238.2c0-7.4,6-13.5,13.5-13.5c7.4,0,13.6,6,13.6,13.5c0,7.4-6.2,13.5-13.6,13.5
				C-343,251.7-349,245.7-349,238.2z"/>
			<path class="st1" d="M-313.4,192.9c0-34.4,20.6-57.8,47.2-57.8c26.5,0,47.2,23.4,47.2,57.8c0,35-20.8,58.5-47.2,58.5
				C-292.8,251.4-313.4,227.9-313.4,192.9z M-245.7,192.6c0-23.1-4.3-50.5-20.4-50.5c-16.5,0-20.4,28.4-20.4,51
				c0,23.8,4.1,51.3,20.4,51.3C-249.8,244.4-245.7,216.2-245.7,192.6z"/>
			<path class="st1" d="M-159.9,136.2h20.6v80.3h16.2v7h-16.2v2.2c0,10.6,3.6,22.3,4,24.6h-31.8c0.5-2.2,4.1-13.9,4.1-24.6v-2.2
				h-49.4h-0.8L-159.9,136.2z M-163,216.5v-61.8l-38,61.8H-163z"/>
			<path class="st1" d="M-118.7,157.3c0-12.2,9.7-22.8,23-22.8c13.3,0,23.3,10.6,23.3,22.8c0,12.2-10,23-23.3,23
				C-109,180.3-118.7,169.5-118.7,157.3z M-82.2,157.3c0-7.1-5.5-13.6-13.5-13.6s-13.1,6.5-13.1,13.6c0,7.1,5.2,13.8,13.1,13.8
				S-82.2,164.4-82.2,157.3z"/>
		</g>
	</g>
	<g id="viz_00000123425604109948133050000007759561889930643104_">
		<g>
			<g>
				<path class="st1" d="M163.8,810.9c-5.5,0-7.1-10.1-10.7-67.8c-1.6-24.7-3.7-58.3-6.6-63.2c-5-1.1-6.6-12.4-9.9-51.3
					c-1.4-17.2-3.6-42.8-6.3-46.8h-1.9v-5h2.5c5.7,0,7.3,10.3,10.7,51.4c1.4,17.2,3.6,43.1,6.4,46.9c5,0.8,6.6,12.4,10.1,67.8
					c1.3,21.4,3.1,49.4,5.4,59.8c2.7-14.6,4.5-63.3,6-103.4c1-26.8,2.1-54.6,3.3-75.1c0.7-11.1,1.4-19.2,2.2-24.9
					c1.1-7.8,2.1-11.5,5.2-11.5c6.2,0,8.2,10.5,10.7,23.9c1.2,6.6,3.6,18.9,5.8,19.8l15.9,0c2.7-3.5,4.8-26.2,6.2-41.4
					c3.4-36.1,5.1-45.9,10.7-45.9c5.4,0,8.1,3.6,10.2,6.5c1.9,2.5,3.2,4.1,5.4,4.4c2.9-5.9,5-42.6,6.6-69.6
					c3.6-63.3,5.2-74.4,10.7-74.4c5.1,0,6.7,5.8,10.7,135.5c1.6,50.6,3.5,112.3,6.3,128c2.2-7.4,3.9-26.5,5.1-39.8
					c3.4-37,5.1-47,10.7-47c5.4,0,8.1,3.6,10.2,6.5c2,2.6,3.2,4.2,5.5,4.4c2.8-4.9,4.9-35.3,6.4-57.6c3.6-52.4,5.3-62.3,10.7-62.3
					c5.6,0,7.3,10.5,10.7,49.2c1.4,16.4,3.6,41,6.3,44.7c5.3,0.7,7.1,11.1,10.1,37.1c1.3,10.6,3.1,26,5.2,31.2
					c2.8-10.7,4.8-54.8,6.2-87.8c3.8-85.4,5.5-94,10.7-94c5.7,0,7.3,11,10.7,54.7c1.4,17.8,3.5,44.2,6.1,49.6
					c2.2-2.7,4.2-14.8,5.4-21.5c2.9-16.7,4.8-26.1,10.7-26.1c4.4,0,6.7,0.6,8.9,1.2c2,0.5,3.8,1,7.6,1c2.3,0,4.4-6.8,5.8-11.3
					c2.3-7.3,4.7-14.8,10.6-14.8c6,0,7.8,11.2,10.7,32.7c1.2,8.6,3,22.1,5.1,26.9c2.9-11.9,4.8-64.5,6.4-107.4
					c1-27.4,2.1-55.7,3.3-76.6c0.7-11.3,1.4-19.6,2.2-25.4c1.1-8,2.1-11.7,5.2-11.7c5.4,0,6.9,9.3,10.7,108.2
					c1.7,42.9,3.7,96,6.8,103.5c4.9,0.7,7.3,5.7,9.4,10.1c1.9,3.9,3.3,6.7,5.2,7.2c2.8-5.3,4.9-37.3,6.4-60.8
					c3.6-55.8,5.2-65.6,10.7-65.6c6,0,7.8,10.5,10.7,30.5c1.3,9.1,3.5,24.3,6,26.2c5.2,0.1,7.9,3.6,10,6.5c2.1,2.8,3.5,4.5,6.2,4.5
					c2.3,0,4.3-5.7,5.9-10.3c2.3-6.7,4.7-13.7,10.6-13.7c5.7,0,7.3,11,10.7,54.7c1.3,16.5,3.2,40.2,5.5,48c2.6-10,4.5-44.8,5.9-70.9
					c3.6-66,5.2-77.7,10.7-77.7c6,0,8.4,8.1,10.6,16c1.3,4.6,3.6,12.4,5.8,12.4c5.9,0,7.8,9.4,10.7,26.1c1.2,6.8,3.3,19,5.4,21.6
					c2.6-4.7,4.7-27.7,6-43.2c3.4-37.9,5.1-48.1,10.7-48.1c2.4,0,3.9-2.4,6-6.3c2.1-4,4.8-9,10.4-9c2.6,0,4-2,6.1-5.4
					c2.2-3.4,4.8-7.7,10.3-7.7c2.4,0,4.2-4.9,5.9-9.3c2.2-5.9,4.7-12.5,10.6-12.5c6,0,8.3,8.3,10.6,17.1c1.3,4.7,3.6,13.4,5.8,13.4
					c5.2,0,7.9,2.9,10,5.2c1.9,2,3.2,3.4,6,3.6c2.6-3.1,4.7-23.4,6.2-37c3.2-30.1,4.9-41.5,10.7-41.5c6,0,7.9,10.2,10.7,28.3
					c1.1,7.3,2.9,18.7,4.9,22.8c3-12.4,4.9-71.5,6.5-119.6c1-30.3,2.1-61.7,3.3-84.8c0.7-12.5,1.4-21.7,2.2-28.1
					c1.1-8.9,2.1-12.8,5.2-12.8h2.5v5H790c-3.2,8.8-5.2,70.7-6.9,120.9c-1,30.3-2.1,61.7-3.3,84.8c-0.7,12.5-1.4,21.7-2.2,28.1
					c-1.1,8.9-2.1,12.8-5.2,12.8c-6,0-7.9-10.2-10.7-28.3c-1.3-8-3.3-21.1-5.5-23.7c-2.5,4-4.6,23.5-5.9,36.7
					c-3.2,30.1-4.9,41.5-10.7,41.5c-5.2,0-7.9-2.9-10-5.2c-2-2.1-3.4-3.6-6.4-3.6c-6,0-8.3-8.3-10.6-17.1
					c-1.3-4.7-3.6-13.4-5.8-13.4c-2.4,0-4.2,4.9-5.9,9.3c-2.2,5.9-4.7,12.5-10.6,12.5c-2.6,0-4,2-6.1,5.4c-2.2,3.4-4.8,7.7-10.3,7.7
					c-2.4,0-3.9,2.4-6,6.3c-2.1,3.9-4.6,8.6-9.9,8.9c-2.7,3.6-4.9,27.6-6.3,43.6c-3.4,37.9-5.1,48.1-10.7,48.1
					c-5.9,0-7.8-9.4-10.7-26.1c-1.2-7.2-3.5-20.6-5.8-21.9c-5.9-0.1-8.3-8.2-10.5-16c-1.2-4.1-3.1-10.7-5.1-12.1
					c-2.9,6.8-5,44.6-6.5,72.6c-3.6,66-5.2,77.7-10.7,77.7c-5.7,0-7.3-11-10.7-54.7c-1.4-18.2-3.6-45.4-6.3-50
					c-2.1,0.8-3.8,6-5.3,10.2c-2.3,6.7-4.7,13.7-10.6,13.7c-5.4,0-8.1-3.6-10.2-6.5c-2.1-2.8-3.5-4.5-6.2-4.5
					c-6,0-7.8-10.5-10.7-30.5c-1.2-8.3-3.2-21.7-5.3-25.4c-2.7,7-4.7,37.5-6.1,60.2c-3.6,55.8-5.2,65.6-10.7,65.6
					c-5.7,0-8.2-5.4-10.5-10.2c-2.1-4.4-3.6-7.3-6-7.3c-5.4,0-6.9-9.3-10.7-108.3c-1.5-37.4-3.2-82.5-5.7-98.4
					c-2.5,16.6-4.3,64.3-5.7,103.9c-1,27.4-2.1,55.7-3.3,76.6c-0.7,11.3-1.4,19.6-2.2,25.4c-1,8-2.1,11.7-5.2,11.7
					c-6,0-7.8-11.2-10.7-32.7c-1.3-9.8-3.5-26.1-6-28.4c-2.2,0.4-4.2,7-5.6,11.3c-2.3,7.3-4.7,14.8-10.6,14.8
					c-4.4,0-6.7-0.6-8.9-1.2c-1.9-0.5-3.8-1-7.5-1c-2.3,1.3-4.6,14.7-5.8,21.9c-2.9,16.7-4.8,26.1-10.7,26.1
					c-5.7,0-7.3-11-10.7-54.7c-1.3-16.2-3.1-39.5-5.4-47.7c-2.7,12-4.6,54.7-6,86.9c-3.8,85.4-5.5,94.1-10.7,94.1
					c-5.8,0-7.5-10.2-10.7-37.1c-1.4-12.1-3.6-30.2-6.1-32.7c-5.3-0.5-7-11.3-10.4-49.2c-1.3-14.9-3.2-36.7-5.6-43.2
					c-2.5,7.7-4.4,35.5-5.9,56.2c-3.6,52.4-5.3,62.3-10.7,62.3c-5.4,0-8.1-3.6-10.2-6.5c-2-2.7-3.3-4.2-5.7-4.4
					c-2.7,3.6-4.8,26.9-6.2,42.4c-3.4,37-5.1,47-10.7,47c-5.1,0-6.7-5.8-10.7-135.6c-1.5-49.1-3.4-108.7-6.1-126.5
					c-2.3,11.8-4.1,42.2-5.4,65.5c-3.6,63.3-5.2,74.4-10.7,74.4c-5.4,0-8.1-3.6-10.2-6.5c-2-2.7-3.3-4.2-5.7-4.4
					c-2.7,3.5-4.8,26.2-6.2,41.4c-3.4,36.1-5.1,45.9-10.7,45.9h-16.4c-6.2,0-8.2-10.5-10.7-23.9c-1.1-5.7-3-15.8-4.9-18.9
					c-3,10.5-4.9,63.1-6.5,105.8c-1,26.8-2.1,54.6-3.3,75.1c-0.7,11.1-1.4,19.2-2.2,24.9C168,807.2,166.9,810.9,163.8,810.9z
					 M148.2,675.2L148.2,675.2L148.2,675.2z"/>
			</g>
		</g>
	</g>
	<g>
		<rect x="786.8" y="131.9" class="st4" width="4.1" height="666.3"/>
	</g>
	<g>
		<circle class="st4" cx="788.9" cy="134.1" r="12.2"/>
	</g>
</g>
</svg>
