<?xml version="1.0" encoding="utf-8"?>
<!-- Generator: Adobe Illustrator 26.0.1, SVG Export Plug-In . SVG Version: 6.00 Build 0)  -->
<svg version="1.1" id="Livello_1" xmlns="http://www.w3.org/2000/svg" xmlns:xlink="http://www.w3.org/1999/xlink" x="0px" y="0px"
	 viewBox="0 0 825.3 855.7" style="enable-background:new 0 0 825.3 855.7;" xml:space="preserve">
<style type="text/css">
	.st0{enable-background:new    ;}
	.st1{fill:#FFFFFF;}
	.st2{opacity:0.5;}
	.st3{fill:#F60000;}
</style>
<g id="Livello_2_00000027562342917222567340000000466486229412215939_">
</g>
<g class="st0">
	<path class="st1" d="M102.8,839.1V852c0,1.5,0.5,3.1,0.6,3.3v0.1H99v-0.1c0.1-0.3,0.6-1.9,0.6-3.3v-9.6H97v-0.6
		C99.1,841.2,101.1,840.4,102.8,839.1z"/>
	<path class="st1" d="M117.1,847.6c0,4.6-2.3,8.1-6.3,8.1c-2,0-3.5-0.5-5-1.1l0.6-3.7h0.1c1.3,2.1,2.9,3.9,4.4,3.9
		c2.1,0,2.6-2.9,2.6-7.1c-0.9,1.1-2.3,1.7-3.8,1.7c-2.9,0-4.8-2.2-4.8-4.8c0-3.2,2.7-5.3,5.9-5.3
		C114.5,839.4,117.1,842.9,117.1,847.6z M108.3,843.9c0,2,0.9,4.2,2.7,4.2c0.7,0,1.6-0.3,2.3-1.3c-0.2-3.5-0.8-6.5-2.6-6.5
		C109.3,840.3,108.3,841.8,108.3,843.9z"/>
	<path class="st1" d="M118.3,851.7c0-2,1.8-3.2,3.5-3.6c-1.9-0.9-3.2-2.3-3.2-4.2c0-2.4,2.2-4.5,5.7-4.5c2.8,0,5.4,1.2,5.4,3.7
		c0,1.8-1.5,3-3,3.5c2.8,1.3,3.7,2.8,3.7,4.5c0,3-3,4.6-6.1,4.6C121.5,855.7,118.3,854.3,118.3,851.7z M124.3,854.8
		c1.8,0,3-1.1,3-2.6c0-1.6-1.8-2.7-4.2-3.6c-0.1,0-0.2-0.1-0.3-0.1c-1.1,0.7-1.7,1.8-1.7,2.9C121,853.1,122.2,854.8,124.3,854.8z
		 M125.7,846.1c0.8-0.6,1.5-1.5,1.5-2.7c0-1.7-1-3.1-2.9-3.1c-1.5,0-2.7,0.9-2.7,2.4C121.5,844.4,123.4,845.2,125.7,846.1z"/>
	<path class="st1" d="M138.7,842.6c0-1-0.5-2.2-1.8-2.2c-1.7,0-3.2,2.2-4.2,4h-0.1l-0.7-3.7c1.5-0.6,3.2-1.3,5.1-1.3
		c2.8,0,5.2,1.3,5.2,3.9c0,2.2-1.8,4.2-3.8,5.9c-1.4,1.4-3.5,3.1-4.2,3.7h3.5c1.7,0,3.2-0.4,4.4-1.4h0.1l-0.6,3.9h-10.3
		C135.5,849.8,138.7,845.7,138.7,842.6z"/>
</g>
<g transform="translate(164.44444444444443,0)">
	<g class="st0">
		<path class="st1" d="M68.6,838.8v12.9c0,1.5,0.5,3.1,0.6,3.3v0.1h-4.4V855c0.1-0.3,0.6-1.9,0.6-3.3v-9.6h-2.6v-0.6
			C64.9,841,66.9,840.1,68.6,838.8z"/>
		<path class="st1" d="M82.9,847.3c0,4.6-2.3,8.1-6.3,8.1c-2,0-3.5-0.5-5-1.1l0.6-3.7h0.1c1.3,2.1,2.9,3.9,4.4,3.9
			c2.1,0,2.6-2.9,2.6-7.1c-0.9,1.1-2.3,1.7-3.8,1.7c-2.9,0-4.8-2.2-4.8-4.8c0-3.2,2.7-5.3,5.9-5.3C80.4,839.1,82.9,842.7,82.9,847.3
			z M74.2,843.7c0,2,0.9,4.2,2.7,4.2c0.7,0,1.6-0.3,2.3-1.3c-0.2-3.5-0.8-6.5-2.6-6.5C75.1,840,74.2,841.6,74.2,843.7z"/>
		<path class="st1" d="M96.2,847.3c0,4.6-2.3,8.1-6.3,8.1c-2,0-3.5-0.5-5-1.1l0.6-3.7h0.1c1.3,2.1,2.9,3.9,4.4,3.9
			c2.1,0,2.6-2.9,2.6-7.1c-0.9,1.1-2.3,1.7-3.8,1.7c-2.9,0-4.8-2.2-4.8-4.8c0-3.2,2.7-5.3,5.9-5.3C93.7,839.1,96.2,842.7,96.2,847.3
			z M87.5,843.7c0,2,0.9,4.2,2.7,4.2c0.7,0,1.6-0.3,2.3-1.3c-0.2-3.5-0.8-6.5-2.6-6.5C88.5,840,87.5,841.6,87.5,843.7z"/>
		<path class="st1" d="M97.5,847.2c0-4.8,2.9-8,6.6-8s6.6,3.3,6.6,8c0,4.9-2.9,8.1-6.6,8.1S97.5,852.1,97.5,847.2z M106.9,847.2
			c0-3.2-0.6-7-2.8-7c-2.3,0-2.8,3.9-2.8,7.1c0,3.3,0.6,7.1,2.8,7.1C106.3,854.4,106.9,850.4,106.9,847.2z"/>
	</g>
</g>
<g>
	<g class="st0">
		<path class="st1" d="M396.1,842.3c0-1-0.5-2.2-1.8-2.2c-1.7,0-3.2,2.2-4.2,4H390l-0.7-3.7c1.5-0.6,3.2-1.3,5.1-1.3
			c2.8,0,5.2,1.3,5.2,3.9c0,2.2-1.8,4.2-3.8,5.9c-1.4,1.4-3.5,3.1-4.2,3.7h3.5c1.7,0,3.2-0.4,4.4-1.4h0.1l-0.6,3.9h-10.3
			C392.9,849.5,396.1,845.4,396.1,842.3z"/>
		<path class="st1" d="M400.7,847.2c0-4.8,2.9-8,6.6-8s6.6,3.3,6.6,8c0,4.9-2.9,8.1-6.6,8.1S400.7,852.1,400.7,847.2z M410.1,847.2
			c0-3.2-0.6-7-2.8-7c-2.3,0-2.8,3.9-2.8,7.1c0,3.3,0.6,7.1,2.8,7.1C409.5,854.4,410.1,850.4,410.1,847.2z"/>
		<path class="st1" d="M415.1,847.2c0-4.8,2.9-8,6.6-8s6.6,3.3,6.6,8c0,4.9-2.9,8.1-6.6,8.1C417.9,855.3,415.1,852.1,415.1,847.2z
			 M424.5,847.2c0-3.2-0.6-7-2.8-7c-2.3,0-2.8,3.9-2.8,7.1c0,3.3,0.6,7.1,2.8,7.1C423.9,854.4,424.5,850.4,424.5,847.2z"/>
		<path class="st1" d="M429.5,847.2c0-4.8,2.9-8,6.6-8s6.6,3.3,6.6,8c0,4.9-2.9,8.1-6.6,8.1C432.3,855.3,429.5,852.1,429.5,847.2z
			 M438.9,847.2c0-3.2-0.6-7-2.8-7c-2.3,0-2.8,3.9-2.8,7.1c0,3.3,0.6,7.1,2.8,7.1C438.3,854.4,438.9,850.4,438.9,847.2z"/>
	</g>
</g>
<g>
	<g class="st0">
		<path class="st1" d="M563.9,842.3c0-1-0.5-2.2-1.8-2.2c-1.7,0-3.2,2.2-4.2,4h-0.1l-0.7-3.7c1.5-0.6,3.2-1.3,5.1-1.3
			c2.8,0,5.2,1.3,5.2,3.9c0,2.2-1.8,4.2-3.8,5.9c-1.4,1.4-3.5,3.1-4.2,3.7h3.5c1.7,0,3.2-0.4,4.4-1.4h0.1l-0.6,3.9h-10.3
			C560.6,849.5,563.9,845.4,563.9,842.3z"/>
		<path class="st1" d="M568.5,847.2c0-4.8,2.9-8,6.6-8c3.7,0,6.6,3.3,6.6,8c0,4.9-2.9,8.1-6.6,8.1
			C571.3,855.3,568.5,852.1,568.5,847.2z M577.9,847.2c0-3.2-0.6-7-2.8-7c-2.3,0-2.8,3.9-2.8,7.1c0,3.3,0.6,7.1,2.8,7.1
			C577.3,854.4,577.9,850.4,577.9,847.2z"/>
		<path class="st1" d="M588.5,838.8v12.9c0,1.5,0.5,3.1,0.6,3.3v0.1h-4.4V855c0.1-0.3,0.6-1.9,0.6-3.3v-9.6h-2.6v-0.6
			C584.8,841,586.8,840.1,588.5,838.8z"/>
		<path class="st1" d="M590.6,847.2c0-4.8,2.9-8,6.6-8c3.7,0,6.6,3.3,6.6,8c0,4.9-2.9,8.1-6.6,8.1
			C593.4,855.3,590.6,852.1,590.6,847.2z M600,847.2c0-3.2-0.6-7-2.8-7c-2.3,0-2.8,3.9-2.8,7.1c0,3.3,0.6,7.1,2.8,7.1
			C599.4,854.4,600,850.4,600,847.2z"/>
	</g>
</g>
<g>
	<g class="st0">
		<path class="st1" d="M726.5,842.3c0-1-0.5-2.2-1.8-2.2c-1.7,0-3.2,2.2-4.2,4h-0.1l-0.7-3.7c1.5-0.6,3.2-1.3,5.1-1.3
			c2.8,0,5.2,1.3,5.2,3.9c0,2.2-1.8,4.2-3.8,5.9c-1.4,1.4-3.5,3.1-4.2,3.7h3.5c1.7,0,3.2-0.4,4.4-1.4h0.1l-0.6,3.9H719
			C723.2,849.5,726.5,845.4,726.5,842.3z"/>
		<path class="st1" d="M731.1,847.2c0-4.8,2.9-8,6.6-8c3.7,0,6.6,3.3,6.6,8c0,4.9-2.9,8.1-6.6,8.1
			C733.9,855.3,731.1,852.1,731.1,847.2z M740.4,847.2c0-3.2-0.6-7-2.8-7c-2.3,0-2.8,3.9-2.8,7.1c0,3.3,0.6,7.1,2.8,7.1
			C739.9,854.4,740.4,850.4,740.4,847.2z"/>
		<path class="st1" d="M752.3,842.3c0-1-0.5-2.2-1.8-2.2c-1.7,0-3.2,2.2-4.2,4h-0.1l-0.7-3.7c1.5-0.6,3.2-1.3,5.1-1.3
			c2.8,0,5.2,1.3,5.2,3.9c0,2.2-1.8,4.2-3.8,5.9c-1.4,1.4-3.5,3.1-4.2,3.7h3.5c1.7,0,3.2-0.4,4.4-1.4h0.1l-0.6,3.9h-10.3
			C749.1,849.5,752.3,845.4,752.3,842.3z"/>
		<path class="st1" d="M756.9,847.2c0-4.8,2.9-8,6.6-8c3.7,0,6.6,3.3,6.6,8c0,4.9-2.9,8.1-6.6,8.1
			C759.8,855.3,756.9,852.1,756.9,847.2z M766.3,847.2c0-3.2-0.6-7-2.8-7c-2.3,0-2.8,3.9-2.8,7.1c0,3.3,0.6,7.1,2.8,7.1
			C765.7,854.4,766.3,850.4,766.3,847.2z"/>
	</g>
</g>
<g>
	<path class="st1" d="M4.7,795.8h9.9v1H4.7V795.8z"/>
	<path class="st1" d="M21.4,787.2v12.9c0,1.5,0.5,3.1,0.6,3.3v0.1h-4.4v-0.1c0.1-0.3,0.6-1.9,0.6-3.3v-9.6h-2.6V790
		C17.7,789.4,19.8,788.5,21.4,787.2z"/>
	<path class="st1" d="M23.9,801.9c0-1,0.8-1.9,1.9-1.9s1.9,0.8,1.9,1.9s-0.9,1.9-1.9,1.9S23.9,803,23.9,801.9z"/>
	<path class="st1" d="M28.8,795.6c0-4.8,2.9-8,6.6-8s6.6,3.3,6.6,8c0,4.9-2.9,8.1-6.6,8.1C31.7,803.7,28.8,800.5,28.8,795.6z
		 M38.2,795.6c0-3.2-0.6-7-2.8-7c-2.3,0-2.8,3.9-2.8,7.1c0,3.3,0.6,7.1,2.8,7.1C37.6,802.8,38.2,798.9,38.2,795.6z"/>
	<path class="st1" d="M43.4,790.7c0-1.7,1.3-3.2,3.2-3.2c1.8,0,3.2,1.5,3.2,3.2s-1.4,3.2-3.2,3.2C44.7,793.9,43.4,792.4,43.4,790.7z
		 M48.4,790.7c0-1-0.8-1.9-1.9-1.9s-1.8,0.9-1.8,1.9s0.7,1.9,1.8,1.9S48.4,791.7,48.4,790.7z"/>
</g>
<g>
	<path class="st1" d="M0,686.3h9.9v1H0V686.3z"/>
	<path class="st1" d="M11.9,686.1c0-4.8,2.9-8,6.6-8s6.6,3.3,6.6,8c0,4.9-2.9,8.1-6.6,8.1C14.8,694.2,11.9,690.9,11.9,686.1z
		 M21.3,686c0-3.2-0.6-7-2.8-7c-2.3,0-2.8,3.9-2.8,7.1c0,3.3,0.6,7.1,2.8,7.1C20.8,693.2,21.3,689.3,21.3,686z"/>
	<path class="st1" d="M26,692.4c0-1,0.8-1.9,1.9-1.9s1.9,0.8,1.9,1.9s-0.9,1.9-1.9,1.9S26,693.4,26,692.4z"/>
	<path class="st1" d="M31.4,693.1l0.3-3.7h0.1c1.2,2.3,2.7,4,4.2,4c1.4,0,2.4-1.3,2.4-3.7c0-2.3-1-4-3.2-4c-0.8,0-2,0.2-3.5,0.9
		l0.8-8.4h0.1h5.2c1.7,0,3.5-0.4,4-0.7L41,681h-7.8l-0.4,4.2c1.3-0.8,2.7-1.1,4-1.1c3.5,0,5.2,2.4,5.2,5.1c0,3.2-2.5,5.1-6,5.1
		C34.1,694.3,32.5,693.7,31.4,693.1z"/>
	<path class="st1" d="M43.4,681.1c0-1.7,1.3-3.2,3.2-3.2c1.8,0,3.2,1.5,3.2,3.2s-1.4,3.2-3.2,3.2C44.7,684.3,43.4,682.8,43.4,681.1z
		 M48.4,681.1c0-1-0.8-1.9-1.9-1.9c-1.1,0-1.8,0.9-1.8,1.9s0.7,1.9,1.8,1.9C47.7,683,48.4,682.1,48.4,681.1z"/>
</g>
<g>
	<path class="st1" d="M9.9,576.8c0-4.8,2.9-8,6.6-8s6.6,3.3,6.6,8c0,4.9-2.9,8.1-6.6,8.1C12.7,584.9,9.9,581.7,9.9,576.8z
		 M19.3,576.8c0-3.2-0.6-7-2.8-7c-2.3,0-2.8,3.9-2.8,7.1c0,3.3,0.6,7.1,2.8,7.1C18.7,583.9,19.3,580,19.3,576.8z"/>
	<path class="st1" d="M23.9,583.1c0-1,0.8-1.9,1.9-1.9s1.9,0.8,1.9,1.9s-0.9,1.9-1.9,1.9S23.9,584.1,23.9,583.1z"/>
	<path class="st1" d="M28.8,576.8c0-4.8,2.9-8,6.6-8s6.6,3.3,6.6,8c0,4.9-2.9,8.1-6.6,8.1C31.7,584.9,28.8,581.7,28.8,576.8z
		 M38.2,576.8c0-3.2-0.6-7-2.8-7c-2.3,0-2.8,3.9-2.8,7.1c0,3.3,0.6,7.1,2.8,7.1C37.6,583.9,38.2,580,38.2,576.8z"/>
	<path class="st1" d="M43.4,571.8c0-1.7,1.3-3.2,3.2-3.2c1.8,0,3.2,1.5,3.2,3.2s-1.4,3.2-3.2,3.2C44.7,575,43.4,573.5,43.4,571.8z
		 M48.4,571.8c0-1-0.8-1.9-1.9-1.9s-1.8,0.9-1.8,1.9s0.7,1.9,1.8,1.9S48.4,572.8,48.4,571.8z"/>
</g>
<g>
	<path class="st1" d="M11.9,467.3c0-4.8,2.9-8,6.6-8s6.6,3.3,6.6,8c0,4.9-2.9,8.1-6.6,8.1S11.9,472.2,11.9,467.3z M21.3,467.2
		c0-3.2-0.6-7-2.8-7c-2.3,0-2.8,3.9-2.8,7.1c0,3.3,0.6,7.1,2.8,7.1C20.8,474.4,21.3,470.5,21.3,467.2z"/>
	<path class="st1" d="M26,473.6c0-1,0.8-1.9,1.9-1.9s1.9,0.8,1.9,1.9s-0.9,1.9-1.9,1.9S26,474.6,26,473.6z"/>
	<path class="st1" d="M31.4,474.3l0.3-3.7h0.1c1.2,2.3,2.7,4,4.2,4c1.4,0,2.4-1.3,2.4-3.7c0-2.3-1-4-3.2-4c-0.8,0-2,0.2-3.5,0.9
		l0.8-8.4h0.1h5.2c1.7,0,3.5-0.4,4-0.7l-0.7,3.5h-7.8l-0.4,4.2c1.3-0.8,2.7-1.1,4-1.1c3.5,0,5.2,2.4,5.2,5.1c0,3.2-2.5,5.1-6,5.1
		C34.1,475.5,32.5,474.9,31.4,474.3z"/>
	<path class="st1" d="M43.4,462.3c0-1.7,1.3-3.2,3.2-3.2c1.8,0,3.2,1.5,3.2,3.2s-1.4,3.2-3.2,3.2C44.7,465.5,43.4,464,43.4,462.3z
		 M48.4,462.3c0-1-0.8-1.9-1.9-1.9c-1.1,0-1.8,0.9-1.8,1.9s0.7,1.9,1.8,1.9C47.7,464.3,48.4,463.3,48.4,462.3z"/>
</g>
<g>
	<path class="st1" d="M21.4,349.4v12.9c0,1.5,0.5,3.1,0.6,3.3v0.1h-4.4v-0.1c0.1-0.3,0.6-1.9,0.6-3.3v-9.6h-2.6v-0.6
		C17.7,351.5,19.8,350.7,21.4,349.4z"/>
	<path class="st1" d="M23.9,364.1c0-1,0.8-1.9,1.9-1.9s1.9,0.8,1.9,1.9s-0.9,1.9-1.9,1.9S23.9,365.1,23.9,364.1z"/>
	<path class="st1" d="M28.8,357.8c0-4.8,2.9-8,6.6-8s6.6,3.3,6.6,8c0,4.9-2.9,8.1-6.6,8.1S28.8,362.7,28.8,357.8z M38.2,357.8
		c0-3.2-0.6-7-2.8-7c-2.3,0-2.8,3.9-2.8,7.1c0,3.3,0.6,7.1,2.8,7.1C37.6,364.9,38.2,361,38.2,357.8z"/>
	<path class="st1" d="M43.4,352.8c0-1.7,1.3-3.2,3.2-3.2c1.8,0,3.2,1.5,3.2,3.2s-1.4,3.2-3.2,3.2C44.7,356,43.4,354.5,43.4,352.8z
		 M48.4,352.8c0-1-0.8-1.9-1.9-1.9c-1.1,0-1.8,0.9-1.8,1.9s0.7,1.9,1.8,1.9C47.7,354.8,48.4,353.8,48.4,352.8z"/>
</g>
<g>
	<path class="st1" d="M23.5,239.9v12.9c0,1.5,0.5,3.1,0.6,3.3v0.1h-4.4v-0.1c0.1-0.3,0.6-1.9,0.6-3.3v-9.6h-2.6v-0.6
		C19.8,242,21.8,241.2,23.5,239.9z"/>
	<path class="st1" d="M26,254.6c0-1,0.8-1.9,1.9-1.9s1.9,0.8,1.9,1.9s-0.9,1.9-1.9,1.9S26,255.6,26,254.6z"/>
	<path class="st1" d="M31.4,255.3l0.3-3.7h0.1c1.2,2.3,2.7,4,4.2,4c1.4,0,2.4-1.3,2.4-3.7c0-2.3-1-4-3.2-4c-0.8,0-2,0.2-3.5,0.9
		l0.8-8.4h0.1h5.2c1.7,0,3.5-0.4,4-0.7l-0.7,3.5h-7.8l-0.4,4.2c1.3-0.8,2.7-1.1,4-1.1c3.5,0,5.2,2.4,5.2,5.1c0,3.2-2.5,5.1-6,5.1
		C34.1,256.5,32.5,256,31.4,255.3z"/>
	<path class="st1" d="M43.4,243.3c0-1.7,1.3-3.2,3.2-3.2c1.8,0,3.2,1.5,3.2,3.2s-1.4,3.2-3.2,3.2C44.7,246.5,43.4,245,43.4,243.3z
		 M48.4,243.3c0-1-0.8-1.9-1.9-1.9s-1.8,0.9-1.8,1.9s0.7,1.9,1.8,1.9S48.4,244.3,48.4,243.3z"/>
</g>
<g>
	<path class="st1" d="M18.8,133.9c0-1-0.5-2.2-1.8-2.2c-1.7,0-3.2,2.2-4.2,4h-0.1L12,132c1.5-0.6,3.2-1.3,5.1-1.3
		c2.8,0,5.2,1.3,5.2,3.9c0,2.2-1.8,4.2-3.8,5.9c-1.4,1.4-3.5,3.1-4.2,3.7h3.5c1.7,0,3.2-0.4,4.4-1.4h0.1l-0.6,3.9H11.3
		C15.5,141.1,18.8,137,18.8,133.9z"/>
	<path class="st1" d="M23.9,145.1c0-1,0.8-1.9,1.9-1.9s1.9,0.8,1.9,1.9s-0.9,1.9-1.9,1.9S23.9,146.1,23.9,145.1z"/>
	<path class="st1" d="M28.8,138.8c0-4.8,2.9-8,6.6-8s6.6,3.3,6.6,8c0,4.9-2.9,8.1-6.6,8.1C31.7,146.9,28.8,143.7,28.8,138.8z
		 M38.2,138.8c0-3.2-0.6-7-2.8-7c-2.3,0-2.8,3.9-2.8,7.1c0,3.3,0.6,7.1,2.8,7.1C37.6,145.9,38.2,142,38.2,138.8z"/>
	<path class="st1" d="M43.4,133.8c0-1.7,1.3-3.2,3.2-3.2c1.8,0,3.2,1.5,3.2,3.2s-1.4,3.2-3.2,3.2C44.7,137,43.4,135.5,43.4,133.8z
		 M48.4,133.8c0-1-0.8-1.9-1.9-1.9s-1.8,0.9-1.8,1.9s0.7,1.9,1.8,1.9S48.4,134.8,48.4,133.8z"/>
</g>
<g>
	<path class="st1" d="M18.8,24.4c0-1-0.5-2.2-1.8-2.2c-1.7,0-3.2,2.2-4.2,4h-0.1L12,22.5c1.5-0.6,3.2-1.3,5.1-1.3
		c2.8,0,5.2,1.3,5.2,3.9c0,2.2-1.8,4.2-3.8,5.9c-1.4,1.4-3.5,3.1-4.2,3.7h3.5c1.7,0,3.2-0.4,4.4-1.4h0.1l-0.6,3.9H11.3
		C15.5,31.6,18.8,27.5,18.8,24.4z"/>
	<path class="st1" d="M23.9,35.6c0-1,0.8-1.9,1.9-1.9s1.9,0.8,1.9,1.9s-0.9,1.9-1.9,1.9S23.9,36.6,23.9,35.6z"/>
	<path class="st1" d="M29.3,36.3l0.3-3.7h0.1c1.2,2.3,2.7,4,4.2,4c1.4,0,2.4-1.3,2.4-3.7c0-2.3-1-4-3.2-4c-0.8,0-2,0.2-3.5,0.9
		l0.8-8.4h0.1h5.2c1.7,0,3.5-0.4,4-0.7L39,24.2h-7.8l-0.4,4.2c1.3-0.8,2.7-1.1,4-1.1c3.5,0,5.2,2.4,5.2,5.1c0,3.2-2.5,5.1-6,5.1
		C32,37.5,30.4,37,29.3,36.3z"/>
	<path class="st1" d="M41.3,24.3c0-1.7,1.3-3.2,3.2-3.2c1.8,0,3.2,1.5,3.2,3.2s-1.4,3.2-3.2,3.2C42.6,27.5,41.3,26,41.3,24.3z
		 M46.4,24.3c0-1-0.8-1.9-1.9-1.9s-1.8,0.9-1.8,1.9s0.7,1.9,1.8,1.9S46.4,25.3,46.4,24.3z"/>
</g>
<g class="st2">
	<rect x="73.1" y="797.4" class="st1" width="711.3" height="0.5"/>
</g>
<g class="st2">
	<g>
		<rect x="784.2" y="797.4" class="st1" width="3" height="0.5"/>
	</g>
	<g>
		<path class="st1" d="M807.7,797.9h-5.1v-0.5h5.1V797.9z M797.4,797.9h-5.1v-0.5h5.1V797.9z"/>
	</g>
	<g>
		<rect x="812.8" y="797.4" class="st1" width="3" height="0.5"/>
	</g>
</g>
<g class="st2">
	<rect x="73.1" y="250" class="st1" width="718.2" height="0.5"/>
</g>
<g class="st2">
	<rect x="77.1" y="140.5" class="st1" width="714.2" height="0.5"/>
</g>
<g class="st2">
	<rect x="77.1" y="31" class="st1" width="714.2" height="0.5"/>
</g>
<g class="st2">
	<rect x="73.1" y="359.5" class="st1" width="718.2" height="0.5"/>
</g>
<g class="st2">
	<rect x="73.1" y="469" class="st1" width="718.2" height="0.5"/>
</g>
<g class="st2">
	<rect x="76.9" y="578.5" class="st1" width="718.2" height="0.5"/>
</g>
<g class="st2">
	<rect x="73.1" y="687.8" class="st1" width="718.2" height="0.5"/>
</g>
<g class="st2">
	<rect x="251" y="7.9" class="st1" width="0.5" height="812.8"/>
</g>
<g class="st2">
	<rect x="415.4" y="7.9" class="st1" width="0.5" height="812.8"/>
</g>
<g class="st2">
	<rect x="579.9" y="7.9" class="st1" width="0.5" height="812.8"/>
</g>
<g class="st2">
	<rect x="744.3" y="7.9" class="st1" width="0.5" height="812.8"/>
</g>
<g class="st2">
	<rect x="119.4" y="7.9" class="st1" width="0.5" height="812.8"/>
</g>
<g id="viz_00000121963844494422752310000018379880281905502112_">
	<g>
		<g>
			<path class="st1" d="M152,767.5c-5.8,0-7.5-11.1-10.7-42.7c-1.4-14.1-3.6-35.2-6.2-38.2c-5.3-0.6-6.9-12.3-10.2-54.8
				c-1.5-18.9-3.7-47.5-6.6-50.5c0.1,0.1,0.4,0.3,0.9,0.3v-5c5.7,0,7.3,11,10.7,54.8c1.4,18.5,3.6,46.2,6.4,50.2
				c5.3,0.9,6.9,12.3,10,42.6c1.3,12.8,3.2,31.4,5.5,37c2.6-7.6,4.5-36.2,5.9-57.7c3.6-54.1,5.2-63.6,10.7-63.6
				c2.3,0,4.3-6,5.8-10.3c2.3-6.7,4.7-13.7,10.6-13.7s8.3,7,10.6,13.7c1.4,4.1,3.3,9.7,5.4,10.3c2.6-3.3,4.7-23.5,6.1-37.1
				c3.1-30.2,4.9-41.6,10.7-41.6c3.5,0,5.4,3.9,7.4,26.9c1.3,14.8,2.3,34.8,3.3,54.2c1.4,27.4,3.3,63.7,5.9,74.2
				c2.3-7.9,4.1-31.4,5.5-49.1c3.4-44.6,5-55.9,10.7-55.9c5.8,0,7.5,11.1,10.7,40.5c1.3,12.5,3.3,31,5.7,35.4
				c2.4-4.3,4.4-22.2,5.7-34.3c3.2-28.6,4.9-39.4,10.7-39.4c5.8,0,8.3,6,10.5,11.4c1.5,3.7,3.1,7.5,5.2,8.2
				c2.8-4.9,4.8-34.1,6.4-55.5c3.6-51.3,5.2-60.3,10.7-60.3c5.3,0,6.9,8.4,10.7,90.9c1.6,33.7,3.7,79.5,6.7,86.2
				c4.1,0.2,6.4,1.4,8.4,2.5c1.8,1,3.4,1.8,6.7,1.9c2.5-2.6,4.7-20.7,6.1-32.8c3-25.7,4.7-36.2,9.9-37.1c2.9-4.6,4.9-35.3,6.5-57.9
				c3.6-53.1,5.2-62.5,10.7-62.5c3.2,0,4.7-1.2,6.6-2.7c2.1-1.7,4.7-3.8,9.5-3.8c2.4-2,4.6-17.9,6-27.4c2.9-20.8,4.7-31.7,10.7-31.7
				s7.8,11.2,10.7,32.8c1.3,9.9,3.5,26.3,6,28.4c5.7,0.2,8.1,7.7,10.3,14.9c1.3,4,3.1,9.9,5.1,11.1c2.9-6.3,4.9-42.1,6.4-68.5
				c3.6-62.4,5.2-73.4,10.7-73.4c5.6,0,7.3,10.1,10.7,50.4c1.4,16.8,3.6,42.1,6.3,45.9c5.5,0.7,7.3,11.5,10.1,31.6
				c1.3,9.5,3.5,25.3,6,27.4c5.7,0.2,8.1,6.7,10.3,12.6c1.5,4.1,3.3,8.8,5.5,9.3c2.6-3.1,4.7-22.8,6.1-36
				c3.1-29.4,4.9-40.5,10.7-40.5c6,0,8.3,8.1,10.6,16c1.3,4.6,3.6,12.4,5.8,12.4c2.1,0,4.6-9.8,5.8-14.5c2.4-9.4,4.6-18.3,10.6-18.3
				c5.8,0,7.5,9.9,10.7,36.1c1.3,10.5,3.1,25.7,5.3,30.5c2.7-8.5,4.7-43.6,6.1-69.7c3.6-64.3,5.2-75.6,10.7-75.6
				c2.1,0,4.6-9.8,5.8-14.5c2.4-9.4,4.6-18.3,10.6-18.3c5.7,0,8.2,5.4,10.5,10.2c2.1,4.4,3.6,7.3,5.9,7.3c2.4,0,4.2-4.2,5.9-8.3
				c2.2-5.3,4.7-11.4,10.5-11.4c2.4,0,4.2-4.2,5.9-8.3c2.2-5.3,4.7-11.4,10.5-11.4c5.9,0,7.8,9.4,10.7,26.1c1.2,7.2,3.5,20.6,5.8,22
				c5.8,0.1,8.2,6.7,10.4,12.6c1.5,3.9,3.1,8.4,5.2,9.2c2.8-5.2,4.9-35.4,6.4-57.7c3.6-53.1,5.2-62.5,10.7-62.5
				c6,0,7.8,10.9,10.7,31.7c1.3,9.5,3.5,25.3,6,27.4c5.9,0.2,8.1,9,10.4,18.3c1.2,4.7,3.6,14.5,5.8,14.5c2.3,0,4.3-6,5.8-10.3
				c2.2-6.4,4.5-13.1,9.8-13.7c2.9-4.8,5-36.6,6.5-60c3.6-55,5.2-64.7,10.7-64.7v5c0.6,0,0.9-0.3,1-0.4c-3,3.4-5.1,36.3-6.7,60.4
				c-3.6,55-5.2,64.7-10.7,64.7c-2.3,0-4.3,6-5.8,10.3c-2.3,6.7-4.7,13.7-10.6,13.7c-6.1,0-8.3-8.9-10.6-18.3
				c-1.2-4.7-3.6-14.5-5.8-14.5c-6,0-7.8-10.9-10.7-31.7c-1.2-8.7-3.2-22.7-5.4-26.6c-2.6,6.7-4.6,35.5-6.1,57
				c-3.6,53.1-5.2,62.5-10.7,62.5c-5.8,0-8.3-6.7-10.5-12.6c-1.6-4.4-3.5-9.3-5.9-9.3c-5.9,0-7.8-9.4-10.7-26.1
				c-1.2-7.2-3.5-20.6-5.8-22c-2.4,0.1-4.1,4.3-5.8,8.3c-2.2,5.3-4.7,11.4-10.5,11.4c-2.4,0-4.2,4.2-5.9,8.3
				c-2.2,5.3-4.7,11.4-10.5,11.4c-5.7,0-8.2-5.4-10.5-10.2c-2.1-4.4-3.6-7.3-5.9-7.3c-2.1,0-4.6,9.8-5.8,14.5
				c-2.2,8.9-4.3,17.4-9.7,18.2c-2.9,5.5-5.1,43.2-6.6,71c-3.6,64.3-5.2,75.6-10.7,75.6c-5.8,0-7.5-9.9-10.7-36.1
				c-1.4-11.6-3.5-28.9-6-31.6c-2.1,0.8-4.4,9.9-5.5,14.5c-2.4,9.4-4.6,18.3-10.6,18.3s-8.3-8.1-10.6-16c-1.3-4.4-3.3-11.6-5.4-12.3
				c-2.6,3.2-4.7,22.8-6.1,36c-3.1,29.4-4.9,40.5-10.7,40.5s-8.3-6.7-10.5-12.6c-1.6-4.4-3.5-9.3-5.9-9.3c-6,0-7.8-10.9-10.7-31.7
				c-1.3-9.5-3.5-25.3-6-27.4c-5.4-0.3-7.1-10.7-10.4-50.4c-1.3-15.1-3.2-37-5.5-44.1c-2.6,9.2-4.5,42.2-5.9,66.9
				c-3.6,62.4-5.2,73.4-10.7,73.4c-5.9,0-8.3-7.6-10.6-14.9c-1.4-4.5-3.6-11.4-5.8-11.4c-6,0-7.8-11.2-10.7-32.8
				c-1.3-9.5-3.4-25.2-5.7-28.2c-2.3,2.9-4.4,17.9-5.7,27.1c-2.9,20.8-4.7,31.7-10.7,31.7c-3.2,0-4.7,1.2-6.6,2.7
				c-2,1.6-4.5,3.6-9,3.8c-2.8,4.8-4.9,35.3-6.5,57.8c-3.5,51.9-5.1,62-10.3,62.4c-2.5,2.6-4.7,20.7-6.1,32.8
				c-3.2,27-4.9,37.2-10.7,37.2c-4.7,0-7.2-1.3-9.4-2.5c-1.9-1-3.5-1.9-7-1.9c-5.3,0-6.9-8.4-10.7-90.9c-1.4-30.8-3.3-71.6-5.9-83.6
				c-2.3,8.8-4.1,34-5.5,53.1c-3.6,51.3-5.2,60.3-10.7,60.3c-5.8,0-8.3-6-10.5-11.4c-1.6-3.9-3.3-7.9-5.5-8.3
				c-2.6,3-4.7,22.1-6.1,34.9c-3.2,28.6-4.9,39.4-10.7,39.4c-5.8,0-7.5-11.1-10.7-40.5c-1.3-12.2-3.2-30-5.5-35
				c-2.5,6.5-4.5,31.5-5.9,50.3c-3.4,44.6-5,55.9-10.7,55.9c-3.5,0-5.4-3.9-7.4-26.9c-1.3-14.8-2.3-34.8-3.3-54.2
				c-1.5-27.9-3.4-65.2-6.1-74.8c-2.2,5.8-4.1,23.4-5.3,35.6c-3.1,30.2-4.9,41.6-10.7,41.6c-5.9,0-8.3-7-10.6-13.7
				c-1.5-4.4-3.5-10.3-5.8-10.3s-4.3,6-5.8,10.3c-2.2,6.4-4.5,13.1-9.8,13.7c-2.9,4.8-4.9,36-6.5,58.9
				C159.1,758,157.5,767.5,152,767.5z"/>
		</g>
	</g>
</g>
<g transform="translate(657.7777777777777,0)">
	<g class="st0">
		<path class="st1" d="M-77.9,224.6h5.9c6.9,0,7.6-0.1,8.3-0.8c0.6-0.6,0.7-1.3,0.7-8.3v-6.3h3.5v6.4c0,7,0.1,7.6,0.7,8.3
			c0.7,0.7,1.4,0.8,8.3,0.8h6.9v3.3h-6.9c-6.9,0-7.6,0.1-8.3,0.8c-0.6,0.6-0.7,1.3-0.7,8.3v6.3H-63V237c0-7-0.1-7.6-0.7-8.3
			c-0.7-0.7-1.4-0.8-8.3-0.8h-5.9V224.6z"/>
		<path class="st1" d="M-20.2,197v41.6c0,4.7,1.6,9.8,1.8,10.8v0.3h-14.3v-0.3c0.2-0.9,1.8-6,1.8-10.8v-30.8h-8.5v-1.8
			C-32.1,203.9-25.6,201.2-20.2,197z"/>
		<path class="st1" d="M-12.3,244.3c0-3.3,2.7-6,6-6s6.1,2.7,6.1,6c0,3.3-2.8,6-6.1,6S-12.3,247.6-12.3,244.3z"/>
		<path class="st1" d="M5.1,246.7l1.1-11.8l0.4-0.1c3.9,7.3,8.8,12.7,13.4,12.7c4.5,0,7.7-4,7.7-12c0-7.4-3.3-12.7-10.3-13
			c-2.5-0.1-6.5,0.6-11.3,3l2.5-26.9H9h16.6c5.6,0,11.3-1.4,12.7-2.2l-2.2,11.3H11l-1.3,13.6c4.2-2.5,8.6-3.6,12.7-3.6
			c11.4,0,16.7,7.8,16.7,16.3c0,10.4-8.1,16.5-19.2,16.5C13.7,250.5,8.9,248.7,5.1,246.7z"/>
		<path class="st1" d="M66.7,208.1c0-3.2-1.6-7.2-5.9-7.2c-5.5,0-10.3,7-13.7,13h-0.4l-2.3-12c4.7-1.9,10.3-4,16.6-4
			c9.1,0,16.7,4.3,16.7,12.5c0,7.1-5.7,13.6-12.3,19c-4.5,4.4-11.1,10.2-13.4,12h11.4c5.6,0,10.3-1.3,14.1-4.4l0.2,0.1l-1.9,12.4
			H42.8C56.3,231.4,66.7,218.4,66.7,208.1z"/>
		<path class="st1" d="M83.3,208.1c0-5.5,4.3-10.2,10.3-10.2c5.9,0,10.4,4.7,10.4,10.2c0,5.5-4.5,10.3-10.4,10.3
			C87.7,218.4,83.3,213.6,83.3,208.1z M99.6,208.1c0-3.2-2.5-6.1-6-6.1c-3.5,0-5.9,2.9-5.9,6.1s2.3,6.2,5.9,6.2
			C97.2,214.3,99.6,211.3,99.6,208.1z"/>
	</g>
</g>
<g>
	<rect x="773.3" y="239.8" class="st3" width="3.8" height="558"/>
</g>
<g>
	<circle class="st3" cx="775.2" cy="246.8" r="12.2"/>
</g>
</svg>
