<?xml version="1.0" encoding="utf-8"?>
<!-- Generator: Adobe Illustrator 26.0.1, SVG Export Plug-In . SVG Version: 6.00 Build 0)  -->
<svg version="1.1" id="Livello_1" xmlns="http://www.w3.org/2000/svg" xmlns:xlink="http://www.w3.org/1999/xlink" x="0px" y="0px"
	 viewBox="0 0 1745.1 640.3" style="enable-background:new 0 0 1745.1 640.3;" xml:space="preserve">
<style type="text/css">
	.st0{enable-background:new    ;}
	.st1{fill:#FFFFFF;}
	.st2{opacity:0.2;}
	.st3{opacity:0.5;}
	.st4{fill:#FA0000;}
</style>
<g class="st0">
	<path class="st1" d="M104.8,595.9c0,0.2,0,0.4,0,0.6v7.4c0,2.1,1,4.5,1.1,4.9v0.1h-3.2v-0.1c0.1-0.4,1.1-2.7,1.1-4.9v-7.4
		c0-1.5-0.7-3.1-0.8-3.4V593h4.1l4.6,11.6L116,593h3.9v0.1c-0.1,0.3-0.6,1.9-0.6,3.3v9c0,1.5,0.5,3.1,0.6,3.3v0.1h-4.4v-0.1
		c0.1-0.3,0.6-1.9,0.6-3.3v-9.6l-4.9,13H110L104.8,595.9z"/>
	<path class="st1" d="M121.2,605.6c0-2.4,2.4-3.8,5.1-3.5c0.6,0,1.2,0.2,1.7,0.3v-1.3c0-1.6-0.4-2.5-1.2-2.5c-1.3,0-4.4,2.4-4.6,2.8
		h-0.1v-3c1.9-0.5,3.7-0.8,4.9-0.8c2.9,0,4.1,1.5,4.1,3.6v4.6c0,1.2,0.4,1.8,1.4,1.3v0.1c-0.2,1-1,1.7-2.2,1.7s-2-0.6-2.2-1.7
		c-0.6,0.9-1.7,1.8-3.3,1.8C122.5,609.1,121.2,607.3,121.2,605.6z M126.5,607.4c0.6,0,1.1-0.3,1.5-0.7c0-0.1,0-0.2,0-0.3v-3.3
		c-0.1,0-0.3,0-0.4,0c-2.1-0.3-3.1,0.8-3.1,2.1S125.3,607.4,126.5,607.4z"/>
	<path class="st1" d="M137.7,608.9h-4.2v-0.1c0.1-0.3,0.6-1.9,0.6-3.3v-4.2c0-1.5-0.5-3.1-0.6-3.4v-0.1h3.7v2.1
		c0.8-1.7,2.3-2.9,4.6-2.1l-0.5,3.4h-0.1c-1-1-2.5-1.7-4-0.6v5C137.1,606.9,137.6,608.5,137.7,608.9L137.7,608.9z"/>
	<path class="st1" d="M142.3,603.4c0-3.5,2.3-5.7,5.5-5.7c3.6,0,5,2.6,5,5.4h-7.2c0.2,2.3,1.3,4,3.5,4c1.1,0,2.2-0.4,3.4-1.3h0.1
		c-0.6,1.6-2.3,3.3-4.9,3.3C145.1,609.1,142.3,607.2,142.3,603.4z M145.7,602.6l4.1-0.6c0-1.7-0.5-3.4-2-3.4c-1.6,0-2.1,1.9-2.1,3.8
		C145.7,602.4,145.7,602.5,145.7,602.6z"/>
	<path class="st1" d="M83.8,630.8l3.1-8.6c0.4-1.1-0.2-2.4-0.3-2.6v-0.1h3.9l4.6,12.3c0.6,1.5,1.1,2.6,1.7,3.5v0.1h-5.2v-0.1
		c0.1-0.3,0.5-2-0.1-3.5l-0.7-1.8H85l-0.4,1.1c-0.6,1.8,0.1,3.8,0.2,4.2v0.1h-3.1v-0.1C82.4,634.4,83.2,632.7,83.8,630.8z
		 M90.6,628.9L88,622l-2.5,6.9H90.6z"/>
	<path class="st1" d="M104.8,633.7c-0.9,1.4-2.2,1.8-3.4,1.8c-2.2,0-4.4-1.9-4.4-5.7s2.2-5.7,4.5-5.7c1.3,0,2.5,0.5,3.2,1.6v-3
		c0-1.5-0.7-3-0.9-3.3v-0.1l0.8-0.1l3.2-0.4v13c0,1.5,0.5,3.1,0.6,3.3v0.1h-2.9C105.3,634.7,105,634.3,104.8,633.7z M102.8,633.9
		c0.7,0,1.3-0.3,1.9-0.9c0-0.2,0-0.4,0-0.6v-5.8c-0.5-0.5-1.1-0.8-1.8-0.8c-1.7,0-2.5,1.7-2.5,3.9
		C100.4,631.8,101,633.9,102.8,633.9z"/>
	<path class="st1" d="M114.1,635.3h-4.2v-0.1c0.1-0.3,0.6-1.9,0.6-3.3v-4.2c0-1.5-0.5-3.1-0.6-3.4v-0.1h3.7v2.1
		c0.8-1.7,2.3-2.9,4.6-2.1l-0.5,3.4h-0.1c-1-1-2.5-1.7-4-0.6v5C113.5,633.3,114,634.9,114.1,635.3L114.1,635.3z"/>
	<path class="st1" d="M119.2,620.6c0-1.1,0.9-2,2-2s2,0.9,2,2s-0.9,1.9-2,1.9S119.2,621.6,119.2,620.6z M123.4,635.3h-4.2v-0.1
		c0.1-0.3,0.6-1.9,0.6-3.3v-4.2c0-1.5-0.5-3.1-0.6-3.4v-0.1h3.7v7.6C122.9,633.3,123.4,634.9,123.4,635.3L123.4,635.3z"/>
	<path class="st1" d="M124.7,632c0-2.4,2.4-3.8,5.1-3.5c0.6,0,1.2,0.2,1.7,0.3v-1.3c0-1.6-0.4-2.5-1.2-2.5c-1.3,0-4.4,2.4-4.6,2.8
		h-0.1v-3c1.9-0.5,3.7-0.8,4.9-0.8c2.9,0,4.1,1.5,4.1,3.6v4.6c0,1.2,0.4,1.8,1.4,1.3v0.1c-0.2,1-1,1.7-2.2,1.7s-2-0.6-2.2-1.7
		c-0.6,0.9-1.7,1.8-3.3,1.8C125.9,635.5,124.7,633.7,124.7,632z M130,633.8c0.6,0,1.1-0.3,1.5-0.7c0-0.1,0-0.2,0-0.3v-3.3
		c-0.1,0-0.3,0-0.4,0c-2.1-0.3-3.1,0.8-3.1,2.1C128,632.9,128.8,633.8,130,633.8z"/>
	<path class="st1" d="M137.6,632.1v-6.9H136v-0.9c2.2-0.9,3.5-2.2,4.6-3.8h0.1v3.7h3v0.9h-3v6.6c0,1.2,0.6,1.7,1.5,1.7
		c0.5,0,1.1-0.1,1.7-0.5c-0.5,1.3-1.6,2.6-3.4,2.6C138.6,635.5,137.6,634.2,137.6,632.1z"/>
	<path class="st1" d="M145.1,620.6c0-1.1,0.9-2,2-2s2,0.9,2,2s-0.9,1.9-2,1.9S145.1,621.6,145.1,620.6z M149.3,635.3h-4.2v-0.1
		c0.1-0.3,0.6-1.9,0.6-3.3v-4.2c0-1.5-0.5-3.1-0.6-3.4v-0.1h3.7v7.6C148.7,633.3,149.3,634.9,149.3,635.3L149.3,635.3z"/>
	<path class="st1" d="M150.5,629.8c0-3.6,2.3-5.7,5.6-5.7c1.8,0,3.3,0.7,4.2,1v3.3h-0.1c-0.8-1.3-2.4-3.4-4-3.4s-2.3,1.8-2.3,3.9
		c0,2.7,1.1,4.6,3.5,4.6c0.9,0,2.1-0.3,3.4-1.3l0.1,0.1c-0.6,1.6-2.3,3.2-4.8,3.2C153.3,635.5,150.5,633.6,150.5,629.8z"/>
	<path class="st1" d="M161.8,629.7c0-3.8,2.6-5.6,5.7-5.6c3.1,0,5.7,1.9,5.7,5.6c0,3.8-2.7,5.8-5.7,5.8S161.8,633.5,161.8,629.7z
		 M169.8,629.7c0-2.4-0.7-4.8-2.3-4.8s-2.2,2.4-2.2,4.8c0,2.4,0.6,4.9,2.2,4.9C169.1,634.6,169.8,632.1,169.8,629.7z"/>
</g>
<g transform="translate(164.44444444444443,0)">
	<g class="st0">
		<path class="st1" d="M177.5,595.6c0,0.2,0,0.4,0,0.6v7.4c0,2.1,1,4.5,1.1,4.9v0.1h-3.2v-0.1c0.1-0.4,1.1-2.7,1.1-4.9v-7.4
			c0-1.5-0.7-3.1-0.8-3.4v-0.1h4.1l4.6,11.6l4.3-11.6h3.9v0.1c-0.1,0.3-0.6,1.9-0.6,3.3v9c0,1.5,0.5,3.1,0.6,3.3v0.1h-4.4v-0.1
			c0.1-0.3,0.6-1.9,0.6-3.3v-9.6l-4.9,13h-1.2L177.5,595.6z"/>
		<path class="st1" d="M194,605.4c0-2.4,2.4-3.8,5.1-3.5c0.6,0,1.2,0.2,1.7,0.3v-1.3c0-1.6-0.4-2.5-1.2-2.5c-1.3,0-4.4,2.4-4.6,2.8
			h-0.1v-3c1.9-0.5,3.7-0.8,4.9-0.8c2.9,0,4.1,1.5,4.1,3.6v4.6c0,1.2,0.4,1.8,1.4,1.3v0.1c-0.2,1-1,1.7-2.2,1.7s-2-0.6-2.2-1.7
			c-0.6,0.9-1.7,1.8-3.3,1.8C195.2,608.8,194,607.1,194,605.4z M199.2,607.1c0.6,0,1.1-0.3,1.5-0.7c0-0.1,0-0.2,0-0.3v-3.3
			c-0.1,0-0.3,0-0.4,0c-2.1-0.3-3.1,0.8-3.1,2.1S198,607.1,199.2,607.1z"/>
		<path class="st1" d="M210.4,608.6h-4.2v-0.1c0.1-0.3,0.6-1.9,0.6-3.3V601c0-1.5-0.5-3.1-0.6-3.4v-0.1h3.7v2.1
			c0.8-1.7,2.3-2.9,4.6-2.1l-0.5,3.4h-0.1c-1-1-2.5-1.7-4-0.6v5C209.9,606.7,210.4,608.2,210.4,608.6L210.4,608.6z"/>
		<path class="st1" d="M215,603.1c0-3.5,2.3-5.7,5.5-5.7c3.6,0,5,2.6,5,5.4h-7.2c0.2,2.3,1.3,4,3.5,4c1.1,0,2.2-0.4,3.4-1.3h0.1
			c-0.6,1.6-2.3,3.3-4.9,3.3C217.8,608.8,215,606.9,215,603.1z M218.4,602.3l4.1-0.6c0-1.7-0.5-3.4-2-3.4c-1.6,0-2.1,1.9-2.1,3.8
			C218.4,602.1,218.4,602.2,218.4,602.3z"/>
		<path class="st1" d="M239.3,607c-0.9,1.4-2.2,1.8-3.4,1.8c-2.2,0-4.4-1.9-4.4-5.7s2.2-5.7,4.5-5.7c1.3,0,2.5,0.5,3.2,1.6v-3.1
			c0-1.5-0.7-3-0.9-3.3v-0.1l0.8-0.1l3.2-0.4v13c0,1.5,0.5,3.1,0.6,3.3v0.1H240C239.8,608.1,239.5,607.7,239.3,607z M237.3,607.2
			c0.7,0,1.3-0.3,1.9-0.9c0-0.2,0-0.4,0-0.6v-5.8c-0.5-0.5-1.1-0.8-1.8-0.8c-1.7,0-2.5,1.7-2.5,3.9
			C234.9,605.1,235.5,607.2,237.3,607.2z"/>
		<path class="st1" d="M244,603.1c0-3.5,2.3-5.7,5.5-5.7c3.6,0,5,2.6,5,5.4h-7.2c0.2,2.3,1.3,4,3.5,4c1.1,0,2.2-0.4,3.4-1.3h0.1
			c-0.6,1.6-2.3,3.3-4.9,3.3C246.8,608.8,244,606.9,244,603.1z M247.4,602.3l4.1-0.6c0-1.7-0.5-3.4-2-3.4c-1.6,0-2.1,1.9-2.1,3.8
			C247.4,602.1,247.4,602.2,247.4,602.3z"/>
		<path class="st1" d="M260,608.6h-4.2v-0.1c0-0.3,0.6-1.9,0.6-3.3V596c0-1.5-0.5-3-0.6-3.3v-0.1l0.6-0.1l3.2-0.4v13
			C259.4,606.7,259.9,608.2,260,608.6L260,608.6z"/>
		<path class="st1" d="M265.5,608.6h-4.2v-0.1c0-0.3,0.6-1.9,0.6-3.3V596c0-1.5-0.5-3-0.6-3.3v-0.1l0.6-0.1l3.2-0.4v13
			C264.9,606.7,265.4,608.2,265.5,608.6L265.5,608.6z"/>
		<path class="st1" d="M266.5,603.1c0-3.5,2.3-5.7,5.5-5.7c3.6,0,5,2.6,5,5.4h-7.2c0.2,2.3,1.3,4,3.5,4c1.1,0,2.2-0.4,3.4-1.3h0.1
			c-0.6,1.6-2.3,3.3-4.9,3.3C269.3,608.8,266.5,606.9,266.5,603.1z M269.9,602.3l4.1-0.6c0-1.7-0.5-3.4-2-3.4
			c-1.6,0-2.1,1.9-2.1,3.8C269.9,602.1,269.9,602.2,269.9,602.3z"/>
		<path class="st1" d="M191.9,619.2h7.1c2.9,0,5,1.8,5,4.1c0,2-1.5,3.1-3.2,3.6c2,0.5,3.9,1.6,3.9,4c0,2.8-2.6,4.1-5.5,4.1h-7.3
			v-0.1c0.1-0.3,0.6-1.9,0.6-3.3v-9C192.4,621.1,191.9,619.6,191.9,619.2L191.9,619.2z M200.5,623.3c0-1.5-0.9-3.1-2.7-3.1h-2.1v6.4
			h2.1C199.6,626.5,200.5,624.9,200.5,623.3z M201.3,630.9c0-2-1.1-3.4-3.2-3.4h-2.4v6.6h2.4C200.3,634.1,201.3,632.9,201.3,630.9z"
			/>
		<path class="st1" d="M205.9,631.8c0-2.4,2.4-3.8,5.1-3.5c0.6,0,1.2,0.2,1.7,0.3v-1.3c0-1.6-0.4-2.5-1.2-2.5
			c-1.3,0-4.4,2.4-4.6,2.8h-0.1v-3c1.9-0.5,3.7-0.8,4.9-0.8c2.9,0,4.1,1.5,4.1,3.6v4.6c0,1.2,0.4,1.8,1.4,1.3v0.1
			c-0.2,1-1,1.7-2.2,1.7s-2-0.6-2.2-1.7c-0.6,0.9-1.7,1.8-3.3,1.8C207.1,635.2,205.9,633.5,205.9,631.8z M211.1,633.5
			c0.6,0,1.1-0.3,1.5-0.7c0-0.1,0-0.2,0-0.3v-3.3c-0.1,0-0.3,0-0.4,0c-2.1-0.3-3.1,0.8-3.1,2.1C209.1,632.6,209.9,633.5,211.1,633.5
			z"/>
		<path class="st1" d="M222.3,635H218v-0.1c0-0.3,0.6-1.9,0.6-3.3v-9.2c0-1.5-0.5-3-0.6-3.3V619l0.6-0.1l3.2-0.4v13
			C221.7,633.1,222.2,634.6,222.3,635L222.3,635z"/>
		<path class="st1" d="M223.3,629.5c0-3.5,2.3-5.7,5.5-5.7c3.6,0,5,2.6,5,5.4h-7.2c0.2,2.3,1.3,4,3.5,4c1.1,0,2.2-0.4,3.4-1.3h0.1
			c-0.6,1.6-2.3,3.3-4.9,3.3C226.1,635.2,223.3,633.3,223.3,629.5z M226.7,628.7l4.1-0.6c0-1.7-0.5-3.4-2-3.4
			c-1.6,0-2.1,1.9-2.1,3.8C226.7,628.5,226.7,628.6,226.7,628.7z"/>
		<path class="st1" d="M235,631.8c0-2.4,2.4-3.8,5.1-3.5c0.6,0,1.2,0.2,1.7,0.3v-1.3c0-1.6-0.4-2.5-1.2-2.5c-1.3,0-4.4,2.4-4.6,2.8
			h-0.1v-3c1.9-0.5,3.7-0.8,4.9-0.8c2.9,0,4.1,1.5,4.1,3.6v4.6c0,1.2,0.4,1.8,1.4,1.3v0.1c-0.2,1-1,1.7-2.2,1.7s-2-0.6-2.2-1.7
			c-0.6,0.9-1.7,1.8-3.3,1.8C236.3,635.2,235,633.5,235,631.8z M240.3,633.5c0.6,0,1.1-0.3,1.5-0.7c0-0.1,0-0.2,0-0.3v-3.3
			c-0.1,0-0.3,0-0.4,0c-2.1-0.3-3.1,0.8-3.1,2.1C238.3,632.6,239.1,633.5,240.3,633.5z"/>
		<path class="st1" d="M251.5,635h-4.2v-0.1c0.1-0.3,0.6-1.9,0.6-3.3v-4.2c0-1.5-0.5-3.1-0.6-3.4v-0.1h3.7v2.1
			c0.8-1.7,2.3-2.9,4.6-2.1l-0.5,3.4H255c-1-1-2.5-1.7-4-0.6v5C250.9,633.1,251.4,634.6,251.5,635L251.5,635z"/>
		<path class="st1" d="M256.6,620.3c0-1.1,0.9-2,2-2s2,0.9,2,2s-0.9,1.9-2,1.9S256.6,621.4,256.6,620.3z M260.8,635h-4.2v-0.1
			c0.1-0.3,0.6-1.9,0.6-3.3v-4.2c0-1.5-0.5-3.1-0.6-3.4v-0.1h3.7v7.6C260.3,633.1,260.8,634.6,260.8,635L260.8,635z"/>
	</g>
</g>
<g>
	<g class="st0">
		<path class="st1" d="M222.3,595.6c0,0.2,0,0.4,0,0.6v7.4c0,2.1,1,4.5,1.1,4.9v0.1h-3.2v-0.1c0.1-0.4,1.1-2.7,1.1-4.9v-7.4
			c0-1.5-0.7-3.1-0.8-3.4v-0.1h4.1l4.6,11.6l4.3-11.6h3.9v0.1c-0.1,0.3-0.6,1.9-0.6,3.3v9c0,1.5,0.5,3.1,0.6,3.3v0.1H233v-0.1
			c0.1-0.3,0.6-1.9,0.6-3.3v-9.6l-4.9,13h-1.2L222.3,595.6z"/>
		<path class="st1" d="M238.8,605.4c0-2.4,2.4-3.8,5.1-3.5c0.6,0,1.2,0.2,1.7,0.3v-1.3c0-1.6-0.4-2.5-1.2-2.5
			c-1.3,0-4.4,2.4-4.6,2.8h-0.1v-3c1.9-0.5,3.7-0.8,4.9-0.8c2.9,0,4.1,1.5,4.1,3.6v4.6c0,1.2,0.4,1.8,1.4,1.3v0.1
			c-0.2,1-1,1.7-2.2,1.7s-2-0.6-2.2-1.7c-0.6,0.9-1.7,1.8-3.3,1.8C240,608.8,238.8,607.1,238.8,605.4z M244,607.1
			c0.6,0,1.1-0.3,1.5-0.7c0-0.1,0-0.2,0-0.3v-3.3c-0.1,0-0.3,0-0.4,0c-2.1-0.3-3.1,0.8-3.1,2.1S242.8,607.1,244,607.1z"/>
		<path class="st1" d="M255.2,608.6H251v-0.1c0.1-0.3,0.6-1.9,0.6-3.3V601c0-1.5-0.5-3.1-0.6-3.4v-0.1h3.7v2.1
			c0.8-1.7,2.3-2.9,4.6-2.1l-0.5,3.4h-0.1c-1-1-2.5-1.7-4-0.6v5C254.7,606.7,255.2,608.2,255.2,608.6L255.2,608.6z"/>
		<path class="st1" d="M259.8,603.1c0-3.5,2.3-5.7,5.5-5.7c3.6,0,5,2.6,5,5.4h-7.2c0.2,2.3,1.3,4,3.5,4c1.1,0,2.2-0.4,3.4-1.3h0.1
			c-0.6,1.6-2.3,3.3-4.9,3.3C262.6,608.8,259.8,606.9,259.8,603.1z M263.2,602.3l4.1-0.6c0-1.7-0.5-3.4-2-3.4
			c-1.6,0-2.1,1.9-2.1,3.8C263.2,602.1,263.2,602.2,263.2,602.3z"/>
		<path class="st1" d="M284.1,607c-0.9,1.4-2.2,1.8-3.4,1.8c-2.2,0-4.4-1.9-4.4-5.7s2.2-5.7,4.5-5.7c1.3,0,2.5,0.5,3.2,1.6v-3.1
			c0-1.5-0.7-3-0.9-3.3v-0.1l0.8-0.1l3.2-0.4v13c0,1.5,0.5,3.1,0.6,3.3v0.1h-2.9C284.6,608.1,284.3,607.7,284.1,607z M282.1,607.2
			c0.7,0,1.3-0.3,1.9-0.9c0-0.2,0-0.4,0-0.6v-5.8c-0.5-0.5-1.1-0.8-1.8-0.8c-1.7,0-2.5,1.7-2.5,3.9
			C279.7,605.1,280.3,607.2,282.1,607.2z"/>
		<path class="st1" d="M289.2,593.9c0-1.1,0.9-2,2-2s2,0.9,2,2s-0.9,1.9-2,1.9S289.2,595,289.2,593.9z M293.5,608.6h-4.2v-0.1
			c0.1-0.3,0.6-1.9,0.6-3.3V601c0-1.5-0.5-3.1-0.6-3.4v-0.1h3.7v7.6C292.9,606.7,293.4,608.2,293.5,608.6L293.5,608.6z"/>
		<path class="st1" d="M221.5,630.5l3.1-8.6c0.4-1.1-0.2-2.4-0.3-2.6v-0.1h3.9l4.6,12.3c0.6,1.5,1.1,2.6,1.7,3.5v0.1h-5.2V635
			c0.1-0.3,0.5-2-0.1-3.5l-0.7-1.8h-5.8l-0.4,1.1c-0.6,1.8,0.1,3.8,0.2,4.2v0.1h-3.1V635C220,634.1,220.8,632.4,221.5,630.5z
			 M228.3,628.7l-2.6-6.9l-2.5,6.9H228.3z"/>
		<path class="st1" d="M239.6,635h-4.2v-0.1c0-0.3,0.6-1.9,0.6-3.3v-9.2c0-1.5-0.5-3-0.6-3.3V619l0.6-0.1l3.2-0.4v13
			C239.1,633.1,239.6,634.6,239.6,635L239.6,635z"/>
		<path class="st1" d="M244.6,634.1l-3.1,1.1v-12.7c0-1.5-0.5-3-0.6-3.3v-0.1l0.5-0.1l3.2-0.4v6.9c0.7-1.1,1.9-1.6,3.2-1.6
			c2.3,0,4.3,1.8,4.3,5.5c0,4-2.4,5.9-4.7,5.9C246.6,635.2,245.5,634.9,244.6,634.1z M244.7,626.4v6.9c0.5,0.3,1,0.4,1.4,0.4
			c2,0,2.7-2.1,2.7-4.3c0-2-0.7-3.7-2.4-3.7C245.8,625.6,245.2,625.9,244.7,626.4z"/>
		<path class="st1" d="M253.5,629.5c0-3.8,2.6-5.6,5.7-5.6s5.7,1.9,5.7,5.6c0,3.8-2.7,5.8-5.7,5.8
			C256.2,635.2,253.5,633.3,253.5,629.5z M261.5,629.5c0-2.4-0.7-4.8-2.3-4.8c-1.6,0-2.2,2.4-2.2,4.8c0,2.4,0.6,4.9,2.2,4.9
			C260.9,634.4,261.5,631.9,261.5,629.5z"/>
		<path class="st1" d="M270.3,635H266v-0.1c0.1-0.3,0.6-1.9,0.6-3.3v-4.2c0-1.5-0.5-3.1-0.6-3.4v-0.1h3.7v2.1
			c0.8-1.7,2.3-2.9,4.6-2.1l-0.5,3.4h-0.1c-1-1-2.5-1.7-4-0.6v5C269.7,633.1,270.2,634.6,270.3,635L270.3,635z"/>
		<path class="st1" d="M275.1,631.8c0-2.4,2.4-3.8,5.1-3.5c0.6,0,1.2,0.2,1.7,0.3v-1.3c0-1.6-0.4-2.5-1.2-2.5
			c-1.3,0-4.4,2.4-4.6,2.8H276v-3c1.9-0.5,3.7-0.8,4.9-0.8c2.9,0,4.1,1.5,4.1,3.6v4.6c0,1.2,0.4,1.8,1.4,1.3v0.1
			c-0.2,1-1,1.7-2.2,1.7s-2-0.6-2.2-1.7c-0.6,0.9-1.7,1.8-3.3,1.8C276.3,635.2,275.1,633.5,275.1,631.8z M277.1,622l4.9-3.7l2,2.1
			l-6.6,2L277.1,622z M280.3,633.5c0.6,0,1.1-0.3,1.5-0.7c0-0.1,0-0.2,0-0.3v-3.3c-0.1,0-0.3,0-0.4,0c-2.1-0.3-3.1,0.8-3.1,2.1
			C278.3,632.6,279.1,633.5,280.3,633.5z"/>
		<path class="st1" d="M291.5,635h-4.2v-0.1c0.1-0.3,0.6-1.9,0.6-3.3v-4.2c0-1.5-0.5-3.1-0.6-3.4v-0.1h3.7v1.9c0.7-1.1,1.9-2,3.5-2
			c1.9,0,3.6,1.2,3.6,3.7v4.1c0,1.5,0.5,3.1,0.5,3.3v0.1h-4.2v-0.1c0.1-0.3,0.6-1.9,0.6-3.3v-3.7c0-1.6-0.9-2.2-2-2.2
			c-0.7,0-1.4,0.3-2.1,0.8v5C290.9,633.1,291.4,634.6,291.5,635L291.5,635z"/>
	</g>
</g>
<g>
	<g class="st0">
		<path class="st1" d="M493.3,595.6c0,0.2,0,0.4,0,0.6v7.4c0,2.1,1,4.5,1.1,4.9v0.1h-3.2v-0.1c0.1-0.4,1.1-2.7,1.1-4.9v-7.4
			c0-1.5-0.7-3.1-0.8-3.4v-0.1h4.1l4.6,11.6l4.3-11.6h3.9v0.1c-0.1,0.3-0.6,1.9-0.6,3.3v9c0,1.5,0.5,3.1,0.6,3.3v0.1H504v-0.1
			c0.1-0.3,0.6-1.9,0.6-3.3v-9.6l-4.9,13h-1.2L493.3,595.6z"/>
		<path class="st1" d="M509.7,605.4c0-2.4,2.4-3.8,5.1-3.5c0.6,0,1.2,0.2,1.7,0.3v-1.3c0-1.6-0.4-2.5-1.2-2.5
			c-1.3,0-4.4,2.4-4.6,2.8h-0.1v-3c1.9-0.5,3.7-0.8,4.9-0.8c2.9,0,4.1,1.5,4.1,3.6v4.6c0,1.2,0.4,1.8,1.4,1.3v0.1
			c-0.2,1-1,1.7-2.2,1.7s-2-0.6-2.2-1.7c-0.6,0.9-1.7,1.8-3.3,1.8C510.9,608.8,509.7,607.1,509.7,605.4z M514.9,607.1
			c0.6,0,1.1-0.3,1.5-0.7c0-0.1,0-0.2,0-0.3v-3.3c-0.1,0-0.3,0-0.4,0c-2.1-0.3-3.1,0.8-3.1,2.1S513.8,607.1,514.9,607.1z"/>
		<path class="st1" d="M526.1,608.6h-4.2v-0.1c0.1-0.3,0.6-1.9,0.6-3.3V601c0-1.5-0.5-3.1-0.6-3.4v-0.1h3.7v2.1
			c0.8-1.7,2.3-2.9,4.6-2.1l-0.5,3.4h-0.1c-1-1-2.5-1.7-4-0.6v5C525.6,606.7,526.1,608.2,526.1,608.6L526.1,608.6z"/>
		<path class="st1" d="M543.6,607c-0.9,1.4-2.2,1.8-3.4,1.8c-2.2,0-4.4-1.9-4.4-5.7s2.2-5.7,4.5-5.7c1.3,0,2.5,0.5,3.2,1.6v-3.1
			c0-1.5-0.7-3-0.9-3.3v-0.1l0.8-0.1l3.2-0.4v13c0,1.5,0.5,3.1,0.6,3.3v0.1h-2.9C544,608.1,543.7,607.7,543.6,607z M541.6,607.2
			c0.7,0,1.3-0.3,1.9-0.9c0-0.2,0-0.4,0-0.6v-5.8c-0.5-0.5-1.1-0.8-1.8-0.8c-1.7,0-2.5,1.7-2.5,3.9
			C539.1,605.1,539.7,607.2,541.6,607.2z"/>
		<path class="st1" d="M548.7,593.9c0-1.1,0.9-2,2-2s2,0.9,2,2s-0.9,1.9-2,1.9S548.7,595,548.7,593.9z M552.9,608.6h-4.2v-0.1
			c0.1-0.3,0.6-1.9,0.6-3.3V601c0-1.5-0.5-3.1-0.6-3.4v-0.1h3.7v7.6C552.3,606.7,552.8,608.2,552.9,608.6L552.9,608.6z"/>
		<path class="st1" d="M485,627.1c0-4.9,3.3-8.2,7.7-8.2c1.5,0,3.4,0.4,5.3,1v3.9h-0.1c-1.1-1.7-2.9-3.9-4.8-3.9
			c-2.4,0-4.3,3.1-4.3,7.2c0,4.1,2,7.2,4.3,7.2c1.7,0,3.5-1.9,4.8-3.9h0.1v3.9c-1.8,0.6-3.6,1-5.4,1C488.3,635.3,485,632,485,627.1z
			"/>
		<path class="st1" d="M499.4,629.5c0-3.8,2.6-5.6,5.7-5.6s5.7,1.9,5.7,5.6c0,3.8-2.7,5.8-5.7,5.8
			C502,635.2,499.4,633.3,499.4,629.5z M507.3,629.5c0-2.4-0.7-4.8-2.3-4.8c-1.6,0-2.2,2.4-2.2,4.8c0,2.4,0.6,4.9,2.2,4.9
			C506.7,634.4,507.3,631.9,507.3,629.5z"/>
		<path class="st1" d="M516.1,635h-4.2v-0.1c0.1-0.3,0.6-1.9,0.6-3.3v-4.2c0-1.5-0.5-3.1-0.6-3.4v-0.1h3.7v2.1
			c0.8-1.7,2.3-2.9,4.6-2.1l-0.5,3.4h-0.1c-1-1-2.5-1.7-4-0.6v5C515.5,633.1,516,634.6,516.1,635L516.1,635z"/>
		<path class="st1" d="M521.2,634.3v-3h0.1c1.3,1.3,2.8,3,4.4,3c0.9,0,1.7-0.5,1.7-1.4c0-1.1-1.1-1.4-2.9-2.1
			c-2.3-0.8-3.6-1.9-3.6-3.7c0-2.1,1.8-3.3,4.6-3.3c1,0,2.5,0.2,4,0.8v2.9h-0.1c-1.2-1.4-2.6-2.8-4.2-2.8c-0.8,0-1.7,0.4-1.7,1.3
			c0,1,1.2,1.4,2.9,2c2.6,0.9,3.5,2,3.5,3.6c0,2.5-2.1,3.6-4.4,3.6C524.5,635.2,523,635,521.2,634.3z"/>
		<path class="st1" d="M531.5,620.3c0-1.1,0.9-2,2-2s2,0.9,2,2s-0.9,1.9-2,1.9S531.5,621.4,531.5,620.3z M535.7,635h-4.2v-0.1
			c0.1-0.3,0.6-1.9,0.6-3.3v-4.2c0-1.5-0.5-3.1-0.6-3.4v-0.1h3.7v7.6C535.1,633.1,535.6,634.6,535.7,635L535.7,635z"/>
		<path class="st1" d="M536.9,629.5c0-3.6,2.3-5.7,5.6-5.7c1.8,0,3.3,0.7,4.2,1v3.3h-0.1c-0.8-1.3-2.4-3.4-4-3.4s-2.3,1.8-2.3,3.9
			c0,2.7,1.1,4.6,3.5,4.6c0.9,0,2.1-0.3,3.4-1.3l0.1,0.1c-0.6,1.6-2.3,3.2-4.8,3.2C539.7,635.2,536.9,633.4,536.9,629.5z"/>
		<path class="st1" d="M548.3,631.8c0-2.4,2.4-3.8,5.1-3.5c0.6,0,1.2,0.2,1.7,0.3v-1.3c0-1.6-0.4-2.5-1.2-2.5
			c-1.3,0-4.4,2.4-4.6,2.8h-0.1v-3c1.9-0.5,3.7-0.8,4.9-0.8c2.9,0,4.1,1.5,4.1,3.6v4.6c0,1.2,0.4,1.8,1.4,1.3v0.1
			c-0.2,1-1,1.7-2.2,1.7s-2-0.6-2.2-1.7c-0.6,0.9-1.7,1.8-3.3,1.8C549.5,635.2,548.3,633.5,548.3,631.8z M553.5,633.5
			c0.6,0,1.1-0.3,1.5-0.7c0-0.1,0-0.2,0-0.3v-3.3c-0.1,0-0.3,0-0.4,0c-2.1-0.3-3.1,0.8-3.1,2.1C551.5,632.6,552.4,633.5,553.5,633.5
			z"/>
	</g>
</g>
<g>
	<g class="st0">
		<path class="st1" d="M633.8,595.6c0,0.2,0,0.4,0,0.6v7.4c0,2.1,1,4.5,1.1,4.9v0.1h-3.2v-0.1c0.1-0.4,1.1-2.7,1.1-4.9v-7.4
			c0-1.5-0.7-3.1-0.8-3.4v-0.1h4.1l4.6,11.6l4.3-11.6h3.9v0.1c-0.1,0.3-0.6,1.9-0.6,3.3v9c0,1.5,0.5,3.1,0.6,3.3v0.1h-4.4v-0.1
			c0.1-0.3,0.6-1.9,0.6-3.3v-9.6l-4.9,13H639L633.8,595.6z"/>
		<path class="st1" d="M650.3,605.4c0-2.4,2.4-3.8,5.1-3.5c0.6,0,1.2,0.2,1.7,0.3v-1.3c0-1.6-0.4-2.5-1.2-2.5
			c-1.3,0-4.4,2.4-4.6,2.8h-0.1v-3c1.9-0.5,3.7-0.8,4.9-0.8c2.9,0,4.1,1.5,4.1,3.6v4.6c0,1.2,0.4,1.8,1.4,1.3v0.1
			c-0.2,1-1,1.7-2.2,1.7s-2-0.6-2.2-1.7c-0.6,0.9-1.7,1.8-3.3,1.8C651.5,608.8,650.3,607.1,650.3,605.4z M655.5,607.1
			c0.6,0,1.1-0.3,1.5-0.7c0-0.1,0-0.2,0-0.3v-3.3c-0.1,0-0.3,0-0.4,0c-2.1-0.3-3.1,0.8-3.1,2.1S654.3,607.1,655.5,607.1z"/>
		<path class="st1" d="M666.7,608.6h-4.2v-0.1c0.1-0.3,0.6-1.9,0.6-3.3V601c0-1.5-0.5-3.1-0.6-3.4v-0.1h3.7v2.1
			c0.8-1.7,2.3-2.9,4.6-2.1l-0.5,3.4h-0.1c-1-1-2.5-1.7-4-0.6v5C666.1,606.7,666.6,608.2,666.7,608.6L666.7,608.6z"/>
		<path class="st1" d="M634,627.3v6.8h3.1c1.9,0,3.9-2.7,4.3-2.8h0.1v3.7h-11.4v-0.1c0.1-0.3,0.6-1.9,0.6-3.3v-9
			c0-1.5-0.5-3.1-0.6-3.3v-0.1h11.3v3.7h-0.1c-0.4-0.2-2.4-2.8-4.3-2.8h-3v6.4h1.3c1.8,0,3.9-1,4.2-1.1h0.1v2.9h-0.1
			c-0.3-0.1-2.3-1.1-4.2-1.1L634,627.3L634,627.3z"/>
		<path class="st1" d="M645.7,631.3c-0.5,0.2-0.9,0.5-0.9,0.9c0,0.6,0.7,0.6,1.5,0.6h3.6c2.2,0,3.5,1.2,3.5,3.1
			c0,2.9-3.2,3.4-5.7,3.4c-1.6,0-5-0.3-5-2.5c0-0.7,0.3-1.3,0.8-1.7c-0.5-0.5-0.7-1.1-0.7-1.7c0-1.3,0.8-2.1,2.1-2.4
			c-1.2-0.6-2.2-1.7-2.2-3.3c0-2.6,2.6-3.9,4.8-3.9c0.9,0,1.8,0.2,2.6,0.6c0.6-1.3,1.7-2.2,3.5-2l-0.5,2.4l0,0
			c-0.7-0.4-1.5-0.5-2.5-0.2c1,0.6,1.8,1.7,1.8,3.1c0,2.6-2.6,3.9-4.8,3.9C646.9,631.6,646.3,631.5,645.7,631.3z M648,638.5
			c1.7,0,3.4-0.6,3.4-1.6c0-0.6-0.5-1.1-1.6-1.1h-3.7c-0.6,0-1.1-0.1-1.6-0.2c0,0.1,0,0.2,0,0.2C644.5,637.3,645.4,638.5,648,638.5z
			 M649.3,627.7c0-1.7-0.6-3.1-1.8-3.1c-1.1,0-1.7,1.4-1.7,3.1c0,1.6,0.6,3.1,1.7,3.1C648.7,630.8,649.3,629.4,649.3,627.7z"/>
		<path class="st1" d="M653.9,629.5c0-3.5,2.3-5.7,5.5-5.7c3.6,0,5,2.6,5,5.4h-7.2c0.2,2.3,1.3,4,3.5,4c1.1,0,2.2-0.4,3.4-1.3h0.1
			c-0.6,1.6-2.3,3.3-4.9,3.3C656.6,635.2,653.9,633.3,653.9,629.5z M657.3,628.7l4.1-0.6c0-1.7-0.5-3.4-2-3.4
			c-1.6,0-2.1,1.9-2.1,3.8C657.3,628.5,657.3,628.6,657.3,628.7z"/>
		<path class="st1" d="M665.7,629.5c0-3.8,2.6-5.6,5.7-5.6c3.1,0,5.7,1.9,5.7,5.6c0,3.8-2.7,5.8-5.7,5.8
			C668.4,635.2,665.7,633.3,665.7,629.5z M673.7,629.5c0-2.4-0.7-4.8-2.3-4.8s-2.2,2.4-2.2,4.8c0,2.4,0.6,4.9,2.2,4.9
			C673.1,634.4,673.7,631.9,673.7,629.5z"/>
	</g>
</g>
<g>
	<g class="st0">
		<path class="st1" d="M765.5,595.6c0,0.2,0,0.4,0,0.6v7.4c0,2.1,1,4.5,1.1,4.9v0.1h-3.2v-0.1c0.1-0.4,1.1-2.7,1.1-4.9v-7.4
			c0-1.5-0.7-3.1-0.8-3.4v-0.1h4.1l4.6,11.6l4.3-11.6h3.9v0.1c-0.1,0.3-0.6,1.9-0.6,3.3v9c0,1.5,0.5,3.1,0.6,3.3v0.1h-4.4v-0.1
			c0.1-0.3,0.6-1.9,0.6-3.3v-9.6l-4.9,13h-1.2L765.5,595.6z"/>
		<path class="st1" d="M781.9,605.4c0-2.4,2.4-3.8,5.1-3.5c0.6,0,1.2,0.2,1.7,0.3v-1.3c0-1.6-0.4-2.5-1.2-2.5
			c-1.3,0-4.4,2.4-4.6,2.8h-0.1v-3c1.9-0.5,3.7-0.8,4.9-0.8c2.9,0,4.1,1.5,4.1,3.6v4.6c0,1.2,0.4,1.8,1.4,1.3v0.1
			c-0.2,1-1,1.7-2.2,1.7s-2-0.6-2.2-1.7c-0.6,0.9-1.7,1.8-3.3,1.8C783.1,608.8,781.9,607.1,781.9,605.4z M787.1,607.1
			c0.6,0,1.1-0.3,1.5-0.7c0-0.1,0-0.2,0-0.3v-3.3c-0.1,0-0.3,0-0.4,0c-2.1-0.3-3.1,0.8-3.1,2.1S786,607.1,787.1,607.1z"/>
		<path class="st1" d="M798.3,608.6h-4.2v-0.1c0.1-0.3,0.6-1.9,0.6-3.3V601c0-1.5-0.5-3.1-0.6-3.4v-0.1h3.7v2.1
			c0.8-1.7,2.3-2.9,4.6-2.1l-0.5,3.4h-0.1c-1-1-2.5-1.7-4-0.6v5C797.8,606.7,798.3,608.2,798.3,608.6L798.3,608.6z"/>
		<path class="st1" d="M765.8,635h-4.4v-0.1c0.1-0.3,0.6-1.9,0.6-3.3v-9c0-1.5-0.5-3.1-0.6-3.3v-0.1h4.4v0.1c0,0.3-0.6,1.9-0.6,3.3
			v9C765.3,633.1,765.8,634.6,765.8,635L765.8,635z"/>
		<path class="st1" d="M767.2,629.5c0-3.8,2.6-5.6,5.7-5.6c3.1,0,5.7,1.9,5.7,5.6c0,3.8-2.7,5.8-5.7,5.8
			C769.9,635.2,767.2,633.3,767.2,629.5z M775.2,629.5c0-2.4-0.7-4.8-2.3-4.8s-2.2,2.4-2.2,4.8c0,2.4,0.6,4.9,2.2,4.9
			C774.6,634.4,775.2,631.9,775.2,629.5z"/>
		<path class="st1" d="M784,635h-4.2v-0.1c0.1-0.3,0.6-1.9,0.6-3.3v-4.2c0-1.5-0.5-3.1-0.6-3.4v-0.1h3.7v1.9c0.7-1.1,1.9-2,3.5-2
			c1.9,0,3.6,1.2,3.6,3.7v4.1c0,1.5,0.5,3.1,0.5,3.3v0.1h-4.2v-0.1c0.1-0.3,0.6-1.9,0.6-3.3v-3.7c0-1.6-0.9-2.2-2-2.2
			c-0.7,0-1.4,0.3-2.1,0.8v5C783.4,633.1,783.9,634.6,784,635L784,635z"/>
		<path class="st1" d="M792.6,620.3c0-1.1,0.9-2,2-2s2,0.9,2,2s-0.9,1.9-2,1.9S792.6,621.4,792.6,620.3z M796.8,635h-4.2v-0.1
			c0.1-0.3,0.6-1.9,0.6-3.3v-4.2c0-1.5-0.5-3.1-0.6-3.4v-0.1h3.7v7.6C796.2,633.1,796.7,634.6,796.8,635L796.8,635z"/>
		<path class="st1" d="M798,629.5c0-3.8,2.6-5.6,5.7-5.6c3.1,0,5.7,1.9,5.7,5.6c0,3.8-2.7,5.8-5.7,5.8
			C800.6,635.2,798,633.3,798,629.5z M806,629.5c0-2.4-0.7-4.8-2.3-4.8s-2.2,2.4-2.2,4.8c0,2.4,0.6,4.9,2.2,4.9
			C805.3,634.4,806,631.9,806,629.5z"/>
	</g>
</g>
<g>
	<g class="st0">
		<path class="st1" d="M1028,595.6c0,0.2,0,0.4,0,0.6v7.4c0,2.1,1,4.5,1.1,4.9v0.1h-3.2v-0.1c0.1-0.4,1.1-2.7,1.1-4.9v-7.4
			c0-1.5-0.7-3.1-0.8-3.4v-0.1h4.1l4.6,11.6l4.3-11.6h3.9v0.1c-0.1,0.3-0.6,1.9-0.6,3.3v9c0,1.5,0.5,3.1,0.6,3.3v0.1h-4.4v-0.1
			c0.1-0.3,0.6-1.9,0.6-3.3v-9.6l-4.9,13h-1.2L1028,595.6z"/>
		<path class="st1" d="M1044.4,605.4c0-2.4,2.4-3.8,5.1-3.5c0.6,0,1.2,0.2,1.7,0.3v-1.3c0-1.6-0.4-2.5-1.2-2.5
			c-1.3,0-4.4,2.4-4.6,2.8h-0.1v-3c1.9-0.5,3.7-0.8,4.9-0.8c2.9,0,4.1,1.5,4.1,3.6v4.6c0,1.2,0.4,1.8,1.4,1.3v0.1
			c-0.2,1-1,1.7-2.2,1.7s-2-0.6-2.2-1.7c-0.6,0.9-1.7,1.8-3.3,1.8C1045.6,608.8,1044.4,607.1,1044.4,605.4z M1049.7,607.1
			c0.6,0,1.1-0.3,1.5-0.7c0-0.1,0-0.2,0-0.3v-3.3c-0.1,0-0.3,0-0.4,0c-2.1-0.3-3.1,0.8-3.1,2.1S1048.5,607.1,1049.7,607.1z"/>
		<path class="st1" d="M1060.9,608.6h-4.2v-0.1c0.1-0.3,0.6-1.9,0.6-3.3V601c0-1.5-0.5-3.1-0.6-3.4v-0.1h3.7v2.1
			c0.8-1.7,2.3-2.9,4.6-2.1l-0.5,3.4h-0.1c-1-1-2.5-1.7-4-0.6v5C1060.3,606.7,1060.8,608.2,1060.9,608.6L1060.9,608.6z"/>
		<path class="st1" d="M1022.5,622.6v11.5h2.5c1.9,0,3.9-2.9,4.3-3.2h0.1v4.1h-10.8v-0.1c0.1-0.3,0.6-1.9,0.6-3.3v-9
			c0-1.5-0.5-3.1-0.6-3.3v-0.1h4.4v0.1C1023,619.6,1022.5,621.1,1022.5,622.6z"/>
		<path class="st1" d="M1030.7,620.3c0-1.1,0.9-2,2-2s2,0.9,2,2s-0.9,1.9-2,1.9S1030.7,621.4,1030.7,620.3z M1034.9,635h-4.2v-0.1
			c0.1-0.3,0.6-1.9,0.6-3.3v-4.2c0-1.5-0.5-3.1-0.6-3.4v-0.1h3.7v7.6C1034.3,633.1,1034.8,634.6,1034.9,635L1034.9,635z"/>
		<path class="st1" d="M1039.8,634.1l-3.1,1.1v-12.7c0-1.5-0.5-3-0.6-3.3v-0.1l0.5-0.1l3.2-0.4v6.9c0.7-1.1,1.9-1.6,3.2-1.6
			c2.3,0,4.3,1.8,4.3,5.5c0,4-2.4,5.9-4.7,5.9C1041.8,635.2,1040.7,634.9,1039.8,634.1z M1039.9,626.4v6.9c0.5,0.3,1,0.4,1.4,0.4
			c2,0,2.7-2.1,2.7-4.3c0-2-0.7-3.7-2.4-3.7C1041,625.6,1040.4,625.9,1039.9,626.4z"/>
		<path class="st1" d="M1048.8,620.3c0-1.1,0.9-2,2-2s2,0.9,2,2s-0.9,1.9-2,1.9C1049.8,622.2,1048.8,621.4,1048.8,620.3z
			 M1053.1,635h-4.2v-0.1c0.1-0.3,0.6-1.9,0.6-3.3v-4.2c0-1.5-0.5-3.1-0.6-3.4v-0.1h3.7v7.6C1052.5,633.1,1053,634.6,1053.1,635
			L1053.1,635z"/>
		<path class="st1" d="M1054.2,629.5c0-3.6,2.3-5.7,5.6-5.7c1.8,0,3.3,0.7,4.2,1v3.3h-0.1c-0.8-1.3-2.4-3.4-4-3.4s-2.3,1.8-2.3,3.9
			c0,2.7,1.1,4.6,3.5,4.6c0.9,0,2.1-0.3,3.4-1.3l0.1,0.1c-0.6,1.6-2.3,3.2-4.8,3.2C1057,635.2,1054.2,633.4,1054.2,629.5z"/>
		<path class="st1" d="M1065.6,629.5c0-3.8,2.6-5.6,5.7-5.6s5.7,1.9,5.7,5.6c0,3.8-2.7,5.8-5.7,5.8
			C1068.2,635.2,1065.6,633.3,1065.6,629.5z M1073.5,629.5c0-2.4-0.7-4.8-2.3-4.8c-1.6,0-2.2,2.4-2.2,4.8c0,2.4,0.6,4.9,2.2,4.9
			C1072.9,634.4,1073.5,631.9,1073.5,629.5z"/>
	</g>
</g>
<g>
	<g class="st0">
		<path class="st1" d="M885.3,595.6c0,0.2,0,0.4,0,0.6v7.4c0,2.1,1,4.5,1.1,4.9v0.1h-3.2v-0.1c0.1-0.4,1.1-2.7,1.1-4.9v-7.4
			c0-1.5-0.7-3.1-0.8-3.4v-0.1h4.1l4.6,11.6l4.3-11.6h3.9v0.1c-0.1,0.3-0.6,1.9-0.6,3.3v9c0,1.5,0.5,3.1,0.6,3.3v0.1H896v-0.1
			c0.1-0.3,0.6-1.9,0.6-3.3v-9.6l-4.9,13h-1.2L885.3,595.6z"/>
		<path class="st1" d="M901.8,605.4c0-2.4,2.4-3.8,5.1-3.5c0.6,0,1.2,0.2,1.7,0.3v-1.3c0-1.6-0.4-2.5-1.2-2.5
			c-1.3,0-4.4,2.4-4.6,2.8h-0.1v-3c1.9-0.5,3.7-0.8,4.9-0.8c2.9,0,4.1,1.5,4.1,3.6v4.6c0,1.2,0.4,1.8,1.4,1.3v0.1
			c-0.2,1-1,1.7-2.2,1.7s-2-0.6-2.2-1.7c-0.6,0.9-1.7,1.8-3.3,1.8C903,608.8,901.8,607.1,901.8,605.4z M907,607.1
			c0.6,0,1.1-0.3,1.5-0.7c0-0.1,0-0.2,0-0.3v-3.3c-0.1,0-0.3,0-0.4,0c-2.1-0.3-3.1,0.8-3.1,2.1S905.8,607.1,907,607.1z"/>
		<path class="st1" d="M918.2,608.6H914v-0.1c0.1-0.3,0.6-1.9,0.6-3.3V601c0-1.5-0.5-3.1-0.6-3.4v-0.1h3.7v2.1
			c0.8-1.7,2.3-2.9,4.6-2.1l-0.5,3.4h-0.1c-1-1-2.5-1.7-4-0.6v5C917.6,606.7,918.2,608.2,918.2,608.6L918.2,608.6z"/>
		<path class="st1" d="M935.6,607c-0.9,1.4-2.2,1.8-3.4,1.8c-2.2,0-4.4-1.9-4.4-5.7s2.2-5.7,4.5-5.7c1.3,0,2.5,0.5,3.2,1.6v-3.1
			c0-1.5-0.7-3-0.9-3.3v-0.1l0.8-0.1l3.2-0.4v13c0,1.5,0.5,3.1,0.6,3.3v0.1h-2.9C936.1,608.1,935.8,607.7,935.6,607z M933.6,607.2
			c0.7,0,1.3-0.3,1.9-0.9c0-0.2,0-0.4,0-0.6v-5.8c-0.5-0.5-1.1-0.8-1.8-0.8c-1.7,0-2.5,1.7-2.5,3.9
			C931.2,605.1,931.8,607.2,933.6,607.2z"/>
		<path class="st1" d="M940.8,593.9c0-1.1,0.9-2,2-2s2,0.9,2,2s-0.9,1.9-2,1.9C941.7,595.8,940.8,595,940.8,593.9z M945,608.6h-4.2
			v-0.1c0.1-0.3,0.6-1.9,0.6-3.3V601c0-1.5-0.5-3.1-0.6-3.4v-0.1h3.7v7.6C944.4,606.7,944.9,608.2,945,608.6L945,608.6z"/>
		<path class="st1" d="M881.6,622.6v11.5h2.5c1.9,0,3.9-2.9,4.3-3.2h0.1v4.1h-10.8v-0.1c0.1-0.3,0.6-1.9,0.6-3.3v-9
			c0-1.5-0.5-3.1-0.6-3.3v-0.1h4.4v0.1C882.1,619.6,881.6,621.1,881.6,622.6z"/>
		<path class="st1" d="M889.5,629.5c0-3.5,2.3-5.7,5.5-5.7c3.6,0,5,2.6,5,5.4h-7.2c0.2,2.3,1.3,4,3.5,4c1.1,0,2.2-0.4,3.4-1.3h0.1
			c-0.6,1.6-2.3,3.3-4.9,3.3C892.2,635.2,889.5,633.3,889.5,629.5z M892.9,628.7l4.1-0.6c0-1.7-0.5-3.4-2-3.4
			c-1.6,0-2.1,1.9-2.1,3.8C892.9,628.5,892.9,628.6,892.9,628.7z"/>
		<path class="st1" d="M900.2,624L900.2,624l5.1-0.1v0.1c-0.1,0.3-0.6,1.7,0,2.9l2.2,5.2l2.1-5.1c0.5-1.3,0-2.6-0.1-2.9V624h2.7v0.1
			c-0.1,0.2-1,1.6-1.5,2.8l-3.3,8.2h-1.9l-3.4-7.9C901.4,625.8,900.5,624.3,900.2,624z"/>
		<path class="st1" d="M912.4,631.8c0-2.4,2.4-3.8,5.1-3.5c0.5,0,1.2,0.2,1.7,0.3v-1.3c0-1.6-0.4-2.5-1.2-2.5
			c-1.3,0-4.4,2.4-4.6,2.8h-0.1v-3c1.9-0.5,3.7-0.8,4.9-0.8c2.9,0,4.1,1.5,4.1,3.6v4.6c0,1.2,0.4,1.8,1.4,1.3v0.1
			c-0.2,1-1,1.7-2.2,1.7s-2-0.6-2.2-1.7c-0.6,0.9-1.7,1.8-3.3,1.8C913.7,635.2,912.4,633.5,912.4,631.8z M917.7,633.5
			c0.6,0,1.1-0.3,1.5-0.7c0-0.1,0-0.2,0-0.3v-3.3c-0.1,0-0.3,0-0.4,0c-2.1-0.3-3.1,0.8-3.1,2.1C915.7,632.6,916.5,633.5,917.7,633.5
			z"/>
		<path class="st1" d="M928.9,635h-4.2v-0.1c0.1-0.3,0.6-1.9,0.6-3.3v-4.2c0-1.5-0.5-3.1-0.6-3.4v-0.1h3.7v1.9c0.7-1.1,1.9-2,3.5-2
			c1.9,0,3.6,1.2,3.6,3.7v4.1c0,1.5,0.5,3.1,0.5,3.3v0.1h-4.2v-0.1c0.1-0.3,0.6-1.9,0.6-3.3v-3.7c0-1.6-0.9-2.2-2-2.2
			c-0.7,0-1.4,0.3-2.1,0.8v5C928.3,633.1,928.8,634.6,928.9,635L928.9,635z"/>
		<path class="st1" d="M938.2,631.8v-6.9h-1.6V624c2.2-0.9,3.5-2.2,4.6-3.8h0.1v3.7h3v0.9h-3v6.6c0,1.2,0.6,1.7,1.5,1.7
			c0.5,0,1.1-0.1,1.7-0.5c-0.5,1.3-1.6,2.6-3.4,2.6C939.3,635.2,938.2,634,938.2,631.8z"/>
		<path class="st1" d="M945.2,629.5c0-3.5,2.3-5.7,5.5-5.7c3.6,0,5,2.6,5,5.4h-7.2c0.2,2.3,1.3,4,3.5,4c1.1,0,2.2-0.4,3.4-1.3h0.1
			c-0.6,1.6-2.3,3.3-4.9,3.3C947.9,635.2,945.2,633.3,945.2,629.5z M948.5,628.7l4.1-0.6c0-1.7-0.5-3.4-2-3.4
			c-1.6,0-2.1,1.9-2.1,3.8C948.5,628.5,948.5,628.6,948.5,628.7z"/>
	</g>
</g>
<g>
	<g class="st0">
		<path class="st1" d="M1159.3,595.6c0,0.2,0,0.4,0,0.6v7.4c0,2.1,1,4.5,1.1,4.9v0.1h-3.2v-0.1c0.1-0.4,1.1-2.7,1.1-4.9v-7.4
			c0-1.5-0.7-3.1-0.8-3.4v-0.1h4.1l4.6,11.6l4.3-11.6h3.9v0.1c-0.1,0.3-0.6,1.9-0.6,3.3v9c0,1.5,0.5,3.1,0.6,3.3v0.1h-4.4v-0.1
			c0.1-0.3,0.6-1.9,0.6-3.3v-9.6l-4.9,13h-1.2L1159.3,595.6z"/>
		<path class="st1" d="M1175.8,605.4c0-2.4,2.4-3.8,5.1-3.5c0.6,0,1.2,0.2,1.7,0.3v-1.3c0-1.6-0.4-2.5-1.2-2.5
			c-1.3,0-4.4,2.4-4.6,2.8h-0.1v-3c1.9-0.5,3.7-0.8,4.9-0.8c2.9,0,4.1,1.5,4.1,3.6v4.6c0,1.2,0.4,1.8,1.4,1.3v0.1
			c-0.2,1-1,1.7-2.2,1.7s-2-0.6-2.2-1.7c-0.6,0.9-1.7,1.8-3.3,1.8C1177,608.8,1175.8,607.1,1175.8,605.4z M1181,607.1
			c0.6,0,1.1-0.3,1.5-0.7c0-0.1,0-0.2,0-0.3v-3.3c-0.1,0-0.3,0-0.4,0c-2.1-0.3-3.1,0.8-3.1,2.1S1179.8,607.1,1181,607.1z"/>
		<path class="st1" d="M1192.2,608.6h-4.2v-0.1c0.1-0.3,0.6-1.9,0.6-3.3V601c0-1.5-0.5-3.1-0.6-3.4v-0.1h3.7v2.1
			c0.8-1.7,2.3-2.9,4.6-2.1l-0.5,3.4h-0.1c-1-1-2.5-1.7-4-0.6v5C1191.7,606.7,1192.2,608.2,1192.2,608.6L1192.2,608.6z"/>
		<path class="st1" d="M1152.5,622.6v11.5h2.5c1.9,0,3.9-2.9,4.3-3.2h0.1v4.1h-10.8v-0.1c0.1-0.3,0.6-1.9,0.6-3.3v-9
			c0-1.5-0.5-3.1-0.6-3.3v-0.1h4.4v0.1C1153,619.6,1152.5,621.1,1152.5,622.6z"/>
		<path class="st1" d="M1160.7,620.3c0-1.1,0.9-2,2-2s2,0.9,2,2s-0.9,1.9-2,1.9S1160.7,621.4,1160.7,620.3z M1164.9,635h-4.2v-0.1
			c0.1-0.3,0.6-1.9,0.6-3.3v-4.2c0-1.5-0.5-3.1-0.6-3.4v-0.1h3.7v7.6C1164.3,633.1,1164.8,634.6,1164.9,635L1164.9,635z"/>
		<path class="st1" d="M1169.2,631.3c-0.5,0.2-0.9,0.5-0.9,0.9c0,0.6,0.7,0.6,1.5,0.6h3.6c2.2,0,3.5,1.2,3.5,3.1
			c0,2.9-3.2,3.4-5.7,3.4c-1.6,0-5-0.3-5-2.5c0-0.7,0.3-1.3,0.8-1.7c-0.5-0.5-0.7-1.1-0.7-1.7c0-1.3,0.8-2.1,2.1-2.4
			c-1.2-0.6-2.2-1.7-2.2-3.3c0-2.6,2.6-3.9,4.8-3.9c0.9,0,1.8,0.2,2.6,0.6c0.6-1.3,1.7-2.2,3.5-2l-0.5,2.4l0,0
			c-0.7-0.4-1.5-0.5-2.5-0.2c1,0.6,1.8,1.7,1.8,3.1c0,2.6-2.6,3.9-4.8,3.9C1170.4,631.6,1169.8,631.5,1169.2,631.3z M1171.4,638.5
			c1.7,0,3.4-0.6,3.4-1.6c0-0.6-0.5-1.1-1.7-1.1h-3.7c-0.6,0-1.1-0.1-1.6-0.2c0,0.1,0,0.2,0,0.2
			C1167.9,637.3,1168.9,638.5,1171.4,638.5z M1172.8,627.7c0-1.7-0.6-3.1-1.8-3.1c-1.1,0-1.7,1.4-1.7,3.1c0,1.6,0.6,3.1,1.7,3.1
			C1172.2,630.8,1172.8,629.4,1172.8,627.7z"/>
		<path class="st1" d="M1178.3,631.5v-4.1c0-1.5-0.5-3.1-0.6-3.4v-0.1h3.7v7.1c0,1.6,0.9,2.1,1.9,2.1c0.7,0,1.4-0.3,2.1-0.7
			c0-0.2,0-0.5,0-0.7v-4.4c0-1.5-0.5-3.1-0.5-3.4v-0.1h3.7v7.6c0,1.5,0.5,3.1,0.6,3.3v0.1h-3c-0.2-0.4-0.4-1.1-0.6-1.9
			c-0.8,1.3-1.9,2.1-3.6,2.1C1180,635.2,1178.3,634,1178.3,631.5z"/>
		<path class="st1" d="M1194.5,635h-4.2v-0.1c0.1-0.3,0.6-1.9,0.6-3.3v-4.2c0-1.5-0.5-3.1-0.6-3.4v-0.1h3.7v2.1
			c0.8-1.7,2.3-2.9,4.6-2.1l-0.5,3.4h-0.1c-1-1-2.5-1.7-4-0.6v5C1194,633.1,1194.5,634.6,1194.5,635L1194.5,635z"/>
		<path class="st1" d="M1199.1,629.5c0-3.5,2.3-5.7,5.5-5.7c3.6,0,5,2.6,5,5.4h-7.2c0.2,2.3,1.3,4,3.5,4c1.1,0,2.2-0.4,3.4-1.3h0.1
			c-0.6,1.6-2.3,3.3-4.9,3.3S1199.1,633.3,1199.1,629.5z M1202.5,628.7l4.1-0.6c0-1.7-0.5-3.4-2-3.4c-1.6,0-2.1,1.9-2.1,3.8
			C1202.5,628.5,1202.5,628.6,1202.5,628.7z"/>
	</g>
</g>
<g>
	<g class="st0">
		<path class="st1" d="M1279.1,595.6c0,0.2,0,0.4,0,0.6v7.4c0,2.1,1,4.5,1.1,4.9v0.1h-3.2v-0.1c0.1-0.4,1.1-2.7,1.1-4.9v-7.4
			c0-1.5-0.7-3.1-0.8-3.4v-0.1h4.1l4.6,11.6l4.3-11.6h3.9v0.1c-0.1,0.3-0.6,1.9-0.6,3.3v9c0,1.5,0.5,3.1,0.6,3.3v0.1h-4.4v-0.1
			c0.1-0.3,0.6-1.9,0.6-3.3v-9.6l-4.9,13h-1.2L1279.1,595.6z"/>
		<path class="st1" d="M1295.6,605.4c0-2.4,2.4-3.8,5.1-3.5c0.6,0,1.2,0.2,1.7,0.3v-1.3c0-1.6-0.4-2.5-1.2-2.5
			c-1.3,0-4.4,2.4-4.6,2.8h-0.1v-3c1.9-0.5,3.7-0.8,4.9-0.8c2.9,0,4.1,1.5,4.1,3.6v4.6c0,1.2,0.4,1.8,1.4,1.3v0.1
			c-0.2,1-1,1.7-2.2,1.7s-2-0.6-2.2-1.7c-0.6,0.9-1.7,1.8-3.3,1.8C1296.8,608.8,1295.6,607.1,1295.6,605.4z M1300.8,607.1
			c0.6,0,1.1-0.3,1.5-0.7c0-0.1,0-0.2,0-0.3v-3.3c-0.1,0-0.3,0-0.4,0c-2.1-0.3-3.1,0.8-3.1,2.1S1299.6,607.1,1300.8,607.1z"/>
		<path class="st1" d="M1312,608.6h-4.2v-0.1c0.1-0.3,0.6-1.9,0.6-3.3V601c0-1.5-0.5-3.1-0.6-3.4v-0.1h3.7v2.1
			c0.8-1.7,2.3-2.9,4.6-2.1l-0.5,3.4h-0.1c-1-1-2.5-1.7-4-0.6v5C1311.5,606.7,1312,608.2,1312,608.6L1312,608.6z"/>
		<path class="st1" d="M1329.4,607c-0.9,1.4-2.2,1.8-3.4,1.8c-2.2,0-4.4-1.9-4.4-5.7s2.2-5.7,4.5-5.7c1.3,0,2.5,0.5,3.2,1.6v-3.1
			c0-1.5-0.7-3-0.9-3.3v-0.1l0.8-0.1l3.2-0.4v13c0,1.5,0.5,3.1,0.6,3.3v0.1h-2.9C1329.9,608.1,1329.6,607.7,1329.4,607z
			 M1327.4,607.2c0.7,0,1.3-0.3,1.9-0.9c0-0.2,0-0.4,0-0.6v-5.8c-0.5-0.5-1.1-0.8-1.8-0.8c-1.7,0-2.5,1.7-2.5,3.9
			C1325,605.1,1325.6,607.2,1327.4,607.2z"/>
		<path class="st1" d="M1334.6,593.9c0-1.1,0.9-2,2-2s2,0.9,2,2s-0.9,1.9-2,1.9C1335.5,595.8,1334.6,595,1334.6,593.9z
			 M1338.8,608.6h-4.2v-0.1c0.1-0.3,0.6-1.9,0.6-3.3V601c0-1.5-0.5-3.1-0.6-3.4v-0.1h3.7v7.6
			C1338.2,606.7,1338.7,608.2,1338.8,608.6L1338.8,608.6z"/>
		<path class="st1" d="M1266.9,622c0,0.2,0,0.4,0,0.6v7.4c0,2.1,1,4.5,1.1,4.9v0.1h-3.2v-0.1c0.1-0.4,1.1-2.7,1.1-4.9v-7.4
			c0-1.5-0.7-3.1-0.8-3.4v-0.1h4.1l4.6,11.6l4.3-11.6h3.9v0.1c-0.1,0.3-0.6,1.9-0.6,3.3v9c0,1.5,0.5,3.1,0.6,3.3v0.1h-4.4v-0.1
			c0.1-0.3,0.6-1.9,0.6-3.3v-9.6l-4.9,13h-1.2L1266.9,622z"/>
		<path class="st1" d="M1283.4,631.8c0-2.4,2.4-3.8,5.1-3.5c0.5,0,1.2,0.2,1.7,0.3v-1.3c0-1.6-0.4-2.5-1.2-2.5
			c-1.3,0-4.4,2.4-4.6,2.8h-0.1v-3c1.9-0.5,3.7-0.8,4.9-0.8c2.9,0,4.1,1.5,4.1,3.6v4.6c0,1.2,0.4,1.8,1.4,1.3v0.1
			c-0.2,1-1,1.7-2.2,1.7s-2-0.6-2.2-1.7c-0.6,0.9-1.7,1.8-3.3,1.8C1284.6,635.2,1283.4,633.5,1283.4,631.8z M1288.6,633.5
			c0.6,0,1.1-0.3,1.5-0.7c0-0.1,0-0.2,0-0.3v-3.3c-0.1,0-0.3,0-0.4,0c-2.1-0.3-3.1,0.8-3.1,2.1
			C1286.6,632.6,1287.5,633.5,1288.6,633.5z"/>
		<path class="st1" d="M1299.8,635h-4.2v-0.1c0.1-0.3,0.6-1.9,0.6-3.3v-4.2c0-1.5-0.5-3.1-0.6-3.4v-0.1h3.7v2.1
			c0.8-1.7,2.3-2.9,4.6-2.1l-0.5,3.4h-0.1c-1-1-2.5-1.7-4-0.6v5C1299.3,633.1,1299.8,634.6,1299.8,635L1299.8,635z"/>
		<path class="st1" d="M1309.1,635h-4.2v-0.1c0.1-0.3,0.6-1.9,0.6-3.3v-4.2c0-1.5-0.5-3.1-0.6-3.4v-0.1h3.7v1.8c0.8-1.1,1.9-2,3.5-2
			c1.4,0,2.7,0.7,3.1,2.2c0.8-1.3,2-2.2,3.6-2.2c1.8,0,3.4,1.2,3.4,3.7v4.1c0,1.5,0.5,3.1,0.6,3.3v0.1h-4.2v-0.1
			c0.1-0.3,0.6-1.9,0.6-3.3v-3.7c0-1.5-1-2.1-2-2.1c-0.6,0-1.2,0.2-1.8,0.7c0.1,0.3,0.1,0.7,0.1,1v4.1c0,1.5,0.5,3.1,0.5,3.3v0.1
			h-4.2v-0.1c0.1-0.3,0.6-1.9,0.6-3.3v-3.7c0-1.5-1-2.1-2.1-2.1c-0.6,0-1.1,0.2-1.7,0.6v5.1C1308.6,633.1,1309.1,634.6,1309.1,635
			L1309.1,635z"/>
		<path class="st1" d="M1323.9,631.8c0-2.4,2.4-3.8,5.1-3.5c0.5,0,1.2,0.2,1.7,0.3v-1.3c0-1.6-0.4-2.5-1.2-2.5
			c-1.3,0-4.4,2.4-4.6,2.8h-0.1v-3c1.9-0.5,3.7-0.8,4.9-0.8c2.9,0,4.1,1.5,4.1,3.6v4.6c0,1.2,0.4,1.8,1.4,1.3v0.1
			c-0.2,1-1,1.7-2.2,1.7s-2-0.6-2.2-1.7c-0.6,0.9-1.7,1.8-3.3,1.8C1325.1,635.2,1323.9,633.5,1323.9,631.8z M1329.1,633.5
			c0.6,0,1.1-0.3,1.5-0.7c0-0.1,0-0.2,0-0.3v-3.3c-0.1,0-0.3,0-0.4,0c-2.1-0.3-3.1,0.8-3.1,2.1
			C1327.1,632.6,1327.9,633.5,1329.1,633.5z"/>
		<path class="st1" d="M1340.3,635h-4.2v-0.1c0.1-0.3,0.6-1.9,0.6-3.3v-4.2c0-1.5-0.5-3.1-0.6-3.4v-0.1h3.7v2.1
			c0.8-1.7,2.3-2.9,4.6-2.1l-0.5,3.4h-0.1c-1-1-2.5-1.7-4-0.6v5C1339.7,633.1,1340.2,634.6,1340.3,635L1340.3,635z"/>
		<path class="st1" d="M1345.1,631.8c0-2.4,2.4-3.8,5.1-3.5c0.5,0,1.2,0.2,1.7,0.3v-1.3c0-1.6-0.4-2.5-1.2-2.5
			c-1.3,0-4.4,2.4-4.6,2.8h-0.1v-3c1.9-0.5,3.7-0.8,4.9-0.8c2.9,0,4.1,1.5,4.1,3.6v4.6c0,1.2,0.4,1.8,1.4,1.3v0.1
			c-0.2,1-1,1.7-2.2,1.7s-2-0.6-2.2-1.7c-0.6,0.9-1.7,1.8-3.3,1.8C1346.3,635.2,1345.1,633.5,1345.1,631.8z M1350.3,633.5
			c0.6,0,1.1-0.3,1.5-0.7c0-0.1,0-0.2,0-0.3v-3.3c-0.1,0-0.3,0-0.4,0c-2.1-0.3-3.1,0.8-3.1,2.1
			C1348.3,632.6,1349.1,633.5,1350.3,633.5z"/>
	</g>
</g>
<g>
	<g class="st0">
		<path class="st1" d="M1410.5,595.6c0,0.2,0,0.4,0,0.6v7.4c0,2.1,1,4.5,1.1,4.9v0.1h-3.2v-0.1c0.1-0.4,1.1-2.7,1.1-4.9v-7.4
			c0-1.5-0.7-3.1-0.8-3.4v-0.1h4.1l4.6,11.6l4.3-11.6h3.9v0.1c-0.1,0.3-0.6,1.9-0.6,3.3v9c0,1.5,0.5,3.1,0.6,3.3v0.1h-4.4v-0.1
			c0.1-0.3,0.6-1.9,0.6-3.3v-9.6l-4.9,13h-1.2L1410.5,595.6z"/>
		<path class="st1" d="M1427,605.4c0-2.4,2.4-3.8,5.1-3.5c0.6,0,1.2,0.2,1.7,0.3v-1.3c0-1.6-0.4-2.5-1.2-2.5c-1.3,0-4.4,2.4-4.6,2.8
			h-0.1v-3c1.9-0.5,3.7-0.8,4.9-0.8c2.9,0,4.1,1.5,4.1,3.6v4.6c0,1.2,0.4,1.8,1.4,1.3v0.1c-0.2,1-1,1.7-2.2,1.7s-2-0.6-2.2-1.7
			c-0.6,0.9-1.7,1.8-3.3,1.8C1428.2,608.8,1427,607.1,1427,605.4z M1432.2,607.1c0.6,0,1.1-0.3,1.5-0.7c0-0.1,0-0.2,0-0.3v-3.3
			c-0.1,0-0.3,0-0.4,0c-2.1-0.3-3.1,0.8-3.1,2.1S1431,607.1,1432.2,607.1z"/>
		<path class="st1" d="M1443.4,608.6h-4.2v-0.1c0.1-0.3,0.6-1.9,0.6-3.3V601c0-1.5-0.5-3.1-0.6-3.4v-0.1h3.7v2.1
			c0.8-1.7,2.3-2.9,4.6-2.1l-0.5,3.4h-0.1c-1-1-2.5-1.7-4-0.6v5C1442.8,606.7,1443.3,608.2,1443.4,608.6L1443.4,608.6z"/>
		<path class="st1" d="M1460.8,607c-0.9,1.4-2.2,1.8-3.4,1.8c-2.2,0-4.4-1.9-4.4-5.7s2.2-5.7,4.5-5.7c1.3,0,2.5,0.5,3.2,1.6v-3.1
			c0-1.5-0.7-3-0.9-3.3v-0.1l0.8-0.1l3.2-0.4v13c0,1.5,0.5,3.1,0.6,3.3v0.1h-2.9C1461.3,608.1,1461,607.7,1460.8,607z M1458.8,607.2
			c0.7,0,1.3-0.3,1.9-0.9c0-0.2,0-0.4,0-0.6v-5.8c-0.5-0.5-1.1-0.8-1.8-0.8c-1.7,0-2.5,1.7-2.5,3.9
			C1456.4,605.1,1457,607.2,1458.8,607.2z"/>
		<path class="st1" d="M1466,593.9c0-1.1,0.9-2,2-2s2,0.9,2,2s-0.9,1.9-2,1.9C1466.9,595.8,1466,595,1466,593.9z M1470.2,608.6h-4.2
			v-0.1c0.1-0.3,0.6-1.9,0.6-3.3V601c0-1.5-0.5-3.1-0.6-3.4v-0.1h3.7v7.6C1469.6,606.7,1470.1,608.2,1470.2,608.6L1470.2,608.6z"/>
		<path class="st1" d="M1394.4,622c0,0.2,0,0.4,0,0.6v7.4c0,2.1,1,4.5,1.1,4.9v0.1h-3.2v-0.1c0.1-0.4,1.1-2.7,1.1-4.9v-7.4
			c0-1.5-0.7-3.1-0.8-3.4v-0.1h4.1l4.6,11.6l4.3-11.6h3.9v0.1c-0.1,0.3-0.6,1.9-0.6,3.3v9c0,1.5,0.5,3.1,0.6,3.3v0.1h-4.4v-0.1
			c0.1-0.3,0.6-1.9,0.6-3.3v-9.6l-4.9,13h-1.2L1394.4,622z"/>
		<path class="st1" d="M1410.9,631.8c0-2.4,2.4-3.8,5.1-3.5c0.5,0,1.2,0.2,1.7,0.3v-1.3c0-1.6-0.4-2.5-1.2-2.5
			c-1.3,0-4.4,2.4-4.6,2.8h-0.1v-3c1.9-0.5,3.7-0.8,4.9-0.8c2.9,0,4.1,1.5,4.1,3.6v4.6c0,1.2,0.4,1.8,1.4,1.3v0.1
			c-0.2,1-1,1.7-2.2,1.7s-2-0.6-2.2-1.7c-0.6,0.9-1.7,1.8-3.3,1.8C1412.1,635.2,1410.9,633.5,1410.9,631.8z M1416.1,633.5
			c0.6,0,1.1-0.3,1.5-0.7c0-0.1,0-0.2,0-0.3v-3.3c-0.1,0-0.3,0-0.4,0c-2.1-0.3-3.1,0.8-3.1,2.1
			C1414.1,632.6,1414.9,633.5,1416.1,633.5z"/>
		<path class="st1" d="M1427.3,635h-4.2v-0.1c0.1-0.3,0.6-1.9,0.6-3.3v-4.2c0-1.5-0.5-3.1-0.6-3.4v-0.1h3.7v2.1
			c0.8-1.7,2.3-2.9,4.6-2.1l-0.5,3.4h-0.1c-1-1-2.5-1.7-4-0.6v5C1426.7,633.1,1427.2,634.6,1427.3,635L1427.3,635z"/>
		<path class="st1" d="M1439.7,633.4c-0.9,1.4-2.2,1.8-3.4,1.8c-2.2,0-4.4-1.9-4.4-5.7s2.2-5.7,4.5-5.7c1.3,0,2.5,0.5,3.2,1.6v-3.1
			c0-1.5-0.7-3-0.9-3.3v-0.1l0.8-0.1l3.2-0.4v13c0,1.5,0.5,3.1,0.6,3.3v0.1h-2.9C1440.2,634.5,1439.9,634.1,1439.7,633.4z
			 M1437.7,633.6c0.7,0,1.3-0.3,1.9-0.9c0-0.2,0-0.4,0-0.6v-5.8c-0.5-0.5-1.1-0.8-1.8-0.8c-1.7,0-2.5,1.7-2.5,3.9
			C1435.3,631.5,1435.9,633.6,1437.7,633.6z"/>
		<path class="st1" d="M1444.4,629.5c0-3.5,2.3-5.7,5.5-5.7c3.6,0,5,2.6,5,5.4h-7.2c0.2,2.3,1.3,4,3.5,4c1.1,0,2.2-0.4,3.4-1.3h0.1
			c-0.6,1.6-2.3,3.3-4.9,3.3C1447.2,635.2,1444.4,633.3,1444.4,629.5z M1447.8,628.7l4.1-0.6c0-1.7-0.5-3.4-2-3.4
			c-1.6,0-2.1,1.9-2.1,3.8C1447.8,628.5,1447.8,628.6,1447.8,628.7z"/>
		<path class="st1" d="M1459.1,631.3c-0.5,0.2-0.9,0.5-0.9,0.9c0,0.6,0.7,0.6,1.5,0.6h3.6c2.2,0,3.5,1.2,3.5,3.1
			c0,2.9-3.2,3.4-5.7,3.4c-1.6,0-5-0.3-5-2.5c0-0.7,0.3-1.3,0.8-1.7c-0.5-0.5-0.7-1.1-0.7-1.7c0-1.3,0.8-2.1,2.1-2.4
			c-1.2-0.6-2.2-1.7-2.2-3.3c0-2.6,2.6-3.9,4.8-3.9c0.9,0,1.8,0.2,2.6,0.6c0.6-1.3,1.7-2.2,3.5-2l-0.5,2.4l0,0
			c-0.7-0.4-1.5-0.5-2.5-0.2c1,0.6,1.8,1.7,1.8,3.1c0,2.6-2.6,3.9-4.8,3.9C1460.4,631.6,1459.7,631.5,1459.1,631.3z M1461.4,638.5
			c1.7,0,3.4-0.6,3.4-1.6c0-0.6-0.5-1.1-1.6-1.1h-3.7c-0.6,0-1.1-0.1-1.6-0.2c0,0.1,0,0.2,0,0.2
			C1457.9,637.3,1458.9,638.5,1461.4,638.5z M1462.7,627.7c0-1.7-0.6-3.1-1.8-3.1c-1.1,0-1.7,1.4-1.7,3.1c0,1.6,0.6,3.1,1.7,3.1
			C1462.1,630.8,1462.7,629.4,1462.7,627.7z"/>
		<path class="st1" d="M1472.1,635h-4.2v-0.1c0.1-0.3,0.6-1.9,0.6-3.3v-4.2c0-1.5-0.5-3.1-0.6-3.4v-0.1h3.7v1.9c0.7-1.1,1.9-2,3.5-2
			c1.9,0,3.6,1.2,3.6,3.7v4.1c0,1.5,0.5,3.1,0.5,3.3v0.1h-4.2v-0.1c0.1-0.3,0.6-1.9,0.6-3.3v-3.7c0-1.6-0.9-2.2-2-2.2
			c-0.7,0-1.4,0.3-2.1,0.8v5C1471.5,633.1,1472,634.6,1472.1,635L1472.1,635z"/>
		<path class="st1" d="M1480.4,631.8c0-2.4,2.4-3.8,5.1-3.5c0.6,0,1.2,0.2,1.7,0.3v-1.3c0-1.6-0.4-2.5-1.2-2.5
			c-1.3,0-4.4,2.4-4.6,2.8h-0.1v-3c1.9-0.5,3.7-0.8,4.9-0.8c2.9,0,4.1,1.5,4.1,3.6v4.6c0,1.2,0.4,1.8,1.4,1.3v0.1
			c-0.2,1-1,1.7-2.2,1.7s-2-0.6-2.2-1.7c-0.6,0.9-1.7,1.8-3.3,1.8C1481.6,635.2,1480.4,633.5,1480.4,631.8z M1485.6,633.5
			c0.6,0,1.1-0.3,1.5-0.7c0-0.1,0-0.2,0-0.3v-3.3c-0.1,0-0.3,0-0.4,0c-2.1-0.3-3.1,0.8-3.1,2.1
			C1483.6,632.6,1484.4,633.5,1485.6,633.5z"/>
	</g>
</g>
<g>
	<g class="st0">
		<path class="st1" d="M1541.9,595.6c0,0.2,0,0.4,0,0.6v7.4c0,2.1,1,4.5,1.1,4.9v0.1h-3.2v-0.1c0.1-0.4,1.1-2.7,1.1-4.9v-7.4
			c0-1.5-0.7-3.1-0.8-3.4v-0.1h4.1l4.6,11.6l4.3-11.6h3.9v0.1c-0.1,0.3-0.6,1.9-0.6,3.3v9c0,1.5,0.5,3.1,0.6,3.3v0.1h-4.4v-0.1
			c0.1-0.3,0.6-1.9,0.6-3.3v-9.6l-4.9,13h-1.2L1541.9,595.6z"/>
		<path class="st1" d="M1558.4,605.4c0-2.4,2.4-3.8,5.1-3.5c0.6,0,1.2,0.2,1.7,0.3v-1.3c0-1.6-0.4-2.5-1.2-2.5
			c-1.3,0-4.4,2.4-4.6,2.8h-0.1v-3c1.9-0.5,3.7-0.8,4.9-0.8c2.9,0,4.1,1.5,4.1,3.6v4.6c0,1.2,0.4,1.8,1.4,1.3v0.1
			c-0.2,1-1,1.7-2.2,1.7s-2-0.6-2.2-1.7c-0.6,0.9-1.7,1.8-3.3,1.8C1559.6,608.8,1558.4,607.1,1558.4,605.4z M1563.6,607.1
			c0.6,0,1.1-0.3,1.5-0.7c0-0.1,0-0.2,0-0.3v-3.3c-0.1,0-0.3,0-0.4,0c-2.1-0.3-3.1,0.8-3.1,2.1S1562.4,607.1,1563.6,607.1z"/>
		<path class="st1" d="M1574.8,608.6h-4.2v-0.1c0.1-0.3,0.6-1.9,0.6-3.3V601c0-1.5-0.5-3.1-0.6-3.4v-0.1h3.7v2.1
			c0.8-1.7,2.3-2.9,4.6-2.1l-0.5,3.4h-0.1c-1-1-2.5-1.7-4-0.6v5C1574.2,606.7,1574.7,608.2,1574.8,608.6L1574.8,608.6z"/>
		<path class="st1" d="M1592.2,607c-0.9,1.4-2.2,1.8-3.4,1.8c-2.2,0-4.4-1.9-4.4-5.7s2.2-5.7,4.5-5.7c1.3,0,2.5,0.5,3.2,1.6v-3.1
			c0-1.5-0.7-3-0.9-3.3v-0.1l0.8-0.1l3.2-0.4v13c0,1.5,0.5,3.1,0.6,3.3v0.1h-2.9C1592.7,608.1,1592.4,607.7,1592.2,607z
			 M1590.2,607.2c0.7,0,1.3-0.3,1.9-0.9c0-0.2,0-0.4,0-0.6v-5.8c-0.5-0.5-1.1-0.8-1.8-0.8c-1.7,0-2.5,1.7-2.5,3.9
			C1587.8,605.1,1588.4,607.2,1590.2,607.2z"/>
		<path class="st1" d="M1597.3,593.9c0-1.1,0.9-2,2-2s2,0.9,2,2s-0.9,1.9-2,1.9C1598.3,595.8,1597.3,595,1597.3,593.9z
			 M1601.6,608.6h-4.2v-0.1c0.1-0.3,0.6-1.9,0.6-3.3V601c0-1.5-0.5-3.1-0.6-3.4v-0.1h3.7v7.6C1601,606.7,1601.5,608.2,1601.6,608.6
			L1601.6,608.6z"/>
		<path class="st1" d="M1544.3,633.9v-3.6h0.2c1.6,1.6,3.7,4,6,4c1.4,0,2.6-0.8,2.6-2.4c0-1.8-1.8-2.7-4.3-3.6
			c-2.7-1-4.8-2.3-4.8-4.7s2.1-4.7,5.9-4.7c2,0,4.1,0.7,5.4,1.3v3.5h-0.1c-1.5-1.5-3.7-3.8-5.8-3.8c-1.6,0-2.5,1-2.5,2.1
			c0,1.6,2.1,2.4,4.6,3.4c3.5,1.4,4.5,3.3,4.5,5.1c0,3.2-2.9,4.7-5.9,4.7C1548.5,635.3,1546.4,634.8,1544.3,633.9z"/>
		<path class="st1" d="M1557.5,620.3c0-1.1,0.9-2,2-2s2,0.9,2,2s-0.9,1.9-2,1.9S1557.5,621.4,1557.5,620.3z M1561.7,635h-4.2v-0.1
			c0.1-0.3,0.6-1.9,0.6-3.3v-4.2c0-1.5-0.5-3.1-0.6-3.4v-0.1h3.7v7.6C1561.1,633.1,1561.6,634.6,1561.7,635L1561.7,635z"/>
		<path class="st1" d="M1562.9,629.5c0-3.6,2.3-5.7,5.6-5.7c1.8,0,3.3,0.7,4.2,1v3.3h-0.1c-0.8-1.3-2.4-3.4-4-3.4s-2.3,1.8-2.3,3.9
			c0,2.7,1.1,4.6,3.5,4.6c0.9,0,2.1-0.3,3.4-1.3l0.1,0.1c-0.6,1.6-2.3,3.2-4.8,3.2C1565.7,635.2,1562.9,633.4,1562.9,629.5z"/>
		<path class="st1" d="M1574.6,620.3c0-1.1,0.9-2,2-2s2,0.9,2,2s-0.9,1.9-2,1.9S1574.6,621.4,1574.6,620.3z M1578.9,635h-4.2v-0.1
			c0.1-0.3,0.6-1.9,0.6-3.3v-4.2c0-1.5-0.5-3.1-0.6-3.4v-0.1h3.7v7.6C1578.3,633.1,1578.8,634.6,1578.9,635L1578.9,635z"/>
		<path class="st1" d="M1584.5,635h-4.2v-0.1c0-0.3,0.6-1.9,0.6-3.3v-9.2c0-1.5-0.5-3-0.6-3.3V619l0.6-0.1l3.2-0.4v13
			C1584,633.1,1584.5,634.6,1584.5,635L1584.5,635z"/>
		<path class="st1" d="M1586,620.3c0-1.1,0.9-2,2-2s2,0.9,2,2s-0.9,1.9-2,1.9S1586,621.4,1586,620.3z M1590.2,635h-4.2v-0.1
			c0.1-0.3,0.6-1.9,0.6-3.3v-4.2c0-1.5-0.5-3.1-0.6-3.4v-0.1h3.7v7.6C1589.6,633.1,1590.1,634.6,1590.2,635L1590.2,635z"/>
		<path class="st1" d="M1591.5,631.8c0-2.4,2.4-3.8,5.1-3.5c0.5,0,1.2,0.2,1.7,0.3v-1.3c0-1.6-0.4-2.5-1.2-2.5
			c-1.3,0-4.4,2.4-4.6,2.8h-0.1v-3c1.9-0.5,3.7-0.8,4.9-0.8c2.9,0,4.1,1.5,4.1,3.6v4.6c0,1.2,0.4,1.8,1.4,1.3v0.1
			c-0.2,1-1,1.7-2.2,1.7s-2-0.6-2.2-1.7c-0.6,0.9-1.7,1.8-3.3,1.8C1592.7,635.2,1591.5,633.5,1591.5,631.8z M1596.7,633.5
			c0.6,0,1.1-0.3,1.5-0.7c0-0.1,0-0.2,0-0.3v-3.3c-0.1,0-0.3,0-0.4,0c-2.1-0.3-3.1,0.8-3.1,2.1
			C1594.7,632.6,1595.5,633.5,1596.7,633.5z"/>
	</g>
</g>
<g>
	<g class="st0">
		<path class="st1" d="M1684.9,595.6c0,0.2,0,0.4,0,0.6v7.4c0,2.1,1,4.5,1.1,4.9v0.1h-3.2v-0.1c0.1-0.4,1.1-2.7,1.1-4.9v-7.4
			c0-1.5-0.7-3.1-0.8-3.4v-0.1h4.1l4.6,11.6l4.3-11.6h3.9v0.1c-0.1,0.3-0.6,1.9-0.6,3.3v9c0,1.5,0.5,3.1,0.6,3.3v0.1h-4.4v-0.1
			c0.1-0.3,0.6-1.9,0.6-3.3v-9.6l-4.9,13h-1.2L1684.9,595.6z"/>
		<path class="st1" d="M1701.3,605.4c0-2.4,2.4-3.8,5.1-3.5c0.6,0,1.2,0.2,1.7,0.3v-1.3c0-1.6-0.4-2.5-1.2-2.5
			c-1.3,0-4.4,2.4-4.6,2.8h-0.1v-3c1.9-0.5,3.7-0.8,4.9-0.8c2.9,0,4.1,1.5,4.1,3.6v4.6c0,1.2,0.4,1.8,1.4,1.3v0.1
			c-0.2,1-1,1.7-2.2,1.7s-2-0.6-2.2-1.7c-0.6,0.9-1.7,1.8-3.3,1.8C1702.5,608.8,1701.3,607.1,1701.3,605.4z M1706.6,607.1
			c0.6,0,1.1-0.3,1.5-0.7c0-0.1,0-0.2,0-0.3v-3.3c-0.1,0-0.3,0-0.4,0c-2.1-0.3-3.1,0.8-3.1,2.1S1705.4,607.1,1706.6,607.1z"/>
		<path class="st1" d="M1717.8,608.6h-4.2v-0.1c0.1-0.3,0.6-1.9,0.6-3.3V601c0-1.5-0.5-3.1-0.6-3.4v-0.1h3.7v2.1
			c0.8-1.7,2.3-2.9,4.6-2.1l-0.5,3.4h-0.1c-1-1-2.5-1.7-4-0.6v5C1717.2,606.7,1717.7,608.2,1717.8,608.6L1717.8,608.6z"/>
		<path class="st1" d="M1667.3,619.2h13.7v4.4h-0.1c-0.3-0.2-2.3-3.4-4.2-3.4h-0.9v11.4c0,1.5,0.5,3.1,0.6,3.3v0.1h-4.4v-0.1
			c0.1-0.3,0.6-1.9,0.6-3.3v-11.4h-0.9c-1.8,0-3.8,3.1-4.2,3.4h-0.1L1667.3,619.2L1667.3,619.2z"/>
		<path class="st1" d="M1682,620.3c0-1.1,0.9-2,2-2s2,0.9,2,2s-0.9,1.9-2,1.9S1682,621.4,1682,620.3z M1686.2,635h-4.2v-0.1
			c0.1-0.3,0.6-1.9,0.6-3.3v-4.2c0-1.5-0.5-3.1-0.6-3.4v-0.1h3.7v7.6C1685.6,633.1,1686.1,634.6,1686.2,635L1686.2,635z"/>
		<path class="st1" d="M1691.9,635h-4.2v-0.1c0.1-0.3,0.6-1.9,0.6-3.3v-4.2c0-1.5-0.5-3.1-0.6-3.4v-0.1h3.7v2.1
			c0.8-1.7,2.3-2.9,4.6-2.1l-0.5,3.4h-0.1c-1-1-2.5-1.7-4-0.6v5C1691.3,633.1,1691.8,634.6,1691.9,635L1691.9,635z"/>
		<path class="st1" d="M1701.2,635h-4.2v-0.1c0.1-0.3,0.6-1.9,0.6-3.3v-4.2c0-1.5-0.5-3.1-0.6-3.4v-0.1h3.7v2.1
			c0.8-1.7,2.3-2.9,4.6-2.1l-0.5,3.4h-0.1c-1-1-2.5-1.7-4-0.6v5C1700.6,633.1,1701.1,634.6,1701.2,635L1701.2,635z"/>
		<path class="st1" d="M1705.8,629.5c0-3.5,2.3-5.7,5.5-5.7c3.6,0,5,2.6,5,5.4h-7.2c0.2,2.3,1.3,4,3.5,4c1.1,0,2.2-0.4,3.4-1.3h0.1
			c-0.6,1.6-2.3,3.3-4.9,3.3C1708.6,635.2,1705.8,633.3,1705.8,629.5z M1709.2,628.7l4.1-0.6c0-1.7-0.5-3.4-2-3.4
			c-1.6,0-2.1,1.9-2.1,3.8C1709.2,628.5,1709.2,628.6,1709.2,628.7z"/>
		<path class="st1" d="M1721.9,635h-4.2v-0.1c0.1-0.3,0.6-1.9,0.6-3.3v-4.2c0-1.5-0.5-3.1-0.6-3.4v-0.1h3.7v1.9c0.7-1.1,1.9-2,3.5-2
			c1.9,0,3.6,1.2,3.6,3.7v4.1c0,1.5,0.5,3.1,0.5,3.3v0.1h-4.2v-0.1c0.1-0.3,0.6-1.9,0.6-3.3v-3.7c0-1.6-0.9-2.2-2-2.2
			c-0.7,0-1.4,0.3-2.1,0.8v5C1721.3,633.1,1721.8,634.6,1721.9,635L1721.9,635z"/>
		<path class="st1" d="M1730.1,629.5c0-3.8,2.6-5.6,5.7-5.6s5.7,1.9,5.7,5.6c0,3.8-2.7,5.8-5.7,5.8
			C1732.7,635.2,1730.1,633.3,1730.1,629.5z M1738.1,629.5c0-2.4-0.7-4.8-2.3-4.8c-1.6,0-2.2,2.4-2.2,4.8c0,2.4,0.6,4.9,2.2,4.9
			C1737.4,634.4,1738.1,631.9,1738.1,629.5z"/>
	</g>
</g>
<g>
	<g>
		<path class="st1" d="M17.9,568.9c0-4.8,2.9-8,6.6-8s6.6,3.3,6.6,8c0,4.9-2.9,8.1-6.6,8.1C20.8,577.1,17.9,573.8,17.9,568.9z
			 M27.3,568.9c0-3.2-0.6-7-2.8-7c-2.3,0-2.8,3.9-2.8,7.1c0,3.3,0.6,7.1,2.8,7.1C26.8,576.1,27.3,572.2,27.3,568.9z"/>
	</g>
	<g>
		<path class="st1" d="M31.9,575.2c0-1,0.8-1.9,1.9-1.9s1.9,0.8,1.9,1.9s-0.9,1.9-1.9,1.9S31.9,576.3,31.9,575.2z"/>
	</g>
	<g>
		<path class="st1" d="M36.9,568.9c0-4.8,2.9-8,6.6-8c3.7,0,6.6,3.3,6.6,8c0,4.9-2.9,8.1-6.6,8.1C39.8,577.1,36.9,573.8,36.9,568.9z
			 M46.3,568.9c0-3.2-0.6-7-2.8-7c-2.3,0-2.8,3.9-2.8,7.1c0,3.3,0.6,7.1,2.8,7.1C45.7,576.1,46.3,572.2,46.3,568.9z"/>
	</g>
	<g>
		<path class="st1" d="M51.5,564c0-1.7,1.3-3.2,3.2-3.2c1.8,0,3.2,1.5,3.2,3.2s-1.4,3.2-3.2,3.2C52.8,567.2,51.5,565.7,51.5,564z
			 M56.5,564c0-1-0.8-1.9-1.9-1.9s-1.8,0.9-1.8,1.9s0.7,1.9,1.8,1.9S56.5,565,56.5,564z"/>
	</g>
</g>
<g>
	<g>
		<path class="st1" d="M20,459.8c0-4.8,2.9-8,6.6-8s6.6,3.3,6.6,8c0,4.9-2.9,8.1-6.6,8.1C22.9,467.9,20,464.7,20,459.8z M29.4,459.8
			c0-3.2-0.6-7-2.8-7c-2.3,0-2.8,3.9-2.8,7.1c0,3.3,0.6,7.1,2.8,7.1C28.8,466.9,29.4,463,29.4,459.8z"/>
	</g>
	<g>
		<path class="st1" d="M34,466.1c0-1,0.8-1.9,1.9-1.9s1.9,0.8,1.9,1.9s-0.9,1.9-1.9,1.9S34,467.1,34,466.1z"/>
	</g>
	<g>
		<path class="st1" d="M39.4,466.8l0.3-3.7h0.1c1.2,2.3,2.7,4,4.2,4c1.4,0,2.4-1.3,2.4-3.7c0-2.3-1-4-3.2-4c-0.8,0-2,0.2-3.5,0.9
			l0.8-8.4h0.1h5.2c1.7,0,3.5-0.4,4-0.7l-0.7,3.5h-7.8l-0.4,4.2c1.3-0.8,2.7-1.1,4-1.1c3.5,0,5.2,2.4,5.2,5.1c0,3.2-2.5,5.1-6,5.1
			C42.1,468,40.6,467.5,39.4,466.8z"/>
	</g>
	<g>
		<path class="st1" d="M51.5,454.8c0-1.7,1.3-3.2,3.2-3.2c1.8,0,3.2,1.5,3.2,3.2s-1.4,3.2-3.2,3.2C52.8,458,51.5,456.5,51.5,454.8z
			 M56.5,454.8c0-1-0.8-1.9-1.9-1.9c-1.1,0-1.8,0.9-1.8,1.9s0.7,1.9,1.8,1.9C55.7,456.8,56.5,455.8,56.5,454.8z"/>
	</g>
</g>
<g>
	<g>
		<path class="st1" d="M29.5,341.9v12.9c0,1.5,0.5,3.1,0.6,3.3v0.1h-4.4v-0.1c0.1-0.3,0.6-1.9,0.6-3.3v-9.6h-2.6v-0.5
			C25.8,344.1,27.8,343.3,29.5,341.9z"/>
	</g>
	<g>
		<path class="st1" d="M31.9,356.6c0-1,0.8-1.9,1.9-1.9s1.9,0.8,1.9,1.9c0,1.1-0.9,1.9-1.9,1.9S31.9,357.7,31.9,356.6z"/>
	</g>
	<g>
		<path class="st1" d="M36.9,350.4c0-4.8,2.9-8,6.6-8c3.7,0,6.6,3.3,6.6,8c0,4.9-2.9,8.1-6.6,8.1C39.8,358.5,36.9,355.2,36.9,350.4z
			 M46.3,350.3c0-3.2-0.6-7-2.8-7c-2.3,0-2.8,3.9-2.8,7.1c0,3.3,0.6,7.1,2.8,7.1S46.3,353.6,46.3,350.3z"/>
	</g>
	<g>
		<path class="st1" d="M51.5,345.4c0-1.7,1.3-3.2,3.2-3.2c1.8,0,3.2,1.5,3.2,3.2s-1.4,3.2-3.2,3.2C52.8,348.6,51.5,347.1,51.5,345.4
			z M56.5,345.4c0-1-0.8-1.9-1.9-1.9c-1.1,0-1.8,0.9-1.8,1.9s0.7,1.9,1.8,1.9C55.7,347.3,56.5,346.4,56.5,345.4z"/>
	</g>
</g>
<g>
	<g>
		<path class="st1" d="M31.6,232.7v13c0,1.5,0.5,3.1,0.6,3.3v0.1h-4.4V249c0.1-0.3,0.6-1.9,0.6-3.3v-9.6h-2.6v-0.6
			C27.9,234.9,29.9,234.1,31.6,232.7z"/>
	</g>
	<g>
		<path class="st1" d="M34,247.4c0-1,0.8-1.9,1.9-1.9s1.9,0.8,1.9,1.9s-0.9,1.9-1.9,1.9S34,248.5,34,247.4z"/>
	</g>
	<g>
		<path class="st1" d="M39.4,248.2l0.3-3.7h0.1c1.2,2.3,2.7,4,4.2,4c1.4,0,2.4-1.3,2.4-3.7c0-2.3-1-4-3.2-4c-0.8,0-2,0.2-3.5,0.9
			l0.8-8.4h0.1h5.2c1.7,0,3.5-0.4,4-0.7l-0.7,3.5h-7.8l-0.4,4.2c1.3-0.8,2.7-1.1,4-1.1c3.5,0,5.2,2.4,5.2,5.1c0,3.2-2.5,5.1-6,5.1
			C42.1,249.4,40.6,248.8,39.4,248.2z"/>
	</g>
	<g>
		<path class="st1" d="M51.5,236.2c0-1.7,1.3-3.2,3.2-3.2c1.8,0,3.2,1.5,3.2,3.2s-1.4,3.2-3.2,3.2C52.8,239.4,51.5,237.9,51.5,236.2
			z M56.5,236.2c0-1-0.8-1.9-1.9-1.9s-1.8,0.9-1.8,1.9s0.7,1.9,1.8,1.9S56.5,237.2,56.5,236.2z"/>
	</g>
</g>
<g>
	<g>
		<path class="st1" d="M26.8,126.9c0-1-0.5-2.2-1.8-2.2c-1.7,0-3.2,2.2-4.2,4h-0.1L20,125c1.5-0.6,3.2-1.3,5.1-1.3
			c2.8,0,5.2,1.3,5.2,3.9c0,2.2-1.8,4.2-3.8,5.9c-1.4,1.4-3.5,3.1-4.2,3.7h3.5c1.7,0,3.2-0.4,4.4-1.4h0.1l-0.6,3.9H19.4
			C23.6,134.1,26.8,130.1,26.8,126.9z"/>
	</g>
	<g>
		<path class="st1" d="M31.9,138.1c0-1,0.8-1.9,1.9-1.9s1.9,0.8,1.9,1.9s-0.9,1.9-1.9,1.9S31.9,139.1,31.9,138.1z"/>
	</g>
	<g>
		<path class="st1" d="M36.9,131.8c0-4.8,2.9-8,6.6-8c3.7,0,6.6,3.3,6.6,8c0,4.9-2.9,8.1-6.6,8.1C39.8,139.9,36.9,136.7,36.9,131.8z
			 M46.3,131.8c0-3.2-0.6-7-2.8-7c-2.3,0-2.8,3.9-2.8,7.1c0,3.3,0.6,7.1,2.8,7.1C45.7,139,46.3,135.1,46.3,131.8z"/>
	</g>
	<g>
		<path class="st1" d="M51.5,126.9c0-1.7,1.3-3.2,3.2-3.2c1.8,0,3.2,1.5,3.2,3.2s-1.4,3.2-3.2,3.2C52.8,130.1,51.5,128.6,51.5,126.9
			z M56.5,126.9c0-1-0.8-1.9-1.9-1.9s-1.8,0.9-1.8,1.9s0.7,1.9,1.8,1.9S56.5,127.9,56.5,126.9z"/>
	</g>
</g>
<g>
	<g>
		<path class="st1" d="M26.8,16.5c0-1-0.5-2.2-1.8-2.2c-1.7,0-3.2,2.2-4.2,4h-0.1L20,14.6c1.5-0.6,3.2-1.3,5.1-1.3
			c2.8,0,5.2,1.3,5.2,3.9c0,2.2-1.8,4.2-3.8,5.9c-1.4,1.4-3.5,3.1-4.2,3.7h3.5c1.7,0,3.2-0.4,4.4-1.4h0.1l-0.6,3.9H19.4
			C23.6,23.7,26.8,19.7,26.8,16.5z"/>
	</g>
	<g>
		<path class="st1" d="M31.9,27.7c0-1,0.8-1.9,1.9-1.9s1.9,0.8,1.9,1.9s-0.9,1.9-1.9,1.9S31.9,28.8,31.9,27.7z"/>
	</g>
	<g>
		<path class="st1" d="M37.4,28.5l0.3-3.7h0.1c1.2,2.3,2.7,4,4.2,4c1.4,0,2.4-1.3,2.4-3.7c0-2.3-1-4-3.2-4c-0.8,0-2,0.2-3.5,0.9
			l0.8-8.4h0.1h5.2c1.7,0,3.5-0.4,4-0.7L47,16.4h-7.8l-0.4,4.2c1.3-0.8,2.7-1.1,4-1.1c3.5,0,5.2,2.4,5.2,5.1c0,3.2-2.5,5.1-6,5.1
			C40,29.7,38.5,29.1,37.4,28.5z"/>
	</g>
	<g>
		<path class="st1" d="M49.4,16.5c0-1.7,1.3-3.2,3.2-3.2c1.8,0,3.2,1.5,3.2,3.2s-1.4,3.2-3.2,3.2C50.7,19.7,49.4,18.2,49.4,16.5z
			 M54.4,16.5c0-1-0.8-1.9-1.9-1.9s-1.8,0.9-1.8,1.9s0.7,1.9,1.8,1.9S54.4,17.5,54.4,16.5z"/>
	</g>
</g>
<g class="st2">
	<g>
		<rect x="87.3" y="154.6" class="st1" width="1649" height="0.5"/>
	</g>
</g>
<g class="st2">
	<g>
		<rect x="87.3" y="176.5" class="st1" width="1649" height="0.5"/>
	</g>
</g>
<g class="st2">
	<g>
		<rect x="87.3" y="198.4" class="st1" width="1649" height="0.5"/>
	</g>
</g>
<g class="st2">
	<g>
		<rect x="87.3" y="220.3" class="st1" width="1649" height="0.5"/>
	</g>
</g>
<g class="st2">
	<g>
		<rect x="87.3" y="264.1" class="st1" width="1649" height="0.5"/>
	</g>
</g>
<g class="st2">
	<g>
		<rect x="87.3" y="286" class="st1" width="1649" height="0.5"/>
	</g>
</g>
<g class="st2">
	<g>
		<rect x="87.3" y="307.9" class="st1" width="1649" height="0.5"/>
	</g>
</g>
<g class="st2">
	<g>
		<rect x="87.3" y="329.8" class="st1" width="1649" height="0.5"/>
	</g>
</g>
<g class="st2">
	<g>
		<rect x="87.3" y="45.1" class="st1" width="1649" height="0.5"/>
	</g>
</g>
<g class="st2">
	<g>
		<rect x="87.3" y="67" class="st1" width="1649" height="0.5"/>
	</g>
</g>
<g class="st2">
	<g>
		<rect x="87.3" y="88.9" class="st1" width="1649" height="0.5"/>
	</g>
</g>
<g class="st2">
	<g>
		<rect x="87.3" y="110.8" class="st1" width="1649" height="0.5"/>
	</g>
</g>
<g class="st2">
	<g>
		<rect x="87.3" y="373.6" class="st1" width="1649" height="0.5"/>
	</g>
</g>
<g class="st2">
	<g>
		<rect x="87.3" y="395.5" class="st1" width="1649" height="0.5"/>
	</g>
</g>
<g class="st2">
	<g>
		<rect x="87.3" y="417.4" class="st1" width="1649" height="0.5"/>
	</g>
</g>
<g class="st2">
	<g>
		<rect x="87.3" y="439.3" class="st1" width="1649" height="0.5"/>
	</g>
</g>
<g class="st2">
	<g>
		<rect x="87.3" y="483.1" class="st1" width="1649" height="0.5"/>
	</g>
</g>
<g class="st2">
	<g>
		<rect x="87.3" y="505" class="st1" width="1649" height="0.5"/>
	</g>
</g>
<g class="st2">
	<g>
		<rect x="87.3" y="526.9" class="st1" width="1649" height="0.5"/>
	</g>
</g>
<g class="st2">
	<g>
		<rect x="87.3" y="548.8" class="st1" width="1649" height="0.5"/>
	</g>
</g>
<g>
	<g class="st3">
		<g>
			<rect x="87.3" y="132.5" class="st1" width="1649" height="0.8"/>
		</g>
	</g>
	<g class="st3">
		<g>
			<rect x="87.3" y="242" class="st1" width="1649" height="0.8"/>
		</g>
	</g>
	<g class="st3">
		<g>
			<rect x="87.3" y="23" class="st1" width="1649" height="0.8"/>
		</g>
	</g>
	<g class="st3">
		<g>
			<rect x="87.3" y="351.5" class="st1" width="1649" height="0.8"/>
		</g>
	</g>
	<g class="st3">
		<g>
			<rect x="87.3" y="461" class="st1" width="1649" height="0.8"/>
		</g>
	</g>
	<g class="st3">
		<g>
			<rect x="87.3" y="570.5" class="st1" width="1657.8" height="0.8"/>
		</g>
	</g>
</g>
<g class="st3">
	<g>
		<rect x="259.1" class="st1" width="0.4" height="570.9"/>
	</g>
</g>
<g class="st3">
	<g>
		<rect x="127.6" class="st1" width="0.4" height="570.9"/>
	</g>
</g>
<g class="st3">
	<g>
		<rect x="390.5" class="st1" width="0.4" height="570.9"/>
	</g>
</g>
<g class="st3">
	<g>
		<rect x="521.9" class="st1" width="0.4" height="570.9"/>
	</g>
</g>
<g class="st3">
	<g>
		<rect x="653.3" class="st1" width="0.4" height="570.9"/>
	</g>
</g>
<g class="st3">
	<g>
		<rect x="784.6" class="st1" width="0.4" height="570.9"/>
	</g>
</g>
<g class="st3">
	<g>
		<rect x="916" class="st1" width="0.4" height="570.9"/>
	</g>
</g>
<g class="st3">
	<g>
		<rect x="1047.4" class="st1" width="0.4" height="570.9"/>
	</g>
</g>
<g class="st3">
	<g>
		<rect x="1178.8" class="st1" width="0.4" height="570.9"/>
	</g>
</g>
<g class="st3">
	<g>
		<rect x="1310.2" class="st1" width="0.4" height="570.9"/>
	</g>
</g>
<g class="st3">
	<g>
		<rect x="1441.6" class="st1" width="0.4" height="570.9"/>
	</g>
</g>
<g class="st3">
	<g>
		<rect x="1573" class="st1" width="0.4" height="570.9"/>
	</g>
</g>
<g class="st3">
	<g>
		<rect x="1704.3" class="st1" width="0.4" height="570.9"/>
	</g>
</g>
<g>
	<g>
		<g>
			<circle class="st4" cx="1573.2" cy="242.4" r="12.2"/>
		</g>
	</g>
	<g>
		<g>
			<circle class="st4" cx="1704.5" cy="154.8" r="12.2"/>
		</g>
	</g>
</g>
<g>
	<g>
		<g>
			<circle class="st4" cx="1441.8" cy="132.9" r="12.2"/>
		</g>
	</g>
</g>
<g>
	<g>
		<g>
			<circle class="st4" cx="1310.4" cy="176.7" r="12.2"/>
		</g>
	</g>
</g>
<g>
	<g>
		<g>
			<circle class="st4" cx="1179.5" cy="67.2" r="12.2"/>
		</g>
	</g>
</g>
<g>
	<g>
		<g>
			<circle class="st4" cx="1048.1" cy="220.5" r="12.2"/>
		</g>
	</g>
</g>
<g>
	<g>
		<g>
			<circle class="st4" cx="916.2" cy="220.5" r="12.2"/>
		</g>
	</g>
</g>
<g>
	<g>
		<g>
			<circle class="st4" cx="785.1" cy="242.4" r="12.2"/>
		</g>
	</g>
</g>
<g>
	<g>
		<g>
			<circle class="st4" cx="653.5" cy="198.6" r="12.2"/>
		</g>
	</g>
</g>
<g>
	<g>
		<g>
			<circle class="st4" cx="522.1" cy="67.2" r="12.2"/>
		</g>
	</g>
</g>
<g>
	<g>
		<g>
			<circle class="st4" cx="390.7" cy="111" r="12.2"/>
		</g>
	</g>
</g>
<g>
	<g>
		<g>
			<circle class="st4" cx="259.3" cy="286.2" r="12.2"/>
		</g>
	</g>
</g>
<g>
	<g>
		<g>
			<circle class="st4" cx="127.8" cy="242.4" r="12.2"/>
		</g>
	</g>
</g>
<g>
	<g>
		<rect x="389.2" y="111" class="st4" width="3" height="459.9"/>
	</g>
</g>
<g>
	<g>
		<rect x="257.8" y="286.2" class="st4" width="3" height="284.7"/>
	</g>
</g>
<g>
	<g>
		<rect x="126.3" y="242.4" class="st4" width="3" height="328.5"/>
	</g>
</g>
<g>
	<g>
		<rect x="520.6" y="67.2" class="st4" width="3" height="503.7"/>
	</g>
</g>
<g>
	<g>
		<rect x="652" y="198.6" class="st4" width="3" height="372.3"/>
	</g>
</g>
<g>
	<g>
		<rect x="783.6" y="242.4" class="st4" width="3" height="328.5"/>
	</g>
</g>
<g>
	<g>
		<rect x="915.1" y="223" class="st4" width="3" height="348"/>
	</g>
</g>
<g>
	<g>
		<rect x="1046.1" y="223" class="st4" width="3" height="348"/>
	</g>
</g>
<g>
	<g>
		<rect x="1177.5" y="67.2" class="st4" width="3" height="503.7"/>
	</g>
</g>
<g>
	<g>
		<rect x="1308.9" y="176.7" class="st4" width="3" height="394.2"/>
	</g>
</g>
<g>
	<g>
		<rect x="1440.3" y="132.9" class="st4" width="3" height="438"/>
	</g>
</g>
<g>
	<g>
		<rect x="1571.7" y="242.4" class="st4" width="3" height="328.5"/>
	</g>
</g>
<g>
	<g>
		<rect x="1703" y="154.8" class="st4" width="3" height="416.1"/>
	</g>
</g>
<g>
	<path class="st1" d="M7,234.7v5.6h5.4v1.4H7v5.7H5.4v-5.7H0v-1.4h5.4v-5.6H7z"/>
</g>
<g>
	<path class="st1" d="M7,125.5v5.6h5.4v1.4H7v5.7H5.4v-5.7H0v-1.4h5.4v-5.6H7z"/>
</g>
<g>
	<path class="st1" d="M7,14.9v5.6h5.4v1.4H7v5.8H5.4V22H0v-1.4h5.4V15H7V14.9z"/>
</g>
<g>
	<path class="st1" d="M7,343.9v5.6h5.4v1.4H7v5.7H5.4v-5.7H0v-1.4h5.4v-5.6H7z"/>
</g>
<g>
	<path class="st1" d="M7,453.3v5.6h5.4v1.4H7v5.7H5.4v-5.7H0v-1.4h5.4v-5.6H7z"/>
</g>
</svg>
