<?xml version="1.0" encoding="utf-8"?>
<!-- Generator: Adobe Illustrator 26.0.1, SVG Export Plug-In . SVG Version: 6.00 Build 0)  -->
<svg version="1.1" xmlns="http://www.w3.org/2000/svg" xmlns:xlink="http://www.w3.org/1999/xlink" x="0px" y="0px"
	 viewBox="0 0 825.3 855.7" style="enable-background:new 0 0 825.3 855.7;" xml:space="preserve">
<style type="text/css">
	.st0{enable-background:new    ;}
	.st1{fill:#FFFFFF;}
	.st2{opacity:0.5;}
	.st3{fill:#1D1D1B;}
	.st4{fill:#F60000;}
	.st5{fill:#1D1D1B;stroke:#FFFFFF;stroke-width:0.25;}
	.st6{fill:#090A0A;}
	.st7{opacity:0.2;}
	.st8{fill:#FA0000;}
	.st9{fill:none;stroke:url(#SVGID_1_);stroke-width:6;}
	.st10{fill:none;stroke:url(#SVGID_00000075846377118368318130000001103830863626420096_);stroke-width:6;}
	.st11{fill:none;stroke:url(#SVGID_00000139253916426453408470000015192279996571755168_);stroke-width:6;}
	.st12{fill:none;stroke:url(#SVGID_00000026869624814461483950000015259632352927820983_);stroke-width:6;}
	.st13{fill:none;stroke:url(#SVGID_00000070089524369482026280000018056096314576881288_);stroke-width:6;}
</style>
<g id="Livello_2">
</g>
<g id="Livello_1">
	<g class="st0">
		<path class="st1" d="M114.1,839.1V852c0,1.5,0.5,3.1,0.6,3.3v0.1h-4.4v-0.1c0.1-0.3,0.6-1.9,0.6-3.3v-9.6h-2.6v-0.6
			C110.4,841.2,112.5,840.4,114.1,839.1z"/>
		<path class="st1" d="M128.4,847.6c0,4.6-2.3,8.1-6.3,8.1c-2,0-3.5-0.5-5-1.1l0.6-3.7l0.1,0c1.3,2.1,2.9,3.9,4.4,3.9
			c2.1,0,2.6-2.9,2.6-7.1c-0.9,1.1-2.3,1.7-3.8,1.7c-2.9,0-4.8-2.2-4.8-4.8c0-3.2,2.7-5.3,5.9-5.3
			C125.9,839.4,128.4,842.9,128.4,847.6z M119.7,843.9c0,2,0.9,4.2,2.7,4.2c0.7,0,1.6-0.3,2.3-1.3c-0.2-3.5-0.8-6.5-2.6-6.5
			C120.7,840.3,119.7,841.8,119.7,843.9z"/>
		<path class="st1" d="M129.7,851.7c0-2,1.8-3.2,3.5-3.6c-1.9-0.9-3.2-2.3-3.2-4.2c0-2.4,2.2-4.5,5.7-4.5c2.8,0,5.4,1.2,5.4,3.7
			c0,1.8-1.5,3-3,3.5c2.8,1.3,3.7,2.8,3.7,4.5c0,3-3,4.6-6.1,4.6C132.8,855.7,129.7,854.3,129.7,851.7z M135.7,854.8
			c1.8,0,3-1.1,3-2.6c0-1.6-1.8-2.7-4.2-3.6c-0.1,0-0.2-0.1-0.3-0.1c-1.1,0.7-1.7,1.8-1.7,2.9C132.4,853.1,133.6,854.8,135.7,854.8z
			 M137,846.1c0.8-0.6,1.5-1.5,1.5-2.7c0-1.7-1-3.1-2.9-3.1c-1.5,0-2.7,0.9-2.7,2.4C132.9,844.4,134.7,845.2,137,846.1z"/>
		<path class="st1" d="M150.1,842.6c0-1-0.5-2.2-1.8-2.2c-1.7,0-3.2,2.2-4.2,4h-0.1l-0.7-3.7c1.5-0.6,3.2-1.3,5.1-1.3
			c2.8,0,5.2,1.3,5.2,3.9c0,2.2-1.8,4.2-3.8,5.9c-1.4,1.4-3.5,3.1-4.2,3.7h3.5c1.7,0,3.2-0.4,4.4-1.4l0.1,0l-0.6,3.9h-10.3
			C146.8,849.8,150.1,845.7,150.1,842.6z"/>
	</g>
	<g transform="translate(164.44444444444443,0)">
		<g class="st0">
			<path class="st1" d="M80,838.8v12.9c0,1.5,0.5,3.1,0.6,3.3v0.1h-4.4v-0.1c0.1-0.3,0.6-1.9,0.6-3.3v-9.6H74v-0.6
				C76.3,841,78.3,840.1,80,838.8z"/>
			<path class="st1" d="M94.3,847.3c0,4.6-2.3,8.1-6.3,8.1c-2,0-3.5-0.5-5-1.1l0.6-3.7l0.1,0c1.3,2.1,2.9,3.9,4.4,3.9
				c2.1,0,2.6-2.9,2.6-7.1c-0.9,1.1-2.3,1.7-3.8,1.7c-2.9,0-4.8-2.2-4.8-4.8c0-3.2,2.7-5.3,5.9-5.3
				C91.7,839.1,94.3,842.7,94.3,847.3z M85.5,843.7c0,2,0.9,4.2,2.7,4.2c0.7,0,1.6-0.3,2.3-1.3c-0.2-3.5-0.8-6.5-2.6-6.5
				C86.5,840,85.5,841.6,85.5,843.7z"/>
			<path class="st1" d="M107.6,847.3c0,4.6-2.3,8.1-6.3,8.1c-2,0-3.5-0.5-5-1.1l0.6-3.7l0.1,0c1.3,2.1,2.9,3.9,4.4,3.9
				c2.1,0,2.6-2.9,2.6-7.1c-0.9,1.1-2.3,1.7-3.8,1.7c-2.9,0-4.8-2.2-4.8-4.8c0-3.2,2.7-5.3,5.9-5.3
				C105.1,839.1,107.6,842.7,107.6,847.3z M98.8,843.7c0,2,0.9,4.2,2.7,4.2c0.7,0,1.6-0.3,2.3-1.3c-0.2-3.5-0.8-6.5-2.6-6.5
				C99.8,840,98.8,841.6,98.8,843.7z"/>
			<path class="st1" d="M108.9,847.2c0-4.8,2.9-8,6.6-8c3.7,0,6.6,3.3,6.6,8c0,4.9-2.9,8.1-6.6,8.1
				C111.7,855.3,108.9,852.1,108.9,847.2z M118.3,847.2c0-3.2-0.6-7-2.8-7c-2.3,0-2.8,3.9-2.8,7.1c0,3.3,0.6,7.1,2.8,7.1
				C117.7,854.4,118.3,850.4,118.3,847.2z"/>
		</g>
	</g>
	<g>
		<g class="st0">
			<path class="st1" d="M407.5,842.3c0-1-0.5-2.2-1.8-2.2c-1.7,0-3.2,2.2-4.2,4h-0.1l-0.7-3.7c1.5-0.6,3.2-1.3,5.1-1.3
				c2.8,0,5.2,1.3,5.2,3.9c0,2.2-1.8,4.2-3.8,5.9c-1.4,1.4-3.5,3.1-4.2,3.7h3.5c1.7,0,3.2-0.4,4.4-1.4l0.1,0l-0.6,3.9H400
				C404.2,849.5,407.5,845.4,407.5,842.3z"/>
			<path class="st1" d="M412.1,847.2c0-4.8,2.9-8,6.6-8c3.7,0,6.6,3.3,6.6,8c0,4.9-2.9,8.1-6.6,8.1
				C414.9,855.3,412.1,852.1,412.1,847.2z M421.5,847.2c0-3.2-0.6-7-2.8-7c-2.3,0-2.8,3.9-2.8,7.1c0,3.3,0.6,7.1,2.8,7.1
				C420.9,854.4,421.5,850.4,421.5,847.2z"/>
			<path class="st1" d="M426.4,847.2c0-4.8,2.9-8,6.6-8c3.7,0,6.6,3.3,6.6,8c0,4.9-2.9,8.1-6.6,8.1
				C429.3,855.3,426.4,852.1,426.4,847.2z M435.8,847.2c0-3.2-0.6-7-2.8-7c-2.3,0-2.8,3.9-2.8,7.1c0,3.3,0.6,7.1,2.8,7.1
				C435.3,854.4,435.8,850.4,435.8,847.2z"/>
			<path class="st1" d="M440.8,847.2c0-4.8,2.9-8,6.6-8c3.7,0,6.6,3.3,6.6,8c0,4.9-2.9,8.1-6.6,8.1
				C443.7,855.3,440.8,852.1,440.8,847.2z M450.2,847.2c0-3.2-0.6-7-2.8-7c-2.3,0-2.8,3.9-2.8,7.1c0,3.3,0.6,7.1,2.8,7.1
				C449.7,854.4,450.2,850.4,450.2,847.2z"/>
		</g>
	</g>
	<g>
		<g class="st0">
			<path class="st1" d="M575.2,842.3c0-1-0.5-2.2-1.8-2.2c-1.7,0-3.2,2.2-4.2,4H569l-0.7-3.7c1.5-0.6,3.2-1.3,5.1-1.3
				c2.8,0,5.2,1.3,5.2,3.9c0,2.2-1.8,4.2-3.8,5.9c-1.4,1.4-3.5,3.1-4.2,3.7h3.5c1.7,0,3.2-0.4,4.4-1.4l0.1,0l-0.6,3.9h-10.3
				C572,849.5,575.2,845.4,575.2,842.3z"/>
			<path class="st1" d="M579.8,847.2c0-4.8,2.9-8,6.6-8c3.7,0,6.6,3.3,6.6,8c0,4.9-2.9,8.1-6.6,8.1
				C582.7,855.3,579.8,852.1,579.8,847.2z M589.2,847.2c0-3.2-0.6-7-2.8-7c-2.3,0-2.8,3.9-2.8,7.1c0,3.3,0.6,7.1,2.8,7.1
				C588.7,854.4,589.2,850.4,589.2,847.2z"/>
			<path class="st1" d="M599.9,838.8v12.9c0,1.5,0.5,3.1,0.6,3.3v0.1H596v-0.1c0.1-0.3,0.6-1.9,0.6-3.3v-9.6h-2.6v-0.6
				C596.2,841,598.2,840.1,599.9,838.8z"/>
			<path class="st1" d="M601.9,847.2c0-4.8,2.9-8,6.6-8c3.7,0,6.6,3.3,6.6,8c0,4.9-2.9,8.1-6.6,8.1
				C604.8,855.3,601.9,852.1,601.9,847.2z M611.3,847.2c0-3.2-0.6-7-2.8-7c-2.3,0-2.8,3.9-2.8,7.1c0,3.3,0.6,7.1,2.8,7.1
				C610.8,854.4,611.3,850.4,611.3,847.2z"/>
		</g>
	</g>
	<g>
		<g class="st0">
			<path class="st1" d="M737.8,842.3c0-1-0.5-2.2-1.8-2.2c-1.7,0-3.2,2.2-4.2,4h-0.1l-0.7-3.7c1.5-0.6,3.2-1.3,5.1-1.3
				c2.8,0,5.2,1.3,5.2,3.9c0,2.2-1.8,4.2-3.8,5.9c-1.4,1.4-3.5,3.1-4.2,3.7h3.5c1.7,0,3.2-0.4,4.4-1.4l0.1,0l-0.6,3.9h-10.3
				C734.6,849.5,737.8,845.4,737.8,842.3z"/>
			<path class="st1" d="M742.4,847.2c0-4.8,2.9-8,6.6-8c3.7,0,6.6,3.3,6.6,8c0,4.9-2.9,8.1-6.6,8.1
				C745.3,855.3,742.4,852.1,742.4,847.2z M751.8,847.2c0-3.2-0.6-7-2.8-7c-2.3,0-2.8,3.9-2.8,7.1c0,3.3,0.6,7.1,2.8,7.1
				C751.2,854.4,751.8,850.4,751.8,847.2z"/>
			<path class="st1" d="M763.7,842.3c0-1-0.5-2.2-1.8-2.2c-1.7,0-3.2,2.2-4.2,4h-0.1l-0.7-3.7c1.5-0.6,3.2-1.3,5.1-1.3
				c2.8,0,5.2,1.3,5.2,3.9c0,2.2-1.8,4.2-3.8,5.9c-1.4,1.4-3.5,3.1-4.2,3.7h3.5c1.7,0,3.2-0.4,4.4-1.4l0.1,0l-0.6,3.9h-10.3
				C760.4,849.5,763.7,845.4,763.7,842.3z"/>
			<path class="st1" d="M768.3,847.2c0-4.8,2.9-8,6.6-8c3.7,0,6.6,3.3,6.6,8c0,4.9-2.9,8.1-6.6,8.1
				C771.1,855.3,768.3,852.1,768.3,847.2z M777.7,847.2c0-3.2-0.6-7-2.8-7c-2.3,0-2.8,3.9-2.8,7.1c0,3.3,0.6,7.1,2.8,7.1
				C777.1,854.4,777.7,850.4,777.7,847.2z"/>
		</g>
	</g>
	<g>
		<path class="st1" d="M16,795.8h9.9v1H16V795.8z"/>
		<path class="st1" d="M32.8,787.2v12.9c0,1.5,0.5,3.1,0.6,3.3v0.1h-4.4v-0.1c0.1-0.3,0.6-1.9,0.6-3.3v-9.6h-2.6V790
			C29.1,789.4,31.1,788.5,32.8,787.2z"/>
		<path class="st1" d="M35.2,801.9c0-1,0.8-1.9,1.9-1.9s1.9,0.8,1.9,1.9s-0.9,1.9-1.9,1.9S35.2,803,35.2,801.9z"/>
		<path class="st1" d="M40.2,795.6c0-4.8,2.9-8,6.6-8c3.7,0,6.6,3.3,6.6,8c0,4.9-2.9,8.1-6.6,8.1C43,803.7,40.2,800.5,40.2,795.6z
			 M49.6,795.6c0-3.2-0.6-7-2.8-7c-2.3,0-2.8,3.9-2.8,7.1c0,3.3,0.6,7.1,2.8,7.1C49,802.8,49.6,798.9,49.6,795.6z"/>
		<path class="st1" d="M54.7,790.7c0-1.7,1.3-3.2,3.2-3.2c1.8,0,3.2,1.5,3.2,3.2s-1.4,3.2-3.2,3.2C56.1,793.9,54.7,792.4,54.7,790.7
			z M59.8,790.7c0-1-0.8-1.9-1.9-1.9s-1.8,0.9-1.8,1.9s0.7,1.9,1.8,1.9S59.8,791.7,59.8,790.7z"/>
	</g>
	<g>
		<path class="st1" d="M11.4,686.3h9.9v1h-9.9V686.3z"/>
		<path class="st1" d="M23.3,686.1c0-4.8,2.9-8,6.6-8c3.7,0,6.6,3.3,6.6,8c0,4.9-2.9,8.1-6.6,8.1C26.2,694.2,23.3,690.9,23.3,686.1z
			 M32.7,686c0-3.2-0.6-7-2.8-7c-2.3,0-2.8,3.9-2.8,7.1c0,3.3,0.6,7.1,2.8,7.1C32.1,693.2,32.7,689.3,32.7,686z"/>
		<path class="st1" d="M37.3,692.4c0-1,0.8-1.9,1.9-1.9s1.9,0.8,1.9,1.9s-0.9,1.9-1.9,1.9S37.3,693.4,37.3,692.4z"/>
		<path class="st1" d="M42.7,693.1l0.3-3.7l0.1,0c1.2,2.3,2.7,4,4.2,4c1.4,0,2.4-1.3,2.4-3.7c0-2.3-1-4-3.2-4c-0.8,0-2,0.2-3.5,0.9
			l0.8-8.4h0.1h5.2c1.7,0,3.5-0.4,4-0.7l-0.7,3.5h-7.8l-0.4,4.2c1.3-0.8,2.7-1.1,4-1.1c3.5,0,5.2,2.4,5.2,5.1c0,3.2-2.5,5.1-6,5.1
			C45.4,694.3,43.9,693.7,42.7,693.1z"/>
		<path class="st1" d="M54.7,681.1c0-1.7,1.3-3.2,3.2-3.2c1.8,0,3.2,1.5,3.2,3.2s-1.4,3.2-3.2,3.2C56.1,684.3,54.7,682.8,54.7,681.1
			z M59.8,681.1c0-1-0.8-1.9-1.9-1.9c-1.1,0-1.8,0.9-1.8,1.9s0.7,1.9,1.8,1.9C59,683,59.8,682.1,59.8,681.1z"/>
	</g>
	<g>
		<path class="st1" d="M21.2,576.8c0-4.8,2.9-8,6.6-8c3.7,0,6.6,3.3,6.6,8c0,4.9-2.9,8.1-6.6,8.1C24.1,584.9,21.2,581.7,21.2,576.8z
			 M30.6,576.8c0-3.2-0.6-7-2.8-7c-2.3,0-2.8,3.9-2.8,7.1c0,3.3,0.6,7.1,2.8,7.1C30,583.9,30.6,580,30.6,576.8z"/>
		<path class="st1" d="M35.2,583.1c0-1,0.8-1.9,1.9-1.9s1.9,0.8,1.9,1.9s-0.9,1.9-1.9,1.9S35.2,584.1,35.2,583.1z"/>
		<path class="st1" d="M40.2,576.8c0-4.8,2.9-8,6.6-8c3.7,0,6.6,3.3,6.6,8c0,4.9-2.9,8.1-6.6,8.1C43,584.9,40.2,581.7,40.2,576.8z
			 M49.6,576.8c0-3.2-0.6-7-2.8-7c-2.3,0-2.8,3.9-2.8,7.1c0,3.3,0.6,7.1,2.8,7.1C49,583.9,49.6,580,49.6,576.8z"/>
		<path class="st1" d="M54.7,571.8c0-1.7,1.3-3.2,3.2-3.2c1.8,0,3.2,1.5,3.2,3.2s-1.4,3.2-3.2,3.2C56.1,575,54.7,573.5,54.7,571.8z
			 M59.8,571.8c0-1-0.8-1.9-1.9-1.9s-1.8,0.9-1.8,1.9s0.7,1.9,1.8,1.9S59.8,572.8,59.8,571.8z"/>
	</g>
	<g>
		<path class="st1" d="M23.3,467.3c0-4.8,2.9-8,6.6-8c3.7,0,6.6,3.3,6.6,8c0,4.9-2.9,8.1-6.6,8.1C26.2,475.4,23.3,472.2,23.3,467.3z
			 M32.7,467.2c0-3.2-0.6-7-2.8-7c-2.3,0-2.8,3.9-2.8,7.1c0,3.3,0.6,7.1,2.8,7.1C32.1,474.4,32.7,470.5,32.7,467.2z"/>
		<path class="st1" d="M37.3,473.6c0-1,0.8-1.9,1.9-1.9s1.9,0.8,1.9,1.9s-0.9,1.9-1.9,1.9S37.3,474.6,37.3,473.6z"/>
		<path class="st1" d="M42.7,474.3l0.3-3.7l0.1,0c1.2,2.3,2.7,4,4.2,4c1.4,0,2.4-1.3,2.4-3.7c0-2.3-1-4-3.2-4c-0.8,0-2,0.2-3.5,0.9
			l0.8-8.4h0.1h5.2c1.7,0,3.5-0.4,4-0.7l-0.7,3.5h-7.8l-0.4,4.2c1.3-0.8,2.7-1.1,4-1.1c3.5,0,5.2,2.4,5.2,5.1c0,3.2-2.5,5.1-6,5.1
			C45.4,475.5,43.9,474.9,42.7,474.3z"/>
		<path class="st1" d="M54.7,462.3c0-1.7,1.3-3.2,3.2-3.2c1.8,0,3.2,1.5,3.2,3.2s-1.4,3.2-3.2,3.2C56.1,465.5,54.7,464,54.7,462.3z
			 M59.8,462.3c0-1-0.8-1.9-1.9-1.9c-1.1,0-1.8,0.9-1.8,1.9s0.7,1.9,1.8,1.9C59,464.3,59.8,463.3,59.8,462.3z"/>
	</g>
	<g>
		<path class="st1" d="M32.8,349.4v12.9c0,1.5,0.5,3.1,0.6,3.3v0.1h-4.4v-0.1c0.1-0.3,0.6-1.9,0.6-3.3v-9.6h-2.6v-0.6
			C29.1,351.5,31.1,350.7,32.8,349.4z"/>
		<path class="st1" d="M35.2,364.1c0-1,0.8-1.9,1.9-1.9s1.9,0.8,1.9,1.9s-0.9,1.9-1.9,1.9S35.2,365.1,35.2,364.1z"/>
		<path class="st1" d="M40.2,357.8c0-4.8,2.9-8,6.6-8c3.7,0,6.6,3.3,6.6,8c0,4.9-2.9,8.1-6.6,8.1C43,365.9,40.2,362.7,40.2,357.8z
			 M49.6,357.8c0-3.2-0.6-7-2.8-7c-2.3,0-2.8,3.9-2.8,7.1c0,3.3,0.6,7.1,2.8,7.1C49,364.9,49.6,361,49.6,357.8z"/>
		<path class="st1" d="M54.7,352.8c0-1.7,1.3-3.2,3.2-3.2c1.8,0,3.2,1.5,3.2,3.2s-1.4,3.2-3.2,3.2C56.1,356,54.7,354.5,54.7,352.8z
			 M59.8,352.8c0-1-0.8-1.9-1.9-1.9c-1.1,0-1.8,0.9-1.8,1.9s0.7,1.9,1.8,1.9C59,354.8,59.8,353.8,59.8,352.8z"/>
	</g>
	<g>
		<path class="st1" d="M34.9,239.9v12.9c0,1.5,0.5,3.1,0.6,3.3v0.1H31v-0.1c0.1-0.3,0.6-1.9,0.6-3.3v-9.6h-2.6v-0.6
			C31.2,242,33.2,241.2,34.9,239.9z"/>
		<path class="st1" d="M37.3,254.6c0-1,0.8-1.9,1.9-1.9s1.9,0.8,1.9,1.9s-0.9,1.9-1.9,1.9S37.3,255.6,37.3,254.6z"/>
		<path class="st1" d="M42.7,255.3l0.3-3.7l0.1,0c1.2,2.3,2.7,4,4.2,4c1.4,0,2.4-1.3,2.4-3.7c0-2.3-1-4-3.2-4c-0.8,0-2,0.2-3.5,0.9
			l0.8-8.4h0.1h5.2c1.7,0,3.5-0.4,4-0.7l-0.7,3.5h-7.8l-0.4,4.2c1.3-0.8,2.7-1.1,4-1.1c3.5,0,5.2,2.4,5.2,5.1c0,3.2-2.5,5.1-6,5.1
			C45.4,256.5,43.9,256,42.7,255.3z"/>
		<path class="st1" d="M54.7,243.3c0-1.7,1.3-3.2,3.2-3.2c1.8,0,3.2,1.5,3.2,3.2s-1.4,3.2-3.2,3.2C56.1,246.5,54.7,245,54.7,243.3z
			 M59.8,243.3c0-1-0.8-1.9-1.9-1.9s-1.8,0.9-1.8,1.9s0.7,1.9,1.8,1.9S59.8,244.3,59.8,243.3z"/>
	</g>
	<g>
		<path class="st1" d="M30.1,133.9c0-1-0.5-2.2-1.8-2.2c-1.7,0-3.2,2.2-4.2,4h-0.1l-0.7-3.7c1.5-0.6,3.2-1.3,5.1-1.3
			c2.8,0,5.2,1.3,5.2,3.9c0,2.2-1.8,4.2-3.8,5.9c-1.4,1.4-3.5,3.1-4.2,3.7h3.5c1.7,0,3.2-0.4,4.4-1.4l0.1,0l-0.6,3.9H22.7
			C26.9,141.1,30.1,137,30.1,133.9z"/>
		<path class="st1" d="M35.2,145.1c0-1,0.8-1.9,1.9-1.9s1.9,0.8,1.9,1.9s-0.9,1.9-1.9,1.9S35.2,146.1,35.2,145.1z"/>
		<path class="st1" d="M40.2,138.8c0-4.8,2.9-8,6.6-8c3.7,0,6.6,3.3,6.6,8c0,4.9-2.9,8.1-6.6,8.1C43,146.9,40.2,143.7,40.2,138.8z
			 M49.6,138.8c0-3.2-0.6-7-2.8-7c-2.3,0-2.8,3.9-2.8,7.1c0,3.3,0.6,7.1,2.8,7.1C49,145.9,49.6,142,49.6,138.8z"/>
		<path class="st1" d="M54.7,133.8c0-1.7,1.3-3.2,3.2-3.2c1.8,0,3.2,1.5,3.2,3.2s-1.4,3.2-3.2,3.2C56.1,137,54.7,135.5,54.7,133.8z
			 M59.8,133.8c0-1-0.8-1.9-1.9-1.9s-1.8,0.9-1.8,1.9s0.7,1.9,1.8,1.9S59.8,134.8,59.8,133.8z"/>
	</g>
	<g>
		<path class="st1" d="M30.1,24.4c0-1-0.5-2.2-1.8-2.2c-1.7,0-3.2,2.2-4.2,4h-0.1l-0.7-3.7c1.5-0.6,3.2-1.3,5.1-1.3
			c2.8,0,5.2,1.3,5.2,3.9c0,2.2-1.8,4.2-3.8,5.9c-1.4,1.4-3.5,3.1-4.2,3.7h3.5c1.7,0,3.2-0.4,4.4-1.4l0.1,0L33,37.2H22.7
			C26.9,31.6,30.1,27.5,30.1,24.4z"/>
		<path class="st1" d="M35.2,35.6c0-1,0.8-1.9,1.9-1.9s1.9,0.8,1.9,1.9s-0.9,1.9-1.9,1.9S35.2,36.6,35.2,35.6z"/>
		<path class="st1" d="M40.6,36.3l0.3-3.7l0.1,0c1.2,2.3,2.7,4,4.2,4c1.4,0,2.4-1.3,2.4-3.7c0-2.3-1-4-3.2-4c-0.8,0-2,0.2-3.5,0.9
			l0.8-8.4h0.1H47c1.7,0,3.5-0.4,4-0.7l-0.7,3.5h-7.8l-0.4,4.2c1.3-0.8,2.7-1.1,4-1.1c3.5,0,5.2,2.4,5.2,5.1c0,3.2-2.5,5.1-6,5.1
			C43.3,37.5,41.8,37,40.6,36.3z"/>
		<path class="st1" d="M52.7,24.3c0-1.7,1.3-3.2,3.2-3.2c1.8,0,3.2,1.5,3.2,3.2s-1.4,3.2-3.2,3.2C54,27.5,52.7,26,52.7,24.3z
			 M57.7,24.3c0-1-0.8-1.9-1.9-1.9S54,23.4,54,24.3s0.7,1.9,1.8,1.9S57.7,25.3,57.7,24.3z"/>
	</g>
	<g class="st2">
		<rect x="84.5" y="797.4" class="st1" width="711.3" height="0.5"/>
	</g>
	<g class="st2">
		<g>
			<rect x="795.5" y="797.4" class="st1" width="3" height="0.5"/>
		</g>
		<g>
			<path class="st1" d="M819,797.9h-5.1v-0.5h5.1V797.9z M808.8,797.9h-5.1v-0.5h5.1V797.9z"/>
		</g>
		<g>
			<rect x="824.2" y="797.4" class="st1" width="3" height="0.5"/>
		</g>
	</g>
	<g class="st2">
		<rect x="84.5" y="250" class="st1" width="718.2" height="0.5"/>
	</g>
	<g class="st2">
		<rect x="88.5" y="140.5" class="st1" width="714.2" height="0.5"/>
	</g>
	<g class="st2">
		<rect x="88.5" y="31" class="st1" width="714.2" height="0.5"/>
	</g>
	<g class="st2">
		<rect x="84.5" y="359.5" class="st1" width="718.2" height="0.5"/>
	</g>
	<g class="st2">
		<rect x="84.5" y="469" class="st1" width="718.2" height="0.5"/>
	</g>
	<g class="st2">
		<rect x="88.3" y="578.5" class="st1" width="718.2" height="0.5"/>
	</g>
	<g class="st2">
		<rect x="84.5" y="687.8" class="st1" width="718.2" height="0.5"/>
	</g>
	<g class="st2">
		<rect x="262.4" y="7.9" class="st1" width="0.5" height="812.8"/>
	</g>
	<g class="st2">
		<rect x="426.8" y="7.9" class="st1" width="0.5" height="812.8"/>
	</g>
	<g class="st2">
		<rect x="591.2" y="7.9" class="st1" width="0.5" height="812.8"/>
	</g>
	<g class="st2">
		<rect x="755.7" y="7.9" class="st1" width="0.5" height="812.8"/>
	</g>
	<g class="st2">
		<rect x="130.8" y="7.9" class="st1" width="0.5" height="812.8"/>
	</g>
	<g transform="translate(657.7777777777777,0)">
		<g class="st0">
			<path class="st1" d="M-508.4,44.7c0-2.3-1.1-5.1-4.3-5.1c-4,0-7.4,5-9.8,9.3h-0.3l-1.7-8.6c3.3-1.4,7.4-2.9,11.9-2.9
				c6.5,0,12,3.1,12,8.9c0,5.1-4.1,9.7-8.8,13.6c-3.2,3.1-8,7.3-9.6,8.6h8.2c4,0,7.4-0.9,10.1-3.1l0.2,0.1l-1.4,8.9h-23.7
				C-515.9,61.4-508.4,52.1-508.4,44.7z"/>
			<path class="st1" d="M-497.8,56.1c0-11,6.6-18.5,15.1-18.5c8.5,0,15.1,7.5,15.1,18.5c0,11.2-6.6,18.7-15.1,18.7
				C-491.2,74.8-497.8,67.3-497.8,56.1z M-476.2,56c0-7.4-1.4-16.2-6.5-16.2c-5.3,0-6.5,9.1-6.5,16.3c0,7.6,1.3,16.4,6.5,16.4
				S-476.2,63.6-476.2,56z"/>
			<path class="st1" d="M-448.8,44.7c0-2.3-1.1-5.1-4.3-5.1c-4,0-7.4,5-9.8,9.3h-0.3l-1.7-8.6c3.3-1.4,7.4-2.9,11.9-2.9
				c6.5,0,12,3.1,12,8.9c0,5.1-4.1,9.7-8.8,13.6c-3.2,3.1-8,7.3-9.6,8.6h8.2c4,0,7.4-0.9,10.1-3.1l0.2,0.1l-1.4,8.9H-466
				C-456.3,61.4-448.8,52.1-448.8,44.7z"/>
			<path class="st1" d="M-420.9,44.7c0-2.3-1.1-5.1-4.3-5.1c-4,0-7.4,5-9.8,9.3h-0.3l-1.7-8.6c3.3-1.4,7.4-2.9,11.9-2.9
				c6.5,0,12,3.1,12,8.9c0,5.1-4.1,9.7-8.8,13.6c-3.2,3.1-8,7.3-9.6,8.6h8.2c4,0,7.4-0.9,10.1-3.1l0.2,0.1l-1.4,8.9h-23.7
				C-428.3,61.4-420.9,52.1-420.9,44.7z"/>
		</g>
	</g>
	<g transform="translate(657.7777777777777,0)">
		<g class="st0">
			<path class="st1" d="M-526.5,194.2h13.1c15.4,0,17-0.3,18.5-1.9c1.4-1.4,1.6-2.9,1.6-18.5v-14.1h7.9v14.3
				c0,15.7,0.2,17.1,1.6,18.5c1.6,1.6,3.2,1.7,18.5,1.7h15.4v7.3h-15.4c-15.4,0-17,0.3-18.5,1.9c-1.4,1.4-1.6,2.9-1.6,18.5V236h-7.9
				v-14.1c0-15.7-0.2-17.1-1.6-18.5c-1.6-1.6-3.2-1.9-18.5-1.9h-13.1V194.2z"/>
			<path class="st1" d="M-385.5,157.4c0-7.1-3.5-16-13.3-16c-12.4,0-23.1,15.7-30.6,29h-0.8l-5.2-26.8c10.5-4.3,23.1-9,37.1-9
				c20.4,0,37.4,9.7,37.4,27.9c0,15.8-12.8,30.3-27.4,42.5c-10,9.8-24.9,22.7-29.9,26.9h25.5c12.5,0,23-2.9,31.5-9.8l0.5,0.3
				l-4.3,27.7h-74.1C-408.8,209.4-385.5,180.3-385.5,157.4z"/>
			<path class="st1" d="M-348.7,238.2c0-7.4,6-13.5,13.5-13.5s13.6,6,13.6,13.5c0,7.4-6.2,13.5-13.6,13.5S-348.7,245.7-348.7,238.2z
				"/>
			<path class="st1" d="M-309.8,244.9l5.5-27.6h0.8c8.2,15,15.8,28.4,28.2,28.4c10.9,0,16.5-9.5,16.5-22c0-14.4-10-26.3-26.8-30.1
				v-1.7c16.2-3.8,26.5-14.9,26.5-29.6c0-11.1-5.5-21.4-16-21.4c-11.2,0-19.2,12.2-27.9,27.7h-0.8l-5.2-26.9
				c7.6-3,20.3-7.1,33.7-7.1c15.7,0,42,6.3,42,28.8c0,16.2-14.4,28-34.7,29.3c20.8,1.3,35.3,13,35.3,29.8
				c0,23.3-26.6,29.8-42.8,29.8C-289.2,252.2-302,248.1-309.8,244.9z"/>
			<path class="st1" d="M-171.6,157.4c0-7.1-3.5-16-13.3-16c-12.4,0-23.1,15.7-30.6,29h-0.8l-5.2-26.8c10.5-4.3,23.1-9,37.1-9
				c20.4,0,37.4,9.7,37.4,27.9c0,15.8-12.8,30.3-27.4,42.5c-10,9.8-24.9,22.7-29.9,26.9h25.5c12.5,0,23-2.9,31.5-9.8l0.5,0.3
				l-4.3,27.7h-74.1C-194.9,209.4-171.6,180.3-171.6,157.4z"/>
			<path class="st1" d="M-134.6,157.3c0-12.2,9.7-22.8,23-22.8c13.3,0,23.3,10.6,23.3,22.8c0,12.2-10,23-23.3,23
				C-124.9,180.3-134.6,169.5-134.6,157.3z M-98.1,157.3c0-7.1-5.5-13.6-13.5-13.6s-13.1,6.5-13.1,13.6c0,7.1,5.2,13.8,13.1,13.8
				S-98.1,164.4-98.1,157.3z"/>
		</g>
	</g>
	<g id="viz_00000174602642986341639300000007023271868075817633_">
		<g>
			<g>
				<path class="st1" d="M163.7,743.5c-3.3,0-4.4-4.4-5.2-8.9c-0.8-4.2-1.5-10.2-2.2-18.3c-1.3-15-2.3-35.3-3.3-55
					c-1.6-30.2-3.7-71.3-6.7-77.5c-3.8-0.1-5.9-0.6-7.9-1.2c-2-0.5-3.8-1-7.6-1v-5c4.4,0,6.7,0.6,8.9,1.2c2,0.5,3.8,1,7.6,1
					c3.3,0,4.4,4.4,5.2,8.9c0.8,4.2,1.5,10.2,2.2,18.3c1.3,15,2.3,35.3,3.3,55c1.4,26.9,3.2,62.4,5.7,74.3
					c2.5-12.2,4.4-49.4,5.7-77.5c3.6-72.4,5.1-85.1,10.5-85.5c2.5-2.1,4.7-18.6,6-28.5c2.9-21.6,4.7-32.8,10.7-32.8
					c6,0,7.9,10.3,10.7,28.4c1.3,8.4,3.5,22.5,5.9,24.1c2.2-0.3,4.3-6.9,5.7-11.4c2.3-7.3,4.7-14.9,10.6-14.9
					c2.1,0,4.7-10.9,5.8-15.6c2.4-10.2,4.5-19.1,10.3-19.4c2.6-2.7,4.7-21.4,6.1-33.9c3.2-27.8,4.9-38.3,10.7-38.3
					c5.6,0,7.3,10.5,10.7,49.3c1.4,16.5,3.6,41.1,6.3,44.8c5.5,0.6,7.3,10,10.1,26.1c1.2,7.2,3.5,20.6,5.8,22c2.3-0.1,4.2-5,5.8-9.3
					c2.1-5.7,4.5-12.1,9.9-12.5c2.8-4.1,4.9-31.8,6.4-50.2c3.4-43.8,5.1-54.8,10.7-54.8c5.7,0,7.3,10.4,10.7,51.5
					c1.4,17.2,3.6,42.9,6.3,46.9c3.1-0.1,4.7-0.9,6.5-1.9c2.1-1.1,4.4-2.4,8.8-2.5c2.8-4.2,4.9-31.8,6.4-50.2
					c3.4-43.8,5.1-54.8,10.7-54.8c5.6,0,7.3,9.8,10.7,46c1.3,14.2,3.3,35,5.7,40.5c2.4-5.7,4.4-27,5.7-41.6
					c3.4-37.1,5.1-47.1,10.7-47.1c6,0,8.3,8.3,10.6,17.2c1.3,4.7,3.6,13.5,5.8,13.5c2.4,0,3.9-2.4,6-6.3c2.1-4,4.8-9,10.4-9
					c5.2,0,7.9,2.9,10.1,5.2c1.8,1.9,3.1,3.3,5.5,3.5c2.9-5.9,5-43.3,6.6-70.9c3.6-64.4,5.2-75.7,10.7-75.7
					c5.6,0,7.1,12.1,10.7,86.6c1.5,30.6,3.5,71.8,6.3,80.9c2.1-3.9,4-16.4,5.2-24.2c2.8-18.8,4.7-29.5,10.7-29.5
					c2.2,0,4.5-7.8,5.8-12.4c2.3-7.9,4.6-16,10.6-16c4.4,0,6.7,0.6,8.9,1.2c2,0.5,3.8,1,7.6,1c5.8,0,8.4,6.7,10.6,12.6
					c1.6,4.1,3.3,8.8,5.5,9.3c2.6-3,4.7-22.1,6.1-34.9c3.2-28.6,4.9-39.4,10.7-39.4c5.6,0,7.3,10.3,10.7,48.2
					c1.3,14.8,3.3,36.4,5.7,42.5c2.5-6.7,4.4-31.2,5.8-47.9c3.4-42.9,5.1-53.7,10.7-53.7c6,0,7.9,10.3,10.7,28.4
					c1.3,8.4,3.5,22.5,5.9,24.1c5.9,0.2,7.7,11.4,10.6,32.8c1.2,8.9,3.1,23,5.2,27.4c2.7-8.8,4.7-46.3,6.2-74.2
					c3.8-72.7,5.5-80.1,10.7-80.1c2.2,0,4.5-8.8,5.8-13.5c2.4-8.8,4.6-17.2,10.6-17.2c5.6,0,7.3,9.8,10.7,46
					c1.4,15.2,3.6,38,6.2,41.5c3.4,0,5.2-0.5,7.1-1c2-0.5,4.1-1.1,8-1.2c3-6.1,5.1-46,6.6-75.3c3.8-72.7,5.5-80.1,10.7-80.1
					c5.5,0,7.1,9.7,10.7,64.7c1.5,23.4,3.6,55.2,6.5,60.1c5.2,0.5,7.6,5.6,9.7,10.2c2.1,4.4,3.6,7.3,6,7.3c6.2,0,8.2,10.6,10.7,23.9
					c1,5.6,2.9,15.2,4.8,18.6c3.1-14.1,5.1-89.4,6.7-150.7c1-37.9,2.1-77.2,3.3-106.1c0.7-15.6,1.4-27.1,2.2-35.1
					c1.2-12.5,2.2-15.5,5.2-15.5v5c0.9,0,1.5-0.5,1.6-0.8c-3.4,6.1-5.6,87.3-7.3,152.6c-1,37.9-2.1,77.2-3.3,106.1
					c-0.7,15.6-1.4,27.1-2.2,35.1c-1.2,12.5-2.2,15.5-5.2,15.5c-6.2,0-8.2-10.6-10.7-23.9c-1.2-6.6-3.6-19-5.8-19.9c0,0,0,0,0,0
					c-5.6,0-8.2-5.4-10.4-10.2c-2.1-4.4-3.6-7.3-6-7.3c-5.5,0-7.1-9.7-10.7-64.7c-1.4-20.9-3.2-48.4-5.6-57.6
					c-2.6,10.8-4.4,46.2-5.8,72.9c-3.8,72.7-5.5,80.1-10.7,80.1c-3.8,0-5.6,0.5-7.6,1c-2.2,0.6-4.4,1.2-8.9,1.2
					c-5.6,0-7.3-9.8-10.7-46c-1.4-15.1-3.5-37.6-6.2-41.4c-2.1,1-4.2,9-5.4,13.4c-2.2,8.4-4.4,16.3-9.7,17.1
					c-3,5.8-5.1,45.9-6.7,75.4c-3.8,72.7-5.5,80.1-10.7,80.1c-6,0-7.8-11.3-10.7-32.8c-1.3-9.9-3.5-26.3-6-28.5
					c-5.8-0.3-7.6-10.5-10.4-28.4c-1.2-7.9-3.2-20.6-5.4-23.6c-2.6,5.5-4.7,31.2-6.1,48.6c-3.4,42.9-5.1,53.7-10.7,53.7
					c-5.6,0-7.3-10.3-10.7-48.2c-1.4-15.1-3.3-37.4-5.8-42.9c-2.4,4.6-4.3,22.2-5.6,34.2c-3.2,28.6-4.9,39.4-10.7,39.4
					c-5.8,0-8.4-6.7-10.6-12.6c-1.6-4.4-3.5-9.3-5.9-9.3c-4.4,0-6.7-0.6-8.9-1.2c-2-0.5-3.8-1-7.6-1c-2.2,0-4.5,7.8-5.8,12.4
					c-2.3,7.8-4.6,15.9-10.4,16c-2.4,1.8-4.6,16.4-5.9,25.2c-2.8,18.8-4.7,29.5-10.7,29.5c-5.6,0-7.1-12.1-10.7-86.6
					c-1.4-28.7-3.3-66.7-5.8-78.8c-2.4,11-4.3,43.3-5.6,67.9c-3.6,64.4-5.2,75.7-10.7,75.7c-5.2,0-7.9-2.9-10.1-5.2
					c-2-2.1-3.4-3.6-6.4-3.6c-2.4,0-3.9,2.4-6,6.3c-2.1,4-4.8,9-10.4,9c-6,0-8.3-8.3-10.6-17.2c-1.2-4.4-3.3-12.3-5.4-13.3
					c-2.6,4-4.8,27-6.2,42.5c-3.4,37.1-5.1,47.1-10.7,47.1c-5.6,0-7.3-9.8-10.7-46c-1.3-14-3.2-34.5-5.6-40.3
					c-2.5,6.7-4.5,31.9-5.8,49.1c-3.4,43.8-5.1,54.8-10.7,54.8c-3.5,0-5.1,0.9-7,1.9c-2.2,1.2-4.7,2.5-9.4,2.5
					c-5.7,0-7.3-10.4-10.7-51.5c-1.3-15.9-3.3-39-5.7-45.6c-2.5,7-4.4,31.9-5.8,48.9c-3.4,43.8-5.1,54.8-10.7,54.8
					c-2.4,0-4.2,5-5.9,9.3c-2.2,5.9-4.7,12.6-10.6,12.6c-5.9,0-7.8-9.5-10.7-26.2c-1.2-7.2-3.5-20.7-5.9-22
					c-5.5-0.1-7.2-10.7-10.6-49.3c-1.4-15.5-3.4-38.4-5.9-44c-2.3,4.5-4.3,21.5-5.6,33.1c-3.2,27.8-4.9,38.3-10.7,38.3
					c-2.1,0-4.7,10.9-5.8,15.6c-2.5,10.4-4.6,19.4-10.7,19.4c-2.3,0-4.4,6.8-5.8,11.4c-2.3,7.3-4.7,14.9-10.6,14.9
					c-6,0-7.9-10.3-10.7-28.4c-1.3-8.2-3.4-21.6-5.7-24c-2.4,2.8-4.5,18.7-5.8,28.3c-2.7,20.3-4.5,31.5-9.7,32.7
					c-3,6-5.2,49.2-6.7,80.9C170.8,731.5,169.3,743.5,163.7,743.5z"/>
			</g>
		</g>
	</g>
	<g>
		<circle class="st4" cx="788.7" cy="71.3" r="12.2"/>
	</g>
	<g>
		<rect x="786.5" y="71.3" class="st4" width="4.5" height="726.9"/>
	</g>
</g>
</svg>
