<?xml version="1.0" encoding="utf-8"?>
<!-- Generator: Adobe Illustrator 26.0.1, SVG Export Plug-In . SVG Version: 6.00 Build 0)  -->
<svg version="1.1" xmlns="http://www.w3.org/2000/svg" xmlns:xlink="http://www.w3.org/1999/xlink" x="0px" y="0px"
	 viewBox="0 0 1772.9 667.9" style="enable-background:new 0 0 1772.9 667.9;" xml:space="preserve">
<style type="text/css">
	.st0{enable-background:new    ;}
	.st1{fill:#FFFFFF;}
	.st2{opacity:0.5;}
	.st3{fill:#1D1D1B;}
	.st4{fill:#F60000;}
	.st5{fill:#1D1D1B;stroke:#FFFFFF;stroke-width:0.25;}
	.st6{opacity:0.2;}
	.st7{fill:#FA0000;}
	.st8{fill:none;stroke:url(#SVGID_1_);stroke-width:6;}
	.st9{fill:none;stroke:url(#SVGID_00000177458978850717513930000003072991354838935178_);stroke-width:6;}
	.st10{fill:none;stroke:url(#SVGID_00000065787884130996837310000007901244709176926617_);stroke-width:6;}
	.st11{fill:none;stroke:url(#SVGID_00000179637483821916409880000008442823334658035602_);stroke-width:6;}
	.st12{fill:none;stroke:url(#SVGID_00000041269640896236511690000013229857064834700714_);stroke-width:6;}
	.st13{fill:none;}
	.st14{font-family:'MyriadPro-Regular';}
	.st15{font-size:24px;}
</style>
<g id="Livello_2">
</g>
<g id="Livello_1">
	<g class="st0">
		<path class="st1" d="M129.4,626.3h-4.2v-0.1c0.1-0.3,0.6-1.9,0.6-3.3v-4.2c0-1.5-0.5-3.1-0.6-3.4v-0.1h3.7v1.8
			c0.8-1.1,1.9-2,3.5-2c1.4,0,2.7,0.7,3.1,2.2c0.8-1.3,2-2.2,3.6-2.2c1.8,0,3.4,1.2,3.4,3.7v4.1c0,1.5,0.5,3.1,0.6,3.3v0.1h-4.2
			v-0.1c0.1-0.3,0.6-1.9,0.6-3.3v-3.7c0-1.5-1-2.1-2-2.1c-0.6,0-1.2,0.2-1.8,0.7c0.1,0.3,0.1,0.7,0.1,1v4.1c0,1.5,0.5,3.1,0.5,3.3
			v0.1H132v-0.1c0.1-0.3,0.6-1.9,0.6-3.3v-3.7c0-1.5-1-2.1-2.1-2.1c-0.6,0-1.1,0.2-1.7,0.6v5.1C128.8,624.4,129.3,626,129.4,626.3
			L129.4,626.3z"/>
		<path class="st1" d="M144.1,623.1c0-2.4,2.4-3.8,5.1-3.5c0.6,0,1.2,0.2,1.7,0.3v-1.3c0-1.6-0.4-2.5-1.2-2.5
			c-1.3,0-4.4,2.4-4.6,2.8h-0.1v-3c1.9-0.5,3.7-0.8,4.9-0.8c2.9,0,4.1,1.5,4.1,3.6v4.6c0,1.2,0.4,1.8,1.4,1.3l0,0.1
			c-0.2,1-1,1.7-2.2,1.7c-1.2,0-2-0.6-2.2-1.7c-0.6,0.9-1.7,1.8-3.3,1.8C145.3,626.5,144.1,624.8,144.1,623.1z M149.3,624.9
			c0.6,0,1.1-0.3,1.5-0.7c0-0.1,0-0.2,0-0.3v-3.3c-0.1,0-0.3,0-0.4,0c-2.1-0.3-3.1,0.8-3.1,2.1C147.3,623.9,148.1,624.9,149.3,624.9
			z"/>
		<path class="st1" d="M160.5,626.3h-4.2v-0.1c0.1-0.3,0.6-1.9,0.6-3.3v-4.2c0-1.5-0.5-3.1-0.6-3.4v-0.1h3.7v2.1
			c0.8-1.7,2.3-2.9,4.6-2.1l-0.5,3.4H164c-1-1-2.5-1.7-4-0.6v5C160,624.4,160.5,626,160.5,626.3L160.5,626.3z"/>
		<path class="st1" d="M100.6,649.5c0-2.4,2.4-3.8,5.1-3.5c0.6,0,1.2,0.2,1.7,0.3V645c0-1.6-0.4-2.5-1.2-2.5c-1.3,0-4.4,2.4-4.6,2.8
			h-0.1v-3c1.9-0.5,3.7-0.8,4.9-0.8c2.9,0,4.1,1.5,4.1,3.6v4.6c0,1.2,0.4,1.8,1.4,1.3l0,0.1c-0.2,1-1,1.7-2.2,1.7
			c-1.2,0-2-0.6-2.2-1.7c-0.6,0.9-1.7,1.8-3.3,1.8C101.8,652.9,100.6,651.2,100.6,649.5z M105.8,651.3c0.6,0,1.1-0.3,1.5-0.7
			c0-0.1,0-0.2,0-0.3V647c-0.1,0-0.3,0-0.4,0c-2.1-0.3-3.1,0.8-3.1,2.1C103.8,650.3,104.6,651.3,105.8,651.3z"/>
		<path class="st1" d="M120.3,651.1c-0.9,1.4-2.2,1.8-3.4,1.8c-2.2,0-4.4-1.9-4.4-5.7c0-3.8,2.2-5.7,4.5-5.7c1.3,0,2.5,0.5,3.2,1.6
			v-3.1c0-1.5-0.7-3-0.9-3.3l0-0.1l0.8-0.1l3.2-0.4v13c0,1.5,0.5,3.1,0.6,3.3v0.1H121C120.8,652.2,120.5,651.8,120.3,651.1z
			 M118.3,651.4c0.7,0,1.3-0.3,1.9-0.9c0-0.2,0-0.4,0-0.6v-5.8c-0.5-0.5-1.1-0.8-1.8-0.8c-1.7,0-2.5,1.7-2.5,3.9
			C115.9,649.3,116.5,651.4,118.3,651.4z"/>
		<path class="st1" d="M129.5,652.7h-4.2v-0.1c0.1-0.3,0.6-1.9,0.6-3.3v-4.2c0-1.5-0.5-3.1-0.6-3.4v-0.1h3.7v2.1
			c0.8-1.7,2.3-2.9,4.6-2.1l-0.5,3.4H133c-1-1-2.5-1.7-4-0.6v5C129,650.8,129.5,652.4,129.5,652.7L129.5,652.7z"/>
		<path class="st1" d="M134.7,638c0-1.1,0.9-2,2-2c1.1,0,2,0.9,2,2c0,1.1-0.9,1.9-2,1.9S134.7,639.1,134.7,638z M138.9,652.7h-4.2
			v-0.1c0.1-0.3,0.6-1.9,0.6-3.3v-4.2c0-1.5-0.5-3.1-0.6-3.4v-0.1h3.7v7.6C138.3,650.8,138.8,652.4,138.9,652.7L138.9,652.7z"/>
		<path class="st1" d="M140.2,649.5c0-2.4,2.4-3.8,5.1-3.5c0.6,0,1.2,0.2,1.7,0.3V645c0-1.6-0.4-2.5-1.2-2.5c-1.3,0-4.4,2.4-4.6,2.8
			H141v-3c1.9-0.5,3.7-0.8,4.9-0.8c2.9,0,4.1,1.5,4.1,3.6v4.6c0,1.2,0.4,1.8,1.4,1.3l0,0.1c-0.2,1-1,1.7-2.2,1.7
			c-1.2,0-2-0.6-2.2-1.7c-0.6,0.9-1.7,1.8-3.3,1.8C141.4,652.9,140.2,651.2,140.2,649.5z M145.4,651.3c0.6,0,1.1-0.3,1.5-0.7
			c0-0.1,0-0.2,0-0.3V647c-0.1,0-0.3,0-0.4,0c-2.1-0.3-3.1,0.8-3.1,2.1C143.4,650.3,144.2,651.3,145.4,651.3z"/>
		<path class="st1" d="M153,649.5v-6.9h-1.6v-0.9c2.2-0.9,3.5-2.2,4.6-3.8h0.1v3.7h3v0.9h-3v6.6c0,1.2,0.6,1.7,1.5,1.7
			c0.5,0,1.1-0.1,1.7-0.5c-0.5,1.3-1.6,2.6-3.4,2.6C154.1,653,153,651.7,153,649.5z"/>
		<path class="st1" d="M160.6,638c0-1.1,0.9-2,2-2c1.1,0,2,0.9,2,2c0,1.1-0.9,1.9-2,1.9S160.6,639.1,160.6,638z M164.8,652.7h-4.2
			v-0.1c0.1-0.3,0.6-1.9,0.6-3.3v-4.2c0-1.5-0.5-3.1-0.6-3.4v-0.1h3.7v7.6C164.2,650.8,164.7,652.4,164.8,652.7L164.8,652.7z"/>
		<path class="st1" d="M166,647.2c0-3.6,2.3-5.7,5.6-5.7c1.8,0,3.3,0.7,4.2,1l0,3.3h-0.1c-0.8-1.3-2.4-3.4-4-3.4
			c-1.6,0-2.3,1.8-2.3,3.9c0,2.7,1.1,4.6,3.5,4.6c0.9,0,2.1-0.3,3.4-1.3l0.1,0.1c-0.6,1.6-2.3,3.2-4.8,3.2
			C168.8,653,166,651.1,166,647.2z"/>
		<path class="st1" d="M177.3,647.2c0-3.8,2.6-5.6,5.7-5.6c3.1,0,5.7,1.9,5.7,5.6c0,3.8-2.7,5.8-5.7,5.8
			C179.9,653,177.3,651,177.3,647.2z M185.3,647.2c0-2.4-0.7-4.8-2.3-4.8c-1.6,0-2.2,2.4-2.2,4.8c0,2.4,0.6,4.9,2.2,4.9
			C184.6,652.1,185.3,649.6,185.3,647.2z"/>
	</g>
	<g transform="translate(164.44444444444443,0)">
		<g class="st0">
			<path class="st1" d="M196.4,626.1h-4.2V626c0.1-0.3,0.6-1.9,0.6-3.3v-4.2c0-1.5-0.5-3.1-0.6-3.4V615h3.7v1.8c0.8-1.1,1.9-2,3.5-2
				c1.4,0,2.7,0.7,3.1,2.2c0.8-1.3,2-2.2,3.6-2.2c1.8,0,3.4,1.2,3.4,3.7v4.1c0,1.5,0.5,3.1,0.5,3.3v0.1h-4.2V626
				c0.1-0.3,0.6-1.9,0.6-3.3V619c0-1.5-1-2.1-2-2.1c-0.6,0-1.2,0.2-1.8,0.7c0.1,0.3,0.1,0.7,0.1,1v4.1c0,1.5,0.5,3.1,0.5,3.3v0.1
				H199V626c0.1-0.3,0.6-1.9,0.6-3.3V619c0-1.5-1-2.1-2.1-2.1c-0.6,0-1.1,0.2-1.7,0.6v5.1C195.8,624.1,196.3,625.7,196.4,626.1
				L196.4,626.1z"/>
			<path class="st1" d="M211.1,622.8c0-2.4,2.4-3.8,5.1-3.5c0.6,0,1.2,0.2,1.7,0.3v-1.3c0-1.6-0.4-2.5-1.2-2.5
				c-1.3,0-4.4,2.4-4.6,2.8h-0.1v-3c1.9-0.5,3.7-0.8,4.9-0.8c2.9,0,4.1,1.5,4.1,3.6v4.6c0,1.2,0.4,1.8,1.4,1.3l0,0.1
				c-0.2,1-1,1.7-2.2,1.7c-1.2,0-2-0.6-2.2-1.7c-0.6,0.9-1.7,1.8-3.3,1.8C212.3,626.3,211.1,624.5,211.1,622.8z M216.3,624.6
				c0.6,0,1.1-0.3,1.5-0.7c0-0.1,0-0.2,0-0.3v-3.3c-0.1,0-0.3,0-0.4,0c-2.1-0.3-3.1,0.8-3.1,2.1
				C214.3,623.7,215.2,624.6,216.3,624.6z"/>
			<path class="st1" d="M227.5,626.1h-4.2V626c0.1-0.3,0.6-1.9,0.6-3.3v-4.2c0-1.5-0.5-3.1-0.6-3.4V615h3.7v2.1
				c0.8-1.7,2.3-2.9,4.6-2.1l-0.5,3.4H231c-1-1-2.5-1.7-4-0.6v5C227,624.1,227.5,625.7,227.5,626.1L227.5,626.1z"/>
			<path class="st1" d="M232.1,620.6c0-3.5,2.3-5.7,5.5-5.7c3.6,0,5,2.6,5,5.4h-7.2c0.2,2.3,1.3,4,3.5,4c1.1,0,2.2-0.4,3.4-1.3
				l0.1,0c-0.6,1.6-2.3,3.3-4.9,3.3C234.9,626.3,232.1,624.4,232.1,620.6z M235.5,619.8l4.1-0.6c0-1.7-0.5-3.4-2-3.4
				c-1.6,0-2.1,1.9-2.1,3.8C235.5,619.6,235.5,619.7,235.5,619.8z"/>
			<path class="st1" d="M256.4,624.4c-0.9,1.4-2.2,1.8-3.4,1.8c-2.2,0-4.4-1.9-4.4-5.7c0-3.8,2.2-5.7,4.5-5.7c1.3,0,2.5,0.5,3.2,1.6
				v-3.1c0-1.5-0.7-3-0.9-3.3l0-0.1l0.8-0.1l3.2-0.4v13c0,1.5,0.5,3.1,0.6,3.3v0.1h-2.9C256.9,625.5,256.6,625.1,256.4,624.4z
				 M254.4,624.7c0.7,0,1.3-0.3,1.9-0.9c0-0.2,0-0.4,0-0.6v-5.8c-0.5-0.5-1.1-0.8-1.8-0.8c-1.7,0-2.5,1.7-2.5,3.9
				C252,622.6,252.6,624.7,254.4,624.7z"/>
			<path class="st1" d="M261.1,620.6c0-3.5,2.3-5.7,5.5-5.7c3.6,0,5,2.6,5,5.4h-7.2c0.2,2.3,1.3,4,3.5,4c1.1,0,2.2-0.4,3.4-1.3
				l0.1,0c-0.6,1.6-2.3,3.3-4.9,3.3C263.9,626.3,261.1,624.4,261.1,620.6z M264.5,619.8l4.1-0.6c0-1.7-0.5-3.4-2-3.4
				c-1.6,0-2.1,1.9-2.1,3.8C264.5,619.6,264.5,619.7,264.5,619.8z"/>
			<path class="st1" d="M277.1,626.1h-4.2V626c0-0.3,0.5-1.9,0.5-3.3v-9.2c0-1.5-0.5-3-0.6-3.3l0-0.1l0.6-0.1l3.2-0.4v13
				C276.6,624.1,277.1,625.7,277.1,626.1L277.1,626.1z"/>
			<path class="st1" d="M282.6,626.1h-4.2V626c0-0.3,0.5-1.9,0.5-3.3v-9.2c0-1.5-0.5-3-0.6-3.3l0-0.1l0.6-0.1l3.2-0.4v13
				C282.1,624.1,282.6,625.7,282.6,626.1L282.6,626.1z"/>
			<path class="st1" d="M283.6,620.6c0-3.5,2.3-5.7,5.5-5.7c3.6,0,5,2.6,5,5.4h-7.2c0.2,2.3,1.3,4,3.5,4c1.1,0,2.2-0.4,3.4-1.3
				l0.1,0c-0.6,1.6-2.3,3.3-4.9,3.3C286.4,626.3,283.6,624.4,283.6,620.6z M287,619.8l4.1-0.6c0-1.7-0.5-3.4-2-3.4
				c-1.6,0-2.1,1.9-2.1,3.8C287,619.6,287,619.7,287,619.8z"/>
			<path class="st1" d="M213.1,651.5l-3.1,1.1v-12.7c0-1.5-0.5-3-0.6-3.3l0-0.1l0.5-0.1l3.2-0.4v6.9c0.7-1.1,1.9-1.6,3.2-1.6
				c2.3,0,4.3,1.8,4.3,5.5c0,4-2.4,5.9-4.7,5.9C215.1,652.7,214,652.4,213.1,651.5z M213.1,643.9v6.9c0.5,0.3,1,0.4,1.4,0.4
				c2,0,2.7-2.1,2.7-4.3c0-2-0.7-3.7-2.4-3.7C214.3,643.1,213.7,643.3,213.1,643.9z"/>
			<path class="st1" d="M221.9,649.2c0-2.4,2.4-3.8,5.1-3.5c0.5,0,1.2,0.2,1.7,0.3v-1.3c0-1.6-0.4-2.5-1.2-2.5
				c-1.3,0-4.4,2.4-4.6,2.8h-0.1v-3c1.9-0.5,3.7-0.8,4.9-0.8c2.9,0,4.1,1.5,4.1,3.6v4.6c0,1.2,0.4,1.8,1.4,1.3l0,0.1
				c-0.2,1-1,1.7-2.2,1.7c-1.2,0-2-0.6-2.2-1.7c-0.6,0.9-1.7,1.8-3.3,1.8C223.1,652.7,221.9,650.9,221.9,649.2z M227.1,651
				c0.6,0,1.1-0.3,1.5-0.7c0-0.1,0-0.2,0-0.3v-3.3c-0.1,0-0.3,0-0.4,0c-2.1-0.3-3.1,0.8-3.1,2.1C225.1,650.1,225.9,651,227.1,651z"
				/>
			<path class="st1" d="M238.2,652.5H234v-0.1c0-0.3,0.6-1.9,0.6-3.3v-9.2c0-1.5-0.5-3-0.6-3.3l0-0.1l0.6-0.1l3.2-0.4v13
				C237.7,650.5,238.2,652.1,238.2,652.5L238.2,652.5z"/>
			<path class="st1" d="M239.3,647c0-3.5,2.3-5.7,5.5-5.7c3.6,0,5,2.6,5,5.4h-7.2c0.2,2.3,1.3,4,3.5,4c1.1,0,2.2-0.4,3.4-1.3l0.1,0
				c-0.6,1.6-2.3,3.3-4.9,3.3C242,652.7,239.3,650.8,239.3,647z M242.7,646.2l4.1-0.6c0-1.7-0.5-3.4-2-3.4c-1.6,0-2.1,1.9-2.1,3.8
				C242.7,646,242.7,646.1,242.7,646.2z"/>
			<path class="st1" d="M251,649.2c0-2.4,2.4-3.8,5.1-3.5c0.5,0,1.2,0.2,1.7,0.3v-1.3c0-1.6-0.4-2.5-1.2-2.5c-1.3,0-4.4,2.4-4.6,2.8
				h-0.1v-3c1.9-0.5,3.7-0.8,4.9-0.8c2.9,0,4.1,1.5,4.1,3.6v4.6c0,1.2,0.4,1.8,1.4,1.3l0,0.1c-0.2,1-1,1.7-2.2,1.7
				c-1.2,0-2-0.6-2.2-1.7c-0.6,0.9-1.7,1.8-3.3,1.8C252.2,652.7,251,650.9,251,649.2z M256.3,651c0.6,0,1.1-0.3,1.5-0.7
				c0-0.1,0-0.2,0-0.3v-3.3c-0.1,0-0.3,0-0.4,0c-2.1-0.3-3.1,0.8-3.1,2.1C254.3,650.1,255.1,651,256.3,651z"/>
			<path class="st1" d="M267.5,652.5h-4.2v-0.1c0.1-0.3,0.6-1.9,0.6-3.3v-4.2c0-1.5-0.5-3.1-0.6-3.4v-0.1h3.7v2.1
				c0.8-1.7,2.3-2.9,4.6-2.1l-0.5,3.4h-0.1c-1-1-2.5-1.7-4-0.6v5C266.9,650.5,267.4,652.1,267.5,652.5L267.5,652.5z"/>
			<path class="st1" d="M272.6,637.7c0-1.1,0.9-2,2-2c1.1,0,2,0.9,2,2c0,1.1-0.9,1.9-2,1.9C273.5,639.7,272.6,638.8,272.6,637.7z
				 M276.8,652.5h-4.2v-0.1c0.1-0.3,0.6-1.9,0.6-3.3v-4.2c0-1.5-0.5-3.1-0.6-3.4v-0.1h3.7v7.6C276.3,650.5,276.8,652.1,276.8,652.5
				L276.8,652.5z"/>
		</g>
	</g>
	<g>
		<g class="st0">
			<path class="st1" d="M252.8,626.1h-4.2V626c0.1-0.3,0.6-1.9,0.6-3.3v-4.2c0-1.5-0.5-3.1-0.6-3.4V615h3.7v1.8c0.8-1.1,1.9-2,3.5-2
				c1.4,0,2.7,0.7,3.1,2.2c0.8-1.3,2-2.2,3.6-2.2c1.8,0,3.4,1.2,3.4,3.7v4.1c0,1.5,0.5,3.1,0.6,3.3v0.1h-4.2V626
				c0.1-0.3,0.6-1.9,0.6-3.3V619c0-1.5-1-2.1-2-2.1c-0.6,0-1.2,0.2-1.8,0.7c0.1,0.3,0.1,0.7,0.1,1v4.1c0,1.5,0.5,3.1,0.5,3.3v0.1
				h-4.2V626c0.1-0.3,0.6-1.9,0.6-3.3V619c0-1.5-1-2.1-2.1-2.1c-0.6,0-1.1,0.2-1.7,0.6v5.1C252.2,624.1,252.7,625.7,252.8,626.1
				L252.8,626.1z"/>
			<path class="st1" d="M267.5,622.8c0-2.4,2.4-3.8,5.1-3.5c0.6,0,1.2,0.2,1.7,0.3v-1.3c0-1.6-0.4-2.5-1.2-2.5
				c-1.3,0-4.4,2.4-4.6,2.8h-0.1v-3c1.9-0.5,3.7-0.8,4.9-0.8c2.9,0,4.1,1.5,4.1,3.6v4.6c0,1.2,0.4,1.8,1.4,1.3l0,0.1
				c-0.2,1-1,1.7-2.2,1.7c-1.2,0-2-0.6-2.2-1.7c-0.6,0.9-1.7,1.8-3.3,1.8C268.7,626.3,267.5,624.5,267.5,622.8z M272.7,624.6
				c0.6,0,1.1-0.3,1.5-0.7c0-0.1,0-0.2,0-0.3v-3.3c-0.1,0-0.3,0-0.4,0c-2.1-0.3-3.1,0.8-3.1,2.1
				C270.7,623.7,271.5,624.6,272.7,624.6z"/>
			<path class="st1" d="M283.9,626.1h-4.2V626c0.1-0.3,0.6-1.9,0.6-3.3v-4.2c0-1.5-0.5-3.1-0.6-3.4V615h3.7v2.1
				c0.8-1.7,2.3-2.9,4.6-2.1l-0.5,3.4h-0.1c-1-1-2.5-1.7-4-0.6v5C283.4,624.1,283.9,625.7,283.9,626.1L283.9,626.1z"/>
			<path class="st1" d="M288.5,620.6c0-3.5,2.3-5.7,5.5-5.7c3.6,0,5,2.6,5,5.4h-7.2c0.2,2.3,1.3,4,3.5,4c1.1,0,2.2-0.4,3.4-1.3
				l0.1,0c-0.6,1.6-2.3,3.3-4.9,3.3C291.3,626.3,288.5,624.4,288.5,620.6z M291.9,619.8l4.1-0.6c0-1.7-0.5-3.4-2-3.4
				c-1.6,0-2.1,1.9-2.1,3.8C291.9,619.6,291.9,619.7,291.9,619.8z"/>
			<path class="st1" d="M238.5,649.2c0-2.4,2.4-3.8,5.1-3.5c0.6,0,1.2,0.2,1.7,0.3v-1.3c0-1.6-0.4-2.5-1.2-2.5
				c-1.3,0-4.4,2.4-4.6,2.8h-0.1v-3c1.9-0.5,3.7-0.8,4.9-0.8c2.9,0,4.1,1.5,4.1,3.6v4.6c0,1.2,0.4,1.8,1.4,1.3l0,0.1
				c-0.2,1-1,1.7-2.2,1.7c-1.2,0-2-0.6-2.2-1.7c-0.6,0.9-1.7,1.8-3.3,1.8C239.7,652.7,238.5,650.9,238.5,649.2z M243.7,651
				c0.6,0,1.1-0.3,1.5-0.7c0-0.1,0-0.2,0-0.3v-3.3c-0.1,0-0.3,0-0.4,0c-2.1-0.3-3.1,0.8-3.1,2.1C241.7,650.1,242.5,651,243.7,651z"
				/>
			<path class="st1" d="M254.9,652.5h-4.2v-0.1c0-0.3,0.6-1.9,0.6-3.3v-9.2c0-1.5-0.5-3-0.6-3.3l0-0.1l0.6-0.1l3.2-0.4v13
				C254.3,650.5,254.8,652.1,254.9,652.5L254.9,652.5z"/>
			<path class="st1" d="M259.9,651.5l-3.1,1.1v-12.7c0-1.5-0.5-3-0.6-3.3l0-0.1l0.5-0.1l3.2-0.4v6.9c0.7-1.1,1.9-1.6,3.2-1.6
				c2.3,0,4.3,1.8,4.3,5.5c0,4-2.4,5.9-4.7,5.9C261.8,652.7,260.8,652.4,259.9,651.5z M259.9,643.9v6.9c0.5,0.3,1,0.4,1.4,0.4
				c2,0,2.7-2.1,2.7-4.3c0-2-0.7-3.7-2.4-3.7C261,643.1,260.4,643.3,259.9,643.9z"/>
			<path class="st1" d="M268.8,646.9c0-3.8,2.6-5.6,5.7-5.6c3.1,0,5.7,1.9,5.7,5.6c0,3.8-2.7,5.8-5.7,5.8
				C271.4,652.7,268.8,650.7,268.8,646.9z M276.8,646.9c0-2.4-0.7-4.8-2.3-4.8c-1.6,0-2.2,2.4-2.2,4.8c0,2.4,0.6,4.9,2.2,4.9
				C276.1,651.8,276.8,649.3,276.8,646.9z"/>
			<path class="st1" d="M285.5,652.5h-4.2v-0.1c0.1-0.3,0.6-1.9,0.6-3.3v-4.2c0-1.5-0.5-3.1-0.6-3.4v-0.1h3.7v2.1
				c0.8-1.7,2.3-2.9,4.6-2.1l-0.5,3.4H289c-1-1-2.5-1.7-4-0.6v5C285,650.5,285.5,652.1,285.5,652.5L285.5,652.5z"/>
			<path class="st1" d="M290.3,649.2c0-2.4,2.4-3.8,5.1-3.5c0.5,0,1.2,0.2,1.7,0.3v-1.3c0-1.6-0.4-2.5-1.2-2.5
				c-1.3,0-4.4,2.4-4.6,2.8h-0.1v-3c1.9-0.5,3.7-0.8,4.9-0.8c2.9,0,4.1,1.5,4.1,3.6v4.6c0,1.2,0.4,1.8,1.4,1.3l0,0.1
				c-0.2,1-1,1.7-2.2,1.7c-1.2,0-2-0.6-2.2-1.7c-0.6,0.9-1.7,1.8-3.3,1.8C291.5,652.7,290.3,650.9,290.3,649.2z M292.4,639.4
				l4.9-3.7l2,2.1l-6.6,2L292.4,639.4z M295.5,651c0.6,0,1.1-0.3,1.5-0.7c0-0.1,0-0.2,0-0.3v-3.3c-0.1,0-0.3,0-0.4,0
				c-2.1-0.3-3.1,0.8-3.1,2.1C293.5,650.1,294.3,651,295.5,651z"/>
			<path class="st1" d="M306.7,652.5h-4.2v-0.1c0.1-0.3,0.6-1.9,0.6-3.3v-4.2c0-1.5-0.5-3.1-0.6-3.4v-0.1h3.7v1.9
				c0.7-1.1,1.9-2,3.5-2c1.9,0,3.6,1.2,3.6,3.7v4.1c0,1.5,0.5,3.1,0.5,3.3v0.1h-4.2v-0.1c0.1-0.3,0.6-1.9,0.6-3.3v-3.7
				c0-1.6-0.9-2.2-2-2.2c-0.7,0-1.4,0.3-2.1,0.8v5C306.2,650.5,306.7,652.1,306.7,652.5L306.7,652.5z"/>
		</g>
	</g>
	<g>
		<g class="st0">
			<path class="st1" d="M512.1,626.1h-4.2V626c0.1-0.3,0.6-1.9,0.6-3.3v-4.2c0-1.5-0.5-3.1-0.6-3.4V615h3.7v1.8c0.8-1.1,1.9-2,3.5-2
				c1.4,0,2.7,0.7,3.1,2.2c0.8-1.3,2-2.2,3.6-2.2c1.8,0,3.4,1.2,3.4,3.7v4.1c0,1.5,0.5,3.1,0.6,3.3v0.1h-4.2V626
				c0.1-0.3,0.6-1.9,0.6-3.3V619c0-1.5-1-2.1-2-2.1c-0.6,0-1.2,0.2-1.8,0.7c0.1,0.3,0.1,0.7,0.1,1v4.1c0,1.5,0.5,3.1,0.5,3.3v0.1
				h-4.2V626c0.1-0.3,0.6-1.9,0.6-3.3V619c0-1.5-1-2.1-2.1-2.1c-0.6,0-1.1,0.2-1.7,0.6v5.1C511.5,624.1,512,625.7,512.1,626.1
				L512.1,626.1z"/>
			<path class="st1" d="M526.8,622.8c0-2.4,2.4-3.8,5.1-3.5c0.5,0,1.2,0.2,1.7,0.3v-1.3c0-1.6-0.4-2.5-1.2-2.5
				c-1.3,0-4.4,2.4-4.6,2.8h-0.1v-3c1.9-0.5,3.7-0.8,4.9-0.8c2.9,0,4.1,1.5,4.1,3.6v4.6c0,1.2,0.4,1.8,1.4,1.3l0,0.1
				c-0.2,1-1,1.7-2.2,1.7c-1.2,0-2-0.6-2.2-1.7c-0.6,0.9-1.7,1.8-3.3,1.8C528,626.3,526.8,624.5,526.8,622.8z M532.1,624.6
				c0.6,0,1.1-0.3,1.5-0.7c0-0.1,0-0.2,0-0.3v-3.3c-0.1,0-0.3,0-0.4,0c-2.1-0.3-3.1,0.8-3.1,2.1
				C530.1,623.7,530.9,624.6,532.1,624.6z"/>
			<path class="st1" d="M543.3,626.1H539V626c0.1-0.3,0.6-1.9,0.6-3.3v-4.2c0-1.5-0.5-3.1-0.6-3.4V615h3.7v2.1
				c0.8-1.7,2.3-2.9,4.6-2.1l-0.5,3.4h-0.1c-1-1-2.5-1.7-4-0.6v5C542.7,624.1,543.2,625.7,543.3,626.1L543.3,626.1z"/>
			<path class="st1" d="M560.7,624.4c-0.9,1.4-2.2,1.8-3.4,1.8c-2.2,0-4.4-1.9-4.4-5.7c0-3.8,2.2-5.7,4.5-5.7c1.3,0,2.5,0.5,3.2,1.6
				v-3.1c0-1.5-0.7-3-0.9-3.3l0-0.1l0.8-0.1l3.2-0.4v13c0,1.5,0.5,3.1,0.6,3.3v0.1h-2.9C561.1,625.5,560.9,625.1,560.7,624.4z
				 M558.7,624.7c0.7,0,1.3-0.3,1.9-0.9c0-0.2,0-0.4,0-0.6v-5.8c-0.5-0.5-1.1-0.8-1.8-0.8c-1.7,0-2.5,1.7-2.5,3.9
				C556.3,622.6,556.9,624.7,558.7,624.7z"/>
			<path class="st1" d="M565.8,611.3c0-1.1,0.9-2,2-2c1.1,0,2,0.9,2,2c0,1.1-0.9,1.9-2,1.9C566.7,613.3,565.8,612.4,565.8,611.3z
				 M570,626.1h-4.2V626c0.1-0.3,0.6-1.9,0.6-3.3v-4.2c0-1.5-0.5-3.1-0.6-3.4V615h3.7v7.6C569.5,624.1,570,625.7,570,626.1
				L570,626.1z"/>
			<path class="st1" d="M503.3,647c0-3.6,2.3-5.7,5.6-5.7c1.8,0,3.3,0.7,4.2,1l0,3.3h-0.1c-0.8-1.3-2.4-3.4-4-3.4
				c-1.6,0-2.3,1.8-2.3,3.9c0,2.7,1.1,4.6,3.5,4.6c0.9,0,2.1-0.3,3.4-1.3l0.1,0.1c-0.6,1.6-2.3,3.2-4.8,3.2
				C506.1,652.7,503.3,650.8,503.3,647z"/>
			<path class="st1" d="M514.6,646.9c0-3.8,2.6-5.6,5.7-5.6c3.1,0,5.7,1.9,5.7,5.6c0,3.8-2.7,5.8-5.7,5.8
				C517.3,652.7,514.6,650.7,514.6,646.9z M522.6,646.9c0-2.4-0.7-4.8-2.3-4.8c-1.6,0-2.2,2.4-2.2,4.8c0,2.4,0.6,4.9,2.2,4.9
				C522,651.8,522.6,649.3,522.6,646.9z"/>
			<path class="st1" d="M531.4,652.5h-4.2v-0.1c0.1-0.3,0.6-1.9,0.6-3.3v-4.2c0-1.5-0.5-3.1-0.6-3.4v-0.1h3.7v2.1
				c0.8-1.7,2.3-2.9,4.6-2.1l-0.5,3.4h-0.1c-1-1-2.5-1.7-4-0.6v5C530.8,650.5,531.3,652.1,531.4,652.5L531.4,652.5z"/>
			<path class="st1" d="M536.5,651.7v-3h0.1c1.3,1.3,2.8,3,4.4,3c0.9,0,1.7-0.5,1.7-1.4c0-1.1-1.1-1.4-2.9-2.1
				c-2.3-0.8-3.6-1.9-3.6-3.7c0-2.1,1.8-3.3,4.6-3.3c1,0,2.5,0.2,4,0.8v2.9h-0.1c-1.2-1.4-2.6-2.8-4.2-2.8c-0.8,0-1.6,0.4-1.6,1.3
				c0,1,1.2,1.4,2.9,2c2.6,0.9,3.5,2,3.5,3.6c0,2.5-2.1,3.6-4.4,3.6C539.8,652.7,538.3,652.4,536.5,651.7z"/>
			<path class="st1" d="M546.8,637.7c0-1.1,0.9-2,2-2c1.1,0,2,0.9,2,2c0,1.1-0.9,1.9-2,1.9C547.7,639.7,546.8,638.8,546.8,637.7z
				 M551,652.5h-4.2v-0.1c0.1-0.3,0.6-1.9,0.6-3.3v-4.2c0-1.5-0.5-3.1-0.6-3.4v-0.1h3.7v7.6C550.4,650.5,550.9,652.1,551,652.5
				L551,652.5z"/>
			<path class="st1" d="M552.2,647c0-3.6,2.3-5.7,5.6-5.7c1.8,0,3.3,0.7,4.2,1l0,3.3h-0.1c-0.8-1.3-2.4-3.4-4-3.4
				c-1.6,0-2.3,1.8-2.3,3.9c0,2.7,1.1,4.6,3.5,4.6c0.9,0,2.1-0.3,3.4-1.3l0.1,0.1c-0.6,1.6-2.3,3.2-4.8,3.2
				C554.9,652.7,552.2,650.8,552.2,647z"/>
			<path class="st1" d="M563.6,649.2c0-2.4,2.4-3.8,5.1-3.5c0.6,0,1.2,0.2,1.7,0.3v-1.3c0-1.6-0.4-2.5-1.2-2.5
				c-1.3,0-4.4,2.4-4.6,2.8h-0.1v-3c1.9-0.5,3.7-0.8,4.9-0.8c2.9,0,4.1,1.5,4.1,3.6v4.6c0,1.2,0.4,1.8,1.4,1.3l0,0.1
				c-0.2,1-1,1.7-2.2,1.7c-1.2,0-2-0.6-2.2-1.7c-0.6,0.9-1.7,1.8-3.3,1.8C564.8,652.7,563.6,650.9,563.6,649.2z M568.8,651
				c0.6,0,1.1-0.3,1.5-0.7c0-0.1,0-0.2,0-0.3v-3.3c-0.1,0-0.3,0-0.4,0c-2.1-0.3-3.1,0.8-3.1,2.1C566.8,650.1,567.6,651,568.8,651z"
				/>
		</g>
	</g>
	<g>
		<g class="st0">
			<path class="st1" d="M652.6,626.1h-4.2V626c0.1-0.3,0.6-1.9,0.6-3.3v-4.2c0-1.5-0.5-3.1-0.6-3.4V615h3.7v1.8c0.8-1.1,1.9-2,3.5-2
				c1.4,0,2.7,0.7,3.1,2.2c0.8-1.3,2-2.2,3.6-2.2c1.8,0,3.4,1.2,3.4,3.7v4.1c0,1.5,0.5,3.1,0.5,3.3v0.1H662V626
				c0.1-0.3,0.6-1.9,0.6-3.3V619c0-1.5-1-2.1-2-2.1c-0.6,0-1.2,0.2-1.8,0.7c0.1,0.3,0.1,0.7,0.1,1v4.1c0,1.5,0.5,3.1,0.5,3.3v0.1
				h-4.2V626c0.1-0.3,0.6-1.9,0.6-3.3V619c0-1.5-1-2.1-2.1-2.1c-0.6,0-1.1,0.2-1.7,0.6v5.1C652.1,624.1,652.6,625.7,652.6,626.1
				L652.6,626.1z"/>
			<path class="st1" d="M667.4,622.8c0-2.4,2.4-3.8,5.1-3.5c0.6,0,1.2,0.2,1.7,0.3v-1.3c0-1.6-0.4-2.5-1.2-2.5
				c-1.3,0-4.4,2.4-4.6,2.8h-0.1v-3c1.9-0.5,3.7-0.8,4.9-0.8c2.9,0,4.1,1.5,4.1,3.6v4.6c0,1.2,0.4,1.8,1.4,1.3l0,0.1
				c-0.2,1-1,1.7-2.2,1.7c-1.2,0-2-0.6-2.2-1.7c-0.6,0.9-1.7,1.8-3.3,1.8C668.6,626.3,667.4,624.5,667.4,622.8z M672.6,624.6
				c0.6,0,1.1-0.3,1.5-0.7c0-0.1,0-0.2,0-0.3v-3.3c-0.1,0-0.3,0-0.4,0c-2.1-0.3-3.1,0.8-3.1,2.1
				C670.6,623.7,671.4,624.6,672.6,624.6z"/>
			<path class="st1" d="M683.8,626.1h-4.2V626c0.1-0.3,0.6-1.9,0.6-3.3v-4.2c0-1.5-0.5-3.1-0.6-3.4V615h3.7v2.1
				c0.8-1.7,2.3-2.9,4.6-2.1l-0.5,3.4h-0.1c-1-1-2.5-1.7-4-0.6v5C683.2,624.1,683.7,625.7,683.8,626.1L683.8,626.1z"/>
			<path class="st1" d="M647.2,647c0-3.5,2.3-5.7,5.5-5.7c3.6,0,5,2.6,5,5.4h-7.2c0.2,2.3,1.3,4,3.5,4c1.1,0,2.2-0.4,3.4-1.3l0.1,0
				c-0.6,1.6-2.3,3.3-4.9,3.3C650,652.7,647.2,650.8,647.2,647z M650.6,646.2l4.1-0.6c0-1.7-0.5-3.4-2-3.4c-1.6,0-2.1,1.9-2.1,3.8
				C650.6,646,650.6,646.1,650.6,646.2z"/>
			<path class="st1" d="M661.9,648.8c-0.5,0.2-0.9,0.5-0.9,0.9c0,0.6,0.7,0.6,1.5,0.6h3.6c2.2,0,3.5,1.2,3.5,3.1
				c0,2.9-3.2,3.4-5.7,3.4c-1.6,0-5-0.3-5-2.5c0-0.7,0.3-1.3,0.8-1.7c-0.5-0.5-0.7-1.1-0.7-1.7c0-1.3,0.8-2.1,2.1-2.4
				c-1.2-0.6-2.2-1.7-2.2-3.3c0-2.6,2.6-3.9,4.8-3.9c0.9,0,1.8,0.2,2.6,0.6c0.6-1.3,1.7-2.2,3.5-2l-0.5,2.4l0,0
				c-0.7-0.4-1.5-0.5-2.5-0.2c1,0.6,1.8,1.7,1.8,3.1c0,2.6-2.6,3.9-4.8,3.9C663.2,649.1,662.6,649,661.9,648.8z M664.2,656
				c1.7,0,3.4-0.6,3.4-1.6c0-0.6-0.5-1.1-1.6-1.1h-3.7c-0.6,0-1.1-0.1-1.6-0.2c0,0.1,0,0.2,0,0.2C660.7,654.8,661.7,656,664.2,656z
				 M665.5,645.2c0-1.7-0.6-3.1-1.8-3.1c-1.1,0-1.7,1.4-1.7,3.1c0,1.6,0.6,3.1,1.7,3.1C665,648.3,665.5,646.8,665.5,645.2z"/>
			<path class="st1" d="M670.1,647c0-3.5,2.3-5.7,5.5-5.7c3.6,0,5,2.6,5,5.4h-7.2c0.2,2.3,1.3,4,3.5,4c1.1,0,2.2-0.4,3.4-1.3l0.1,0
				c-0.6,1.6-2.3,3.3-4.9,3.3C672.9,652.7,670.1,650.8,670.1,647z M673.5,646.2l4.1-0.6c0-1.7-0.5-3.4-2-3.4c-1.6,0-2.1,1.9-2.1,3.8
				C673.5,646,673.5,646.1,673.5,646.2z"/>
			<path class="st1" d="M682,646.9c0-3.8,2.6-5.6,5.7-5.6c3.1,0,5.7,1.9,5.7,5.6c0,3.8-2.7,5.8-5.7,5.8
				C684.6,652.7,682,650.7,682,646.9z M690,646.9c0-2.4-0.7-4.8-2.3-4.8c-1.6,0-2.2,2.4-2.2,4.8c0,2.4,0.6,4.9,2.2,4.9
				C689.3,651.8,690,649.3,690,646.9z"/>
		</g>
	</g>
	<g>
		<g class="st0">
			<path class="st1" d="M784,626.1h-4.2V626c0.1-0.3,0.6-1.9,0.6-3.3v-4.2c0-1.5-0.5-3.1-0.6-3.4V615h3.7v1.8c0.8-1.1,1.9-2,3.5-2
				c1.4,0,2.7,0.7,3.1,2.2c0.8-1.3,2-2.2,3.6-2.2c1.8,0,3.4,1.2,3.4,3.7v4.1c0,1.5,0.5,3.1,0.5,3.3v0.1h-4.2V626
				c0.1-0.3,0.6-1.9,0.6-3.3V619c0-1.5-1-2.1-2-2.1c-0.6,0-1.2,0.2-1.8,0.7c0.1,0.3,0.1,0.7,0.1,1v4.1c0,1.5,0.5,3.1,0.5,3.3v0.1
				h-4.2V626c0.1-0.3,0.6-1.9,0.6-3.3V619c0-1.5-1-2.1-2.1-2.1c-0.6,0-1.1,0.2-1.7,0.6v5.1C783.5,624.1,784,625.7,784,626.1
				L784,626.1z"/>
			<path class="st1" d="M798.8,622.8c0-2.4,2.4-3.8,5.1-3.5c0.6,0,1.2,0.2,1.7,0.3v-1.3c0-1.6-0.4-2.5-1.2-2.5
				c-1.3,0-4.4,2.4-4.6,2.8h-0.1v-3c1.9-0.5,3.7-0.8,4.9-0.8c2.9,0,4.1,1.5,4.1,3.6v4.6c0,1.2,0.4,1.8,1.4,1.3l0,0.1
				c-0.2,1-1,1.7-2.2,1.7c-1.2,0-2-0.6-2.2-1.7c-0.6,0.9-1.7,1.8-3.3,1.8C800,626.3,798.8,624.5,798.8,622.8z M804,624.6
				c0.6,0,1.1-0.3,1.5-0.7c0-0.1,0-0.2,0-0.3v-3.3c-0.1,0-0.3,0-0.4,0c-2.1-0.3-3.1,0.8-3.1,2.1C802,623.7,802.8,624.6,804,624.6z"
				/>
			<path class="st1" d="M815.2,626.1H811V626c0.1-0.3,0.6-1.9,0.6-3.3v-4.2c0-1.5-0.5-3.1-0.6-3.4V615h3.7v2.1
				c0.8-1.7,2.3-2.9,4.6-2.1l-0.5,3.4h-0.1c-1-1-2.5-1.7-4-0.6v5C814.6,624.1,815.1,625.7,815.2,626.1L815.2,626.1z"/>
			<path class="st1" d="M778.1,637.7c0-1.1,0.9-2,2-2c1.1,0,2,0.9,2,2c0,1.1-0.9,1.9-2,1.9C779,639.7,778.1,638.8,778.1,637.7z
				 M782.3,652.5h-4.2v-0.1c0.1-0.3,0.6-1.9,0.6-3.3v-4.2c0-1.5-0.5-3.1-0.6-3.4v-0.1h3.7v7.6C781.7,650.5,782.3,652.1,782.3,652.5
				L782.3,652.5z"/>
			<path class="st1" d="M783.5,646.9c0-3.8,2.6-5.6,5.7-5.6c3.1,0,5.7,1.9,5.7,5.6c0,3.8-2.7,5.8-5.7,5.8
				C786.1,652.7,783.5,650.7,783.5,646.9z M791.5,646.9c0-2.4-0.7-4.8-2.3-4.8c-1.6,0-2.2,2.4-2.2,4.8c0,2.4,0.6,4.9,2.2,4.9
				C790.8,651.8,791.5,649.3,791.5,646.9z"/>
			<path class="st1" d="M800.3,652.5H796v-0.1c0.1-0.3,0.6-1.9,0.6-3.3v-4.2c0-1.5-0.5-3.1-0.6-3.4v-0.1h3.7v1.9
				c0.7-1.1,1.9-2,3.5-2c1.9,0,3.6,1.2,3.6,3.7v4.1c0,1.5,0.5,3.1,0.5,3.3v0.1h-4.2v-0.1c0.1-0.3,0.6-1.9,0.6-3.3v-3.7
				c0-1.6-0.9-2.2-2-2.2c-0.7,0-1.4,0.3-2.1,0.8v5C799.7,650.5,800.2,652.1,800.3,652.5L800.3,652.5z"/>
			<path class="st1" d="M808.8,637.7c0-1.1,0.9-2,2-2c1.1,0,2,0.9,2,2c0,1.1-0.9,1.9-2,1.9C809.8,639.7,808.8,638.8,808.8,637.7z
				 M813.1,652.5h-4.2v-0.1c0.1-0.3,0.6-1.9,0.6-3.3v-4.2c0-1.5-0.5-3.1-0.6-3.4v-0.1h3.7v7.6C812.5,650.5,813,652.1,813.1,652.5
				L813.1,652.5z"/>
			<path class="st1" d="M814.2,646.9c0-3.8,2.6-5.6,5.7-5.6c3.1,0,5.7,1.9,5.7,5.6c0,3.8-2.7,5.8-5.7,5.8
				C816.9,652.7,814.2,650.7,814.2,646.9z M822.2,646.9c0-2.4-0.7-4.8-2.3-4.8c-1.6,0-2.2,2.4-2.2,4.8c0,2.4,0.6,4.9,2.2,4.9
				C821.6,651.8,822.2,649.3,822.2,646.9z"/>
		</g>
	</g>
	<g>
		<g class="st0">
			<path class="st1" d="M1046.8,626.1h-4.2V626c0.1-0.3,0.6-1.9,0.6-3.3v-4.2c0-1.5-0.5-3.1-0.6-3.4V615h3.7v1.8
				c0.8-1.1,1.9-2,3.5-2c1.4,0,2.7,0.7,3.1,2.2c0.8-1.3,2-2.2,3.6-2.2c1.8,0,3.4,1.2,3.4,3.7v4.1c0,1.5,0.5,3.1,0.5,3.3v0.1h-4.2
				V626c0.1-0.3,0.6-1.9,0.6-3.3V619c0-1.5-1-2.1-2-2.1c-0.6,0-1.2,0.2-1.8,0.7c0.1,0.3,0.1,0.7,0.1,1v4.1c0,1.5,0.5,3.1,0.5,3.3
				v0.1h-4.2V626c0.1-0.3,0.6-1.9,0.6-3.3V619c0-1.5-1-2.1-2.1-2.1c-0.6,0-1.1,0.2-1.7,0.6v5.1
				C1046.2,624.1,1046.7,625.7,1046.8,626.1L1046.8,626.1z"/>
			<path class="st1" d="M1061.5,622.8c0-2.4,2.4-3.8,5.1-3.5c0.6,0,1.2,0.2,1.7,0.3v-1.3c0-1.6-0.4-2.5-1.2-2.5
				c-1.3,0-4.4,2.4-4.6,2.8h-0.1v-3c1.9-0.5,3.7-0.8,4.9-0.8c2.9,0,4.1,1.5,4.1,3.6v4.6c0,1.2,0.4,1.8,1.4,1.3l0,0.1
				c-0.2,1-1,1.7-2.2,1.7c-1.2,0-2-0.6-2.2-1.7c-0.6,0.9-1.7,1.8-3.3,1.8C1062.7,626.3,1061.5,624.5,1061.5,622.8z M1066.8,624.6
				c0.6,0,1.1-0.3,1.5-0.7c0-0.1,0-0.2,0-0.3v-3.3c-0.1,0-0.3,0-0.4,0c-2.1-0.3-3.1,0.8-3.1,2.1
				C1064.8,623.7,1065.6,624.6,1066.8,624.6z"/>
			<path class="st1" d="M1078,626.1h-4.2V626c0.1-0.3,0.6-1.9,0.6-3.3v-4.2c0-1.5-0.5-3.1-0.6-3.4V615h3.7v2.1
				c0.8-1.7,2.3-2.9,4.6-2.1l-0.5,3.4h-0.1c-1-1-2.5-1.7-4-0.6v5C1077.4,624.1,1077.9,625.7,1078,626.1L1078,626.1z"/>
			<path class="st1" d="M1042.8,652.5h-4.2v-0.1c0-0.3,0.6-1.9,0.6-3.3v-9.2c0-1.5-0.5-3-0.6-3.3l0-0.1l0.6-0.1l3.2-0.4v13
				C1042.3,650.5,1042.8,652.1,1042.8,652.5L1042.8,652.5z"/>
			<path class="st1" d="M1044.3,637.7c0-1.1,0.9-2,2-2c1.1,0,2,0.9,2,2c0,1.1-0.9,1.9-2,1.9C1045.2,639.7,1044.3,638.8,1044.3,637.7
				z M1048.5,652.5h-4.2v-0.1c0.1-0.3,0.6-1.9,0.6-3.3v-4.2c0-1.5-0.5-3.1-0.6-3.4v-0.1h3.7v7.6
				C1047.9,650.5,1048.4,652.1,1048.5,652.5L1048.5,652.5z"/>
			<path class="st1" d="M1053.4,651.5l-3.1,1.1v-12.7c0-1.5-0.5-3-0.6-3.3l0-0.1l0.5-0.1l3.2-0.4v6.9c0.7-1.1,1.9-1.6,3.2-1.6
				c2.3,0,4.3,1.8,4.3,5.5c0,4-2.4,5.9-4.7,5.9C1055.4,652.7,1054.3,652.4,1053.4,651.5z M1053.5,643.9v6.9c0.5,0.3,1,0.4,1.4,0.4
				c2,0,2.7-2.1,2.7-4.3c0-2-0.7-3.7-2.4-3.7C1054.6,643.1,1054,643.3,1053.5,643.9z"/>
			<path class="st1" d="M1062.4,637.7c0-1.1,0.9-2,2-2c1.1,0,2,0.9,2,2c0,1.1-0.9,1.9-2,1.9C1063.4,639.7,1062.4,638.8,1062.4,637.7
				z M1066.7,652.5h-4.2v-0.1c0.1-0.3,0.6-1.9,0.6-3.3v-4.2c0-1.5-0.5-3.1-0.6-3.4v-0.1h3.7v7.6
				C1066.1,650.5,1066.6,652.1,1066.7,652.5L1066.7,652.5z"/>
			<path class="st1" d="M1067.8,647c0-3.6,2.3-5.7,5.6-5.7c1.8,0,3.3,0.7,4.2,1l0,3.3h-0.1c-0.8-1.3-2.4-3.4-4-3.4
				c-1.6,0-2.3,1.8-2.3,3.9c0,2.7,1.1,4.6,3.5,4.6c0.9,0,2.1-0.3,3.4-1.3l0.1,0.1c-0.6,1.6-2.3,3.2-4.8,3.2
				C1070.6,652.7,1067.8,650.8,1067.8,647z"/>
			<path class="st1" d="M1079.2,646.9c0-3.8,2.6-5.6,5.7-5.6c3.1,0,5.7,1.9,5.7,5.6c0,3.8-2.7,5.8-5.7,5.8
				C1081.8,652.7,1079.2,650.7,1079.2,646.9z M1087.1,646.9c0-2.4-0.7-4.8-2.3-4.8c-1.6,0-2.2,2.4-2.2,4.8c0,2.4,0.6,4.9,2.2,4.9
				C1086.5,651.8,1087.1,649.3,1087.1,646.9z"/>
		</g>
	</g>
	<g>
		<g class="st0">
			<path class="st1" d="M915.4,626.1h-4.2V626c0.1-0.3,0.6-1.9,0.6-3.3v-4.2c0-1.5-0.5-3.1-0.6-3.4V615h3.7v1.8c0.8-1.1,1.9-2,3.5-2
				c1.4,0,2.7,0.7,3.1,2.2c0.8-1.3,2-2.2,3.6-2.2c1.8,0,3.4,1.2,3.4,3.7v4.1c0,1.5,0.5,3.1,0.5,3.3v0.1h-4.2V626
				c0.1-0.3,0.6-1.9,0.6-3.3V619c0-1.5-1-2.1-2-2.1c-0.6,0-1.2,0.2-1.8,0.7c0.1,0.3,0.1,0.7,0.1,1v4.1c0,1.5,0.5,3.1,0.5,3.3v0.1
				H918V626c0.1-0.3,0.6-1.9,0.6-3.3V619c0-1.5-1-2.1-2.1-2.1c-0.6,0-1.1,0.2-1.7,0.6v5.1C914.9,624.1,915.4,625.7,915.4,626.1
				L915.4,626.1z"/>
			<path class="st1" d="M930.1,622.8c0-2.4,2.4-3.8,5.1-3.5c0.6,0,1.2,0.2,1.7,0.3v-1.3c0-1.6-0.4-2.5-1.2-2.5
				c-1.3,0-4.4,2.4-4.6,2.8H931v-3c1.9-0.5,3.7-0.8,4.9-0.8c2.9,0,4.1,1.5,4.1,3.6v4.6c0,1.2,0.4,1.8,1.4,1.3l0,0.1
				c-0.2,1-1,1.7-2.2,1.7c-1.2,0-2-0.6-2.2-1.7c-0.6,0.9-1.7,1.8-3.3,1.8C931.4,626.3,930.1,624.5,930.1,622.8z M935.4,624.6
				c0.6,0,1.1-0.3,1.5-0.7c0-0.1,0-0.2,0-0.3v-3.3c-0.1,0-0.3,0-0.4,0c-2.1-0.3-3.1,0.8-3.1,2.1
				C933.4,623.7,934.2,624.6,935.4,624.6z"/>
			<path class="st1" d="M946.6,626.1h-4.2V626c0.1-0.3,0.6-1.9,0.6-3.3v-4.2c0-1.5-0.5-3.1-0.6-3.4V615h3.7v2.1
				c0.8-1.7,2.3-2.9,4.6-2.1l-0.5,3.4H950c-1-1-2.5-1.7-4-0.6v5C946,624.1,946.5,625.7,946.6,626.1L946.6,626.1z"/>
			<path class="st1" d="M901.6,652.5h-4.2v-0.1c0-0.3,0.6-1.9,0.6-3.3v-9.2c0-1.5-0.5-3-0.6-3.3l0-0.1l0.6-0.1l3.2-0.4v13
				C901.1,650.5,901.6,652.1,901.6,652.5L901.6,652.5z"/>
			<path class="st1" d="M902.7,647c0-3.5,2.3-5.7,5.5-5.7c3.6,0,5,2.6,5,5.4h-7.2c0.2,2.3,1.3,4,3.5,4c1.1,0,2.2-0.4,3.4-1.3l0.1,0
				c-0.6,1.6-2.3,3.3-4.9,3.3C905.4,652.7,902.7,650.8,902.7,647z M906.1,646.2l4.1-0.6c0-1.7-0.5-3.4-2-3.4c-1.6,0-2.1,1.9-2.1,3.8
				C906.1,646,906.1,646.1,906.1,646.2z"/>
			<path class="st1" d="M913.4,641.5L913.4,641.5l5.1-0.1v0.1c-0.1,0.3-0.6,1.7,0,2.9l2.2,5.2l2.1-5.1c0.5-1.3,0-2.6-0.1-2.9v-0.1
				h2.7v0.1c-0.1,0.2-1,1.6-1.5,2.8l-3.3,8.2h-1.9l-3.4-7.9C914.6,643.2,913.6,641.8,913.4,641.5z"/>
			<path class="st1" d="M925.6,649.2c0-2.4,2.4-3.8,5.1-3.5c0.6,0,1.2,0.2,1.7,0.3v-1.3c0-1.6-0.4-2.5-1.2-2.5
				c-1.3,0-4.4,2.4-4.6,2.8h-0.1v-3c1.9-0.5,3.7-0.8,4.9-0.8c2.9,0,4.1,1.5,4.1,3.6v4.6c0,1.2,0.4,1.8,1.4,1.3l0,0.1
				c-0.2,1-1,1.7-2.2,1.7c-1.2,0-2-0.6-2.2-1.7c-0.6,0.9-1.7,1.8-3.3,1.8C926.8,652.7,925.6,650.9,925.6,649.2z M930.9,651
				c0.6,0,1.1-0.3,1.5-0.7c0-0.1,0-0.2,0-0.3v-3.3c-0.1,0-0.3,0-0.4,0c-2.1-0.3-3.1,0.8-3.1,2.1C928.9,650.1,929.7,651,930.9,651z"
				/>
			<path class="st1" d="M942.1,652.5h-4.2v-0.1c0.1-0.3,0.6-1.9,0.6-3.3v-4.2c0-1.5-0.5-3.1-0.6-3.4v-0.1h3.7v1.9
				c0.7-1.1,1.9-2,3.5-2c1.9,0,3.6,1.2,3.6,3.7v4.1c0,1.5,0.5,3.1,0.5,3.3v0.1H945v-0.1c0.1-0.3,0.6-1.9,0.6-3.3v-3.7
				c0-1.6-0.9-2.2-2-2.2c-0.7,0-1.4,0.3-2.1,0.8v5C941.5,650.5,942,652.1,942.1,652.5L942.1,652.5z"/>
			<path class="st1" d="M951.4,649.2v-6.9h-1.6v-0.9c2.2-0.9,3.5-2.2,4.6-3.8h0.1v3.7h3v0.9h-3v6.6c0,1.2,0.6,1.7,1.5,1.7
				c0.5,0,1.1-0.1,1.7-0.5c-0.5,1.3-1.6,2.6-3.4,2.6C952.5,652.7,951.4,651.4,951.4,649.2z"/>
			<path class="st1" d="M958.4,647c0-3.5,2.3-5.7,5.5-5.7c3.6,0,5,2.6,5,5.4h-7.2c0.2,2.3,1.3,4,3.5,4c1.1,0,2.2-0.4,3.4-1.3l0.1,0
				c-0.6,1.6-2.3,3.3-4.9,3.3C961.1,652.7,958.4,650.8,958.4,647z M961.7,646.2l4.1-0.6c0-1.7-0.5-3.4-2-3.4c-1.6,0-2.1,1.9-2.1,3.8
				C961.7,646,961.7,646.1,961.7,646.2z"/>
		</g>
	</g>
	<g>
		<g class="st0">
			<path class="st1" d="M1178.2,626.1h-4.2V626c0.1-0.3,0.6-1.9,0.6-3.3v-4.2c0-1.5-0.5-3.1-0.6-3.4V615h3.7v1.8
				c0.8-1.1,1.9-2,3.5-2c1.4,0,2.7,0.7,3.1,2.2c0.8-1.3,2-2.2,3.6-2.2c1.8,0,3.4,1.2,3.4,3.7v4.1c0,1.5,0.5,3.1,0.6,3.3v0.1h-4.2
				V626c0.1-0.3,0.6-1.9,0.6-3.3V619c0-1.5-1-2.1-2-2.1c-0.6,0-1.2,0.2-1.8,0.7c0.1,0.3,0.1,0.7,0.1,1v4.1c0,1.5,0.5,3.1,0.5,3.3
				v0.1h-4.2V626c0.1-0.3,0.6-1.9,0.6-3.3V619c0-1.5-1-2.1-2.1-2.1c-0.6,0-1.1,0.2-1.7,0.6v5.1
				C1177.6,624.1,1178.1,625.7,1178.2,626.1L1178.2,626.1z"/>
			<path class="st1" d="M1192.9,622.8c0-2.4,2.4-3.8,5.1-3.5c0.6,0,1.2,0.2,1.7,0.3v-1.3c0-1.6-0.4-2.5-1.2-2.5
				c-1.3,0-4.4,2.4-4.6,2.8h-0.1v-3c1.9-0.5,3.7-0.8,4.9-0.8c2.9,0,4.1,1.5,4.1,3.6v4.6c0,1.2,0.4,1.8,1.4,1.3l0,0.1
				c-0.2,1-1,1.7-2.2,1.7c-1.2,0-2-0.6-2.2-1.7c-0.6,0.9-1.7,1.8-3.3,1.8C1194.1,626.3,1192.9,624.5,1192.9,622.8z M1198.2,624.6
				c0.6,0,1.1-0.3,1.5-0.7c0-0.1,0-0.2,0-0.3v-3.3c-0.1,0-0.3,0-0.4,0c-2.1-0.3-3.1,0.8-3.1,2.1
				C1196.2,623.7,1197,624.6,1198.2,624.6z"/>
			<path class="st1" d="M1209.3,626.1h-4.2V626c0.1-0.3,0.6-1.9,0.6-3.3v-4.2c0-1.5-0.5-3.1-0.6-3.4V615h3.7v2.1
				c0.8-1.7,2.3-2.9,4.6-2.1l-0.5,3.4h-0.1c-1-1-2.5-1.7-4-0.6v5C1208.8,624.1,1209.3,625.7,1209.3,626.1L1209.3,626.1z"/>
			<path class="st1" d="M1172.8,652.5h-4.2v-0.1c0-0.3,0.6-1.9,0.6-3.3v-9.2c0-1.5-0.5-3-0.6-3.3l0-0.1l0.6-0.1l3.2-0.4v13
				C1172.2,650.5,1172.7,652.1,1172.8,652.5L1172.8,652.5z"/>
			<path class="st1" d="M1174.3,637.7c0-1.1,0.9-2,2-2c1.1,0,2,0.9,2,2c0,1.1-0.9,1.9-2,1.9S1174.3,638.8,1174.3,637.7z
				 M1178.5,652.5h-4.2v-0.1c0.1-0.3,0.6-1.9,0.6-3.3v-4.2c0-1.5-0.5-3.1-0.6-3.4v-0.1h3.7v7.6
				C1177.9,650.5,1178.4,652.1,1178.5,652.5L1178.5,652.5z"/>
			<path class="st1" d="M1182.8,648.8c-0.5,0.2-0.9,0.5-0.9,0.9c0,0.6,0.7,0.6,1.5,0.6h3.6c2.2,0,3.5,1.2,3.5,3.1
				c0,2.9-3.2,3.4-5.7,3.4c-1.6,0-5-0.3-5-2.5c0-0.7,0.3-1.3,0.8-1.7c-0.5-0.5-0.7-1.1-0.7-1.7c0-1.3,0.8-2.1,2.1-2.4
				c-1.2-0.6-2.2-1.7-2.2-3.3c0-2.6,2.6-3.9,4.8-3.9c0.9,0,1.8,0.2,2.6,0.6c0.6-1.3,1.7-2.2,3.5-2l-0.5,2.4l0,0
				c-0.7-0.4-1.5-0.5-2.5-0.2c1,0.6,1.8,1.7,1.8,3.1c0,2.6-2.6,3.9-4.8,3.9C1184,649.1,1183.4,649,1182.8,648.8z M1185,656
				c1.7,0,3.4-0.6,3.4-1.6c0-0.6-0.5-1.1-1.6-1.1h-3.7c-0.6,0-1.1-0.1-1.6-0.2c0,0.1,0,0.2,0,0.2C1181.5,654.8,1182.5,656,1185,656z
				 M1186.4,645.2c0-1.7-0.6-3.1-1.8-3.1c-1.1,0-1.7,1.4-1.7,3.1c0,1.6,0.6,3.1,1.7,3.1C1185.8,648.3,1186.4,646.8,1186.4,645.2z"/>
			<path class="st1" d="M1191.9,649v-4.1c0-1.5-0.5-3.1-0.6-3.4v-0.1h3.7v7.1c0,1.6,0.9,2.1,1.9,2.1c0.7,0,1.4-0.3,2.1-0.7
				c0-0.2,0-0.5,0-0.7v-4.4c0-1.5-0.5-3.1-0.5-3.4v-0.1h3.7v7.6c0,1.5,0.5,3.1,0.6,3.3v0.1h-3c-0.2-0.4-0.4-1.1-0.6-1.9
				c-0.8,1.3-1.9,2.1-3.6,2.1C1193.6,652.7,1191.9,651.5,1191.9,649z"/>
			<path class="st1" d="M1208.1,652.5h-4.2v-0.1c0.1-0.3,0.6-1.9,0.6-3.3v-4.2c0-1.5-0.5-3.1-0.6-3.4v-0.1h3.7v2.1
				c0.8-1.7,2.3-2.9,4.6-2.1l-0.5,3.4h-0.1c-1-1-2.5-1.7-4-0.6v5C1207.6,650.5,1208.1,652.1,1208.1,652.5L1208.1,652.5z"/>
			<path class="st1" d="M1212.7,647c0-3.5,2.3-5.7,5.5-5.7c3.6,0,5,2.6,5,5.4h-7.2c0.2,2.3,1.3,4,3.5,4c1.1,0,2.2-0.4,3.4-1.3l0.1,0
				c-0.6,1.6-2.3,3.3-4.9,3.3C1215.5,652.7,1212.7,650.8,1212.7,647z M1216.1,646.2l4.1-0.6c0-1.7-0.5-3.4-2-3.4
				c-1.6,0-2.1,1.9-2.1,3.8C1216.1,646,1216.1,646.1,1216.1,646.2z"/>
		</g>
	</g>
	<g>
		<g class="st0">
			<path class="st1" d="M1298,626.1h-4.2V626c0.1-0.3,0.6-1.9,0.6-3.3v-4.2c0-1.5-0.5-3.1-0.6-3.4V615h3.7v1.8c0.8-1.1,1.9-2,3.5-2
				c1.4,0,2.7,0.7,3.1,2.2c0.8-1.3,2-2.2,3.6-2.2c1.8,0,3.4,1.2,3.4,3.7v4.1c0,1.5,0.5,3.1,0.5,3.3v0.1h-4.2V626
				c0.1-0.3,0.6-1.9,0.6-3.3V619c0-1.5-1-2.1-2-2.1c-0.6,0-1.2,0.2-1.8,0.7c0.1,0.3,0.1,0.7,0.1,1v4.1c0,1.5,0.5,3.1,0.5,3.3v0.1
				h-4.2V626c0.1-0.3,0.6-1.9,0.6-3.3V619c0-1.5-1-2.1-2.1-2.1c-0.6,0-1.1,0.2-1.7,0.6v5.1C1297.4,624.1,1297.9,625.7,1298,626.1
				L1298,626.1z"/>
			<path class="st1" d="M1312.7,622.8c0-2.4,2.4-3.8,5.1-3.5c0.6,0,1.2,0.2,1.7,0.3v-1.3c0-1.6-0.4-2.5-1.2-2.5
				c-1.3,0-4.4,2.4-4.6,2.8h-0.1v-3c1.9-0.5,3.7-0.8,4.9-0.8c2.9,0,4.1,1.5,4.1,3.6v4.6c0,1.2,0.4,1.8,1.4,1.3l0,0.1
				c-0.2,1-1,1.7-2.2,1.7c-1.2,0-2-0.6-2.2-1.7c-0.6,0.9-1.7,1.8-3.3,1.8C1313.9,626.3,1312.7,624.5,1312.7,622.8z M1317.9,624.6
				c0.6,0,1.1-0.3,1.5-0.7c0-0.1,0-0.2,0-0.3v-3.3c-0.1,0-0.3,0-0.4,0c-2.1-0.3-3.1,0.8-3.1,2.1
				C1315.9,623.7,1316.8,624.6,1317.9,624.6z"/>
			<path class="st1" d="M1329.1,626.1h-4.2V626c0.1-0.3,0.6-1.9,0.6-3.3v-4.2c0-1.5-0.5-3.1-0.6-3.4V615h3.7v2.1
				c0.8-1.7,2.3-2.9,4.6-2.1l-0.5,3.4h-0.1c-1-1-2.5-1.7-4-0.6v5C1328.6,624.1,1329.1,625.7,1329.1,626.1L1329.1,626.1z"/>
			<path class="st1" d="M1346.6,624.4c-0.9,1.4-2.2,1.8-3.4,1.8c-2.2,0-4.4-1.9-4.4-5.7c0-3.8,2.2-5.7,4.5-5.7
				c1.3,0,2.5,0.5,3.2,1.6v-3.1c0-1.5-0.7-3-0.9-3.3l0-0.1l0.8-0.1l3.2-0.4v13c0,1.5,0.5,3.1,0.6,3.3v0.1h-2.9
				C1347,625.5,1346.7,625.1,1346.6,624.4z M1344.6,624.7c0.7,0,1.3-0.3,1.9-0.9c0-0.2,0-0.4,0-0.6v-5.8c-0.5-0.5-1.1-0.8-1.8-0.8
				c-1.7,0-2.5,1.7-2.5,3.9C1342.1,622.6,1342.7,624.7,1344.6,624.7z"/>
			<path class="st1" d="M1351.7,611.3c0-1.1,0.9-2,2-2c1.1,0,2,0.9,2,2c0,1.1-0.9,1.9-2,1.9C1352.6,613.3,1351.7,612.4,1351.7,611.3
				z M1355.9,626.1h-4.2V626c0.1-0.3,0.6-1.9,0.6-3.3v-4.2c0-1.5-0.5-3.1-0.6-3.4V615h3.7v7.6
				C1355.3,624.1,1355.8,625.7,1355.9,626.1L1355.9,626.1z"/>
			<path class="st1" d="M1285.8,652.5h-4.2v-0.1c0.1-0.3,0.6-1.9,0.6-3.3v-4.2c0-1.5-0.5-3.1-0.6-3.4v-0.1h3.7v1.8
				c0.8-1.1,1.9-2,3.5-2c1.4,0,2.7,0.7,3.1,2.2c0.8-1.3,2-2.2,3.6-2.2c1.8,0,3.4,1.2,3.4,3.7v4.1c0,1.5,0.5,3.1,0.6,3.3v0.1h-4.2
				v-0.1c0.1-0.3,0.6-1.9,0.6-3.3v-3.7c0-1.5-1-2.1-2-2.1c-0.6,0-1.2,0.2-1.8,0.7c0.1,0.3,0.1,0.7,0.1,1v4.1c0,1.5,0.5,3.1,0.5,3.3
				v0.1h-4.2v-0.1c0.1-0.3,0.6-1.9,0.6-3.3v-3.7c0-1.5-1-2.1-2.1-2.1c-0.6,0-1.1,0.2-1.7,0.6v5.1
				C1285.2,650.5,1285.7,652.1,1285.8,652.5L1285.8,652.5z"/>
			<path class="st1" d="M1300.5,649.2c0-2.4,2.4-3.8,5.1-3.5c0.5,0,1.2,0.2,1.7,0.3v-1.3c0-1.6-0.4-2.5-1.2-2.5
				c-1.3,0-4.4,2.4-4.6,2.8h-0.1v-3c1.9-0.5,3.7-0.8,4.9-0.8c2.9,0,4.1,1.5,4.1,3.6v4.6c0,1.2,0.4,1.8,1.4,1.3l0,0.1
				c-0.2,1-1,1.7-2.2,1.7c-1.2,0-2-0.6-2.2-1.7c-0.6,0.9-1.7,1.8-3.3,1.8C1301.7,652.7,1300.5,650.9,1300.5,649.2z M1305.8,651
				c0.6,0,1.1-0.3,1.5-0.7c0-0.1,0-0.2,0-0.3v-3.3c-0.1,0-0.3,0-0.4,0c-2.1-0.3-3.1,0.8-3.1,2.1C1303.8,650.1,1304.6,651,1305.8,651
				z"/>
			<path class="st1" d="M1317,652.5h-4.2v-0.1c0.1-0.3,0.6-1.9,0.6-3.3v-4.2c0-1.5-0.5-3.1-0.6-3.4v-0.1h3.7v2.1
				c0.8-1.7,2.3-2.9,4.6-2.1l-0.5,3.4h-0.1c-1-1-2.5-1.7-4-0.6v5C1316.4,650.5,1316.9,652.1,1317,652.5L1317,652.5z"/>
			<path class="st1" d="M1326.2,652.5h-4.2v-0.1c0.1-0.3,0.6-1.9,0.6-3.3v-4.2c0-1.5-0.5-3.1-0.6-3.4v-0.1h3.7v1.8
				c0.8-1.1,1.9-2,3.5-2c1.4,0,2.7,0.7,3.1,2.2c0.8-1.3,2-2.2,3.6-2.2c1.8,0,3.4,1.2,3.4,3.7v4.1c0,1.5,0.5,3.1,0.6,3.3v0.1h-4.2
				v-0.1c0.1-0.3,0.6-1.9,0.6-3.3v-3.7c0-1.5-1-2.1-2-2.1c-0.6,0-1.2,0.2-1.8,0.7c0.1,0.3,0.1,0.7,0.1,1v4.1c0,1.5,0.5,3.1,0.5,3.3
				v0.1h-4.2v-0.1c0.1-0.3,0.6-1.9,0.6-3.3v-3.7c0-1.5-1-2.1-2.1-2.1c-0.6,0-1.1,0.2-1.7,0.6v5.1
				C1325.7,650.5,1326.2,652.1,1326.2,652.5L1326.2,652.5z"/>
			<path class="st1" d="M1341,649.2c0-2.4,2.4-3.8,5.1-3.5c0.5,0,1.2,0.2,1.7,0.3v-1.3c0-1.6-0.4-2.5-1.2-2.5
				c-1.3,0-4.4,2.4-4.6,2.8h-0.1v-3c1.9-0.5,3.7-0.8,4.9-0.8c2.9,0,4.1,1.5,4.1,3.6v4.6c0,1.2,0.4,1.8,1.4,1.3l0,0.1
				c-0.2,1-1,1.7-2.2,1.7c-1.2,0-2-0.6-2.2-1.7c-0.6,0.9-1.7,1.8-3.3,1.8C1342.2,652.7,1341,650.9,1341,649.2z M1346.2,651
				c0.6,0,1.1-0.3,1.5-0.7c0-0.1,0-0.2,0-0.3v-3.3c-0.1,0-0.3,0-0.4,0c-2.1-0.3-3.1,0.8-3.1,2.1C1344.2,650.1,1345,651,1346.2,651z"
				/>
			<path class="st1" d="M1357.4,652.5h-4.2v-0.1c0.1-0.3,0.6-1.9,0.6-3.3v-4.2c0-1.5-0.5-3.1-0.6-3.4v-0.1h3.7v2.1
				c0.8-1.7,2.3-2.9,4.6-2.1l-0.5,3.4h-0.1c-1-1-2.5-1.7-4-0.6v5C1356.8,650.5,1357.3,652.1,1357.4,652.5L1357.4,652.5z"/>
			<path class="st1" d="M1362.2,649.2c0-2.4,2.4-3.8,5.1-3.5c0.5,0,1.2,0.2,1.7,0.3v-1.3c0-1.6-0.4-2.5-1.2-2.5
				c-1.3,0-4.4,2.4-4.6,2.8h-0.1v-3c1.9-0.5,3.7-0.8,4.9-0.8c2.9,0,4.1,1.5,4.1,3.6v4.6c0,1.2,0.4,1.8,1.4,1.3l0,0.1
				c-0.2,1-1,1.7-2.2,1.7c-1.2,0-2-0.6-2.2-1.7c-0.6,0.9-1.7,1.8-3.3,1.8C1363.4,652.7,1362.2,650.9,1362.2,649.2z M1367.4,651
				c0.6,0,1.1-0.3,1.5-0.7c0-0.1,0-0.2,0-0.3v-3.3c-0.1,0-0.3,0-0.4,0c-2.1-0.3-3.1,0.8-3.1,2.1C1365.4,650.1,1366.2,651,1367.4,651
				z"/>
		</g>
	</g>
	<g>
		<g class="st0">
			<path class="st1" d="M1429.4,626.1h-4.2V626c0.1-0.3,0.6-1.9,0.6-3.3v-4.2c0-1.5-0.5-3.1-0.6-3.4V615h3.7v1.8
				c0.8-1.1,1.9-2,3.5-2c1.4,0,2.7,0.7,3.1,2.2c0.8-1.3,2-2.2,3.6-2.2c1.8,0,3.4,1.2,3.4,3.7v4.1c0,1.5,0.5,3.1,0.5,3.3v0.1h-4.2
				V626c0.1-0.3,0.6-1.9,0.6-3.3V619c0-1.5-1-2.1-2-2.1c-0.6,0-1.2,0.2-1.8,0.7c0.1,0.3,0.1,0.7,0.1,1v4.1c0,1.5,0.5,3.1,0.5,3.3
				v0.1h-4.2V626c0.1-0.3,0.6-1.9,0.6-3.3V619c0-1.5-1-2.1-2.1-2.1c-0.6,0-1.1,0.2-1.7,0.6v5.1
				C1428.8,624.1,1429.3,625.7,1429.4,626.1L1429.4,626.1z"/>
			<path class="st1" d="M1444.1,622.8c0-2.4,2.4-3.8,5.1-3.5c0.6,0,1.2,0.2,1.7,0.3v-1.3c0-1.6-0.4-2.5-1.2-2.5
				c-1.3,0-4.4,2.4-4.6,2.8h-0.1v-3c1.9-0.5,3.7-0.8,4.9-0.8c2.9,0,4.1,1.5,4.1,3.6v4.6c0,1.2,0.4,1.8,1.4,1.3l0,0.1
				c-0.2,1-1,1.7-2.2,1.7c-1.2,0-2-0.6-2.2-1.7c-0.6,0.9-1.7,1.8-3.3,1.8C1445.3,626.3,1444.1,624.5,1444.1,622.8z M1449.3,624.6
				c0.6,0,1.1-0.3,1.5-0.7c0-0.1,0-0.2,0-0.3v-3.3c-0.1,0-0.3,0-0.4,0c-2.1-0.3-3.1,0.8-3.1,2.1
				C1447.3,623.7,1448.1,624.6,1449.3,624.6z"/>
			<path class="st1" d="M1460.5,626.1h-4.2V626c0.1-0.3,0.6-1.9,0.6-3.3v-4.2c0-1.5-0.5-3.1-0.6-3.4V615h3.7v2.1
				c0.8-1.7,2.3-2.9,4.6-2.1l-0.5,3.4h-0.1c-1-1-2.5-1.7-4-0.6v5C1460,624.1,1460.5,625.7,1460.5,626.1L1460.5,626.1z"/>
			<path class="st1" d="M1477.9,624.4c-0.9,1.4-2.2,1.8-3.4,1.8c-2.2,0-4.4-1.9-4.4-5.7c0-3.8,2.2-5.7,4.5-5.7
				c1.3,0,2.5,0.5,3.2,1.6v-3.1c0-1.5-0.7-3-0.9-3.3l0-0.1l0.8-0.1l3.2-0.4v13c0,1.5,0.5,3.1,0.6,3.3v0.1h-2.9
				C1478.4,625.5,1478.1,625.1,1477.9,624.4z M1475.9,624.7c0.7,0,1.3-0.3,1.9-0.9c0-0.2,0-0.4,0-0.6v-5.8c-0.5-0.5-1.1-0.8-1.8-0.8
				c-1.7,0-2.5,1.7-2.5,3.9C1473.5,622.6,1474.1,624.7,1475.9,624.7z"/>
			<path class="st1" d="M1483.1,611.3c0-1.1,0.9-2,2-2c1.1,0,2,0.9,2,2c0,1.1-0.9,1.9-2,1.9C1484,613.3,1483.1,612.4,1483.1,611.3z
				 M1487.3,626.1h-4.2V626c0.1-0.3,0.6-1.9,0.6-3.3v-4.2c0-1.5-0.5-3.1-0.6-3.4V615h3.7v7.6
				C1486.7,624.1,1487.2,625.7,1487.3,626.1L1487.3,626.1z"/>
			<path class="st1" d="M1413.7,651.7v-3h0.1c1.3,1.3,2.8,3,4.4,3c0.9,0,1.7-0.5,1.7-1.4c0-1.1-1.1-1.4-2.9-2.1
				c-2.3-0.8-3.6-1.9-3.6-3.7c0-2.1,1.8-3.3,4.6-3.3c1,0,2.5,0.2,4,0.8v2.9h-0.1c-1.2-1.4-2.6-2.8-4.2-2.8c-0.8,0-1.7,0.4-1.7,1.3
				c0,1,1.2,1.4,2.9,2c2.6,0.9,3.5,2,3.5,3.6c0,2.5-2.1,3.6-4.4,3.6C1417,652.7,1415.4,652.4,1413.7,651.7z"/>
			<path class="st1" d="M1423.7,649.2c0-2.4,2.4-3.8,5.1-3.5c0.5,0,1.2,0.2,1.7,0.3v-1.3c0-1.6-0.4-2.5-1.2-2.5
				c-1.3,0-4.4,2.4-4.6,2.8h-0.1v-3c1.9-0.5,3.7-0.8,4.9-0.8c2.9,0,4.1,1.5,4.1,3.6v4.6c0,1.2,0.4,1.8,1.4,1.3l0,0.1
				c-0.2,1-1,1.7-2.2,1.7c-1.2,0-2-0.6-2.2-1.7c-0.6,0.9-1.7,1.8-3.3,1.8C1424.9,652.7,1423.7,650.9,1423.7,649.2z M1428.9,651
				c0.6,0,1.1-0.3,1.5-0.7c0-0.1,0-0.2,0-0.3v-3.3c-0.1,0-0.3,0-0.4,0c-2.1-0.3-3.1,0.8-3.1,2.1C1426.9,650.1,1427.7,651,1428.9,651
				z"/>
			<path class="st1" d="M1440.1,652.5h-4.2v-0.1c0.1-0.3,0.6-1.9,0.6-3.3v-4.2c0-1.5-0.5-3.1-0.6-3.4v-0.1h3.7v2.1
				c0.8-1.7,2.3-2.9,4.6-2.1l-0.5,3.4h-0.1c-1-1-2.5-1.7-4-0.6v5C1439.5,650.5,1440,652.1,1440.1,652.5L1440.1,652.5z"/>
			<path class="st1" d="M1452.5,650.8c-0.9,1.4-2.2,1.8-3.4,1.8c-2.2,0-4.4-1.9-4.4-5.7c0-3.8,2.2-5.7,4.5-5.7
				c1.3,0,2.5,0.5,3.2,1.6v-3.1c0-1.5-0.7-3-0.9-3.3l0-0.1l0.8-0.1l3.2-0.4v13c0,1.5,0.5,3.1,0.6,3.3v0.1h-2.9
				C1453,651.9,1452.7,651.5,1452.5,650.8z M1450.5,651.1c0.7,0,1.3-0.3,1.9-0.9c0-0.2,0-0.4,0-0.6v-5.8c-0.5-0.5-1.1-0.8-1.8-0.8
				c-1.7,0-2.5,1.7-2.5,3.9C1448.1,649,1448.7,651.1,1450.5,651.1z"/>
			<path class="st1" d="M1457.2,647c0-3.5,2.3-5.7,5.5-5.7c3.6,0,5,2.6,5,5.4h-7.2c0.2,2.3,1.3,4,3.5,4c1.1,0,2.2-0.4,3.4-1.3l0.1,0
				c-0.6,1.6-2.3,3.3-4.9,3.3C1460,652.7,1457.2,650.8,1457.2,647z M1460.6,646.2l4.1-0.6c0-1.7-0.5-3.4-2-3.4
				c-1.6,0-2.1,1.9-2.1,3.8C1460.6,646,1460.6,646.1,1460.6,646.2z"/>
			<path class="st1" d="M1471.9,648.8c-0.5,0.2-0.9,0.5-0.9,0.9c0,0.6,0.7,0.6,1.5,0.6h3.6c2.2,0,3.5,1.2,3.5,3.1
				c0,2.9-3.2,3.4-5.7,3.4c-1.6,0-5-0.3-5-2.5c0-0.7,0.3-1.3,0.8-1.7c-0.5-0.5-0.7-1.1-0.7-1.7c0-1.3,0.8-2.1,2.1-2.4
				c-1.2-0.6-2.2-1.7-2.2-3.3c0-2.6,2.6-3.9,4.8-3.9c0.9,0,1.8,0.2,2.6,0.6c0.6-1.3,1.7-2.2,3.5-2l-0.5,2.4l0,0
				c-0.7-0.4-1.5-0.5-2.5-0.2c1,0.6,1.8,1.7,1.8,3.1c0,2.6-2.6,3.9-4.8,3.9C1473.2,649.1,1472.5,649,1471.9,648.8z M1474.2,656
				c1.7,0,3.4-0.6,3.4-1.6c0-0.6-0.5-1.1-1.7-1.1h-3.7c-0.6,0-1.1-0.1-1.6-0.2c0,0.1,0,0.2,0,0.2
				C1470.7,654.8,1471.6,656,1474.2,656z M1475.5,645.2c0-1.7-0.6-3.1-1.8-3.1c-1.1,0-1.7,1.4-1.7,3.1c0,1.6,0.6,3.1,1.7,3.1
				C1474.9,648.3,1475.5,646.8,1475.5,645.2z"/>
			<path class="st1" d="M1484.9,652.5h-4.2v-0.1c0.1-0.3,0.6-1.9,0.6-3.3v-4.2c0-1.5-0.5-3.1-0.6-3.4v-0.1h3.7v1.9
				c0.7-1.1,1.9-2,3.5-2c1.9,0,3.6,1.2,3.6,3.7v4.1c0,1.5,0.5,3.1,0.5,3.3v0.1h-4.2v-0.1c0.1-0.3,0.6-1.9,0.6-3.3v-3.7
				c0-1.6-0.9-2.2-2-2.2c-0.7,0-1.4,0.3-2.1,0.8v5C1484.3,650.5,1484.8,652.1,1484.9,652.5L1484.9,652.5z"/>
			<path class="st1" d="M1493.2,649.2c0-2.4,2.4-3.8,5.1-3.5c0.5,0,1.2,0.2,1.7,0.3v-1.3c0-1.6-0.4-2.5-1.2-2.5
				c-1.3,0-4.4,2.4-4.6,2.8h-0.1v-3c1.9-0.5,3.7-0.8,4.9-0.8c2.9,0,4.1,1.5,4.1,3.6v4.6c0,1.2,0.4,1.8,1.4,1.3l0,0.1
				c-0.2,1-1,1.7-2.2,1.7c-1.2,0-2-0.6-2.2-1.7c-0.6,0.9-1.7,1.8-3.3,1.8C1494.4,652.7,1493.2,650.9,1493.2,649.2z M1498.4,651
				c0.6,0,1.1-0.3,1.5-0.7c0-0.1,0-0.2,0-0.3v-3.3c-0.1,0-0.3,0-0.4,0c-2.1-0.3-3.1,0.8-3.1,2.1C1496.4,650.1,1497.2,651,1498.4,651
				z"/>
		</g>
	</g>
	<g>
		<g class="st0">
			<path class="st1" d="M1560.7,626.1h-4.2V626c0.1-0.3,0.6-1.9,0.6-3.3v-4.2c0-1.5-0.5-3.1-0.6-3.4V615h3.7v1.8
				c0.8-1.1,1.9-2,3.5-2c1.4,0,2.7,0.7,3.1,2.2c0.8-1.3,2-2.2,3.6-2.2c1.8,0,3.4,1.2,3.4,3.7v4.1c0,1.5,0.5,3.1,0.6,3.3v0.1h-4.2
				V626c0.1-0.3,0.6-1.9,0.6-3.3V619c0-1.5-1-2.1-2-2.1c-0.6,0-1.2,0.2-1.8,0.7c0.1,0.3,0.1,0.7,0.1,1v4.1c0,1.5,0.5,3.1,0.5,3.3
				v0.1h-4.2V626c0.1-0.3,0.6-1.9,0.6-3.3V619c0-1.5-1-2.1-2.1-2.1c-0.6,0-1.1,0.2-1.7,0.6v5.1
				C1560.2,624.1,1560.7,625.7,1560.7,626.1L1560.7,626.1z"/>
			<path class="st1" d="M1575.5,622.8c0-2.4,2.4-3.8,5.1-3.5c0.6,0,1.2,0.2,1.7,0.3v-1.3c0-1.6-0.4-2.5-1.2-2.5
				c-1.3,0-4.4,2.4-4.6,2.8h-0.1v-3c1.9-0.5,3.7-0.8,4.9-0.8c2.9,0,4.1,1.5,4.1,3.6v4.6c0,1.2,0.4,1.8,1.4,1.3l0,0.1
				c-0.2,1-1,1.7-2.2,1.7c-1.2,0-2-0.6-2.2-1.7c-0.6,0.9-1.7,1.8-3.3,1.8C1576.7,626.3,1575.5,624.5,1575.5,622.8z M1580.7,624.6
				c0.6,0,1.1-0.3,1.5-0.7c0-0.1,0-0.2,0-0.3v-3.3c-0.1,0-0.3,0-0.4,0c-2.1-0.3-3.1,0.8-3.1,2.1
				C1578.7,623.7,1579.5,624.6,1580.7,624.6z"/>
			<path class="st1" d="M1591.9,626.1h-4.2V626c0.1-0.3,0.6-1.9,0.6-3.3v-4.2c0-1.5-0.5-3.1-0.6-3.4V615h3.7v2.1
				c0.8-1.7,2.3-2.9,4.6-2.1l-0.5,3.4h-0.1c-1-1-2.5-1.7-4-0.6v5C1591.3,624.1,1591.8,625.7,1591.9,626.1L1591.9,626.1z"/>
			<path class="st1" d="M1609.3,624.4c-0.9,1.4-2.2,1.8-3.4,1.8c-2.2,0-4.4-1.9-4.4-5.7c0-3.8,2.2-5.7,4.5-5.7
				c1.3,0,2.5,0.5,3.2,1.6v-3.1c0-1.5-0.7-3-0.9-3.3l0-0.1l0.8-0.1l3.2-0.4v13c0,1.5,0.5,3.1,0.6,3.3v0.1h-2.9
				C1609.8,625.5,1609.5,625.1,1609.3,624.4z M1607.3,624.7c0.7,0,1.3-0.3,1.9-0.9c0-0.2,0-0.4,0-0.6v-5.8c-0.5-0.5-1.1-0.8-1.8-0.8
				c-1.7,0-2.5,1.7-2.5,3.9C1604.9,622.6,1605.5,624.7,1607.3,624.7z"/>
			<path class="st1" d="M1614.5,611.3c0-1.1,0.9-2,2-2c1.1,0,2,0.9,2,2c0,1.1-0.9,1.9-2,1.9S1614.5,612.4,1614.5,611.3z
				 M1618.7,626.1h-4.2V626c0.1-0.3,0.6-1.9,0.6-3.3v-4.2c0-1.5-0.5-3.1-0.6-3.4V615h3.7v7.6
				C1618.1,624.1,1618.6,625.7,1618.7,626.1L1618.7,626.1z"/>
			<path class="st1" d="M1562.7,651.7v-3h0.1c1.3,1.3,2.8,3,4.4,3c0.9,0,1.7-0.5,1.7-1.4c0-1.1-1.1-1.4-2.9-2.1
				c-2.3-0.8-3.6-1.9-3.6-3.7c0-2.1,1.8-3.3,4.6-3.3c1,0,2.5,0.2,4,0.8v2.9h-0.1c-1.2-1.4-2.6-2.8-4.2-2.8c-0.8,0-1.6,0.4-1.6,1.3
				c0,1,1.2,1.4,2.9,2c2.6,0.9,3.5,2,3.5,3.6c0,2.5-2.1,3.6-4.4,3.6C1566,652.7,1564.5,652.4,1562.7,651.7z"/>
			<path class="st1" d="M1572.9,637.7c0-1.1,0.9-2,2-2c1.1,0,2,0.9,2,2c0,1.1-0.9,1.9-2,1.9S1572.9,638.8,1572.9,637.7z
				 M1577.1,652.5h-4.2v-0.1c0.1-0.3,0.6-1.9,0.6-3.3v-4.2c0-1.5-0.5-3.1-0.6-3.4v-0.1h3.7v7.6
				C1576.6,650.5,1577.1,652.1,1577.1,652.5L1577.1,652.5z"/>
			<path class="st1" d="M1578.3,647c0-3.6,2.3-5.7,5.6-5.7c1.8,0,3.3,0.7,4.2,1l0,3.3h-0.1c-0.8-1.3-2.4-3.4-4-3.4
				c-1.6,0-2.3,1.8-2.3,3.9c0,2.7,1.1,4.6,3.5,4.6c0.9,0,2.1-0.3,3.4-1.3l0.1,0.1c-0.6,1.6-2.3,3.2-4.8,3.2
				C1581.1,652.7,1578.3,650.8,1578.3,647z"/>
			<path class="st1" d="M1590,637.7c0-1.1,0.9-2,2-2c1.1,0,2,0.9,2,2c0,1.1-0.9,1.9-2,1.9S1590,638.8,1590,637.7z M1594.3,652.5
				h-4.2v-0.1c0.1-0.3,0.6-1.9,0.6-3.3v-4.2c0-1.5-0.5-3.1-0.6-3.4v-0.1h3.7v7.6C1593.7,650.5,1594.2,652.1,1594.3,652.5
				L1594.3,652.5z"/>
			<path class="st1" d="M1599.9,652.5h-4.2v-0.1c0-0.3,0.6-1.9,0.6-3.3v-9.2c0-1.5-0.5-3-0.6-3.3l0-0.1l0.6-0.1l3.2-0.4v13
				C1599.4,650.5,1599.9,652.1,1599.9,652.5L1599.9,652.5z"/>
			<path class="st1" d="M1601.4,637.7c0-1.1,0.9-2,2-2c1.1,0,2,0.9,2,2c0,1.1-0.9,1.9-2,1.9S1601.4,638.8,1601.4,637.7z
				 M1605.6,652.5h-4.2v-0.1c0.1-0.3,0.6-1.9,0.6-3.3v-4.2c0-1.5-0.5-3.1-0.6-3.4v-0.1h3.7v7.6
				C1605,650.5,1605.5,652.1,1605.6,652.5L1605.6,652.5z"/>
			<path class="st1" d="M1606.9,649.2c0-2.4,2.4-3.8,5.1-3.5c0.6,0,1.2,0.2,1.7,0.3v-1.3c0-1.6-0.4-2.5-1.2-2.5
				c-1.3,0-4.4,2.4-4.6,2.8h-0.1v-3c1.9-0.5,3.7-0.8,4.9-0.8c2.9,0,4.1,1.5,4.1,3.6v4.6c0,1.2,0.4,1.8,1.4,1.3l0,0.1
				c-0.2,1-1,1.7-2.2,1.7c-1.2,0-2-0.6-2.2-1.7c-0.6,0.9-1.7,1.8-3.3,1.8C1608.1,652.7,1606.9,650.9,1606.9,649.2z M1612.1,651
				c0.6,0,1.1-0.3,1.5-0.7c0-0.1,0-0.2,0-0.3v-3.3c-0.1,0-0.3,0-0.4,0c-2.1-0.3-3.1,0.8-3.1,2.1C1610.1,650.1,1611,651,1612.1,651z"
				/>
		</g>
	</g>
	<g>
		<g class="st0">
			<path class="st1" d="M1703.7,626.1h-4.2V626c0.1-0.3,0.6-1.9,0.6-3.3v-4.2c0-1.5-0.5-3.1-0.6-3.4V615h3.7v1.8
				c0.8-1.1,1.9-2,3.5-2c1.4,0,2.7,0.7,3.1,2.2c0.8-1.3,2-2.2,3.6-2.2c1.8,0,3.4,1.2,3.4,3.7v4.1c0,1.5,0.5,3.1,0.6,3.3v0.1h-4.2
				V626c0.1-0.3,0.6-1.9,0.6-3.3V619c0-1.5-1-2.1-2-2.1c-0.6,0-1.2,0.2-1.8,0.7c0.1,0.3,0.1,0.7,0.1,1v4.1c0,1.5,0.5,3.1,0.5,3.3
				v0.1h-4.2V626c0.1-0.3,0.6-1.9,0.6-3.3V619c0-1.5-1-2.1-2.1-2.1c-0.6,0-1.1,0.2-1.7,0.6v5.1
				C1703.2,624.1,1703.7,625.7,1703.7,626.1L1703.7,626.1z"/>
			<path class="st1" d="M1718.5,622.8c0-2.4,2.4-3.8,5.1-3.5c0.5,0,1.2,0.2,1.7,0.3v-1.3c0-1.6-0.4-2.5-1.2-2.5
				c-1.3,0-4.4,2.4-4.6,2.8h-0.1v-3c1.9-0.5,3.7-0.8,4.9-0.8c2.9,0,4.1,1.5,4.1,3.6v4.6c0,1.2,0.4,1.8,1.4,1.3l0,0.1
				c-0.2,1-1,1.7-2.2,1.7c-1.2,0-2-0.6-2.2-1.7c-0.6,0.9-1.7,1.8-3.3,1.8C1719.7,626.3,1718.5,624.5,1718.5,622.8z M1723.7,624.6
				c0.6,0,1.1-0.3,1.5-0.7c0-0.1,0-0.2,0-0.3v-3.3c-0.1,0-0.3,0-0.4,0c-2.1-0.3-3.1,0.8-3.1,2.1
				C1721.7,623.7,1722.5,624.6,1723.7,624.6z"/>
			<path class="st1" d="M1734.9,626.1h-4.2V626c0.1-0.3,0.6-1.9,0.6-3.3v-4.2c0-1.5-0.5-3.1-0.6-3.4V615h3.7v2.1
				c0.8-1.7,2.3-2.9,4.6-2.1l-0.5,3.4h-0.1c-1-1-2.5-1.7-4-0.6v5C1734.3,624.1,1734.8,625.7,1734.9,626.1L1734.9,626.1z"/>
			<path class="st1" d="M1688.5,649.2v-6.9h-1.6v-0.9c2.2-0.9,3.5-2.2,4.6-3.8h0.1v3.7h3v0.9h-3v6.6c0,1.2,0.6,1.7,1.5,1.7
				c0.5,0,1.1-0.1,1.7-0.5c-0.5,1.3-1.6,2.6-3.4,2.6C1689.6,652.7,1688.5,651.4,1688.5,649.2z"/>
			<path class="st1" d="M1696,637.7c0-1.1,0.9-2,2-2c1.1,0,2,0.9,2,2c0,1.1-0.9,1.9-2,1.9C1696.9,639.7,1696,638.8,1696,637.7z
				 M1700.2,652.5h-4.2v-0.1c0.1-0.3,0.6-1.9,0.6-3.3v-4.2c0-1.5-0.5-3.1-0.6-3.4v-0.1h3.7v7.6
				C1699.7,650.5,1700.2,652.1,1700.2,652.5L1700.2,652.5z"/>
			<path class="st1" d="M1705.9,652.5h-4.2v-0.1c0.1-0.3,0.6-1.9,0.6-3.3v-4.2c0-1.5-0.5-3.1-0.6-3.4v-0.1h3.7v2.1
				c0.8-1.7,2.3-2.9,4.6-2.1l-0.5,3.4h-0.1c-1-1-2.5-1.7-4-0.6v5C1705.4,650.5,1705.9,652.1,1705.9,652.5L1705.9,652.5z"/>
			<path class="st1" d="M1715.3,652.5h-4.2v-0.1c0.1-0.3,0.6-1.9,0.6-3.3v-4.2c0-1.5-0.5-3.1-0.6-3.4v-0.1h3.7v2.1
				c0.8-1.7,2.3-2.9,4.6-2.1l-0.5,3.4h-0.1c-1-1-2.5-1.7-4-0.6v5C1714.7,650.5,1715.2,652.1,1715.3,652.5L1715.3,652.5z"/>
			<path class="st1" d="M1719.8,647c0-3.5,2.3-5.7,5.5-5.7c3.6,0,5,2.6,5,5.4h-7.2c0.2,2.3,1.3,4,3.5,4c1.1,0,2.2-0.4,3.4-1.3l0.1,0
				c-0.6,1.6-2.3,3.3-4.9,3.3C1722.6,652.7,1719.8,650.8,1719.8,647z M1723.2,646.2l4.1-0.6c0-1.7-0.5-3.4-2-3.4
				c-1.6,0-2.1,1.9-2.1,3.8C1723.2,646,1723.2,646.1,1723.2,646.2z"/>
			<path class="st1" d="M1735.9,652.5h-4.2v-0.1c0.1-0.3,0.6-1.9,0.6-3.3v-4.2c0-1.5-0.5-3.1-0.6-3.4v-0.1h3.7v1.9
				c0.7-1.1,1.9-2,3.5-2c1.9,0,3.6,1.2,3.6,3.7v4.1c0,1.5,0.5,3.1,0.5,3.3v0.1h-4.2v-0.1c0.1-0.3,0.6-1.9,0.6-3.3v-3.7
				c0-1.6-0.9-2.2-2-2.2c-0.7,0-1.4,0.3-2.1,0.8v5C1735.3,650.5,1735.8,652.1,1735.9,652.5L1735.9,652.5z"/>
			<path class="st1" d="M1744.1,646.9c0-3.8,2.6-5.6,5.7-5.6c3.1,0,5.7,1.9,5.7,5.6c0,3.8-2.7,5.8-5.7,5.8
				C1746.8,652.7,1744.1,650.7,1744.1,646.9z M1752.1,646.9c0-2.4-0.7-4.8-2.3-4.8c-1.6,0-2.2,2.4-2.2,4.8c0,2.4,0.6,4.9,2.2,4.9
				C1751.5,651.8,1752.1,649.3,1752.1,646.9z"/>
		</g>
	</g>
	<g>
		<path class="st1" d="M34.8,585.7c0-4.8,2.9-8,6.6-8c3.7,0,6.6,3.3,6.6,8c0,4.9-2.9,8.1-6.6,8.1C37.6,593.9,34.8,590.6,34.8,585.7z
			 M44.2,585.7c0-3.2-0.6-7-2.8-7c-2.3,0-2.8,3.9-2.8,7.1c0,3.3,0.6,7.1,2.8,7.1C43.6,592.9,44.2,589,44.2,585.7z"/>
		<path class="st1" d="M48.8,592c0-1,0.8-1.9,1.9-1.9s1.9,0.8,1.9,1.9s-0.9,1.9-1.9,1.9S48.8,593.1,48.8,592z"/>
		<path class="st1" d="M53.7,585.7c0-4.8,2.9-8,6.6-8c3.7,0,6.6,3.3,6.6,8c0,4.9-2.9,8.1-6.6,8.1C56.6,593.9,53.7,590.6,53.7,585.7z
			 M63.1,585.7c0-3.2-0.6-7-2.8-7c-2.3,0-2.8,3.9-2.8,7.1c0,3.3,0.6,7.1,2.8,7.1C62.6,592.9,63.1,589,63.1,585.7z"/>
		<path class="st1" d="M68.3,580.8c0-1.7,1.3-3.2,3.2-3.2c1.8,0,3.2,1.5,3.2,3.2s-1.4,3.2-3.2,3.2C69.7,584,68.3,582.5,68.3,580.8z
			 M73.4,580.8c0-1-0.8-1.9-1.9-1.9s-1.8,0.9-1.8,1.9s0.7,1.9,1.8,1.9S73.4,581.8,73.4,580.8z"/>
	</g>
	<g>
		<path class="st1" d="M36.9,476.6c0-4.8,2.9-8,6.6-8c3.7,0,6.6,3.3,6.6,8c0,4.9-2.9,8.1-6.6,8.1C39.7,484.7,36.9,481.5,36.9,476.6z
			 M46.3,476.6c0-3.2-0.6-7-2.8-7c-2.3,0-2.8,3.9-2.8,7.1c0,3.3,0.6,7.1,2.8,7.1C45.7,483.7,46.3,479.8,46.3,476.6z"/>
		<path class="st1" d="M50.9,482.9c0-1,0.8-1.9,1.9-1.9s1.9,0.8,1.9,1.9s-0.9,1.9-1.9,1.9S50.9,483.9,50.9,482.9z"/>
		<path class="st1" d="M56.3,483.6l0.3-3.7l0.1,0c1.2,2.3,2.7,4,4.2,4c1.4,0,2.4-1.3,2.4-3.7c0-2.3-1-4-3.2-4c-0.8,0-2,0.2-3.5,0.9
			l0.8-8.4h0.1h5.2c1.7,0,3.5-0.4,4-0.7l-0.7,3.5h-7.8l-0.4,4.2c1.3-0.8,2.7-1.1,4-1.1c3.5,0,5.2,2.4,5.2,5.1c0,3.2-2.5,5.1-6,5.1
			C59,484.8,57.5,484.3,56.3,483.6z"/>
		<path class="st1" d="M68.3,471.6c0-1.7,1.3-3.2,3.2-3.2c1.8,0,3.2,1.5,3.2,3.2s-1.4,3.2-3.2,3.2C69.7,474.8,68.3,473.3,68.3,471.6
			z M73.4,471.6c0-1-0.8-1.9-1.9-1.9c-1.1,0-1.8,0.9-1.8,1.9s0.7,1.9,1.8,1.9C72.6,473.6,73.4,472.6,73.4,471.6z"/>
	</g>
	<g>
		<path class="st1" d="M46.4,358.7v12.9c0,1.5,0.5,3.1,0.6,3.3v0.1h-4.4V375c0.1-0.3,0.6-1.9,0.6-3.3v-9.6h-2.6v-0.6
			C42.7,360.9,44.7,360.1,46.4,358.7z"/>
		<path class="st1" d="M48.8,373.4c0-1,0.8-1.9,1.9-1.9s1.9,0.8,1.9,1.9s-0.9,1.9-1.9,1.9S48.8,374.5,48.8,373.4z"/>
		<path class="st1" d="M53.7,367.2c0-4.8,2.9-8,6.6-8c3.7,0,6.6,3.3,6.6,8c0,4.9-2.9,8.1-6.6,8.1C56.6,375.3,53.7,372,53.7,367.2z
			 M63.1,367.1c0-3.2-0.6-7-2.8-7c-2.3,0-2.8,3.9-2.8,7.1c0,3.3,0.6,7.1,2.8,7.1C62.6,374.3,63.1,370.4,63.1,367.1z"/>
		<path class="st1" d="M68.3,362.2c0-1.7,1.3-3.2,3.2-3.2c1.8,0,3.2,1.5,3.2,3.2s-1.4,3.2-3.2,3.2C69.7,365.4,68.3,363.9,68.3,362.2
			z M73.4,362.2c0-1-0.8-1.9-1.9-1.9c-1.1,0-1.8,0.9-1.8,1.9s0.7,1.9,1.8,1.9C72.6,364.1,73.4,363.2,73.4,362.2z"/>
	</g>
	<g>
		<path class="st1" d="M48.4,249.5v12.9c0,1.5,0.5,3.1,0.6,3.3v0.1h-4.4v-0.1c0.1-0.3,0.6-1.9,0.6-3.3v-9.6h-2.6v-0.6
			C44.7,251.7,46.8,250.9,48.4,249.5z"/>
		<path class="st1" d="M50.9,264.2c0-1,0.8-1.9,1.9-1.9s1.9,0.8,1.9,1.9s-0.9,1.9-1.9,1.9S50.9,265.3,50.9,264.2z"/>
		<path class="st1" d="M56.3,265l0.3-3.7l0.1,0c1.2,2.3,2.7,4,4.2,4c1.4,0,2.4-1.3,2.4-3.7c0-2.3-1-4-3.2-4c-0.8,0-2,0.2-3.5,0.9
			l0.8-8.4h0.1h5.2c1.7,0,3.5-0.4,4-0.7l-0.7,3.5h-7.8l-0.4,4.2c1.3-0.8,2.7-1.1,4-1.1c3.5,0,5.2,2.4,5.2,5.1c0,3.2-2.5,5.1-6,5.1
			C59,266.2,57.5,265.6,56.3,265z"/>
		<path class="st1" d="M68.3,253c0-1.7,1.3-3.2,3.2-3.2c1.8,0,3.2,1.5,3.2,3.2s-1.4,3.2-3.2,3.2C69.7,256.2,68.3,254.7,68.3,253z
			 M73.4,253c0-1-0.8-1.9-1.9-1.9s-1.8,0.9-1.8,1.9s0.7,1.9,1.8,1.9S73.4,254,73.4,253z"/>
	</g>
	<g>
		<path class="st1" d="M43.7,143.7c0-1-0.5-2.2-1.8-2.2c-1.7,0-3.2,2.2-4.2,4h-0.1l-0.7-3.7c1.5-0.6,3.2-1.3,5.1-1.3
			c2.8,0,5.2,1.3,5.2,3.9c0,2.2-1.8,4.2-3.8,5.9c-1.4,1.4-3.5,3.1-4.2,3.7h3.5c1.7,0,3.2-0.4,4.4-1.4l0.1,0l-0.6,3.9H36.2
			C40.5,150.9,43.7,146.9,43.7,143.7z"/>
		<path class="st1" d="M48.8,154.9c0-1,0.8-1.9,1.9-1.9s1.9,0.8,1.9,1.9s-0.9,1.9-1.9,1.9S48.8,155.9,48.8,154.9z"/>
		<path class="st1" d="M53.7,148.6c0-4.8,2.9-8,6.6-8c3.7,0,6.6,3.3,6.6,8c0,4.9-2.9,8.1-6.6,8.1C56.6,156.7,53.7,153.5,53.7,148.6z
			 M63.1,148.6c0-3.2-0.6-7-2.8-7c-2.3,0-2.8,3.9-2.8,7.1c0,3.3,0.6,7.1,2.8,7.1C62.6,155.8,63.1,151.9,63.1,148.6z"/>
		<path class="st1" d="M68.3,143.7c0-1.7,1.3-3.2,3.2-3.2c1.8,0,3.2,1.5,3.2,3.2s-1.4,3.2-3.2,3.2C69.7,146.9,68.3,145.4,68.3,143.7
			z M73.4,143.7c0-1-0.8-1.9-1.9-1.9s-1.8,0.9-1.8,1.9s0.7,1.9,1.8,1.9S73.4,144.7,73.4,143.7z"/>
	</g>
	<g>
		<path class="st1" d="M43.7,33.3c0-1-0.5-2.2-1.8-2.2c-1.7,0-3.2,2.2-4.2,4h-0.1l-0.7-3.7c1.5-0.6,3.2-1.3,5.1-1.3
			c2.8,0,5.2,1.3,5.2,3.9c0,2.2-1.8,4.2-3.8,5.9c-1.4,1.4-3.5,3.1-4.2,3.7h3.5c1.7,0,3.2-0.4,4.4-1.4l0.1,0l-0.6,3.9H36.2
			C40.5,40.5,43.7,36.5,43.7,33.3z"/>
		<path class="st1" d="M48.8,44.5c0-1,0.8-1.9,1.9-1.9s1.9,0.8,1.9,1.9s-0.9,1.9-1.9,1.9S48.8,45.6,48.8,44.5z"/>
		<path class="st1" d="M54.2,45.3l0.3-3.7l0.1,0c1.2,2.3,2.7,4,4.2,4c1.4,0,2.4-1.3,2.4-3.7c0-2.3-1-4-3.2-4c-0.8,0-2,0.2-3.5,0.9
			l0.8-8.4h0.1h5.2c1.7,0,3.5-0.4,4-0.7l-0.7,3.5h-7.8l-0.4,4.2c1.3-0.8,2.7-1.1,4-1.1c3.5,0,5.2,2.4,5.2,5.1c0,3.2-2.5,5.1-6,5.1
			C56.9,46.5,55.4,45.9,54.2,45.3z"/>
		<path class="st1" d="M66.2,33.3c0-1.7,1.3-3.2,3.2-3.2c1.8,0,3.2,1.5,3.2,3.2s-1.4,3.2-3.2,3.2C67.6,36.5,66.2,35,66.2,33.3z
			 M71.3,33.3c0-1-0.8-1.9-1.9-1.9s-1.8,0.9-1.8,1.9s0.7,1.9,1.8,1.9S71.3,34.3,71.3,33.3z"/>
	</g>
	<g class="st6">
		<rect x="104.1" y="171.4" class="st1" width="1649" height="0.5"/>
	</g>
	<g class="st6">
		<rect x="104.1" y="193.3" class="st1" width="1649" height="0.5"/>
	</g>
	<g class="st6">
		<rect x="104.1" y="215.2" class="st1" width="1649" height="0.5"/>
	</g>
	<g class="st6">
		<rect x="104.1" y="237.1" class="st1" width="1649" height="0.5"/>
	</g>
	<g class="st6">
		<rect x="104.1" y="280.9" class="st1" width="1649" height="0.5"/>
	</g>
	<g class="st6">
		<rect x="104.1" y="302.8" class="st1" width="1649" height="0.5"/>
	</g>
	<g class="st6">
		<rect x="104.1" y="324.7" class="st1" width="1649" height="0.5"/>
	</g>
	<g class="st6">
		<rect x="104.1" y="346.6" class="st1" width="1649" height="0.5"/>
	</g>
	<g class="st6">
		<rect x="104.1" y="61.9" class="st1" width="1649" height="0.5"/>
	</g>
	<g class="st6">
		<rect x="104.1" y="83.8" class="st1" width="1649" height="0.5"/>
	</g>
	<g class="st6">
		<rect x="104.1" y="105.7" class="st1" width="1649" height="0.5"/>
	</g>
	<g class="st6">
		<rect x="104.1" y="127.6" class="st1" width="1649" height="0.5"/>
	</g>
	<g class="st6">
		<rect x="104.1" y="390.4" class="st1" width="1649" height="0.5"/>
	</g>
	<g class="st6">
		<rect x="104.1" y="412.3" class="st1" width="1649" height="0.5"/>
	</g>
	<g class="st6">
		<rect x="104.1" y="434.2" class="st1" width="1649" height="0.5"/>
	</g>
	<g class="st6">
		<rect x="104.1" y="456.1" class="st1" width="1649" height="0.5"/>
	</g>
	<g class="st6">
		<rect x="104.1" y="499.9" class="st1" width="1649" height="0.5"/>
	</g>
	<g class="st6">
		<rect x="104.1" y="521.8" class="st1" width="1649" height="0.5"/>
	</g>
	<g class="st6">
		<rect x="104.1" y="543.7" class="st1" width="1649" height="0.5"/>
	</g>
	<g class="st6">
		<rect x="104.1" y="565.6" class="st1" width="1649" height="0.5"/>
	</g>
	<g>
		<g class="st2">
			<rect x="104.1" y="149.3" class="st1" width="1649" height="0.8"/>
		</g>
		<g class="st2">
			<rect x="104.1" y="258.8" class="st1" width="1649" height="0.8"/>
		</g>
		<g class="st2">
			<rect x="104.1" y="39.8" class="st1" width="1649" height="0.8"/>
		</g>
		<g class="st2">
			<rect x="104.1" y="368.3" class="st1" width="1649" height="0.8"/>
		</g>
		<g class="st2">
			<rect x="104.1" y="477.8" class="st1" width="1649" height="0.8"/>
		</g>
		<g class="st2">
			<rect x="104.1" y="587.3" class="st1" width="1657.8" height="0.8"/>
		</g>
	</g>
	<g class="st2">
		<rect x="276" y="16.8" class="st1" width="0.4" height="570.9"/>
	</g>
	<g class="st2">
		<rect x="144.4" y="16.8" class="st1" width="0.4" height="570.9"/>
	</g>
	<g class="st2">
		<rect x="407.3" y="16.8" class="st1" width="0.4" height="570.9"/>
	</g>
	<g class="st2">
		<rect x="538.7" y="16.8" class="st1" width="0.4" height="570.9"/>
	</g>
	<g class="st2">
		<rect x="670.1" y="16.8" class="st1" width="0.4" height="570.9"/>
	</g>
	<g class="st2">
		<rect x="801.5" y="16.8" class="st1" width="0.4" height="570.9"/>
	</g>
	<g class="st2">
		<rect x="932.9" y="16.8" class="st1" width="0.4" height="570.9"/>
	</g>
	<g class="st2">
		<rect x="1064.3" y="16.8" class="st1" width="0.4" height="570.9"/>
	</g>
	<g class="st2">
		<rect x="1195.7" y="16.8" class="st1" width="0.4" height="570.9"/>
	</g>
	<g class="st2">
		<rect x="1327" y="16.8" class="st1" width="0.4" height="570.9"/>
	</g>
	<g class="st2">
		<rect x="1458.4" y="16.8" class="st1" width="0.4" height="570.9"/>
	</g>
	<g class="st2">
		<rect x="1589.8" y="16.8" class="st1" width="0.4" height="570.9"/>
	</g>
	<g class="st2">
		<rect x="1721.2" y="16.8" class="st1" width="0.4" height="570.9"/>
	</g>
	<g>
		<g>
			<circle class="st7" cx="1590" cy="259.2" r="12.2"/>
		</g>
		<g>
			<circle class="st7" cx="1721.4" cy="171.6" r="12.2"/>
		</g>
	</g>
	<g>
		<g>
			<circle class="st7" cx="1458.6" cy="149.7" r="12.2"/>
		</g>
	</g>
	<g>
		<g>
			<circle class="st7" cx="1327.2" cy="193.5" r="12.2"/>
		</g>
	</g>
	<g>
		<g>
			<circle class="st7" cx="1196.4" cy="84" r="12.2"/>
		</g>
	</g>
	<g>
		<g>
			<circle class="st7" cx="1064.9" cy="237.3" r="12.2"/>
		</g>
	</g>
	<g>
		<g>
			<circle class="st7" cx="933.1" cy="237.3" r="12.2"/>
		</g>
	</g>
	<g>
		<g>
			<circle class="st7" cx="802" cy="259.2" r="12.2"/>
		</g>
	</g>
	<g>
		<g>
			<circle class="st7" cx="670.3" cy="215.4" r="12.2"/>
		</g>
	</g>
	<g>
		<g>
			<circle class="st7" cx="538.9" cy="84" r="12.2"/>
		</g>
	</g>
	<g>
		<g>
			<circle class="st7" cx="407.6" cy="127.8" r="12.2"/>
		</g>
	</g>
	<g>
		<g>
			<circle class="st7" cx="276.2" cy="303" r="12.2"/>
		</g>
	</g>
	<g>
		<g>
			<circle class="st7" cx="144.6" cy="259.2" r="12.2"/>
		</g>
	</g>
	<g>
		<rect x="406.1" y="127.8" class="st7" width="3" height="459.9"/>
	</g>
	<g>
		<rect x="274.7" y="303" class="st7" width="3" height="284.7"/>
	</g>
	<g>
		<rect x="143.1" y="259.2" class="st7" width="3" height="328.5"/>
	</g>
	<g>
		<rect x="537.4" y="84" class="st7" width="3" height="503.7"/>
	</g>
	<g>
		<rect x="668.8" y="215.4" class="st7" width="3" height="372.3"/>
	</g>
	<g>
		<rect x="800.5" y="259.2" class="st7" width="3" height="328.5"/>
	</g>
	<g>
		<rect x="931.9" y="239.8" class="st7" width="3" height="348"/>
	</g>
	<g>
		<rect x="1063" y="239.8" class="st7" width="3" height="348"/>
	</g>
	<g>
		<rect x="1194.4" y="84" class="st7" width="3" height="503.7"/>
	</g>
	<g>
		<rect x="1325.7" y="193.5" class="st7" width="3" height="394.2"/>
	</g>
	<g>
		<rect x="1457.1" y="149.7" class="st7" width="3" height="438"/>
	</g>
	<g>
		<rect x="1588.5" y="259.2" class="st7" width="3" height="328.5"/>
	</g>
	<g>
		<rect x="1719.9" y="171.6" class="st7" width="3" height="416.1"/>
	</g>
	<rect x="15.9" y="247.2" class="st13" width="16.3" height="21.2"/>
	<text transform="matrix(1 0 0 1 15.8917 264.2256)" class="st1 st14 st15">+</text>
	<rect x="15.9" y="138" class="st13" width="16.3" height="21.2"/>
	<text transform="matrix(1 0 0 1 15.8917 155.0889)" class="st1 st14 st15">+</text>
	<rect x="15.9" y="27.5" class="st13" width="16.3" height="21.2"/>
	<text transform="matrix(1 0 0 1 15.8917 44.5147)" class="st1 st14 st15">+</text>
	<rect x="15.9" y="356.4" class="st13" width="16.3" height="21.2"/>
	<text transform="matrix(1 0 0 1 15.8917 373.4761)" class="st1 st14 st15">+</text>
	<rect x="15.9" y="465.8" class="st13" width="16.3" height="21.2"/>
	<text transform="matrix(1 0 0 1 15.8917 482.876)" class="st1 st14 st15">+</text>
</g>
</svg>
