<?xml version="1.0" encoding="utf-8"?>
<!-- Generator: Adobe Illustrator 26.0.1, SVG Export Plug-In . SVG Version: 6.00 Build 0)  -->
<svg version="1.1" id="Livello_1" xmlns="http://www.w3.org/2000/svg" xmlns:xlink="http://www.w3.org/1999/xlink" x="0px" y="0px"
	 viewBox="0 0 825.3 855.7" style="enable-background:new 0 0 825.3 855.7;" xml:space="preserve">
<style type="text/css">
	.st0{enable-background:new    ;}
	.st1{fill:#FFFFFF;}
	.st2{opacity:0.5;}
	.st3{fill:#F60000;}
</style>
<g id="Livello_2_00000026868709283711248230000017302341505916118171_">
</g>
<g id="Livello_1_00000002349853846768348090000014934073836199639434_">
	<g class="st0">
		<path class="st1" d="M114.1,839.1V852c0,1.5,0.5,3.1,0.6,3.3v0.1h-4.4v-0.1c0.1-0.3,0.6-1.9,0.6-3.3v-9.6h-2.6v-0.6
			C110.4,841.2,112.5,840.4,114.1,839.1z"/>
		<path class="st1" d="M128.4,847.6c0,4.6-2.3,8.1-6.3,8.1c-2,0-3.5-0.5-5-1.1l0.6-3.7h0.1c1.3,2.1,2.9,3.9,4.4,3.9
			c2.1,0,2.6-2.9,2.6-7.1c-0.9,1.1-2.3,1.7-3.8,1.7c-2.9,0-4.8-2.2-4.8-4.8c0-3.2,2.7-5.3,5.9-5.3
			C125.9,839.4,128.4,842.9,128.4,847.6z M119.7,843.9c0,2,0.9,4.2,2.7,4.2c0.7,0,1.6-0.3,2.3-1.3c-0.2-3.5-0.8-6.5-2.6-6.5
			C120.7,840.3,119.7,841.8,119.7,843.9z"/>
		<path class="st1" d="M129.7,851.7c0-2,1.8-3.2,3.5-3.6c-1.9-0.9-3.2-2.3-3.2-4.2c0-2.4,2.2-4.5,5.7-4.5c2.8,0,5.4,1.2,5.4,3.7
			c0,1.8-1.5,3-3,3.5c2.8,1.3,3.7,2.8,3.7,4.5c0,3-3,4.6-6.1,4.6C132.8,855.7,129.7,854.3,129.7,851.7z M135.7,854.8
			c1.8,0,3-1.1,3-2.6c0-1.6-1.8-2.7-4.2-3.6c-0.1,0-0.2-0.1-0.3-0.1c-1.1,0.7-1.7,1.8-1.7,2.9C132.4,853.1,133.6,854.8,135.7,854.8z
			 M137,846.1c0.8-0.6,1.5-1.5,1.5-2.7c0-1.7-1-3.1-2.9-3.1c-1.5,0-2.7,0.9-2.7,2.4C132.9,844.4,134.7,845.2,137,846.1z"/>
		<path class="st1" d="M150.1,842.6c0-1-0.5-2.2-1.8-2.2c-1.7,0-3.2,2.2-4.2,4H144l-0.7-3.7c1.5-0.6,3.2-1.3,5.1-1.3
			c2.8,0,5.2,1.3,5.2,3.9c0,2.2-1.8,4.2-3.8,5.9c-1.4,1.4-3.5,3.1-4.2,3.7h3.5c1.7,0,3.2-0.4,4.4-1.4h0.1l-0.6,3.9h-10.3
			C146.8,849.8,150.1,845.7,150.1,842.6z"/>
	</g>
	<g transform="translate(164.44444444444443,0)">
		<g class="st0">
			<path class="st1" d="M80,838.8v12.9c0,1.5,0.5,3.1,0.6,3.3v0.1h-4.4V855c0.1-0.3,0.6-1.9,0.6-3.3v-9.6H74v-0.6
				C76.3,841,78.3,840.1,80,838.8z"/>
			<path class="st1" d="M94.3,847.3c0,4.6-2.3,8.1-6.3,8.1c-2,0-3.5-0.5-5-1.1l0.6-3.7h0.1c1.3,2.1,2.9,3.9,4.4,3.9
				c2.1,0,2.6-2.9,2.6-7.1c-0.9,1.1-2.3,1.7-3.8,1.7c-2.9,0-4.8-2.2-4.8-4.8c0-3.2,2.7-5.3,5.9-5.3
				C91.7,839.1,94.3,842.7,94.3,847.3z M85.5,843.7c0,2,0.9,4.2,2.7,4.2c0.7,0,1.6-0.3,2.3-1.3c-0.2-3.5-0.8-6.5-2.6-6.5
				C86.5,840,85.5,841.6,85.5,843.7z"/>
			<path class="st1" d="M107.6,847.3c0,4.6-2.3,8.1-6.3,8.1c-2,0-3.5-0.5-5-1.1l0.6-3.7H97c1.3,2.1,2.9,3.9,4.4,3.9
				c2.1,0,2.6-2.9,2.6-7.1c-0.9,1.1-2.3,1.7-3.8,1.7c-2.9,0-4.8-2.2-4.8-4.8c0-3.2,2.7-5.3,5.9-5.3
				C105.1,839.1,107.6,842.7,107.6,847.3z M98.8,843.7c0,2,0.9,4.2,2.7,4.2c0.7,0,1.6-0.3,2.3-1.3c-0.2-3.5-0.8-6.5-2.6-6.5
				C99.8,840,98.8,841.6,98.8,843.7z"/>
			<path class="st1" d="M108.9,847.2c0-4.8,2.9-8,6.6-8s6.6,3.3,6.6,8c0,4.9-2.9,8.1-6.6,8.1C111.7,855.3,108.9,852.1,108.9,847.2z
				 M118.3,847.2c0-3.2-0.6-7-2.8-7c-2.3,0-2.8,3.9-2.8,7.1c0,3.3,0.6,7.1,2.8,7.1C117.7,854.4,118.3,850.4,118.3,847.2z"/>
		</g>
	</g>
	<g>
		<g class="st0">
			<path class="st1" d="M407.5,842.3c0-1-0.5-2.2-1.8-2.2c-1.7,0-3.2,2.2-4.2,4h-0.1l-0.7-3.7c1.5-0.6,3.2-1.3,5.1-1.3
				c2.8,0,5.2,1.3,5.2,3.9c0,2.2-1.8,4.2-3.8,5.9c-1.4,1.4-3.5,3.1-4.2,3.7h3.5c1.7,0,3.2-0.4,4.4-1.4h0.1l-0.6,3.9H400
				C404.2,849.5,407.5,845.4,407.5,842.3z"/>
			<path class="st1" d="M412.1,847.2c0-4.8,2.9-8,6.6-8s6.6,3.3,6.6,8c0,4.9-2.9,8.1-6.6,8.1C414.9,855.3,412.1,852.1,412.1,847.2z
				 M421.5,847.2c0-3.2-0.6-7-2.8-7c-2.3,0-2.8,3.9-2.8,7.1c0,3.3,0.6,7.1,2.8,7.1C420.9,854.4,421.5,850.4,421.5,847.2z"/>
			<path class="st1" d="M426.4,847.2c0-4.8,2.9-8,6.6-8s6.6,3.3,6.6,8c0,4.9-2.9,8.1-6.6,8.1S426.4,852.1,426.4,847.2z M435.8,847.2
				c0-3.2-0.6-7-2.8-7c-2.3,0-2.8,3.9-2.8,7.1c0,3.3,0.6,7.1,2.8,7.1S435.8,850.4,435.8,847.2z"/>
			<path class="st1" d="M440.8,847.2c0-4.8,2.9-8,6.6-8s6.6,3.3,6.6,8c0,4.9-2.9,8.1-6.6,8.1C443.7,855.3,440.8,852.1,440.8,847.2z
				 M450.2,847.2c0-3.2-0.6-7-2.8-7c-2.3,0-2.8,3.9-2.8,7.1c0,3.3,0.6,7.1,2.8,7.1S450.2,850.4,450.2,847.2z"/>
		</g>
	</g>
	<g>
		<g class="st0">
			<path class="st1" d="M575.2,842.3c0-1-0.5-2.2-1.8-2.2c-1.7,0-3.2,2.2-4.2,4H569l-0.7-3.7c1.5-0.6,3.2-1.3,5.1-1.3
				c2.8,0,5.2,1.3,5.2,3.9c0,2.2-1.8,4.2-3.8,5.9c-1.4,1.4-3.5,3.1-4.2,3.7h3.5c1.7,0,3.2-0.4,4.4-1.4h0.1l-0.6,3.9h-10.3
				C572,849.5,575.2,845.4,575.2,842.3z"/>
			<path class="st1" d="M579.8,847.2c0-4.8,2.9-8,6.6-8c3.7,0,6.6,3.3,6.6,8c0,4.9-2.9,8.1-6.6,8.1S579.8,852.1,579.8,847.2z
				 M589.2,847.2c0-3.2-0.6-7-2.8-7c-2.3,0-2.8,3.9-2.8,7.1c0,3.3,0.6,7.1,2.8,7.1C588.7,854.4,589.2,850.4,589.2,847.2z"/>
			<path class="st1" d="M599.9,838.8v12.9c0,1.5,0.5,3.1,0.6,3.3v0.1H596V855c0.1-0.3,0.6-1.9,0.6-3.3v-9.6H594v-0.6
				C596.2,841,598.2,840.1,599.9,838.8z"/>
			<path class="st1" d="M601.9,847.2c0-4.8,2.9-8,6.6-8c3.7,0,6.6,3.3,6.6,8c0,4.9-2.9,8.1-6.6,8.1
				C604.8,855.3,601.9,852.1,601.9,847.2z M611.3,847.2c0-3.2-0.6-7-2.8-7c-2.3,0-2.8,3.9-2.8,7.1c0,3.3,0.6,7.1,2.8,7.1
				S611.3,850.4,611.3,847.2z"/>
		</g>
	</g>
	<g>
		<g class="st0">
			<path class="st1" d="M737.8,842.3c0-1-0.5-2.2-1.8-2.2c-1.7,0-3.2,2.2-4.2,4h-0.1l-0.7-3.7c1.5-0.6,3.2-1.3,5.1-1.3
				c2.8,0,5.2,1.3,5.2,3.9c0,2.2-1.8,4.2-3.8,5.9c-1.4,1.4-3.5,3.1-4.2,3.7h3.5c1.7,0,3.2-0.4,4.4-1.4h0.1l-0.6,3.9h-10.3
				C734.6,849.5,737.8,845.4,737.8,842.3z"/>
			<path class="st1" d="M742.4,847.2c0-4.8,2.9-8,6.6-8c3.7,0,6.6,3.3,6.6,8c0,4.9-2.9,8.1-6.6,8.1
				C745.3,855.3,742.4,852.1,742.4,847.2z M751.8,847.2c0-3.2-0.6-7-2.8-7c-2.3,0-2.8,3.9-2.8,7.1c0,3.3,0.6,7.1,2.8,7.1
				C751.2,854.4,751.8,850.4,751.8,847.2z"/>
			<path class="st1" d="M763.7,842.3c0-1-0.5-2.2-1.8-2.2c-1.7,0-3.2,2.2-4.2,4h-0.1l-0.7-3.7c1.5-0.6,3.2-1.3,5.1-1.3
				c2.8,0,5.2,1.3,5.2,3.9c0,2.2-1.8,4.2-3.8,5.9c-1.4,1.4-3.5,3.1-4.2,3.7h3.5c1.7,0,3.2-0.4,4.4-1.4h0.1l-0.6,3.9h-10.3
				C760.4,849.5,763.7,845.4,763.7,842.3z"/>
			<path class="st1" d="M768.3,847.2c0-4.8,2.9-8,6.6-8c3.7,0,6.6,3.3,6.6,8c0,4.9-2.9,8.1-6.6,8.1
				C771.1,855.3,768.3,852.1,768.3,847.2z M777.7,847.2c0-3.2-0.6-7-2.8-7c-2.3,0-2.8,3.9-2.8,7.1c0,3.3,0.6,7.1,2.8,7.1
				S777.7,850.4,777.7,847.2z"/>
		</g>
	</g>
	<g>
		<path class="st1" d="M16,795.8h9.9v1H16V795.8z"/>
		<path class="st1" d="M32.8,787.2v12.9c0,1.5,0.5,3.1,0.6,3.3v0.1H29v-0.1c0.1-0.3,0.6-1.9,0.6-3.3v-9.6H27V790
			C29.1,789.4,31.1,788.5,32.8,787.2z"/>
		<path class="st1" d="M35.2,801.9c0-1,0.8-1.9,1.9-1.9s1.9,0.8,1.9,1.9s-0.9,1.9-1.9,1.9S35.2,803,35.2,801.9z"/>
		<path class="st1" d="M40.2,795.6c0-4.8,2.9-8,6.6-8c3.7,0,6.6,3.3,6.6,8c0,4.9-2.9,8.1-6.6,8.1C43,803.7,40.2,800.5,40.2,795.6z
			 M49.6,795.6c0-3.2-0.6-7-2.8-7c-2.3,0-2.8,3.9-2.8,7.1c0,3.3,0.6,7.1,2.8,7.1C49,802.8,49.6,798.9,49.6,795.6z"/>
		<path class="st1" d="M54.7,790.7c0-1.7,1.3-3.2,3.2-3.2c1.8,0,3.2,1.5,3.2,3.2s-1.4,3.2-3.2,3.2C56.1,793.9,54.7,792.4,54.7,790.7
			z M59.8,790.7c0-1-0.8-1.9-1.9-1.9s-1.8,0.9-1.8,1.9s0.7,1.9,1.8,1.9S59.8,791.7,59.8,790.7z"/>
	</g>
	<g>
		<path class="st1" d="M11.4,686.3h9.9v1h-9.9V686.3z"/>
		<path class="st1" d="M23.3,686.1c0-4.8,2.9-8,6.6-8s6.6,3.3,6.6,8c0,4.9-2.9,8.1-6.6,8.1C26.2,694.2,23.3,690.9,23.3,686.1z
			 M32.7,686c0-3.2-0.6-7-2.8-7c-2.3,0-2.8,3.9-2.8,7.1c0,3.3,0.6,7.1,2.8,7.1C32.1,693.2,32.7,689.3,32.7,686z"/>
		<path class="st1" d="M37.3,692.4c0-1,0.8-1.9,1.9-1.9s1.9,0.8,1.9,1.9s-0.9,1.9-1.9,1.9S37.3,693.4,37.3,692.4z"/>
		<path class="st1" d="M42.7,693.1l0.3-3.7h0.1c1.2,2.3,2.7,4,4.2,4c1.4,0,2.4-1.3,2.4-3.7c0-2.3-1-4-3.2-4c-0.8,0-2,0.2-3.5,0.9
			l0.8-8.4h0.1h5.2c1.7,0,3.5-0.4,4-0.7l-0.7,3.5h-7.8l-0.4,4.2c1.3-0.8,2.7-1.1,4-1.1c3.5,0,5.2,2.4,5.2,5.1c0,3.2-2.5,5.1-6,5.1
			C45.4,694.3,43.9,693.7,42.7,693.1z"/>
		<path class="st1" d="M54.7,681.1c0-1.7,1.3-3.2,3.2-3.2c1.8,0,3.2,1.5,3.2,3.2s-1.4,3.2-3.2,3.2C56.1,684.3,54.7,682.8,54.7,681.1
			z M59.8,681.1c0-1-0.8-1.9-1.9-1.9c-1.1,0-1.8,0.9-1.8,1.9s0.7,1.9,1.8,1.9C59,683,59.8,682.1,59.8,681.1z"/>
	</g>
	<g>
		<path class="st1" d="M21.2,576.8c0-4.8,2.9-8,6.6-8s6.6,3.3,6.6,8c0,4.9-2.9,8.1-6.6,8.1C24.1,584.9,21.2,581.7,21.2,576.8z
			 M30.6,576.8c0-3.2-0.6-7-2.8-7c-2.3,0-2.8,3.9-2.8,7.1c0,3.3,0.6,7.1,2.8,7.1C30,583.9,30.6,580,30.6,576.8z"/>
		<path class="st1" d="M35.2,583.1c0-1,0.8-1.9,1.9-1.9s1.9,0.8,1.9,1.9s-0.9,1.9-1.9,1.9S35.2,584.1,35.2,583.1z"/>
		<path class="st1" d="M40.2,576.8c0-4.8,2.9-8,6.6-8c3.7,0,6.6,3.3,6.6,8c0,4.9-2.9,8.1-6.6,8.1C43,584.9,40.2,581.7,40.2,576.8z
			 M49.6,576.8c0-3.2-0.6-7-2.8-7c-2.3,0-2.8,3.9-2.8,7.1c0,3.3,0.6,7.1,2.8,7.1C49,583.9,49.6,580,49.6,576.8z"/>
		<path class="st1" d="M54.7,571.8c0-1.7,1.3-3.2,3.2-3.2c1.8,0,3.2,1.5,3.2,3.2s-1.4,3.2-3.2,3.2C56.1,575,54.7,573.5,54.7,571.8z
			 M59.8,571.8c0-1-0.8-1.9-1.9-1.9s-1.8,0.9-1.8,1.9s0.7,1.9,1.8,1.9S59.8,572.8,59.8,571.8z"/>
	</g>
	<g>
		<path class="st1" d="M23.3,467.3c0-4.8,2.9-8,6.6-8s6.6,3.3,6.6,8c0,4.9-2.9,8.1-6.6,8.1S23.3,472.2,23.3,467.3z M32.7,467.2
			c0-3.2-0.6-7-2.8-7c-2.3,0-2.8,3.9-2.8,7.1c0,3.3,0.6,7.1,2.8,7.1C32.1,474.4,32.7,470.5,32.7,467.2z"/>
		<path class="st1" d="M37.3,473.6c0-1,0.8-1.9,1.9-1.9s1.9,0.8,1.9,1.9s-0.9,1.9-1.9,1.9S37.3,474.6,37.3,473.6z"/>
		<path class="st1" d="M42.7,474.3l0.3-3.7h0.1c1.2,2.3,2.7,4,4.2,4c1.4,0,2.4-1.3,2.4-3.7c0-2.3-1-4-3.2-4c-0.8,0-2,0.2-3.5,0.9
			l0.8-8.4h0.1h5.2c1.7,0,3.5-0.4,4-0.7l-0.7,3.5h-7.8l-0.4,4.2c1.3-0.8,2.7-1.1,4-1.1c3.5,0,5.2,2.4,5.2,5.1c0,3.2-2.5,5.1-6,5.1
			C45.4,475.5,43.9,474.9,42.7,474.3z"/>
		<path class="st1" d="M54.7,462.3c0-1.7,1.3-3.2,3.2-3.2c1.8,0,3.2,1.5,3.2,3.2s-1.4,3.2-3.2,3.2C56.1,465.5,54.7,464,54.7,462.3z
			 M59.8,462.3c0-1-0.8-1.9-1.9-1.9c-1.1,0-1.8,0.9-1.8,1.9s0.7,1.9,1.8,1.9C59,464.3,59.8,463.3,59.8,462.3z"/>
	</g>
	<g>
		<path class="st1" d="M32.8,349.4v12.9c0,1.5,0.5,3.1,0.6,3.3v0.1H29v-0.1c0.1-0.3,0.6-1.9,0.6-3.3v-9.6H27v-0.6
			C29.1,351.5,31.1,350.7,32.8,349.4z"/>
		<path class="st1" d="M35.2,364.1c0-1,0.8-1.9,1.9-1.9s1.9,0.8,1.9,1.9s-0.9,1.9-1.9,1.9S35.2,365.1,35.2,364.1z"/>
		<path class="st1" d="M40.2,357.8c0-4.8,2.9-8,6.6-8c3.7,0,6.6,3.3,6.6,8c0,4.9-2.9,8.1-6.6,8.1C43,365.9,40.2,362.7,40.2,357.8z
			 M49.6,357.8c0-3.2-0.6-7-2.8-7c-2.3,0-2.8,3.9-2.8,7.1c0,3.3,0.6,7.1,2.8,7.1C49,364.9,49.6,361,49.6,357.8z"/>
		<path class="st1" d="M54.7,352.8c0-1.7,1.3-3.2,3.2-3.2c1.8,0,3.2,1.5,3.2,3.2s-1.4,3.2-3.2,3.2C56.1,356,54.7,354.5,54.7,352.8z
			 M59.8,352.8c0-1-0.8-1.9-1.9-1.9c-1.1,0-1.8,0.9-1.8,1.9s0.7,1.9,1.8,1.9C59,354.8,59.8,353.8,59.8,352.8z"/>
	</g>
	<g>
		<path class="st1" d="M34.9,239.9v12.9c0,1.5,0.5,3.1,0.6,3.3v0.1H31v-0.1c0.1-0.3,0.6-1.9,0.6-3.3v-9.6H29v-0.6
			C31.2,242,33.2,241.2,34.9,239.9z"/>
		<path class="st1" d="M37.3,254.6c0-1,0.8-1.9,1.9-1.9s1.9,0.8,1.9,1.9s-0.9,1.9-1.9,1.9S37.3,255.6,37.3,254.6z"/>
		<path class="st1" d="M42.7,255.3l0.3-3.7h0.1c1.2,2.3,2.7,4,4.2,4c1.4,0,2.4-1.3,2.4-3.7c0-2.3-1-4-3.2-4c-0.8,0-2,0.2-3.5,0.9
			l0.8-8.4h0.1h5.2c1.7,0,3.5-0.4,4-0.7l-0.7,3.5h-7.8l-0.4,4.2c1.3-0.8,2.7-1.1,4-1.1c3.5,0,5.2,2.4,5.2,5.1c0,3.2-2.5,5.1-6,5.1
			C45.4,256.5,43.9,256,42.7,255.3z"/>
		<path class="st1" d="M54.7,243.3c0-1.7,1.3-3.2,3.2-3.2c1.8,0,3.2,1.5,3.2,3.2s-1.4,3.2-3.2,3.2C56.1,246.5,54.7,245,54.7,243.3z
			 M59.8,243.3c0-1-0.8-1.9-1.9-1.9s-1.8,0.9-1.8,1.9s0.7,1.9,1.8,1.9S59.8,244.3,59.8,243.3z"/>
	</g>
	<g>
		<path class="st1" d="M30.1,133.9c0-1-0.5-2.2-1.8-2.2c-1.7,0-3.2,2.2-4.2,4H24l-0.7-3.7c1.5-0.6,3.2-1.3,5.1-1.3
			c2.8,0,5.2,1.3,5.2,3.9c0,2.2-1.8,4.2-3.8,5.9c-1.4,1.4-3.5,3.1-4.2,3.7h3.5c1.7,0,3.2-0.4,4.4-1.4h0.1l-0.6,3.9H22.7
			C26.9,141.1,30.1,137,30.1,133.9z"/>
		<path class="st1" d="M35.2,145.1c0-1,0.8-1.9,1.9-1.9s1.9,0.8,1.9,1.9s-0.9,1.9-1.9,1.9S35.2,146.1,35.2,145.1z"/>
		<path class="st1" d="M40.2,138.8c0-4.8,2.9-8,6.6-8c3.7,0,6.6,3.3,6.6,8c0,4.9-2.9,8.1-6.6,8.1C43,146.9,40.2,143.7,40.2,138.8z
			 M49.6,138.8c0-3.2-0.6-7-2.8-7c-2.3,0-2.8,3.9-2.8,7.1c0,3.3,0.6,7.1,2.8,7.1C49,145.9,49.6,142,49.6,138.8z"/>
		<path class="st1" d="M54.7,133.8c0-1.7,1.3-3.2,3.2-3.2c1.8,0,3.2,1.5,3.2,3.2s-1.4,3.2-3.2,3.2C56.1,137,54.7,135.5,54.7,133.8z
			 M59.8,133.8c0-1-0.8-1.9-1.9-1.9s-1.8,0.9-1.8,1.9s0.7,1.9,1.8,1.9S59.8,134.8,59.8,133.8z"/>
	</g>
	<g>
		<path class="st1" d="M30.1,24.4c0-1-0.5-2.2-1.8-2.2c-1.7,0-3.2,2.2-4.2,4H24l-0.7-3.7c1.5-0.6,3.2-1.3,5.1-1.3
			c2.8,0,5.2,1.3,5.2,3.9c0,2.2-1.8,4.2-3.8,5.9c-1.4,1.4-3.5,3.1-4.2,3.7h3.5c1.7,0,3.2-0.4,4.4-1.4h0.1L33,37.2H22.7
			C26.9,31.6,30.1,27.5,30.1,24.4z"/>
		<path class="st1" d="M35.2,35.6c0-1,0.8-1.9,1.9-1.9s1.9,0.8,1.9,1.9s-0.9,1.9-1.9,1.9S35.2,36.6,35.2,35.6z"/>
		<path class="st1" d="M40.6,36.3l0.3-3.7H41c1.2,2.3,2.7,4,4.2,4c1.4,0,2.4-1.3,2.4-3.7c0-2.3-1-4-3.2-4c-0.8,0-2,0.2-3.5,0.9
			l0.8-8.4h0.1H47c1.7,0,3.5-0.4,4-0.7l-0.7,3.5h-7.8l-0.4,4.2c1.3-0.8,2.7-1.1,4-1.1c3.5,0,5.2,2.4,5.2,5.1c0,3.2-2.5,5.1-6,5.1
			C43.3,37.5,41.8,37,40.6,36.3z"/>
		<path class="st1" d="M52.7,24.3c0-1.7,1.3-3.2,3.2-3.2c1.8,0,3.2,1.5,3.2,3.2s-1.4,3.2-3.2,3.2C54,27.5,52.7,26,52.7,24.3z
			 M57.7,24.3c0-1-0.8-1.9-1.9-1.9s-1.8,1-1.8,1.9s0.7,1.9,1.8,1.9S57.7,25.3,57.7,24.3z"/>
	</g>
	<g class="st2">
		<rect x="84.5" y="797.4" class="st1" width="711.3" height="0.5"/>
	</g>
	<g class="st2">
		<g>
			<rect x="795.5" y="797.4" class="st1" width="3" height="0.5"/>
		</g>
		<g>
			<path class="st1" d="M819,797.9h-5.1v-0.5h5.1V797.9z M808.8,797.9h-5.1v-0.5h5.1V797.9z"/>
		</g>
		<g>
			<rect x="824.2" y="797.4" class="st1" width="3" height="0.5"/>
		</g>
	</g>
	<g class="st2">
		<rect x="84.5" y="250" class="st1" width="718.2" height="0.5"/>
	</g>
	<g class="st2">
		<rect x="88.5" y="140.5" class="st1" width="714.2" height="0.5"/>
	</g>
	<g class="st2">
		<rect x="88.5" y="31" class="st1" width="714.2" height="0.5"/>
	</g>
	<g class="st2">
		<rect x="84.5" y="359.5" class="st1" width="718.2" height="0.5"/>
	</g>
	<g class="st2">
		<rect x="84.5" y="469" class="st1" width="718.2" height="0.5"/>
	</g>
	<g class="st2">
		<rect x="88.3" y="578.5" class="st1" width="718.2" height="0.5"/>
	</g>
	<g class="st2">
		<rect x="84.5" y="687.8" class="st1" width="718.2" height="0.5"/>
	</g>
	<g class="st2">
		<rect x="262.4" y="7.9" class="st1" width="0.5" height="812.8"/>
	</g>
	<g class="st2">
		<rect x="426.8" y="7.9" class="st1" width="0.5" height="812.8"/>
	</g>
	<g class="st2">
		<rect x="591.2" y="7.9" class="st1" width="0.5" height="812.8"/>
	</g>
	<g class="st2">
		<rect x="755.7" y="7.9" class="st1" width="0.5" height="812.8"/>
	</g>
	<g class="st2">
		<rect x="130.8" y="7.9" class="st1" width="0.5" height="812.8"/>
	</g>
	<g transform="translate(657.7777777777777,0)">
		<g class="st0">
			<path class="st1" d="M-63.8,225.4h5.9c6.9,0,7.6-0.1,8.3-0.8c0.6-0.6,0.7-1.3,0.7-8.3V210h3.5v6.4c0,7,0.1,7.6,0.7,8.3
				c0.7,0.7,1.4,0.8,8.3,0.8h6.9v3.3h-6.8c-6.9,0-7.6,0.1-8.3,0.8c-0.6,0.6-0.7,1.3-0.7,8.3v6.3h-3.5v-6.3c0-7-0.1-7.6-0.7-8.3
				c-0.7-0.7-1.4-0.8-8.3-0.8h-5.9L-63.8,225.4L-63.8,225.4z"/>
			<path class="st1" d="M-6.1,197.7v41.6c0,4.7,1.6,9.8,1.8,10.8v0.3h-14.3v-0.3c0.2-0.9,1.8-6,1.8-10.8v-30.8h-8.5v-1.8
				C-18,204.7-11.5,202-6.1,197.7z"/>
			<path class="st1" d="M1.8,245.1c0-3.3,2.7-6,6-6c3.3,0,6.1,2.7,6.1,6c0,3.3-2.8,6-6.1,6C4.4,251.1,1.8,248.4,1.8,245.1z"/>
			<path class="st1" d="M19.2,247.5l1.1-11.8l0.4-0.1c3.9,7.3,8.8,12.7,13.4,12.7c4.5,0,7.7-4,7.7-12c0-7.4-3.3-12.7-10.3-13
				c-2.5-0.1-6.5,0.6-11.3,3l2.5-26.9h0.3h16.6c5.6,0,11.3-1.4,12.7-2.2l-2.2,11.3H25.1l-1.3,13.6c4.2-2.5,8.6-3.6,12.7-3.6
				c11.4,0,16.7,7.8,16.7,16.3c0,10.4-8.1,16.5-19.2,16.5C27.8,251.3,23,249.5,19.2,247.5z"/>
			<path class="st1" d="M79.6,199.4h9.2v35.9h7.2v3.1h-7.2v1c0,4.7,1.6,10,1.8,11H76.4c0.2-1,1.8-6.2,1.8-11v-1H56.1h-0.4
				L79.6,199.4z M78.2,235.4v-27.6l-17,27.6H78.2z"/>
			<path class="st1" d="M98.1,208.9c0-5.5,4.3-10.2,10.3-10.2s10.4,4.7,10.4,10.2c0,5.5-4.5,10.3-10.4,10.3
				C102.4,219.2,98.1,214.3,98.1,208.9z M114.3,208.9c0-3.2-2.5-6.1-6-6.1c-3.5,0-5.9,2.9-5.9,6.1s2.3,6.2,5.9,6.2
				C111.9,215.1,114.3,212.1,114.3,208.9z"/>
		</g>
	</g>
	<g id="viz_00000142147302094562873380000015305585598592093355_">
		<g>
			<g>
				<path class="st1" d="M163.9,742.3c-6,0-7.9-10.3-10.7-28.5c-1.3-8.5-3.5-22.7-5.9-24.3c-5.5-0.2-7.2-11.7-10.6-56.3
					c-1.5-20.1-3.6-47.3-6.4-51.6h-1.8v-5h2.5c5.7,0,7.3,11.3,10.7,56.3c1.5,20.1,3.6,47.6,6.4,51.7c5.4,0.8,7.3,11,10,28.5
					c1.2,7.5,3,19.4,5.1,23.2c2.9-10.1,4.8-56.6,6.4-94.5c3.8-91.1,5.4-100.4,10.7-100.4c2.6,0,4-2.1,6.1-5.4
					c2.2-3.5,4.8-7.8,10.3-7.8s7.1,10.9,10.7,72.8c1.4,24.2,3.3,56.3,5.8,66c2.4-8.5,4.3-35,5.6-55c3.6-52,5.3-61.8,10.7-61.8
					c5.9,0,7.5,11.4,10.7,44.1c1.3,13,3.1,31.9,5.4,38c2.7-9.4,4.6-45.2,6.1-72c3.6-66.6,5.2-78.3,10.7-78.3s7.1,9.7,10.7,65.1
					c1.5,23.3,3.6,55,6.4,60.3c2.1-0.7,3.7-4.5,5.2-8.3c2.2-5.2,4.6-11.2,10.1-11.4c2.6-2.8,4.7-22.3,6.1-35.2
					c3.1-28.4,4.9-39.4,10.5-39.7c2.5-2,4.7-18,6-27.6c2.9-21,4.7-31.9,10.7-31.9c3.5,0,5.4,3.7,7.4,26.7
					c1.3,14.7,2.3,34.6,3.3,53.8c1.6,29.7,3.7,70.2,6.7,75.9c5,1.1,6.8,11.7,9.7,37.3c1.4,12.1,3.5,30.3,6.1,33
					c2.2-0.2,3.7-2.6,5.7-6.4c2-3.8,4.6-8.5,9.6-9c2.9-5,5-38.2,6.5-62.7c3.5-55.4,5.1-66.6,10.2-67.3c2.7-3.3,4.8-25.7,6.3-40.7
					c3.2-33.5,4.9-45.2,10.7-45.2c6,0,8.3,8.4,10.6,17.3c1.3,4.7,3.6,13.6,5.8,13.6c4.4,0,6.7,0.6,8.9,1.2c2,0.5,3.8,1,7.6,1
					c5.5,0,8.2,4.3,10.3,7.8c1.9,3.1,3.2,5,5.4,5.4c2.8-4.8,4.9-34.3,6.4-56c3.6-51.6,5.2-60.7,10.7-60.7c5.6,0,7.3,10.6,10.7,49.6
					c1.4,16.6,3.6,41.4,6.3,45.1c5.5,0.6,7.3,10,10.1,26.3c1.2,7.2,3.5,20.6,5.8,22.1c2.2-0.9,4.6-13,5.7-18.9
					c2.5-12.8,4.5-22.9,10.7-22.9c2.3,0,4.4-6,5.9-10.4c2.3-6.8,4.7-13.8,10.6-13.8c2.4,0,4.2-4.3,5.9-8.4
					c2.2-5.4,4.8-11.5,10.5-11.5c6,0,7.8,11.7,10.7,34.1c1.3,10.3,3.5,27.5,6,29.8c5.9,0.3,8,10.3,10.4,21.8
					c1,4.9,3.3,15.9,5.4,17.6c2.6-4.4,4.7-28.6,6.2-44.8c3.2-37.3,5-48.7,10-49.6c2.8-4.2,4.9-32.2,6.4-52.8
					c3.4-45.8,5-57.4,10.7-57.4c6,0,7.8,10.9,10.7,31.9c1.3,9.6,3.5,25.5,6,27.6c3.1-0.1,4.6-1.2,6.4-2.8c2.1-1.7,4.7-3.8,9.6-3.9
					c2.4-1.9,4.6-17.3,6-26.5c2.9-20.2,4.7-30.8,10.7-30.8c6.2,0,8.2,11.1,10.7,25.2c1.2,7,3.5,19.9,5.8,21.1
					c6.1,0.1,8.1,10.7,10.6,24.1c1.1,6.1,3.2,16.9,5.2,19.5c2.7-6.4,4.8-37.8,6.3-61c3.6-56.3,5.2-66.2,10.7-66.2
					c6.2,0,8.2,10.6,10.7,24.1c1.2,6.7,3.6,19.1,5.8,20l0,0c6,0,7.7,11.7,10.6,34.1c1.3,10.3,3.5,27.3,6,29.7
					c2.2-0.5,4.2-7,5.6-11.4c2.2-7,4.4-14.2,9.8-14.9c2.9-5.2,5-40.2,6.6-66c3.6-60.1,5.2-70.6,10.7-70.6h2.5v5h-1.7
					c-2.9,5.4-5,40.3-6.5,65.9c-3.6,60.1-5.2,70.6-10.7,70.6c-2.3,0-4.4,6.9-5.8,11.5c-2.3,7.4-4.7,15-10.6,15
					c-6,0-7.8-11.7-10.7-34.1c-1.3-10.3-3.5-27.5-6-29.8c-6-0.3-7.9-10.8-10.4-24.1c-1.1-6.1-3.2-16.9-5.2-19.5
					c-2.7,6.4-4.8,37.8-6.3,61c-3.6,56.3-5.2,66.2-10.7,66.2c-6.2,0-8.2-10.6-10.7-24.1c-1.2-6.7-3.6-19.1-5.8-20l0,0
					c-6.1,0-8.1-11.1-10.6-25.2c-1.2-6.8-3.4-19.3-5.7-21c-2.4,2.3-4.5,17.3-5.8,26.4c-2.9,20.2-4.7,30.8-10.7,30.8
					c-3.2,0-4.7,1.2-6.7,2.8c-2.1,1.7-4.8,3.9-9.8,3.9c-6,0-7.8-10.9-10.7-31.9c-1.2-8.9-3.2-23.1-5.4-26.9
					c-2.6,6.1-4.6,32.4-6,52.1c-3.3,44.2-4.9,56.5-10.1,57.3c-2.7,3.6-4.9,28.5-6.3,45.1c-3.4,39.1-5.1,49.6-10.7,49.6
					c-6.1,0-8.2-10.1-10.7-21.8c-1.1-5.2-3.6-17.4-5.8-17.8c-6,0-7.8-11.7-10.7-34.1c-1.3-10.3-3.5-27.4-6-29.7
					c-2.3,0.3-4,4.4-5.6,8.4c-2.2,5.4-4.8,11.5-10.5,11.5c-2.3,0-4.4,6-5.9,10.4c-2.3,6.8-4.7,13.8-10.6,13.8
					c-2.2,0.7-4.6,13-5.8,18.9c-2.5,12.8-4.5,22.9-10.7,22.9c-5.9,0-7.8-9.5-10.7-26.3c-1.2-7.3-3.5-20.8-5.9-22.1
					c-5.5-0.1-7.2-10.8-10.6-49.6c-1.3-15.1-3.2-37.1-5.6-43.7c-2.5,7.5-4.4,34.4-5.8,54.6c-3.6,51.6-5.2,60.7-10.7,60.7
					s-8.2-4.3-10.3-7.8c-2.1-3.4-3.5-5.4-6.1-5.4c-4.4,0-6.7-0.6-8.9-1.2c-2-0.5-3.8-1-7.6-1c-6,0-8.3-8.4-10.6-17.3
					c-1.2-4.4-3.3-12.5-5.4-13.5c-2.6,3.7-4.7,25.8-6.2,40.6c-3,31.8-4.7,44-9.9,45.1c-2.9,4.9-5,38.2-6.6,62.7
					c-3.6,57.2-5.2,67.3-10.7,67.3c-2.4,0-3.9,2.4-6,6.4s-4.8,9-10.4,9c-5.8,0-7.5-10.3-10.7-37.4c-1.4-12.2-3.6-30.5-6.1-33
					c-3.3-0.3-5.1-4.5-7-26.7c-1.3-14.7-2.3-34.6-3.3-53.8c-1.5-28.2-3.5-66.1-6.2-74.8c-2.2,4.2-4.1,17.9-5.2,26.5
					c-2.8,20.5-4.6,31.4-10.3,31.9c-2.6,2.8-4.7,22.3-6.2,35.2c-3.2,28.8-4.9,39.7-10.7,39.7c-2.4,0-4.2,4.3-5.9,8.4
					c-2.2,5.4-4.8,11.5-10.5,11.5c-5.5,0-7.1-9.7-10.7-65.1c-1.4-21.1-3.2-48.9-5.6-58c-2.6,10.5-4.4,45.1-5.8,71.2
					c-3.6,66.6-5.2,78.3-10.7,78.3c-5.9,0-7.5-11.4-10.7-44.1c-1.3-13.3-3.2-32.6-5.6-38.4c-2.6,7.4-4.5,35.1-5.9,55.9
					c-3.6,52-5.3,61.8-10.7,61.8c-5.5,0-7.1-10.9-10.7-72.8c-1.5-26.4-3.6-62.3-6.5-68c-2.1,0.4-3.4,2.4-5.3,5.4
					c-2,3.2-4.5,7.2-9.3,7.7c-3.1,7.1-5.1,56.1-6.8,95.7C170.8,733,169.2,742.3,163.9,742.3z M148.4,684.7L148.4,684.7L148.4,684.7z
					"/>
			</g>
		</g>
	</g>
	<g>
		<rect x="787.2" y="236.4" class="st3" width="3.9" height="561.8"/>
	</g>
	<g>
		<circle class="st3" cx="789.1" cy="239.8" r="12.2"/>
	</g>
</g>
</svg>
